<svg xmlns="http://www.w3.org/2000/svg" viewBox="0 0 200 136.89"><defs><style>.cls-1{fill:#f6eff6;}.cls-2{fill:#fff;}.cls-3,.cls-4,.cls-5{fill:none;stroke:#000;stroke-miterlimit:10;}.cls-4{stroke-width:0.81px;}.cls-5{stroke-width:0.52px;}</style></defs><g id="Capa_2" data-name="Capa 2"><g id="Capa_1-2" data-name="Capa 1"><rect class="cls-1" y="0.3" width="200" height="136.59" rx="9.76"/><path class="cls-2" d="M84.49,66.15h31l-6.91-6.9a13.65,13.65,0,0,1-3.93,2.31,13.49,13.49,0,0,1-9.29,0,13.48,13.48,0,0,1-3.93-2.31Zm-1.41-1.77,6.75-6.73a13.68,13.68,0,0,1-2.32-3.93,13.49,13.49,0,0,1,0-9.29,13.59,13.59,0,0,1,2.3-4l-6.74-6.79Zm8.36-8.33,7-7-7-7a11,11,0,0,0-1.85,10.72A11.22,11.22,0,0,0,91.44,56.05ZM100,60.14a10.75,10.75,0,0,0,3.75-.65A11.14,11.14,0,0,0,107,57.64l-7-7-7,7a10.86,10.86,0,0,0,3.24,1.85A11.06,11.06,0,0,0,100,60.14Zm0-12.68,7-7a11.68,11.68,0,0,0-3.21-1.84A10.58,10.58,0,0,0,100,38a10.32,10.32,0,0,0-3.75.68A12,12,0,0,0,93,40.5Zm8.59,8.59a12.62,12.62,0,0,0,1.82-3.22,10.28,10.28,0,0,0,.67-3.75,10.81,10.81,0,0,0-.66-3.78,11.49,11.49,0,0,0-1.83-3.24l-7,7Zm8.33,8.33V33.69l-6.74,6.79a13.83,13.83,0,0,1,2.32,3.94,13.06,13.06,0,0,1,.83,4.66,12.91,12.91,0,0,1-.83,4.64,14.12,14.12,0,0,1-2.31,3.93ZM108.6,38.9,115.54,32h-31l6.88,6.88a14.12,14.12,0,0,1,3.93-2.31,13,13,0,0,1,4.64-.83,12.79,12.79,0,0,1,4.65.84A13.71,13.71,0,0,1,108.6,38.9Zm-24,29.36a3.7,3.7,0,0,1-3.74-3.74V33.65a3.69,3.69,0,0,1,3.74-3.74h30.86a3.69,3.69,0,0,1,3.74,3.74V64.5a3.65,3.65,0,0,1-1.08,2.66,3.6,3.6,0,0,1-2.66,1.1Z"/><path class="cls-2" d="M63.09,96.89h2.17V115.5H76.73v1.87H63.09Zm22.24,5A6.52,6.52,0,0,1,90,103.38a5.8,5.8,0,0,1,1.61,4.45v9.54h-2V115a4.83,4.83,0,0,1-2.08,1.88,7.12,7.12,0,0,1-3.22.67,6.32,6.32,0,0,1-4.1-1.23,4.25,4.25,0,0,1-.12-6.41,7,7,0,0,1,4.54-1.2h4.89v-.93a3.9,3.9,0,0,0-1.11-3,4.59,4.59,0,0,0-3.25-1,8,8,0,0,0-2.81.49A7.21,7.21,0,0,0,80,105.49l-.93-1.55a8.08,8.08,0,0,1,2.81-1.52A10.66,10.66,0,0,1,85.33,101.86Zm-.73,14a5.49,5.49,0,0,0,3-.79,4.89,4.89,0,0,0,1.88-2.34v-2.52H84.66c-2.64,0-4,.92-4,2.75a2.57,2.57,0,0,0,1,2.14A4.71,4.71,0,0,0,84.6,115.88Zm20.54-14a7.73,7.73,0,0,1,3.92,1,6.87,6.87,0,0,1,2.75,2.75,8.78,8.78,0,0,1,0,8.14,7.14,7.14,0,0,1-2.75,2.78,7.82,7.82,0,0,1-3.92,1,7.27,7.27,0,0,1-3.48-.82,6.29,6.29,0,0,1-2.46-2.37v3h-2V95.66h2.08v9.25a6.27,6.27,0,0,1,2.46-2.26A7.3,7.3,0,0,1,105.14,101.86ZM105,115.68a6,6,0,0,0,2.92-.73,5.28,5.28,0,0,0,2-2.14,6.83,6.83,0,0,0,0-6.26,5.09,5.09,0,0,0-2-2.11,5.71,5.71,0,0,0-2.92-.76,5.77,5.77,0,0,0-3,.76,5.34,5.34,0,0,0-2.05,2.11,7.08,7.08,0,0,0,0,6.26A5.56,5.56,0,0,0,102,115,6.07,6.07,0,0,0,105,115.68Zm25.45-5.36H117.57a5.52,5.52,0,0,0,1.85,3.89,6.12,6.12,0,0,0,4.21,1.47,6.86,6.86,0,0,0,2.64-.5,5.86,5.86,0,0,0,2.07-1.52l1.17,1.34a6.58,6.58,0,0,1-2.57,1.88,8.58,8.58,0,0,1-3.37.64,8.75,8.75,0,0,1-4.21-1,7.44,7.44,0,0,1-2.84-2.81,8,8,0,0,1-1-4,8.38,8.38,0,0,1,1-4,7.19,7.19,0,0,1,2.69-2.78,7.54,7.54,0,0,1,3.87-1,7.37,7.37,0,0,1,3.83,1,7,7,0,0,1,2.66,2.78,8.19,8.19,0,0,1,1,4ZM123,103.65a5.27,5.27,0,0,0-3.75,1.43,5.61,5.61,0,0,0-1.7,3.69h10.92a5.5,5.5,0,0,0-1.73-3.69A5.19,5.19,0,0,0,123,103.65Zm11.69-8h2.08v21.71h-2.08Z"/></g><g id="Capa_2-2" data-name="Capa 2"><line class="cls-1" x1="99.97" x2="99.97" y2="29.61"/><line class="cls-3" x1="99.97" y1="2.84" x2="99.97" y2="26.77"/><path d="M100,0a14.34,14.34,0,0,1-2.24,4L100,3.21,102.2,4A14.31,14.31,0,0,1,100,0Z"/><path d="M100,29.61a14.2,14.2,0,0,0-2.24-4l2.24.81,2.23-.81A14.18,14.18,0,0,0,100,29.61Z"/><line class="cls-1" x1="101.4" y1="67.55" x2="101.4" y2="97.15"/><line class="cls-3" x1="101.4" y1="70.38" x2="101.4" y2="94.31"/><path d="M101.4,67.55a14.15,14.15,0,0,1-2.24,4l2.24-.81,2.23.81A14.12,14.12,0,0,1,101.4,67.55Z"/><path d="M101.4,97.15a14.34,14.34,0,0,0-2.24-4l2.24.81,2.23-.81A14.31,14.31,0,0,0,101.4,97.15Z"/><line class="cls-1" x1="102.87" y1="117.52" x2="102.87" y2="136.89"/><line class="cls-4" x1="102.87" y1="119.82" x2="102.87" y2="134.59"/><path d="M102.87,117.52a11.57,11.57,0,0,1-1.81,3.25l1.81-.65,1.81.65A11.33,11.33,0,0,1,102.87,117.52Z"/><path d="M102.87,136.89a11.57,11.57,0,0,0-1.81-3.25l1.81.65,1.81-.65A11.33,11.33,0,0,0,102.87,136.89Z"/><line class="cls-1" x1="80.83" y1="50.62" y2="50.62"/><line class="cls-3" x1="77.99" y1="50.62" x2="2.84" y2="50.62"/><path d="M80.83,50.62a14.07,14.07,0,0,1-4-2.24l.81,2.24-.81,2.23A14,14,0,0,1,80.83,50.62Z"/><path d="M0,50.62a14.34,14.34,0,0,0,4-2.24l-.81,2.24L4,52.85A14.31,14.31,0,0,0,0,50.62Z"/><path d="M112.09,10.57h0l-1.35.73-.21-.8,1.71-.91h.9v7.8h-1Z"/><path d="M120.4,10.33a3.83,3.83,0,0,0-.79.05,3.18,3.18,0,0,0-2.71,2.77h0a2.37,2.37,0,0,1,4.23,1.62,2.61,2.61,0,0,1-2.59,2.75c-1.67,0-2.76-1.3-2.76-3.32a4.9,4.9,0,0,1,1.32-3.52,4.28,4.28,0,0,1,2.5-1.15,4.73,4.73,0,0,1,.76-.06Zm-.3,4.5A1.58,1.58,0,0,0,118.5,13,1.76,1.76,0,0,0,117,14a.93.93,0,0,0-.12.47c0,1.28.62,2.23,1.72,2.23C119.49,16.7,120.1,16,120.1,14.83Z"/><path d="M122.44,13.48c0-.75,0-1.35,0-1.9h.94l0,1h0a2.27,2.27,0,0,1,2.06-1.13c1.4,0,2.46,1.19,2.46,3,0,2.09-1.27,3.12-2.64,3.12a2.05,2.05,0,0,1-1.79-.91h0v3.15h-1Zm1,1.54a1.88,1.88,0,0,0,.05.43,1.61,1.61,0,0,0,1.58,1.24c1.11,0,1.76-.91,1.76-2.24,0-1.17-.61-2.16-1.72-2.16a1.68,1.68,0,0,0-1.6,1.31,1.49,1.49,0,0,0-.07.43Z"/><path d="M129.6,11.58l.82,1.25c.22.32.4.62.59.95h0c.19-.35.38-.65.57-1l.82-1.24h1.14l-2,2.81,2,3h-1.2l-.85-1.31c-.23-.34-.42-.66-.63-1h0c-.19.35-.4.66-.61,1l-.84,1.31h-1.16l2.06-3-2-2.84Z"/><path d="M112.09,78.6h0l-1.35.73-.21-.81,1.71-.91h.9v7.8h-1Z"/><path d="M120.4,78.36a3.24,3.24,0,0,0-.79,0,3.16,3.16,0,0,0-2.71,2.77h0a2.37,2.37,0,0,1,4.23,1.61,2.61,2.61,0,0,1-2.59,2.75c-1.67,0-2.76-1.29-2.76-3.32a4.9,4.9,0,0,1,1.32-3.52,4.28,4.28,0,0,1,2.5-1.15,6.28,6.28,0,0,1,.76-.06Zm-.3,4.49a1.58,1.58,0,0,0-1.6-1.78A1.74,1.74,0,0,0,117,82a.89.89,0,0,0-.12.46c0,1.29.62,2.24,1.72,2.24C119.49,84.73,120.1,84,120.1,82.85Z"/><path d="M122.44,81.5c0-.74,0-1.34,0-1.9h.94l0,1h0a2.27,2.27,0,0,1,2.06-1.13c1.4,0,2.46,1.19,2.46,3,0,2.09-1.27,3.12-2.64,3.12a2.05,2.05,0,0,1-1.79-.91h0v3.15h-1Zm1,1.55a2,2,0,0,0,.05.43,1.62,1.62,0,0,0,1.58,1.23c1.11,0,1.76-.91,1.76-2.24,0-1.16-.61-2.16-1.72-2.16a1.69,1.69,0,0,0-1.6,1.31,1.55,1.55,0,0,0-.07.43Z"/><path d="M129.6,79.6l.82,1.25c.22.33.4.63.59,1h0c.19-.35.38-.65.57-1l.82-1.24h1.14l-2,2.81,2,3h-1.2l-.85-1.31c-.23-.33-.42-.66-.63-1h0c-.19.35-.4.66-.61,1l-.84,1.31h-1.16l2.06-3-2-2.85Z"/><path d="M15.87,129.94v-2.12H12.25v-.7l3.47-5h1.14V127H18v.83h-1.1v2.12Zm0-3v-2.6q0-.61,0-1.23h0c-.24.46-.43.8-.65,1.16L13.31,127v0Z"/><path d="M19.1,126c0-.74,0-1.34-.05-1.89H20l0,1h0A2.27,2.27,0,0,1,22.13,124c1.41,0,2.46,1.19,2.46,3,0,2.09-1.27,3.12-2.64,3.12a2,2,0,0,1-1.78-.91h0v3.16h-1Zm1,1.55a2.82,2.82,0,0,0,.05.43,1.63,1.63,0,0,0,1.58,1.24c1.12,0,1.77-.92,1.77-2.25,0-1.16-.62-2.16-1.73-2.16a1.7,1.7,0,0,0-1.6,1.31,2,2,0,0,0-.07.43Z"/><path d="M26.25,124.14l.83,1.24.59,1h0c.19-.35.38-.65.58-1l.81-1.23h1.14l-2,2.8,2,3h-1.2l-.85-1.31c-.23-.33-.42-.66-.62-1h0c-.19.34-.39.66-.61,1l-.84,1.31H25L27,127l-2-2.84Z"/><path d="M33.73,45.56a3.52,3.52,0,0,0,1.72.49c1.36,0,1.78-.86,1.77-1.51,0-1.09-1-1.56-2-1.56h-.58v-.79h.58c.77,0,1.74-.39,1.74-1.32,0-.62-.39-1.17-1.37-1.17a2.82,2.82,0,0,0-1.55.51l-.28-.76a3.71,3.71,0,0,1,2-.6c1.53,0,2.23.91,2.23,1.86a1.94,1.94,0,0,1-1.44,1.83v0a2,2,0,0,1,1.74,2c0,1.24-1,2.34-2.84,2.34a4,4,0,0,1-2-.53Z"/><path d="M39.63,46.77v-.64l.83-.81c2-1.89,2.89-2.9,2.9-4.07a1.39,1.39,0,0,0-1.55-1.53,2.66,2.66,0,0,0-1.65.66l-.34-.74A3.41,3.41,0,0,1,42,38.85a2.19,2.19,0,0,1,2.39,2.26c0,1.44-1.05,2.61-2.69,4.19l-.62.57v0h3.5v.87Z"/><path d="M46.12,42.86c0-.74,0-1.34,0-1.89H47l0,1h0a2.31,2.31,0,0,1,2.07-1.12c1.4,0,2.46,1.18,2.46,2.95,0,2.08-1.28,3.12-2.64,3.12A2,2,0,0,1,47.19,46h0v3.16H46.12Zm1.05,1.55a2.74,2.74,0,0,0,0,.43,1.65,1.65,0,0,0,1.59,1.24c1.11,0,1.76-.91,1.76-2.24,0-1.17-.61-2.16-1.73-2.16A1.67,1.67,0,0,0,47.24,43a1.62,1.62,0,0,0-.07.44Z"/><path d="M53.27,41l.83,1.25c.22.32.4.62.59.94h0c.19-.34.38-.64.57-1L56.12,41h1.14l-2,2.81,2,3h-1.2l-.85-1.3c-.23-.34-.42-.66-.63-1h0c-.19.35-.4.66-.61,1l-.84,1.3H52l2.07-3L52.1,41Z"/><path d="M112.09,124.51h0l-1.35.73-.21-.81,1.71-.91h.9v7.8h-1Z"/><path d="M116,131.32v-.65l.83-.8c2-1.9,2.89-2.9,2.9-4.08a1.39,1.39,0,0,0-1.54-1.52,2.66,2.66,0,0,0-1.66.66l-.33-.75a3.43,3.43,0,0,1,2.2-.79,2.2,2.2,0,0,1,2.39,2.27c0,1.44-1,2.6-2.69,4.18l-.62.58v0h3.5v.88Z"/><path d="M122.44,127.41c0-.74,0-1.34,0-1.9h.94l0,1h0a2.27,2.27,0,0,1,2.06-1.13c1.4,0,2.46,1.19,2.46,3,0,2.09-1.27,3.12-2.64,3.12a2,2,0,0,1-1.79-.91h0v3.15h-1Zm1,1.55a2,2,0,0,0,.05.43,1.62,1.62,0,0,0,1.58,1.23c1.11,0,1.76-.91,1.76-2.24,0-1.16-.61-2.16-1.72-2.16a1.69,1.69,0,0,0-1.6,1.31,1.55,1.55,0,0,0-.07.43Z"/><path d="M129.6,125.51l.82,1.25c.22.33.4.63.59.95h0c.19-.35.38-.65.57-1l.82-1.24h1.14l-2,2.81,2,3h-1.2l-.85-1.31c-.23-.33-.42-.66-.63-1h0c-.19.35-.4.66-.61,1l-.84,1.31h-1.16l2.06-3-2-2.85Z"/><circle cx="8.77" cy="127.73" r="0.94"/><line class="cls-1" x1="8.5" y1="128.41" x2="2.86" y2="134.05"/><line class="cls-5" x1="7.46" y1="129.45" x2="3.9" y2="133.01"/><path d="M8.5,128.41a7.62,7.62,0,0,1-2.3.65l1.12.52.53,1.12A7.1,7.1,0,0,1,8.5,128.41Z"/><path d="M2.86,134.05a7.62,7.62,0,0,0,.65-2.3L4,132.87l1.12.53A7.1,7.1,0,0,0,2.86,134.05Z"/></g></g></svg>