<svg width="108" height="820" viewBox="0 0 108 820" fill="none" xmlns="http://www.w3.org/2000/svg">
<rect width="108" height="820" fill="#DEC9DF" fill-opacity="0.3"/>
<path d="M54.0003 60.2873C53.1628 60.2873 52.3128 60.0997 51.6503 59.7122L44.7753 55.7498C41.9753 53.8623 41.8003 53.5748 41.8003 50.6123V43.3873C41.8003 40.4248 41.9628 40.1373 44.7128 38.2748L51.6378 34.2748C52.9503 33.5123 55.0128 33.5123 56.3253 34.2748L63.2253 38.2498C66.0253 40.1373 66.2003 40.4248 66.2003 43.3873V50.5998C66.2003 53.5623 66.0378 53.8498 63.2878 55.7123L56.3628 59.7122C55.6878 60.0997 54.8378 60.2873 54.0003 60.2873ZM54.0003 35.5873C53.4753 35.5873 52.9628 35.6873 52.6003 35.8998L45.7253 39.8748C43.6878 41.2498 43.6878 41.2498 43.6878 43.3873V50.5998C43.6878 52.7373 43.6878 52.7373 45.7753 54.1498L52.6003 58.0873C53.3378 58.5123 54.6753 58.5123 55.4128 58.0873L62.2878 54.1123C64.3128 52.7373 64.3128 52.7373 64.3128 50.5998V43.3873C64.3128 41.2498 64.3128 41.2498 62.2253 39.8373L55.4003 35.8998C55.0378 35.6873 54.5253 35.5873 54.0003 35.5873Z" fill="black"/>
<path d="M54 51.6875C51.4125 51.6875 49.3125 49.5875 49.3125 47C49.3125 44.4125 51.4125 42.3125 54 42.3125C56.5875 42.3125 58.6875 44.4125 58.6875 47C58.6875 49.5875 56.5875 51.6875 54 51.6875ZM54 44.1875C52.45 44.1875 51.1875 45.45 51.1875 47C51.1875 48.55 52.45 49.8125 54 49.8125C55.55 49.8125 56.8125 48.55 56.8125 47C56.8125 45.45 55.55 44.1875 54 44.1875Z" fill="black"/>
<rect x="4" y="150" width="100" height="56" rx="4" fill="#F6EFF6"/>
<path d="M47.6395 177H60.3453L57.5135 174.168C57.0302 174.574 56.4927 174.891 55.901 175.117C55.3093 175.344 54.6757 175.457 54 175.457C53.3243 175.457 52.6886 175.344 52.0928 175.118C51.4969 174.893 50.9606 174.578 50.4838 174.175L47.6395 177ZM47.0615 176.274L49.8318 173.513C49.4224 173.03 49.1053 172.493 48.8805 171.901C48.6557 171.309 48.5433 170.676 48.5433 170C48.5433 169.324 48.6561 168.689 48.8818 168.093C49.1074 167.497 49.4218 166.957 49.825 166.474L47.0615 163.691V176.274ZM50.4895 172.856L53.351 170L50.4895 167.144C50.1612 167.542 49.9086 167.98 49.7318 168.458C49.5548 168.936 49.4663 169.449 49.4663 169.998C49.4663 170.547 49.5548 171.061 49.7318 171.539C49.9086 172.018 50.1612 172.457 50.4895 172.856ZM53.9983 174.534C54.5469 174.534 55.0606 174.445 55.5393 174.268C56.0181 174.091 56.4569 173.839 56.8558 173.51L54 170.63L51.1193 173.51C51.5169 173.839 51.959 174.091 52.4455 174.268C52.932 174.445 53.4496 174.534 53.9983 174.534ZM54 169.335L56.8558 166.48C56.4571 166.158 56.0188 165.907 55.541 165.727C55.0633 165.547 54.5503 165.457 54.0018 165.457C53.4531 165.457 52.9398 165.549 52.4618 165.733C51.9839 165.917 51.5448 166.166 51.1443 166.48L54 169.335ZM57.5203 172.856C57.8338 172.455 58.0826 172.016 58.2668 171.538C58.4511 171.061 58.5433 170.549 58.5433 170.001C58.5433 169.453 58.4532 168.935 58.273 168.448C58.093 167.961 57.8421 167.518 57.5203 167.119L54.652 169.975L57.5203 172.856ZM60.9385 176.274V163.691L58.175 166.474C58.5782 166.957 58.8942 167.496 59.123 168.09C59.3518 168.685 59.4663 169.321 59.4663 170C59.4663 170.676 59.3523 171.309 59.1243 171.901C58.8963 172.493 58.5808 173.03 58.178 173.513L60.9385 176.274ZM57.526 165.825L60.3703 163H47.6645L50.4865 165.822C50.9698 165.419 51.5073 165.104 52.099 164.876C52.6907 164.648 53.3243 164.534 54 164.534C54.6757 164.534 55.3114 164.648 55.9073 164.877C56.5031 165.106 57.0427 165.422 57.526 165.825ZM47.6723 177.861C47.2431 177.861 46.8802 177.713 46.5835 177.416C46.2868 177.12 46.1385 176.757 46.1385 176.328V163.672C46.1385 163.243 46.2868 162.88 46.5835 162.583C46.8802 162.287 47.2431 162.138 47.6723 162.138H60.3278C60.7569 162.138 61.1198 162.287 61.4165 162.583C61.7132 162.88 61.8615 163.243 61.8615 163.672V176.323C61.8615 176.749 61.7132 177.112 61.4165 177.412C61.1198 177.712 60.7569 177.861 60.3278 177.861H47.6723Z" fill="#3D3935"/>
<path d="M38.868 189.6H39.756V197.232H44.46V198H38.868V189.6ZM47.9858 191.64C48.8098 191.64 49.4418 191.848 49.8818 192.264C50.3218 192.672 50.5418 193.28 50.5418 194.088V198H49.7258V197.016C49.5338 197.344 49.2498 197.6 48.8738 197.784C48.5058 197.968 48.0658 198.06 47.5538 198.06C46.8498 198.06 46.2898 197.892 45.8738 197.556C45.4578 197.22 45.2498 196.776 45.2498 196.224C45.2498 195.688 45.4418 195.256 45.8258 194.928C46.2178 194.6 46.8378 194.436 47.6858 194.436H49.6898V194.052C49.6898 193.508 49.5378 193.096 49.2338 192.816C48.9298 192.528 48.4858 192.384 47.9018 192.384C47.5018 192.384 47.1178 192.452 46.7498 192.588C46.3818 192.716 46.0658 192.896 45.8018 193.128L45.4178 192.492C45.7378 192.22 46.1218 192.012 46.5698 191.868C47.0178 191.716 47.4898 191.64 47.9858 191.64ZM47.6858 197.388C48.1658 197.388 48.5778 197.28 48.9218 197.064C49.2658 196.84 49.5218 196.52 49.6898 196.104V195.072H47.7098C46.6298 195.072 46.0898 195.448 46.0898 196.2C46.0898 196.568 46.2298 196.86 46.5098 197.076C46.7898 197.284 47.1818 197.388 47.6858 197.388ZM56.108 191.64C56.7 191.64 57.236 191.776 57.716 192.048C58.196 192.312 58.572 192.688 58.844 193.176C59.116 193.664 59.252 194.22 59.252 194.844C59.252 195.468 59.116 196.024 58.844 196.512C58.572 197 58.196 197.38 57.716 197.652C57.236 197.924 56.7 198.06 56.108 198.06C55.58 198.06 55.104 197.948 54.68 197.724C54.264 197.5 53.928 197.176 53.672 196.752V198H52.856V189.096H53.708V192.888C53.972 192.48 54.308 192.172 54.716 191.964C55.132 191.748 55.596 191.64 56.108 191.64ZM56.048 197.304C56.488 197.304 56.888 197.204 57.248 197.004C57.608 196.796 57.888 196.504 58.088 196.128C58.296 195.752 58.4 195.324 58.4 194.844C58.4 194.364 58.296 193.936 58.088 193.56C57.888 193.184 57.608 192.896 57.248 192.696C56.888 192.488 56.488 192.384 56.048 192.384C55.6 192.384 55.196 192.488 54.836 192.696C54.484 192.896 54.204 193.184 53.996 193.56C53.796 193.936 53.696 194.364 53.696 194.844C53.696 195.324 53.796 195.752 53.996 196.128C54.204 196.504 54.484 196.796 54.836 197.004C55.196 197.204 55.6 197.304 56.048 197.304ZM66.4848 195.108H61.2048C61.2528 195.764 61.5048 196.296 61.9608 196.704C62.4168 197.104 62.9928 197.304 63.6888 197.304C64.0808 197.304 64.4408 197.236 64.7688 197.1C65.0968 196.956 65.3808 196.748 65.6208 196.476L66.1008 197.028C65.8208 197.364 65.4688 197.62 65.0448 197.796C64.6288 197.972 64.1688 198.06 63.6648 198.06C63.0168 198.06 62.4408 197.924 61.9368 197.652C61.4408 197.372 61.0528 196.988 60.7728 196.5C60.4928 196.012 60.3528 195.46 60.3528 194.844C60.3528 194.228 60.4848 193.676 60.7488 193.188C61.0208 192.7 61.3888 192.32 61.8528 192.048C62.3248 191.776 62.8528 191.64 63.4368 191.64C64.0208 191.64 64.5448 191.776 65.0088 192.048C65.4728 192.32 65.8368 192.7 66.1008 193.188C66.3648 193.668 66.4968 194.22 66.4968 194.844L66.4848 195.108ZM63.4368 192.372C62.8288 192.372 62.3168 192.568 61.9008 192.96C61.4928 193.344 61.2608 193.848 61.2048 194.472H65.6808C65.6248 193.848 65.3888 193.344 64.9728 192.96C64.5648 192.568 64.0528 192.372 63.4368 192.372ZM68.231 189.096H69.083V198H68.231V189.096Z" fill="#030304"/>
<rect x="4" y="208" width="100" height="56" rx="4" fill="#F6EFF6"/>
<path d="M47.6395 235H60.3453L57.5135 232.168C57.0302 232.574 56.4927 232.891 55.901 233.117C55.3093 233.344 54.6757 233.457 54 233.457C53.3243 233.457 52.6886 233.344 52.0928 233.118C51.4969 232.893 50.9606 232.578 50.4838 232.175L47.6395 235ZM47.0615 234.274L49.8318 231.513C49.4224 231.03 49.1053 230.493 48.8805 229.901C48.6557 229.309 48.5433 228.676 48.5433 228C48.5433 227.324 48.6561 226.689 48.8818 226.093C49.1074 225.497 49.4218 224.957 49.825 224.474L47.0615 221.691V234.274ZM50.4895 230.856L53.351 228L50.4895 225.144C50.1612 225.542 49.9086 225.98 49.7318 226.458C49.5548 226.936 49.4663 227.449 49.4663 227.998C49.4663 228.547 49.5548 229.061 49.7318 229.539C49.9086 230.018 50.1612 230.457 50.4895 230.856ZM53.9983 232.534C54.5469 232.534 55.0606 232.445 55.5393 232.268C56.0181 232.091 56.4569 231.839 56.8558 231.51L54 228.63L51.1193 231.51C51.5169 231.839 51.959 232.091 52.4455 232.268C52.932 232.445 53.4496 232.534 53.9983 232.534ZM54 227.335L56.8558 224.48C56.4571 224.158 56.0188 223.907 55.541 223.727C55.0633 223.547 54.5503 223.457 54.0018 223.457C53.4531 223.457 52.9398 223.549 52.4618 223.733C51.9839 223.917 51.5448 224.166 51.1443 224.48L54 227.335ZM57.5203 230.856C57.8338 230.455 58.0826 230.016 58.2668 229.538C58.4511 229.061 58.5433 228.549 58.5433 228.001C58.5433 227.453 58.4532 226.935 58.273 226.448C58.093 225.961 57.8421 225.518 57.5203 225.119L54.652 227.975L57.5203 230.856ZM60.9385 234.274V221.691L58.175 224.474C58.5782 224.957 58.8942 225.496 59.123 226.09C59.3518 226.685 59.4663 227.321 59.4663 228C59.4663 228.676 59.3523 229.309 59.1243 229.901C58.8963 230.493 58.5808 231.03 58.178 231.513L60.9385 234.274ZM57.526 223.825L60.3703 221H47.6645L50.4865 223.822C50.9698 223.419 51.5073 223.104 52.099 222.876C52.6907 222.648 53.3243 222.534 54 222.534C54.6757 222.534 55.3114 222.648 55.9073 222.877C56.5031 223.106 57.0427 223.422 57.526 223.825ZM47.6723 235.861C47.2431 235.861 46.8802 235.713 46.5835 235.416C46.2868 235.12 46.1385 234.757 46.1385 234.328V221.672C46.1385 221.243 46.2868 220.88 46.5835 220.583C46.8802 220.287 47.2431 220.138 47.6723 220.138H60.3278C60.7569 220.138 61.1198 220.287 61.4165 220.583C61.7132 220.88 61.8615 221.243 61.8615 221.672V234.323C61.8615 234.749 61.7132 235.112 61.4165 235.412C61.1198 235.712 60.7569 235.861 60.3278 235.861H47.6723Z" fill="#3D3935"/>
<path d="M38.868 247.6H39.756V255.232H44.46V256H38.868V247.6ZM47.9858 249.64C48.8098 249.64 49.4418 249.848 49.8818 250.264C50.3218 250.672 50.5418 251.28 50.5418 252.088V256H49.7258V255.016C49.5338 255.344 49.2498 255.6 48.8738 255.784C48.5058 255.968 48.0658 256.06 47.5538 256.06C46.8498 256.06 46.2898 255.892 45.8738 255.556C45.4578 255.22 45.2498 254.776 45.2498 254.224C45.2498 253.688 45.4418 253.256 45.8258 252.928C46.2178 252.6 46.8378 252.436 47.6858 252.436H49.6898V252.052C49.6898 251.508 49.5378 251.096 49.2338 250.816C48.9298 250.528 48.4858 250.384 47.9018 250.384C47.5018 250.384 47.1178 250.452 46.7498 250.588C46.3818 250.716 46.0658 250.896 45.8018 251.128L45.4178 250.492C45.7378 250.22 46.1218 250.012 46.5698 249.868C47.0178 249.716 47.4898 249.64 47.9858 249.64ZM47.6858 255.388C48.1658 255.388 48.5778 255.28 48.9218 255.064C49.2658 254.84 49.5218 254.52 49.6898 254.104V253.072H47.7098C46.6298 253.072 46.0898 253.448 46.0898 254.2C46.0898 254.568 46.2298 254.86 46.5098 255.076C46.7898 255.284 47.1818 255.388 47.6858 255.388ZM56.108 249.64C56.7 249.64 57.236 249.776 57.716 250.048C58.196 250.312 58.572 250.688 58.844 251.176C59.116 251.664 59.252 252.22 59.252 252.844C59.252 253.468 59.116 254.024 58.844 254.512C58.572 255 58.196 255.38 57.716 255.652C57.236 255.924 56.7 256.06 56.108 256.06C55.58 256.06 55.104 255.948 54.68 255.724C54.264 255.5 53.928 255.176 53.672 254.752V256H52.856V247.096H53.708V250.888C53.972 250.48 54.308 250.172 54.716 249.964C55.132 249.748 55.596 249.64 56.108 249.64ZM56.048 255.304C56.488 255.304 56.888 255.204 57.248 255.004C57.608 254.796 57.888 254.504 58.088 254.128C58.296 253.752 58.4 253.324 58.4 252.844C58.4 252.364 58.296 251.936 58.088 251.56C57.888 251.184 57.608 250.896 57.248 250.696C56.888 250.488 56.488 250.384 56.048 250.384C55.6 250.384 55.196 250.488 54.836 250.696C54.484 250.896 54.204 251.184 53.996 251.56C53.796 251.936 53.696 252.364 53.696 252.844C53.696 253.324 53.796 253.752 53.996 254.128C54.204 254.504 54.484 254.796 54.836 255.004C55.196 255.204 55.6 255.304 56.048 255.304ZM66.4848 253.108H61.2048C61.2528 253.764 61.5048 254.296 61.9608 254.704C62.4168 255.104 62.9928 255.304 63.6888 255.304C64.0808 255.304 64.4408 255.236 64.7688 255.1C65.0968 254.956 65.3808 254.748 65.6208 254.476L66.1008 255.028C65.8208 255.364 65.4688 255.62 65.0448 255.796C64.6288 255.972 64.1688 256.06 63.6648 256.06C63.0168 256.06 62.4408 255.924 61.9368 255.652C61.4408 255.372 61.0528 254.988 60.7728 254.5C60.4928 254.012 60.3528 253.46 60.3528 252.844C60.3528 252.228 60.4848 251.676 60.7488 251.188C61.0208 250.7 61.3888 250.32 61.8528 250.048C62.3248 249.776 62.8528 249.64 63.4368 249.64C64.0208 249.64 64.5448 249.776 65.0088 250.048C65.4728 250.32 65.8368 250.7 66.1008 251.188C66.3648 251.668 66.4968 252.22 66.4968 252.844L66.4848 253.108ZM63.4368 250.372C62.8288 250.372 62.3168 250.568 61.9008 250.96C61.4928 251.344 61.2608 251.848 61.2048 252.472H65.6808C65.6248 251.848 65.3888 251.344 64.9728 250.96C64.5648 250.568 64.0528 250.372 63.4368 250.372ZM68.231 247.096H69.083V256H68.231V247.096Z" fill="#030304"/>
<rect x="4" y="266" width="100" height="56" rx="4" fill="#F6EFF6"/>
<path d="M47.6395 293H60.3453L57.5135 290.168C57.0302 290.574 56.4927 290.891 55.901 291.117C55.3093 291.344 54.6757 291.457 54 291.457C53.3243 291.457 52.6886 291.344 52.0928 291.118C51.4969 290.893 50.9606 290.578 50.4838 290.175L47.6395 293ZM47.0615 292.274L49.8318 289.513C49.4224 289.03 49.1053 288.493 48.8805 287.901C48.6557 287.309 48.5433 286.676 48.5433 286C48.5433 285.324 48.6561 284.689 48.8818 284.093C49.1074 283.497 49.4218 282.957 49.825 282.474L47.0615 279.691V292.274ZM50.4895 288.856L53.351 286L50.4895 283.144C50.1612 283.542 49.9086 283.98 49.7318 284.458C49.5548 284.936 49.4663 285.449 49.4663 285.998C49.4663 286.547 49.5548 287.061 49.7318 287.539C49.9086 288.018 50.1612 288.457 50.4895 288.856ZM53.9983 290.534C54.5469 290.534 55.0606 290.445 55.5393 290.268C56.0181 290.091 56.4569 289.839 56.8558 289.51L54 286.63L51.1193 289.51C51.5169 289.839 51.959 290.091 52.4455 290.268C52.932 290.445 53.4496 290.534 53.9983 290.534ZM54 285.335L56.8558 282.48C56.4571 282.158 56.0188 281.907 55.541 281.727C55.0633 281.547 54.5503 281.457 54.0018 281.457C53.4531 281.457 52.9398 281.549 52.4618 281.733C51.9839 281.917 51.5448 282.166 51.1443 282.48L54 285.335ZM57.5203 288.856C57.8338 288.455 58.0826 288.016 58.2668 287.538C58.4511 287.061 58.5433 286.549 58.5433 286.001C58.5433 285.453 58.4532 284.935 58.273 284.448C58.093 283.961 57.8421 283.518 57.5203 283.119L54.652 285.975L57.5203 288.856ZM60.9385 292.274V279.691L58.175 282.474C58.5782 282.957 58.8942 283.496 59.123 284.09C59.3518 284.685 59.4663 285.321 59.4663 286C59.4663 286.676 59.3523 287.309 59.1243 287.901C58.8963 288.493 58.5808 289.03 58.178 289.513L60.9385 292.274ZM57.526 281.825L60.3703 279H47.6645L50.4865 281.822C50.9698 281.419 51.5073 281.104 52.099 280.876C52.6907 280.648 53.3243 280.534 54 280.534C54.6757 280.534 55.3114 280.648 55.9073 280.877C56.5031 281.106 57.0427 281.422 57.526 281.825ZM47.6723 293.861C47.2431 293.861 46.8802 293.713 46.5835 293.416C46.2868 293.12 46.1385 292.757 46.1385 292.328V279.672C46.1385 279.243 46.2868 278.88 46.5835 278.583C46.8802 278.287 47.2431 278.138 47.6723 278.138H60.3278C60.7569 278.138 61.1198 278.287 61.4165 278.583C61.7132 278.88 61.8615 279.243 61.8615 279.672V292.323C61.8615 292.749 61.7132 293.112 61.4165 293.412C61.1198 293.712 60.7569 293.861 60.3278 293.861H47.6723Z" fill="#3D3935"/>
<path d="M38.868 305.6H39.756V313.232H44.46V314H38.868V305.6ZM47.9858 307.64C48.8098 307.64 49.4418 307.848 49.8818 308.264C50.3218 308.672 50.5418 309.28 50.5418 310.088V314H49.7258V313.016C49.5338 313.344 49.2498 313.6 48.8738 313.784C48.5058 313.968 48.0658 314.06 47.5538 314.06C46.8498 314.06 46.2898 313.892 45.8738 313.556C45.4578 313.22 45.2498 312.776 45.2498 312.224C45.2498 311.688 45.4418 311.256 45.8258 310.928C46.2178 310.6 46.8378 310.436 47.6858 310.436H49.6898V310.052C49.6898 309.508 49.5378 309.096 49.2338 308.816C48.9298 308.528 48.4858 308.384 47.9018 308.384C47.5018 308.384 47.1178 308.452 46.7498 308.588C46.3818 308.716 46.0658 308.896 45.8018 309.128L45.4178 308.492C45.7378 308.22 46.1218 308.012 46.5698 307.868C47.0178 307.716 47.4898 307.64 47.9858 307.64ZM47.6858 313.388C48.1658 313.388 48.5778 313.28 48.9218 313.064C49.2658 312.84 49.5218 312.52 49.6898 312.104V311.072H47.7098C46.6298 311.072 46.0898 311.448 46.0898 312.2C46.0898 312.568 46.2298 312.86 46.5098 313.076C46.7898 313.284 47.1818 313.388 47.6858 313.388ZM56.108 307.64C56.7 307.64 57.236 307.776 57.716 308.048C58.196 308.312 58.572 308.688 58.844 309.176C59.116 309.664 59.252 310.22 59.252 310.844C59.252 311.468 59.116 312.024 58.844 312.512C58.572 313 58.196 313.38 57.716 313.652C57.236 313.924 56.7 314.06 56.108 314.06C55.58 314.06 55.104 313.948 54.68 313.724C54.264 313.5 53.928 313.176 53.672 312.752V314H52.856V305.096H53.708V308.888C53.972 308.48 54.308 308.172 54.716 307.964C55.132 307.748 55.596 307.64 56.108 307.64ZM56.048 313.304C56.488 313.304 56.888 313.204 57.248 313.004C57.608 312.796 57.888 312.504 58.088 312.128C58.296 311.752 58.4 311.324 58.4 310.844C58.4 310.364 58.296 309.936 58.088 309.56C57.888 309.184 57.608 308.896 57.248 308.696C56.888 308.488 56.488 308.384 56.048 308.384C55.6 308.384 55.196 308.488 54.836 308.696C54.484 308.896 54.204 309.184 53.996 309.56C53.796 309.936 53.696 310.364 53.696 310.844C53.696 311.324 53.796 311.752 53.996 312.128C54.204 312.504 54.484 312.796 54.836 313.004C55.196 313.204 55.6 313.304 56.048 313.304ZM66.4848 311.108H61.2048C61.2528 311.764 61.5048 312.296 61.9608 312.704C62.4168 313.104 62.9928 313.304 63.6888 313.304C64.0808 313.304 64.4408 313.236 64.7688 313.1C65.0968 312.956 65.3808 312.748 65.6208 312.476L66.1008 313.028C65.8208 313.364 65.4688 313.62 65.0448 313.796C64.6288 313.972 64.1688 314.06 63.6648 314.06C63.0168 314.06 62.4408 313.924 61.9368 313.652C61.4408 313.372 61.0528 312.988 60.7728 312.5C60.4928 312.012 60.3528 311.46 60.3528 310.844C60.3528 310.228 60.4848 309.676 60.7488 309.188C61.0208 308.7 61.3888 308.32 61.8528 308.048C62.3248 307.776 62.8528 307.64 63.4368 307.64C64.0208 307.64 64.5448 307.776 65.0088 308.048C65.4728 308.32 65.8368 308.7 66.1008 309.188C66.3648 309.668 66.4968 310.22 66.4968 310.844L66.4848 311.108ZM63.4368 308.372C62.8288 308.372 62.3168 308.568 61.9008 308.96C61.4928 309.344 61.2608 309.848 61.2048 310.472H65.6808C65.6248 309.848 65.3888 309.344 64.9728 308.96C64.5648 308.568 64.0528 308.372 63.4368 308.372ZM68.231 305.096H69.083V314H68.231V305.096Z" fill="#333333"/>
<rect x="4" y="324" width="100" height="56" rx="4" fill="#F6EFF6"/>
<path d="M47.6395 351H60.3453L57.5135 348.168C57.0302 348.574 56.4927 348.891 55.901 349.117C55.3093 349.344 54.6757 349.457 54 349.457C53.3243 349.457 52.6886 349.344 52.0928 349.118C51.4969 348.893 50.9606 348.578 50.4838 348.175L47.6395 351ZM47.0615 350.274L49.8318 347.513C49.4224 347.03 49.1053 346.493 48.8805 345.901C48.6557 345.309 48.5433 344.676 48.5433 344C48.5433 343.324 48.6561 342.689 48.8818 342.093C49.1074 341.497 49.4218 340.957 49.825 340.474L47.0615 337.691V350.274ZM50.4895 346.856L53.351 344L50.4895 341.144C50.1612 341.542 49.9086 341.98 49.7318 342.458C49.5548 342.936 49.4663 343.449 49.4663 343.998C49.4663 344.547 49.5548 345.061 49.7318 345.539C49.9086 346.018 50.1612 346.457 50.4895 346.856ZM53.9983 348.534C54.5469 348.534 55.0606 348.445 55.5393 348.268C56.0181 348.091 56.4569 347.839 56.8558 347.51L54 344.63L51.1193 347.51C51.5169 347.839 51.959 348.091 52.4455 348.268C52.932 348.445 53.4496 348.534 53.9983 348.534ZM54 343.335L56.8558 340.48C56.4571 340.158 56.0188 339.907 55.541 339.727C55.0633 339.547 54.5503 339.457 54.0018 339.457C53.4531 339.457 52.9398 339.549 52.4618 339.733C51.9839 339.917 51.5448 340.166 51.1443 340.48L54 343.335ZM57.5203 346.856C57.8338 346.455 58.0826 346.016 58.2668 345.538C58.4511 345.061 58.5433 344.549 58.5433 344.001C58.5433 343.453 58.4532 342.935 58.273 342.448C58.093 341.961 57.8421 341.518 57.5203 341.119L54.652 343.975L57.5203 346.856ZM60.9385 350.274V337.691L58.175 340.474C58.5782 340.957 58.8942 341.496 59.123 342.09C59.3518 342.685 59.4663 343.321 59.4663 344C59.4663 344.676 59.3523 345.309 59.1243 345.901C58.8963 346.493 58.5808 347.03 58.178 347.513L60.9385 350.274ZM57.526 339.825L60.3703 337H47.6645L50.4865 339.822C50.9698 339.419 51.5073 339.104 52.099 338.876C52.6907 338.648 53.3243 338.534 54 338.534C54.6757 338.534 55.3114 338.648 55.9073 338.877C56.5031 339.106 57.0427 339.422 57.526 339.825ZM47.6723 351.861C47.2431 351.861 46.8802 351.713 46.5835 351.416C46.2868 351.12 46.1385 350.757 46.1385 350.328V337.672C46.1385 337.243 46.2868 336.88 46.5835 336.583C46.8802 336.287 47.2431 336.138 47.6723 336.138H60.3278C60.7569 336.138 61.1198 336.287 61.4165 336.583C61.7132 336.88 61.8615 337.243 61.8615 337.672V350.323C61.8615 350.749 61.7132 351.112 61.4165 351.412C61.1198 351.712 60.7569 351.861 60.3278 351.861H47.6723Z" fill="#3D3935"/>
<path d="M38.868 363.6H39.756V371.232H44.46V372H38.868V363.6ZM47.9858 365.64C48.8098 365.64 49.4418 365.848 49.8818 366.264C50.3218 366.672 50.5418 367.28 50.5418 368.088V372H49.7258V371.016C49.5338 371.344 49.2498 371.6 48.8738 371.784C48.5058 371.968 48.0658 372.06 47.5538 372.06C46.8498 372.06 46.2898 371.892 45.8738 371.556C45.4578 371.22 45.2498 370.776 45.2498 370.224C45.2498 369.688 45.4418 369.256 45.8258 368.928C46.2178 368.6 46.8378 368.436 47.6858 368.436H49.6898V368.052C49.6898 367.508 49.5378 367.096 49.2338 366.816C48.9298 366.528 48.4858 366.384 47.9018 366.384C47.5018 366.384 47.1178 366.452 46.7498 366.588C46.3818 366.716 46.0658 366.896 45.8018 367.128L45.4178 366.492C45.7378 366.22 46.1218 366.012 46.5698 365.868C47.0178 365.716 47.4898 365.64 47.9858 365.64ZM47.6858 371.388C48.1658 371.388 48.5778 371.28 48.9218 371.064C49.2658 370.84 49.5218 370.52 49.6898 370.104V369.072H47.7098C46.6298 369.072 46.0898 369.448 46.0898 370.2C46.0898 370.568 46.2298 370.86 46.5098 371.076C46.7898 371.284 47.1818 371.388 47.6858 371.388ZM56.108 365.64C56.7 365.64 57.236 365.776 57.716 366.048C58.196 366.312 58.572 366.688 58.844 367.176C59.116 367.664 59.252 368.22 59.252 368.844C59.252 369.468 59.116 370.024 58.844 370.512C58.572 371 58.196 371.38 57.716 371.652C57.236 371.924 56.7 372.06 56.108 372.06C55.58 372.06 55.104 371.948 54.68 371.724C54.264 371.5 53.928 371.176 53.672 370.752V372H52.856V363.096H53.708V366.888C53.972 366.48 54.308 366.172 54.716 365.964C55.132 365.748 55.596 365.64 56.108 365.64ZM56.048 371.304C56.488 371.304 56.888 371.204 57.248 371.004C57.608 370.796 57.888 370.504 58.088 370.128C58.296 369.752 58.4 369.324 58.4 368.844C58.4 368.364 58.296 367.936 58.088 367.56C57.888 367.184 57.608 366.896 57.248 366.696C56.888 366.488 56.488 366.384 56.048 366.384C55.6 366.384 55.196 366.488 54.836 366.696C54.484 366.896 54.204 367.184 53.996 367.56C53.796 367.936 53.696 368.364 53.696 368.844C53.696 369.324 53.796 369.752 53.996 370.128C54.204 370.504 54.484 370.796 54.836 371.004C55.196 371.204 55.6 371.304 56.048 371.304ZM66.4848 369.108H61.2048C61.2528 369.764 61.5048 370.296 61.9608 370.704C62.4168 371.104 62.9928 371.304 63.6888 371.304C64.0808 371.304 64.4408 371.236 64.7688 371.1C65.0968 370.956 65.3808 370.748 65.6208 370.476L66.1008 371.028C65.8208 371.364 65.4688 371.62 65.0448 371.796C64.6288 371.972 64.1688 372.06 63.6648 372.06C63.0168 372.06 62.4408 371.924 61.9368 371.652C61.4408 371.372 61.0528 370.988 60.7728 370.5C60.4928 370.012 60.3528 369.46 60.3528 368.844C60.3528 368.228 60.4848 367.676 60.7488 367.188C61.0208 366.7 61.3888 366.32 61.8528 366.048C62.3248 365.776 62.8528 365.64 63.4368 365.64C64.0208 365.64 64.5448 365.776 65.0088 366.048C65.4728 366.32 65.8368 366.7 66.1008 367.188C66.3648 367.668 66.4968 368.22 66.4968 368.844L66.4848 369.108ZM63.4368 366.372C62.8288 366.372 62.3168 366.568 61.9008 366.96C61.4928 367.344 61.2608 367.848 61.2048 368.472H65.6808C65.6248 367.848 65.3888 367.344 64.9728 366.96C64.5648 366.568 64.0528 366.372 63.4368 366.372ZM68.231 363.096H69.083V372H68.231V363.096Z" fill="#030304"/>
<rect x="4" y="382" width="100" height="56" rx="4" fill="#F6EFF6"/>
<path d="M47.6395 409H60.3453L57.5135 406.168C57.0302 406.574 56.4927 406.891 55.901 407.117C55.3093 407.344 54.6757 407.457 54 407.457C53.3243 407.457 52.6886 407.344 52.0928 407.118C51.4969 406.893 50.9606 406.578 50.4838 406.175L47.6395 409ZM47.0615 408.274L49.8318 405.513C49.4224 405.03 49.1053 404.493 48.8805 403.901C48.6557 403.309 48.5433 402.676 48.5433 402C48.5433 401.324 48.6561 400.689 48.8818 400.093C49.1074 399.497 49.4218 398.957 49.825 398.474L47.0615 395.691V408.274ZM50.4895 404.856L53.351 402L50.4895 399.144C50.1612 399.542 49.9086 399.98 49.7318 400.458C49.5548 400.936 49.4663 401.449 49.4663 401.998C49.4663 402.547 49.5548 403.061 49.7318 403.539C49.9086 404.018 50.1612 404.457 50.4895 404.856ZM53.9983 406.534C54.5469 406.534 55.0606 406.445 55.5393 406.268C56.0181 406.091 56.4569 405.839 56.8558 405.51L54 402.63L51.1193 405.51C51.5169 405.839 51.959 406.091 52.4455 406.268C52.932 406.445 53.4496 406.534 53.9983 406.534ZM54 401.335L56.8558 398.48C56.4571 398.158 56.0188 397.907 55.541 397.727C55.0633 397.547 54.5503 397.457 54.0018 397.457C53.4531 397.457 52.9398 397.549 52.4618 397.733C51.9839 397.917 51.5448 398.166 51.1443 398.48L54 401.335ZM57.5203 404.856C57.8338 404.455 58.0826 404.016 58.2668 403.538C58.4511 403.061 58.5433 402.549 58.5433 402.001C58.5433 401.453 58.4532 400.935 58.273 400.448C58.093 399.961 57.8421 399.518 57.5203 399.119L54.652 401.975L57.5203 404.856ZM60.9385 408.274V395.691L58.175 398.474C58.5782 398.957 58.8942 399.496 59.123 400.09C59.3518 400.685 59.4663 401.321 59.4663 402C59.4663 402.676 59.3523 403.309 59.1243 403.901C58.8963 404.493 58.5808 405.03 58.178 405.513L60.9385 408.274ZM57.526 397.825L60.3703 395H47.6645L50.4865 397.822C50.9698 397.419 51.5073 397.104 52.099 396.876C52.6907 396.648 53.3243 396.534 54 396.534C54.6757 396.534 55.3114 396.648 55.9073 396.877C56.5031 397.106 57.0427 397.422 57.526 397.825ZM47.6723 409.861C47.2431 409.861 46.8802 409.713 46.5835 409.416C46.2868 409.12 46.1385 408.757 46.1385 408.328V395.672C46.1385 395.243 46.2868 394.88 46.5835 394.583C46.8802 394.287 47.2431 394.138 47.6723 394.138H60.3278C60.7569 394.138 61.1198 394.287 61.4165 394.583C61.7132 394.88 61.8615 395.243 61.8615 395.672V408.323C61.8615 408.749 61.7132 409.112 61.4165 409.412C61.1198 409.712 60.7569 409.861 60.3278 409.861H47.6723Z" fill="#3D3935"/>
<path d="M38.868 421.6H39.756V429.232H44.46V430H38.868V421.6ZM47.9858 423.64C48.8098 423.64 49.4418 423.848 49.8818 424.264C50.3218 424.672 50.5418 425.28 50.5418 426.088V430H49.7258V429.016C49.5338 429.344 49.2498 429.6 48.8738 429.784C48.5058 429.968 48.0658 430.06 47.5538 430.06C46.8498 430.06 46.2898 429.892 45.8738 429.556C45.4578 429.22 45.2498 428.776 45.2498 428.224C45.2498 427.688 45.4418 427.256 45.8258 426.928C46.2178 426.6 46.8378 426.436 47.6858 426.436H49.6898V426.052C49.6898 425.508 49.5378 425.096 49.2338 424.816C48.9298 424.528 48.4858 424.384 47.9018 424.384C47.5018 424.384 47.1178 424.452 46.7498 424.588C46.3818 424.716 46.0658 424.896 45.8018 425.128L45.4178 424.492C45.7378 424.22 46.1218 424.012 46.5698 423.868C47.0178 423.716 47.4898 423.64 47.9858 423.64ZM47.6858 429.388C48.1658 429.388 48.5778 429.28 48.9218 429.064C49.2658 428.84 49.5218 428.52 49.6898 428.104V427.072H47.7098C46.6298 427.072 46.0898 427.448 46.0898 428.2C46.0898 428.568 46.2298 428.86 46.5098 429.076C46.7898 429.284 47.1818 429.388 47.6858 429.388ZM56.108 423.64C56.7 423.64 57.236 423.776 57.716 424.048C58.196 424.312 58.572 424.688 58.844 425.176C59.116 425.664 59.252 426.22 59.252 426.844C59.252 427.468 59.116 428.024 58.844 428.512C58.572 429 58.196 429.38 57.716 429.652C57.236 429.924 56.7 430.06 56.108 430.06C55.58 430.06 55.104 429.948 54.68 429.724C54.264 429.5 53.928 429.176 53.672 428.752V430H52.856V421.096H53.708V424.888C53.972 424.48 54.308 424.172 54.716 423.964C55.132 423.748 55.596 423.64 56.108 423.64ZM56.048 429.304C56.488 429.304 56.888 429.204 57.248 429.004C57.608 428.796 57.888 428.504 58.088 428.128C58.296 427.752 58.4 427.324 58.4 426.844C58.4 426.364 58.296 425.936 58.088 425.56C57.888 425.184 57.608 424.896 57.248 424.696C56.888 424.488 56.488 424.384 56.048 424.384C55.6 424.384 55.196 424.488 54.836 424.696C54.484 424.896 54.204 425.184 53.996 425.56C53.796 425.936 53.696 426.364 53.696 426.844C53.696 427.324 53.796 427.752 53.996 428.128C54.204 428.504 54.484 428.796 54.836 429.004C55.196 429.204 55.6 429.304 56.048 429.304ZM66.4848 427.108H61.2048C61.2528 427.764 61.5048 428.296 61.9608 428.704C62.4168 429.104 62.9928 429.304 63.6888 429.304C64.0808 429.304 64.4408 429.236 64.7688 429.1C65.0968 428.956 65.3808 428.748 65.6208 428.476L66.1008 429.028C65.8208 429.364 65.4688 429.62 65.0448 429.796C64.6288 429.972 64.1688 430.06 63.6648 430.06C63.0168 430.06 62.4408 429.924 61.9368 429.652C61.4408 429.372 61.0528 428.988 60.7728 428.5C60.4928 428.012 60.3528 427.46 60.3528 426.844C60.3528 426.228 60.4848 425.676 60.7488 425.188C61.0208 424.7 61.3888 424.32 61.8528 424.048C62.3248 423.776 62.8528 423.64 63.4368 423.64C64.0208 423.64 64.5448 423.776 65.0088 424.048C65.4728 424.32 65.8368 424.7 66.1008 425.188C66.3648 425.668 66.4968 426.22 66.4968 426.844L66.4848 427.108ZM63.4368 424.372C62.8288 424.372 62.3168 424.568 61.9008 424.96C61.4928 425.344 61.2608 425.848 61.2048 426.472H65.6808C65.6248 425.848 65.3888 425.344 64.9728 424.96C64.5648 424.568 64.0528 424.372 63.4368 424.372ZM68.231 421.096H69.083V430H68.231V421.096Z" fill="#030304"/>
<rect x="4" y="440" width="100" height="56" rx="4" fill="#F6EFF6"/>
<path d="M47.6395 467H60.3453L57.5135 464.168C57.0302 464.574 56.4927 464.891 55.901 465.117C55.3093 465.344 54.6757 465.457 54 465.457C53.3243 465.457 52.6886 465.344 52.0928 465.118C51.4969 464.893 50.9606 464.578 50.4838 464.175L47.6395 467ZM47.0615 466.274L49.8318 463.513C49.4224 463.03 49.1053 462.493 48.8805 461.901C48.6557 461.309 48.5433 460.676 48.5433 460C48.5433 459.324 48.6561 458.689 48.8818 458.093C49.1074 457.497 49.4218 456.957 49.825 456.474L47.0615 453.691V466.274ZM50.4895 462.856L53.351 460L50.4895 457.144C50.1612 457.542 49.9086 457.98 49.7318 458.458C49.5548 458.936 49.4663 459.449 49.4663 459.998C49.4663 460.547 49.5548 461.061 49.7318 461.539C49.9086 462.018 50.1612 462.457 50.4895 462.856ZM53.9983 464.534C54.5469 464.534 55.0606 464.445 55.5393 464.268C56.0181 464.091 56.4569 463.839 56.8558 463.51L54 460.63L51.1193 463.51C51.5169 463.839 51.959 464.091 52.4455 464.268C52.932 464.445 53.4496 464.534 53.9983 464.534ZM54 459.335L56.8558 456.48C56.4571 456.158 56.0188 455.907 55.541 455.727C55.0633 455.547 54.5503 455.457 54.0018 455.457C53.4531 455.457 52.9398 455.549 52.4618 455.733C51.9839 455.917 51.5448 456.166 51.1443 456.48L54 459.335ZM57.5203 462.856C57.8338 462.455 58.0826 462.016 58.2668 461.538C58.4511 461.061 58.5433 460.549 58.5433 460.001C58.5433 459.453 58.4532 458.935 58.273 458.448C58.093 457.961 57.8421 457.518 57.5203 457.119L54.652 459.975L57.5203 462.856ZM60.9385 466.274V453.691L58.175 456.474C58.5782 456.957 58.8942 457.496 59.123 458.09C59.3518 458.685 59.4663 459.321 59.4663 460C59.4663 460.676 59.3523 461.309 59.1243 461.901C58.8963 462.493 58.5808 463.03 58.178 463.513L60.9385 466.274ZM57.526 455.825L60.3703 453H47.6645L50.4865 455.822C50.9698 455.419 51.5073 455.104 52.099 454.876C52.6907 454.648 53.3243 454.534 54 454.534C54.6757 454.534 55.3114 454.648 55.9073 454.877C56.5031 455.106 57.0427 455.422 57.526 455.825ZM47.6723 467.861C47.2431 467.861 46.8802 467.713 46.5835 467.416C46.2868 467.12 46.1385 466.757 46.1385 466.328V453.672C46.1385 453.243 46.2868 452.88 46.5835 452.583C46.8802 452.287 47.2431 452.138 47.6723 452.138H60.3278C60.7569 452.138 61.1198 452.287 61.4165 452.583C61.7132 452.88 61.8615 453.243 61.8615 453.672V466.323C61.8615 466.749 61.7132 467.112 61.4165 467.412C61.1198 467.712 60.7569 467.861 60.3278 467.861H47.6723Z" fill="#3D3935"/>
<path d="M38.868 479.6H39.756V487.232H44.46V488H38.868V479.6ZM47.9858 481.64C48.8098 481.64 49.4418 481.848 49.8818 482.264C50.3218 482.672 50.5418 483.28 50.5418 484.088V488H49.7258V487.016C49.5338 487.344 49.2498 487.6 48.8738 487.784C48.5058 487.968 48.0658 488.06 47.5538 488.06C46.8498 488.06 46.2898 487.892 45.8738 487.556C45.4578 487.22 45.2498 486.776 45.2498 486.224C45.2498 485.688 45.4418 485.256 45.8258 484.928C46.2178 484.6 46.8378 484.436 47.6858 484.436H49.6898V484.052C49.6898 483.508 49.5378 483.096 49.2338 482.816C48.9298 482.528 48.4858 482.384 47.9018 482.384C47.5018 482.384 47.1178 482.452 46.7498 482.588C46.3818 482.716 46.0658 482.896 45.8018 483.128L45.4178 482.492C45.7378 482.22 46.1218 482.012 46.5698 481.868C47.0178 481.716 47.4898 481.64 47.9858 481.64ZM47.6858 487.388C48.1658 487.388 48.5778 487.28 48.9218 487.064C49.2658 486.84 49.5218 486.52 49.6898 486.104V485.072H47.7098C46.6298 485.072 46.0898 485.448 46.0898 486.2C46.0898 486.568 46.2298 486.86 46.5098 487.076C46.7898 487.284 47.1818 487.388 47.6858 487.388ZM56.108 481.64C56.7 481.64 57.236 481.776 57.716 482.048C58.196 482.312 58.572 482.688 58.844 483.176C59.116 483.664 59.252 484.22 59.252 484.844C59.252 485.468 59.116 486.024 58.844 486.512C58.572 487 58.196 487.38 57.716 487.652C57.236 487.924 56.7 488.06 56.108 488.06C55.58 488.06 55.104 487.948 54.68 487.724C54.264 487.5 53.928 487.176 53.672 486.752V488H52.856V479.096H53.708V482.888C53.972 482.48 54.308 482.172 54.716 481.964C55.132 481.748 55.596 481.64 56.108 481.64ZM56.048 487.304C56.488 487.304 56.888 487.204 57.248 487.004C57.608 486.796 57.888 486.504 58.088 486.128C58.296 485.752 58.4 485.324 58.4 484.844C58.4 484.364 58.296 483.936 58.088 483.56C57.888 483.184 57.608 482.896 57.248 482.696C56.888 482.488 56.488 482.384 56.048 482.384C55.6 482.384 55.196 482.488 54.836 482.696C54.484 482.896 54.204 483.184 53.996 483.56C53.796 483.936 53.696 484.364 53.696 484.844C53.696 485.324 53.796 485.752 53.996 486.128C54.204 486.504 54.484 486.796 54.836 487.004C55.196 487.204 55.6 487.304 56.048 487.304ZM66.4848 485.108H61.2048C61.2528 485.764 61.5048 486.296 61.9608 486.704C62.4168 487.104 62.9928 487.304 63.6888 487.304C64.0808 487.304 64.4408 487.236 64.7688 487.1C65.0968 486.956 65.3808 486.748 65.6208 486.476L66.1008 487.028C65.8208 487.364 65.4688 487.62 65.0448 487.796C64.6288 487.972 64.1688 488.06 63.6648 488.06C63.0168 488.06 62.4408 487.924 61.9368 487.652C61.4408 487.372 61.0528 486.988 60.7728 486.5C60.4928 486.012 60.3528 485.46 60.3528 484.844C60.3528 484.228 60.4848 483.676 60.7488 483.188C61.0208 482.7 61.3888 482.32 61.8528 482.048C62.3248 481.776 62.8528 481.64 63.4368 481.64C64.0208 481.64 64.5448 481.776 65.0088 482.048C65.4728 482.32 65.8368 482.7 66.1008 483.188C66.3648 483.668 66.4968 484.22 66.4968 484.844L66.4848 485.108ZM63.4368 482.372C62.8288 482.372 62.3168 482.568 61.9008 482.96C61.4928 483.344 61.2608 483.848 61.2048 484.472H65.6808C65.6248 483.848 65.3888 483.344 64.9728 482.96C64.5648 482.568 64.0528 482.372 63.4368 482.372ZM68.231 479.096H69.083V488H68.231V479.096Z" fill="#030304"/>
<rect x="4" y="498" width="100" height="56" rx="4" fill="#F6EFF6"/>
<path d="M47.6395 525H60.3453L57.5135 522.168C57.0302 522.574 56.4927 522.891 55.901 523.117C55.3093 523.344 54.6757 523.457 54 523.457C53.3243 523.457 52.6886 523.344 52.0928 523.118C51.4969 522.893 50.9606 522.578 50.4838 522.175L47.6395 525ZM47.0615 524.274L49.8318 521.513C49.4224 521.03 49.1053 520.493 48.8805 519.901C48.6557 519.309 48.5433 518.676 48.5433 518C48.5433 517.324 48.6561 516.689 48.8818 516.093C49.1074 515.497 49.4218 514.957 49.825 514.474L47.0615 511.691V524.274ZM50.4895 520.856L53.351 518L50.4895 515.144C50.1612 515.542 49.9086 515.98 49.7318 516.458C49.5548 516.936 49.4663 517.449 49.4663 517.998C49.4663 518.547 49.5548 519.061 49.7318 519.539C49.9086 520.018 50.1612 520.457 50.4895 520.856ZM53.9983 522.534C54.5469 522.534 55.0606 522.445 55.5393 522.268C56.0181 522.091 56.4569 521.839 56.8558 521.51L54 518.63L51.1193 521.51C51.5169 521.839 51.959 522.091 52.4455 522.268C52.932 522.445 53.4496 522.534 53.9983 522.534ZM54 517.335L56.8558 514.48C56.4571 514.158 56.0188 513.907 55.541 513.727C55.0633 513.547 54.5503 513.457 54.0018 513.457C53.4531 513.457 52.9398 513.549 52.4618 513.733C51.9839 513.917 51.5448 514.166 51.1443 514.48L54 517.335ZM57.5203 520.856C57.8338 520.455 58.0826 520.016 58.2668 519.538C58.4511 519.061 58.5433 518.549 58.5433 518.001C58.5433 517.453 58.4532 516.935 58.273 516.448C58.093 515.961 57.8421 515.518 57.5203 515.119L54.652 517.975L57.5203 520.856ZM60.9385 524.274V511.691L58.175 514.474C58.5782 514.957 58.8942 515.496 59.123 516.09C59.3518 516.685 59.4663 517.321 59.4663 518C59.4663 518.676 59.3523 519.309 59.1243 519.901C58.8963 520.493 58.5808 521.03 58.178 521.513L60.9385 524.274ZM57.526 513.825L60.3703 511H47.6645L50.4865 513.822C50.9698 513.419 51.5073 513.104 52.099 512.876C52.6907 512.648 53.3243 512.534 54 512.534C54.6757 512.534 55.3114 512.648 55.9073 512.877C56.5031 513.106 57.0427 513.422 57.526 513.825ZM47.6723 525.861C47.2431 525.861 46.8802 525.713 46.5835 525.416C46.2868 525.12 46.1385 524.757 46.1385 524.328V511.672C46.1385 511.243 46.2868 510.88 46.5835 510.583C46.8802 510.287 47.2431 510.138 47.6723 510.138H60.3278C60.7569 510.138 61.1198 510.287 61.4165 510.583C61.7132 510.88 61.8615 511.243 61.8615 511.672V524.323C61.8615 524.749 61.7132 525.112 61.4165 525.412C61.1198 525.712 60.7569 525.861 60.3278 525.861H47.6723Z" fill="#3D3935"/>
<path d="M38.868 537.6H39.756V545.232H44.46V546H38.868V537.6ZM47.9858 539.64C48.8098 539.64 49.4418 539.848 49.8818 540.264C50.3218 540.672 50.5418 541.28 50.5418 542.088V546H49.7258V545.016C49.5338 545.344 49.2498 545.6 48.8738 545.784C48.5058 545.968 48.0658 546.06 47.5538 546.06C46.8498 546.06 46.2898 545.892 45.8738 545.556C45.4578 545.22 45.2498 544.776 45.2498 544.224C45.2498 543.688 45.4418 543.256 45.8258 542.928C46.2178 542.6 46.8378 542.436 47.6858 542.436H49.6898V542.052C49.6898 541.508 49.5378 541.096 49.2338 540.816C48.9298 540.528 48.4858 540.384 47.9018 540.384C47.5018 540.384 47.1178 540.452 46.7498 540.588C46.3818 540.716 46.0658 540.896 45.8018 541.128L45.4178 540.492C45.7378 540.22 46.1218 540.012 46.5698 539.868C47.0178 539.716 47.4898 539.64 47.9858 539.64ZM47.6858 545.388C48.1658 545.388 48.5778 545.28 48.9218 545.064C49.2658 544.84 49.5218 544.52 49.6898 544.104V543.072H47.7098C46.6298 543.072 46.0898 543.448 46.0898 544.2C46.0898 544.568 46.2298 544.86 46.5098 545.076C46.7898 545.284 47.1818 545.388 47.6858 545.388ZM56.108 539.64C56.7 539.64 57.236 539.776 57.716 540.048C58.196 540.312 58.572 540.688 58.844 541.176C59.116 541.664 59.252 542.22 59.252 542.844C59.252 543.468 59.116 544.024 58.844 544.512C58.572 545 58.196 545.38 57.716 545.652C57.236 545.924 56.7 546.06 56.108 546.06C55.58 546.06 55.104 545.948 54.68 545.724C54.264 545.5 53.928 545.176 53.672 544.752V546H52.856V537.096H53.708V540.888C53.972 540.48 54.308 540.172 54.716 539.964C55.132 539.748 55.596 539.64 56.108 539.64ZM56.048 545.304C56.488 545.304 56.888 545.204 57.248 545.004C57.608 544.796 57.888 544.504 58.088 544.128C58.296 543.752 58.4 543.324 58.4 542.844C58.4 542.364 58.296 541.936 58.088 541.56C57.888 541.184 57.608 540.896 57.248 540.696C56.888 540.488 56.488 540.384 56.048 540.384C55.6 540.384 55.196 540.488 54.836 540.696C54.484 540.896 54.204 541.184 53.996 541.56C53.796 541.936 53.696 542.364 53.696 542.844C53.696 543.324 53.796 543.752 53.996 544.128C54.204 544.504 54.484 544.796 54.836 545.004C55.196 545.204 55.6 545.304 56.048 545.304ZM66.4848 543.108H61.2048C61.2528 543.764 61.5048 544.296 61.9608 544.704C62.4168 545.104 62.9928 545.304 63.6888 545.304C64.0808 545.304 64.4408 545.236 64.7688 545.1C65.0968 544.956 65.3808 544.748 65.6208 544.476L66.1008 545.028C65.8208 545.364 65.4688 545.62 65.0448 545.796C64.6288 545.972 64.1688 546.06 63.6648 546.06C63.0168 546.06 62.4408 545.924 61.9368 545.652C61.4408 545.372 61.0528 544.988 60.7728 544.5C60.4928 544.012 60.3528 543.46 60.3528 542.844C60.3528 542.228 60.4848 541.676 60.7488 541.188C61.0208 540.7 61.3888 540.32 61.8528 540.048C62.3248 539.776 62.8528 539.64 63.4368 539.64C64.0208 539.64 64.5448 539.776 65.0088 540.048C65.4728 540.32 65.8368 540.7 66.1008 541.188C66.3648 541.668 66.4968 542.22 66.4968 542.844L66.4848 543.108ZM63.4368 540.372C62.8288 540.372 62.3168 540.568 61.9008 540.96C61.4928 541.344 61.2608 541.848 61.2048 542.472H65.6808C65.6248 541.848 65.3888 541.344 64.9728 540.96C64.5648 540.568 64.0528 540.372 63.4368 540.372ZM68.231 537.096H69.083V546H68.231V537.096Z" fill="#030304"/>
<rect x="4" y="556" width="100" height="56" rx="4" fill="#F6EFF6"/>
<path d="M47.6395 583H60.3453L57.5135 580.168C57.0302 580.574 56.4927 580.891 55.901 581.117C55.3093 581.344 54.6757 581.457 54 581.457C53.3243 581.457 52.6886 581.344 52.0928 581.118C51.4969 580.893 50.9606 580.578 50.4838 580.175L47.6395 583ZM47.0615 582.274L49.8318 579.513C49.4224 579.03 49.1053 578.493 48.8805 577.901C48.6557 577.309 48.5433 576.676 48.5433 576C48.5433 575.324 48.6561 574.689 48.8818 574.093C49.1074 573.497 49.4218 572.957 49.825 572.474L47.0615 569.691V582.274ZM50.4895 578.856L53.351 576L50.4895 573.144C50.1612 573.542 49.9086 573.98 49.7318 574.458C49.5548 574.936 49.4663 575.449 49.4663 575.998C49.4663 576.547 49.5548 577.061 49.7318 577.539C49.9086 578.018 50.1612 578.457 50.4895 578.856ZM53.9983 580.534C54.5469 580.534 55.0606 580.445 55.5393 580.268C56.0181 580.091 56.4569 579.839 56.8558 579.51L54 576.63L51.1193 579.51C51.5169 579.839 51.959 580.091 52.4455 580.268C52.932 580.445 53.4496 580.534 53.9983 580.534ZM54 575.335L56.8558 572.48C56.4571 572.158 56.0188 571.907 55.541 571.727C55.0633 571.547 54.5503 571.457 54.0018 571.457C53.4531 571.457 52.9398 571.549 52.4618 571.733C51.9839 571.917 51.5448 572.166 51.1443 572.48L54 575.335ZM57.5203 578.856C57.8338 578.455 58.0826 578.016 58.2668 577.538C58.4511 577.061 58.5433 576.549 58.5433 576.001C58.5433 575.453 58.4532 574.935 58.273 574.448C58.093 573.961 57.8421 573.518 57.5203 573.119L54.652 575.975L57.5203 578.856ZM60.9385 582.274V569.691L58.175 572.474C58.5782 572.957 58.8942 573.496 59.123 574.09C59.3518 574.685 59.4663 575.321 59.4663 576C59.4663 576.676 59.3523 577.309 59.1243 577.901C58.8963 578.493 58.5808 579.03 58.178 579.513L60.9385 582.274ZM57.526 571.825L60.3703 569H47.6645L50.4865 571.822C50.9698 571.419 51.5073 571.104 52.099 570.876C52.6907 570.648 53.3243 570.534 54 570.534C54.6757 570.534 55.3114 570.648 55.9073 570.877C56.5031 571.106 57.0427 571.422 57.526 571.825ZM47.6723 583.861C47.2431 583.861 46.8802 583.713 46.5835 583.416C46.2868 583.12 46.1385 582.757 46.1385 582.328V569.672C46.1385 569.243 46.2868 568.88 46.5835 568.583C46.8802 568.287 47.2431 568.138 47.6723 568.138H60.3278C60.7569 568.138 61.1198 568.287 61.4165 568.583C61.7132 568.88 61.8615 569.243 61.8615 569.672V582.323C61.8615 582.749 61.7132 583.112 61.4165 583.412C61.1198 583.712 60.7569 583.861 60.3278 583.861H47.6723Z" fill="#3D3935"/>
<path d="M38.868 595.6H39.756V603.232H44.46V604H38.868V595.6ZM47.9858 597.64C48.8098 597.64 49.4418 597.848 49.8818 598.264C50.3218 598.672 50.5418 599.28 50.5418 600.088V604H49.7258V603.016C49.5338 603.344 49.2498 603.6 48.8738 603.784C48.5058 603.968 48.0658 604.06 47.5538 604.06C46.8498 604.06 46.2898 603.892 45.8738 603.556C45.4578 603.22 45.2498 602.776 45.2498 602.224C45.2498 601.688 45.4418 601.256 45.8258 600.928C46.2178 600.6 46.8378 600.436 47.6858 600.436H49.6898V600.052C49.6898 599.508 49.5378 599.096 49.2338 598.816C48.9298 598.528 48.4858 598.384 47.9018 598.384C47.5018 598.384 47.1178 598.452 46.7498 598.588C46.3818 598.716 46.0658 598.896 45.8018 599.128L45.4178 598.492C45.7378 598.22 46.1218 598.012 46.5698 597.868C47.0178 597.716 47.4898 597.64 47.9858 597.64ZM47.6858 603.388C48.1658 603.388 48.5778 603.28 48.9218 603.064C49.2658 602.84 49.5218 602.52 49.6898 602.104V601.072H47.7098C46.6298 601.072 46.0898 601.448 46.0898 602.2C46.0898 602.568 46.2298 602.86 46.5098 603.076C46.7898 603.284 47.1818 603.388 47.6858 603.388ZM56.108 597.64C56.7 597.64 57.236 597.776 57.716 598.048C58.196 598.312 58.572 598.688 58.844 599.176C59.116 599.664 59.252 600.22 59.252 600.844C59.252 601.468 59.116 602.024 58.844 602.512C58.572 603 58.196 603.38 57.716 603.652C57.236 603.924 56.7 604.06 56.108 604.06C55.58 604.06 55.104 603.948 54.68 603.724C54.264 603.5 53.928 603.176 53.672 602.752V604H52.856V595.096H53.708V598.888C53.972 598.48 54.308 598.172 54.716 597.964C55.132 597.748 55.596 597.64 56.108 597.64ZM56.048 603.304C56.488 603.304 56.888 603.204 57.248 603.004C57.608 602.796 57.888 602.504 58.088 602.128C58.296 601.752 58.4 601.324 58.4 600.844C58.4 600.364 58.296 599.936 58.088 599.56C57.888 599.184 57.608 598.896 57.248 598.696C56.888 598.488 56.488 598.384 56.048 598.384C55.6 598.384 55.196 598.488 54.836 598.696C54.484 598.896 54.204 599.184 53.996 599.56C53.796 599.936 53.696 600.364 53.696 600.844C53.696 601.324 53.796 601.752 53.996 602.128C54.204 602.504 54.484 602.796 54.836 603.004C55.196 603.204 55.6 603.304 56.048 603.304ZM66.4848 601.108H61.2048C61.2528 601.764 61.5048 602.296 61.9608 602.704C62.4168 603.104 62.9928 603.304 63.6888 603.304C64.0808 603.304 64.4408 603.236 64.7688 603.1C65.0968 602.956 65.3808 602.748 65.6208 602.476L66.1008 603.028C65.8208 603.364 65.4688 603.62 65.0448 603.796C64.6288 603.972 64.1688 604.06 63.6648 604.06C63.0168 604.06 62.4408 603.924 61.9368 603.652C61.4408 603.372 61.0528 602.988 60.7728 602.5C60.4928 602.012 60.3528 601.46 60.3528 600.844C60.3528 600.228 60.4848 599.676 60.7488 599.188C61.0208 598.7 61.3888 598.32 61.8528 598.048C62.3248 597.776 62.8528 597.64 63.4368 597.64C64.0208 597.64 64.5448 597.776 65.0088 598.048C65.4728 598.32 65.8368 598.7 66.1008 599.188C66.3648 599.668 66.4968 600.22 66.4968 600.844L66.4848 601.108ZM63.4368 598.372C62.8288 598.372 62.3168 598.568 61.9008 598.96C61.4928 599.344 61.2608 599.848 61.2048 600.472H65.6808C65.6248 599.848 65.3888 599.344 64.9728 598.96C64.5648 598.568 64.0528 598.372 63.4368 598.372ZM68.231 595.096H69.083V604H68.231V595.096Z" fill="#030304"/>
<rect x="4" y="614" width="100" height="56" rx="4" fill="#F6EFF6"/>
<path d="M47.6395 641H60.3453L57.5135 638.168C57.0302 638.574 56.4927 638.891 55.901 639.117C55.3093 639.344 54.6757 639.457 54 639.457C53.3243 639.457 52.6886 639.344 52.0928 639.118C51.4969 638.893 50.9606 638.578 50.4838 638.175L47.6395 641ZM47.0615 640.274L49.8318 637.513C49.4224 637.03 49.1053 636.493 48.8805 635.901C48.6557 635.309 48.5433 634.676 48.5433 634C48.5433 633.324 48.6561 632.689 48.8818 632.093C49.1074 631.497 49.4218 630.957 49.825 630.474L47.0615 627.691V640.274ZM50.4895 636.856L53.351 634L50.4895 631.144C50.1612 631.542 49.9086 631.98 49.7318 632.458C49.5548 632.936 49.4663 633.449 49.4663 633.998C49.4663 634.547 49.5548 635.061 49.7318 635.539C49.9086 636.018 50.1612 636.457 50.4895 636.856ZM53.9983 638.534C54.5469 638.534 55.0606 638.445 55.5393 638.268C56.0181 638.091 56.4569 637.839 56.8558 637.51L54 634.63L51.1193 637.51C51.5169 637.839 51.959 638.091 52.4455 638.268C52.932 638.445 53.4496 638.534 53.9983 638.534ZM54 633.335L56.8558 630.48C56.4571 630.158 56.0188 629.907 55.541 629.727C55.0633 629.547 54.5503 629.457 54.0018 629.457C53.4531 629.457 52.9398 629.549 52.4618 629.733C51.9839 629.917 51.5448 630.166 51.1443 630.48L54 633.335ZM57.5203 636.856C57.8338 636.455 58.0826 636.016 58.2668 635.538C58.4511 635.061 58.5433 634.549 58.5433 634.001C58.5433 633.453 58.4532 632.935 58.273 632.448C58.093 631.961 57.8421 631.518 57.5203 631.119L54.652 633.975L57.5203 636.856ZM60.9385 640.274V627.691L58.175 630.474C58.5782 630.957 58.8942 631.496 59.123 632.09C59.3518 632.685 59.4663 633.321 59.4663 634C59.4663 634.676 59.3523 635.309 59.1243 635.901C58.8963 636.493 58.5808 637.03 58.178 637.513L60.9385 640.274ZM57.526 629.825L60.3703 627H47.6645L50.4865 629.822C50.9698 629.419 51.5073 629.104 52.099 628.876C52.6907 628.648 53.3243 628.534 54 628.534C54.6757 628.534 55.3114 628.648 55.9073 628.877C56.5031 629.106 57.0427 629.422 57.526 629.825ZM47.6723 641.861C47.2431 641.861 46.8802 641.713 46.5835 641.416C46.2868 641.12 46.1385 640.757 46.1385 640.328V627.672C46.1385 627.243 46.2868 626.88 46.5835 626.583C46.8802 626.287 47.2431 626.138 47.6723 626.138H60.3278C60.7569 626.138 61.1198 626.287 61.4165 626.583C61.7132 626.88 61.8615 627.243 61.8615 627.672V640.323C61.8615 640.749 61.7132 641.112 61.4165 641.412C61.1198 641.712 60.7569 641.861 60.3278 641.861H47.6723Z" fill="#3D3935"/>
<path d="M38.868 653.6H39.756V661.232H44.46V662H38.868V653.6ZM47.9858 655.64C48.8098 655.64 49.4418 655.848 49.8818 656.264C50.3218 656.672 50.5418 657.28 50.5418 658.088V662H49.7258V661.016C49.5338 661.344 49.2498 661.6 48.8738 661.784C48.5058 661.968 48.0658 662.06 47.5538 662.06C46.8498 662.06 46.2898 661.892 45.8738 661.556C45.4578 661.22 45.2498 660.776 45.2498 660.224C45.2498 659.688 45.4418 659.256 45.8258 658.928C46.2178 658.6 46.8378 658.436 47.6858 658.436H49.6898V658.052C49.6898 657.508 49.5378 657.096 49.2338 656.816C48.9298 656.528 48.4858 656.384 47.9018 656.384C47.5018 656.384 47.1178 656.452 46.7498 656.588C46.3818 656.716 46.0658 656.896 45.8018 657.128L45.4178 656.492C45.7378 656.22 46.1218 656.012 46.5698 655.868C47.0178 655.716 47.4898 655.64 47.9858 655.64ZM47.6858 661.388C48.1658 661.388 48.5778 661.28 48.9218 661.064C49.2658 660.84 49.5218 660.52 49.6898 660.104V659.072H47.7098C46.6298 659.072 46.0898 659.448 46.0898 660.2C46.0898 660.568 46.2298 660.86 46.5098 661.076C46.7898 661.284 47.1818 661.388 47.6858 661.388ZM56.108 655.64C56.7 655.64 57.236 655.776 57.716 656.048C58.196 656.312 58.572 656.688 58.844 657.176C59.116 657.664 59.252 658.22 59.252 658.844C59.252 659.468 59.116 660.024 58.844 660.512C58.572 661 58.196 661.38 57.716 661.652C57.236 661.924 56.7 662.06 56.108 662.06C55.58 662.06 55.104 661.948 54.68 661.724C54.264 661.5 53.928 661.176 53.672 660.752V662H52.856V653.096H53.708V656.888C53.972 656.48 54.308 656.172 54.716 655.964C55.132 655.748 55.596 655.64 56.108 655.64ZM56.048 661.304C56.488 661.304 56.888 661.204 57.248 661.004C57.608 660.796 57.888 660.504 58.088 660.128C58.296 659.752 58.4 659.324 58.4 658.844C58.4 658.364 58.296 657.936 58.088 657.56C57.888 657.184 57.608 656.896 57.248 656.696C56.888 656.488 56.488 656.384 56.048 656.384C55.6 656.384 55.196 656.488 54.836 656.696C54.484 656.896 54.204 657.184 53.996 657.56C53.796 657.936 53.696 658.364 53.696 658.844C53.696 659.324 53.796 659.752 53.996 660.128C54.204 660.504 54.484 660.796 54.836 661.004C55.196 661.204 55.6 661.304 56.048 661.304ZM66.4848 659.108H61.2048C61.2528 659.764 61.5048 660.296 61.9608 660.704C62.4168 661.104 62.9928 661.304 63.6888 661.304C64.0808 661.304 64.4408 661.236 64.7688 661.1C65.0968 660.956 65.3808 660.748 65.6208 660.476L66.1008 661.028C65.8208 661.364 65.4688 661.62 65.0448 661.796C64.6288 661.972 64.1688 662.06 63.6648 662.06C63.0168 662.06 62.4408 661.924 61.9368 661.652C61.4408 661.372 61.0528 660.988 60.7728 660.5C60.4928 660.012 60.3528 659.46 60.3528 658.844C60.3528 658.228 60.4848 657.676 60.7488 657.188C61.0208 656.7 61.3888 656.32 61.8528 656.048C62.3248 655.776 62.8528 655.64 63.4368 655.64C64.0208 655.64 64.5448 655.776 65.0088 656.048C65.4728 656.32 65.8368 656.7 66.1008 657.188C66.3648 657.668 66.4968 658.22 66.4968 658.844L66.4848 659.108ZM63.4368 656.372C62.8288 656.372 62.3168 656.568 61.9008 656.96C61.4928 657.344 61.2608 657.848 61.2048 658.472H65.6808C65.6248 657.848 65.3888 657.344 64.9728 656.96C64.5648 656.568 64.0528 656.372 63.4368 656.372ZM68.231 653.096H69.083V662H68.231V653.096Z" fill="#030304"/>
<rect x="4" y="672" width="100" height="56" rx="4" fill="#F6EFF6"/>
<path d="M47.6395 699H60.3453L57.5135 696.168C57.0302 696.574 56.4927 696.891 55.901 697.117C55.3093 697.344 54.6757 697.457 54 697.457C53.3243 697.457 52.6886 697.344 52.0928 697.118C51.4969 696.893 50.9606 696.578 50.4838 696.175L47.6395 699ZM47.0615 698.274L49.8318 695.513C49.4224 695.03 49.1053 694.493 48.8805 693.901C48.6557 693.309 48.5433 692.676 48.5433 692C48.5433 691.324 48.6561 690.689 48.8818 690.093C49.1074 689.497 49.4218 688.957 49.825 688.474L47.0615 685.691V698.274ZM50.4895 694.856L53.351 692L50.4895 689.144C50.1612 689.542 49.9086 689.98 49.7318 690.458C49.5548 690.936 49.4663 691.449 49.4663 691.998C49.4663 692.547 49.5548 693.061 49.7318 693.539C49.9086 694.018 50.1612 694.457 50.4895 694.856ZM53.9983 696.534C54.5469 696.534 55.0606 696.445 55.5393 696.268C56.0181 696.091 56.4569 695.839 56.8558 695.51L54 692.63L51.1193 695.51C51.5169 695.839 51.959 696.091 52.4455 696.268C52.932 696.445 53.4496 696.534 53.9983 696.534ZM54 691.335L56.8558 688.48C56.4571 688.158 56.0188 687.907 55.541 687.727C55.0633 687.547 54.5503 687.457 54.0018 687.457C53.4531 687.457 52.9398 687.549 52.4618 687.733C51.9839 687.917 51.5448 688.166 51.1443 688.48L54 691.335ZM57.5203 694.856C57.8338 694.455 58.0826 694.016 58.2668 693.538C58.4511 693.061 58.5433 692.549 58.5433 692.001C58.5433 691.453 58.4532 690.935 58.273 690.448C58.093 689.961 57.8421 689.518 57.5203 689.119L54.652 691.975L57.5203 694.856ZM60.9385 698.274V685.691L58.175 688.474C58.5782 688.957 58.8942 689.496 59.123 690.09C59.3518 690.685 59.4663 691.321 59.4663 692C59.4663 692.676 59.3523 693.309 59.1243 693.901C58.8963 694.493 58.5808 695.03 58.178 695.513L60.9385 698.274ZM57.526 687.825L60.3703 685H47.6645L50.4865 687.822C50.9698 687.419 51.5073 687.104 52.099 686.876C52.6907 686.648 53.3243 686.534 54 686.534C54.6757 686.534 55.3114 686.648 55.9073 686.877C56.5031 687.106 57.0427 687.422 57.526 687.825ZM47.6723 699.861C47.2431 699.861 46.8802 699.713 46.5835 699.416C46.2868 699.12 46.1385 698.757 46.1385 698.328V685.672C46.1385 685.243 46.2868 684.88 46.5835 684.583C46.8802 684.287 47.2431 684.138 47.6723 684.138H60.3278C60.7569 684.138 61.1198 684.287 61.4165 684.583C61.7132 684.88 61.8615 685.243 61.8615 685.672V698.323C61.8615 698.749 61.7132 699.112 61.4165 699.412C61.1198 699.712 60.7569 699.861 60.3278 699.861H47.6723Z" fill="#3D3935"/>
<path d="M38.868 711.6H39.756V719.232H44.46V720H38.868V711.6ZM47.9858 713.64C48.8098 713.64 49.4418 713.848 49.8818 714.264C50.3218 714.672 50.5418 715.28 50.5418 716.088V720H49.7258V719.016C49.5338 719.344 49.2498 719.6 48.8738 719.784C48.5058 719.968 48.0658 720.06 47.5538 720.06C46.8498 720.06 46.2898 719.892 45.8738 719.556C45.4578 719.22 45.2498 718.776 45.2498 718.224C45.2498 717.688 45.4418 717.256 45.8258 716.928C46.2178 716.6 46.8378 716.436 47.6858 716.436H49.6898V716.052C49.6898 715.508 49.5378 715.096 49.2338 714.816C48.9298 714.528 48.4858 714.384 47.9018 714.384C47.5018 714.384 47.1178 714.452 46.7498 714.588C46.3818 714.716 46.0658 714.896 45.8018 715.128L45.4178 714.492C45.7378 714.22 46.1218 714.012 46.5698 713.868C47.0178 713.716 47.4898 713.64 47.9858 713.64ZM47.6858 719.388C48.1658 719.388 48.5778 719.28 48.9218 719.064C49.2658 718.84 49.5218 718.52 49.6898 718.104V717.072H47.7098C46.6298 717.072 46.0898 717.448 46.0898 718.2C46.0898 718.568 46.2298 718.86 46.5098 719.076C46.7898 719.284 47.1818 719.388 47.6858 719.388ZM56.108 713.64C56.7 713.64 57.236 713.776 57.716 714.048C58.196 714.312 58.572 714.688 58.844 715.176C59.116 715.664 59.252 716.22 59.252 716.844C59.252 717.468 59.116 718.024 58.844 718.512C58.572 719 58.196 719.38 57.716 719.652C57.236 719.924 56.7 720.06 56.108 720.06C55.58 720.06 55.104 719.948 54.68 719.724C54.264 719.5 53.928 719.176 53.672 718.752V720H52.856V711.096H53.708V714.888C53.972 714.48 54.308 714.172 54.716 713.964C55.132 713.748 55.596 713.64 56.108 713.64ZM56.048 719.304C56.488 719.304 56.888 719.204 57.248 719.004C57.608 718.796 57.888 718.504 58.088 718.128C58.296 717.752 58.4 717.324 58.4 716.844C58.4 716.364 58.296 715.936 58.088 715.56C57.888 715.184 57.608 714.896 57.248 714.696C56.888 714.488 56.488 714.384 56.048 714.384C55.6 714.384 55.196 714.488 54.836 714.696C54.484 714.896 54.204 715.184 53.996 715.56C53.796 715.936 53.696 716.364 53.696 716.844C53.696 717.324 53.796 717.752 53.996 718.128C54.204 718.504 54.484 718.796 54.836 719.004C55.196 719.204 55.6 719.304 56.048 719.304ZM66.4848 717.108H61.2048C61.2528 717.764 61.5048 718.296 61.9608 718.704C62.4168 719.104 62.9928 719.304 63.6888 719.304C64.0808 719.304 64.4408 719.236 64.7688 719.1C65.0968 718.956 65.3808 718.748 65.6208 718.476L66.1008 719.028C65.8208 719.364 65.4688 719.62 65.0448 719.796C64.6288 719.972 64.1688 720.06 63.6648 720.06C63.0168 720.06 62.4408 719.924 61.9368 719.652C61.4408 719.372 61.0528 718.988 60.7728 718.5C60.4928 718.012 60.3528 717.46 60.3528 716.844C60.3528 716.228 60.4848 715.676 60.7488 715.188C61.0208 714.7 61.3888 714.32 61.8528 714.048C62.3248 713.776 62.8528 713.64 63.4368 713.64C64.0208 713.64 64.5448 713.776 65.0088 714.048C65.4728 714.32 65.8368 714.7 66.1008 715.188C66.3648 715.668 66.4968 716.22 66.4968 716.844L66.4848 717.108ZM63.4368 714.372C62.8288 714.372 62.3168 714.568 61.9008 714.96C61.4928 715.344 61.2608 715.848 61.2048 716.472H65.6808C65.6248 715.848 65.3888 715.344 64.9728 714.96C64.5648 714.568 64.0528 714.372 63.4368 714.372ZM68.231 711.096H69.083V720H68.231V711.096Z" fill="#030304"/>
<rect x="4" y="760" width="100" height="56" rx="4" fill="#F6EFF6"/>
<path d="M47 789C46.45 789 45.9792 788.804 45.5875 788.413C45.1958 788.021 45 787.55 45 787V773C45 772.45 45.1958 771.979 45.5875 771.588C45.9792 771.196 46.45 771 47 771H53C53.2833 771 53.5208 771.096 53.7125 771.288C53.9042 771.479 54 771.717 54 772C54 772.283 53.9042 772.521 53.7125 772.713C53.5208 772.904 53.2833 773 53 773H47V787H53C53.2833 787 53.5208 787.096 53.7125 787.288C53.9042 787.479 54 787.717 54 788C54 788.283 53.9042 788.521 53.7125 788.713C53.5208 788.904 53.2833 789 53 789H47ZM59.175 781H52C51.7167 781 51.4792 780.904 51.2875 780.713C51.0958 780.521 51 780.283 51 780C51 779.717 51.0958 779.479 51.2875 779.288C51.4792 779.096 51.7167 779 52 779H59.175L57.3 777.125C57.1167 776.942 57.025 776.717 57.025 776.45C57.025 776.183 57.1167 775.95 57.3 775.75C57.4833 775.55 57.7167 775.446 58 775.438C58.2833 775.429 58.525 775.525 58.725 775.725L62.3 779.3C62.5 779.5 62.6 779.733 62.6 780C62.6 780.267 62.5 780.5 62.3 780.7L58.725 784.275C58.525 784.475 58.2875 784.571 58.0125 784.563C57.7375 784.554 57.5 784.45 57.3 784.25C57.1167 784.05 57.0292 783.813 57.0375 783.538C57.0458 783.263 57.1417 783.033 57.325 782.85L59.175 781Z" fill="#030304"/>
<path d="M12.016 808.072C11.184 808.072 10.432 807.888 9.76 807.52C9.096 807.152 8.572 806.644 8.188 805.996C7.812 805.34 7.624 804.608 7.624 803.8C7.624 802.992 7.812 802.264 8.188 801.616C8.572 800.96 9.1 800.448 9.772 800.08C10.444 799.712 11.196 799.528 12.028 799.528C12.652 799.528 13.228 799.632 13.756 799.84C14.284 800.048 14.732 800.352 15.1 800.752L14.536 801.316C13.88 800.652 13.052 800.32 12.052 800.32C11.388 800.32 10.784 800.472 10.24 800.776C9.696 801.08 9.268 801.496 8.956 802.024C8.652 802.552 8.5 803.144 8.5 803.8C8.5 804.456 8.652 805.048 8.956 805.576C9.268 806.104 9.696 806.52 10.24 806.824C10.784 807.128 11.388 807.28 12.052 807.28C13.06 807.28 13.888 806.944 14.536 806.272L15.1 806.836C14.732 807.236 14.28 807.544 13.744 807.76C13.216 807.968 12.64 808.072 12.016 808.072ZM22.0278 805.108H16.7478C16.7958 805.764 17.0478 806.296 17.5038 806.704C17.9598 807.104 18.5358 807.304 19.2318 807.304C19.6238 807.304 19.9838 807.236 20.3118 807.1C20.6398 806.956 20.9238 806.748 21.1638 806.476L21.6438 807.028C21.3638 807.364 21.0118 807.62 20.5878 807.796C20.1718 807.972 19.7118 808.06 19.2078 808.06C18.5598 808.06 17.9838 807.924 17.4798 807.652C16.9838 807.372 16.5958 806.988 16.3158 806.5C16.0358 806.012 15.8958 805.46 15.8958 804.844C15.8958 804.228 16.0278 803.676 16.2918 803.188C16.5638 802.7 16.9318 802.32 17.3958 802.048C17.8678 801.776 18.3958 801.64 18.9798 801.64C19.5638 801.64 20.0878 801.776 20.5518 802.048C21.0158 802.32 21.3798 802.7 21.6438 803.188C21.9078 803.668 22.0398 804.22 22.0398 804.844L22.0278 805.108ZM18.9798 802.372C18.3718 802.372 17.8598 802.568 17.4438 802.96C17.0358 803.344 16.8038 803.848 16.7478 804.472H21.2238C21.1678 803.848 20.9318 803.344 20.5158 802.96C20.1078 802.568 19.5958 802.372 18.9798 802.372ZM24.5899 802.924C24.7899 802.5 25.0859 802.18 25.4779 801.964C25.8779 801.748 26.3699 801.64 26.9539 801.64V802.468L26.7499 802.456C26.0859 802.456 25.5659 802.66 25.1899 803.068C24.8139 803.476 24.6259 804.048 24.6259 804.784V808H23.7739V801.688H24.5899V802.924ZM29.3126 802.924C29.5126 802.5 29.8086 802.18 30.2006 801.964C30.6006 801.748 31.0926 801.64 31.6766 801.64V802.468L31.4726 802.456C30.8086 802.456 30.2886 802.66 29.9126 803.068C29.5366 803.476 29.3486 804.048 29.3486 804.784V808H28.4966V801.688H29.3126V802.924ZM35.4155 801.64C36.2395 801.64 36.8715 801.848 37.3115 802.264C37.7515 802.672 37.9715 803.28 37.9715 804.088V808H37.1555V807.016C36.9635 807.344 36.6795 807.6 36.3035 807.784C35.9355 807.968 35.4955 808.06 34.9835 808.06C34.2795 808.06 33.7195 807.892 33.3035 807.556C32.8875 807.22 32.6795 806.776 32.6795 806.224C32.6795 805.688 32.8715 805.256 33.2555 804.928C33.6475 804.6 34.2675 804.436 35.1155 804.436H37.1195V804.052C37.1195 803.508 36.9675 803.096 36.6635 802.816C36.3595 802.528 35.9155 802.384 35.3315 802.384C34.9315 802.384 34.5475 802.452 34.1795 802.588C33.8115 802.716 33.4955 802.896 33.2315 803.128L32.8475 802.492C33.1675 802.22 33.5515 802.012 33.9995 801.868C34.4475 801.716 34.9195 801.64 35.4155 801.64ZM35.1155 807.388C35.5955 807.388 36.0075 807.28 36.3515 807.064C36.6955 806.84 36.9515 806.52 37.1195 806.104V805.072H35.1395C34.0595 805.072 33.5195 805.448 33.5195 806.2C33.5195 806.568 33.6595 806.86 33.9395 807.076C34.2195 807.284 34.6115 807.388 35.1155 807.388ZM41.1017 802.924C41.3017 802.5 41.5977 802.18 41.9897 801.964C42.3897 801.748 42.8817 801.64 43.4657 801.64V802.468L43.2617 802.456C42.5977 802.456 42.0777 802.66 41.7017 803.068C41.3257 803.476 41.1377 804.048 41.1377 804.784V808H40.2857V801.688H41.1017V802.924ZM49.9347 808.06C49.4227 808.06 48.9307 807.988 48.4587 807.844C47.9947 807.692 47.6307 807.504 47.3667 807.28L47.7507 806.608C48.0147 806.816 48.3467 806.988 48.7467 807.124C49.1467 807.252 49.5627 807.316 49.9947 807.316C50.5707 807.316 50.9947 807.228 51.2667 807.052C51.5467 806.868 51.6867 806.612 51.6867 806.284C51.6867 806.052 51.6107 805.872 51.4587 805.744C51.3067 805.608 51.1147 805.508 50.8827 805.444C50.6507 805.372 50.3427 805.304 49.9587 805.24C49.4467 805.144 49.0347 805.048 48.7227 804.952C48.4107 804.848 48.1427 804.676 47.9187 804.436C47.7027 804.196 47.5947 803.864 47.5947 803.44C47.5947 802.912 47.8147 802.48 48.2547 802.144C48.6947 801.808 49.3067 801.64 50.0907 801.64C50.4987 801.64 50.9067 801.696 51.3147 801.808C51.7227 801.912 52.0587 802.052 52.3227 802.228L51.9507 802.912C51.4307 802.552 50.8107 802.372 50.0907 802.372C49.5467 802.372 49.1347 802.468 48.8547 802.66C48.5827 802.852 48.4467 803.104 48.4467 803.416C48.4467 803.656 48.5227 803.848 48.6747 803.992C48.8347 804.136 49.0307 804.244 49.2627 804.316C49.4947 804.38 49.8147 804.448 50.2227 804.52C50.7267 804.616 51.1307 804.712 51.4347 804.808C51.7387 804.904 51.9987 805.068 52.2147 805.3C52.4307 805.532 52.5387 805.852 52.5387 806.26C52.5387 806.812 52.3067 807.252 51.8427 807.58C51.3867 807.9 50.7507 808.06 49.9347 808.06ZM59.6098 805.108H54.3298C54.3778 805.764 54.6298 806.296 55.0858 806.704C55.5418 807.104 56.1178 807.304 56.8138 807.304C57.2058 807.304 57.5658 807.236 57.8938 807.1C58.2218 806.956 58.5058 806.748 58.7458 806.476L59.2258 807.028C58.9458 807.364 58.5938 807.62 58.1698 807.796C57.7538 807.972 57.2938 808.06 56.7898 808.06C56.1418 808.06 55.5658 807.924 55.0618 807.652C54.5658 807.372 54.1778 806.988 53.8978 806.5C53.6178 806.012 53.4778 805.46 53.4778 804.844C53.4778 804.228 53.6098 803.676 53.8738 803.188C54.1458 802.7 54.5138 802.32 54.9778 802.048C55.4498 801.776 55.9778 801.64 56.5618 801.64C57.1458 801.64 57.6698 801.776 58.1338 802.048C58.5978 802.32 58.9618 802.7 59.2258 803.188C59.4898 803.668 59.6218 804.22 59.6218 804.844L59.6098 805.108ZM56.5618 802.372C55.9538 802.372 55.4418 802.568 55.0258 802.96C54.6178 803.344 54.3858 803.848 54.3298 804.472H58.8058C58.7498 803.848 58.5138 803.344 58.0978 802.96C57.6898 802.568 57.1778 802.372 56.5618 802.372ZM63.048 808.06C62.536 808.06 62.044 807.988 61.572 807.844C61.108 807.692 60.744 807.504 60.48 807.28L60.864 806.608C61.128 806.816 61.46 806.988 61.86 807.124C62.26 807.252 62.676 807.316 63.108 807.316C63.684 807.316 64.108 807.228 64.38 807.052C64.66 806.868 64.8 806.612 64.8 806.284C64.8 806.052 64.724 805.872 64.572 805.744C64.42 805.608 64.228 805.508 63.996 805.444C63.764 805.372 63.456 805.304 63.072 805.24C62.56 805.144 62.148 805.048 61.836 804.952C61.524 804.848 61.256 804.676 61.032 804.436C60.816 804.196 60.708 803.864 60.708 803.44C60.708 802.912 60.928 802.48 61.368 802.144C61.808 801.808 62.42 801.64 63.204 801.64C63.612 801.64 64.02 801.696 64.428 801.808C64.836 801.912 65.172 802.052 65.436 802.228L65.064 802.912C64.544 802.552 63.924 802.372 63.204 802.372C62.66 802.372 62.248 802.468 61.968 802.66C61.696 802.852 61.56 803.104 61.56 803.416C61.56 803.656 61.636 803.848 61.788 803.992C61.948 804.136 62.144 804.244 62.376 804.316C62.608 804.38 62.928 804.448 63.336 804.52C63.84 804.616 64.244 804.712 64.548 804.808C64.852 804.904 65.112 805.068 65.328 805.3C65.544 805.532 65.652 805.852 65.652 806.26C65.652 806.812 65.42 807.252 64.956 807.58C64.5 807.9 63.864 808.06 63.048 808.06ZM67.2271 801.688H68.0791V808H67.2271V801.688ZM67.6591 800.308C67.4831 800.308 67.3351 800.248 67.2151 800.128C67.0951 800.008 67.0351 799.864 67.0351 799.696C67.0351 799.536 67.0951 799.396 67.2151 799.276C67.3351 799.156 67.4831 799.096 67.6591 799.096C67.8351 799.096 67.9831 799.156 68.1031 799.276C68.2231 799.388 68.2831 799.524 68.2831 799.684C68.2831 799.86 68.2231 800.008 68.1031 800.128C67.9831 800.248 67.8351 800.308 67.6591 800.308ZM73.0297 808.06C72.4217 808.06 71.8737 807.924 71.3857 807.652C70.8977 807.372 70.5137 806.988 70.2337 806.5C69.9537 806.012 69.8137 805.46 69.8137 804.844C69.8137 804.228 69.9537 803.676 70.2337 803.188C70.5137 802.7 70.8977 802.32 71.3857 802.048C71.8737 801.776 72.4217 801.64 73.0297 801.64C73.6377 801.64 74.1857 801.776 74.6737 802.048C75.1617 802.32 75.5417 802.7 75.8137 803.188C76.0937 803.676 76.2337 804.228 76.2337 804.844C76.2337 805.46 76.0937 806.012 75.8137 806.5C75.5417 806.988 75.1617 807.372 74.6737 807.652C74.1857 807.924 73.6377 808.06 73.0297 808.06ZM73.0297 807.304C73.4777 807.304 73.8777 807.204 74.2297 807.004C74.5897 806.796 74.8697 806.504 75.0697 806.128C75.2697 805.752 75.3697 805.324 75.3697 804.844C75.3697 804.364 75.2697 803.936 75.0697 803.56C74.8697 803.184 74.5897 802.896 74.2297 802.696C73.8777 802.488 73.4777 802.384 73.0297 802.384C72.5817 802.384 72.1777 802.488 71.8177 802.696C71.4657 802.896 71.1857 803.184 70.9777 803.56C70.7777 803.936 70.6777 804.364 70.6777 804.844C70.6777 805.324 70.7777 805.752 70.9777 806.128C71.1857 806.504 71.4657 806.796 71.8177 807.004C72.1777 807.204 72.5817 807.304 73.0297 807.304ZM73.8817 799.216H75.0217L73.0777 800.704H72.2377L73.8817 799.216ZM81.1892 801.64C81.9812 801.64 82.6092 801.872 83.0732 802.336C83.5452 802.792 83.7812 803.46 83.7812 804.34V808H82.9292V804.424C82.9292 803.768 82.7652 803.268 82.4372 802.924C82.1092 802.58 81.6412 802.408 81.0332 802.408C80.3532 802.408 79.8132 802.612 79.4132 803.02C79.0212 803.42 78.8252 803.976 78.8252 804.688V808H77.9732V801.688H78.7892V802.852C79.0212 802.468 79.3412 802.172 79.7492 801.964C80.1652 801.748 80.6452 801.64 81.1892 801.64Z" fill="#030304"/>
<g clip-path="url(#clip0_8199_375068)">
<path d="M97.825 804L95.375 801.55C95.2917 801.467 95.2514 801.368 95.2542 801.254C95.2569 801.14 95.3 801.042 95.3833 800.958C95.4667 800.875 95.5653 800.833 95.6792 800.833C95.7931 800.833 95.8917 800.875 95.975 800.958L98.5333 803.525C98.6 803.592 98.65 803.667 98.6833 803.75C98.7167 803.833 98.7333 803.917 98.7333 804C98.7333 804.083 98.7167 804.167 98.6833 804.25C98.65 804.333 98.6 804.408 98.5333 804.475L95.9667 807.042C95.8833 807.125 95.7861 807.165 95.675 807.162C95.5639 807.16 95.4667 807.117 95.3833 807.033C95.3 806.95 95.2583 806.851 95.2583 806.737C95.2583 806.624 95.3 806.525 95.3833 806.442L97.825 804Z" fill="#333333"/>
</g>
<defs>
<clipPath id="clip0_8199_375068">
<rect width="8" height="8" fill="white" transform="translate(93 800)"/>
</clipPath>
</defs>
</svg>
