<svg width="122" height="218" viewBox="0 0 122 218" fill="none" xmlns="http://www.w3.org/2000/svg">
<rect x="0.5" y="0.5" width="121" height="217" rx="4.5" stroke="#9747FF" stroke-dasharray="10 5"/>
<path d="M54.6395 38.9999H67.3452L64.5135 36.1682C64.0302 36.5743 63.4927 36.8907 62.901 37.1172C62.3093 37.3435 61.6757 37.4567 61 37.4567C60.3243 37.4567 59.6886 37.3438 59.0927 37.1182C58.4969 36.8925 57.9606 36.5781 57.4837 36.1749L54.6395 38.9999ZM54.0615 38.2739L56.8317 35.5134C56.4224 35.0301 56.1053 34.4926 55.8805 33.9009C55.6557 33.3093 55.5432 32.6756 55.5432 31.9999C55.5432 31.3243 55.6561 30.6885 55.8817 30.0927C56.1074 29.4968 56.4218 28.9573 56.825 28.4739L54.0615 25.6912V38.2739ZM57.4895 34.8557L60.351 31.9999L57.4895 29.1442C57.1612 29.5418 56.9086 29.9798 56.7317 30.4579C56.5547 30.9359 56.4662 31.4493 56.4662 31.9979C56.4662 32.5468 56.5547 33.0605 56.7317 33.5392C56.9086 34.018 57.1612 34.4568 57.4895 34.8557ZM60.9982 36.5337C61.5469 36.5337 62.0606 36.4452 62.5392 36.2682C63.0181 36.0913 63.4569 35.8388 63.8557 35.5104L61 32.6297L58.1192 35.5104C58.5169 35.8388 58.959 36.0913 59.4455 36.2682C59.932 36.4452 60.4496 36.5337 60.9982 36.5337ZM61 31.3354L63.8557 28.4797C63.4571 28.1578 63.0188 27.9069 62.541 27.7269C62.0633 27.5468 61.5502 27.4567 61.0017 27.4567C60.4531 27.4567 59.9397 27.5488 59.4617 27.7332C58.9839 27.9173 58.5447 28.1662 58.1442 28.4797L61 31.3354ZM64.5202 34.8557C64.8337 34.4548 65.0826 34.0158 65.2667 33.5384C65.4511 33.0611 65.5432 32.5485 65.5432 32.0007C65.5432 31.4527 65.4532 30.9353 65.273 30.4484C65.093 29.9614 64.8421 29.5183 64.5202 29.1192L61.652 31.9749L64.5202 34.8557ZM67.9385 38.2739V25.6912L65.175 28.4739C65.5782 28.9573 65.8942 29.4961 66.123 30.0904C66.3518 30.6848 66.4662 31.3213 66.4662 31.9999C66.4662 32.6756 66.3522 33.3093 66.1242 33.9009C65.8962 34.4926 65.5808 35.0301 65.178 35.5134L67.9385 38.2739ZM64.526 27.8249L67.3702 24.9999H54.6645L57.4865 27.8219C57.9698 27.4191 58.5073 27.1037 59.099 26.8757C59.6907 26.6477 60.3243 26.5337 61 26.5337C61.6757 26.5337 62.3114 26.6481 62.9072 26.8769C63.5031 27.1058 64.0427 27.4218 64.526 27.8249ZM54.6722 39.8614C54.2431 39.8614 53.8802 39.7131 53.5835 39.4164C53.2868 39.1198 53.1385 38.7568 53.1385 38.3277V25.6722C53.1385 25.243 53.2868 24.8801 53.5835 24.5834C53.8802 24.2868 54.2431 24.1384 54.6722 24.1384H67.3277C67.7569 24.1384 68.1198 24.2868 68.4165 24.5834C68.7132 24.8801 68.8615 25.2429 68.8615 25.6719V38.3229C68.8615 38.7493 68.7132 39.1123 68.4165 39.4119C68.1198 39.7116 67.7569 39.8614 67.3277 39.8614H54.6722Z" fill="#3D3935"/>
<path d="M37.868 51.6H38.756V59.232H43.46V60H37.868V51.6ZM46.9858 53.64C47.8098 53.64 48.4418 53.848 48.8818 54.264C49.3218 54.672 49.5418 55.28 49.5418 56.088V60H48.7258V59.016C48.5338 59.344 48.2498 59.6 47.8738 59.784C47.5058 59.968 47.0658 60.06 46.5538 60.06C45.8498 60.06 45.2898 59.892 44.8738 59.556C44.4578 59.22 44.2498 58.776 44.2498 58.224C44.2498 57.688 44.4418 57.256 44.8258 56.928C45.2178 56.6 45.8378 56.436 46.6858 56.436H48.6898V56.052C48.6898 55.508 48.5378 55.096 48.2338 54.816C47.9298 54.528 47.4858 54.384 46.9018 54.384C46.5018 54.384 46.1178 54.452 45.7498 54.588C45.3818 54.716 45.0658 54.896 44.8018 55.128L44.4178 54.492C44.7378 54.22 45.1218 54.012 45.5698 53.868C46.0178 53.716 46.4898 53.64 46.9858 53.64ZM46.6858 59.388C47.1658 59.388 47.5778 59.28 47.9218 59.064C48.2658 58.84 48.5218 58.52 48.6898 58.104V57.072H46.7098C45.6298 57.072 45.0898 57.448 45.0898 58.2C45.0898 58.568 45.2298 58.86 45.5098 59.076C45.7898 59.284 46.1818 59.388 46.6858 59.388ZM55.108 53.64C55.7 53.64 56.236 53.776 56.716 54.048C57.196 54.312 57.572 54.688 57.844 55.176C58.116 55.664 58.252 56.22 58.252 56.844C58.252 57.468 58.116 58.024 57.844 58.512C57.572 59 57.196 59.38 56.716 59.652C56.236 59.924 55.7 60.06 55.108 60.06C54.58 60.06 54.104 59.948 53.68 59.724C53.264 59.5 52.928 59.176 52.672 58.752V60H51.856V51.096H52.708V54.888C52.972 54.48 53.308 54.172 53.716 53.964C54.132 53.748 54.596 53.64 55.108 53.64ZM55.048 59.304C55.488 59.304 55.888 59.204 56.248 59.004C56.608 58.796 56.888 58.504 57.088 58.128C57.296 57.752 57.4 57.324 57.4 56.844C57.4 56.364 57.296 55.936 57.088 55.56C56.888 55.184 56.608 54.896 56.248 54.696C55.888 54.488 55.488 54.384 55.048 54.384C54.6 54.384 54.196 54.488 53.836 54.696C53.484 54.896 53.204 55.184 52.996 55.56C52.796 55.936 52.696 56.364 52.696 56.844C52.696 57.324 52.796 57.752 52.996 58.128C53.204 58.504 53.484 58.796 53.836 59.004C54.196 59.204 54.6 59.304 55.048 59.304ZM65.4848 57.108H60.2048C60.2528 57.764 60.5048 58.296 60.9608 58.704C61.4168 59.104 61.9928 59.304 62.6888 59.304C63.0808 59.304 63.4408 59.236 63.7688 59.1C64.0968 58.956 64.3808 58.748 64.6208 58.476L65.1008 59.028C64.8208 59.364 64.4688 59.62 64.0448 59.796C63.6288 59.972 63.1688 60.06 62.6648 60.06C62.0168 60.06 61.4408 59.924 60.9368 59.652C60.4408 59.372 60.0528 58.988 59.7728 58.5C59.4928 58.012 59.3528 57.46 59.3528 56.844C59.3528 56.228 59.4848 55.676 59.7488 55.188C60.0208 54.7 60.3888 54.32 60.8528 54.048C61.3248 53.776 61.8528 53.64 62.4368 53.64C63.0208 53.64 63.5448 53.776 64.0088 54.048C64.4728 54.32 64.8368 54.7 65.1008 55.188C65.3648 55.668 65.4968 56.22 65.4968 56.844L65.4848 57.108ZM62.4368 54.372C61.8288 54.372 61.3168 54.568 60.9008 54.96C60.4928 55.344 60.2608 55.848 60.2048 56.472H64.6808C64.6248 55.848 64.3888 55.344 63.9728 54.96C63.5648 54.568 63.0528 54.372 62.4368 54.372ZM67.231 51.096H68.083V60H67.231V51.096Z" fill="#333333"/>
<g clip-path="url(#clip0_8197_383087)">
<path d="M82.325 55.9999L79.875 53.5499C79.7917 53.4666 79.7514 53.368 79.7542 53.2541C79.7569 53.1402 79.8 53.0416 79.8833 52.9583C79.9667 52.8749 80.0653 52.8333 80.1792 52.8333C80.2931 52.8333 80.3917 52.8749 80.475 52.9583L83.0333 55.5249C83.1 55.5916 83.15 55.6666 83.1833 55.7499C83.2167 55.8333 83.2333 55.9166 83.2333 55.9999C83.2333 56.0833 83.2167 56.1666 83.1833 56.2499C83.15 56.3333 83.1 56.4083 83.0333 56.4749L80.4667 59.0416C80.3833 59.1249 80.2861 59.1652 80.175 59.1624C80.0639 59.1596 79.9667 59.1166 79.8833 59.0333C79.8 58.9499 79.7583 58.8513 79.7583 58.7374C79.7583 58.6235 79.8 58.5249 79.8833 58.4416L82.325 55.9999Z" fill="#333333"/>
</g>
<path d="M20 85C20 82.7909 21.7909 81 24 81H98C100.209 81 102 82.7909 102 85V133C102 135.209 100.209 137 98 137H24C21.7909 137 20 135.209 20 133V85Z" fill="#E5F5F2"/>
<path d="M54.6395 108H67.3452L64.5135 105.168C64.0302 105.574 63.4927 105.891 62.901 106.117C62.3093 106.344 61.6757 106.457 61 106.457C60.3243 106.457 59.6886 106.344 59.0927 106.118C58.4969 105.893 57.9606 105.578 57.4837 105.175L54.6395 108ZM54.0615 107.274L56.8317 104.513C56.4224 104.03 56.1053 103.493 55.8805 102.901C55.6557 102.309 55.5432 101.676 55.5432 101C55.5432 100.324 55.6561 99.6885 55.8817 99.0927C56.1074 98.4968 56.4218 97.9573 56.825 97.4739L54.0615 94.6912V107.274ZM57.4895 103.856L60.351 101L57.4895 98.1442C57.1612 98.5418 56.9086 98.9798 56.7317 99.4579C56.5547 99.9359 56.4662 100.449 56.4662 100.998C56.4662 101.547 56.5547 102.061 56.7317 102.539C56.9086 103.018 57.1612 103.457 57.4895 103.856ZM60.9982 105.534C61.5469 105.534 62.0606 105.445 62.5392 105.268C63.0181 105.091 63.4569 104.839 63.8557 104.51L61 101.63L58.1192 104.51C58.5169 104.839 58.959 105.091 59.4455 105.268C59.932 105.445 60.4496 105.534 60.9982 105.534ZM61 100.335L63.8557 97.4797C63.4571 97.1578 63.0188 96.9069 62.541 96.7269C62.0633 96.5468 61.5502 96.4567 61.0017 96.4567C60.4531 96.4567 59.9397 96.5488 59.4617 96.7332C58.9839 96.9173 58.5447 97.1662 58.1442 97.4797L61 100.335ZM64.5202 103.856C64.8337 103.455 65.0826 103.016 65.2667 102.538C65.4511 102.061 65.5432 101.549 65.5432 101.001C65.5432 100.453 65.4532 99.9353 65.273 99.4484C65.093 98.9614 64.8421 98.5183 64.5202 98.1192L61.652 100.975L64.5202 103.856ZM67.9385 107.274V94.6912L65.175 97.4739C65.5782 97.9573 65.8942 98.4961 66.123 99.0904C66.3518 99.6848 66.4662 100.321 66.4662 101C66.4662 101.676 66.3522 102.309 66.1242 102.901C65.8962 103.493 65.5808 104.03 65.178 104.513L67.9385 107.274ZM64.526 96.8249L67.3702 93.9999H54.6645L57.4865 96.8219C57.9698 96.4191 58.5073 96.1037 59.099 95.8757C59.6907 95.6477 60.3243 95.5337 61 95.5337C61.6757 95.5337 62.3114 95.6481 62.9072 95.8769C63.5031 96.1058 64.0427 96.4218 64.526 96.8249ZM54.6722 108.861C54.2431 108.861 53.8802 108.713 53.5835 108.416C53.2868 108.12 53.1385 107.757 53.1385 107.328V94.6722C53.1385 94.243 53.2868 93.8801 53.5835 93.5834C53.8802 93.2868 54.2431 93.1384 54.6722 93.1384H67.3277C67.7569 93.1384 68.1198 93.2868 68.4165 93.5834C68.7132 93.8801 68.8615 94.2429 68.8615 94.6719V107.323C68.8615 107.749 68.7132 108.112 68.4165 108.412C68.1198 108.712 67.7569 108.861 67.3277 108.861H54.6722Z" fill="#0B1C19"/>
<path d="M37.868 120.6H38.756V128.232H43.46V129H37.868V120.6ZM46.9858 122.64C47.8098 122.64 48.4418 122.848 48.8818 123.264C49.3218 123.672 49.5418 124.28 49.5418 125.088V129H48.7258V128.016C48.5338 128.344 48.2498 128.6 47.8738 128.784C47.5058 128.968 47.0658 129.06 46.5538 129.06C45.8498 129.06 45.2898 128.892 44.8738 128.556C44.4578 128.22 44.2498 127.776 44.2498 127.224C44.2498 126.688 44.4418 126.256 44.8258 125.928C45.2178 125.6 45.8378 125.436 46.6858 125.436H48.6898V125.052C48.6898 124.508 48.5378 124.096 48.2338 123.816C47.9298 123.528 47.4858 123.384 46.9018 123.384C46.5018 123.384 46.1178 123.452 45.7498 123.588C45.3818 123.716 45.0658 123.896 44.8018 124.128L44.4178 123.492C44.7378 123.22 45.1218 123.012 45.5698 122.868C46.0178 122.716 46.4898 122.64 46.9858 122.64ZM46.6858 128.388C47.1658 128.388 47.5778 128.28 47.9218 128.064C48.2658 127.84 48.5218 127.52 48.6898 127.104V126.072H46.7098C45.6298 126.072 45.0898 126.448 45.0898 127.2C45.0898 127.568 45.2298 127.86 45.5098 128.076C45.7898 128.284 46.1818 128.388 46.6858 128.388ZM55.108 122.64C55.7 122.64 56.236 122.776 56.716 123.048C57.196 123.312 57.572 123.688 57.844 124.176C58.116 124.664 58.252 125.22 58.252 125.844C58.252 126.468 58.116 127.024 57.844 127.512C57.572 128 57.196 128.38 56.716 128.652C56.236 128.924 55.7 129.06 55.108 129.06C54.58 129.06 54.104 128.948 53.68 128.724C53.264 128.5 52.928 128.176 52.672 127.752V129H51.856V120.096H52.708V123.888C52.972 123.48 53.308 123.172 53.716 122.964C54.132 122.748 54.596 122.64 55.108 122.64ZM55.048 128.304C55.488 128.304 55.888 128.204 56.248 128.004C56.608 127.796 56.888 127.504 57.088 127.128C57.296 126.752 57.4 126.324 57.4 125.844C57.4 125.364 57.296 124.936 57.088 124.56C56.888 124.184 56.608 123.896 56.248 123.696C55.888 123.488 55.488 123.384 55.048 123.384C54.6 123.384 54.196 123.488 53.836 123.696C53.484 123.896 53.204 124.184 52.996 124.56C52.796 124.936 52.696 125.364 52.696 125.844C52.696 126.324 52.796 126.752 52.996 127.128C53.204 127.504 53.484 127.796 53.836 128.004C54.196 128.204 54.6 128.304 55.048 128.304ZM65.4848 126.108H60.2048C60.2528 126.764 60.5048 127.296 60.9608 127.704C61.4168 128.104 61.9928 128.304 62.6888 128.304C63.0808 128.304 63.4408 128.236 63.7688 128.1C64.0968 127.956 64.3808 127.748 64.6208 127.476L65.1008 128.028C64.8208 128.364 64.4688 128.62 64.0448 128.796C63.6288 128.972 63.1688 129.06 62.6648 129.06C62.0168 129.06 61.4408 128.924 60.9368 128.652C60.4408 128.372 60.0528 127.988 59.7728 127.5C59.4928 127.012 59.3528 126.46 59.3528 125.844C59.3528 125.228 59.4848 124.676 59.7488 124.188C60.0208 123.7 60.3888 123.32 60.8528 123.048C61.3248 122.776 61.8528 122.64 62.4368 122.64C63.0208 122.64 63.5448 122.776 64.0088 123.048C64.4728 123.32 64.8368 123.7 65.1008 124.188C65.3648 124.668 65.4968 125.22 65.4968 125.844L65.4848 126.108ZM62.4368 123.372C61.8288 123.372 61.3168 123.568 60.9008 123.96C60.4928 124.344 60.2608 124.848 60.2048 125.472H64.6808C64.6248 124.848 64.3888 124.344 63.9728 123.96C63.5648 123.568 63.0528 123.372 62.4368 123.372ZM67.231 120.096H68.083V129H67.231V120.096Z" fill="#333333"/>
<g clip-path="url(#clip1_8197_383087)">
<path d="M82.325 125L79.875 122.55C79.7917 122.467 79.7514 122.368 79.7542 122.254C79.7569 122.14 79.8 122.042 79.8833 121.958C79.9667 121.875 80.0653 121.833 80.1792 121.833C80.2931 121.833 80.3917 121.875 80.475 121.958L83.0333 124.525C83.1 124.592 83.15 124.667 83.1833 124.75C83.2167 124.833 83.2333 124.917 83.2333 125C83.2333 125.083 83.2167 125.167 83.1833 125.25C83.15 125.333 83.1 125.408 83.0333 125.475L80.4667 128.042C80.3833 128.125 80.2861 128.165 80.175 128.162C80.0639 128.16 79.9667 128.117 79.8833 128.033C79.8 127.95 79.7583 127.851 79.7583 127.737C79.7583 127.624 79.8 127.525 79.8833 127.442L82.325 125Z" fill="#333333"/>
</g>
<path d="M20 154C20 151.791 21.7909 150 24 150H98C100.209 150 102 151.791 102 154V202C102 204.209 100.209 206 98 206H24C21.7909 206 20 204.209 20 202V154Z" fill="#0B1C19"/>
<path d="M54.6395 177H67.3452L64.5135 174.168C64.0302 174.574 63.4927 174.891 62.901 175.117C62.3093 175.344 61.6757 175.457 61 175.457C60.3243 175.457 59.6886 175.344 59.0927 175.118C58.4969 174.893 57.9606 174.578 57.4837 174.175L54.6395 177ZM54.0615 176.274L56.8317 173.513C56.4224 173.03 56.1053 172.493 55.8805 171.901C55.6557 171.309 55.5432 170.676 55.5432 170C55.5432 169.324 55.6561 168.689 55.8817 168.093C56.1074 167.497 56.4218 166.957 56.825 166.474L54.0615 163.691V176.274ZM57.4895 172.856L60.351 170L57.4895 167.144C57.1612 167.542 56.9086 167.98 56.7317 168.458C56.5547 168.936 56.4662 169.449 56.4662 169.998C56.4662 170.547 56.5547 171.061 56.7317 171.539C56.9086 172.018 57.1612 172.457 57.4895 172.856ZM60.9982 174.534C61.5469 174.534 62.0606 174.445 62.5392 174.268C63.0181 174.091 63.4569 173.839 63.8557 173.51L61 170.63L58.1192 173.51C58.5169 173.839 58.959 174.091 59.4455 174.268C59.932 174.445 60.4496 174.534 60.9982 174.534ZM61 169.335L63.8557 166.48C63.4571 166.158 63.0188 165.907 62.541 165.727C62.0633 165.547 61.5502 165.457 61.0017 165.457C60.4531 165.457 59.9397 165.549 59.4617 165.733C58.9839 165.917 58.5447 166.166 58.1442 166.48L61 169.335ZM64.5202 172.856C64.8337 172.455 65.0826 172.016 65.2667 171.538C65.4511 171.061 65.5432 170.549 65.5432 170.001C65.5432 169.453 65.4532 168.935 65.273 168.448C65.093 167.961 64.8421 167.518 64.5202 167.119L61.652 169.975L64.5202 172.856ZM67.9385 176.274V163.691L65.175 166.474C65.5782 166.957 65.8942 167.496 66.123 168.09C66.3518 168.685 66.4662 169.321 66.4662 170C66.4662 170.676 66.3522 171.309 66.1242 171.901C65.8962 172.493 65.5808 173.03 65.178 173.513L67.9385 176.274ZM64.526 165.825L67.3702 163H54.6645L57.4865 165.822C57.9698 165.419 58.5073 165.104 59.099 164.876C59.6907 164.648 60.3243 164.534 61 164.534C61.6757 164.534 62.3114 164.648 62.9072 164.877C63.5031 165.106 64.0427 165.422 64.526 165.825ZM54.6722 177.861C54.2431 177.861 53.8802 177.713 53.5835 177.416C53.2868 177.12 53.1385 176.757 53.1385 176.328V163.672C53.1385 163.243 53.2868 162.88 53.5835 162.583C53.8802 162.287 54.2431 162.138 54.6722 162.138H67.3277C67.7569 162.138 68.1198 162.287 68.4165 162.583C68.7132 162.88 68.8615 163.243 68.8615 163.672V176.323C68.8615 176.749 68.7132 177.112 68.4165 177.412C68.1198 177.712 67.7569 177.861 67.3277 177.861H54.6722Z" fill="white"/>
<path d="M37.868 189.6H38.756V197.232H43.46V198H37.868V189.6ZM46.9858 191.64C47.8098 191.64 48.4418 191.848 48.8818 192.264C49.3218 192.672 49.5418 193.28 49.5418 194.088V198H48.7258V197.016C48.5338 197.344 48.2498 197.6 47.8738 197.784C47.5058 197.968 47.0658 198.06 46.5538 198.06C45.8498 198.06 45.2898 197.892 44.8738 197.556C44.4578 197.22 44.2498 196.776 44.2498 196.224C44.2498 195.688 44.4418 195.256 44.8258 194.928C45.2178 194.6 45.8378 194.436 46.6858 194.436H48.6898V194.052C48.6898 193.508 48.5378 193.096 48.2338 192.816C47.9298 192.528 47.4858 192.384 46.9018 192.384C46.5018 192.384 46.1178 192.452 45.7498 192.588C45.3818 192.716 45.0658 192.896 44.8018 193.128L44.4178 192.492C44.7378 192.22 45.1218 192.012 45.5698 191.868C46.0178 191.716 46.4898 191.64 46.9858 191.64ZM46.6858 197.388C47.1658 197.388 47.5778 197.28 47.9218 197.064C48.2658 196.84 48.5218 196.52 48.6898 196.104V195.072H46.7098C45.6298 195.072 45.0898 195.448 45.0898 196.2C45.0898 196.568 45.2298 196.86 45.5098 197.076C45.7898 197.284 46.1818 197.388 46.6858 197.388ZM55.108 191.64C55.7 191.64 56.236 191.776 56.716 192.048C57.196 192.312 57.572 192.688 57.844 193.176C58.116 193.664 58.252 194.22 58.252 194.844C58.252 195.468 58.116 196.024 57.844 196.512C57.572 197 57.196 197.38 56.716 197.652C56.236 197.924 55.7 198.06 55.108 198.06C54.58 198.06 54.104 197.948 53.68 197.724C53.264 197.5 52.928 197.176 52.672 196.752V198H51.856V189.096H52.708V192.888C52.972 192.48 53.308 192.172 53.716 191.964C54.132 191.748 54.596 191.64 55.108 191.64ZM55.048 197.304C55.488 197.304 55.888 197.204 56.248 197.004C56.608 196.796 56.888 196.504 57.088 196.128C57.296 195.752 57.4 195.324 57.4 194.844C57.4 194.364 57.296 193.936 57.088 193.56C56.888 193.184 56.608 192.896 56.248 192.696C55.888 192.488 55.488 192.384 55.048 192.384C54.6 192.384 54.196 192.488 53.836 192.696C53.484 192.896 53.204 193.184 52.996 193.56C52.796 193.936 52.696 194.364 52.696 194.844C52.696 195.324 52.796 195.752 52.996 196.128C53.204 196.504 53.484 196.796 53.836 197.004C54.196 197.204 54.6 197.304 55.048 197.304ZM65.4848 195.108H60.2048C60.2528 195.764 60.5048 196.296 60.9608 196.704C61.4168 197.104 61.9928 197.304 62.6888 197.304C63.0808 197.304 63.4408 197.236 63.7688 197.1C64.0968 196.956 64.3808 196.748 64.6208 196.476L65.1008 197.028C64.8208 197.364 64.4688 197.62 64.0448 197.796C63.6288 197.972 63.1688 198.06 62.6648 198.06C62.0168 198.06 61.4408 197.924 60.9368 197.652C60.4408 197.372 60.0528 196.988 59.7728 196.5C59.4928 196.012 59.3528 195.46 59.3528 194.844C59.3528 194.228 59.4848 193.676 59.7488 193.188C60.0208 192.7 60.3888 192.32 60.8528 192.048C61.3248 191.776 61.8528 191.64 62.4368 191.64C63.0208 191.64 63.5448 191.776 64.0088 192.048C64.4728 192.32 64.8368 192.7 65.1008 193.188C65.3648 193.668 65.4968 194.22 65.4968 194.844L65.4848 195.108ZM62.4368 192.372C61.8288 192.372 61.3168 192.568 60.9008 192.96C60.4928 193.344 60.2608 193.848 60.2048 194.472H64.6808C64.6248 193.848 64.3888 193.344 63.9728 192.96C63.5648 192.568 63.0528 192.372 62.4368 192.372ZM67.231 189.096H68.083V198H67.231V189.096Z" fill="white"/>
<g clip-path="url(#clip2_8197_383087)">
<path d="M82.325 194L79.875 191.55C79.7917 191.467 79.7514 191.368 79.7542 191.254C79.7569 191.14 79.8 191.042 79.8833 190.958C79.9667 190.875 80.0653 190.833 80.1792 190.833C80.2931 190.833 80.3917 190.875 80.475 190.958L83.0333 193.525C83.1 193.592 83.15 193.667 83.1833 193.75C83.2167 193.833 83.2333 193.917 83.2333 194C83.2333 194.083 83.2167 194.167 83.1833 194.25C83.15 194.333 83.1 194.408 83.0333 194.475L80.4667 197.042C80.3833 197.125 80.2861 197.165 80.175 197.162C80.0639 197.16 79.9667 197.117 79.8833 197.033C79.8 196.95 79.7583 196.851 79.7583 196.737C79.7583 196.624 79.8 196.525 79.8833 196.442L82.325 194Z" fill="white"/>
</g>
<defs>
<clipPath id="clip0_8197_383087">
<rect width="8" height="8" fill="white" transform="translate(77.5 52)"/>
</clipPath>
<clipPath id="clip1_8197_383087">
<rect width="8" height="8" fill="white" transform="translate(77.5 121)"/>
</clipPath>
<clipPath id="clip2_8197_383087">
<rect width="8" height="8" fill="white" transform="translate(77.5 190)"/>
</clipPath>
</defs>
</svg>
