<svg width="340" height="34" viewBox="0 0 340 34" fill="none" xmlns="http://www.w3.org/2000/svg">
<mask id="path-1-inside-1_8295_374451" fill="white">
<path d="M0 0H68V34H0V0Z"/>
</mask>
<path d="M68 34V32H0V34V36H68V34Z" fill="#3D3935" mask="url(#path-1-inside-1_8295_374451)"/>
<path d="M16.994 22V12.2H18.478V20.824H22.93V22H16.994ZM26.8232 22.168C26.2352 22.168 25.7499 22.07 25.3672 21.874C24.9845 21.678 24.6999 21.4213 24.5132 21.104C24.3265 20.7773 24.2332 20.4227 24.2332 20.04C24.2332 19.368 24.4945 18.836 25.0172 18.444C25.5399 18.052 26.2865 17.856 27.2572 17.856H29.0772V17.73C29.0772 17.1887 28.9279 16.7827 28.6292 16.512C28.3399 16.2413 27.9619 16.106 27.4952 16.106C27.0845 16.106 26.7252 16.2087 26.4172 16.414C26.1185 16.61 25.9365 16.904 25.8712 17.296H24.3872C24.4339 16.792 24.6019 16.3627 24.8912 16.008C25.1899 15.644 25.5632 15.3687 26.0112 15.182C26.4685 14.986 26.9679 14.888 27.5092 14.888C28.4799 14.888 29.2312 15.1447 29.7632 15.658C30.2952 16.162 30.5612 16.8527 30.5612 17.73V22H29.2732L29.1472 20.81C28.9512 21.1927 28.6665 21.5147 28.2932 21.776C27.9199 22.0373 27.4299 22.168 26.8232 22.168ZM27.1172 20.964C27.5185 20.964 27.8545 20.8707 28.1252 20.684C28.4052 20.488 28.6199 20.2313 28.7692 19.914C28.9279 19.5967 29.0259 19.2467 29.0632 18.864H27.4112C26.8232 18.864 26.4032 18.9667 26.1512 19.172C25.9085 19.3773 25.7872 19.634 25.7872 19.942C25.7872 20.2593 25.9039 20.5113 26.1372 20.698C26.3799 20.8753 26.7065 20.964 27.1172 20.964ZM36.1975 22.168C35.6562 22.168 35.1755 22.0607 34.7555 21.846C34.3448 21.6313 34.0182 21.328 33.7755 20.936L33.6215 22H32.2915V11.92H33.7755V16.134C33.9995 15.8073 34.3075 15.518 34.6995 15.266C35.0915 15.014 35.5955 14.888 36.2115 14.888C36.8835 14.888 37.4762 15.0467 37.9895 15.364C38.5028 15.6813 38.9042 16.1153 39.1935 16.666C39.4922 17.2167 39.6415 17.842 39.6415 18.542C39.6415 19.242 39.4922 19.8673 39.1935 20.418C38.9042 20.9593 38.5028 21.3887 37.9895 21.706C37.4762 22.014 36.8788 22.168 36.1975 22.168ZM35.9455 20.88C36.5802 20.88 37.1028 20.6653 37.5135 20.236C37.9242 19.7973 38.1295 19.228 38.1295 18.528C38.1295 18.0707 38.0362 17.6647 37.8495 17.31C37.6628 16.9553 37.4062 16.68 37.0795 16.484C36.7528 16.2787 36.3748 16.176 35.9455 16.176C35.3108 16.176 34.7882 16.3953 34.3775 16.834C33.9762 17.2727 33.7755 17.8373 33.7755 18.528C33.7755 19.228 33.9762 19.7973 34.3775 20.236C34.7882 20.6653 35.3108 20.88 35.9455 20.88ZM44.4946 22.168C43.8133 22.168 43.2066 22.0187 42.6746 21.72C42.1519 21.412 41.7413 20.9873 41.4426 20.446C41.1439 19.9047 40.9946 19.2747 40.9946 18.556C40.9946 17.828 41.1393 17.1887 41.4286 16.638C41.7273 16.0873 42.1379 15.658 42.6606 15.35C43.1926 15.042 43.8086 14.888 44.5086 14.888C45.1899 14.888 45.7826 15.042 46.2866 15.35C46.7906 15.6487 47.1826 16.05 47.4626 16.554C47.7426 17.058 47.8826 17.6133 47.8826 18.22C47.8826 18.3133 47.8779 18.416 47.8686 18.528C47.8686 18.6307 47.8639 18.7473 47.8546 18.878H42.4506C42.4973 19.55 42.7166 20.0633 43.1086 20.418C43.5099 20.7633 43.9719 20.936 44.4946 20.936C44.9146 20.936 45.2646 20.8427 45.5446 20.656C45.8339 20.46 46.0486 20.1987 46.1886 19.872H47.6726C47.4859 20.5253 47.1126 21.0713 46.5526 21.51C46.0019 21.9487 45.3159 22.168 44.4946 22.168ZM44.4946 16.106C43.9999 16.106 43.5613 16.2553 43.1786 16.554C42.7959 16.8433 42.5626 17.282 42.4786 17.87H46.3986C46.3706 17.3287 46.1793 16.8993 45.8246 16.582C45.4699 16.2647 45.0266 16.106 44.4946 16.106ZM49.4224 22V11.92H50.9064V22H49.4224Z" fill="#333333"/>
<mask id="path-4-inside-2_8295_374451" fill="white">
<path d="M68 0H136V34H68V0Z"/>
</mask>
<path d="M136 34V32H68V34V36H136V34Z" fill="#3D3935" mask="url(#path-4-inside-2_8295_374451)"/>
<path d="M84.994 22V12.2H86.478V20.824H90.93V22H84.994ZM94.8232 22.168C94.2352 22.168 93.7499 22.07 93.3672 21.874C92.9845 21.678 92.6999 21.4213 92.5132 21.104C92.3265 20.7773 92.2332 20.4227 92.2332 20.04C92.2332 19.368 92.4945 18.836 93.0172 18.444C93.5399 18.052 94.2865 17.856 95.2572 17.856H97.0772V17.73C97.0772 17.1887 96.9279 16.7827 96.6292 16.512C96.3399 16.2413 95.9619 16.106 95.4952 16.106C95.0845 16.106 94.7252 16.2087 94.4172 16.414C94.1185 16.61 93.9365 16.904 93.8712 17.296H92.3872C92.4339 16.792 92.6019 16.3627 92.8912 16.008C93.1899 15.644 93.5632 15.3687 94.0112 15.182C94.4685 14.986 94.9679 14.888 95.5092 14.888C96.4799 14.888 97.2312 15.1447 97.7632 15.658C98.2952 16.162 98.5612 16.8527 98.5612 17.73V22H97.2732L97.1472 20.81C96.9512 21.1927 96.6665 21.5147 96.2932 21.776C95.9199 22.0373 95.4299 22.168 94.8232 22.168ZM95.1172 20.964C95.5185 20.964 95.8545 20.8707 96.1252 20.684C96.4052 20.488 96.6199 20.2313 96.7692 19.914C96.9279 19.5967 97.0259 19.2467 97.0632 18.864H95.4112C94.8232 18.864 94.4032 18.9667 94.1512 19.172C93.9085 19.3773 93.7872 19.634 93.7872 19.942C93.7872 20.2593 93.9039 20.5113 94.1372 20.698C94.3799 20.8753 94.7065 20.964 95.1172 20.964ZM104.198 22.168C103.656 22.168 103.176 22.0607 102.756 21.846C102.345 21.6313 102.018 21.328 101.776 20.936L101.622 22H100.292V11.92H101.776V16.134C102 15.8073 102.308 15.518 102.7 15.266C103.092 15.014 103.596 14.888 104.212 14.888C104.884 14.888 105.476 15.0467 105.99 15.364C106.503 15.6813 106.904 16.1153 107.194 16.666C107.492 17.2167 107.642 17.842 107.642 18.542C107.642 19.242 107.492 19.8673 107.194 20.418C106.904 20.9593 106.503 21.3887 105.99 21.706C105.476 22.014 104.879 22.168 104.198 22.168ZM103.946 20.88C104.58 20.88 105.103 20.6653 105.514 20.236C105.924 19.7973 106.13 19.228 106.13 18.528C106.13 18.0707 106.036 17.6647 105.85 17.31C105.663 16.9553 105.406 16.68 105.08 16.484C104.753 16.2787 104.375 16.176 103.946 16.176C103.311 16.176 102.788 16.3953 102.378 16.834C101.976 17.2727 101.776 17.8373 101.776 18.528C101.776 19.228 101.976 19.7973 102.378 20.236C102.788 20.6653 103.311 20.88 103.946 20.88ZM112.495 22.168C111.813 22.168 111.207 22.0187 110.675 21.72C110.152 21.412 109.741 20.9873 109.443 20.446C109.144 19.9047 108.995 19.2747 108.995 18.556C108.995 17.828 109.139 17.1887 109.429 16.638C109.727 16.0873 110.138 15.658 110.661 15.35C111.193 15.042 111.809 14.888 112.509 14.888C113.19 14.888 113.783 15.042 114.287 15.35C114.791 15.6487 115.183 16.05 115.463 16.554C115.743 17.058 115.883 17.6133 115.883 18.22C115.883 18.3133 115.878 18.416 115.869 18.528C115.869 18.6307 115.864 18.7473 115.855 18.878H110.451C110.497 19.55 110.717 20.0633 111.109 20.418C111.51 20.7633 111.972 20.936 112.495 20.936C112.915 20.936 113.265 20.8427 113.545 20.656C113.834 20.46 114.049 20.1987 114.189 19.872H115.673C115.486 20.5253 115.113 21.0713 114.553 21.51C114.002 21.9487 113.316 22.168 112.495 22.168ZM112.495 16.106C112 16.106 111.561 16.2553 111.179 16.554C110.796 16.8433 110.563 17.282 110.479 17.87H114.399C114.371 17.3287 114.179 16.8993 113.825 16.582C113.47 16.2647 113.027 16.106 112.495 16.106ZM117.422 22V11.92H118.906V22H117.422Z" fill="#333333"/>
<mask id="path-7-inside-3_8295_374451" fill="white">
<path d="M136 0H204V34H136V0Z"/>
</mask>
<path d="M204 34V32H136V34V36H204V34Z" fill="#3D3935" mask="url(#path-7-inside-3_8295_374451)"/>
<path d="M152.994 22V12.2H154.478V20.824H158.93V22H152.994ZM162.823 22.168C162.235 22.168 161.75 22.07 161.367 21.874C160.985 21.678 160.7 21.4213 160.513 21.104C160.327 20.7773 160.233 20.4227 160.233 20.04C160.233 19.368 160.495 18.836 161.017 18.444C161.54 18.052 162.287 17.856 163.257 17.856H165.077V17.73C165.077 17.1887 164.928 16.7827 164.629 16.512C164.34 16.2413 163.962 16.106 163.495 16.106C163.085 16.106 162.725 16.2087 162.417 16.414C162.119 16.61 161.937 16.904 161.871 17.296H160.387C160.434 16.792 160.602 16.3627 160.891 16.008C161.19 15.644 161.563 15.3687 162.011 15.182C162.469 14.986 162.968 14.888 163.509 14.888C164.48 14.888 165.231 15.1447 165.763 15.658C166.295 16.162 166.561 16.8527 166.561 17.73V22H165.273L165.147 20.81C164.951 21.1927 164.667 21.5147 164.293 21.776C163.92 22.0373 163.43 22.168 162.823 22.168ZM163.117 20.964C163.519 20.964 163.855 20.8707 164.125 20.684C164.405 20.488 164.62 20.2313 164.769 19.914C164.928 19.5967 165.026 19.2467 165.063 18.864H163.411C162.823 18.864 162.403 18.9667 162.151 19.172C161.909 19.3773 161.787 19.634 161.787 19.942C161.787 20.2593 161.904 20.5113 162.137 20.698C162.38 20.8753 162.707 20.964 163.117 20.964ZM172.198 22.168C171.656 22.168 171.176 22.0607 170.756 21.846C170.345 21.6313 170.018 21.328 169.776 20.936L169.622 22H168.292V11.92H169.776V16.134C170 15.8073 170.308 15.518 170.7 15.266C171.092 15.014 171.596 14.888 172.212 14.888C172.884 14.888 173.476 15.0467 173.99 15.364C174.503 15.6813 174.904 16.1153 175.194 16.666C175.492 17.2167 175.642 17.842 175.642 18.542C175.642 19.242 175.492 19.8673 175.194 20.418C174.904 20.9593 174.503 21.3887 173.99 21.706C173.476 22.014 172.879 22.168 172.198 22.168ZM171.946 20.88C172.58 20.88 173.103 20.6653 173.514 20.236C173.924 19.7973 174.13 19.228 174.13 18.528C174.13 18.0707 174.036 17.6647 173.85 17.31C173.663 16.9553 173.406 16.68 173.08 16.484C172.753 16.2787 172.375 16.176 171.946 16.176C171.311 16.176 170.788 16.3953 170.378 16.834C169.976 17.2727 169.776 17.8373 169.776 18.528C169.776 19.228 169.976 19.7973 170.378 20.236C170.788 20.6653 171.311 20.88 171.946 20.88ZM180.495 22.168C179.813 22.168 179.207 22.0187 178.675 21.72C178.152 21.412 177.741 20.9873 177.443 20.446C177.144 19.9047 176.995 19.2747 176.995 18.556C176.995 17.828 177.139 17.1887 177.429 16.638C177.727 16.0873 178.138 15.658 178.661 15.35C179.193 15.042 179.809 14.888 180.509 14.888C181.19 14.888 181.783 15.042 182.287 15.35C182.791 15.6487 183.183 16.05 183.463 16.554C183.743 17.058 183.883 17.6133 183.883 18.22C183.883 18.3133 183.878 18.416 183.869 18.528C183.869 18.6307 183.864 18.7473 183.855 18.878H178.451C178.497 19.55 178.717 20.0633 179.109 20.418C179.51 20.7633 179.972 20.936 180.495 20.936C180.915 20.936 181.265 20.8427 181.545 20.656C181.834 20.46 182.049 20.1987 182.189 19.872H183.673C183.486 20.5253 183.113 21.0713 182.553 21.51C182.002 21.9487 181.316 22.168 180.495 22.168ZM180.495 16.106C180 16.106 179.561 16.2553 179.179 16.554C178.796 16.8433 178.563 17.282 178.479 17.87H182.399C182.371 17.3287 182.179 16.8993 181.825 16.582C181.47 16.2647 181.027 16.106 180.495 16.106ZM185.422 22V11.92H186.906V22H185.422Z" fill="#333333"/>
<mask id="path-10-inside-4_8295_374451" fill="white">
<path d="M204 0H272V34H204V0Z"/>
</mask>
<path d="M272 34V32H204V34V36H272V34Z" fill="#3D3935" mask="url(#path-10-inside-4_8295_374451)"/>
<path d="M220.994 22V12.2H222.478V20.824H226.93V22H220.994ZM230.823 22.168C230.235 22.168 229.75 22.07 229.367 21.874C228.985 21.678 228.7 21.4213 228.513 21.104C228.327 20.7773 228.233 20.4227 228.233 20.04C228.233 19.368 228.495 18.836 229.017 18.444C229.54 18.052 230.287 17.856 231.257 17.856H233.077V17.73C233.077 17.1887 232.928 16.7827 232.629 16.512C232.34 16.2413 231.962 16.106 231.495 16.106C231.085 16.106 230.725 16.2087 230.417 16.414C230.119 16.61 229.937 16.904 229.871 17.296H228.387C228.434 16.792 228.602 16.3627 228.891 16.008C229.19 15.644 229.563 15.3687 230.011 15.182C230.469 14.986 230.968 14.888 231.509 14.888C232.48 14.888 233.231 15.1447 233.763 15.658C234.295 16.162 234.561 16.8527 234.561 17.73V22H233.273L233.147 20.81C232.951 21.1927 232.667 21.5147 232.293 21.776C231.92 22.0373 231.43 22.168 230.823 22.168ZM231.117 20.964C231.519 20.964 231.855 20.8707 232.125 20.684C232.405 20.488 232.62 20.2313 232.769 19.914C232.928 19.5967 233.026 19.2467 233.063 18.864H231.411C230.823 18.864 230.403 18.9667 230.151 19.172C229.909 19.3773 229.787 19.634 229.787 19.942C229.787 20.2593 229.904 20.5113 230.137 20.698C230.38 20.8753 230.707 20.964 231.117 20.964ZM240.198 22.168C239.656 22.168 239.176 22.0607 238.756 21.846C238.345 21.6313 238.018 21.328 237.776 20.936L237.622 22H236.292V11.92H237.776V16.134C238 15.8073 238.308 15.518 238.7 15.266C239.092 15.014 239.596 14.888 240.212 14.888C240.884 14.888 241.476 15.0467 241.99 15.364C242.503 15.6813 242.904 16.1153 243.194 16.666C243.492 17.2167 243.642 17.842 243.642 18.542C243.642 19.242 243.492 19.8673 243.194 20.418C242.904 20.9593 242.503 21.3887 241.99 21.706C241.476 22.014 240.879 22.168 240.198 22.168ZM239.946 20.88C240.58 20.88 241.103 20.6653 241.514 20.236C241.924 19.7973 242.13 19.228 242.13 18.528C242.13 18.0707 242.036 17.6647 241.85 17.31C241.663 16.9553 241.406 16.68 241.08 16.484C240.753 16.2787 240.375 16.176 239.946 16.176C239.311 16.176 238.788 16.3953 238.378 16.834C237.976 17.2727 237.776 17.8373 237.776 18.528C237.776 19.228 237.976 19.7973 238.378 20.236C238.788 20.6653 239.311 20.88 239.946 20.88ZM248.495 22.168C247.813 22.168 247.207 22.0187 246.675 21.72C246.152 21.412 245.741 20.9873 245.443 20.446C245.144 19.9047 244.995 19.2747 244.995 18.556C244.995 17.828 245.139 17.1887 245.429 16.638C245.727 16.0873 246.138 15.658 246.661 15.35C247.193 15.042 247.809 14.888 248.509 14.888C249.19 14.888 249.783 15.042 250.287 15.35C250.791 15.6487 251.183 16.05 251.463 16.554C251.743 17.058 251.883 17.6133 251.883 18.22C251.883 18.3133 251.878 18.416 251.869 18.528C251.869 18.6307 251.864 18.7473 251.855 18.878H246.451C246.497 19.55 246.717 20.0633 247.109 20.418C247.51 20.7633 247.972 20.936 248.495 20.936C248.915 20.936 249.265 20.8427 249.545 20.656C249.834 20.46 250.049 20.1987 250.189 19.872H251.673C251.486 20.5253 251.113 21.0713 250.553 21.51C250.002 21.9487 249.316 22.168 248.495 22.168ZM248.495 16.106C248 16.106 247.561 16.2553 247.179 16.554C246.796 16.8433 246.563 17.282 246.479 17.87H250.399C250.371 17.3287 250.179 16.8993 249.825 16.582C249.47 16.2647 249.027 16.106 248.495 16.106ZM253.422 22V11.92H254.906V22H253.422Z" fill="#333333"/>
<mask id="path-13-inside-5_8295_374451" fill="white">
<path d="M272 0H340V34H272V0Z"/>
</mask>
<path d="M272 0H340V34H272V0Z" fill="white"/>
<path d="M340 34V32H272V34V36H340V34Z" fill="#DEC9DF" mask="url(#path-13-inside-5_8295_374451)"/>
<path d="M288.994 22V12.2H290.478V20.824H294.93V22H288.994ZM298.823 22.168C298.235 22.168 297.75 22.07 297.367 21.874C296.985 21.678 296.7 21.4213 296.513 21.104C296.327 20.7773 296.233 20.4227 296.233 20.04C296.233 19.368 296.495 18.836 297.017 18.444C297.54 18.052 298.287 17.856 299.257 17.856H301.077V17.73C301.077 17.1887 300.928 16.7827 300.629 16.512C300.34 16.2413 299.962 16.106 299.495 16.106C299.085 16.106 298.725 16.2087 298.417 16.414C298.119 16.61 297.937 16.904 297.871 17.296H296.387C296.434 16.792 296.602 16.3627 296.891 16.008C297.19 15.644 297.563 15.3687 298.011 15.182C298.469 14.986 298.968 14.888 299.509 14.888C300.48 14.888 301.231 15.1447 301.763 15.658C302.295 16.162 302.561 16.8527 302.561 17.73V22H301.273L301.147 20.81C300.951 21.1927 300.667 21.5147 300.293 21.776C299.92 22.0373 299.43 22.168 298.823 22.168ZM299.117 20.964C299.519 20.964 299.855 20.8707 300.125 20.684C300.405 20.488 300.62 20.2313 300.769 19.914C300.928 19.5967 301.026 19.2467 301.063 18.864H299.411C298.823 18.864 298.403 18.9667 298.151 19.172C297.909 19.3773 297.787 19.634 297.787 19.942C297.787 20.2593 297.904 20.5113 298.137 20.698C298.38 20.8753 298.707 20.964 299.117 20.964ZM308.198 22.168C307.656 22.168 307.176 22.0607 306.756 21.846C306.345 21.6313 306.018 21.328 305.776 20.936L305.622 22H304.292V11.92H305.776V16.134C306 15.8073 306.308 15.518 306.7 15.266C307.092 15.014 307.596 14.888 308.212 14.888C308.884 14.888 309.476 15.0467 309.99 15.364C310.503 15.6813 310.904 16.1153 311.194 16.666C311.492 17.2167 311.642 17.842 311.642 18.542C311.642 19.242 311.492 19.8673 311.194 20.418C310.904 20.9593 310.503 21.3887 309.99 21.706C309.476 22.014 308.879 22.168 308.198 22.168ZM307.946 20.88C308.58 20.88 309.103 20.6653 309.514 20.236C309.924 19.7973 310.13 19.228 310.13 18.528C310.13 18.0707 310.036 17.6647 309.85 17.31C309.663 16.9553 309.406 16.68 309.08 16.484C308.753 16.2787 308.375 16.176 307.946 16.176C307.311 16.176 306.788 16.3953 306.378 16.834C305.976 17.2727 305.776 17.8373 305.776 18.528C305.776 19.228 305.976 19.7973 306.378 20.236C306.788 20.6653 307.311 20.88 307.946 20.88ZM316.495 22.168C315.813 22.168 315.207 22.0187 314.675 21.72C314.152 21.412 313.741 20.9873 313.443 20.446C313.144 19.9047 312.995 19.2747 312.995 18.556C312.995 17.828 313.139 17.1887 313.429 16.638C313.727 16.0873 314.138 15.658 314.661 15.35C315.193 15.042 315.809 14.888 316.509 14.888C317.19 14.888 317.783 15.042 318.287 15.35C318.791 15.6487 319.183 16.05 319.463 16.554C319.743 17.058 319.883 17.6133 319.883 18.22C319.883 18.3133 319.878 18.416 319.869 18.528C319.869 18.6307 319.864 18.7473 319.855 18.878H314.451C314.497 19.55 314.717 20.0633 315.109 20.418C315.51 20.7633 315.972 20.936 316.495 20.936C316.915 20.936 317.265 20.8427 317.545 20.656C317.834 20.46 318.049 20.1987 318.189 19.872H319.673C319.486 20.5253 319.113 21.0713 318.553 21.51C318.002 21.9487 317.316 22.168 316.495 22.168ZM316.495 16.106C316 16.106 315.561 16.2553 315.179 16.554C314.796 16.8433 314.563 17.282 314.479 17.87H318.399C318.371 17.3287 318.179 16.8993 317.825 16.582C317.47 16.2647 317.027 16.106 316.495 16.106ZM321.422 22V11.92H322.906V22H321.422Z" fill="#DEC9DF"/>
</svg>
