<svg width="100" height="17" viewBox="0 0 100 17" fill="none" xmlns="http://www.w3.org/2000/svg">
<rect x="0.136292" width="31.8183" height="16" rx="4" fill="#7A2682"/>
<rect x="16.8629" y="1" width="14" height="14" rx="3" fill="white"/>
<path d="M49.184 14V2.8H50.528V12.928H55.744V14H49.184ZM60.1503 14.192C59.4889 14.192 58.9396 14.08 58.5023 13.856C58.0649 13.632 57.7396 13.3333 57.5263 12.96C57.3129 12.5867 57.2063 12.1813 57.2063 11.744C57.2063 10.9333 57.5156 10.3093 58.1343 9.872C58.7529 9.43467 59.5956 9.216 60.6623 9.216H62.8063V9.12C62.8063 8.42667 62.6249 7.904 62.2623 7.552C61.8996 7.18933 61.4143 7.008 60.8063 7.008C60.2836 7.008 59.8303 7.14133 59.4463 7.408C59.0729 7.664 58.8383 8.04267 58.7423 8.544H57.3663C57.4196 7.968 57.6116 7.48267 57.9423 7.088C58.2836 6.69333 58.7049 6.39467 59.2063 6.192C59.7076 5.97867 60.2409 5.872 60.8063 5.872C61.9156 5.872 62.7476 6.17067 63.3023 6.768C63.8676 7.35467 64.1503 8.13867 64.1503 9.12V14H62.9503L62.8703 12.576C62.6463 13.024 62.3156 13.408 61.8783 13.728C61.4516 14.0373 60.8756 14.192 60.1503 14.192ZM60.3583 13.056C60.8703 13.056 61.3076 12.9227 61.6703 12.656C62.0436 12.3893 62.3263 12.0427 62.5183 11.616C62.7103 11.1893 62.8063 10.7413 62.8063 10.272V10.256H60.7743C59.9849 10.256 59.4249 10.3947 59.0943 10.672C58.7743 10.9387 58.6143 11.2747 58.6143 11.68C58.6143 12.096 58.7636 12.432 59.0623 12.688C59.3716 12.9333 59.8036 13.056 60.3583 13.056ZM70.4065 14.192C69.7558 14.192 69.1745 14.0587 68.6625 13.792C68.1612 13.5253 67.7772 13.152 67.5105 12.672L67.3825 14H66.1665V2.48H67.5105V7.376C67.7665 6.992 68.1292 6.64533 68.5985 6.336C69.0785 6.02667 69.6865 5.872 70.4225 5.872C71.2118 5.872 71.8998 6.05333 72.4865 6.416C73.0732 6.77867 73.5265 7.27467 73.8465 7.904C74.1772 8.53333 74.3425 9.248 74.3425 10.048C74.3425 10.848 74.1772 11.5627 73.8465 12.192C73.5265 12.8107 73.0678 13.3013 72.4705 13.664C71.8838 14.016 71.1958 14.192 70.4065 14.192ZM70.2625 13.024C70.7958 13.024 71.2652 12.9013 71.6705 12.656C72.0758 12.4 72.3958 12.048 72.6305 11.6C72.8652 11.152 72.9825 10.6293 72.9825 10.032C72.9825 9.43467 72.8652 8.912 72.6305 8.464C72.3958 8.016 72.0758 7.66933 71.6705 7.424C71.2652 7.168 70.7958 7.04 70.2625 7.04C69.7292 7.04 69.2598 7.168 68.8545 7.424C68.4492 7.66933 68.1292 8.016 67.8945 8.464C67.6598 8.912 67.5425 9.43467 67.5425 10.032C67.5425 10.6293 67.6598 11.152 67.8945 11.6C68.1292 12.048 68.4492 12.4 68.8545 12.656C69.2598 12.9013 69.7292 13.024 70.2625 13.024ZM79.7814 14.192C79.024 14.192 78.352 14.0213 77.7654 13.68C77.1787 13.328 76.7147 12.8427 76.3734 12.224C76.0427 11.6053 75.8774 10.8747 75.8774 10.032C75.8774 9.2 76.0427 8.47467 76.3734 7.856C76.704 7.22667 77.1627 6.74133 77.7494 6.4C78.3467 6.048 79.0347 5.872 79.8134 5.872C80.5814 5.872 81.2427 6.048 81.7974 6.4C82.3627 6.74133 82.7947 7.19467 83.0934 7.76C83.392 8.32533 83.5414 8.93333 83.5414 9.584C83.5414 9.70133 83.536 9.81867 83.5254 9.936C83.5254 10.0533 83.5254 10.1867 83.5254 10.336H77.2054C77.2374 10.944 77.376 11.4507 77.6214 11.856C77.8774 12.2507 78.192 12.5493 78.5654 12.752C78.9494 12.9547 79.3547 13.056 79.7814 13.056C80.336 13.056 80.8 12.928 81.1734 12.672C81.5467 12.416 81.8187 12.0693 81.9894 11.632H83.3174C83.104 12.368 82.6934 12.9813 82.0854 13.472C81.488 13.952 80.72 14.192 79.7814 14.192ZM79.7814 7.008C79.1414 7.008 78.5707 7.20533 78.0694 7.6C77.5787 7.984 77.296 8.54933 77.2214 9.296H82.2134C82.1814 8.58133 81.936 8.02133 81.4774 7.616C81.0187 7.21067 80.4534 7.008 79.7814 7.008ZM85.3228 14V2.48H86.6668V14H85.3228ZM95.328 8.24L95.52 5.792L93.536 7.184L92.976 6.208L95.2 5.232L92.992 4.272L93.52 3.328L95.536 4.72L95.312 2.272H96.4L96.16 4.72L98.16 3.328L98.672 4.256L96.464 5.248L98.688 6.224L98.16 7.168L96.16 5.792L96.384 8.24H95.328Z" fill="#333333"/>
</svg>
