<svg width="100" height="60" viewBox="0 0 100 60" fill="none" xmlns="http://www.w3.org/2000/svg">
<path d="M1.184 12V0.799999H2.528V10.928H7.744V12H1.184ZM12.1503 12.192C11.4889 12.192 10.9396 12.08 10.5023 11.856C10.0649 11.632 9.73958 11.3333 9.52625 10.96C9.31292 10.5867 9.20625 10.1813 9.20625 9.744C9.20625 8.93333 9.51558 8.30933 10.1343 7.872C10.7529 7.43467 11.5956 7.216 12.6623 7.216H14.8063V7.12C14.8063 6.42667 14.6249 5.904 14.2623 5.552C13.8996 5.18933 13.4143 5.008 12.8063 5.008C12.2836 5.008 11.8303 5.14133 11.4463 5.408C11.0729 5.664 10.8383 6.04267 10.7423 6.544H9.36625C9.41958 5.968 9.61158 5.48267 9.94225 5.088C10.2836 4.69333 10.7049 4.39467 11.2063 4.192C11.7076 3.97867 12.2409 3.872 12.8063 3.872C13.9156 3.872 14.7476 4.17067 15.3023 4.768C15.8676 5.35467 16.1503 6.13867 16.1503 7.12V12H14.9503L14.8703 10.576C14.6463 11.024 14.3156 11.408 13.8783 11.728C13.4516 12.0373 12.8756 12.192 12.1503 12.192ZM12.3583 11.056C12.8703 11.056 13.3076 10.9227 13.6703 10.656C14.0436 10.3893 14.3263 10.0427 14.5183 9.616C14.7103 9.18933 14.8063 8.74133 14.8063 8.272V8.256H12.7743C11.9849 8.256 11.4249 8.39467 11.0943 8.672C10.7743 8.93867 10.6143 9.27467 10.6143 9.68C10.6143 10.096 10.7636 10.432 11.0623 10.688C11.3716 10.9333 11.8036 11.056 12.3583 11.056ZM22.4065 12.192C21.7558 12.192 21.1745 12.0587 20.6625 11.792C20.1612 11.5253 19.7772 11.152 19.5105 10.672L19.3825 12H18.1665V0.48H19.5105V5.376C19.7665 4.992 20.1292 4.64533 20.5985 4.336C21.0785 4.02667 21.6865 3.872 22.4225 3.872C23.2118 3.872 23.8998 4.05333 24.4865 4.416C25.0732 4.77867 25.5265 5.27467 25.8465 5.904C26.1772 6.53333 26.3425 7.248 26.3425 8.048C26.3425 8.848 26.1772 9.56267 25.8465 10.192C25.5265 10.8107 25.0678 11.3013 24.4705 11.664C23.8838 12.016 23.1958 12.192 22.4065 12.192ZM22.2625 11.024C22.7958 11.024 23.2652 10.9013 23.6705 10.656C24.0758 10.4 24.3958 10.048 24.6305 9.6C24.8652 9.152 24.9825 8.62933 24.9825 8.032C24.9825 7.43467 24.8652 6.912 24.6305 6.464C24.3958 6.016 24.0758 5.66933 23.6705 5.424C23.2652 5.168 22.7958 5.04 22.2625 5.04C21.7292 5.04 21.2598 5.168 20.8545 5.424C20.4492 5.66933 20.1292 6.016 19.8945 6.464C19.6598 6.912 19.5425 7.43467 19.5425 8.032C19.5425 8.62933 19.6598 9.152 19.8945 9.6C20.1292 10.048 20.4492 10.4 20.8545 10.656C21.2598 10.9013 21.7292 11.024 22.2625 11.024ZM31.7814 12.192C31.024 12.192 30.352 12.0213 29.7654 11.68C29.1787 11.328 28.7147 10.8427 28.3734 10.224C28.0427 9.60533 27.8774 8.87467 27.8774 8.032C27.8774 7.2 28.0427 6.47467 28.3734 5.856C28.704 5.22667 29.1627 4.74133 29.7494 4.4C30.3467 4.048 31.0347 3.872 31.8134 3.872C32.5814 3.872 33.2427 4.048 33.7974 4.4C34.3627 4.74133 34.7947 5.19467 35.0934 5.76C35.392 6.32533 35.5414 6.93333 35.5414 7.584C35.5414 7.70133 35.536 7.81867 35.5254 7.936C35.5254 8.05333 35.5254 8.18667 35.5254 8.336H29.2054C29.2374 8.944 29.376 9.45067 29.6214 9.856C29.8774 10.2507 30.192 10.5493 30.5654 10.752C30.9494 10.9547 31.3547 11.056 31.7814 11.056C32.336 11.056 32.8 10.928 33.1734 10.672C33.5467 10.416 33.8187 10.0693 33.9894 9.632H35.3174C35.104 10.368 34.6934 10.9813 34.0854 11.472C33.488 11.952 32.72 12.192 31.7814 12.192ZM31.7814 5.008C31.1414 5.008 30.5707 5.20533 30.0694 5.6C29.5787 5.984 29.296 6.54933 29.2214 7.296H34.2134C34.1814 6.58133 33.936 6.02133 33.4774 5.616C33.0187 5.21067 32.4534 5.008 31.7814 5.008ZM37.3228 12V0.48H38.6668V12H37.3228Z" fill="#333333"/>
<rect x="0.5" y="20.5" width="99" height="39" rx="3.5" fill="white"/>
<rect x="0.5" y="20.5" width="99" height="39" rx="3.5" stroke="#E2E2E2"/>
<path d="M16.798 41.556V40.31H22.496V41.556H16.798ZM24.0714 41.556V40.31H29.7694V41.556H24.0714ZM31.3449 41.556V40.31H37.0429V41.556H31.3449Z" fill="#616161"/>
<path d="M66.3386 45.168C65.3679 45.168 64.5279 44.958 63.8186 44.538C63.1186 44.1087 62.5772 43.516 62.1946 42.76C61.8119 41.9947 61.6206 41.1127 61.6206 40.114C61.6206 39.106 61.8119 38.224 62.1946 37.468C62.5772 36.7027 63.1186 36.1053 63.8186 35.676C64.5279 35.2467 65.3679 35.032 66.3386 35.032C67.4866 35.032 68.4246 35.312 69.1526 35.872C69.8806 36.432 70.3426 37.216 70.5386 38.224H68.8866C68.7559 37.6547 68.4759 37.202 68.0466 36.866C67.6172 36.53 67.0432 36.362 66.3246 36.362C65.3446 36.362 64.5699 36.698 64.0006 37.37C63.4312 38.0327 63.1466 38.9473 63.1466 40.114C63.1466 41.2713 63.4312 42.1813 64.0006 42.844C64.5699 43.5067 65.3446 43.838 66.3246 43.838C67.0432 43.838 67.6172 43.6793 68.0466 43.362C68.4759 43.0447 68.7559 42.6107 68.8866 42.06H70.5386C70.3426 43.0307 69.8806 43.7913 69.1526 44.342C68.4246 44.8927 67.4866 45.168 66.3386 45.168ZM72.1138 45V38.056H73.4298L73.5558 39.036C73.7798 38.6813 74.0738 38.4013 74.4378 38.196C74.8111 37.9907 75.2404 37.888 75.7258 37.888C76.8271 37.888 77.5924 38.322 78.0218 39.19C78.2738 38.7887 78.6098 38.4713 79.0298 38.238C79.4591 38.0047 79.9211 37.888 80.4158 37.888C81.2838 37.888 81.9651 38.1493 82.4598 38.672C82.9544 39.1947 83.2018 39.974 83.2018 41.01V45H81.7178V41.164C81.7178 39.82 81.2044 39.148 80.1778 39.148C79.6551 39.148 79.2258 39.344 78.8898 39.736C78.5631 40.128 78.3998 40.688 78.3998 41.416V45H76.9158V41.164C76.9158 39.82 76.3978 39.148 75.3618 39.148C74.8484 39.148 74.4238 39.344 74.0878 39.736C73.7611 40.128 73.5978 40.688 73.5978 41.416V45H72.1138Z" fill="#A89AAA"/>
</svg>
