<svg width="84" height="50" viewBox="0 0 84 50" fill="none" xmlns="http://www.w3.org/2000/svg">
<path d="M8 1C12.1421 1 15.5 4.35786 15.5 8.5C15.5 12.6421 12.1421 16 8 16C3.85786 16 0.5 12.6421 0.5 8.5C0.5 4.35786 3.85786 1 8 1Z" fill="white" stroke="#EBEBEB"/>
<path d="M33.184 14V2.8H34.528V12.928H39.744V14H33.184ZM44.1503 14.192C43.4889 14.192 42.9396 14.08 42.5023 13.856C42.0649 13.632 41.7396 13.3333 41.5263 12.96C41.3129 12.5867 41.2063 12.1813 41.2063 11.744C41.2063 10.9333 41.5156 10.3093 42.1343 9.872C42.7529 9.43467 43.5956 9.216 44.6623 9.216H46.8063V9.12C46.8063 8.42667 46.6249 7.904 46.2623 7.552C45.8996 7.18933 45.4143 7.008 44.8063 7.008C44.2836 7.008 43.8303 7.14133 43.4463 7.408C43.0729 7.664 42.8383 8.04267 42.7423 8.544H41.3663C41.4196 7.968 41.6116 7.48267 41.9423 7.088C42.2836 6.69333 42.7049 6.39467 43.2063 6.192C43.7076 5.97867 44.2409 5.872 44.8063 5.872C45.9156 5.872 46.7476 6.17067 47.3023 6.768C47.8676 7.35467 48.1503 8.13867 48.1503 9.12V14H46.9503L46.8703 12.576C46.6463 13.024 46.3156 13.408 45.8783 13.728C45.4516 14.0373 44.8756 14.192 44.1503 14.192ZM44.3583 13.056C44.8703 13.056 45.3076 12.9227 45.6703 12.656C46.0436 12.3893 46.3263 12.0427 46.5183 11.616C46.7103 11.1893 46.8063 10.7413 46.8063 10.272V10.256H44.7743C43.9849 10.256 43.4249 10.3947 43.0943 10.672C42.7743 10.9387 42.6143 11.2747 42.6143 11.68C42.6143 12.096 42.7636 12.432 43.0623 12.688C43.3716 12.9333 43.8036 13.056 44.3583 13.056ZM54.4065 14.192C53.7558 14.192 53.1745 14.0587 52.6625 13.792C52.1612 13.5253 51.7772 13.152 51.5105 12.672L51.3825 14H50.1665V2.48H51.5105V7.376C51.7665 6.992 52.1292 6.64533 52.5985 6.336C53.0785 6.02667 53.6865 5.872 54.4225 5.872C55.2118 5.872 55.8998 6.05333 56.4865 6.416C57.0732 6.77867 57.5265 7.27467 57.8465 7.904C58.1772 8.53333 58.3425 9.248 58.3425 10.048C58.3425 10.848 58.1772 11.5627 57.8465 12.192C57.5265 12.8107 57.0678 13.3013 56.4705 13.664C55.8838 14.016 55.1958 14.192 54.4065 14.192ZM54.2625 13.024C54.7958 13.024 55.2652 12.9013 55.6705 12.656C56.0758 12.4 56.3958 12.048 56.6305 11.6C56.8652 11.152 56.9825 10.6293 56.9825 10.032C56.9825 9.43467 56.8652 8.912 56.6305 8.464C56.3958 8.016 56.0758 7.66933 55.6705 7.424C55.2652 7.168 54.7958 7.04 54.2625 7.04C53.7292 7.04 53.2598 7.168 52.8545 7.424C52.4492 7.66933 52.1292 8.016 51.8945 8.464C51.6598 8.912 51.5425 9.43467 51.5425 10.032C51.5425 10.6293 51.6598 11.152 51.8945 11.6C52.1292 12.048 52.4492 12.4 52.8545 12.656C53.2598 12.9013 53.7292 13.024 54.2625 13.024ZM63.7814 14.192C63.024 14.192 62.352 14.0213 61.7654 13.68C61.1787 13.328 60.7147 12.8427 60.3734 12.224C60.0427 11.6053 59.8774 10.8747 59.8774 10.032C59.8774 9.2 60.0427 8.47467 60.3734 7.856C60.704 7.22667 61.1627 6.74133 61.7494 6.4C62.3467 6.048 63.0347 5.872 63.8134 5.872C64.5814 5.872 65.2427 6.048 65.7974 6.4C66.3627 6.74133 66.7947 7.19467 67.0934 7.76C67.392 8.32533 67.5414 8.93333 67.5414 9.584C67.5414 9.70133 67.536 9.81867 67.5254 9.936C67.5254 10.0533 67.5254 10.1867 67.5254 10.336H61.2054C61.2374 10.944 61.376 11.4507 61.6214 11.856C61.8774 12.2507 62.192 12.5493 62.5654 12.752C62.9494 12.9547 63.3547 13.056 63.7814 13.056C64.336 13.056 64.8 12.928 65.1734 12.672C65.5467 12.416 65.8187 12.0693 65.9894 11.632H67.3174C67.104 12.368 66.6934 12.9813 66.0854 13.472C65.488 13.952 64.72 14.192 63.7814 14.192ZM63.7814 7.008C63.1414 7.008 62.5707 7.20533 62.0694 7.6C61.5787 7.984 61.296 8.54933 61.2214 9.296H66.2134C66.1814 8.58133 65.936 8.02133 65.4774 7.616C65.0187 7.21067 64.4534 7.008 63.7814 7.008ZM69.3228 14V2.48H70.6668V14H69.3228ZM79.328 8.24L79.52 5.792L77.536 7.184L76.976 6.208L79.2 5.232L76.992 4.272L77.52 3.328L79.536 4.72L79.312 2.272H80.4L80.16 4.72L82.16 3.328L82.672 4.256L80.464 5.248L82.688 6.224L82.16 7.168L80.16 5.792L80.384 8.24H79.328Z" fill="#333333"/>
<path d="M8 34C12.1421 34 15.5 37.3579 15.5 41.5C15.5 45.6421 12.1421 49 8 49C3.85786 49 0.5 45.6421 0.5 41.5C0.5 37.3579 3.85786 34 8 34Z" fill="white" stroke="#A89AAA"/>
<path d="M0 41.5C0 37.0817 3.58172 33.5 8 33.5V33.5C12.4183 33.5 16 37.0817 16 41.5V41.5C16 45.9183 12.4183 49.5 8 49.5V49.5C3.58172 49.5 0 45.9183 0 41.5V41.5Z" fill="#7A2682"/>
<path d="M13 38.6444L7.93209 44.0346L7.93134 44.0314C7.6516 44.3315 7.27284 44.5 6.87798 44.5C6.48313 44.5 6.10437 44.3315 5.82463 44.0314L3 41.0578L4.04478 39.9086L6.87612 42.8846L11.9552 37.5L13 38.6444Z" fill="white"/>
<path d="M33.184 47V35.8H34.528V45.928H39.744V47H33.184ZM44.1503 47.192C43.4889 47.192 42.9396 47.08 42.5023 46.856C42.0649 46.632 41.7396 46.3333 41.5263 45.96C41.3129 45.5867 41.2063 45.1813 41.2063 44.744C41.2063 43.9333 41.5156 43.3093 42.1343 42.872C42.7529 42.4347 43.5956 42.216 44.6623 42.216H46.8063V42.12C46.8063 41.4267 46.6249 40.904 46.2623 40.552C45.8996 40.1893 45.4143 40.008 44.8063 40.008C44.2836 40.008 43.8303 40.1413 43.4463 40.408C43.0729 40.664 42.8383 41.0427 42.7423 41.544H41.3663C41.4196 40.968 41.6116 40.4827 41.9423 40.088C42.2836 39.6933 42.7049 39.3947 43.2063 39.192C43.7076 38.9787 44.2409 38.872 44.8063 38.872C45.9156 38.872 46.7476 39.1707 47.3023 39.768C47.8676 40.3547 48.1503 41.1387 48.1503 42.12V47H46.9503L46.8703 45.576C46.6463 46.024 46.3156 46.408 45.8783 46.728C45.4516 47.0373 44.8756 47.192 44.1503 47.192ZM44.3583 46.056C44.8703 46.056 45.3076 45.9227 45.6703 45.656C46.0436 45.3893 46.3263 45.0427 46.5183 44.616C46.7103 44.1893 46.8063 43.7413 46.8063 43.272V43.256H44.7743C43.9849 43.256 43.4249 43.3947 43.0943 43.672C42.7743 43.9387 42.6143 44.2747 42.6143 44.68C42.6143 45.096 42.7636 45.432 43.0623 45.688C43.3716 45.9333 43.8036 46.056 44.3583 46.056ZM54.4065 47.192C53.7558 47.192 53.1745 47.0587 52.6625 46.792C52.1612 46.5253 51.7772 46.152 51.5105 45.672L51.3825 47H50.1665V35.48H51.5105V40.376C51.7665 39.992 52.1292 39.6453 52.5985 39.336C53.0785 39.0267 53.6865 38.872 54.4225 38.872C55.2118 38.872 55.8998 39.0533 56.4865 39.416C57.0732 39.7787 57.5265 40.2747 57.8465 40.904C58.1772 41.5333 58.3425 42.248 58.3425 43.048C58.3425 43.848 58.1772 44.5627 57.8465 45.192C57.5265 45.8107 57.0678 46.3013 56.4705 46.664C55.8838 47.016 55.1958 47.192 54.4065 47.192ZM54.2625 46.024C54.7958 46.024 55.2652 45.9013 55.6705 45.656C56.0758 45.4 56.3958 45.048 56.6305 44.6C56.8652 44.152 56.9825 43.6293 56.9825 43.032C56.9825 42.4347 56.8652 41.912 56.6305 41.464C56.3958 41.016 56.0758 40.6693 55.6705 40.424C55.2652 40.168 54.7958 40.04 54.2625 40.04C53.7292 40.04 53.2598 40.168 52.8545 40.424C52.4492 40.6693 52.1292 41.016 51.8945 41.464C51.6598 41.912 51.5425 42.4347 51.5425 43.032C51.5425 43.6293 51.6598 44.152 51.8945 44.6C52.1292 45.048 52.4492 45.4 52.8545 45.656C53.2598 45.9013 53.7292 46.024 54.2625 46.024ZM63.7814 47.192C63.024 47.192 62.352 47.0213 61.7654 46.68C61.1787 46.328 60.7147 45.8427 60.3734 45.224C60.0427 44.6053 59.8774 43.8747 59.8774 43.032C59.8774 42.2 60.0427 41.4747 60.3734 40.856C60.704 40.2267 61.1627 39.7413 61.7494 39.4C62.3467 39.048 63.0347 38.872 63.8134 38.872C64.5814 38.872 65.2427 39.048 65.7974 39.4C66.3627 39.7413 66.7947 40.1947 67.0934 40.76C67.392 41.3253 67.5414 41.9333 67.5414 42.584C67.5414 42.7013 67.536 42.8187 67.5254 42.936C67.5254 43.0533 67.5254 43.1867 67.5254 43.336H61.2054C61.2374 43.944 61.376 44.4507 61.6214 44.856C61.8774 45.2507 62.192 45.5493 62.5654 45.752C62.9494 45.9547 63.3547 46.056 63.7814 46.056C64.336 46.056 64.8 45.928 65.1734 45.672C65.5467 45.416 65.8187 45.0693 65.9894 44.632H67.3174C67.104 45.368 66.6934 45.9813 66.0854 46.472C65.488 46.952 64.72 47.192 63.7814 47.192ZM63.7814 40.008C63.1414 40.008 62.5707 40.2053 62.0694 40.6C61.5787 40.984 61.296 41.5493 61.2214 42.296H66.2134C66.1814 41.5813 65.936 41.0213 65.4774 40.616C65.0187 40.2107 64.4534 40.008 63.7814 40.008ZM69.3228 47V35.48H70.6668V47H69.3228ZM79.328 41.24L79.52 38.792L77.536 40.184L76.976 39.208L79.2 38.232L76.992 37.272L77.52 36.328L79.536 37.72L79.312 35.272H80.4L80.16 37.72L82.16 36.328L82.672 37.256L80.464 38.248L82.688 39.224L82.16 40.168L80.16 38.792L80.384 41.24H79.328Z" fill="#333333"/>
</svg>
