<svg width="256" height="81" viewBox="0 0 256 81" fill="none" xmlns="http://www.w3.org/2000/svg">
<path d="M1.184 12V0.799999H8.112V1.904H2.528V5.808H7.632V6.896H2.528V10.896H8.112V12H1.184ZM10.1353 12V4.064H11.3513L11.4473 5.216C11.7033 4.78933 12.0446 4.45867 12.4713 4.224C12.8979 3.98933 13.3779 3.872 13.9113 3.872C14.5406 3.872 15.0793 4 15.5273 4.256C15.9859 4.512 16.3379 4.90133 16.5833 5.424C16.8606 4.944 17.2393 4.56533 17.7193 4.288C18.2099 4.01067 18.7379 3.872 19.3033 3.872C20.2526 3.872 21.0099 4.16 21.5753 4.736C22.1406 5.30133 22.4233 6.176 22.4233 7.36V12H21.0953V7.504C21.0953 6.68267 20.9299 6.064 20.5993 5.648C20.2686 5.232 19.7939 5.024 19.1753 5.024C18.5353 5.024 18.0019 5.27467 17.5753 5.776C17.1593 6.26667 16.9513 6.97067 16.9513 7.888V12H15.6073V7.504C15.6073 6.68267 15.4419 6.064 15.1113 5.648C14.7806 5.232 14.3059 5.024 13.6873 5.024C13.0579 5.024 12.5299 5.27467 12.1033 5.776C11.6873 6.26667 11.4793 6.97067 11.4793 7.888V12H10.1353ZM27.0878 12.192C26.4264 12.192 25.8771 12.08 25.4398 11.856C25.0024 11.632 24.6771 11.3333 24.4638 10.96C24.2504 10.5867 24.1438 10.1813 24.1438 9.744C24.1438 8.93333 24.4531 8.30933 25.0718 7.872C25.6904 7.43467 26.5331 7.216 27.5998 7.216H29.7438V7.12C29.7438 6.42667 29.5624 5.904 29.1998 5.552C28.8371 5.18933 28.3518 5.008 27.7438 5.008C27.2211 5.008 26.7678 5.14133 26.3838 5.408C26.0104 5.664 25.7758 6.04267 25.6798 6.544H24.3038C24.3571 5.968 24.5491 5.48267 24.8798 5.088C25.2211 4.69333 25.6424 4.39467 26.1438 4.192C26.6451 3.97867 27.1784 3.872 27.7438 3.872C28.8531 3.872 29.6851 4.17067 30.2398 4.768C30.8051 5.35467 31.0878 6.13867 31.0878 7.12V12H29.8878L29.8078 10.576C29.5838 11.024 29.2531 11.408 28.8158 11.728C28.3891 12.0373 27.8131 12.192 27.0878 12.192ZM27.2958 11.056C27.8078 11.056 28.2451 10.9227 28.6078 10.656C28.9811 10.3893 29.2638 10.0427 29.4558 9.616C29.6478 9.18933 29.7438 8.74133 29.7438 8.272V8.256H27.7118C26.9224 8.256 26.3624 8.39467 26.0318 8.672C25.7118 8.93867 25.5518 9.27467 25.5518 9.68C25.5518 10.096 25.7011 10.432 25.9998 10.688C26.3091 10.9333 26.7411 11.056 27.2958 11.056ZM33.92 2.304C33.6533 2.304 33.4293 2.21867 33.248 2.048C33.0773 1.86667 32.992 1.64267 32.992 1.376C32.992 1.12 33.0773 0.906666 33.248 0.735999C33.4293 0.565333 33.6533 0.48 33.92 0.48C34.176 0.48 34.3947 0.565333 34.576 0.735999C34.7573 0.906666 34.848 1.12 34.848 1.376C34.848 1.64267 34.7573 1.86667 34.576 2.048C34.3947 2.21867 34.176 2.304 33.92 2.304ZM33.248 12V4.064H34.592V12H33.248ZM36.9321 12V0.48H38.2761V12H36.9321Z" fill="#333333"/>
<path d="M47.36 6.24L47.632 3.952L45.824 5.344L45.072 4.064L47.2 3.2L45.088 2.384L45.776 1.136L47.648 2.528L47.344 0.223999H48.768L48.464 2.528L50.32 1.136L50.992 2.368L48.88 3.232L51.008 4.08L50.288 5.328L48.464 3.952L48.752 6.24H47.36Z" fill="#E72D51"/>
<rect x="0.5" y="20.5" width="255" height="39" rx="3.5" fill="white"/>
<rect x="0.5" y="20.5" width="255" height="39" rx="3.5" stroke="#E2E2E2"/>
<path d="M16.994 45V35.2H18.478V45H16.994ZM20.4107 45V38.056H21.7267L21.8387 39.274C22.0533 38.8447 22.366 38.5087 22.7767 38.266C23.1967 38.014 23.6773 37.888 24.2187 37.888C25.0587 37.888 25.7167 38.1493 26.1927 38.672C26.678 39.1947 26.9207 39.974 26.9207 41.01V45H25.4507V41.164C25.4507 39.82 24.9 39.148 23.7987 39.148C23.248 39.148 22.7907 39.344 22.4267 39.736C22.072 40.128 21.8947 40.688 21.8947 41.416V45H20.4107ZM31.5105 42.872C31.1465 42.872 30.8105 42.83 30.5025 42.746L29.9005 43.334C30.0031 43.3993 30.1291 43.4553 30.2785 43.502C30.4278 43.5487 30.6378 43.5907 30.9085 43.628C31.1791 43.6653 31.5478 43.7027 32.0145 43.74C32.9385 43.824 33.6058 44.048 34.0165 44.412C34.4271 44.7667 34.6325 45.2427 34.6325 45.84C34.6325 46.2507 34.5205 46.638 34.2965 47.002C34.0818 47.3753 33.7411 47.674 33.2745 47.898C32.8171 48.1313 32.2291 48.248 31.5105 48.248C30.5398 48.248 29.7511 48.0613 29.1445 47.688C28.5471 47.324 28.2485 46.7687 28.2485 46.022C28.2485 45.7327 28.3231 45.4433 28.4725 45.154C28.6311 44.874 28.8785 44.608 29.2145 44.356C29.0185 44.272 28.8458 44.1833 28.6965 44.09C28.5565 43.9873 28.4305 43.8847 28.3185 43.782V43.446L29.5225 42.214C28.9811 41.7473 28.7105 41.136 28.7105 40.38C28.7105 39.9227 28.8178 39.5073 29.0325 39.134C29.2565 38.7513 29.5785 38.448 29.9985 38.224C30.4185 38 30.9225 37.888 31.5105 37.888C31.9025 37.888 32.2665 37.944 32.6025 38.056H35.1925V39.036L33.9605 39.106C34.1845 39.4887 34.2965 39.9133 34.2965 40.38C34.2965 40.8467 34.1845 41.2667 33.9605 41.64C33.7458 42.0133 33.4285 42.312 33.0085 42.536C32.5978 42.76 32.0985 42.872 31.5105 42.872ZM31.5105 41.71C31.9398 41.71 32.2851 41.598 32.5465 41.374C32.8171 41.1407 32.9525 40.814 32.9525 40.394C32.9525 39.9647 32.8171 39.638 32.5465 39.414C32.2851 39.19 31.9398 39.078 31.5105 39.078C31.0718 39.078 30.7171 39.19 30.4465 39.414C30.1851 39.638 30.0545 39.9647 30.0545 40.394C30.0545 40.814 30.1851 41.1407 30.4465 41.374C30.7171 41.598 31.0718 41.71 31.5105 41.71ZM29.6485 45.882C29.6485 46.2833 29.8258 46.582 30.1805 46.778C30.5351 46.9833 30.9785 47.086 31.5105 47.086C32.0238 47.086 32.4391 46.974 32.7565 46.75C33.0738 46.5353 33.2325 46.246 33.2325 45.882C33.2325 45.6113 33.1251 45.378 32.9105 45.182C32.6958 44.9953 32.2898 44.8787 31.6925 44.832C31.2445 44.804 30.8478 44.762 30.5025 44.706C30.1758 44.8833 29.9518 45.0747 29.8305 45.28C29.7091 45.4853 29.6485 45.686 29.6485 45.882ZM36.5161 45V38.056H37.8461L37.9721 39.372C38.2148 38.9147 38.5508 38.5553 38.9801 38.294C39.4188 38.0233 39.9461 37.888 40.5621 37.888V39.442H40.1561C39.7455 39.442 39.3768 39.512 39.0501 39.652C38.7328 39.7827 38.4761 40.0113 38.2801 40.338C38.0935 40.6553 38.0001 41.0987 38.0001 41.668V45H36.5161ZM44.8911 45.168C44.2097 45.168 43.6031 45.0187 43.0711 44.72C42.5484 44.412 42.1377 43.9873 41.8391 43.446C41.5404 42.9047 41.3911 42.2747 41.3911 41.556C41.3911 40.828 41.5357 40.1887 41.8251 39.638C42.1237 39.0873 42.5344 38.658 43.0571 38.35C43.5891 38.042 44.2051 37.888 44.9051 37.888C45.5864 37.888 46.1791 38.042 46.6831 38.35C47.1871 38.6487 47.5791 39.05 47.8591 39.554C48.1391 40.058 48.2791 40.6133 48.2791 41.22C48.2791 41.3133 48.2744 41.416 48.2651 41.528C48.2651 41.6307 48.2604 41.7473 48.2511 41.878H42.8471C42.8937 42.55 43.1131 43.0633 43.5051 43.418C43.9064 43.7633 44.3684 43.936 44.8911 43.936C45.3111 43.936 45.6611 43.8427 45.9411 43.656C46.2304 43.46 46.4451 43.1987 46.5851 42.872H48.0691C47.8824 43.5253 47.5091 44.0713 46.9491 44.51C46.3984 44.9487 45.7124 45.168 44.8911 45.168ZM44.8911 39.106C44.3964 39.106 43.9577 39.2553 43.5751 39.554C43.1924 39.8433 42.9591 40.282 42.8751 40.87H46.7951C46.7671 40.3287 46.5757 39.8993 46.2211 39.582C45.8664 39.2647 45.4231 39.106 44.8911 39.106ZM52.5909 45.168C51.7135 45.168 50.9902 44.9533 50.4209 44.524C49.8515 44.0947 49.5249 43.5253 49.4409 42.816H50.9389C51.0135 43.1333 51.1909 43.4087 51.4709 43.642C51.7509 43.866 52.1195 43.978 52.5769 43.978C53.0249 43.978 53.3515 43.8847 53.5569 43.698C53.7622 43.5113 53.8649 43.2967 53.8649 43.054C53.8649 42.6993 53.7202 42.4613 53.4309 42.34C53.1509 42.2093 52.7589 42.0927 52.2549 41.99C51.8629 41.906 51.4709 41.794 51.0789 41.654C50.6962 41.514 50.3742 41.318 50.1129 41.066C49.8609 40.8047 49.7349 40.4547 49.7349 40.016C49.7349 39.4093 49.9682 38.9053 50.4349 38.504C50.9015 38.0933 51.5549 37.888 52.3949 37.888C53.1695 37.888 53.7949 38.0747 54.2709 38.448C54.7562 38.8213 55.0409 39.3487 55.1249 40.03H53.6969C53.6502 39.7313 53.5102 39.498 53.2769 39.33C53.0529 39.162 52.7495 39.078 52.3669 39.078C51.9935 39.078 51.7042 39.1573 51.4989 39.316C51.2935 39.4653 51.1909 39.6613 51.1909 39.904C51.1909 40.1467 51.3309 40.338 51.6109 40.478C51.9002 40.618 52.2782 40.744 52.7449 40.856C53.2115 40.9587 53.6409 41.08 54.0329 41.22C54.4342 41.3507 54.7562 41.5467 54.9989 41.808C55.2415 42.0693 55.3629 42.452 55.3629 42.956C55.3722 43.5907 55.1249 44.118 54.6209 44.538C54.1262 44.958 53.4495 45.168 52.5909 45.168ZM60.2309 45.168C59.5496 45.168 58.9429 45.0187 58.4109 44.72C57.8883 44.412 57.4776 43.9873 57.1789 43.446C56.8803 42.9047 56.7309 42.2747 56.7309 41.556C56.7309 40.828 56.8756 40.1887 57.1649 39.638C57.4636 39.0873 57.8743 38.658 58.3969 38.35C58.9289 38.042 59.5449 37.888 60.2449 37.888C60.9263 37.888 61.5189 38.042 62.0229 38.35C62.5269 38.6487 62.9189 39.05 63.1989 39.554C63.4789 40.058 63.6189 40.6133 63.6189 41.22C63.6189 41.3133 63.6143 41.416 63.6049 41.528C63.6049 41.6307 63.6003 41.7473 63.5909 41.878H58.1869C58.2336 42.55 58.4529 43.0633 58.8449 43.418C59.2463 43.7633 59.7083 43.936 60.2309 43.936C60.6509 43.936 61.0009 43.8427 61.2809 43.656C61.5703 43.46 61.7849 43.1987 61.9249 42.872H63.4089C63.2223 43.5253 62.8489 44.0713 62.2889 44.51C61.7383 44.9487 61.0523 45.168 60.2309 45.168ZM60.2309 39.106C59.7363 39.106 59.2976 39.2553 58.9149 39.554C58.5323 39.8433 58.2989 40.282 58.2149 40.87H62.1349C62.1069 40.3287 61.9156 39.8993 61.5609 39.582C61.2063 39.2647 60.7629 39.106 60.2309 39.106ZM71.458 45.168C70.5807 45.168 69.8574 44.9533 69.288 44.524C68.7187 44.0947 68.392 43.5253 68.308 42.816H69.806C69.8807 43.1333 70.058 43.4087 70.338 43.642C70.618 43.866 70.9867 43.978 71.444 43.978C71.892 43.978 72.2187 43.8847 72.424 43.698C72.6294 43.5113 72.732 43.2967 72.732 43.054C72.732 42.6993 72.5874 42.4613 72.298 42.34C72.018 42.2093 71.626 42.0927 71.122 41.99C70.73 41.906 70.338 41.794 69.946 41.654C69.5634 41.514 69.2414 41.318 68.98 41.066C68.728 40.8047 68.602 40.4547 68.602 40.016C68.602 39.4093 68.8354 38.9053 69.302 38.504C69.7687 38.0933 70.422 37.888 71.262 37.888C72.0367 37.888 72.662 38.0747 73.138 38.448C73.6234 38.8213 73.908 39.3487 73.992 40.03H72.564C72.5174 39.7313 72.3774 39.498 72.144 39.33C71.92 39.162 71.6167 39.078 71.234 39.078C70.8607 39.078 70.5714 39.1573 70.366 39.316C70.1607 39.4653 70.058 39.6613 70.058 39.904C70.058 40.1467 70.198 40.338 70.478 40.478C70.7674 40.618 71.1454 40.744 71.612 40.856C72.0787 40.9587 72.508 41.08 72.9 41.22C73.3014 41.3507 73.6234 41.5467 73.866 41.808C74.1087 42.0693 74.23 42.452 74.23 42.956C74.2394 43.5907 73.992 44.118 73.488 44.538C72.9934 44.958 72.3167 45.168 71.458 45.168ZM78.4121 45.168C77.5721 45.168 76.9094 44.9067 76.4241 44.384C75.9481 43.8613 75.7101 43.082 75.7101 42.046V38.056H77.1941V41.892C77.1941 43.236 77.7448 43.908 78.8461 43.908C79.3968 43.908 79.8494 43.712 80.2041 43.32C80.5588 42.928 80.7361 42.368 80.7361 41.64V38.056H82.2201V45H80.9041L80.7921 43.782C80.5774 44.2113 80.2601 44.552 79.8401 44.804C79.4294 45.0467 78.9534 45.168 78.4121 45.168ZM90.9253 45.168C90.2439 45.168 89.6326 45.014 89.0913 44.706C88.5593 44.398 88.1393 43.9733 87.8313 43.432C87.5326 42.8813 87.3833 42.2467 87.3833 41.528C87.3833 40.8093 87.5326 40.1793 87.8313 39.638C88.1393 39.0873 88.5593 38.658 89.0913 38.35C89.6326 38.042 90.2439 37.888 90.9253 37.888C91.7839 37.888 92.5026 38.112 93.0813 38.56C93.6693 39.008 94.0473 39.6147 94.2153 40.38H92.6613C92.5679 39.9973 92.3626 39.6987 92.0453 39.484C91.7279 39.2693 91.3546 39.162 90.9253 39.162C90.5613 39.162 90.2253 39.2553 89.9173 39.442C89.6093 39.6193 89.3619 39.8853 89.1753 40.24C88.9886 40.5853 88.8953 41.0147 88.8953 41.528C88.8953 42.0413 88.9886 42.4753 89.1753 42.83C89.3619 43.1753 89.6093 43.4413 89.9173 43.628C90.2253 43.8147 90.5613 43.908 90.9253 43.908C91.3546 43.908 91.7279 43.8007 92.0453 43.586C92.3626 43.3713 92.5679 43.068 92.6613 42.676H94.2153C94.0566 43.4227 93.6833 44.0247 93.0953 44.482C92.5073 44.9393 91.7839 45.168 90.9253 45.168ZM99.0727 45.168C98.4101 45.168 97.8127 45.0187 97.2807 44.72C96.7581 44.412 96.3427 43.9873 96.0347 43.446C95.7267 42.8953 95.5727 42.256 95.5727 41.528C95.5727 40.8 95.7267 40.1653 96.0347 39.624C96.3521 39.0733 96.7767 38.6487 97.3087 38.35C97.8407 38.042 98.4334 37.888 99.0867 37.888C99.7494 37.888 100.342 38.042 100.865 38.35C101.397 38.6487 101.817 39.0733 102.125 39.624C102.442 40.1653 102.601 40.8 102.601 41.528C102.601 42.256 102.442 42.8953 102.125 43.446C101.817 43.9873 101.397 44.412 100.865 44.72C100.333 45.0187 99.7354 45.168 99.0727 45.168ZM99.0727 43.894C99.4274 43.894 99.7541 43.8053 100.053 43.628C100.361 43.4507 100.608 43.1893 100.795 42.844C100.981 42.4893 101.075 42.0507 101.075 41.528C101.075 41.0053 100.981 40.5713 100.795 40.226C100.617 39.8713 100.375 39.6053 100.067 39.428C99.7681 39.2507 99.4414 39.162 99.0867 39.162C98.7321 39.162 98.4007 39.2507 98.0927 39.428C97.7941 39.6053 97.5514 39.8713 97.3647 40.226C97.1781 40.5713 97.0847 41.0053 97.0847 41.528C97.0847 42.0507 97.1781 42.4893 97.3647 42.844C97.5514 43.1893 97.7941 43.4507 98.0927 43.628C98.3914 43.8053 98.7181 43.894 99.0727 43.894ZM104.206 45V38.056H105.536L105.662 39.372C105.904 38.9147 106.24 38.5553 106.67 38.294C107.108 38.0233 107.636 37.888 108.252 37.888V39.442H107.846C107.435 39.442 107.066 39.512 106.74 39.652C106.422 39.7827 106.166 40.0113 105.97 40.338C105.783 40.6553 105.69 41.0987 105.69 41.668V45H104.206ZM109.524 45V38.056H110.854L110.98 39.372C111.223 38.9147 111.559 38.5553 111.988 38.294C112.427 38.0233 112.954 37.888 113.57 37.888V39.442H113.164C112.753 39.442 112.385 39.512 112.058 39.652C111.741 39.7827 111.484 40.0113 111.288 40.338C111.101 40.6553 111.008 41.0987 111.008 41.668V45H109.524ZM117.899 45.168C117.218 45.168 116.611 45.0187 116.079 44.72C115.556 44.412 115.146 43.9873 114.847 43.446C114.548 42.9047 114.399 42.2747 114.399 41.556C114.399 40.828 114.544 40.1887 114.833 39.638C115.132 39.0873 115.542 38.658 116.065 38.35C116.597 38.042 117.213 37.888 117.913 37.888C118.594 37.888 119.187 38.042 119.691 38.35C120.195 38.6487 120.587 39.05 120.867 39.554C121.147 40.058 121.287 40.6133 121.287 41.22C121.287 41.3133 121.282 41.416 121.273 41.528C121.273 41.6307 121.268 41.7473 121.259 41.878H115.855C115.902 42.55 116.121 43.0633 116.513 43.418C116.914 43.7633 117.376 43.936 117.899 43.936C118.319 43.936 118.669 43.8427 118.949 43.656C119.238 43.46 119.453 43.1987 119.593 42.872H121.077C120.89 43.5253 120.517 44.0713 119.957 44.51C119.406 44.9487 118.72 45.168 117.899 45.168ZM117.899 39.106C117.404 39.106 116.966 39.2553 116.583 39.554C116.2 39.8433 115.967 40.282 115.883 40.87H119.803C119.775 40.3287 119.584 39.8993 119.229 39.582C118.874 39.2647 118.431 39.106 117.899 39.106ZM126.075 45.168C125.412 45.168 124.815 45.0187 124.283 44.72C123.76 44.412 123.345 43.9873 123.037 43.446C122.729 42.8953 122.575 42.256 122.575 41.528C122.575 40.8 122.729 40.1653 123.037 39.624C123.354 39.0733 123.779 38.6487 124.311 38.35C124.843 38.042 125.435 37.888 126.089 37.888C126.751 37.888 127.344 38.042 127.867 38.35C128.399 38.6487 128.819 39.0733 129.127 39.624C129.444 40.1653 129.603 40.8 129.603 41.528C129.603 42.256 129.444 42.8953 129.127 43.446C128.819 43.9873 128.399 44.412 127.867 44.72C127.335 45.0187 126.737 45.168 126.075 45.168ZM126.075 43.894C126.429 43.894 126.756 43.8053 127.055 43.628C127.363 43.4507 127.61 43.1893 127.797 42.844C127.983 42.4893 128.077 42.0507 128.077 41.528C128.077 41.0053 127.983 40.5713 127.797 40.226C127.619 39.8713 127.377 39.6053 127.069 39.428C126.77 39.2507 126.443 39.162 126.089 39.162C125.734 39.162 125.403 39.2507 125.095 39.428C124.796 39.6053 124.553 39.8713 124.367 40.226C124.18 40.5713 124.087 41.0053 124.087 41.528C124.087 42.0507 124.18 42.4893 124.367 42.844C124.553 43.1893 124.796 43.4507 125.095 43.628C125.393 43.8053 125.72 43.894 126.075 43.894ZM137.983 45.168C137.302 45.168 136.695 45.0187 136.163 44.72C135.64 44.412 135.23 43.9873 134.931 43.446C134.632 42.9047 134.483 42.2747 134.483 41.556C134.483 40.828 134.628 40.1887 134.917 39.638C135.216 39.0873 135.626 38.658 136.149 38.35C136.681 38.042 137.297 37.888 137.997 37.888C138.678 37.888 139.271 38.042 139.775 38.35C140.279 38.6487 140.671 39.05 140.951 39.554C141.231 40.058 141.371 40.6133 141.371 41.22C141.371 41.3133 141.366 41.416 141.357 41.528C141.357 41.6307 141.352 41.7473 141.343 41.878H135.939C135.986 42.55 136.205 43.0633 136.597 43.418C136.998 43.7633 137.46 43.936 137.983 43.936C138.403 43.936 138.753 43.8427 139.033 43.656C139.322 43.46 139.537 43.1987 139.677 42.872H141.161C140.974 43.5253 140.601 44.0713 140.041 44.51C139.49 44.9487 138.804 45.168 137.983 45.168ZM137.983 39.106C137.488 39.106 137.05 39.2553 136.667 39.554C136.284 39.8433 136.051 40.282 135.967 40.87H139.887C139.859 40.3287 139.668 39.8993 139.313 39.582C138.958 39.2647 138.515 39.106 137.983 39.106ZM142.911 45V34.92H144.395V45H142.911ZM149.522 45.168C148.841 45.168 148.234 45.0187 147.702 44.72C147.179 44.412 146.769 43.9873 146.47 43.446C146.171 42.9047 146.022 42.2747 146.022 41.556C146.022 40.828 146.167 40.1887 146.456 39.638C146.755 39.0873 147.165 38.658 147.688 38.35C148.22 38.042 148.836 37.888 149.536 37.888C150.217 37.888 150.81 38.042 151.314 38.35C151.818 38.6487 152.21 39.05 152.49 39.554C152.77 40.058 152.91 40.6133 152.91 41.22C152.91 41.3133 152.905 41.416 152.896 41.528C152.896 41.6307 152.891 41.7473 152.882 41.878H147.478C147.525 42.55 147.744 43.0633 148.136 43.418C148.537 43.7633 148.999 43.936 149.522 43.936C149.942 43.936 150.292 43.8427 150.572 43.656C150.861 43.46 151.076 43.1987 151.216 42.872H152.7C152.513 43.5253 152.14 44.0713 151.58 44.51C151.029 44.9487 150.343 45.168 149.522 45.168ZM149.522 39.106C149.027 39.106 148.589 39.2553 148.206 39.554C147.823 39.8433 147.59 40.282 147.506 40.87H151.426C151.398 40.3287 151.207 39.8993 150.852 39.582C150.497 39.2647 150.054 39.106 149.522 39.106ZM157.74 45.168C157.058 45.168 156.447 45.014 155.906 44.706C155.374 44.398 154.954 43.9733 154.646 43.432C154.347 42.8813 154.198 42.2467 154.198 41.528C154.198 40.8093 154.347 40.1793 154.646 39.638C154.954 39.0873 155.374 38.658 155.906 38.35C156.447 38.042 157.058 37.888 157.74 37.888C158.598 37.888 159.317 38.112 159.896 38.56C160.484 39.008 160.862 39.6147 161.03 40.38H159.476C159.382 39.9973 159.177 39.6987 158.86 39.484C158.542 39.2693 158.169 39.162 157.74 39.162C157.376 39.162 157.04 39.2553 156.732 39.442C156.424 39.6193 156.176 39.8853 155.99 40.24C155.803 40.5853 155.71 41.0147 155.71 41.528C155.71 42.0413 155.803 42.4753 155.99 42.83C156.176 43.1753 156.424 43.4413 156.732 43.628C157.04 43.8147 157.376 43.908 157.74 43.908C158.169 43.908 158.542 43.8007 158.86 43.586C159.177 43.3713 159.382 43.068 159.476 42.676H161.03C160.871 43.4227 160.498 44.0247 159.91 44.482C159.322 44.9393 158.598 45.168 157.74 45.168ZM165.414 45C164.733 45 164.192 44.8367 163.79 44.51C163.389 44.174 163.188 43.5813 163.188 42.732V39.302H161.998V38.056H163.188L163.37 36.292H164.672V38.056H166.632V39.302H164.672V42.732C164.672 43.1147 164.752 43.3807 164.91 43.53C165.078 43.67 165.363 43.74 165.764 43.74H166.562V45H165.414ZM168.163 45V38.056H169.493L169.619 39.372C169.861 38.9147 170.197 38.5553 170.627 38.294C171.065 38.0233 171.593 37.888 172.209 37.888V39.442H171.803C171.392 39.442 171.023 39.512 170.697 39.652C170.379 39.7827 170.123 40.0113 169.927 40.338C169.74 40.6553 169.647 41.0987 169.647 41.668V45H168.163ZM176.538 45.168C175.875 45.168 175.278 45.0187 174.746 44.72C174.223 44.412 173.808 43.9873 173.5 43.446C173.192 42.8953 173.038 42.256 173.038 41.528C173.038 40.8 173.192 40.1653 173.5 39.624C173.817 39.0733 174.242 38.6487 174.774 38.35C175.306 38.042 175.898 37.888 176.552 37.888C177.214 37.888 177.807 38.042 178.33 38.35C178.862 38.6487 179.282 39.0733 179.59 39.624C179.907 40.1653 180.066 40.8 180.066 41.528C180.066 42.256 179.907 42.8953 179.59 43.446C179.282 43.9873 178.862 44.412 178.33 44.72C177.798 45.0187 177.2 45.168 176.538 45.168ZM176.538 43.894C176.892 43.894 177.219 43.8053 177.518 43.628C177.826 43.4507 178.073 43.1893 178.26 42.844C178.446 42.4893 178.54 42.0507 178.54 41.528C178.54 41.0053 178.446 40.5713 178.26 40.226C178.082 39.8713 177.84 39.6053 177.532 39.428C177.233 39.2507 176.906 39.162 176.552 39.162C176.197 39.162 175.866 39.2507 175.558 39.428C175.259 39.6053 175.016 39.8713 174.83 40.226C174.643 40.5713 174.55 41.0053 174.55 41.528C174.55 42.0507 174.643 42.4893 174.83 42.844C175.016 43.1893 175.259 43.4507 175.558 43.628C175.856 43.8053 176.183 43.894 176.538 43.894ZM176.16 37.482V36.418L179.212 34.682V35.914L176.16 37.482ZM181.67 45V38.056H182.986L183.098 39.274C183.313 38.8447 183.626 38.5087 184.036 38.266C184.456 38.014 184.937 37.888 185.478 37.888C186.318 37.888 186.976 38.1493 187.452 38.672C187.938 39.1947 188.18 39.974 188.18 41.01V45H186.71V41.164C186.71 39.82 186.16 39.148 185.058 39.148C184.508 39.148 184.05 39.344 183.686 39.736C183.332 40.128 183.154 40.688 183.154 41.416V45H181.67ZM190.768 36.74C190.488 36.74 190.255 36.656 190.068 36.488C189.891 36.3107 189.802 36.0913 189.802 35.83C189.802 35.5687 189.891 35.354 190.068 35.186C190.255 35.0087 190.488 34.92 190.768 34.92C191.048 34.92 191.277 35.0087 191.454 35.186C191.641 35.354 191.734 35.5687 191.734 35.83C191.734 36.0913 191.641 36.3107 191.454 36.488C191.277 36.656 191.048 36.74 190.768 36.74ZM190.026 45V38.056H191.51V45H190.026ZM196.759 45.168C196.078 45.168 195.467 45.014 194.925 44.706C194.393 44.398 193.973 43.9733 193.665 43.432C193.367 42.8813 193.217 42.2467 193.217 41.528C193.217 40.8093 193.367 40.1793 193.665 39.638C193.973 39.0873 194.393 38.658 194.925 38.35C195.467 38.042 196.078 37.888 196.759 37.888C197.618 37.888 198.337 38.112 198.915 38.56C199.503 39.008 199.881 39.6147 200.049 40.38H198.495C198.402 39.9973 198.197 39.6987 197.879 39.484C197.562 39.2693 197.189 39.162 196.759 39.162C196.395 39.162 196.059 39.2553 195.751 39.442C195.443 39.6193 195.196 39.8853 195.009 40.24C194.823 40.5853 194.729 41.0147 194.729 41.528C194.729 42.0413 194.823 42.4753 195.009 42.83C195.196 43.1753 195.443 43.4413 195.751 43.628C196.059 43.8147 196.395 43.908 196.759 43.908C197.189 43.908 197.562 43.8007 197.879 43.586C198.197 43.3713 198.402 43.068 198.495 42.676H200.049C199.891 43.4227 199.517 44.0247 198.929 44.482C198.341 44.9393 197.618 45.168 196.759 45.168ZM204.907 45.168C204.244 45.168 203.647 45.0187 203.115 44.72C202.592 44.412 202.177 43.9873 201.869 43.446C201.561 42.8953 201.407 42.256 201.407 41.528C201.407 40.8 201.561 40.1653 201.869 39.624C202.186 39.0733 202.611 38.6487 203.143 38.35C203.675 38.042 204.267 37.888 204.921 37.888C205.583 37.888 206.176 38.042 206.699 38.35C207.231 38.6487 207.651 39.0733 207.959 39.624C208.276 40.1653 208.435 40.8 208.435 41.528C208.435 42.256 208.276 42.8953 207.959 43.446C207.651 43.9873 207.231 44.412 206.699 44.72C206.167 45.0187 205.569 45.168 204.907 45.168ZM204.907 43.894C205.261 43.894 205.588 43.8053 205.887 43.628C206.195 43.4507 206.442 43.1893 206.629 42.844C206.815 42.4893 206.909 42.0507 206.909 41.528C206.909 41.0053 206.815 40.5713 206.629 40.226C206.451 39.8713 206.209 39.6053 205.901 39.428C205.602 39.2507 205.275 39.162 204.921 39.162C204.566 39.162 204.235 39.2507 203.927 39.428C203.628 39.6053 203.385 39.8713 203.199 40.226C203.012 40.5713 202.919 41.0053 202.919 41.528C202.919 42.0507 203.012 42.4893 203.199 42.844C203.385 43.1893 203.628 43.4507 203.927 43.628C204.225 43.8053 204.552 43.894 204.907 43.894ZM210.628 45.084C210.348 45.084 210.114 44.9953 209.928 44.818C209.75 44.6313 209.662 44.412 209.662 44.16C209.662 43.8987 209.75 43.6793 209.928 43.502C210.114 43.3153 210.348 43.222 210.628 43.222C210.908 43.222 211.136 43.3153 211.314 43.502C211.491 43.6793 211.58 43.8987 211.58 44.16C211.58 44.412 211.491 44.6313 211.314 44.818C211.136 44.9953 210.908 45.084 210.628 45.084ZM213.663 45.084C213.383 45.084 213.149 44.9953 212.963 44.818C212.785 44.6313 212.697 44.412 212.697 44.16C212.697 43.8987 212.785 43.6793 212.963 43.502C213.149 43.3153 213.383 43.222 213.663 43.222C213.943 43.222 214.171 43.3153 214.349 43.502C214.526 43.6793 214.615 43.8987 214.615 44.16C214.615 44.412 214.526 44.6313 214.349 44.818C214.171 44.9953 213.943 45.084 213.663 45.084ZM216.698 45.084C216.418 45.084 216.185 44.9953 215.998 44.818C215.821 44.6313 215.732 44.412 215.732 44.16C215.732 43.8987 215.821 43.6793 215.998 43.502C216.185 43.3153 216.418 43.222 216.698 43.222C216.978 43.222 217.207 43.3153 217.384 43.502C217.561 43.6793 217.65 43.8987 217.65 44.16C217.65 44.412 217.561 44.6313 217.384 44.818C217.207 44.9953 216.978 45.084 216.698 45.084Z" fill="#616161"/>
<path d="M4.04145 71C4.81125 69.6667 6.73575 69.6667 7.50555 71L9.81495 75C10.5848 76.3333 9.6225 78 8.0829 78H3.4641C1.9245 78 0.96225 76.3333 1.73205 75L4.04145 71Z" fill="#E72D51"/>
<path d="M26.119 78.144C25.295 78.144 24.583 77.964 23.983 77.604C23.391 77.236 22.931 76.728 22.603 76.08C22.275 75.424 22.111 74.664 22.111 73.8C22.111 72.944 22.275 72.192 22.603 71.544C22.931 70.888 23.391 70.376 23.983 70.008C24.583 69.64 25.295 69.456 26.119 69.456C27.079 69.456 27.859 69.688 28.459 70.152C29.067 70.608 29.455 71.248 29.623 72.072H28.507C28.379 71.552 28.115 71.136 27.715 70.824C27.323 70.504 26.791 70.344 26.119 70.344C25.519 70.344 24.995 70.484 24.547 70.764C24.099 71.036 23.751 71.432 23.503 71.952C23.263 72.464 23.143 73.08 23.143 73.8C23.143 74.52 23.263 75.14 23.503 75.66C23.751 76.172 24.099 76.568 24.547 76.848C24.995 77.12 25.519 77.256 26.119 77.256C26.791 77.256 27.323 77.104 27.715 76.8C28.115 76.488 28.379 76.076 28.507 75.564H29.623C29.455 76.372 29.067 77.004 28.459 77.46C27.859 77.916 27.079 78.144 26.119 78.144ZM33.7237 78.144C33.1637 78.144 32.6597 78.016 32.2117 77.76C31.7637 77.504 31.4077 77.144 31.1437 76.68C30.8877 76.208 30.7597 75.656 30.7597 75.024C30.7597 74.392 30.8917 73.844 31.1557 73.38C31.4197 72.908 31.7757 72.544 32.2237 72.288C32.6797 72.032 33.1877 71.904 33.7477 71.904C34.3077 71.904 34.8117 72.032 35.2597 72.288C35.7077 72.544 36.0597 72.908 36.3157 73.38C36.5797 73.844 36.7117 74.392 36.7117 75.024C36.7117 75.656 36.5797 76.208 36.3157 76.68C36.0517 77.144 35.6917 77.504 35.2357 77.76C34.7877 78.016 34.2837 78.144 33.7237 78.144ZM33.7237 77.28C34.0677 77.28 34.3877 77.196 34.6837 77.028C34.9797 76.86 35.2197 76.608 35.4037 76.272C35.5877 75.936 35.6797 75.52 35.6797 75.024C35.6797 74.528 35.5877 74.112 35.4037 73.776C35.2277 73.44 34.9917 73.188 34.6957 73.02C34.3997 72.852 34.0837 72.768 33.7477 72.768C33.4037 72.768 33.0837 72.852 32.7877 73.02C32.4917 73.188 32.2517 73.44 32.0677 73.776C31.8837 74.112 31.7917 74.528 31.7917 75.024C31.7917 75.52 31.8837 75.936 32.0677 76.272C32.2517 76.608 32.4877 76.86 32.7757 77.028C33.0717 77.196 33.3877 77.28 33.7237 77.28ZM38.1133 78V72.048H39.0253L39.0853 73.116C39.2773 72.74 39.5533 72.444 39.9133 72.228C40.2733 72.012 40.6813 71.904 41.1373 71.904C41.8413 71.904 42.4013 72.12 42.8173 72.552C43.2413 72.976 43.4533 73.632 43.4533 74.52V78H42.4453V74.628C42.4453 73.388 41.9333 72.768 40.9093 72.768C40.3973 72.768 39.9693 72.956 39.6253 73.332C39.2893 73.7 39.1213 74.228 39.1213 74.916V78H38.1133ZM50.8322 78.144C50.2642 78.144 49.7602 78.016 49.3202 77.76C48.8802 77.496 48.5322 77.132 48.2762 76.668C48.0282 76.204 47.9042 75.656 47.9042 75.024C47.9042 74.4 48.0282 73.856 48.2762 73.392C48.5242 72.92 48.8682 72.556 49.3082 72.3C49.7562 72.036 50.2722 71.904 50.8562 71.904C51.4322 71.904 51.9282 72.036 52.3442 72.3C52.7682 72.556 53.0922 72.896 53.3162 73.32C53.5402 73.744 53.6522 74.2 53.6522 74.688C53.6522 74.776 53.6482 74.864 53.6402 74.952C53.6402 75.04 53.6402 75.14 53.6402 75.252H48.9002C48.9242 75.708 49.0282 76.088 49.2122 76.392C49.4042 76.688 49.6402 76.912 49.9202 77.064C50.2082 77.216 50.5122 77.292 50.8322 77.292C51.2482 77.292 51.5962 77.196 51.8762 77.004C52.1562 76.812 52.3602 76.552 52.4882 76.224H53.4842C53.3242 76.776 53.0162 77.236 52.5602 77.604C52.1122 77.964 51.5362 78.144 50.8322 78.144ZM50.8322 72.756C50.3522 72.756 49.9242 72.904 49.5482 73.2C49.1802 73.488 48.9682 73.912 48.9122 74.472H52.6562C52.6322 73.936 52.4482 73.516 52.1042 73.212C51.7602 72.908 51.3362 72.756 50.8322 72.756ZM54.9883 78V69.36H55.9963V78H54.9883ZM65.7082 80.64V77.016C65.5162 77.304 65.2402 77.564 64.8802 77.796C64.5202 78.028 64.0682 78.144 63.5242 78.144C62.9322 78.144 62.4122 78.008 61.9642 77.736C61.5242 77.464 61.1802 77.092 60.9322 76.62C60.6922 76.148 60.5722 75.612 60.5722 75.012C60.5722 74.412 60.6962 73.88 60.9442 73.416C61.1922 72.944 61.5362 72.576 61.9762 72.312C62.4162 72.04 62.9362 71.904 63.5362 71.904C64.0242 71.904 64.4562 72.004 64.8322 72.204C65.2082 72.404 65.5002 72.684 65.7082 73.044L65.8042 72.048H66.7162V80.64H65.7082ZM63.6322 77.268C64.0322 77.268 64.3842 77.176 64.6882 76.992C65.0002 76.8 65.2402 76.536 65.4082 76.2C65.5842 75.864 65.6722 75.472 65.6722 75.024C65.6722 74.576 65.5842 74.184 65.4082 73.848C65.2402 73.512 65.0002 73.252 64.6882 73.068C64.3842 72.876 64.0322 72.78 63.6322 72.78C63.2402 72.78 62.8882 72.876 62.5762 73.068C62.2722 73.252 62.0322 73.512 61.8562 73.848C61.6882 74.184 61.6042 74.576 61.6042 75.024C61.6042 75.472 61.6882 75.864 61.8562 76.2C62.0322 76.536 62.2722 76.8 62.5762 76.992C62.8882 77.176 63.2402 77.268 63.6322 77.268ZM70.5314 78.144C69.8274 78.144 69.2674 77.932 68.8514 77.508C68.4354 77.076 68.2274 76.416 68.2274 75.528V72.048H69.2354V75.42C69.2354 76.66 69.7434 77.28 70.7594 77.28C71.2794 77.28 71.7074 77.096 72.0434 76.728C72.3874 76.352 72.5594 75.82 72.5594 75.132V72.048H73.5674V78H72.6554L72.5834 76.932C72.3994 77.308 72.1234 77.604 71.7554 77.82C71.3954 78.036 70.9874 78.144 70.5314 78.144ZM77.9026 78.144C77.3346 78.144 76.8306 78.016 76.3906 77.76C75.9506 77.496 75.6026 77.132 75.3466 76.668C75.0986 76.204 74.9746 75.656 74.9746 75.024C74.9746 74.4 75.0986 73.856 75.3466 73.392C75.5946 72.92 75.9386 72.556 76.3786 72.3C76.8266 72.036 77.3426 71.904 77.9266 71.904C78.5026 71.904 78.9986 72.036 79.4146 72.3C79.8386 72.556 80.1626 72.896 80.3866 73.32C80.6106 73.744 80.7226 74.2 80.7226 74.688C80.7226 74.776 80.7186 74.864 80.7106 74.952C80.7106 75.04 80.7106 75.14 80.7106 75.252H75.9706C75.9946 75.708 76.0986 76.088 76.2826 76.392C76.4746 76.688 76.7106 76.912 76.9906 77.064C77.2786 77.216 77.5826 77.292 77.9026 77.292C78.3186 77.292 78.6666 77.196 78.9466 77.004C79.2266 76.812 79.4306 76.552 79.5586 76.224H80.5546C80.3946 76.776 80.0866 77.236 79.6306 77.604C79.1826 77.964 78.6066 78.144 77.9026 78.144ZM77.9026 72.756C77.4226 72.756 76.9946 72.904 76.6186 73.2C76.2506 73.488 76.0386 73.912 75.9826 74.472H79.7266C79.7026 73.936 79.5186 73.516 79.1746 73.212C78.8306 72.908 78.4066 72.756 77.9026 72.756ZM87.5144 78.144C86.8024 78.144 86.2104 77.964 85.7384 77.604C85.2664 77.244 84.9904 76.756 84.9104 76.14H85.9424C86.0064 76.452 86.1704 76.724 86.4344 76.956C86.7064 77.18 87.0704 77.292 87.5264 77.292C87.9504 77.292 88.2624 77.204 88.4624 77.028C88.6624 76.844 88.7624 76.628 88.7624 76.38C88.7624 76.02 88.6304 75.78 88.3664 75.66C88.1104 75.54 87.7464 75.432 87.2744 75.336C86.9544 75.272 86.6344 75.18 86.3144 75.06C85.9944 74.94 85.7264 74.772 85.5104 74.556C85.2944 74.332 85.1864 74.04 85.1864 73.68C85.1864 73.16 85.3784 72.736 85.7624 72.408C86.1544 72.072 86.6824 71.904 87.3464 71.904C87.9784 71.904 88.4944 72.064 88.8944 72.384C89.3024 72.696 89.5384 73.144 89.6024 73.728H88.6064C88.5664 73.424 88.4344 73.188 88.2104 73.02C87.9944 72.844 87.7024 72.756 87.3344 72.756C86.9744 72.756 86.6944 72.832 86.4944 72.984C86.3024 73.136 86.2064 73.336 86.2064 73.584C86.2064 73.824 86.3304 74.012 86.5784 74.148C86.8344 74.284 87.1784 74.4 87.6104 74.496C87.9784 74.576 88.3264 74.676 88.6544 74.796C88.9904 74.908 89.2624 75.08 89.4704 75.312C89.6864 75.536 89.7944 75.864 89.7944 76.296C89.8024 76.832 89.5984 77.276 89.1824 77.628C88.7744 77.972 88.2184 78.144 87.5144 78.144ZM93.9104 78.144C93.3424 78.144 92.8384 78.016 92.3984 77.76C91.9584 77.496 91.6104 77.132 91.3544 76.668C91.1064 76.204 90.9824 75.656 90.9824 75.024C90.9824 74.4 91.1064 73.856 91.3544 73.392C91.6024 72.92 91.9464 72.556 92.3864 72.3C92.8344 72.036 93.3504 71.904 93.9344 71.904C94.5104 71.904 95.0064 72.036 95.4224 72.3C95.8464 72.556 96.1704 72.896 96.3944 73.32C96.6184 73.744 96.7304 74.2 96.7304 74.688C96.7304 74.776 96.7264 74.864 96.7184 74.952C96.7184 75.04 96.7184 75.14 96.7184 75.252H91.9784C92.0024 75.708 92.1064 76.088 92.2904 76.392C92.4824 76.688 92.7184 76.912 92.9984 77.064C93.2864 77.216 93.5904 77.292 93.9104 77.292C94.3264 77.292 94.6744 77.196 94.9544 77.004C95.2344 76.812 95.4384 76.552 95.5664 76.224H96.5624C96.4024 76.776 96.0944 77.236 95.6384 77.604C95.1904 77.964 94.6144 78.144 93.9104 78.144ZM93.9104 72.756C93.4304 72.756 93.0024 72.904 92.6264 73.2C92.2584 73.488 92.0464 73.912 91.9904 74.472H95.7344C95.7104 73.936 95.5264 73.516 95.1824 73.212C94.8384 72.908 94.4144 72.756 93.9104 72.756ZM103.942 78.144C103.35 78.144 102.83 78.008 102.382 77.736C101.942 77.464 101.598 77.092 101.35 76.62C101.11 76.148 100.99 75.612 100.99 75.012C100.99 74.412 101.114 73.88 101.362 73.416C101.61 72.944 101.954 72.576 102.394 72.312C102.834 72.04 103.354 71.904 103.954 71.904C104.442 71.904 104.874 72.004 105.25 72.204C105.626 72.404 105.918 72.684 106.126 73.044V69.36H107.134V78H106.222L106.126 77.016C105.934 77.304 105.658 77.564 105.298 77.796C104.938 78.028 104.486 78.144 103.942 78.144ZM104.05 77.268C104.45 77.268 104.802 77.176 105.106 76.992C105.418 76.8 105.658 76.536 105.826 76.2C106.002 75.864 106.09 75.472 106.09 75.024C106.09 74.576 106.002 74.184 105.826 73.848C105.658 73.512 105.418 73.252 105.106 73.068C104.802 72.876 104.45 72.78 104.05 72.78C103.658 72.78 103.306 72.876 102.994 73.068C102.69 73.252 102.45 73.512 102.274 73.848C102.106 74.184 102.022 74.576 102.022 75.024C102.022 75.472 102.106 75.864 102.274 76.2C102.45 76.536 102.69 76.8 102.994 76.992C103.306 77.176 103.658 77.268 104.05 77.268ZM109.389 70.728C109.189 70.728 109.021 70.664 108.885 70.536C108.757 70.4 108.693 70.232 108.693 70.032C108.693 69.84 108.757 69.68 108.885 69.552C109.021 69.424 109.189 69.36 109.389 69.36C109.581 69.36 109.745 69.424 109.881 69.552C110.017 69.68 110.085 69.84 110.085 70.032C110.085 70.232 110.017 70.4 109.881 70.536C109.745 70.664 109.581 70.728 109.389 70.728ZM108.885 78V72.048H109.893V78H108.885ZM114.36 78.144C113.8 78.144 113.296 78.016 112.848 77.76C112.4 77.504 112.044 77.144 111.78 76.68C111.524 76.208 111.396 75.656 111.396 75.024C111.396 74.392 111.528 73.844 111.792 73.38C112.056 72.908 112.412 72.544 112.86 72.288C113.316 72.032 113.824 71.904 114.384 71.904C114.944 71.904 115.448 72.032 115.896 72.288C116.344 72.544 116.696 72.908 116.952 73.38C117.216 73.844 117.348 74.392 117.348 75.024C117.348 75.656 117.216 76.208 116.952 76.68C116.688 77.144 116.328 77.504 115.872 77.76C115.424 78.016 114.92 78.144 114.36 78.144ZM114.36 77.28C114.704 77.28 115.024 77.196 115.32 77.028C115.616 76.86 115.856 76.608 116.04 76.272C116.224 75.936 116.316 75.52 116.316 75.024C116.316 74.528 116.224 74.112 116.04 73.776C115.864 73.44 115.628 73.188 115.332 73.02C115.036 72.852 114.72 72.768 114.384 72.768C114.04 72.768 113.72 72.852 113.424 73.02C113.128 73.188 112.888 73.44 112.704 73.776C112.52 74.112 112.428 74.528 112.428 75.024C112.428 75.52 112.52 75.936 112.704 76.272C112.888 76.608 113.124 76.86 113.412 77.028C113.708 77.196 114.024 77.28 114.36 77.28ZM124.626 78.144C124.034 78.144 123.514 78.008 123.066 77.736C122.626 77.464 122.282 77.092 122.034 76.62C121.794 76.148 121.674 75.612 121.674 75.012C121.674 74.412 121.798 73.88 122.046 73.416C122.294 72.944 122.638 72.576 123.078 72.312C123.518 72.04 124.038 71.904 124.638 71.904C125.126 71.904 125.558 72.004 125.934 72.204C126.31 72.404 126.602 72.684 126.81 73.044V69.36H127.818V78H126.906L126.81 77.016C126.618 77.304 126.342 77.564 125.982 77.796C125.622 78.028 125.17 78.144 124.626 78.144ZM124.734 77.268C125.134 77.268 125.486 77.176 125.79 76.992C126.102 76.8 126.342 76.536 126.51 76.2C126.686 75.864 126.774 75.472 126.774 75.024C126.774 74.576 126.686 74.184 126.51 73.848C126.342 73.512 126.102 73.252 125.79 73.068C125.486 72.876 125.134 72.78 124.734 72.78C124.342 72.78 123.99 72.876 123.678 73.068C123.374 73.252 123.134 73.512 122.958 73.848C122.79 74.184 122.706 74.576 122.706 75.024C122.706 75.472 122.79 75.864 122.958 76.2C123.134 76.536 123.374 76.8 123.678 76.992C123.99 77.176 124.342 77.268 124.734 77.268ZM132.137 78.144C131.569 78.144 131.065 78.016 130.625 77.76C130.185 77.496 129.837 77.132 129.581 76.668C129.333 76.204 129.209 75.656 129.209 75.024C129.209 74.4 129.333 73.856 129.581 73.392C129.829 72.92 130.173 72.556 130.613 72.3C131.061 72.036 131.577 71.904 132.161 71.904C132.737 71.904 133.233 72.036 133.649 72.3C134.073 72.556 134.397 72.896 134.621 73.32C134.845 73.744 134.957 74.2 134.957 74.688C134.957 74.776 134.953 74.864 134.945 74.952C134.945 75.04 134.945 75.14 134.945 75.252H130.205C130.229 75.708 130.333 76.088 130.517 76.392C130.709 76.688 130.945 76.912 131.225 77.064C131.513 77.216 131.817 77.292 132.137 77.292C132.553 77.292 132.901 77.196 133.181 77.004C133.461 76.812 133.665 76.552 133.793 76.224H134.789C134.629 76.776 134.321 77.236 133.865 77.604C133.417 77.964 132.841 78.144 132.137 78.144ZM132.137 72.756C131.657 72.756 131.229 72.904 130.853 73.2C130.485 73.488 130.273 73.912 130.217 74.472H133.961C133.937 73.936 133.753 73.516 133.409 73.212C133.065 72.908 132.641 72.756 132.137 72.756ZM141.449 78.144C140.953 78.144 140.541 78.06 140.213 77.892C139.885 77.724 139.641 77.5 139.481 77.22C139.321 76.94 139.241 76.636 139.241 76.308C139.241 75.7 139.473 75.232 139.937 74.904C140.401 74.576 141.033 74.412 141.833 74.412H143.441V74.34C143.441 73.82 143.305 73.428 143.033 73.164C142.761 72.892 142.397 72.756 141.941 72.756C141.549 72.756 141.209 72.856 140.921 73.056C140.641 73.248 140.465 73.532 140.393 73.908H139.361C139.401 73.476 139.545 73.112 139.793 72.816C140.049 72.52 140.365 72.296 140.741 72.144C141.117 71.984 141.517 71.904 141.941 71.904C142.773 71.904 143.397 72.128 143.813 72.576C144.237 73.016 144.449 73.604 144.449 74.34V78H143.549L143.489 76.932C143.321 77.268 143.073 77.556 142.745 77.796C142.425 78.028 141.993 78.144 141.449 78.144ZM141.605 77.292C141.989 77.292 142.317 77.192 142.589 76.992C142.869 76.792 143.081 76.532 143.225 76.212C143.369 75.892 143.441 75.556 143.441 75.204V75.192H141.917C141.325 75.192 140.905 75.296 140.657 75.504C140.417 75.704 140.297 75.956 140.297 76.26C140.297 76.572 140.409 76.824 140.633 77.016C140.865 77.2 141.189 77.292 141.605 77.292ZM145.961 78V69.36H146.969V78H145.961ZM150.973 78C150.429 78 150.001 77.868 149.689 77.604C149.377 77.34 149.221 76.864 149.221 76.176V72.9H148.189V72.048H149.221L149.353 70.62H150.229V72.048H151.981V72.9H150.229V76.176C150.229 76.552 150.305 76.808 150.457 76.944C150.609 77.072 150.877 77.136 151.261 77.136H151.885V78H150.973ZM155.242 78.144C154.746 78.144 154.334 78.06 154.006 77.892C153.678 77.724 153.434 77.5 153.274 77.22C153.114 76.94 153.034 76.636 153.034 76.308C153.034 75.7 153.266 75.232 153.73 74.904C154.194 74.576 154.826 74.412 155.626 74.412H157.234V74.34C157.234 73.82 157.098 73.428 156.826 73.164C156.554 72.892 156.19 72.756 155.734 72.756C155.342 72.756 155.002 72.856 154.714 73.056C154.434 73.248 154.258 73.532 154.186 73.908H153.154C153.194 73.476 153.338 73.112 153.586 72.816C153.842 72.52 154.158 72.296 154.534 72.144C154.91 71.984 155.31 71.904 155.734 71.904C156.566 71.904 157.19 72.128 157.606 72.576C158.03 73.016 158.242 73.604 158.242 74.34V78H157.342L157.282 76.932C157.114 77.268 156.866 77.556 156.538 77.796C156.218 78.028 155.786 78.144 155.242 78.144ZM155.398 77.292C155.782 77.292 156.11 77.192 156.382 76.992C156.662 76.792 156.874 76.532 157.018 76.212C157.162 75.892 157.234 75.556 157.234 75.204V75.192H155.71C155.118 75.192 154.698 75.296 154.45 75.504C154.21 75.704 154.09 75.956 154.09 76.26C154.09 76.572 154.202 76.824 154.426 77.016C154.658 77.2 154.982 77.292 155.398 77.292ZM165.606 78.144C165.038 78.144 164.534 78.016 164.094 77.76C163.654 77.496 163.306 77.132 163.05 76.668C162.802 76.204 162.678 75.656 162.678 75.024C162.678 74.4 162.802 73.856 163.05 73.392C163.298 72.92 163.642 72.556 164.082 72.3C164.53 72.036 165.046 71.904 165.63 71.904C166.206 71.904 166.702 72.036 167.118 72.3C167.542 72.556 167.866 72.896 168.09 73.32C168.314 73.744 168.426 74.2 168.426 74.688C168.426 74.776 168.422 74.864 168.414 74.952C168.414 75.04 168.414 75.14 168.414 75.252H163.674C163.698 75.708 163.802 76.088 163.986 76.392C164.178 76.688 164.414 76.912 164.694 77.064C164.982 77.216 165.286 77.292 165.606 77.292C166.022 77.292 166.37 77.196 166.65 77.004C166.93 76.812 167.134 76.552 167.262 76.224H168.258C168.098 76.776 167.79 77.236 167.334 77.604C166.886 77.964 166.31 78.144 165.606 78.144ZM165.606 72.756C165.126 72.756 164.698 72.904 164.322 73.2C163.954 73.488 163.742 73.912 163.686 74.472H167.43C167.406 73.936 167.222 73.516 166.878 73.212C166.534 72.908 166.11 72.756 165.606 72.756ZM169.762 78V72.048H170.674L170.734 73.116C170.926 72.74 171.202 72.444 171.562 72.228C171.922 72.012 172.33 71.904 172.786 71.904C173.49 71.904 174.05 72.12 174.466 72.552C174.89 72.976 175.102 73.632 175.102 74.52V78H174.094V74.628C174.094 73.388 173.582 72.768 172.558 72.768C172.046 72.768 171.618 72.956 171.274 73.332C170.938 73.7 170.77 74.228 170.77 74.916V78H169.762ZM179.805 78V69.36H180.813V78H179.805ZM184.445 78.144C183.949 78.144 183.537 78.06 183.209 77.892C182.881 77.724 182.637 77.5 182.477 77.22C182.317 76.94 182.237 76.636 182.237 76.308C182.237 75.7 182.469 75.232 182.933 74.904C183.397 74.576 184.029 74.412 184.829 74.412H186.437V74.34C186.437 73.82 186.301 73.428 186.029 73.164C185.757 72.892 185.393 72.756 184.937 72.756C184.545 72.756 184.205 72.856 183.917 73.056C183.637 73.248 183.461 73.532 183.389 73.908H182.357C182.397 73.476 182.541 73.112 182.789 72.816C183.045 72.52 183.361 72.296 183.737 72.144C184.113 71.984 184.513 71.904 184.937 71.904C185.769 71.904 186.393 72.128 186.809 72.576C187.233 73.016 187.445 73.604 187.445 74.34V78H186.545L186.485 76.932C186.317 77.268 186.069 77.556 185.741 77.796C185.421 78.028 184.989 78.144 184.445 78.144ZM184.601 77.292C184.985 77.292 185.313 77.192 185.585 76.992C185.865 76.792 186.077 76.532 186.221 76.212C186.365 75.892 186.437 75.556 186.437 75.204V75.192H184.913C184.321 75.192 183.901 75.296 183.653 75.504C183.413 75.704 183.293 75.956 183.293 76.26C183.293 76.572 183.405 76.824 183.629 77.016C183.861 77.2 184.185 77.292 184.601 77.292ZM192.133 80.64V72.048H193.045L193.141 73.032C193.333 72.744 193.605 72.484 193.957 72.252C194.317 72.02 194.773 71.904 195.325 71.904C195.917 71.904 196.433 72.04 196.873 72.312C197.313 72.584 197.653 72.956 197.893 73.428C198.141 73.9 198.265 74.436 198.265 75.036C198.265 75.636 198.141 76.172 197.893 76.644C197.653 77.108 197.309 77.476 196.861 77.748C196.421 78.012 195.905 78.144 195.313 78.144C194.825 78.144 194.389 78.044 194.005 77.844C193.629 77.644 193.341 77.364 193.141 77.004V80.64H192.133ZM195.205 77.268C195.605 77.268 195.957 77.176 196.261 76.992C196.565 76.8 196.805 76.536 196.981 76.2C197.157 75.864 197.245 75.472 197.245 75.024C197.245 74.576 197.157 74.184 196.981 73.848C196.805 73.512 196.565 73.252 196.261 73.068C195.957 72.876 195.605 72.78 195.205 72.78C194.805 72.78 194.453 72.876 194.149 73.068C193.845 73.252 193.605 73.512 193.429 73.848C193.253 74.184 193.165 74.576 193.165 75.024C193.165 75.472 193.253 75.864 193.429 76.2C193.605 76.536 193.845 76.8 194.149 76.992C194.453 77.176 194.805 77.268 195.205 77.268ZM199.668 78V69.36H200.676V78H199.668ZM204.308 78.144C203.812 78.144 203.4 78.06 203.072 77.892C202.744 77.724 202.5 77.5 202.34 77.22C202.18 76.94 202.1 76.636 202.1 76.308C202.1 75.7 202.332 75.232 202.796 74.904C203.26 74.576 203.892 74.412 204.692 74.412H206.3V74.34C206.3 73.82 206.164 73.428 205.892 73.164C205.62 72.892 205.256 72.756 204.8 72.756C204.408 72.756 204.068 72.856 203.78 73.056C203.5 73.248 203.324 73.532 203.252 73.908H202.22C202.26 73.476 202.404 73.112 202.652 72.816C202.908 72.52 203.224 72.296 203.6 72.144C203.976 71.984 204.376 71.904 204.8 71.904C205.632 71.904 206.256 72.128 206.672 72.576C207.096 73.016 207.308 73.604 207.308 74.34V78H206.408L206.348 76.932C206.18 77.268 205.932 77.556 205.604 77.796C205.284 78.028 204.852 78.144 204.308 78.144ZM204.464 77.292C204.848 77.292 205.176 77.192 205.448 76.992C205.728 76.792 205.94 76.532 206.084 76.212C206.228 75.892 206.3 75.556 206.3 75.204V75.192H204.776C204.184 75.192 203.764 75.296 203.516 75.504C203.276 75.704 203.156 75.956 203.156 76.26C203.156 76.572 203.268 76.824 203.492 77.016C203.724 77.2 204.048 77.292 204.464 77.292ZM211.008 78C210.464 78 210.036 77.868 209.724 77.604C209.412 77.34 209.256 76.864 209.256 76.176V72.9H208.224V72.048H209.256L209.388 70.62H210.264V72.048H212.016V72.9H210.264V76.176C210.264 76.552 210.34 76.808 210.492 76.944C210.644 77.072 210.912 77.136 211.296 77.136H211.92V78H211.008ZM215.277 78.144C214.781 78.144 214.369 78.06 214.041 77.892C213.713 77.724 213.469 77.5 213.309 77.22C213.149 76.94 213.069 76.636 213.069 76.308C213.069 75.7 213.301 75.232 213.765 74.904C214.229 74.576 214.861 74.412 215.661 74.412H217.269V74.34C217.269 73.82 217.133 73.428 216.861 73.164C216.589 72.892 216.225 72.756 215.769 72.756C215.377 72.756 215.037 72.856 214.749 73.056C214.469 73.248 214.293 73.532 214.221 73.908H213.189C213.229 73.476 213.373 73.112 213.621 72.816C213.877 72.52 214.193 72.296 214.569 72.144C214.945 71.984 215.345 71.904 215.769 71.904C216.601 71.904 217.225 72.128 217.641 72.576C218.065 73.016 218.277 73.604 218.277 74.34V78H217.377L217.317 76.932C217.149 77.268 216.901 77.556 216.573 77.796C216.253 78.028 215.821 78.144 215.277 78.144ZM215.433 77.292C215.817 77.292 216.145 77.192 216.417 76.992C216.697 76.792 216.909 76.532 217.053 76.212C217.197 75.892 217.269 75.556 217.269 75.204V75.192H215.745C215.153 75.192 214.733 75.296 214.485 75.504C214.245 75.704 214.125 75.956 214.125 76.26C214.125 76.572 214.237 76.824 214.461 77.016C214.693 77.2 215.017 77.292 215.433 77.292ZM220.113 78V72.9H219.213V72.048H220.113V71.016C220.113 70.44 220.257 70.02 220.545 69.756C220.833 69.492 221.253 69.36 221.805 69.36H222.405V70.224H221.961C221.657 70.224 221.441 70.288 221.313 70.416C221.185 70.536 221.121 70.744 221.121 71.04V72.048H222.585V72.9H221.121V78H220.113ZM226.263 78.144C225.703 78.144 225.199 78.016 224.751 77.76C224.303 77.504 223.947 77.144 223.683 76.68C223.427 76.208 223.299 75.656 223.299 75.024C223.299 74.392 223.431 73.844 223.695 73.38C223.959 72.908 224.315 72.544 224.763 72.288C225.219 72.032 225.727 71.904 226.287 71.904C226.847 71.904 227.351 72.032 227.799 72.288C228.247 72.544 228.599 72.908 228.855 73.38C229.119 73.844 229.251 74.392 229.251 75.024C229.251 75.656 229.119 76.208 228.855 76.68C228.591 77.144 228.231 77.504 227.775 77.76C227.327 78.016 226.823 78.144 226.263 78.144ZM226.263 77.28C226.607 77.28 226.927 77.196 227.223 77.028C227.519 76.86 227.759 76.608 227.943 76.272C228.127 75.936 228.219 75.52 228.219 75.024C228.219 74.528 228.127 74.112 227.943 73.776C227.767 73.44 227.531 73.188 227.235 73.02C226.939 72.852 226.623 72.768 226.287 72.768C225.943 72.768 225.623 72.852 225.327 73.02C225.031 73.188 224.791 73.44 224.607 73.776C224.423 74.112 224.331 74.528 224.331 75.024C224.331 75.52 224.423 75.936 224.607 76.272C224.791 76.608 225.027 76.86 225.315 77.028C225.611 77.196 225.927 77.28 226.263 77.28ZM230.652 78V72.048H231.564L231.648 73.188C231.832 72.796 232.112 72.484 232.488 72.252C232.864 72.02 233.328 71.904 233.88 71.904V72.96H233.604C233.252 72.96 232.928 73.024 232.632 73.152C232.336 73.272 232.1 73.48 231.924 73.776C231.748 74.072 231.66 74.48 231.66 75V78H230.652ZM235.012 78V72.048H235.924L235.996 72.912C236.188 72.592 236.444 72.344 236.764 72.168C237.084 71.992 237.444 71.904 237.844 71.904C238.316 71.904 238.72 72 239.056 72.192C239.4 72.384 239.664 72.676 239.848 73.068C240.056 72.708 240.34 72.424 240.7 72.216C241.068 72.008 241.464 71.904 241.888 71.904C242.6 71.904 243.168 72.12 243.592 72.552C244.016 72.976 244.228 73.632 244.228 74.52V78H243.232V74.628C243.232 74.012 243.108 73.548 242.86 73.236C242.612 72.924 242.256 72.768 241.792 72.768C241.312 72.768 240.912 72.956 240.592 73.332C240.28 73.7 240.124 74.228 240.124 74.916V78H239.116V74.628C239.116 74.012 238.992 73.548 238.744 73.236C238.496 72.924 238.14 72.768 237.676 72.768C237.204 72.768 236.808 72.956 236.488 73.332C236.176 73.7 236.02 74.228 236.02 74.916V78H235.012ZM247.726 78.144C247.23 78.144 246.818 78.06 246.49 77.892C246.162 77.724 245.918 77.5 245.758 77.22C245.598 76.94 245.518 76.636 245.518 76.308C245.518 75.7 245.75 75.232 246.214 74.904C246.678 74.576 247.31 74.412 248.11 74.412H249.718V74.34C249.718 73.82 249.582 73.428 249.31 73.164C249.038 72.892 248.674 72.756 248.218 72.756C247.826 72.756 247.486 72.856 247.198 73.056C246.918 73.248 246.742 73.532 246.67 73.908H245.638C245.678 73.476 245.822 73.112 246.07 72.816C246.326 72.52 246.642 72.296 247.018 72.144C247.394 71.984 247.794 71.904 248.218 71.904C249.05 71.904 249.674 72.128 250.09 72.576C250.514 73.016 250.726 73.604 250.726 74.34V78H249.826L249.766 76.932C249.598 77.268 249.35 77.556 249.022 77.796C248.702 78.028 248.27 78.144 247.726 78.144ZM247.882 77.292C248.266 77.292 248.594 77.192 248.866 76.992C249.146 76.792 249.358 76.532 249.502 76.212C249.646 75.892 249.718 75.556 249.718 75.204V75.192H248.194C247.602 75.192 247.182 75.296 246.934 75.504C246.694 75.704 246.574 75.956 246.574 76.26C246.574 76.572 246.686 76.824 246.91 77.016C247.142 77.2 247.466 77.292 247.882 77.292ZM252.586 78.06C252.386 78.06 252.218 77.996 252.082 77.868C251.954 77.732 251.89 77.568 251.89 77.376C251.89 77.184 251.954 77.024 252.082 76.896C252.218 76.76 252.386 76.692 252.586 76.692C252.778 76.692 252.938 76.76 253.066 76.896C253.202 77.024 253.27 77.184 253.27 77.376C253.27 77.568 253.202 77.732 253.066 77.868C252.938 77.996 252.778 78.06 252.586 78.06Z" fill="#666666"/>
</svg>
