<svg width="256" height="60" viewBox="0 0 256 60" fill="none" xmlns="http://www.w3.org/2000/svg">
<path d="M1.184 12V0.799999H2.528V10.928H7.744V12H1.184ZM12.1503 12.192C11.4889 12.192 10.9396 12.08 10.5023 11.856C10.0649 11.632 9.73958 11.3333 9.52625 10.96C9.31292 10.5867 9.20625 10.1813 9.20625 9.744C9.20625 8.93333 9.51558 8.30933 10.1343 7.872C10.7529 7.43467 11.5956 7.216 12.6623 7.216H14.8063V7.12C14.8063 6.42667 14.6249 5.904 14.2623 5.552C13.8996 5.18933 13.4143 5.008 12.8063 5.008C12.2836 5.008 11.8303 5.14133 11.4463 5.408C11.0729 5.664 10.8383 6.04267 10.7423 6.544H9.36625C9.41958 5.968 9.61158 5.48267 9.94225 5.088C10.2836 4.69333 10.7049 4.39467 11.2063 4.192C11.7076 3.97867 12.2409 3.872 12.8063 3.872C13.9156 3.872 14.7476 4.17067 15.3023 4.768C15.8676 5.35467 16.1503 6.13867 16.1503 7.12V12H14.9503L14.8703 10.576C14.6463 11.024 14.3156 11.408 13.8783 11.728C13.4516 12.0373 12.8756 12.192 12.1503 12.192ZM12.3583 11.056C12.8703 11.056 13.3076 10.9227 13.6703 10.656C14.0436 10.3893 14.3263 10.0427 14.5183 9.616C14.7103 9.18933 14.8063 8.74133 14.8063 8.272V8.256H12.7743C11.9849 8.256 11.4249 8.39467 11.0943 8.672C10.7743 8.93867 10.6143 9.27467 10.6143 9.68C10.6143 10.096 10.7636 10.432 11.0623 10.688C11.3716 10.9333 11.8036 11.056 12.3583 11.056ZM22.4065 12.192C21.7558 12.192 21.1745 12.0587 20.6625 11.792C20.1612 11.5253 19.7772 11.152 19.5105 10.672L19.3825 12H18.1665V0.48H19.5105V5.376C19.7665 4.992 20.1292 4.64533 20.5985 4.336C21.0785 4.02667 21.6865 3.872 22.4225 3.872C23.2118 3.872 23.8998 4.05333 24.4865 4.416C25.0732 4.77867 25.5265 5.27467 25.8465 5.904C26.1772 6.53333 26.3425 7.248 26.3425 8.048C26.3425 8.848 26.1772 9.56267 25.8465 10.192C25.5265 10.8107 25.0678 11.3013 24.4705 11.664C23.8838 12.016 23.1958 12.192 22.4065 12.192ZM22.2625 11.024C22.7958 11.024 23.2652 10.9013 23.6705 10.656C24.0758 10.4 24.3958 10.048 24.6305 9.6C24.8652 9.152 24.9825 8.62933 24.9825 8.032C24.9825 7.43467 24.8652 6.912 24.6305 6.464C24.3958 6.016 24.0758 5.66933 23.6705 5.424C23.2652 5.168 22.7958 5.04 22.2625 5.04C21.7292 5.04 21.2598 5.168 20.8545 5.424C20.4492 5.66933 20.1292 6.016 19.8945 6.464C19.6598 6.912 19.5425 7.43467 19.5425 8.032C19.5425 8.62933 19.6598 9.152 19.8945 9.6C20.1292 10.048 20.4492 10.4 20.8545 10.656C21.2598 10.9013 21.7292 11.024 22.2625 11.024ZM31.7814 12.192C31.024 12.192 30.352 12.0213 29.7654 11.68C29.1787 11.328 28.7147 10.8427 28.3734 10.224C28.0427 9.60533 27.8774 8.87467 27.8774 8.032C27.8774 7.2 28.0427 6.47467 28.3734 5.856C28.704 5.22667 29.1627 4.74133 29.7494 4.4C30.3467 4.048 31.0347 3.872 31.8134 3.872C32.5814 3.872 33.2427 4.048 33.7974 4.4C34.3627 4.74133 34.7947 5.19467 35.0934 5.76C35.392 6.32533 35.5414 6.93333 35.5414 7.584C35.5414 7.70133 35.536 7.81867 35.5254 7.936C35.5254 8.05333 35.5254 8.18667 35.5254 8.336H29.2054C29.2374 8.944 29.376 9.45067 29.6214 9.856C29.8774 10.2507 30.192 10.5493 30.5654 10.752C30.9494 10.9547 31.3547 11.056 31.7814 11.056C32.336 11.056 32.8 10.928 33.1734 10.672C33.5467 10.416 33.8187 10.0693 33.9894 9.632H35.3174C35.104 10.368 34.6934 10.9813 34.0854 11.472C33.488 11.952 32.72 12.192 31.7814 12.192ZM31.7814 5.008C31.1414 5.008 30.5707 5.20533 30.0694 5.6C29.5787 5.984 29.296 6.54933 29.2214 7.296H34.2134C34.1814 6.58133 33.936 6.02133 33.4774 5.616C33.0187 5.21067 32.4534 5.008 31.7814 5.008ZM37.3228 12V0.48H38.6668V12H37.3228Z" fill="#333333"/>
<rect x="0.5" y="20.5" width="255" height="39" rx="3.5" fill="white"/>
<rect x="0.5" y="20.5" width="255" height="39" rx="3.5" stroke="#E2E2E2"/>
<path d="M16.994 45V35.2H20.424C21.1893 35.2 21.824 35.3307 22.328 35.592C22.832 35.844 23.2053 36.194 23.448 36.642C23.7 37.0807 23.826 37.58 23.826 38.14C23.826 38.672 23.7047 39.162 23.462 39.61C23.2287 40.0487 22.86 40.3987 22.356 40.66C21.852 40.9213 21.208 41.052 20.424 41.052H18.478V45H16.994ZM18.478 39.834H20.354C21.054 39.834 21.5533 39.6847 21.852 39.386C22.16 39.078 22.314 38.6627 22.314 38.14C22.314 37.5987 22.16 37.1787 21.852 36.88C21.5533 36.572 21.054 36.418 20.354 36.418H18.478V39.834ZM25.2368 45V34.92H26.7208V45H25.2368ZM30.9521 45.168C30.3641 45.168 29.8788 45.07 29.4961 44.874C29.1134 44.678 28.8288 44.4213 28.6421 44.104C28.4554 43.7773 28.3621 43.4227 28.3621 43.04C28.3621 42.368 28.6234 41.836 29.1461 41.444C29.6688 41.052 30.4154 40.856 31.3861 40.856H33.2061V40.73C33.2061 40.1887 33.0568 39.7827 32.7581 39.512C32.4688 39.2413 32.0908 39.106 31.6241 39.106C31.2134 39.106 30.8541 39.2087 30.5461 39.414C30.2474 39.61 30.0654 39.904 30.0001 40.296H28.5161C28.5628 39.792 28.7308 39.3627 29.0201 39.008C29.3188 38.644 29.6921 38.3687 30.1401 38.182C30.5974 37.986 31.0968 37.888 31.6381 37.888C32.6088 37.888 33.3601 38.1447 33.8921 38.658C34.4241 39.162 34.6901 39.8527 34.6901 40.73V45H33.4021L33.2761 43.81C33.0801 44.1927 32.7954 44.5147 32.4221 44.776C32.0488 45.0373 31.5588 45.168 30.9521 45.168ZM31.2461 43.964C31.6474 43.964 31.9834 43.8707 32.2541 43.684C32.5341 43.488 32.7488 43.2313 32.8981 42.914C33.0568 42.5967 33.1548 42.2467 33.1921 41.864H31.5401C30.9521 41.864 30.5321 41.9667 30.2801 42.172C30.0374 42.3773 29.9161 42.634 29.9161 42.942C29.9161 43.2593 30.0328 43.5113 30.2661 43.698C30.5088 43.8753 30.8354 43.964 31.2461 43.964ZM39.7104 45.168C39.0291 45.168 38.4178 45.014 37.8764 44.706C37.3444 44.398 36.9244 43.9733 36.6164 43.432C36.3178 42.8813 36.1684 42.2467 36.1684 41.528C36.1684 40.8093 36.3178 40.1793 36.6164 39.638C36.9244 39.0873 37.3444 38.658 37.8764 38.35C38.4178 38.042 39.0291 37.888 39.7104 37.888C40.5691 37.888 41.2878 38.112 41.8664 38.56C42.4544 39.008 42.8324 39.6147 43.0004 40.38H41.4464C41.3531 39.9973 41.1478 39.6987 40.8304 39.484C40.5131 39.2693 40.1398 39.162 39.7104 39.162C39.3464 39.162 39.0104 39.2553 38.7024 39.442C38.3944 39.6193 38.1471 39.8853 37.9604 40.24C37.7738 40.5853 37.6804 41.0147 37.6804 41.528C37.6804 42.0413 37.7738 42.4753 37.9604 42.83C38.1471 43.1753 38.3944 43.4413 38.7024 43.628C39.0104 43.8147 39.3464 43.908 39.7104 43.908C40.1398 43.908 40.5131 43.8007 40.8304 43.586C41.1478 43.3713 41.3531 43.068 41.4464 42.676H43.0004C42.8418 43.4227 42.4684 44.0247 41.8804 44.482C41.2924 44.9393 40.5691 45.168 39.7104 45.168ZM47.8579 45.168C47.1765 45.168 46.5699 45.0187 46.0379 44.72C45.5152 44.412 45.1045 43.9873 44.8059 43.446C44.5072 42.9047 44.3579 42.2747 44.3579 41.556C44.3579 40.828 44.5025 40.1887 44.7919 39.638C45.0905 39.0873 45.5012 38.658 46.0239 38.35C46.5559 38.042 47.1719 37.888 47.8719 37.888C48.5532 37.888 49.1459 38.042 49.6499 38.35C50.1539 38.6487 50.5459 39.05 50.8259 39.554C51.1059 40.058 51.2459 40.6133 51.2459 41.22C51.2459 41.3133 51.2412 41.416 51.2319 41.528C51.2319 41.6307 51.2272 41.7473 51.2179 41.878H45.8139C45.8605 42.55 46.0799 43.0633 46.4719 43.418C46.8732 43.7633 47.3352 43.936 47.8579 43.936C48.2779 43.936 48.6279 43.8427 48.9079 43.656C49.1972 43.46 49.4119 43.1987 49.5519 42.872H51.0359C50.8492 43.5253 50.4759 44.0713 49.9159 44.51C49.3652 44.9487 48.6792 45.168 47.8579 45.168ZM47.8579 39.106C47.3632 39.106 46.9245 39.2553 46.5419 39.554C46.1592 39.8433 45.9259 40.282 45.8419 40.87H49.7619C49.7339 40.3287 49.5425 39.8993 49.1879 39.582C48.8332 39.2647 48.3899 39.106 47.8579 39.106ZM52.7857 45V34.92H54.2697V39.176C54.503 38.7747 54.825 38.462 55.2357 38.238C55.6557 38.0047 56.1177 37.888 56.6217 37.888C57.4523 37.888 58.1057 38.1493 58.5817 38.672C59.0577 39.1947 59.2957 39.974 59.2957 41.01V45H57.8257V41.164C57.8257 39.82 57.289 39.148 56.2157 39.148C55.6557 39.148 55.189 39.344 54.8157 39.736C54.4517 40.128 54.2697 40.688 54.2697 41.416V45H52.7857ZM64.2915 45.168C63.6288 45.168 63.0315 45.0187 62.4995 44.72C61.9768 44.412 61.5615 43.9873 61.2535 43.446C60.9455 42.8953 60.7915 42.256 60.7915 41.528C60.7915 40.8 60.9455 40.1653 61.2535 39.624C61.5708 39.0733 61.9955 38.6487 62.5275 38.35C63.0595 38.042 63.6521 37.888 64.3055 37.888C64.9681 37.888 65.5608 38.042 66.0835 38.35C66.6155 38.6487 67.0355 39.0733 67.3435 39.624C67.6608 40.1653 67.8195 40.8 67.8195 41.528C67.8195 42.256 67.6608 42.8953 67.3435 43.446C67.0355 43.9873 66.6155 44.412 66.0835 44.72C65.5515 45.0187 64.9541 45.168 64.2915 45.168ZM64.2915 43.894C64.6461 43.894 64.9728 43.8053 65.2715 43.628C65.5795 43.4507 65.8268 43.1893 66.0135 42.844C66.2001 42.4893 66.2935 42.0507 66.2935 41.528C66.2935 41.0053 66.2001 40.5713 66.0135 40.226C65.8361 39.8713 65.5935 39.6053 65.2855 39.428C64.9868 39.2507 64.6601 39.162 64.3055 39.162C63.9508 39.162 63.6195 39.2507 63.3115 39.428C63.0128 39.6053 62.7701 39.8713 62.5835 40.226C62.3968 40.5713 62.3035 41.0053 62.3035 41.528C62.3035 42.0507 62.3968 42.4893 62.5835 42.844C62.7701 43.1893 63.0128 43.4507 63.3115 43.628C63.6101 43.8053 63.9368 43.894 64.2915 43.894ZM69.4243 45V34.92H70.9083V45H69.4243ZM75.9516 45.168C75.2796 45.168 74.6869 45.0093 74.1736 44.692C73.6603 44.3747 73.2589 43.9407 72.9696 43.39C72.6803 42.8393 72.5356 42.214 72.5356 41.514C72.5356 40.814 72.6803 40.1933 72.9696 39.652C73.2589 39.1013 73.6603 38.672 74.1736 38.364C74.6963 38.0467 75.2936 37.888 75.9656 37.888C76.5163 37.888 76.9969 37.9953 77.4076 38.21C77.8276 38.4247 78.1543 38.728 78.3876 39.12V34.92H79.8716V45H78.5416L78.3876 43.922C78.1636 44.2487 77.8556 44.538 77.4636 44.79C77.0716 45.042 76.5676 45.168 75.9516 45.168ZM76.2176 43.88C76.8523 43.88 77.3703 43.6607 77.7716 43.222C78.1823 42.7833 78.3876 42.2187 78.3876 41.528C78.3876 40.828 78.1823 40.2633 77.7716 39.834C77.3703 39.3953 76.8523 39.176 76.2176 39.176C75.5829 39.176 75.0603 39.3953 74.6496 39.834C74.2389 40.2633 74.0336 40.828 74.0336 41.528C74.0336 41.9853 74.1269 42.3913 74.3136 42.746C74.5003 43.1007 74.7569 43.3807 75.0836 43.586C75.4196 43.782 75.7976 43.88 76.2176 43.88ZM84.9907 45.168C84.3094 45.168 83.7027 45.0187 83.1707 44.72C82.648 44.412 82.2374 43.9873 81.9387 43.446C81.64 42.9047 81.4907 42.2747 81.4907 41.556C81.4907 40.828 81.6354 40.1887 81.9247 39.638C82.2234 39.0873 82.634 38.658 83.1567 38.35C83.6887 38.042 84.3047 37.888 85.0047 37.888C85.686 37.888 86.2787 38.042 86.7827 38.35C87.2867 38.6487 87.6787 39.05 87.9587 39.554C88.2387 40.058 88.3787 40.6133 88.3787 41.22C88.3787 41.3133 88.374 41.416 88.3647 41.528C88.3647 41.6307 88.36 41.7473 88.3507 41.878H82.9467C82.9934 42.55 83.2127 43.0633 83.6047 43.418C84.006 43.7633 84.468 43.936 84.9907 43.936C85.4107 43.936 85.7607 43.8427 86.0407 43.656C86.33 43.46 86.5447 43.1987 86.6847 42.872H88.1687C87.982 43.5253 87.6087 44.0713 87.0487 44.51C86.498 44.9487 85.812 45.168 84.9907 45.168ZM84.9907 39.106C84.496 39.106 84.0574 39.2553 83.6747 39.554C83.292 39.8433 83.0587 40.282 82.9747 40.87H86.8947C86.8667 40.3287 86.6754 39.8993 86.3207 39.582C85.966 39.2647 85.5227 39.106 84.9907 39.106ZM89.9185 45V38.056H91.2485L91.3745 39.372C91.6171 38.9147 91.9531 38.5553 92.3825 38.294C92.8211 38.0233 93.3485 37.888 93.9645 37.888V39.442H93.5585C93.1478 39.442 92.7791 39.512 92.4525 39.652C92.1351 39.7827 91.8785 40.0113 91.6825 40.338C91.4958 40.6553 91.4025 41.0987 91.4025 41.668V45H89.9185ZM95.2643 45.084C94.9843 45.084 94.7509 44.9953 94.5643 44.818C94.3869 44.6313 94.2983 44.412 94.2983 44.16C94.2983 43.8987 94.3869 43.6793 94.5643 43.502C94.7509 43.3153 94.9843 43.222 95.2643 43.222C95.5443 43.222 95.7729 43.3153 95.9503 43.502C96.1276 43.6793 96.2163 43.8987 96.2163 44.16C96.2163 44.412 96.1276 44.6313 95.9503 44.818C95.7729 44.9953 95.5443 45.084 95.2643 45.084ZM98.2994 45.084C98.0194 45.084 97.7861 44.9953 97.5994 44.818C97.4221 44.6313 97.3334 44.412 97.3334 44.16C97.3334 43.8987 97.4221 43.6793 97.5994 43.502C97.7861 43.3153 98.0194 43.222 98.2994 43.222C98.5794 43.222 98.8081 43.3153 98.9854 43.502C99.1628 43.6793 99.2514 43.8987 99.2514 44.16C99.2514 44.412 99.1628 44.6313 98.9854 44.818C98.8081 44.9953 98.5794 45.084 98.2994 45.084ZM101.335 45.084C101.055 45.084 100.821 44.9953 100.635 44.818C100.457 44.6313 100.369 44.412 100.369 44.16C100.369 43.8987 100.457 43.6793 100.635 43.502C100.821 43.3153 101.055 43.222 101.335 43.222C101.615 43.222 101.843 43.3153 102.021 43.502C102.198 43.6793 102.287 43.8987 102.287 44.16C102.287 44.412 102.198 44.6313 102.021 44.818C101.843 44.9953 101.615 45.084 101.335 45.084Z" fill="#616161"/>
<g clip-path="url(#clip0_6784_328348)">
<path d="M230.333 42.6652C229.122 42.6652 228.097 42.2458 227.258 41.4069C226.419 40.568 226 39.543 226 38.3319C226 37.1208 226.419 36.0958 227.258 35.2569C228.097 34.418 229.122 33.9985 230.333 33.9985C231.544 33.9985 232.569 34.418 233.408 35.2569C234.247 36.0958 234.667 37.1208 234.667 38.3319C234.667 38.8208 234.589 39.2819 234.433 39.7152C234.278 40.1485 234.067 40.5319 233.8 40.8652L237.533 44.5985C237.656 44.7208 237.717 44.8763 237.717 45.0652C237.717 45.2541 237.656 45.4096 237.533 45.5319C237.411 45.6541 237.256 45.7152 237.067 45.7152C236.878 45.7152 236.722 45.6541 236.6 45.5319L232.867 41.7985C232.533 42.0652 232.15 42.2763 231.717 42.4319C231.283 42.5874 230.822 42.6652 230.333 42.6652ZM230.333 41.3319C231.167 41.3319 231.875 41.0402 232.458 40.4569C233.042 39.8735 233.333 39.1652 233.333 38.3319C233.333 37.4985 233.042 36.7902 232.458 36.2069C231.875 35.6235 231.167 35.3319 230.333 35.3319C229.5 35.3319 228.792 35.6235 228.208 36.2069C227.625 36.7902 227.333 37.4985 227.333 38.3319C227.333 39.1652 227.625 39.8735 228.208 40.4569C228.792 41.0402 229.5 41.3319 230.333 41.3319Z" fill="#333333"/>
</g>
<defs>
<clipPath id="clip0_6784_328348">
<rect width="16" height="16" fill="white" transform="translate(224 32)"/>
</clipPath>
</defs>
</svg>
