<svg width="256" height="60" viewBox="0 0 256 60" fill="none" xmlns="http://www.w3.org/2000/svg">
<path d="M1.184 12V0.799999H2.528V10.928H7.744V12H1.184ZM12.1503 12.192C11.4889 12.192 10.9396 12.08 10.5023 11.856C10.0649 11.632 9.73958 11.3333 9.52625 10.96C9.31292 10.5867 9.20625 10.1813 9.20625 9.744C9.20625 8.93333 9.51558 8.30933 10.1343 7.872C10.7529 7.43467 11.5956 7.216 12.6623 7.216H14.8063V7.12C14.8063 6.42667 14.6249 5.904 14.2623 5.552C13.8996 5.18933 13.4143 5.008 12.8063 5.008C12.2836 5.008 11.8303 5.14133 11.4463 5.408C11.0729 5.664 10.8383 6.04267 10.7423 6.544H9.36625C9.41958 5.968 9.61158 5.48267 9.94225 5.088C10.2836 4.69333 10.7049 4.39467 11.2063 4.192C11.7076 3.97867 12.2409 3.872 12.8063 3.872C13.9156 3.872 14.7476 4.17067 15.3023 4.768C15.8676 5.35467 16.1503 6.13867 16.1503 7.12V12H14.9503L14.8703 10.576C14.6463 11.024 14.3156 11.408 13.8783 11.728C13.4516 12.0373 12.8756 12.192 12.1503 12.192ZM12.3583 11.056C12.8703 11.056 13.3076 10.9227 13.6703 10.656C14.0436 10.3893 14.3263 10.0427 14.5183 9.616C14.7103 9.18933 14.8063 8.74133 14.8063 8.272V8.256H12.7743C11.9849 8.256 11.4249 8.39467 11.0943 8.672C10.7743 8.93867 10.6143 9.27467 10.6143 9.68C10.6143 10.096 10.7636 10.432 11.0623 10.688C11.3716 10.9333 11.8036 11.056 12.3583 11.056ZM22.4065 12.192C21.7558 12.192 21.1745 12.0587 20.6625 11.792C20.1612 11.5253 19.7772 11.152 19.5105 10.672L19.3825 12H18.1665V0.48H19.5105V5.376C19.7665 4.992 20.1292 4.64533 20.5985 4.336C21.0785 4.02667 21.6865 3.872 22.4225 3.872C23.2118 3.872 23.8998 4.05333 24.4865 4.416C25.0732 4.77867 25.5265 5.27467 25.8465 5.904C26.1772 6.53333 26.3425 7.248 26.3425 8.048C26.3425 8.848 26.1772 9.56267 25.8465 10.192C25.5265 10.8107 25.0678 11.3013 24.4705 11.664C23.8838 12.016 23.1958 12.192 22.4065 12.192ZM22.2625 11.024C22.7958 11.024 23.2652 10.9013 23.6705 10.656C24.0758 10.4 24.3958 10.048 24.6305 9.6C24.8652 9.152 24.9825 8.62933 24.9825 8.032C24.9825 7.43467 24.8652 6.912 24.6305 6.464C24.3958 6.016 24.0758 5.66933 23.6705 5.424C23.2652 5.168 22.7958 5.04 22.2625 5.04C21.7292 5.04 21.2598 5.168 20.8545 5.424C20.4492 5.66933 20.1292 6.016 19.8945 6.464C19.6598 6.912 19.5425 7.43467 19.5425 8.032C19.5425 8.62933 19.6598 9.152 19.8945 9.6C20.1292 10.048 20.4492 10.4 20.8545 10.656C21.2598 10.9013 21.7292 11.024 22.2625 11.024ZM31.7814 12.192C31.024 12.192 30.352 12.0213 29.7654 11.68C29.1787 11.328 28.7147 10.8427 28.3734 10.224C28.0427 9.60533 27.8774 8.87467 27.8774 8.032C27.8774 7.2 28.0427 6.47467 28.3734 5.856C28.704 5.22667 29.1627 4.74133 29.7494 4.4C30.3467 4.048 31.0347 3.872 31.8134 3.872C32.5814 3.872 33.2427 4.048 33.7974 4.4C34.3627 4.74133 34.7947 5.19467 35.0934 5.76C35.392 6.32533 35.5414 6.93333 35.5414 7.584C35.5414 7.70133 35.536 7.81867 35.5254 7.936C35.5254 8.05333 35.5254 8.18667 35.5254 8.336H29.2054C29.2374 8.944 29.376 9.45067 29.6214 9.856C29.8774 10.2507 30.192 10.5493 30.5654 10.752C30.9494 10.9547 31.3547 11.056 31.7814 11.056C32.336 11.056 32.8 10.928 33.1734 10.672C33.5467 10.416 33.8187 10.0693 33.9894 9.632H35.3174C35.104 10.368 34.6934 10.9813 34.0854 11.472C33.488 11.952 32.72 12.192 31.7814 12.192ZM31.7814 5.008C31.1414 5.008 30.5707 5.20533 30.0694 5.6C29.5787 5.984 29.296 6.54933 29.2214 7.296H34.2134C34.1814 6.58133 33.936 6.02133 33.4774 5.616C33.0187 5.21067 32.4534 5.008 31.7814 5.008ZM37.3228 12V0.48H38.6668V12H37.3228Z" fill="#333333"/>
<path d="M47.36 6.24L47.632 3.952L45.824 5.344L45.072 4.064L47.2 3.2L45.088 2.384L45.776 1.136L47.648 2.528L47.344 0.223999H48.768L48.464 2.528L50.32 1.136L50.992 2.368L48.88 3.232L51.008 4.08L50.288 5.328L48.464 3.952L48.752 6.24H47.36Z" fill="#E72D51"/>
<rect x="0.5" y="20.5" width="255" height="39" rx="3.5" fill="white"/>
<rect x="0.5" y="20.5" width="255" height="39" rx="3.5" stroke="#E2E2E2"/>
<path d="M19.9 43.3999C20.4667 42.9666 21.1 42.6249 21.8 42.3749C22.5 42.1249 23.2333 41.9999 24 41.9999C24.7667 41.9999 25.5 42.1249 26.2 42.3749C26.9 42.6249 27.5333 42.9666 28.1 43.3999C28.4889 42.9444 28.7917 42.4277 29.0083 41.8499C29.225 41.2721 29.3333 40.6555 29.3333 39.9999C29.3333 38.5221 28.8139 37.2638 27.775 36.2249C26.7361 35.186 25.4778 34.6666 24 34.6666C22.5222 34.6666 21.2639 35.186 20.225 36.2249C19.1861 37.2638 18.6667 38.5221 18.6667 39.9999C18.6667 40.6555 18.775 41.2721 18.9917 41.8499C19.2083 42.4277 19.5111 42.9444 19.9 43.3999ZM24 40.6666C23.3444 40.6666 22.7917 40.4416 22.3417 39.9916C21.8917 39.5416 21.6667 38.9888 21.6667 38.3333C21.6667 37.6777 21.8917 37.1249 22.3417 36.6749C22.7917 36.2249 23.3444 35.9999 24 35.9999C24.6556 35.9999 25.2083 36.2249 25.6583 36.6749C26.1083 37.1249 26.3333 37.6777 26.3333 38.3333C26.3333 38.9888 26.1083 39.5416 25.6583 39.9916C25.2083 40.4416 24.6556 40.6666 24 40.6666ZM24 46.6666C23.0778 46.6666 22.2111 46.4916 21.4 46.1416C20.5889 45.7916 19.8833 45.3166 19.2833 44.7166C18.6833 44.1166 18.2083 43.411 17.8583 42.5999C17.5083 41.7888 17.3333 40.9221 17.3333 39.9999C17.3333 39.0777 17.5083 38.211 17.8583 37.3999C18.2083 36.5888 18.6833 35.8833 19.2833 35.2833C19.8833 34.6833 20.5889 34.2083 21.4 33.8583C22.2111 33.5083 23.0778 33.3333 24 33.3333C24.9222 33.3333 25.7889 33.5083 26.6 33.8583C27.4111 34.2083 28.1167 34.6833 28.7167 35.2833C29.3167 35.8833 29.7917 36.5888 30.1417 37.3999C30.4917 38.211 30.6667 39.0777 30.6667 39.9999C30.6667 40.9221 30.4917 41.7888 30.1417 42.5999C29.7917 43.411 29.3167 44.1166 28.7167 44.7166C28.1167 45.3166 27.4111 45.7916 26.6 46.1416C25.7889 46.4916 24.9222 46.6666 24 46.6666ZM24 45.3333C24.5889 45.3333 25.1444 45.2471 25.6667 45.0749C26.1889 44.9027 26.6667 44.6555 27.1 44.3333C26.6667 44.011 26.1889 43.7638 25.6667 43.5916C25.1444 43.4194 24.5889 43.3333 24 43.3333C23.4111 43.3333 22.8556 43.4194 22.3333 43.5916C21.8111 43.7638 21.3333 44.011 20.9 44.3333C21.3333 44.6555 21.8111 44.9027 22.3333 45.0749C22.8556 45.2471 23.4111 45.3333 24 45.3333ZM24 39.3333C24.2889 39.3333 24.5278 39.2388 24.7167 39.0499C24.9056 38.861 25 38.6221 25 38.3333C25 38.0444 24.9056 37.8055 24.7167 37.6166C24.5278 37.4277 24.2889 37.3333 24 37.3333C23.7111 37.3333 23.4722 37.4277 23.2833 37.6166C23.0944 37.8055 23 38.0444 23 38.3333C23 38.6221 23.0944 38.861 23.2833 39.0499C23.4722 39.2388 23.7111 39.3333 24 39.3333Z" fill="#333333"/>
<path d="M40.994 45V35.2H44.424C45.1893 35.2 45.824 35.3307 46.328 35.592C46.832 35.844 47.2053 36.194 47.448 36.642C47.7 37.0807 47.826 37.58 47.826 38.14C47.826 38.672 47.7047 39.162 47.462 39.61C47.2287 40.0487 46.86 40.3987 46.356 40.66C45.852 40.9213 45.208 41.052 44.424 41.052H42.478V45H40.994ZM42.478 39.834H44.354C45.054 39.834 45.5533 39.6847 45.852 39.386C46.16 39.078 46.314 38.6627 46.314 38.14C46.314 37.5987 46.16 37.1787 45.852 36.88C45.5533 36.572 45.054 36.418 44.354 36.418H42.478V39.834ZM49.2368 45V34.92H50.7208V45H49.2368ZM54.9521 45.168C54.3641 45.168 53.8788 45.07 53.4961 44.874C53.1134 44.678 52.8288 44.4213 52.6421 44.104C52.4554 43.7773 52.3621 43.4227 52.3621 43.04C52.3621 42.368 52.6234 41.836 53.1461 41.444C53.6688 41.052 54.4154 40.856 55.3861 40.856H57.2061V40.73C57.2061 40.1887 57.0568 39.7827 56.7581 39.512C56.4688 39.2413 56.0908 39.106 55.6241 39.106C55.2134 39.106 54.8541 39.2087 54.5461 39.414C54.2474 39.61 54.0654 39.904 54.0001 40.296H52.5161C52.5628 39.792 52.7308 39.3627 53.0201 39.008C53.3188 38.644 53.6921 38.3687 54.1401 38.182C54.5974 37.986 55.0968 37.888 55.6381 37.888C56.6088 37.888 57.3601 38.1447 57.8921 38.658C58.4241 39.162 58.6901 39.8527 58.6901 40.73V45H57.4021L57.2761 43.81C57.0801 44.1927 56.7954 44.5147 56.4221 44.776C56.0488 45.0373 55.5588 45.168 54.9521 45.168ZM55.2461 43.964C55.6474 43.964 55.9834 43.8707 56.2541 43.684C56.5341 43.488 56.7488 43.2313 56.8981 42.914C57.0568 42.5967 57.1548 42.2467 57.1921 41.864H55.5401C54.9521 41.864 54.5321 41.9667 54.2801 42.172C54.0374 42.3773 53.9161 42.634 53.9161 42.942C53.9161 43.2593 54.0328 43.5113 54.2661 43.698C54.5088 43.8753 54.8354 43.964 55.2461 43.964ZM63.7104 45.168C63.0291 45.168 62.4178 45.014 61.8764 44.706C61.3444 44.398 60.9244 43.9733 60.6164 43.432C60.3178 42.8813 60.1684 42.2467 60.1684 41.528C60.1684 40.8093 60.3178 40.1793 60.6164 39.638C60.9244 39.0873 61.3444 38.658 61.8764 38.35C62.4178 38.042 63.0291 37.888 63.7104 37.888C64.5691 37.888 65.2878 38.112 65.8664 38.56C66.4544 39.008 66.8324 39.6147 67.0004 40.38H65.4464C65.3531 39.9973 65.1478 39.6987 64.8304 39.484C64.5131 39.2693 64.1398 39.162 63.7104 39.162C63.3464 39.162 63.0104 39.2553 62.7024 39.442C62.3944 39.6193 62.1471 39.8853 61.9604 40.24C61.7738 40.5853 61.6804 41.0147 61.6804 41.528C61.6804 42.0413 61.7738 42.4753 61.9604 42.83C62.1471 43.1753 62.3944 43.4413 62.7024 43.628C63.0104 43.8147 63.3464 43.908 63.7104 43.908C64.1398 43.908 64.5131 43.8007 64.8304 43.586C65.1478 43.3713 65.3531 43.068 65.4464 42.676H67.0004C66.8418 43.4227 66.4684 44.0247 65.8804 44.482C65.2924 44.9393 64.5691 45.168 63.7104 45.168ZM71.8579 45.168C71.1765 45.168 70.5699 45.0187 70.0379 44.72C69.5152 44.412 69.1045 43.9873 68.8059 43.446C68.5072 42.9047 68.3579 42.2747 68.3579 41.556C68.3579 40.828 68.5025 40.1887 68.7919 39.638C69.0905 39.0873 69.5012 38.658 70.0239 38.35C70.5559 38.042 71.1719 37.888 71.8719 37.888C72.5532 37.888 73.1459 38.042 73.6499 38.35C74.1539 38.6487 74.5459 39.05 74.8259 39.554C75.1059 40.058 75.2459 40.6133 75.2459 41.22C75.2459 41.3133 75.2412 41.416 75.2319 41.528C75.2319 41.6307 75.2272 41.7473 75.2179 41.878H69.8139C69.8605 42.55 70.0799 43.0633 70.4719 43.418C70.8732 43.7633 71.3352 43.936 71.8579 43.936C72.2779 43.936 72.6279 43.8427 72.9079 43.656C73.1972 43.46 73.4119 43.1987 73.5519 42.872H75.0359C74.8492 43.5253 74.4759 44.0713 73.9159 44.51C73.3652 44.9487 72.6792 45.168 71.8579 45.168ZM71.8579 39.106C71.3632 39.106 70.9245 39.2553 70.5419 39.554C70.1592 39.8433 69.9259 40.282 69.8419 40.87H73.7619C73.7339 40.3287 73.5425 39.8993 73.1879 39.582C72.8332 39.2647 72.3899 39.106 71.8579 39.106ZM76.7857 45V34.92H78.2697V39.176C78.503 38.7747 78.825 38.462 79.2357 38.238C79.6557 38.0047 80.1177 37.888 80.6217 37.888C81.4523 37.888 82.1057 38.1493 82.5817 38.672C83.0577 39.1947 83.2957 39.974 83.2957 41.01V45H81.8257V41.164C81.8257 39.82 81.289 39.148 80.2157 39.148C79.6557 39.148 79.189 39.344 78.8157 39.736C78.4517 40.128 78.2697 40.688 78.2697 41.416V45H76.7857ZM88.2915 45.168C87.6288 45.168 87.0315 45.0187 86.4995 44.72C85.9768 44.412 85.5615 43.9873 85.2535 43.446C84.9455 42.8953 84.7915 42.256 84.7915 41.528C84.7915 40.8 84.9455 40.1653 85.2535 39.624C85.5708 39.0733 85.9955 38.6487 86.5275 38.35C87.0595 38.042 87.6521 37.888 88.3055 37.888C88.9681 37.888 89.5608 38.042 90.0835 38.35C90.6155 38.6487 91.0355 39.0733 91.3435 39.624C91.6608 40.1653 91.8195 40.8 91.8195 41.528C91.8195 42.256 91.6608 42.8953 91.3435 43.446C91.0355 43.9873 90.6155 44.412 90.0835 44.72C89.5515 45.0187 88.9541 45.168 88.2915 45.168ZM88.2915 43.894C88.6461 43.894 88.9728 43.8053 89.2715 43.628C89.5795 43.4507 89.8268 43.1893 90.0135 42.844C90.2001 42.4893 90.2935 42.0507 90.2935 41.528C90.2935 41.0053 90.2001 40.5713 90.0135 40.226C89.8361 39.8713 89.5935 39.6053 89.2855 39.428C88.9868 39.2507 88.6601 39.162 88.3055 39.162C87.9508 39.162 87.6195 39.2507 87.3115 39.428C87.0128 39.6053 86.7701 39.8713 86.5835 40.226C86.3968 40.5713 86.3035 41.0053 86.3035 41.528C86.3035 42.0507 86.3968 42.4893 86.5835 42.844C86.7701 43.1893 87.0128 43.4507 87.3115 43.628C87.6101 43.8053 87.9368 43.894 88.2915 43.894ZM93.4243 45V34.92H94.9083V45H93.4243ZM99.9516 45.168C99.2796 45.168 98.6869 45.0093 98.1736 44.692C97.6603 44.3747 97.2589 43.9407 96.9696 43.39C96.6803 42.8393 96.5356 42.214 96.5356 41.514C96.5356 40.814 96.6803 40.1933 96.9696 39.652C97.2589 39.1013 97.6603 38.672 98.1736 38.364C98.6963 38.0467 99.2936 37.888 99.9656 37.888C100.516 37.888 100.997 37.9953 101.408 38.21C101.828 38.4247 102.154 38.728 102.388 39.12V34.92H103.872V45H102.542L102.388 43.922C102.164 44.2487 101.856 44.538 101.464 44.79C101.072 45.042 100.568 45.168 99.9516 45.168ZM100.218 43.88C100.852 43.88 101.37 43.6607 101.772 43.222C102.182 42.7833 102.388 42.2187 102.388 41.528C102.388 40.828 102.182 40.2633 101.772 39.834C101.37 39.3953 100.852 39.176 100.218 39.176C99.5829 39.176 99.0603 39.3953 98.6496 39.834C98.2389 40.2633 98.0336 40.828 98.0336 41.528C98.0336 41.9853 98.1269 42.3913 98.3136 42.746C98.5003 43.1007 98.7569 43.3807 99.0836 43.586C99.4196 43.782 99.7976 43.88 100.218 43.88ZM108.991 45.168C108.309 45.168 107.703 45.0187 107.171 44.72C106.648 44.412 106.237 43.9873 105.939 43.446C105.64 42.9047 105.491 42.2747 105.491 41.556C105.491 40.828 105.635 40.1887 105.925 39.638C106.223 39.0873 106.634 38.658 107.157 38.35C107.689 38.042 108.305 37.888 109.005 37.888C109.686 37.888 110.279 38.042 110.783 38.35C111.287 38.6487 111.679 39.05 111.959 39.554C112.239 40.058 112.379 40.6133 112.379 41.22C112.379 41.3133 112.374 41.416 112.365 41.528C112.365 41.6307 112.36 41.7473 112.351 41.878H106.947C106.993 42.55 107.213 43.0633 107.605 43.418C108.006 43.7633 108.468 43.936 108.991 43.936C109.411 43.936 109.761 43.8427 110.041 43.656C110.33 43.46 110.545 43.1987 110.685 42.872H112.169C111.982 43.5253 111.609 44.0713 111.049 44.51C110.498 44.9487 109.812 45.168 108.991 45.168ZM108.991 39.106C108.496 39.106 108.057 39.2553 107.675 39.554C107.292 39.8433 107.059 40.282 106.975 40.87H110.895C110.867 40.3287 110.675 39.8993 110.321 39.582C109.966 39.2647 109.523 39.106 108.991 39.106ZM113.918 45V38.056H115.248L115.374 39.372C115.617 38.9147 115.953 38.5553 116.382 38.294C116.821 38.0233 117.348 37.888 117.964 37.888V39.442H117.558C117.148 39.442 116.779 39.512 116.452 39.652C116.135 39.7827 115.878 40.0113 115.682 40.338C115.496 40.6553 115.402 41.0987 115.402 41.668V45H113.918ZM119.264 45.084C118.984 45.084 118.751 44.9953 118.564 44.818C118.387 44.6313 118.298 44.412 118.298 44.16C118.298 43.8987 118.387 43.6793 118.564 43.502C118.751 43.3153 118.984 43.222 119.264 43.222C119.544 43.222 119.773 43.3153 119.95 43.502C120.128 43.6793 120.216 43.8987 120.216 44.16C120.216 44.412 120.128 44.6313 119.95 44.818C119.773 44.9953 119.544 45.084 119.264 45.084ZM122.299 45.084C122.019 45.084 121.786 44.9953 121.599 44.818C121.422 44.6313 121.333 44.412 121.333 44.16C121.333 43.8987 121.422 43.6793 121.599 43.502C121.786 43.3153 122.019 43.222 122.299 43.222C122.579 43.222 122.808 43.3153 122.985 43.502C123.163 43.6793 123.251 43.8987 123.251 44.16C123.251 44.412 123.163 44.6313 122.985 44.818C122.808 44.9953 122.579 45.084 122.299 45.084ZM125.335 45.084C125.055 45.084 124.821 44.9953 124.635 44.818C124.457 44.6313 124.369 44.412 124.369 44.16C124.369 43.8987 124.457 43.6793 124.635 43.502C124.821 43.3153 125.055 43.222 125.335 43.222C125.615 43.222 125.843 43.3153 126.021 43.502C126.198 43.6793 126.287 43.8987 126.287 44.16C126.287 44.412 126.198 44.6313 126.021 44.818C125.843 44.9953 125.615 45.084 125.335 45.084Z" fill="#616161"/>
</svg>
