<svg width="56" height="820" viewBox="0 0 56 820" fill="none" xmlns="http://www.w3.org/2000/svg">
<rect width="56" height="820" fill="#DEC9DF" fill-opacity="0.3"/>
<path d="M28.0003 68.2873C27.1628 68.2873 26.3128 68.0997 25.6503 67.7122L18.7753 63.7498C15.9753 61.8623 15.8003 61.5748 15.8003 58.6123V51.3873C15.8003 48.4248 15.9628 48.1373 18.7128 46.2748L25.6378 42.2748C26.9503 41.5123 29.0128 41.5123 30.3253 42.2748L37.2253 46.2498C40.0253 48.1373 40.2003 48.4248 40.2003 51.3873V58.5998C40.2003 61.5623 40.0378 61.8498 37.2878 63.7123L30.3628 67.7122C29.6878 68.0997 28.8378 68.2873 28.0003 68.2873ZM28.0003 43.5873C27.4753 43.5873 26.9628 43.6873 26.6003 43.8998L19.7253 47.8748C17.6878 49.2498 17.6878 49.2498 17.6878 51.3873V58.5998C17.6878 60.7373 17.6878 60.7373 19.7753 62.1498L26.6003 66.0873C27.3378 66.5123 28.6753 66.5123 29.4128 66.0873L36.2878 62.1123C38.3128 60.7373 38.3128 60.7373 38.3128 58.5998V51.3873C38.3128 49.2498 38.3128 49.2498 36.2253 47.8373L29.4003 43.8998C29.0378 43.6873 28.5253 43.5873 28.0003 43.5873Z" fill="black"/>
<path d="M28 59.6875C25.4125 59.6875 23.3125 57.5875 23.3125 55C23.3125 52.4125 25.4125 50.3125 28 50.3125C30.5875 50.3125 32.6875 52.4125 32.6875 55C32.6875 57.5875 30.5875 59.6875 28 59.6875ZM28 52.1875C26.45 52.1875 25.1875 53.45 25.1875 55C25.1875 56.55 26.45 57.8125 28 57.8125C29.55 57.8125 30.8125 56.55 30.8125 55C30.8125 53.45 29.55 52.1875 28 52.1875Z" fill="black"/>
<rect x="4" y="158" width="48" height="40" rx="4" fill="#F6EFF6"/>
<path d="M21.6395 185H34.3453L31.5135 182.168C31.0302 182.574 30.4927 182.891 29.901 183.117C29.3093 183.344 28.6757 183.457 28 183.457C27.3243 183.457 26.6886 183.344 26.0928 183.118C25.4969 182.893 24.9606 182.578 24.4838 182.175L21.6395 185ZM21.0615 184.274L23.8318 181.513C23.4224 181.03 23.1053 180.493 22.8805 179.901C22.6557 179.309 22.5433 178.676 22.5433 178C22.5433 177.324 22.6561 176.689 22.8818 176.093C23.1074 175.497 23.4218 174.957 23.825 174.474L21.0615 171.691V184.274ZM24.4895 180.856L27.351 178L24.4895 175.144C24.1612 175.542 23.9086 175.98 23.7318 176.458C23.5548 176.936 23.4663 177.449 23.4663 177.998C23.4663 178.547 23.5548 179.061 23.7318 179.539C23.9086 180.018 24.1612 180.457 24.4895 180.856ZM27.9983 182.534C28.5469 182.534 29.0606 182.445 29.5393 182.268C30.0181 182.091 30.4569 181.839 30.8558 181.51L28 178.63L25.1193 181.51C25.5169 181.839 25.959 182.091 26.4455 182.268C26.932 182.445 27.4496 182.534 27.9983 182.534ZM28 177.335L30.8558 174.48C30.4571 174.158 30.0188 173.907 29.541 173.727C29.0633 173.547 28.5503 173.457 28.0018 173.457C27.4531 173.457 26.9398 173.549 26.4618 173.733C25.9839 173.917 25.5448 174.166 25.1443 174.48L28 177.335ZM31.5203 180.856C31.8338 180.455 32.0826 180.016 32.2668 179.538C32.4511 179.061 32.5433 178.549 32.5433 178.001C32.5433 177.453 32.4532 176.935 32.273 176.448C32.093 175.961 31.8421 175.518 31.5203 175.119L28.652 177.975L31.5203 180.856ZM34.9385 184.274V171.691L32.175 174.474C32.5782 174.957 32.8942 175.496 33.123 176.09C33.3518 176.685 33.4663 177.321 33.4663 178C33.4663 178.676 33.3523 179.309 33.1243 179.901C32.8963 180.493 32.5808 181.03 32.178 181.513L34.9385 184.274ZM31.526 173.825L34.3703 171H21.6645L24.4865 173.822C24.9698 173.419 25.5073 173.104 26.099 172.876C26.6907 172.648 27.3243 172.534 28 172.534C28.6757 172.534 29.3114 172.648 29.9073 172.877C30.5031 173.106 31.0427 173.422 31.526 173.825ZM21.6723 185.861C21.2431 185.861 20.8802 185.713 20.5835 185.416C20.2868 185.12 20.1385 184.757 20.1385 184.328V171.672C20.1385 171.243 20.2868 170.88 20.5835 170.583C20.8802 170.287 21.2431 170.138 21.6723 170.138H34.3278C34.7569 170.138 35.1198 170.287 35.4165 170.583C35.7132 170.88 35.8615 171.243 35.8615 171.672V184.323C35.8615 184.749 35.7132 185.112 35.4165 185.412C35.1198 185.712 34.7569 185.861 34.3278 185.861H21.6723Z" fill="#3D3935"/>
<rect x="4" y="198" width="48" height="40" rx="4" fill="#F6EFF6"/>
<path d="M21.6395 225H34.3453L31.5135 222.168C31.0302 222.574 30.4927 222.891 29.901 223.117C29.3093 223.344 28.6757 223.457 28 223.457C27.3243 223.457 26.6886 223.344 26.0928 223.118C25.4969 222.893 24.9606 222.578 24.4838 222.175L21.6395 225ZM21.0615 224.274L23.8318 221.513C23.4224 221.03 23.1053 220.493 22.8805 219.901C22.6557 219.309 22.5433 218.676 22.5433 218C22.5433 217.324 22.6561 216.689 22.8818 216.093C23.1074 215.497 23.4218 214.957 23.825 214.474L21.0615 211.691V224.274ZM24.4895 220.856L27.351 218L24.4895 215.144C24.1612 215.542 23.9086 215.98 23.7318 216.458C23.5548 216.936 23.4663 217.449 23.4663 217.998C23.4663 218.547 23.5548 219.061 23.7318 219.539C23.9086 220.018 24.1612 220.457 24.4895 220.856ZM27.9983 222.534C28.5469 222.534 29.0606 222.445 29.5393 222.268C30.0181 222.091 30.4569 221.839 30.8558 221.51L28 218.63L25.1193 221.51C25.5169 221.839 25.959 222.091 26.4455 222.268C26.932 222.445 27.4496 222.534 27.9983 222.534ZM28 217.335L30.8558 214.48C30.4571 214.158 30.0188 213.907 29.541 213.727C29.0633 213.547 28.5503 213.457 28.0018 213.457C27.4531 213.457 26.9398 213.549 26.4618 213.733C25.9839 213.917 25.5448 214.166 25.1443 214.48L28 217.335ZM31.5203 220.856C31.8338 220.455 32.0826 220.016 32.2668 219.538C32.4511 219.061 32.5433 218.549 32.5433 218.001C32.5433 217.453 32.4532 216.935 32.273 216.448C32.093 215.961 31.8421 215.518 31.5203 215.119L28.652 217.975L31.5203 220.856ZM34.9385 224.274V211.691L32.175 214.474C32.5782 214.957 32.8942 215.496 33.123 216.09C33.3518 216.685 33.4663 217.321 33.4663 218C33.4663 218.676 33.3523 219.309 33.1243 219.901C32.8963 220.493 32.5808 221.03 32.178 221.513L34.9385 224.274ZM31.526 213.825L34.3703 211H21.6645L24.4865 213.822C24.9698 213.419 25.5073 213.104 26.099 212.876C26.6907 212.648 27.3243 212.534 28 212.534C28.6757 212.534 29.3114 212.648 29.9073 212.877C30.5031 213.106 31.0427 213.422 31.526 213.825ZM21.6723 225.861C21.2431 225.861 20.8802 225.713 20.5835 225.416C20.2868 225.12 20.1385 224.757 20.1385 224.328V211.672C20.1385 211.243 20.2868 210.88 20.5835 210.583C20.8802 210.287 21.2431 210.138 21.6723 210.138H34.3278C34.7569 210.138 35.1198 210.287 35.4165 210.583C35.7132 210.88 35.8615 211.243 35.8615 211.672V224.323C35.8615 224.749 35.7132 225.112 35.4165 225.412C35.1198 225.712 34.7569 225.861 34.3278 225.861H21.6723Z" fill="#3D3935"/>
<rect x="4" y="238" width="48" height="40" rx="4" fill="#F6EFF6"/>
<path d="M21.6395 265H34.3453L31.5135 262.168C31.0302 262.574 30.4927 262.891 29.901 263.117C29.3093 263.344 28.6757 263.457 28 263.457C27.3243 263.457 26.6886 263.344 26.0928 263.118C25.4969 262.893 24.9606 262.578 24.4838 262.175L21.6395 265ZM21.0615 264.274L23.8318 261.513C23.4224 261.03 23.1053 260.493 22.8805 259.901C22.6557 259.309 22.5433 258.676 22.5433 258C22.5433 257.324 22.6561 256.689 22.8818 256.093C23.1074 255.497 23.4218 254.957 23.825 254.474L21.0615 251.691V264.274ZM24.4895 260.856L27.351 258L24.4895 255.144C24.1612 255.542 23.9086 255.98 23.7318 256.458C23.5548 256.936 23.4663 257.449 23.4663 257.998C23.4663 258.547 23.5548 259.061 23.7318 259.539C23.9086 260.018 24.1612 260.457 24.4895 260.856ZM27.9983 262.534C28.5469 262.534 29.0606 262.445 29.5393 262.268C30.0181 262.091 30.4569 261.839 30.8558 261.51L28 258.63L25.1193 261.51C25.5169 261.839 25.959 262.091 26.4455 262.268C26.932 262.445 27.4496 262.534 27.9983 262.534ZM28 257.335L30.8558 254.48C30.4571 254.158 30.0188 253.907 29.541 253.727C29.0633 253.547 28.5503 253.457 28.0018 253.457C27.4531 253.457 26.9398 253.549 26.4618 253.733C25.9839 253.917 25.5448 254.166 25.1443 254.48L28 257.335ZM31.5203 260.856C31.8338 260.455 32.0826 260.016 32.2668 259.538C32.4511 259.061 32.5433 258.549 32.5433 258.001C32.5433 257.453 32.4532 256.935 32.273 256.448C32.093 255.961 31.8421 255.518 31.5203 255.119L28.652 257.975L31.5203 260.856ZM34.9385 264.274V251.691L32.175 254.474C32.5782 254.957 32.8942 255.496 33.123 256.09C33.3518 256.685 33.4663 257.321 33.4663 258C33.4663 258.676 33.3523 259.309 33.1243 259.901C32.8963 260.493 32.5808 261.03 32.178 261.513L34.9385 264.274ZM31.526 253.825L34.3703 251H21.6645L24.4865 253.822C24.9698 253.419 25.5073 253.104 26.099 252.876C26.6907 252.648 27.3243 252.534 28 252.534C28.6757 252.534 29.3114 252.648 29.9073 252.877C30.5031 253.106 31.0427 253.422 31.526 253.825ZM21.6723 265.861C21.2431 265.861 20.8802 265.713 20.5835 265.416C20.2868 265.12 20.1385 264.757 20.1385 264.328V251.672C20.1385 251.243 20.2868 250.88 20.5835 250.583C20.8802 250.287 21.2431 250.138 21.6723 250.138H34.3278C34.7569 250.138 35.1198 250.287 35.4165 250.583C35.7132 250.88 35.8615 251.243 35.8615 251.672V264.323C35.8615 264.749 35.7132 265.112 35.4165 265.412C35.1198 265.712 34.7569 265.861 34.3278 265.861H21.6723Z" fill="#0B1C19"/>
<rect x="4" y="278" width="48" height="40" rx="4" fill="#F6EFF6"/>
<path d="M21.6395 305H34.3453L31.5135 302.168C31.0302 302.574 30.4927 302.891 29.901 303.117C29.3093 303.344 28.6757 303.457 28 303.457C27.3243 303.457 26.6886 303.344 26.0928 303.118C25.4969 302.893 24.9606 302.578 24.4838 302.175L21.6395 305ZM21.0615 304.274L23.8318 301.513C23.4224 301.03 23.1053 300.493 22.8805 299.901C22.6557 299.309 22.5433 298.676 22.5433 298C22.5433 297.324 22.6561 296.689 22.8818 296.093C23.1074 295.497 23.4218 294.957 23.825 294.474L21.0615 291.691V304.274ZM24.4895 300.856L27.351 298L24.4895 295.144C24.1612 295.542 23.9086 295.98 23.7318 296.458C23.5548 296.936 23.4663 297.449 23.4663 297.998C23.4663 298.547 23.5548 299.061 23.7318 299.539C23.9086 300.018 24.1612 300.457 24.4895 300.856ZM27.9983 302.534C28.5469 302.534 29.0606 302.445 29.5393 302.268C30.0181 302.091 30.4569 301.839 30.8558 301.51L28 298.63L25.1193 301.51C25.5169 301.839 25.959 302.091 26.4455 302.268C26.932 302.445 27.4496 302.534 27.9983 302.534ZM28 297.335L30.8558 294.48C30.4571 294.158 30.0188 293.907 29.541 293.727C29.0633 293.547 28.5503 293.457 28.0018 293.457C27.4531 293.457 26.9398 293.549 26.4618 293.733C25.9839 293.917 25.5448 294.166 25.1443 294.48L28 297.335ZM31.5203 300.856C31.8338 300.455 32.0826 300.016 32.2668 299.538C32.4511 299.061 32.5433 298.549 32.5433 298.001C32.5433 297.453 32.4532 296.935 32.273 296.448C32.093 295.961 31.8421 295.518 31.5203 295.119L28.652 297.975L31.5203 300.856ZM34.9385 304.274V291.691L32.175 294.474C32.5782 294.957 32.8942 295.496 33.123 296.09C33.3518 296.685 33.4663 297.321 33.4663 298C33.4663 298.676 33.3523 299.309 33.1243 299.901C32.8963 300.493 32.5808 301.03 32.178 301.513L34.9385 304.274ZM31.526 293.825L34.3703 291H21.6645L24.4865 293.822C24.9698 293.419 25.5073 293.104 26.099 292.876C26.6907 292.648 27.3243 292.534 28 292.534C28.6757 292.534 29.3114 292.648 29.9073 292.877C30.5031 293.106 31.0427 293.422 31.526 293.825ZM21.6723 305.861C21.2431 305.861 20.8802 305.713 20.5835 305.416C20.2868 305.12 20.1385 304.757 20.1385 304.328V291.672C20.1385 291.243 20.2868 290.88 20.5835 290.583C20.8802 290.287 21.2431 290.138 21.6723 290.138H34.3278C34.7569 290.138 35.1198 290.287 35.4165 290.583C35.7132 290.88 35.8615 291.243 35.8615 291.672V304.323C35.8615 304.749 35.7132 305.112 35.4165 305.412C35.1198 305.712 34.7569 305.861 34.3278 305.861H21.6723Z" fill="#3D3935"/>
<rect x="4" y="318" width="48" height="40" rx="4" fill="#F6EFF6"/>
<path d="M21.6395 345H34.3453L31.5135 342.168C31.0302 342.574 30.4927 342.891 29.901 343.117C29.3093 343.344 28.6757 343.457 28 343.457C27.3243 343.457 26.6886 343.344 26.0928 343.118C25.4969 342.893 24.9606 342.578 24.4838 342.175L21.6395 345ZM21.0615 344.274L23.8318 341.513C23.4224 341.03 23.1053 340.493 22.8805 339.901C22.6557 339.309 22.5433 338.676 22.5433 338C22.5433 337.324 22.6561 336.689 22.8818 336.093C23.1074 335.497 23.4218 334.957 23.825 334.474L21.0615 331.691V344.274ZM24.4895 340.856L27.351 338L24.4895 335.144C24.1612 335.542 23.9086 335.98 23.7318 336.458C23.5548 336.936 23.4663 337.449 23.4663 337.998C23.4663 338.547 23.5548 339.061 23.7318 339.539C23.9086 340.018 24.1612 340.457 24.4895 340.856ZM27.9983 342.534C28.5469 342.534 29.0606 342.445 29.5393 342.268C30.0181 342.091 30.4569 341.839 30.8558 341.51L28 338.63L25.1193 341.51C25.5169 341.839 25.959 342.091 26.4455 342.268C26.932 342.445 27.4496 342.534 27.9983 342.534ZM28 337.335L30.8558 334.48C30.4571 334.158 30.0188 333.907 29.541 333.727C29.0633 333.547 28.5503 333.457 28.0018 333.457C27.4531 333.457 26.9398 333.549 26.4618 333.733C25.9839 333.917 25.5448 334.166 25.1443 334.48L28 337.335ZM31.5203 340.856C31.8338 340.455 32.0826 340.016 32.2668 339.538C32.4511 339.061 32.5433 338.549 32.5433 338.001C32.5433 337.453 32.4532 336.935 32.273 336.448C32.093 335.961 31.8421 335.518 31.5203 335.119L28.652 337.975L31.5203 340.856ZM34.9385 344.274V331.691L32.175 334.474C32.5782 334.957 32.8942 335.496 33.123 336.09C33.3518 336.685 33.4663 337.321 33.4663 338C33.4663 338.676 33.3523 339.309 33.1243 339.901C32.8963 340.493 32.5808 341.03 32.178 341.513L34.9385 344.274ZM31.526 333.825L34.3703 331H21.6645L24.4865 333.822C24.9698 333.419 25.5073 333.104 26.099 332.876C26.6907 332.648 27.3243 332.534 28 332.534C28.6757 332.534 29.3114 332.648 29.9073 332.877C30.5031 333.106 31.0427 333.422 31.526 333.825ZM21.6723 345.861C21.2431 345.861 20.8802 345.713 20.5835 345.416C20.2868 345.12 20.1385 344.757 20.1385 344.328V331.672C20.1385 331.243 20.2868 330.88 20.5835 330.583C20.8802 330.287 21.2431 330.138 21.6723 330.138H34.3278C34.7569 330.138 35.1198 330.287 35.4165 330.583C35.7132 330.88 35.8615 331.243 35.8615 331.672V344.323C35.8615 344.749 35.7132 345.112 35.4165 345.412C35.1198 345.712 34.7569 345.861 34.3278 345.861H21.6723Z" fill="#3D3935"/>
<rect x="4" y="358" width="48" height="40" rx="4" fill="#F6EFF6"/>
<path d="M21.6395 385H34.3453L31.5135 382.168C31.0302 382.574 30.4927 382.891 29.901 383.117C29.3093 383.344 28.6757 383.457 28 383.457C27.3243 383.457 26.6886 383.344 26.0928 383.118C25.4969 382.893 24.9606 382.578 24.4838 382.175L21.6395 385ZM21.0615 384.274L23.8318 381.513C23.4224 381.03 23.1053 380.493 22.8805 379.901C22.6557 379.309 22.5433 378.676 22.5433 378C22.5433 377.324 22.6561 376.689 22.8818 376.093C23.1074 375.497 23.4218 374.957 23.825 374.474L21.0615 371.691V384.274ZM24.4895 380.856L27.351 378L24.4895 375.144C24.1612 375.542 23.9086 375.98 23.7318 376.458C23.5548 376.936 23.4663 377.449 23.4663 377.998C23.4663 378.547 23.5548 379.061 23.7318 379.539C23.9086 380.018 24.1612 380.457 24.4895 380.856ZM27.9983 382.534C28.5469 382.534 29.0606 382.445 29.5393 382.268C30.0181 382.091 30.4569 381.839 30.8558 381.51L28 378.63L25.1193 381.51C25.5169 381.839 25.959 382.091 26.4455 382.268C26.932 382.445 27.4496 382.534 27.9983 382.534ZM28 377.335L30.8558 374.48C30.4571 374.158 30.0188 373.907 29.541 373.727C29.0633 373.547 28.5503 373.457 28.0018 373.457C27.4531 373.457 26.9398 373.549 26.4618 373.733C25.9839 373.917 25.5448 374.166 25.1443 374.48L28 377.335ZM31.5203 380.856C31.8338 380.455 32.0826 380.016 32.2668 379.538C32.4511 379.061 32.5433 378.549 32.5433 378.001C32.5433 377.453 32.4532 376.935 32.273 376.448C32.093 375.961 31.8421 375.518 31.5203 375.119L28.652 377.975L31.5203 380.856ZM34.9385 384.274V371.691L32.175 374.474C32.5782 374.957 32.8942 375.496 33.123 376.09C33.3518 376.685 33.4663 377.321 33.4663 378C33.4663 378.676 33.3523 379.309 33.1243 379.901C32.8963 380.493 32.5808 381.03 32.178 381.513L34.9385 384.274ZM31.526 373.825L34.3703 371H21.6645L24.4865 373.822C24.9698 373.419 25.5073 373.104 26.099 372.876C26.6907 372.648 27.3243 372.534 28 372.534C28.6757 372.534 29.3114 372.648 29.9073 372.877C30.5031 373.106 31.0427 373.422 31.526 373.825ZM21.6723 385.861C21.2431 385.861 20.8802 385.713 20.5835 385.416C20.2868 385.12 20.1385 384.757 20.1385 384.328V371.672C20.1385 371.243 20.2868 370.88 20.5835 370.583C20.8802 370.287 21.2431 370.138 21.6723 370.138H34.3278C34.7569 370.138 35.1198 370.287 35.4165 370.583C35.7132 370.88 35.8615 371.243 35.8615 371.672V384.323C35.8615 384.749 35.7132 385.112 35.4165 385.412C35.1198 385.712 34.7569 385.861 34.3278 385.861H21.6723Z" fill="#3D3935"/>
<rect x="4" y="398" width="48" height="40" rx="4" fill="#F6EFF6"/>
<path d="M21.6395 425H34.3453L31.5135 422.168C31.0302 422.574 30.4927 422.891 29.901 423.117C29.3093 423.344 28.6757 423.457 28 423.457C27.3243 423.457 26.6886 423.344 26.0928 423.118C25.4969 422.893 24.9606 422.578 24.4838 422.175L21.6395 425ZM21.0615 424.274L23.8318 421.513C23.4224 421.03 23.1053 420.493 22.8805 419.901C22.6557 419.309 22.5433 418.676 22.5433 418C22.5433 417.324 22.6561 416.689 22.8818 416.093C23.1074 415.497 23.4218 414.957 23.825 414.474L21.0615 411.691V424.274ZM24.4895 420.856L27.351 418L24.4895 415.144C24.1612 415.542 23.9086 415.98 23.7318 416.458C23.5548 416.936 23.4663 417.449 23.4663 417.998C23.4663 418.547 23.5548 419.061 23.7318 419.539C23.9086 420.018 24.1612 420.457 24.4895 420.856ZM27.9983 422.534C28.5469 422.534 29.0606 422.445 29.5393 422.268C30.0181 422.091 30.4569 421.839 30.8558 421.51L28 418.63L25.1193 421.51C25.5169 421.839 25.959 422.091 26.4455 422.268C26.932 422.445 27.4496 422.534 27.9983 422.534ZM28 417.335L30.8558 414.48C30.4571 414.158 30.0188 413.907 29.541 413.727C29.0633 413.547 28.5503 413.457 28.0018 413.457C27.4531 413.457 26.9398 413.549 26.4618 413.733C25.9839 413.917 25.5448 414.166 25.1443 414.48L28 417.335ZM31.5203 420.856C31.8338 420.455 32.0826 420.016 32.2668 419.538C32.4511 419.061 32.5433 418.549 32.5433 418.001C32.5433 417.453 32.4532 416.935 32.273 416.448C32.093 415.961 31.8421 415.518 31.5203 415.119L28.652 417.975L31.5203 420.856ZM34.9385 424.274V411.691L32.175 414.474C32.5782 414.957 32.8942 415.496 33.123 416.09C33.3518 416.685 33.4663 417.321 33.4663 418C33.4663 418.676 33.3523 419.309 33.1243 419.901C32.8963 420.493 32.5808 421.03 32.178 421.513L34.9385 424.274ZM31.526 413.825L34.3703 411H21.6645L24.4865 413.822C24.9698 413.419 25.5073 413.104 26.099 412.876C26.6907 412.648 27.3243 412.534 28 412.534C28.6757 412.534 29.3114 412.648 29.9073 412.877C30.5031 413.106 31.0427 413.422 31.526 413.825ZM21.6723 425.861C21.2431 425.861 20.8802 425.713 20.5835 425.416C20.2868 425.12 20.1385 424.757 20.1385 424.328V411.672C20.1385 411.243 20.2868 410.88 20.5835 410.583C20.8802 410.287 21.2431 410.138 21.6723 410.138H34.3278C34.7569 410.138 35.1198 410.287 35.4165 410.583C35.7132 410.88 35.8615 411.243 35.8615 411.672V424.323C35.8615 424.749 35.7132 425.112 35.4165 425.412C35.1198 425.712 34.7569 425.861 34.3278 425.861H21.6723Z" fill="#3D3935"/>
<rect x="4" y="438" width="48" height="40" rx="4" fill="#F6EFF6"/>
<path d="M21.6395 465H34.3453L31.5135 462.168C31.0302 462.574 30.4927 462.891 29.901 463.117C29.3093 463.344 28.6757 463.457 28 463.457C27.3243 463.457 26.6886 463.344 26.0928 463.118C25.4969 462.893 24.9606 462.578 24.4838 462.175L21.6395 465ZM21.0615 464.274L23.8318 461.513C23.4224 461.03 23.1053 460.493 22.8805 459.901C22.6557 459.309 22.5433 458.676 22.5433 458C22.5433 457.324 22.6561 456.689 22.8818 456.093C23.1074 455.497 23.4218 454.957 23.825 454.474L21.0615 451.691V464.274ZM24.4895 460.856L27.351 458L24.4895 455.144C24.1612 455.542 23.9086 455.98 23.7318 456.458C23.5548 456.936 23.4663 457.449 23.4663 457.998C23.4663 458.547 23.5548 459.061 23.7318 459.539C23.9086 460.018 24.1612 460.457 24.4895 460.856ZM27.9983 462.534C28.5469 462.534 29.0606 462.445 29.5393 462.268C30.0181 462.091 30.4569 461.839 30.8558 461.51L28 458.63L25.1193 461.51C25.5169 461.839 25.959 462.091 26.4455 462.268C26.932 462.445 27.4496 462.534 27.9983 462.534ZM28 457.335L30.8558 454.48C30.4571 454.158 30.0188 453.907 29.541 453.727C29.0633 453.547 28.5503 453.457 28.0018 453.457C27.4531 453.457 26.9398 453.549 26.4618 453.733C25.9839 453.917 25.5448 454.166 25.1443 454.48L28 457.335ZM31.5203 460.856C31.8338 460.455 32.0826 460.016 32.2668 459.538C32.4511 459.061 32.5433 458.549 32.5433 458.001C32.5433 457.453 32.4532 456.935 32.273 456.448C32.093 455.961 31.8421 455.518 31.5203 455.119L28.652 457.975L31.5203 460.856ZM34.9385 464.274V451.691L32.175 454.474C32.5782 454.957 32.8942 455.496 33.123 456.09C33.3518 456.685 33.4663 457.321 33.4663 458C33.4663 458.676 33.3523 459.309 33.1243 459.901C32.8963 460.493 32.5808 461.03 32.178 461.513L34.9385 464.274ZM31.526 453.825L34.3703 451H21.6645L24.4865 453.822C24.9698 453.419 25.5073 453.104 26.099 452.876C26.6907 452.648 27.3243 452.534 28 452.534C28.6757 452.534 29.3114 452.648 29.9073 452.877C30.5031 453.106 31.0427 453.422 31.526 453.825ZM21.6723 465.861C21.2431 465.861 20.8802 465.713 20.5835 465.416C20.2868 465.12 20.1385 464.757 20.1385 464.328V451.672C20.1385 451.243 20.2868 450.88 20.5835 450.583C20.8802 450.287 21.2431 450.138 21.6723 450.138H34.3278C34.7569 450.138 35.1198 450.287 35.4165 450.583C35.7132 450.88 35.8615 451.243 35.8615 451.672V464.323C35.8615 464.749 35.7132 465.112 35.4165 465.412C35.1198 465.712 34.7569 465.861 34.3278 465.861H21.6723Z" fill="#3D3935"/>
<rect x="4" y="478" width="48" height="40" rx="4" fill="#F6EFF6"/>
<path d="M21.6395 505H34.3453L31.5135 502.168C31.0302 502.574 30.4927 502.891 29.901 503.117C29.3093 503.344 28.6757 503.457 28 503.457C27.3243 503.457 26.6886 503.344 26.0928 503.118C25.4969 502.893 24.9606 502.578 24.4838 502.175L21.6395 505ZM21.0615 504.274L23.8318 501.513C23.4224 501.03 23.1053 500.493 22.8805 499.901C22.6557 499.309 22.5433 498.676 22.5433 498C22.5433 497.324 22.6561 496.689 22.8818 496.093C23.1074 495.497 23.4218 494.957 23.825 494.474L21.0615 491.691V504.274ZM24.4895 500.856L27.351 498L24.4895 495.144C24.1612 495.542 23.9086 495.98 23.7318 496.458C23.5548 496.936 23.4663 497.449 23.4663 497.998C23.4663 498.547 23.5548 499.061 23.7318 499.539C23.9086 500.018 24.1612 500.457 24.4895 500.856ZM27.9983 502.534C28.5469 502.534 29.0606 502.445 29.5393 502.268C30.0181 502.091 30.4569 501.839 30.8558 501.51L28 498.63L25.1193 501.51C25.5169 501.839 25.959 502.091 26.4455 502.268C26.932 502.445 27.4496 502.534 27.9983 502.534ZM28 497.335L30.8558 494.48C30.4571 494.158 30.0188 493.907 29.541 493.727C29.0633 493.547 28.5503 493.457 28.0018 493.457C27.4531 493.457 26.9398 493.549 26.4618 493.733C25.9839 493.917 25.5448 494.166 25.1443 494.48L28 497.335ZM31.5203 500.856C31.8338 500.455 32.0826 500.016 32.2668 499.538C32.4511 499.061 32.5433 498.549 32.5433 498.001C32.5433 497.453 32.4532 496.935 32.273 496.448C32.093 495.961 31.8421 495.518 31.5203 495.119L28.652 497.975L31.5203 500.856ZM34.9385 504.274V491.691L32.175 494.474C32.5782 494.957 32.8942 495.496 33.123 496.09C33.3518 496.685 33.4663 497.321 33.4663 498C33.4663 498.676 33.3523 499.309 33.1243 499.901C32.8963 500.493 32.5808 501.03 32.178 501.513L34.9385 504.274ZM31.526 493.825L34.3703 491H21.6645L24.4865 493.822C24.9698 493.419 25.5073 493.104 26.099 492.876C26.6907 492.648 27.3243 492.534 28 492.534C28.6757 492.534 29.3114 492.648 29.9073 492.877C30.5031 493.106 31.0427 493.422 31.526 493.825ZM21.6723 505.861C21.2431 505.861 20.8802 505.713 20.5835 505.416C20.2868 505.12 20.1385 504.757 20.1385 504.328V491.672C20.1385 491.243 20.2868 490.88 20.5835 490.583C20.8802 490.287 21.2431 490.138 21.6723 490.138H34.3278C34.7569 490.138 35.1198 490.287 35.4165 490.583C35.7132 490.88 35.8615 491.243 35.8615 491.672V504.323C35.8615 504.749 35.7132 505.112 35.4165 505.412C35.1198 505.712 34.7569 505.861 34.3278 505.861H21.6723Z" fill="#3D3935"/>
<rect x="4" y="518" width="48" height="40" rx="4" fill="#F6EFF6"/>
<path d="M21.6395 545H34.3453L31.5135 542.168C31.0302 542.574 30.4927 542.891 29.901 543.117C29.3093 543.344 28.6757 543.457 28 543.457C27.3243 543.457 26.6886 543.344 26.0928 543.118C25.4969 542.893 24.9606 542.578 24.4838 542.175L21.6395 545ZM21.0615 544.274L23.8318 541.513C23.4224 541.03 23.1053 540.493 22.8805 539.901C22.6557 539.309 22.5433 538.676 22.5433 538C22.5433 537.324 22.6561 536.689 22.8818 536.093C23.1074 535.497 23.4218 534.957 23.825 534.474L21.0615 531.691V544.274ZM24.4895 540.856L27.351 538L24.4895 535.144C24.1612 535.542 23.9086 535.98 23.7318 536.458C23.5548 536.936 23.4663 537.449 23.4663 537.998C23.4663 538.547 23.5548 539.061 23.7318 539.539C23.9086 540.018 24.1612 540.457 24.4895 540.856ZM27.9983 542.534C28.5469 542.534 29.0606 542.445 29.5393 542.268C30.0181 542.091 30.4569 541.839 30.8558 541.51L28 538.63L25.1193 541.51C25.5169 541.839 25.959 542.091 26.4455 542.268C26.932 542.445 27.4496 542.534 27.9983 542.534ZM28 537.335L30.8558 534.48C30.4571 534.158 30.0188 533.907 29.541 533.727C29.0633 533.547 28.5503 533.457 28.0018 533.457C27.4531 533.457 26.9398 533.549 26.4618 533.733C25.9839 533.917 25.5448 534.166 25.1443 534.48L28 537.335ZM31.5203 540.856C31.8338 540.455 32.0826 540.016 32.2668 539.538C32.4511 539.061 32.5433 538.549 32.5433 538.001C32.5433 537.453 32.4532 536.935 32.273 536.448C32.093 535.961 31.8421 535.518 31.5203 535.119L28.652 537.975L31.5203 540.856ZM34.9385 544.274V531.691L32.175 534.474C32.5782 534.957 32.8942 535.496 33.123 536.09C33.3518 536.685 33.4663 537.321 33.4663 538C33.4663 538.676 33.3523 539.309 33.1243 539.901C32.8963 540.493 32.5808 541.03 32.178 541.513L34.9385 544.274ZM31.526 533.825L34.3703 531H21.6645L24.4865 533.822C24.9698 533.419 25.5073 533.104 26.099 532.876C26.6907 532.648 27.3243 532.534 28 532.534C28.6757 532.534 29.3114 532.648 29.9073 532.877C30.5031 533.106 31.0427 533.422 31.526 533.825ZM21.6723 545.861C21.2431 545.861 20.8802 545.713 20.5835 545.416C20.2868 545.12 20.1385 544.757 20.1385 544.328V531.672C20.1385 531.243 20.2868 530.88 20.5835 530.583C20.8802 530.287 21.2431 530.138 21.6723 530.138H34.3278C34.7569 530.138 35.1198 530.287 35.4165 530.583C35.7132 530.88 35.8615 531.243 35.8615 531.672V544.323C35.8615 544.749 35.7132 545.112 35.4165 545.412C35.1198 545.712 34.7569 545.861 34.3278 545.861H21.6723Z" fill="#3D3935"/>
<rect x="4" y="760" width="48" height="56" rx="4" fill="#F6EFF6"/>
<path d="M21 789C20.45 789 19.9792 788.804 19.5875 788.413C19.1958 788.021 19 787.55 19 787V773C19 772.45 19.1958 771.979 19.5875 771.588C19.9792 771.196 20.45 771 21 771H27C27.2833 771 27.5208 771.096 27.7125 771.288C27.9042 771.479 28 771.717 28 772C28 772.283 27.9042 772.521 27.7125 772.713C27.5208 772.904 27.2833 773 27 773H21V787H27C27.2833 787 27.5208 787.096 27.7125 787.288C27.9042 787.479 28 787.717 28 788C28 788.283 27.9042 788.521 27.7125 788.713C27.5208 788.904 27.2833 789 27 789H21ZM33.175 781H26C25.7167 781 25.4792 780.904 25.2875 780.713C25.0958 780.521 25 780.283 25 780C25 779.717 25.0958 779.479 25.2875 779.288C25.4792 779.096 25.7167 779 26 779H33.175L31.3 777.125C31.1167 776.942 31.025 776.717 31.025 776.45C31.025 776.183 31.1167 775.95 31.3 775.75C31.4833 775.55 31.7167 775.446 32 775.438C32.2833 775.429 32.525 775.525 32.725 775.725L36.3 779.3C36.5 779.5 36.6 779.733 36.6 780C36.6 780.267 36.5 780.5 36.3 780.7L32.725 784.275C32.525 784.475 32.2875 784.571 32.0125 784.563C31.7375 784.554 31.5 784.45 31.3 784.25C31.1167 784.05 31.0292 783.813 31.0375 783.538C31.0458 783.263 31.1417 783.033 31.325 782.85L33.175 781Z" fill="#333333"/>
</svg>
