<svg width="82" height="56" viewBox="0 0 82 56" fill="none" xmlns="http://www.w3.org/2000/svg">
<path d="M0 4C0 1.79086 1.79086 0 4 0H78C80.2091 0 82 1.79086 82 4V52C82 54.2091 80.2091 56 78 56H4C1.79086 56 0 54.2091 0 52V4Z" fill="#0B1C19"/>
<path d="M34.6395 26.9999H47.3452L44.5135 24.1682C44.0302 24.5743 43.4927 24.8907 42.901 25.1172C42.3093 25.3435 41.6757 25.4567 41 25.4567C40.3243 25.4567 39.6886 25.3438 39.0927 25.1182C38.4969 24.8925 37.9606 24.5781 37.4837 24.1749L34.6395 26.9999ZM34.0615 26.2739L36.8317 23.5134C36.4224 23.0301 36.1053 22.4926 35.8805 21.9009C35.6557 21.3093 35.5432 20.6756 35.5432 19.9999C35.5432 19.3243 35.6561 18.6885 35.8817 18.0927C36.1074 17.4968 36.4218 16.9573 36.825 16.4739L34.0615 13.6912V26.2739ZM37.4895 22.8557L40.351 19.9999L37.4895 17.1442C37.1612 17.5418 36.9086 17.9798 36.7317 18.4579C36.5547 18.9359 36.4662 19.4493 36.4662 19.9979C36.4662 20.5468 36.5547 21.0605 36.7317 21.5392C36.9086 22.018 37.1612 22.4568 37.4895 22.8557ZM40.9982 24.5337C41.5469 24.5337 42.0606 24.4452 42.5392 24.2682C43.0181 24.0913 43.4569 23.8388 43.8557 23.5104L41 20.6297L38.1192 23.5104C38.5169 23.8388 38.959 24.0913 39.4455 24.2682C39.932 24.4452 40.4496 24.5337 40.9982 24.5337ZM41 19.3354L43.8557 16.4797C43.4571 16.1578 43.0188 15.9069 42.541 15.7269C42.0633 15.5468 41.5502 15.4567 41.0017 15.4567C40.4531 15.4567 39.9397 15.5488 39.4617 15.7332C38.9839 15.9173 38.5447 16.1662 38.1442 16.4797L41 19.3354ZM44.5202 22.8557C44.8337 22.4548 45.0826 22.0158 45.2667 21.5384C45.4511 21.0611 45.5432 20.5485 45.5432 20.0007C45.5432 19.4527 45.4532 18.9353 45.273 18.4484C45.093 17.9614 44.8421 17.5183 44.5202 17.1192L41.652 19.9749L44.5202 22.8557ZM47.9385 26.2739V13.6912L45.175 16.4739C45.5782 16.9573 45.8942 17.4961 46.123 18.0904C46.3518 18.6848 46.4662 19.3213 46.4662 19.9999C46.4662 20.6756 46.3522 21.3093 46.1242 21.9009C45.8962 22.4926 45.5808 23.0301 45.178 23.5134L47.9385 26.2739ZM44.526 15.8249L47.3702 12.9999H34.6645L37.4865 15.8219C37.9698 15.4191 38.5073 15.1037 39.099 14.8757C39.6907 14.6477 40.3243 14.5337 41 14.5337C41.6757 14.5337 42.3114 14.6481 42.9072 14.8769C43.5031 15.1058 44.0427 15.4218 44.526 15.8249ZM34.6722 27.8614C34.2431 27.8614 33.8802 27.7131 33.5835 27.4164C33.2868 27.1198 33.1385 26.7568 33.1385 26.3277V13.6722C33.1385 13.243 33.2868 12.8801 33.5835 12.5834C33.8802 12.2868 34.2431 12.1384 34.6722 12.1384H47.3277C47.7569 12.1384 48.1198 12.2868 48.4165 12.5834C48.7132 12.8801 48.8615 13.2429 48.8615 13.6719V26.3229C48.8615 26.7493 48.7132 27.1123 48.4165 27.4119C48.1198 27.7116 47.7569 27.8614 47.3277 27.8614H34.6722Z" fill="white"/>
<path d="M25.868 39.6H26.756V47.232H31.46V48H25.868V39.6ZM34.9858 41.64C35.8098 41.64 36.4418 41.848 36.8818 42.264C37.3218 42.672 37.5418 43.28 37.5418 44.088V48H36.7258V47.016C36.5338 47.344 36.2498 47.6 35.8738 47.784C35.5058 47.968 35.0658 48.06 34.5538 48.06C33.8498 48.06 33.2898 47.892 32.8738 47.556C32.4578 47.22 32.2498 46.776 32.2498 46.224C32.2498 45.688 32.4418 45.256 32.8258 44.928C33.2178 44.6 33.8378 44.436 34.6858 44.436H36.6898V44.052C36.6898 43.508 36.5378 43.096 36.2338 42.816C35.9298 42.528 35.4858 42.384 34.9018 42.384C34.5018 42.384 34.1178 42.452 33.7498 42.588C33.3818 42.716 33.0658 42.896 32.8018 43.128L32.4178 42.492C32.7378 42.22 33.1218 42.012 33.5698 41.868C34.0178 41.716 34.4898 41.64 34.9858 41.64ZM34.6858 47.388C35.1658 47.388 35.5778 47.28 35.9218 47.064C36.2658 46.84 36.5218 46.52 36.6898 46.104V45.072H34.7098C33.6298 45.072 33.0898 45.448 33.0898 46.2C33.0898 46.568 33.2298 46.86 33.5098 47.076C33.7898 47.284 34.1818 47.388 34.6858 47.388ZM43.108 41.64C43.7 41.64 44.236 41.776 44.716 42.048C45.196 42.312 45.572 42.688 45.844 43.176C46.116 43.664 46.252 44.22 46.252 44.844C46.252 45.468 46.116 46.024 45.844 46.512C45.572 47 45.196 47.38 44.716 47.652C44.236 47.924 43.7 48.06 43.108 48.06C42.58 48.06 42.104 47.948 41.68 47.724C41.264 47.5 40.928 47.176 40.672 46.752V48H39.856V39.096H40.708V42.888C40.972 42.48 41.308 42.172 41.716 41.964C42.132 41.748 42.596 41.64 43.108 41.64ZM43.048 47.304C43.488 47.304 43.888 47.204 44.248 47.004C44.608 46.796 44.888 46.504 45.088 46.128C45.296 45.752 45.4 45.324 45.4 44.844C45.4 44.364 45.296 43.936 45.088 43.56C44.888 43.184 44.608 42.896 44.248 42.696C43.888 42.488 43.488 42.384 43.048 42.384C42.6 42.384 42.196 42.488 41.836 42.696C41.484 42.896 41.204 43.184 40.996 43.56C40.796 43.936 40.696 44.364 40.696 44.844C40.696 45.324 40.796 45.752 40.996 46.128C41.204 46.504 41.484 46.796 41.836 47.004C42.196 47.204 42.6 47.304 43.048 47.304ZM53.4848 45.108H48.2048C48.2528 45.764 48.5048 46.296 48.9608 46.704C49.4168 47.104 49.9928 47.304 50.6888 47.304C51.0808 47.304 51.4408 47.236 51.7688 47.1C52.0968 46.956 52.3808 46.748 52.6208 46.476L53.1008 47.028C52.8208 47.364 52.4688 47.62 52.0448 47.796C51.6288 47.972 51.1688 48.06 50.6648 48.06C50.0168 48.06 49.4408 47.924 48.9368 47.652C48.4408 47.372 48.0528 46.988 47.7728 46.5C47.4928 46.012 47.3528 45.46 47.3528 44.844C47.3528 44.228 47.4848 43.676 47.7488 43.188C48.0208 42.7 48.3888 42.32 48.8528 42.048C49.3248 41.776 49.8528 41.64 50.4368 41.64C51.0208 41.64 51.5448 41.776 52.0088 42.048C52.4728 42.32 52.8368 42.7 53.1008 43.188C53.3648 43.668 53.4968 44.22 53.4968 44.844L53.4848 45.108ZM50.4368 42.372C49.8288 42.372 49.3168 42.568 48.9008 42.96C48.4928 43.344 48.2608 43.848 48.2048 44.472H52.6808C52.6248 43.848 52.3888 43.344 51.9728 42.96C51.5648 42.568 51.0528 42.372 50.4368 42.372ZM55.231 39.096H56.083V48H55.231V39.096Z" fill="white"/>
</svg>
