<svg width="96" height="40" viewBox="0 0 96 40" fill="none" xmlns="http://www.w3.org/2000/svg">
<rect x="0.75" y="0.75" width="94.5" height="38.5" rx="7.25" fill="white"/>
<rect x="0.75" y="0.75" width="94.5" height="38.5" rx="7.25" stroke="#7A2682" stroke-width="1.5"/>
<path d="M19.7597 24.6667H28.2302L26.3423 22.7789C26.0201 23.0496 25.6618 23.2605 25.2673 23.4115C24.8729 23.5624 24.4504 23.6379 24 23.6379C23.5496 23.6379 23.1257 23.5626 22.7285 23.4122C22.3313 23.2618 21.9737 23.0521 21.6558 22.7834L19.7597 24.6667ZM19.3743 24.1827L21.2212 22.3424C20.9483 22.0201 20.7369 21.6618 20.587 21.2674C20.4371 20.8729 20.3622 20.4505 20.3622 20C20.3622 19.5496 20.4374 19.1258 20.5878 18.7285C20.7383 18.3313 20.9479 17.9716 21.2167 17.6494L19.3743 15.7942V24.1827ZM21.6597 21.9039L23.5673 20L21.6597 18.0962C21.4408 18.3613 21.2724 18.6533 21.1545 18.972C21.0365 19.2907 20.9775 19.6329 20.9775 19.9987C20.9775 20.3646 21.0365 20.7071 21.1545 21.0262C21.2724 21.3454 21.4408 21.638 21.6597 21.9039ZM23.9988 23.0225C24.3646 23.0225 24.7071 22.9635 25.0262 22.8455C25.3454 22.7276 25.6379 22.5593 25.9038 22.3404L24 20.4199L22.0795 22.3404C22.3446 22.5593 22.6393 22.7276 22.9637 22.8455C23.288 22.9635 23.6331 23.0225 23.9988 23.0225ZM24 19.557L25.9038 17.6532C25.6381 17.4386 25.3459 17.2714 25.0273 17.1514C24.7089 17.0313 24.3668 16.9712 24.0012 16.9712C23.6354 16.9712 23.2932 17.0326 22.9745 17.1555C22.6559 17.2783 22.3632 17.4442 22.0962 17.6532L24 19.557ZM26.3468 21.9039C26.5558 21.6366 26.7217 21.3439 26.8445 21.0257C26.9674 20.7075 27.0288 20.3658 27.0288 20.0005C27.0288 19.6352 26.9688 19.2903 26.8487 18.9657C26.7287 18.641 26.5614 18.3456 26.3468 18.0795L24.4347 19.9834L26.3468 21.9039ZM28.6257 24.1827V15.7942L26.7833 17.6494C27.0521 17.9716 27.2628 18.3308 27.4153 18.727C27.5679 19.1233 27.6442 19.5476 27.6442 20C27.6442 20.4505 27.5682 20.8729 27.4162 21.2674C27.2642 21.6618 27.0539 22.0201 26.7853 22.3424L28.6257 24.1827ZM26.3507 17.2167L28.2468 15.3334H19.7763L21.6577 17.2147C21.9799 16.9461 22.3382 16.7359 22.7327 16.5839C23.1271 16.4319 23.5496 16.3559 24 16.3559C24.4504 16.3559 24.8743 16.4321 25.2715 16.5847C25.6687 16.7373 26.0284 16.9479 26.3507 17.2167ZM19.7815 25.241C19.4954 25.241 19.2534 25.1421 19.0557 24.9444C18.8579 24.7466 18.759 24.5046 18.759 24.2185V15.7815C18.759 15.4954 18.8579 15.2535 19.0557 15.0557C19.2534 14.8579 19.4954 14.759 19.7815 14.759H28.2185C28.5046 14.759 28.7466 14.8579 28.9443 15.0557C29.1421 15.2535 29.241 15.4954 29.241 15.7814V24.2154C29.241 24.4996 29.1421 24.7416 28.9443 24.9414C28.7466 25.1411 28.5046 25.241 28.2185 25.241H19.7815Z" fill="#7A2682"/>
<path d="M41.3012 25.5V14.3H42.6452V24.428H47.8612V25.5H41.3012ZM52.2674 25.692C51.6061 25.692 51.0568 25.58 50.6194 25.356C50.1821 25.132 49.8568 24.8333 49.6434 24.46C49.4301 24.0867 49.3234 23.6813 49.3234 23.244C49.3234 22.4333 49.6328 21.8093 50.2514 21.372C50.8701 20.9347 51.7128 20.716 52.7794 20.716H54.9234V20.62C54.9234 19.9267 54.7421 19.404 54.3794 19.052C54.0168 18.6893 53.5314 18.508 52.9234 18.508C52.4008 18.508 51.9474 18.6413 51.5634 18.908C51.1901 19.164 50.9554 19.5427 50.8594 20.044H49.4834C49.5368 19.468 49.7288 18.9827 50.0594 18.588C50.4008 18.1933 50.8221 17.8947 51.3234 17.692C51.8248 17.4787 52.3581 17.372 52.9234 17.372C54.0328 17.372 54.8648 17.6707 55.4194 18.268C55.9848 18.8547 56.2674 19.6387 56.2674 20.62V25.5H55.0674L54.9874 24.076C54.7634 24.524 54.4328 24.908 53.9954 25.228C53.5688 25.5373 52.9928 25.692 52.2674 25.692ZM52.4754 24.556C52.9874 24.556 53.4248 24.4227 53.7874 24.156C54.1608 23.8893 54.4434 23.5427 54.6354 23.116C54.8274 22.6893 54.9234 22.2413 54.9234 21.772V21.756H52.8914C52.1021 21.756 51.5421 21.8947 51.2114 22.172C50.8914 22.4387 50.7314 22.7747 50.7314 23.18C50.7314 23.596 50.8808 23.932 51.1794 24.188C51.4888 24.4333 51.9208 24.556 52.4754 24.556ZM62.5237 25.692C61.873 25.692 61.2917 25.5587 60.7797 25.292C60.2784 25.0253 59.8944 24.652 59.6277 24.172L59.4997 25.5H58.2837V13.98H59.6277V18.876C59.8837 18.492 60.2464 18.1453 60.7157 17.836C61.1957 17.5267 61.8037 17.372 62.5397 17.372C63.329 17.372 64.017 17.5533 64.6037 17.916C65.1904 18.2787 65.6437 18.7747 65.9637 19.404C66.2944 20.0333 66.4597 20.748 66.4597 21.548C66.4597 22.348 66.2944 23.0627 65.9637 23.692C65.6437 24.3107 65.185 24.8013 64.5877 25.164C64.001 25.516 63.313 25.692 62.5237 25.692ZM62.3797 24.524C62.913 24.524 63.3824 24.4013 63.7877 24.156C64.193 23.9 64.513 23.548 64.7477 23.1C64.9824 22.652 65.0997 22.1293 65.0997 21.532C65.0997 20.9347 64.9824 20.412 64.7477 19.964C64.513 19.516 64.193 19.1693 63.7877 18.924C63.3824 18.668 62.913 18.54 62.3797 18.54C61.8464 18.54 61.377 18.668 60.9717 18.924C60.5664 19.1693 60.2464 19.516 60.0117 19.964C59.777 20.412 59.6597 20.9347 59.6597 21.532C59.6597 22.1293 59.777 22.652 60.0117 23.1C60.2464 23.548 60.5664 23.9 60.9717 24.156C61.377 24.4013 61.8464 24.524 62.3797 24.524ZM71.8986 25.692C71.1412 25.692 70.4692 25.5213 69.8826 25.18C69.2959 24.828 68.8319 24.3427 68.4906 23.724C68.1599 23.1053 67.9946 22.3747 67.9946 21.532C67.9946 20.7 68.1599 19.9747 68.4906 19.356C68.8212 18.7267 69.2799 18.2413 69.8666 17.9C70.4639 17.548 71.1519 17.372 71.9306 17.372C72.6986 17.372 73.3599 17.548 73.9146 17.9C74.4799 18.2413 74.9119 18.6947 75.2106 19.26C75.5092 19.8253 75.6586 20.4333 75.6586 21.084C75.6586 21.2013 75.6532 21.3187 75.6426 21.436C75.6426 21.5533 75.6426 21.6867 75.6426 21.836H69.3226C69.3546 22.444 69.4932 22.9507 69.7386 23.356C69.9946 23.7507 70.3092 24.0493 70.6826 24.252C71.0666 24.4547 71.4719 24.556 71.8986 24.556C72.4532 24.556 72.9172 24.428 73.2906 24.172C73.6639 23.916 73.9359 23.5693 74.1066 23.132H75.4346C75.2212 23.868 74.8106 24.4813 74.2026 24.972C73.6052 25.452 72.8372 25.692 71.8986 25.692ZM71.8986 18.508C71.2586 18.508 70.6879 18.7053 70.1866 19.1C69.6959 19.484 69.4132 20.0493 69.3386 20.796H74.3306C74.2986 20.0813 74.0532 19.5213 73.5946 19.116C73.1359 18.7107 72.5706 18.508 71.8986 18.508ZM77.4399 25.5V13.98H78.7839V25.5H77.4399Z" fill="#7A2682"/>
</svg>
