<svg xmlns="http://www.w3.org/2000/svg" viewBox="0 0 203.17 84.66"><defs><style>.cls-1{fill:#fff;}.cls-2,.cls-5,.cls-6,.cls-7,.cls-8{fill:none;}.cls-2{stroke:#7a2682;stroke-width:3.17px;}.cls-3{fill:#7a2682;}.cls-4{fill:#f6eff6;}.cls-5,.cls-6,.cls-7,.cls-8{stroke:#000;stroke-miterlimit:10;}.cls-6{stroke-width:1.12px;}.cls-7{stroke-width:1.07px;}.cls-8{stroke-width:0.92px;}</style></defs><g id="Capa_2" data-name="Capa 2"><g id="Capa_2-2" data-name="Capa 2"><rect class="cls-1" x="1.59" y="1.59" width="200" height="81.48" rx="15.34"/><rect class="cls-2" x="1.59" y="1.59" width="200" height="81.48" rx="15.34"/><path class="cls-3" d="M41.82,52.2H59.75l-4-4a8,8,0,0,1-2.27,1.34,7.78,7.78,0,0,1-5.38,0,7.83,7.83,0,0,1-2.27-1.33Zm-.82-1,3.91-3.89A8.05,8.05,0,0,1,43.57,45a7.75,7.75,0,0,1,0-5.37,8.07,8.07,0,0,1,1.33-2.29L41,33.43Zm4.84-4.82,4-4-4-4a6.47,6.47,0,0,0-1.07,1.85,6.58,6.58,0,0,0,0,4.35A6.52,6.52,0,0,0,45.84,46.36Zm4.95,2.36A6.24,6.24,0,0,0,53,48.35a6.47,6.47,0,0,0,1.85-1.07l-4-4.06-4.06,4.06a6.24,6.24,0,0,0,4.06,1.44Zm0-7.33,4-4A6.68,6.68,0,0,0,53,36.3a6.23,6.23,0,0,0-2.17-.38,6,6,0,0,0-2.18.39,7.42,7.42,0,0,0-1.86,1Zm5,5a7.42,7.42,0,0,0,1.05-1.86,6,6,0,0,0,.39-2.17,6.15,6.15,0,0,0-.38-2.19,6.7,6.7,0,0,0-1.06-1.88l-4,4Zm4.82,4.82V33.43l-3.9,3.92A8.19,8.19,0,0,1,58,39.63a7.53,7.53,0,0,1,.49,2.7A7.21,7.21,0,0,1,58,45a8,8,0,0,1-1.33,2.28ZM55.77,36.44l4-4H41.85l4,4a8,8,0,0,1,2.27-1.33,7.75,7.75,0,0,1,5.37,0A7.84,7.84,0,0,1,55.77,36.44Zm-13.9,17a2.15,2.15,0,0,1-2.17-2.16V33.4a2.09,2.09,0,0,1,.63-1.54,2.12,2.12,0,0,1,1.54-.62H59.72a2.12,2.12,0,0,1,1.54.62,2.09,2.09,0,0,1,.63,1.54V51.25a2.12,2.12,0,0,1-.63,1.54,2.09,2.09,0,0,1-1.54.63Z"/><path class="cls-3" d="M87.41,54V30.26h2.84V51.7h11V54Zm23.21.4a7.56,7.56,0,0,1-3.49-.71,4.8,4.8,0,0,1-2.06-1.89,5,5,0,0,1-.68-2.58,4.56,4.56,0,0,1,2-4,9.18,9.18,0,0,1,5.35-1.39h4.54v-.2a4.42,4.42,0,0,0-1.15-3.32A4.16,4.16,0,0,0,112,39.17a4.87,4.87,0,0,0-2.88.85,3.57,3.57,0,0,0-1.49,2.4h-2.91A5.44,5.44,0,0,1,106,39.34a6.84,6.84,0,0,1,2.67-1.9,8.58,8.58,0,0,1,3.39-.67,6.38,6.38,0,0,1,7.07,6.87V54h-2.54l-.16-3a6.79,6.79,0,0,1-2.1,2.44A6.11,6.11,0,0,1,110.62,54.37Zm.44-2.4a4.55,4.55,0,0,0,2.78-.85,5.3,5.3,0,0,0,1.79-2.2,6.78,6.78,0,0,0,.61-2.84v0h-4.3a5.64,5.64,0,0,0-3.56.88,2.69,2.69,0,0,0-1,2.14,2.64,2.64,0,0,0,.95,2.13A4.3,4.3,0,0,0,111.06,52Zm21.27,2.4a8,8,0,0,1-3.7-.84,5.91,5.91,0,0,1-2.43-2.37L125.93,54h-2.58V29.59h2.85V40a8,8,0,0,1,2.3-2.2,6.93,6.93,0,0,1,3.86-1,8.12,8.12,0,0,1,4.37,1.15,7.76,7.76,0,0,1,2.88,3.15,10.32,10.32,0,0,1,0,9.07,7.76,7.76,0,0,1-2.92,3.12A8.34,8.34,0,0,1,132.33,54.37ZM132,51.9a5.36,5.36,0,0,0,5-3,7.72,7.72,0,0,0,0-6.64,5.4,5.4,0,0,0-2-2.2,5.64,5.64,0,0,0-8,2.2,7.72,7.72,0,0,0,0,6.64,5.36,5.36,0,0,0,5,3Zm20.15,2.47a8.34,8.34,0,0,1-4.27-1.08,8.09,8.09,0,0,1-3-3.08,9.72,9.72,0,0,1-1-4.64,9.58,9.58,0,0,1,1-4.6,7.51,7.51,0,0,1,2.92-3.09,8.47,8.47,0,0,1,4.36-1.11,7.69,7.69,0,0,1,4.2,1.11,7.45,7.45,0,0,1,2.75,2.88,8.19,8.19,0,0,1,.94,3.86q0,.38,0,.75v.84H146.71a7,7,0,0,0,.88,3.22,5.57,5.57,0,0,0,2,1.9,5.45,5.45,0,0,0,2.58.64,5.09,5.09,0,0,0,2.94-.81,4.66,4.66,0,0,0,1.73-2.2h2.81A7.63,7.63,0,0,1,157,52.85,7.5,7.5,0,0,1,152.17,54.37Zm0-15.2a5.73,5.73,0,0,0-3.63,1.25A5,5,0,0,0,146.75,44h10.56a4.75,4.75,0,0,0-1.55-3.55A5.24,5.24,0,0,0,152.17,39.17ZM163.89,54V29.59h2.85V54Z"/><line class="cls-4" x1="88.67" y1="1.95" x2="88.67" y2="31.56"/><line class="cls-5" x1="88.67" y1="4.79" x2="88.67" y2="28.72"/><path d="M88.67,2a14.2,14.2,0,0,1-2.24,4l2.24-.81L90.9,6A14.18,14.18,0,0,1,88.67,2Z"/><path d="M88.67,31.56a14.34,14.34,0,0,0-2.24-4l2.24.81,2.23-.81A14.31,14.31,0,0,0,88.67,31.56Z"/><path d="M100.17,13h0l-1.35.74-.21-.81,1.7-.91h.9v7.8h-1Z"/><path d="M108.49,12.77a3.72,3.72,0,0,0-.79,0A3.17,3.17,0,0,0,105,15.58h0a2.38,2.38,0,0,1,4.24,1.62A2.61,2.61,0,0,1,106.67,20c-1.67,0-2.76-1.3-2.76-3.32a4.9,4.9,0,0,1,1.32-3.52A4.25,4.25,0,0,1,107.72,12a4.84,4.84,0,0,1,.77-.06Zm-.3,4.49a1.58,1.58,0,0,0-1.61-1.78,1.73,1.73,0,0,0-1.51,1,.89.89,0,0,0-.12.46c0,1.29.61,2.23,1.72,2.23C107.58,19.13,108.19,18.38,108.19,17.26Z"/><path d="M110.53,15.91c0-.75,0-1.35,0-1.9h1l0,1h0a2.29,2.29,0,0,1,2.07-1.13c1.4,0,2.45,1.19,2.45,2.95,0,2.09-1.27,3.12-2.63,3.12A2.05,2.05,0,0,1,111.6,19h0v3.15h-1Zm1,1.54a3,3,0,0,0,.05.44,1.63,1.63,0,0,0,1.59,1.23c1.11,0,1.76-.91,1.76-2.24,0-1.16-.61-2.16-1.73-2.16A1.68,1.68,0,0,0,111.65,16a1.56,1.56,0,0,0-.08.43Z"/><path d="M117.68,14l.83,1.25c.22.32.4.62.59,1h0c.2-.35.39-.65.58-1l.82-1.24h1.13l-2,2.81,2,3h-1.2l-.86-1.31c-.22-.34-.42-.66-.62-1h0c-.2.35-.4.66-.62,1l-.83,1.31h-1.17l2.06-3-2-2.84Z"/><line class="cls-4" x1="88.67" y1="53.78" x2="88.67" y2="83.39"/><line class="cls-5" x1="88.67" y1="56.62" x2="88.67" y2="80.55"/><path d="M88.67,53.78a14.2,14.2,0,0,1-2.24,4L88.67,57l2.23.81A14.18,14.18,0,0,1,88.67,53.78Z"/><path d="M88.67,83.39a14.2,14.2,0,0,0-2.24-4l2.24.81,2.23-.81A14.18,14.18,0,0,0,88.67,83.39Z"/><path d="M98.54,64.83h0l-1.36.74-.2-.81,1.7-.91h.9v7.8h-1Z"/><path d="M106.86,64.59a3.8,3.8,0,0,0-.79,0,3.17,3.17,0,0,0-2.71,2.77h0A2.38,2.38,0,0,1,107.63,69,2.61,2.61,0,0,1,105,71.78c-1.67,0-2.76-1.3-2.76-3.32a4.9,4.9,0,0,1,1.32-3.52,4.25,4.25,0,0,1,2.49-1.15,4.84,4.84,0,0,1,.77-.06Zm-.3,4.5A1.58,1.58,0,0,0,105,67.31a1.74,1.74,0,0,0-1.51,1,.93.93,0,0,0-.12.47c0,1.29.61,2.23,1.72,2.23C106,71,106.56,70.21,106.56,69.09Z"/><path d="M108.9,67.74c0-.75,0-1.35-.05-1.9h1l0,1h0a2.28,2.28,0,0,1,2.06-1.13c1.41,0,2.46,1.19,2.46,3,0,2.09-1.27,3.12-2.64,3.12a2,2,0,0,1-1.78-.91h0V74h-1Zm1,1.54a3,3,0,0,0,0,.44A1.63,1.63,0,0,0,111.57,71c1.12,0,1.77-.91,1.77-2.24,0-1.16-.61-2.16-1.73-2.16A1.68,1.68,0,0,0,110,67.86a1.56,1.56,0,0,0-.08.43Z"/><path d="M116.05,65.84l.83,1.25c.22.32.4.62.59,1h0c.19-.35.39-.65.58-1l.81-1.24H120l-2,2.81,2,3h-1.2L118,70.34c-.23-.34-.42-.66-.62-1h0c-.19.35-.39.66-.61,1l-.84,1.31h-1.16l2.06-3-2-2.84Z"/><line class="cls-4" x1="39.7" y1="42.33" x2="2.69" y2="42.33"/><line class="cls-6" x1="36.53" y1="42.33" x2="5.87" y2="42.33"/><path d="M39.7,42.33a16.11,16.11,0,0,1-4.49-2.5l.9,2.5-.9,2.5A15.86,15.86,0,0,1,39.7,42.33Z"/><path d="M2.69,42.33a16,16,0,0,0,4.5-2.5l-.91,2.5.91,2.5A15.78,15.78,0,0,0,2.69,42.33Z"/><path d="M12.1,30.45h0l-1.36.73-.2-.8,1.7-.91h.9v7.79h-1Z"/><path d="M20.42,30.21a3.8,3.8,0,0,0-.79.05A3.15,3.15,0,0,0,16.92,33h0a2.38,2.38,0,0,1,4.24,1.62,2.61,2.61,0,0,1-2.59,2.74c-1.67,0-2.76-1.29-2.76-3.32a4.88,4.88,0,0,1,1.32-3.51,4.19,4.19,0,0,1,2.49-1.15,4.84,4.84,0,0,1,.77-.06Zm-.3,4.5a1.59,1.59,0,0,0-1.61-1.79,1.75,1.75,0,0,0-1.51,1,.9.9,0,0,0-.12.47c0,1.28.61,2.23,1.72,2.23C19.51,36.58,20.12,35.82,20.12,34.71Z"/><path d="M22.46,33.35c0-.74,0-1.34-.05-1.89h.95l.05,1h0a2.28,2.28,0,0,1,2.06-1.13c1.41,0,2.46,1.19,2.46,3,0,2.09-1.27,3.12-2.64,3.12a2,2,0,0,1-1.78-.91h0v3.16h-1Zm1,1.55a2.82,2.82,0,0,0,.05.43,1.63,1.63,0,0,0,1.58,1.24c1.12,0,1.77-.92,1.77-2.25,0-1.16-.61-2.16-1.73-2.16a1.68,1.68,0,0,0-1.59,1.31,1.56,1.56,0,0,0-.08.43Z"/><path d="M29.61,31.46l.83,1.24c.22.33.4.63.59.95h0c.19-.35.39-.65.58-1l.81-1.23h1.14l-2,2.8,2,3h-1.2L31.6,36c-.23-.33-.42-.66-.62-1h0c-.19.34-.39.66-.61,1l-.84,1.31H28.34l2.06-3-2-2.84Z"/><line class="cls-4" x1="200.57" y1="39.64" x2="166.74" y2="39.64"/><line class="cls-7" x1="197.53" y1="39.64" x2="169.77" y2="39.64"/><path d="M200.57,39.64a15.39,15.39,0,0,1-4.3-2.39l.87,2.39L196.27,42A15.12,15.12,0,0,1,200.57,39.64Z"/><path d="M166.74,39.64A15.2,15.2,0,0,0,171,37.25l-.86,2.39L171,42A14.93,14.93,0,0,0,166.74,39.64Z"/><path d="M174.38,26.71h0l-1.35.74-.21-.81,1.7-.91h.9v7.8h-1Z"/><path d="M182.7,26.47a3.8,3.8,0,0,0-.79.05,3.17,3.17,0,0,0-2.71,2.77h0a2.38,2.38,0,0,1,4.24,1.62,2.61,2.61,0,0,1-2.59,2.75c-1.67,0-2.76-1.3-2.76-3.32a4.9,4.9,0,0,1,1.32-3.52,4.25,4.25,0,0,1,2.49-1.15,4.84,4.84,0,0,1,.77-.06Zm-.3,4.5a1.59,1.59,0,0,0-1.61-1.79,1.75,1.75,0,0,0-1.51,1,.93.93,0,0,0-.12.47c0,1.29.61,2.23,1.72,2.23C181.79,32.84,182.4,32.09,182.4,31Z"/><path d="M184.74,29.62c0-.75,0-1.35-.05-1.9h.95l.05,1h0a2.29,2.29,0,0,1,2.07-1.13c1.4,0,2.45,1.19,2.45,2.95,0,2.09-1.27,3.12-2.63,3.12a2.05,2.05,0,0,1-1.79-.91h0V35.9h-1Zm1,1.54a2.68,2.68,0,0,0,.05.43,1.63,1.63,0,0,0,1.59,1.24c1.11,0,1.76-.91,1.76-2.24,0-1.17-.61-2.16-1.73-2.16a1.67,1.67,0,0,0-1.59,1.31,1.49,1.49,0,0,0-.08.43Z"/><path d="M191.89,27.72l.83,1.25c.22.32.4.62.59,1h0c.2-.35.39-.65.58-1l.82-1.24h1.13l-2,2.81,2,3h-1.2l-.86-1.31c-.22-.34-.42-.66-.62-1h0c-.2.35-.4.66-.62,1l-.83,1.31h-1.17l2.06-3-2-2.84Z"/><line class="cls-4" x1="87.41" y1="42.33" x2="62.25" y2="42.33"/><line class="cls-8" x1="84.79" y1="42.33" x2="64.86" y2="42.33"/><path d="M87.41,42.33a13.2,13.2,0,0,1-3.7-2.06l.74,2.06-.74,2.06A12.72,12.72,0,0,1,87.41,42.33Z"/><path d="M62.25,42.33A13.2,13.2,0,0,0,66,40.27l-.74,2.06L66,44.39A12.72,12.72,0,0,0,62.25,42.33Z"/><path d="M64.76,31.61h0l-1.35.73-.2-.81,1.7-.91h.9v7.8h-1Z"/><path d="M68.62,38.42v-.65l.83-.8c2-1.9,2.89-2.9,2.9-4.08a1.39,1.39,0,0,0-1.54-1.52,2.66,2.66,0,0,0-1.66.66l-.33-.75a3.43,3.43,0,0,1,2.2-.79,2.2,2.2,0,0,1,2.39,2.27c0,1.44-1,2.6-2.69,4.18l-.62.58v0h3.5v.88Z"/><path d="M75.12,34.51c0-.74,0-1.34-.05-1.9H76l0,1h0a2.27,2.27,0,0,1,2.06-1.13c1.4,0,2.46,1.19,2.46,3,0,2.09-1.27,3.12-2.64,3.12a2.05,2.05,0,0,1-1.79-.91h0v3.15h-1Zm1,1.55a2,2,0,0,0,0,.43,1.62,1.62,0,0,0,1.58,1.23c1.12,0,1.76-.91,1.76-2.24,0-1.16-.61-2.16-1.72-2.16a1.69,1.69,0,0,0-1.6,1.31,1.55,1.55,0,0,0-.07.43Z"/><path d="M82.27,32.61l.82,1.25c.22.32.4.63.59,1h0c.19-.35.38-.65.57-1l.82-1.24h1.14l-2,2.81,2,3h-1.2l-.85-1.31c-.23-.33-.42-.66-.63-1h0c-.19.35-.4.66-.61,1l-.84,1.31H81l2.06-3-2-2.85Z"/></g></g></svg>