<svg width="496" height="40" viewBox="0 0 496 40" fill="none" xmlns="http://www.w3.org/2000/svg">
<rect x="0.75" y="0.75" width="94.5" height="38.5" rx="7.25" fill="white"/>
<rect x="0.75" y="0.75" width="94.5" height="38.5" rx="7.25" stroke="#7A2682" stroke-width="1.5"/>
<path d="M19.7597 24.6667H28.2302L26.3423 22.7789C26.0201 23.0496 25.6618 23.2605 25.2673 23.4115C24.8729 23.5624 24.4504 23.6379 24 23.6379C23.5496 23.6379 23.1257 23.5626 22.7285 23.4122C22.3313 23.2618 21.9737 23.0521 21.6558 22.7834L19.7597 24.6667ZM19.3743 24.1827L21.2212 22.3424C20.9483 22.0201 20.7369 21.6618 20.587 21.2674C20.4371 20.8729 20.3622 20.4505 20.3622 20C20.3622 19.5496 20.4374 19.1258 20.5878 18.7285C20.7383 18.3313 20.9479 17.9716 21.2167 17.6494L19.3743 15.7942V24.1827ZM21.6597 21.9039L23.5673 20L21.6597 18.0962C21.4408 18.3613 21.2724 18.6533 21.1545 18.972C21.0365 19.2907 20.9775 19.6329 20.9775 19.9987C20.9775 20.3646 21.0365 20.7071 21.1545 21.0262C21.2724 21.3454 21.4408 21.638 21.6597 21.9039ZM23.9988 23.0225C24.3646 23.0225 24.7071 22.9635 25.0262 22.8455C25.3454 22.7276 25.6379 22.5593 25.9038 22.3404L24 20.4199L22.0795 22.3404C22.3446 22.5593 22.6393 22.7276 22.9637 22.8455C23.288 22.9635 23.6331 23.0225 23.9988 23.0225ZM24 19.557L25.9038 17.6532C25.6381 17.4386 25.3459 17.2714 25.0273 17.1514C24.7089 17.0313 24.3668 16.9712 24.0012 16.9712C23.6354 16.9712 23.2932 17.0326 22.9745 17.1555C22.6559 17.2783 22.3632 17.4442 22.0962 17.6532L24 19.557ZM26.3468 21.9039C26.5558 21.6366 26.7217 21.3439 26.8445 21.0257C26.9674 20.7075 27.0288 20.3658 27.0288 20.0005C27.0288 19.6352 26.9688 19.2903 26.8487 18.9657C26.7287 18.641 26.5614 18.3456 26.3468 18.0795L24.4347 19.9834L26.3468 21.9039ZM28.6257 24.1827V15.7942L26.7833 17.6494C27.0521 17.9716 27.2628 18.3308 27.4153 18.727C27.5679 19.1233 27.6442 19.5476 27.6442 20C27.6442 20.4505 27.5682 20.8729 27.4162 21.2674C27.2642 21.6618 27.0539 22.0201 26.7853 22.3424L28.6257 24.1827ZM26.3507 17.2167L28.2468 15.3334H19.7763L21.6577 17.2147C21.9799 16.9461 22.3382 16.7359 22.7327 16.5839C23.1271 16.4319 23.5496 16.3559 24 16.3559C24.4504 16.3559 24.8743 16.4321 25.2715 16.5847C25.6687 16.7373 26.0284 16.9479 26.3507 17.2167ZM19.7815 25.241C19.4954 25.241 19.2534 25.1421 19.0557 24.9444C18.8579 24.7466 18.759 24.5046 18.759 24.2185V15.7815C18.759 15.4954 18.8579 15.2535 19.0557 15.0557C19.2534 14.8579 19.4954 14.759 19.7815 14.759H28.2185C28.5046 14.759 28.7466 14.8579 28.9443 15.0557C29.1421 15.2535 29.241 15.4954 29.241 15.7814V24.2154C29.241 24.4996 29.1421 24.7416 28.9443 24.9414C28.7466 25.1411 28.5046 25.241 28.2185 25.241H19.7815Z" fill="#7A2682"/>
<path d="M41.3012 25.5V14.3H42.6452V24.428H47.8612V25.5H41.3012ZM52.2674 25.692C51.6061 25.692 51.0568 25.58 50.6194 25.356C50.1821 25.132 49.8568 24.8333 49.6434 24.46C49.4301 24.0867 49.3234 23.6813 49.3234 23.244C49.3234 22.4333 49.6328 21.8093 50.2514 21.372C50.8701 20.9347 51.7128 20.716 52.7794 20.716H54.9234V20.62C54.9234 19.9267 54.7421 19.404 54.3794 19.052C54.0168 18.6893 53.5314 18.508 52.9234 18.508C52.4008 18.508 51.9474 18.6413 51.5634 18.908C51.1901 19.164 50.9554 19.5427 50.8594 20.044H49.4834C49.5368 19.468 49.7288 18.9827 50.0594 18.588C50.4008 18.1933 50.8221 17.8947 51.3234 17.692C51.8248 17.4787 52.3581 17.372 52.9234 17.372C54.0328 17.372 54.8648 17.6707 55.4194 18.268C55.9848 18.8547 56.2674 19.6387 56.2674 20.62V25.5H55.0674L54.9874 24.076C54.7634 24.524 54.4328 24.908 53.9954 25.228C53.5688 25.5373 52.9928 25.692 52.2674 25.692ZM52.4754 24.556C52.9874 24.556 53.4248 24.4227 53.7874 24.156C54.1608 23.8893 54.4434 23.5427 54.6354 23.116C54.8274 22.6893 54.9234 22.2413 54.9234 21.772V21.756H52.8914C52.1021 21.756 51.5421 21.8947 51.2114 22.172C50.8914 22.4387 50.7314 22.7747 50.7314 23.18C50.7314 23.596 50.8808 23.932 51.1794 24.188C51.4888 24.4333 51.9208 24.556 52.4754 24.556ZM62.5237 25.692C61.873 25.692 61.2917 25.5587 60.7797 25.292C60.2784 25.0253 59.8944 24.652 59.6277 24.172L59.4997 25.5H58.2837V13.98H59.6277V18.876C59.8837 18.492 60.2464 18.1453 60.7157 17.836C61.1957 17.5267 61.8037 17.372 62.5397 17.372C63.329 17.372 64.017 17.5533 64.6037 17.916C65.1904 18.2787 65.6437 18.7747 65.9637 19.404C66.2944 20.0333 66.4597 20.748 66.4597 21.548C66.4597 22.348 66.2944 23.0627 65.9637 23.692C65.6437 24.3107 65.185 24.8013 64.5877 25.164C64.001 25.516 63.313 25.692 62.5237 25.692ZM62.3797 24.524C62.913 24.524 63.3824 24.4013 63.7877 24.156C64.193 23.9 64.513 23.548 64.7477 23.1C64.9824 22.652 65.0997 22.1293 65.0997 21.532C65.0997 20.9347 64.9824 20.412 64.7477 19.964C64.513 19.516 64.193 19.1693 63.7877 18.924C63.3824 18.668 62.913 18.54 62.3797 18.54C61.8464 18.54 61.377 18.668 60.9717 18.924C60.5664 19.1693 60.2464 19.516 60.0117 19.964C59.777 20.412 59.6597 20.9347 59.6597 21.532C59.6597 22.1293 59.777 22.652 60.0117 23.1C60.2464 23.548 60.5664 23.9 60.9717 24.156C61.377 24.4013 61.8464 24.524 62.3797 24.524ZM71.8986 25.692C71.1412 25.692 70.4692 25.5213 69.8826 25.18C69.2959 24.828 68.8319 24.3427 68.4906 23.724C68.1599 23.1053 67.9946 22.3747 67.9946 21.532C67.9946 20.7 68.1599 19.9747 68.4906 19.356C68.8212 18.7267 69.2799 18.2413 69.8666 17.9C70.4639 17.548 71.1519 17.372 71.9306 17.372C72.6986 17.372 73.3599 17.548 73.9146 17.9C74.4799 18.2413 74.9119 18.6947 75.2106 19.26C75.5092 19.8253 75.6586 20.4333 75.6586 21.084C75.6586 21.2013 75.6532 21.3187 75.6426 21.436C75.6426 21.5533 75.6426 21.6867 75.6426 21.836H69.3226C69.3546 22.444 69.4932 22.9507 69.7386 23.356C69.9946 23.7507 70.3092 24.0493 70.6826 24.252C71.0666 24.4547 71.4719 24.556 71.8986 24.556C72.4532 24.556 72.9172 24.428 73.2906 24.172C73.6639 23.916 73.9359 23.5693 74.1066 23.132H75.4346C75.2212 23.868 74.8106 24.4813 74.2026 24.972C73.6052 25.452 72.8372 25.692 71.8986 25.692ZM71.8986 18.508C71.2586 18.508 70.6879 18.7053 70.1866 19.1C69.6959 19.484 69.4132 20.0493 69.3386 20.796H74.3306C74.2986 20.0813 74.0532 19.5213 73.5946 19.116C73.1359 18.7107 72.5706 18.508 71.8986 18.508ZM77.4399 25.5V13.98H78.7839V25.5H77.4399Z" fill="#7A2682"/>
<rect x="100.75" y="0.75" width="94.5" height="38.5" rx="7.25" fill="white"/>
<rect x="100.75" y="0.75" width="94.5" height="38.5" rx="7.25" stroke="#7A2682" stroke-width="1.5"/>
<path d="M119.76 24.6667H128.23L126.342 22.7789C126.02 23.0496 125.662 23.2605 125.267 23.4115C124.873 23.5624 124.45 23.6379 124 23.6379C123.55 23.6379 123.126 23.5626 122.729 23.4122C122.331 23.2618 121.974 23.0521 121.656 22.7834L119.76 24.6667ZM119.374 24.1827L121.221 22.3424C120.948 22.0201 120.737 21.6618 120.587 21.2674C120.437 20.8729 120.362 20.4505 120.362 20C120.362 19.5496 120.437 19.1258 120.588 18.7285C120.738 18.3313 120.948 17.9716 121.217 17.6494L119.374 15.7942V24.1827ZM121.66 21.9039L123.567 20L121.66 18.0962C121.441 18.3613 121.272 18.6533 121.155 18.972C121.037 19.2907 120.978 19.6329 120.978 19.9987C120.978 20.3646 121.037 20.7071 121.155 21.0262C121.272 21.3454 121.441 21.638 121.66 21.9039ZM123.999 23.0225C124.365 23.0225 124.707 22.9635 125.026 22.8455C125.345 22.7276 125.638 22.5593 125.904 22.3404L124 20.4199L122.08 22.3404C122.345 22.5593 122.639 22.7276 122.964 22.8455C123.288 22.9635 123.633 23.0225 123.999 23.0225ZM124 19.557L125.904 17.6532C125.638 17.4386 125.346 17.2714 125.027 17.1514C124.709 17.0313 124.367 16.9712 124.001 16.9712C123.635 16.9712 123.293 17.0326 122.975 17.1555C122.656 17.2783 122.363 17.4442 122.096 17.6532L124 19.557ZM126.347 21.9039C126.556 21.6366 126.722 21.3439 126.845 21.0257C126.967 20.7075 127.029 20.3658 127.029 20.0005C127.029 19.6352 126.969 19.2903 126.849 18.9657C126.729 18.641 126.561 18.3456 126.347 18.0795L124.435 19.9834L126.347 21.9039ZM128.626 24.1827V15.7942L126.783 17.6494C127.052 17.9716 127.263 18.3308 127.415 18.727C127.568 19.1233 127.644 19.5476 127.644 20C127.644 20.4505 127.568 20.8729 127.416 21.2674C127.264 21.6618 127.054 22.0201 126.785 22.3424L128.626 24.1827ZM126.351 17.2167L128.247 15.3334H119.776L121.658 17.2147C121.98 16.9461 122.338 16.7359 122.733 16.5839C123.127 16.4319 123.55 16.3559 124 16.3559C124.45 16.3559 124.874 16.4321 125.272 16.5847C125.669 16.7373 126.028 16.9479 126.351 17.2167ZM119.782 25.241C119.495 25.241 119.253 25.1421 119.056 24.9444C118.858 24.7466 118.759 24.5046 118.759 24.2185V15.7815C118.759 15.4954 118.858 15.2535 119.056 15.0557C119.253 14.8579 119.495 14.759 119.782 14.759H128.219C128.505 14.759 128.747 14.8579 128.944 15.0557C129.142 15.2535 129.241 15.4954 129.241 15.7814V24.2154C129.241 24.4996 129.142 24.7416 128.944 24.9414C128.747 25.1411 128.505 25.241 128.219 25.241H119.782Z" fill="#7A2682"/>
<path d="M141.301 25.5V14.3H142.645V24.428H147.861V25.5H141.301ZM152.267 25.692C151.606 25.692 151.057 25.58 150.619 25.356C150.182 25.132 149.857 24.8333 149.643 24.46C149.43 24.0867 149.323 23.6813 149.323 23.244C149.323 22.4333 149.633 21.8093 150.251 21.372C150.87 20.9347 151.713 20.716 152.779 20.716H154.923V20.62C154.923 19.9267 154.742 19.404 154.379 19.052C154.017 18.6893 153.531 18.508 152.923 18.508C152.401 18.508 151.947 18.6413 151.563 18.908C151.19 19.164 150.955 19.5427 150.859 20.044H149.483C149.537 19.468 149.729 18.9827 150.059 18.588C150.401 18.1933 150.822 17.8947 151.323 17.692C151.825 17.4787 152.358 17.372 152.923 17.372C154.033 17.372 154.865 17.6707 155.419 18.268C155.985 18.8547 156.267 19.6387 156.267 20.62V25.5H155.067L154.987 24.076C154.763 24.524 154.433 24.908 153.995 25.228C153.569 25.5373 152.993 25.692 152.267 25.692ZM152.475 24.556C152.987 24.556 153.425 24.4227 153.787 24.156C154.161 23.8893 154.443 23.5427 154.635 23.116C154.827 22.6893 154.923 22.2413 154.923 21.772V21.756H152.891C152.102 21.756 151.542 21.8947 151.211 22.172C150.891 22.4387 150.731 22.7747 150.731 23.18C150.731 23.596 150.881 23.932 151.179 24.188C151.489 24.4333 151.921 24.556 152.475 24.556ZM162.524 25.692C161.873 25.692 161.292 25.5587 160.78 25.292C160.278 25.0253 159.894 24.652 159.628 24.172L159.5 25.5H158.284V13.98H159.628V18.876C159.884 18.492 160.246 18.1453 160.716 17.836C161.196 17.5267 161.804 17.372 162.54 17.372C163.329 17.372 164.017 17.5533 164.604 17.916C165.19 18.2787 165.644 18.7747 165.964 19.404C166.294 20.0333 166.46 20.748 166.46 21.548C166.46 22.348 166.294 23.0627 165.964 23.692C165.644 24.3107 165.185 24.8013 164.588 25.164C164.001 25.516 163.313 25.692 162.524 25.692ZM162.38 24.524C162.913 24.524 163.382 24.4013 163.788 24.156C164.193 23.9 164.513 23.548 164.748 23.1C164.982 22.652 165.1 22.1293 165.1 21.532C165.1 20.9347 164.982 20.412 164.748 19.964C164.513 19.516 164.193 19.1693 163.788 18.924C163.382 18.668 162.913 18.54 162.38 18.54C161.846 18.54 161.377 18.668 160.972 18.924C160.566 19.1693 160.246 19.516 160.012 19.964C159.777 20.412 159.66 20.9347 159.66 21.532C159.66 22.1293 159.777 22.652 160.012 23.1C160.246 23.548 160.566 23.9 160.972 24.156C161.377 24.4013 161.846 24.524 162.38 24.524ZM171.899 25.692C171.141 25.692 170.469 25.5213 169.883 25.18C169.296 24.828 168.832 24.3427 168.491 23.724C168.16 23.1053 167.995 22.3747 167.995 21.532C167.995 20.7 168.16 19.9747 168.491 19.356C168.821 18.7267 169.28 18.2413 169.867 17.9C170.464 17.548 171.152 17.372 171.931 17.372C172.699 17.372 173.36 17.548 173.915 17.9C174.48 18.2413 174.912 18.6947 175.211 19.26C175.509 19.8253 175.659 20.4333 175.659 21.084C175.659 21.2013 175.653 21.3187 175.643 21.436C175.643 21.5533 175.643 21.6867 175.643 21.836H169.323C169.355 22.444 169.493 22.9507 169.739 23.356C169.995 23.7507 170.309 24.0493 170.683 24.252C171.067 24.4547 171.472 24.556 171.899 24.556C172.453 24.556 172.917 24.428 173.291 24.172C173.664 23.916 173.936 23.5693 174.107 23.132H175.435C175.221 23.868 174.811 24.4813 174.203 24.972C173.605 25.452 172.837 25.692 171.899 25.692ZM171.899 18.508C171.259 18.508 170.688 18.7053 170.187 19.1C169.696 19.484 169.413 20.0493 169.339 20.796H174.331C174.299 20.0813 174.053 19.5213 173.595 19.116C173.136 18.7107 172.571 18.508 171.899 18.508ZM177.44 25.5V13.98H178.784V25.5H177.44Z" fill="#7A2682"/>
<rect x="200.75" y="0.75" width="94.5" height="38.5" rx="7.25" fill="white"/>
<rect x="200.75" y="0.75" width="94.5" height="38.5" rx="7.25" stroke="#7A2682" stroke-width="1.5"/>
<path d="M219.76 24.6667H228.23L226.342 22.7789C226.02 23.0496 225.662 23.2605 225.267 23.4115C224.873 23.5624 224.45 23.6379 224 23.6379C223.55 23.6379 223.126 23.5626 222.729 23.4122C222.331 23.2618 221.974 23.0521 221.656 22.7834L219.76 24.6667ZM219.374 24.1827L221.221 22.3424C220.948 22.0201 220.737 21.6618 220.587 21.2674C220.437 20.8729 220.362 20.4505 220.362 20C220.362 19.5496 220.437 19.1258 220.588 18.7285C220.738 18.3313 220.948 17.9716 221.217 17.6494L219.374 15.7942V24.1827ZM221.66 21.9039L223.567 20L221.66 18.0962C221.441 18.3613 221.272 18.6533 221.155 18.972C221.037 19.2907 220.978 19.6329 220.978 19.9987C220.978 20.3646 221.037 20.7071 221.155 21.0262C221.272 21.3454 221.441 21.638 221.66 21.9039ZM223.999 23.0225C224.365 23.0225 224.707 22.9635 225.026 22.8455C225.345 22.7276 225.638 22.5593 225.904 22.3404L224 20.4199L222.08 22.3404C222.345 22.5593 222.639 22.7276 222.964 22.8455C223.288 22.9635 223.633 23.0225 223.999 23.0225ZM224 19.557L225.904 17.6532C225.638 17.4386 225.346 17.2714 225.027 17.1514C224.709 17.0313 224.367 16.9712 224.001 16.9712C223.635 16.9712 223.293 17.0326 222.975 17.1555C222.656 17.2783 222.363 17.4442 222.096 17.6532L224 19.557ZM226.347 21.9039C226.556 21.6366 226.722 21.3439 226.845 21.0257C226.967 20.7075 227.029 20.3658 227.029 20.0005C227.029 19.6352 226.969 19.2903 226.849 18.9657C226.729 18.641 226.561 18.3456 226.347 18.0795L224.435 19.9834L226.347 21.9039ZM228.626 24.1827V15.7942L226.783 17.6494C227.052 17.9716 227.263 18.3308 227.415 18.727C227.568 19.1233 227.644 19.5476 227.644 20C227.644 20.4505 227.568 20.8729 227.416 21.2674C227.264 21.6618 227.054 22.0201 226.785 22.3424L228.626 24.1827ZM226.351 17.2167L228.247 15.3334H219.776L221.658 17.2147C221.98 16.9461 222.338 16.7359 222.733 16.5839C223.127 16.4319 223.55 16.3559 224 16.3559C224.45 16.3559 224.874 16.4321 225.272 16.5847C225.669 16.7373 226.028 16.9479 226.351 17.2167ZM219.782 25.241C219.495 25.241 219.253 25.1421 219.056 24.9444C218.858 24.7466 218.759 24.5046 218.759 24.2185V15.7815C218.759 15.4954 218.858 15.2535 219.056 15.0557C219.253 14.8579 219.495 14.759 219.782 14.759H228.219C228.505 14.759 228.747 14.8579 228.944 15.0557C229.142 15.2535 229.241 15.4954 229.241 15.7814V24.2154C229.241 24.4996 229.142 24.7416 228.944 24.9414C228.747 25.1411 228.505 25.241 228.219 25.241H219.782Z" fill="#7A2682"/>
<path d="M241.301 25.5V14.3H242.645V24.428H247.861V25.5H241.301ZM252.267 25.692C251.606 25.692 251.057 25.58 250.619 25.356C250.182 25.132 249.857 24.8333 249.643 24.46C249.43 24.0867 249.323 23.6813 249.323 23.244C249.323 22.4333 249.633 21.8093 250.251 21.372C250.87 20.9347 251.713 20.716 252.779 20.716H254.923V20.62C254.923 19.9267 254.742 19.404 254.379 19.052C254.017 18.6893 253.531 18.508 252.923 18.508C252.401 18.508 251.947 18.6413 251.563 18.908C251.19 19.164 250.955 19.5427 250.859 20.044H249.483C249.537 19.468 249.729 18.9827 250.059 18.588C250.401 18.1933 250.822 17.8947 251.323 17.692C251.825 17.4787 252.358 17.372 252.923 17.372C254.033 17.372 254.865 17.6707 255.419 18.268C255.985 18.8547 256.267 19.6387 256.267 20.62V25.5H255.067L254.987 24.076C254.763 24.524 254.433 24.908 253.995 25.228C253.569 25.5373 252.993 25.692 252.267 25.692ZM252.475 24.556C252.987 24.556 253.425 24.4227 253.787 24.156C254.161 23.8893 254.443 23.5427 254.635 23.116C254.827 22.6893 254.923 22.2413 254.923 21.772V21.756H252.891C252.102 21.756 251.542 21.8947 251.211 22.172C250.891 22.4387 250.731 22.7747 250.731 23.18C250.731 23.596 250.881 23.932 251.179 24.188C251.489 24.4333 251.921 24.556 252.475 24.556ZM262.524 25.692C261.873 25.692 261.292 25.5587 260.78 25.292C260.278 25.0253 259.894 24.652 259.628 24.172L259.5 25.5H258.284V13.98H259.628V18.876C259.884 18.492 260.246 18.1453 260.716 17.836C261.196 17.5267 261.804 17.372 262.54 17.372C263.329 17.372 264.017 17.5533 264.604 17.916C265.19 18.2787 265.644 18.7747 265.964 19.404C266.294 20.0333 266.46 20.748 266.46 21.548C266.46 22.348 266.294 23.0627 265.964 23.692C265.644 24.3107 265.185 24.8013 264.588 25.164C264.001 25.516 263.313 25.692 262.524 25.692ZM262.38 24.524C262.913 24.524 263.382 24.4013 263.788 24.156C264.193 23.9 264.513 23.548 264.748 23.1C264.982 22.652 265.1 22.1293 265.1 21.532C265.1 20.9347 264.982 20.412 264.748 19.964C264.513 19.516 264.193 19.1693 263.788 18.924C263.382 18.668 262.913 18.54 262.38 18.54C261.846 18.54 261.377 18.668 260.972 18.924C260.566 19.1693 260.246 19.516 260.012 19.964C259.777 20.412 259.66 20.9347 259.66 21.532C259.66 22.1293 259.777 22.652 260.012 23.1C260.246 23.548 260.566 23.9 260.972 24.156C261.377 24.4013 261.846 24.524 262.38 24.524ZM271.899 25.692C271.141 25.692 270.469 25.5213 269.883 25.18C269.296 24.828 268.832 24.3427 268.491 23.724C268.16 23.1053 267.995 22.3747 267.995 21.532C267.995 20.7 268.16 19.9747 268.491 19.356C268.821 18.7267 269.28 18.2413 269.867 17.9C270.464 17.548 271.152 17.372 271.931 17.372C272.699 17.372 273.36 17.548 273.915 17.9C274.48 18.2413 274.912 18.6947 275.211 19.26C275.509 19.8253 275.659 20.4333 275.659 21.084C275.659 21.2013 275.653 21.3187 275.643 21.436C275.643 21.5533 275.643 21.6867 275.643 21.836H269.323C269.355 22.444 269.493 22.9507 269.739 23.356C269.995 23.7507 270.309 24.0493 270.683 24.252C271.067 24.4547 271.472 24.556 271.899 24.556C272.453 24.556 272.917 24.428 273.291 24.172C273.664 23.916 273.936 23.5693 274.107 23.132H275.435C275.221 23.868 274.811 24.4813 274.203 24.972C273.605 25.452 272.837 25.692 271.899 25.692ZM271.899 18.508C271.259 18.508 270.688 18.7053 270.187 19.1C269.696 19.484 269.413 20.0493 269.339 20.796H274.331C274.299 20.0813 274.053 19.5213 273.595 19.116C273.136 18.7107 272.571 18.508 271.899 18.508ZM277.44 25.5V13.98H278.784V25.5H277.44Z" fill="#7A2682"/>
<rect x="300.75" y="0.75" width="94.5" height="38.5" rx="7.25" fill="white"/>
<rect x="300.75" y="0.75" width="94.5" height="38.5" rx="7.25" stroke="#7A2682" stroke-width="1.5"/>
<path d="M319.76 24.6667H328.23L326.342 22.7789C326.02 23.0496 325.662 23.2605 325.267 23.4115C324.873 23.5624 324.45 23.6379 324 23.6379C323.55 23.6379 323.126 23.5626 322.728 23.4122C322.331 23.2618 321.974 23.0521 321.656 22.7834L319.76 24.6667ZM319.374 24.1827L321.221 22.3424C320.948 22.0201 320.737 21.6618 320.587 21.2674C320.437 20.8729 320.362 20.4505 320.362 20C320.362 19.5496 320.437 19.1258 320.588 18.7285C320.738 18.3313 320.948 17.9716 321.217 17.6494L319.374 15.7942V24.1827ZM321.66 21.9039L323.567 20L321.66 18.0962C321.441 18.3613 321.272 18.6533 321.154 18.972C321.036 19.2907 320.977 19.6329 320.977 19.9987C320.977 20.3646 321.036 20.7071 321.154 21.0262C321.272 21.3454 321.441 21.638 321.66 21.9039ZM323.999 23.0225C324.365 23.0225 324.707 22.9635 325.026 22.8455C325.345 22.7276 325.638 22.5593 325.904 22.3404L324 20.4199L322.079 22.3404C322.345 22.5593 322.639 22.7276 322.964 22.8455C323.288 22.9635 323.633 23.0225 323.999 23.0225ZM324 19.557L325.904 17.6532C325.638 17.4386 325.346 17.2714 325.027 17.1514C324.709 17.0313 324.367 16.9712 324.001 16.9712C323.635 16.9712 323.293 17.0326 322.974 17.1555C322.656 17.2783 322.363 17.4442 322.096 17.6532L324 19.557ZM326.347 21.9039C326.556 21.6366 326.722 21.3439 326.844 21.0257C326.967 20.7075 327.029 20.3658 327.029 20.0005C327.029 19.6352 326.969 19.2903 326.849 18.9657C326.729 18.641 326.561 18.3456 326.347 18.0795L324.435 19.9834L326.347 21.9039ZM328.626 24.1827V15.7942L326.783 17.6494C327.052 17.9716 327.263 18.3308 327.415 18.727C327.568 19.1233 327.644 19.5476 327.644 20C327.644 20.4505 327.568 20.8729 327.416 21.2674C327.264 21.6618 327.054 22.0201 326.785 22.3424L328.626 24.1827ZM326.351 17.2167L328.247 15.3334H319.776L321.658 17.2147C321.98 16.9461 322.338 16.7359 322.733 16.5839C323.127 16.4319 323.55 16.3559 324 16.3559C324.45 16.3559 324.874 16.4321 325.271 16.5847C325.669 16.7373 326.028 16.9479 326.351 17.2167ZM319.781 25.241C319.495 25.241 319.253 25.1421 319.056 24.9444C318.858 24.7466 318.759 24.5046 318.759 24.2185V15.7815C318.759 15.4954 318.858 15.2535 319.056 15.0557C319.253 14.8579 319.495 14.759 319.781 14.759H328.218C328.505 14.759 328.747 14.8579 328.944 15.0557C329.142 15.2535 329.241 15.4954 329.241 15.7814V24.2154C329.241 24.4996 329.142 24.7416 328.944 24.9414C328.747 25.1411 328.505 25.241 328.218 25.241H319.781Z" fill="#7A2682"/>
<path d="M341.301 25.5V14.3H342.645V24.428H347.861V25.5H341.301ZM352.267 25.692C351.606 25.692 351.057 25.58 350.619 25.356C350.182 25.132 349.857 24.8333 349.643 24.46C349.43 24.0867 349.323 23.6813 349.323 23.244C349.323 22.4333 349.633 21.8093 350.251 21.372C350.87 20.9347 351.713 20.716 352.779 20.716H354.923V20.62C354.923 19.9267 354.742 19.404 354.379 19.052C354.017 18.6893 353.531 18.508 352.923 18.508C352.401 18.508 351.947 18.6413 351.563 18.908C351.19 19.164 350.955 19.5427 350.859 20.044H349.483C349.537 19.468 349.729 18.9827 350.059 18.588C350.401 18.1933 350.822 17.8947 351.323 17.692C351.825 17.4787 352.358 17.372 352.923 17.372C354.033 17.372 354.865 17.6707 355.419 18.268C355.985 18.8547 356.267 19.6387 356.267 20.62V25.5H355.067L354.987 24.076C354.763 24.524 354.433 24.908 353.995 25.228C353.569 25.5373 352.993 25.692 352.267 25.692ZM352.475 24.556C352.987 24.556 353.425 24.4227 353.787 24.156C354.161 23.8893 354.443 23.5427 354.635 23.116C354.827 22.6893 354.923 22.2413 354.923 21.772V21.756H352.891C352.102 21.756 351.542 21.8947 351.211 22.172C350.891 22.4387 350.731 22.7747 350.731 23.18C350.731 23.596 350.881 23.932 351.179 24.188C351.489 24.4333 351.921 24.556 352.475 24.556ZM362.524 25.692C361.873 25.692 361.292 25.5587 360.78 25.292C360.278 25.0253 359.894 24.652 359.628 24.172L359.5 25.5H358.284V13.98H359.628V18.876C359.884 18.492 360.246 18.1453 360.716 17.836C361.196 17.5267 361.804 17.372 362.54 17.372C363.329 17.372 364.017 17.5533 364.604 17.916C365.19 18.2787 365.644 18.7747 365.964 19.404C366.294 20.0333 366.46 20.748 366.46 21.548C366.46 22.348 366.294 23.0627 365.964 23.692C365.644 24.3107 365.185 24.8013 364.588 25.164C364.001 25.516 363.313 25.692 362.524 25.692ZM362.38 24.524C362.913 24.524 363.382 24.4013 363.788 24.156C364.193 23.9 364.513 23.548 364.748 23.1C364.982 22.652 365.1 22.1293 365.1 21.532C365.1 20.9347 364.982 20.412 364.748 19.964C364.513 19.516 364.193 19.1693 363.788 18.924C363.382 18.668 362.913 18.54 362.38 18.54C361.846 18.54 361.377 18.668 360.972 18.924C360.566 19.1693 360.246 19.516 360.012 19.964C359.777 20.412 359.66 20.9347 359.66 21.532C359.66 22.1293 359.777 22.652 360.012 23.1C360.246 23.548 360.566 23.9 360.972 24.156C361.377 24.4013 361.846 24.524 362.38 24.524ZM371.899 25.692C371.141 25.692 370.469 25.5213 369.883 25.18C369.296 24.828 368.832 24.3427 368.491 23.724C368.16 23.1053 367.995 22.3747 367.995 21.532C367.995 20.7 368.16 19.9747 368.491 19.356C368.821 18.7267 369.28 18.2413 369.867 17.9C370.464 17.548 371.152 17.372 371.931 17.372C372.699 17.372 373.36 17.548 373.915 17.9C374.48 18.2413 374.912 18.6947 375.211 19.26C375.509 19.8253 375.659 20.4333 375.659 21.084C375.659 21.2013 375.653 21.3187 375.643 21.436C375.643 21.5533 375.643 21.6867 375.643 21.836H369.323C369.355 22.444 369.493 22.9507 369.739 23.356C369.995 23.7507 370.309 24.0493 370.683 24.252C371.067 24.4547 371.472 24.556 371.899 24.556C372.453 24.556 372.917 24.428 373.291 24.172C373.664 23.916 373.936 23.5693 374.107 23.132H375.435C375.221 23.868 374.811 24.4813 374.203 24.972C373.605 25.452 372.837 25.692 371.899 25.692ZM371.899 18.508C371.259 18.508 370.688 18.7053 370.187 19.1C369.696 19.484 369.413 20.0493 369.339 20.796H374.331C374.299 20.0813 374.053 19.5213 373.595 19.116C373.136 18.7107 372.571 18.508 371.899 18.508ZM377.44 25.5V13.98H378.784V25.5H377.44Z" fill="#7A2682"/>
<rect x="400.75" y="0.75" width="94.5" height="38.5" rx="7.25" fill="white"/>
<rect x="400.75" y="0.75" width="94.5" height="38.5" rx="7.25" stroke="#7A2682" stroke-width="1.5"/>
<path d="M419.76 24.6667H428.23L426.342 22.7789C426.02 23.0496 425.662 23.2605 425.267 23.4115C424.873 23.5624 424.45 23.6379 424 23.6379C423.55 23.6379 423.126 23.5626 422.728 23.4122C422.331 23.2618 421.974 23.0521 421.656 22.7834L419.76 24.6667ZM419.374 24.1827L421.221 22.3424C420.948 22.0201 420.737 21.6618 420.587 21.2674C420.437 20.8729 420.362 20.4505 420.362 20C420.362 19.5496 420.437 19.1258 420.588 18.7285C420.738 18.3313 420.948 17.9716 421.217 17.6494L419.374 15.7942V24.1827ZM421.66 21.9039L423.567 20L421.66 18.0962C421.441 18.3613 421.272 18.6533 421.154 18.972C421.036 19.2907 420.977 19.6329 420.977 19.9987C420.977 20.3646 421.036 20.7071 421.154 21.0262C421.272 21.3454 421.441 21.638 421.66 21.9039ZM423.999 23.0225C424.365 23.0225 424.707 22.9635 425.026 22.8455C425.345 22.7276 425.638 22.5593 425.904 22.3404L424 20.4199L422.079 22.3404C422.345 22.5593 422.639 22.7276 422.964 22.8455C423.288 22.9635 423.633 23.0225 423.999 23.0225ZM424 19.557L425.904 17.6532C425.638 17.4386 425.346 17.2714 425.027 17.1514C424.709 17.0313 424.367 16.9712 424.001 16.9712C423.635 16.9712 423.293 17.0326 422.974 17.1555C422.656 17.2783 422.363 17.4442 422.096 17.6532L424 19.557ZM426.347 21.9039C426.556 21.6366 426.722 21.3439 426.844 21.0257C426.967 20.7075 427.029 20.3658 427.029 20.0005C427.029 19.6352 426.969 19.2903 426.849 18.9657C426.729 18.641 426.561 18.3456 426.347 18.0795L424.435 19.9834L426.347 21.9039ZM428.626 24.1827V15.7942L426.783 17.6494C427.052 17.9716 427.263 18.3308 427.415 18.727C427.568 19.1233 427.644 19.5476 427.644 20C427.644 20.4505 427.568 20.8729 427.416 21.2674C427.264 21.6618 427.054 22.0201 426.785 22.3424L428.626 24.1827ZM426.351 17.2167L428.247 15.3334H419.776L421.658 17.2147C421.98 16.9461 422.338 16.7359 422.733 16.5839C423.127 16.4319 423.55 16.3559 424 16.3559C424.45 16.3559 424.874 16.4321 425.271 16.5847C425.669 16.7373 426.028 16.9479 426.351 17.2167ZM419.781 25.241C419.495 25.241 419.253 25.1421 419.056 24.9444C418.858 24.7466 418.759 24.5046 418.759 24.2185V15.7815C418.759 15.4954 418.858 15.2535 419.056 15.0557C419.253 14.8579 419.495 14.759 419.781 14.759H428.218C428.505 14.759 428.747 14.8579 428.944 15.0557C429.142 15.2535 429.241 15.4954 429.241 15.7814V24.2154C429.241 24.4996 429.142 24.7416 428.944 24.9414C428.747 25.1411 428.505 25.241 428.218 25.241H419.781Z" fill="#7A2682"/>
<path d="M441.301 25.5V14.3H442.645V24.428H447.861V25.5H441.301ZM452.267 25.692C451.606 25.692 451.057 25.58 450.619 25.356C450.182 25.132 449.857 24.8333 449.643 24.46C449.43 24.0867 449.323 23.6813 449.323 23.244C449.323 22.4333 449.633 21.8093 450.251 21.372C450.87 20.9347 451.713 20.716 452.779 20.716H454.923V20.62C454.923 19.9267 454.742 19.404 454.379 19.052C454.017 18.6893 453.531 18.508 452.923 18.508C452.401 18.508 451.947 18.6413 451.563 18.908C451.19 19.164 450.955 19.5427 450.859 20.044H449.483C449.537 19.468 449.729 18.9827 450.059 18.588C450.401 18.1933 450.822 17.8947 451.323 17.692C451.825 17.4787 452.358 17.372 452.923 17.372C454.033 17.372 454.865 17.6707 455.419 18.268C455.985 18.8547 456.267 19.6387 456.267 20.62V25.5H455.067L454.987 24.076C454.763 24.524 454.433 24.908 453.995 25.228C453.569 25.5373 452.993 25.692 452.267 25.692ZM452.475 24.556C452.987 24.556 453.425 24.4227 453.787 24.156C454.161 23.8893 454.443 23.5427 454.635 23.116C454.827 22.6893 454.923 22.2413 454.923 21.772V21.756H452.891C452.102 21.756 451.542 21.8947 451.211 22.172C450.891 22.4387 450.731 22.7747 450.731 23.18C450.731 23.596 450.881 23.932 451.179 24.188C451.489 24.4333 451.921 24.556 452.475 24.556ZM462.524 25.692C461.873 25.692 461.292 25.5587 460.78 25.292C460.278 25.0253 459.894 24.652 459.628 24.172L459.5 25.5H458.284V13.98H459.628V18.876C459.884 18.492 460.246 18.1453 460.716 17.836C461.196 17.5267 461.804 17.372 462.54 17.372C463.329 17.372 464.017 17.5533 464.604 17.916C465.19 18.2787 465.644 18.7747 465.964 19.404C466.294 20.0333 466.46 20.748 466.46 21.548C466.46 22.348 466.294 23.0627 465.964 23.692C465.644 24.3107 465.185 24.8013 464.588 25.164C464.001 25.516 463.313 25.692 462.524 25.692ZM462.38 24.524C462.913 24.524 463.382 24.4013 463.788 24.156C464.193 23.9 464.513 23.548 464.748 23.1C464.982 22.652 465.1 22.1293 465.1 21.532C465.1 20.9347 464.982 20.412 464.748 19.964C464.513 19.516 464.193 19.1693 463.788 18.924C463.382 18.668 462.913 18.54 462.38 18.54C461.846 18.54 461.377 18.668 460.972 18.924C460.566 19.1693 460.246 19.516 460.012 19.964C459.777 20.412 459.66 20.9347 459.66 21.532C459.66 22.1293 459.777 22.652 460.012 23.1C460.246 23.548 460.566 23.9 460.972 24.156C461.377 24.4013 461.846 24.524 462.38 24.524ZM471.899 25.692C471.141 25.692 470.469 25.5213 469.883 25.18C469.296 24.828 468.832 24.3427 468.491 23.724C468.16 23.1053 467.995 22.3747 467.995 21.532C467.995 20.7 468.16 19.9747 468.491 19.356C468.821 18.7267 469.28 18.2413 469.867 17.9C470.464 17.548 471.152 17.372 471.931 17.372C472.699 17.372 473.36 17.548 473.915 17.9C474.48 18.2413 474.912 18.6947 475.211 19.26C475.509 19.8253 475.659 20.4333 475.659 21.084C475.659 21.2013 475.653 21.3187 475.643 21.436C475.643 21.5533 475.643 21.6867 475.643 21.836H469.323C469.355 22.444 469.493 22.9507 469.739 23.356C469.995 23.7507 470.309 24.0493 470.683 24.252C471.067 24.4547 471.472 24.556 471.899 24.556C472.453 24.556 472.917 24.428 473.291 24.172C473.664 23.916 473.936 23.5693 474.107 23.132H475.435C475.221 23.868 474.811 24.4813 474.203 24.972C473.605 25.452 472.837 25.692 471.899 25.692ZM471.899 18.508C471.259 18.508 470.688 18.7053 470.187 19.1C469.696 19.484 469.413 20.0493 469.339 20.796H474.331C474.299 20.0813 474.053 19.5213 473.595 19.116C473.136 18.7107 472.571 18.508 471.899 18.508ZM477.44 25.5V13.98H478.784V25.5H477.44Z" fill="#7A2682"/>
</svg>
