<svg width="92" height="20" viewBox="0 0 92 20" fill="none" xmlns="http://www.w3.org/2000/svg">
<path d="M0 2C0 0.895431 0.895431 0 2 0H90C91.1046 0 92 0.895431 92 2V18C92 19.1046 91.1046 20 90 20H2C0.89543 20 0 19.1046 0 18V2Z" fill="#DEC9DF"/>
<path d="M4 2.5H16C16.8284 2.5 17.5 3.17157 17.5 4V16C17.5 16.8284 16.8284 17.5 16 17.5H4C3.17157 17.5 2.5 16.8284 2.5 16V4C2.5 3.17157 3.17157 2.5 4 2.5Z" fill="white" stroke="#A89AAA"/>
<path d="M2 4C2 2.89543 2.89543 2 4 2H16C17.1046 2 18 2.89543 18 4V16C18 17.1046 17.1046 18 16 18H4C2.89543 18 2 17.1046 2 16V4Z" fill="#7A2682"/>
<path d="M15 7.14442L9.93209 12.5346L9.93134 12.5314C9.6516 12.8315 9.27284 13 8.87798 13C8.48313 13 8.10437 12.8315 7.82463 12.5314L5 9.55783L6.04478 8.40859L8.87612 11.3846L13.9552 6L15 7.14442Z" fill="white"/>
<path d="M38 4C38 2.89543 38.8954 2 40 2H52C53.1046 2 54 2.89543 54 4V16C54 17.1046 53.1046 18 52 18H40C38.8954 18 38 17.1046 38 16V4Z" fill="white"/>
<path d="M45.6955 11.7045H46.3108V10.3813H47.634V9.76599H46.3108V8.44299H45.6955V9.76599H44.3725V10.3813H45.6955V11.7045ZM41.4032 14.4327V13.8173H42.4288V8.62749C42.4288 7.76083 42.7053 6.99694 43.2582 6.33583C43.8111 5.67471 44.5096 5.26021 45.3538 5.09232V4.74799C45.3538 4.56633 45.4151 4.41366 45.5375 4.28999C45.6601 4.16633 45.8131 4.10449 45.9965 4.10449C46.1801 4.10449 46.3342 4.16633 46.459 4.28999C46.5838 4.41366 46.6462 4.56633 46.6462 4.74799V5.09232C47.4923 5.26021 48.1924 5.67471 48.7465 6.33583C49.3005 6.99694 49.5775 7.76083 49.5775 8.62749V13.8173H50.6032V14.4327H41.4032ZM45.9977 16.1333C45.7064 16.1333 45.4579 16.0299 45.2522 15.823C45.0465 15.6162 44.9437 15.3675 44.9437 15.077H47.0563C47.0563 15.3697 46.9527 15.6189 46.7455 15.8247C46.5382 16.0304 46.2889 16.1333 45.9977 16.1333ZM43.0442 13.8173H48.9622V8.62749C48.9622 7.80827 48.6728 7.11083 48.0942 6.53516C47.5155 5.9596 46.8167 5.67183 45.9977 5.67183C45.1788 5.67183 44.4818 5.9596 43.9067 6.53516C43.3317 7.11083 43.0442 7.80827 43.0442 8.62749V13.8173Z" fill="#0B1C19"/>
<path d="M56 4C56 2.89543 56.8954 2 58 2H70C71.1046 2 72 2.89543 72 4V16C72 17.1046 71.1046 18 70 18H58C56.8954 18 56 17.1046 56 16V4Z" fill="white"/>
<path d="M59.7963 15.231C59.5071 15.231 59.2636 15.1321 59.0658 14.9343C58.8681 14.7365 58.7692 14.4943 58.7692 14.2076V5.79262C58.7692 5.50595 58.8681 5.26373 59.0658 5.06595C59.2636 4.86818 59.5058 4.76929 59.7925 4.76929H68.2075C68.4942 4.76929 68.7364 4.86818 68.9342 5.06595C69.1319 5.26373 69.2308 5.50579 69.2308 5.79212V10.8751C69.1291 10.8256 69.0278 10.7781 68.927 10.7328C68.8261 10.6875 68.7222 10.648 68.6153 10.6143V7.84629H64.3108V10.8116C64.0916 10.8933 63.8839 10.9957 63.6878 11.119C63.4917 11.2423 63.3036 11.3865 63.1235 11.5515H59.3847V14.2053C59.3847 14.325 59.4231 14.4232 59.5 14.5001C59.5769 14.577 59.6752 14.6155 59.7948 14.6155H61.293C61.3571 14.7279 61.4243 14.8338 61.4945 14.9331C61.5648 15.0325 61.6368 15.1317 61.7103 15.231H59.7963ZM59.3847 10.936H63.6955V7.84629H59.3847V10.936ZM59.3847 7.23095H68.6153V5.79495C68.6153 5.67529 68.5769 5.57701 68.5 5.50012C68.4231 5.42323 68.3248 5.38479 68.2052 5.38479H59.7948C59.6752 5.38479 59.5769 5.42323 59.5 5.50012C59.4231 5.57701 59.3847 5.67529 59.3847 5.79495V7.23095ZM66.6847 16.4105C65.8757 16.4105 65.1292 16.203 64.4452 15.7881C63.7612 15.3733 63.2145 14.819 62.8052 14.1251C63.2154 13.4349 63.7623 12.8826 64.4458 12.4681C65.1294 12.0536 65.8753 11.8463 66.6837 11.8463C67.492 11.8463 68.2383 12.0533 68.9225 12.4675C69.6066 12.8816 70.1538 13.4328 70.5642 14.1213C70.1496 14.8183 69.6011 15.3741 68.9187 15.7886C68.2362 16.2032 67.4916 16.4105 66.6847 16.4105ZM66.6847 15.795C67.309 15.795 67.8984 15.6432 68.4528 15.3396C69.0074 15.036 69.471 14.6317 69.8437 14.127C69.471 13.6223 69.0074 13.2186 68.4528 12.9158C67.8984 12.613 67.309 12.4616 66.6847 12.4616C66.0602 12.4616 65.4708 12.613 64.9163 12.9158C64.3619 13.2186 63.8983 13.6223 63.5257 14.127C63.8983 14.6317 64.3619 15.036 64.9163 15.3396C65.4708 15.6432 66.0602 15.795 66.6847 15.795ZM66.6853 14.7693C66.5079 14.7693 66.3571 14.7071 66.233 14.5826C66.1089 14.4582 66.0468 14.3066 66.0468 14.1278C66.0468 13.9491 66.1093 13.7977 66.2343 13.6735C66.3592 13.5493 66.5097 13.4873 66.6858 13.4873C66.8619 13.4873 67.0132 13.5497 67.1395 13.6746C67.2657 13.7994 67.3288 13.9497 67.3288 14.1256C67.3288 14.3065 67.2659 14.459 67.14 14.5831C67.0142 14.7072 66.8627 14.7693 66.6853 14.7693Z" fill="#0B1C19"/>
<path d="M74 4C74 2.89543 74.8954 2 76 2H88C89.1046 2 90 2.89543 90 4V16C90 17.1046 89.1046 18 88 18H76C74.8954 18 74 17.1046 74 16V4Z" fill="white"/>
<g clip-path="url(#clip0_8199_375943)">
<path d="M79.1077 15.2309C78.8234 15.2309 78.5814 15.131 78.3817 14.9313C78.1819 14.7314 78.082 14.4894 78.082 14.2053V6.03093H77.4257V5.4176H80.0205V4.9231H83.9897V5.41543H86.5847V6.03093H85.9282V14.2083C85.9282 14.4945 85.8293 14.7365 85.6315 14.9343C85.4337 15.132 85.1907 15.2309 84.9025 15.2309H79.1077ZM85.3128 6.03093H78.6975V14.2053C78.6975 14.3249 78.7359 14.4232 78.8128 14.5001C78.8897 14.577 78.988 14.6154 79.1077 14.6154H84.9025C85.005 14.6154 85.0991 14.5727 85.1847 14.4873C85.2701 14.4018 85.3128 14.3078 85.3128 14.2053V6.03093ZM80.5897 13.2943H81.2052V7.3456H80.5897V13.2943ZM82.8052 13.2943H83.4205V7.3456H82.8052V13.2943Z" fill="#0B1C19"/>
</g>
<defs>
<clipPath id="clip0_8199_375943">
<rect width="16" height="16" fill="white" transform="translate(74 2)"/>
</clipPath>
</defs>
</svg>
