<svg width="216" height="41" viewBox="0 0 216 41" fill="none" xmlns="http://www.w3.org/2000/svg">
<g filter="url(#filter0_d_8197_383109)">
<path d="M4 8C4 5.79086 5.79086 4 8 4H212V37H8C5.79086 37 4 35.2091 4 33V8Z" fill="#DEC9DF" shape-rendering="crispEdges"/>
<path d="M12 11C12 9.89543 12.8954 9 14 9H34C35.1046 9 36 9.89543 36 11V31C36 32.1046 35.1046 33 34 33H14C12.8954 33 12 32.1046 12 31V11Z" fill="#7A2682"/>
<g clip-path="url(#clip0_8197_383109)">
<path d="M24.0045 24.0615C24.9952 24.0615 25.8357 23.7149 26.526 23.0215C27.2163 22.328 27.5615 21.486 27.5615 20.4955C27.5615 19.5049 27.2148 18.6644 26.5215 17.974C25.828 17.2837 24.986 16.9385 23.9955 16.9385C23.0048 16.9385 22.1643 17.2852 21.474 17.9785C20.7837 18.672 20.4385 19.514 20.4385 20.5045C20.4385 21.4952 20.7852 22.3357 21.4785 23.026C22.172 23.7164 23.014 24.0615 24.0045 24.0615ZM24.0017 23.1693C23.2609 23.1693 22.6305 22.91 22.1105 22.3913C21.5907 21.8726 21.3307 21.2428 21.3307 20.5018C21.3307 19.761 21.5901 19.1305 22.1087 18.6105C22.6274 18.0907 23.2572 17.8308 23.9982 17.8308C24.7391 17.8308 25.3695 18.0901 25.8895 18.6088C26.4093 19.1275 26.6692 19.7573 26.6692 20.4983C26.6692 21.2391 26.4099 21.8695 25.8912 22.3895C25.3726 22.9094 24.7427 23.1693 24.0017 23.1693ZM24.0027 26.877C21.8759 26.877 19.9378 26.2974 18.1885 25.138C16.4392 23.9787 15.1251 22.4327 14.2462 20.5C15.1251 18.5674 16.4382 17.0214 18.1857 15.862C19.9332 14.7027 21.8704 14.123 23.9972 14.123C26.1241 14.123 28.0622 14.7027 29.8115 15.862C31.5608 17.0214 32.8749 18.5674 33.7537 20.5C32.8749 22.4327 31.5617 23.9787 29.8142 25.138C28.0667 26.2974 26.1296 26.877 24.0027 26.877ZM24 25.9538C25.8603 25.9538 27.5739 25.4637 29.1407 24.4835C30.7077 23.5034 31.9018 22.1755 32.723 20.5C31.9018 18.8245 30.7077 17.4967 29.1407 16.5165C27.5739 15.5364 25.8603 15.0463 24 15.0463C22.1397 15.0463 20.4261 15.5364 18.8592 16.5165C17.2922 17.4967 16.0982 18.8245 15.277 20.5C16.0982 22.1755 17.2922 23.5034 18.8592 24.4835C20.4261 25.4637 22.1397 25.9538 24 25.9538Z" fill="white"/>
</g>
<path d="M44 11C44 9.89543 44.8954 9 46 9H66C67.1046 9 68 9.89543 68 11V31C68 32.1046 67.1046 33 66 33H46C44.8954 33 44 32.1046 44 31V11Z" fill="white"/>
<g clip-path="url(#clip1_8197_383109)">
<path d="M49.077 27.9231H50.1135L60.827 17.2126L59.7875 16.1731L49.077 26.8896V27.9231ZM48.1537 28.8463V26.4963L61.2115 13.4126C61.3037 13.3301 61.4054 13.2663 61.5167 13.2213C61.6279 13.1763 61.7466 13.1538 61.8727 13.1538C61.9966 13.1538 62.1165 13.1745 62.2325 13.2158C62.3487 13.2573 62.4599 13.3248 62.5662 13.4183L63.5875 14.4423C63.6812 14.5405 63.7477 14.6475 63.787 14.7633C63.8265 14.8791 63.8462 14.9961 63.8462 15.1141C63.8462 15.2401 63.8247 15.3609 63.7817 15.4766C63.7389 15.5922 63.6736 15.6946 63.5857 15.7836L50.5037 28.8463H48.1537ZM60.299 16.7011L59.7875 16.1731L60.827 17.2126L60.299 16.7011Z" fill="#0B1C19"/>
</g>
<path d="M76 11C76 9.89543 76.8954 9 78 9H98C99.1046 9 100 9.89543 100 11V31C100 32.1046 99.1046 33 98 33H78C76.8954 33 76 32.1046 76 31V11Z" fill="white"/>
<path d="M87.5432 23.5567H88.4662V21.572H90.451V20.649H88.4662V18.6645H87.5432V20.649H85.5587V21.572H87.5432V23.5567ZM81.1047 27.649V26.726H82.6432V18.9412C82.6432 17.6412 83.0579 16.4954 83.8872 15.5037C84.7166 14.5121 85.7644 13.8903 87.0307 13.6385V13.122C87.0307 12.8495 87.1226 12.6205 87.3062 12.435C87.4901 12.2495 87.7196 12.1567 87.9947 12.1567C88.2701 12.1567 88.5013 12.2495 88.6885 12.435C88.8757 12.6205 88.9692 12.8495 88.9692 13.122V13.6385C90.2384 13.8903 91.2886 14.5121 92.1197 15.5037C92.9507 16.4954 93.3662 17.6412 93.3662 18.9412V26.726H94.9047V27.649H81.1047ZM87.9965 30.2C87.5597 30.2 87.1869 30.0448 86.8782 29.7345C86.5697 29.4243 86.4155 29.0513 86.4155 28.6155H89.5845C89.5845 29.0545 89.4291 29.4283 89.1182 29.737C88.8072 30.0457 88.4333 30.2 87.9965 30.2ZM83.5662 26.726H92.4432V18.9412C92.4432 17.7124 92.0092 16.6662 91.1412 15.8027C90.2732 14.9394 89.225 14.5077 87.9965 14.5077C86.7682 14.5077 85.7227 14.9394 84.86 15.8027C83.9975 16.6662 83.5662 17.7124 83.5662 18.9412V26.726Z" fill="#0B1C19"/>
<path d="M108 11C108 9.89543 108.895 9 110 9H130C131.105 9 132 9.89543 132 11V31C132 32.1046 131.105 33 130 33H110C108.895 33 108 32.1046 108 31V11Z" fill="white"/>
<path d="M113.694 28.8463C113.261 28.8463 112.895 28.698 112.599 28.4013C112.302 28.1046 112.154 27.7413 112.154 27.3113V14.6888C112.154 14.2588 112.302 13.8955 112.599 13.5988C112.895 13.3021 113.259 13.1538 113.689 13.1538H126.311C126.741 13.1538 127.105 13.3021 127.401 13.5988C127.698 13.8955 127.846 14.2586 127.846 14.6881V22.3126C127.694 22.2382 127.542 22.1671 127.39 22.0991C127.239 22.0311 127.083 21.9718 126.923 21.9213V17.7693H120.466V22.2173C120.137 22.3398 119.826 22.4935 119.532 22.6783C119.238 22.8633 118.955 23.0796 118.685 23.3271H113.077V27.3078C113.077 27.4873 113.135 27.6347 113.25 27.7501C113.365 27.8654 113.513 27.9231 113.692 27.9231H115.939C116.036 28.0917 116.136 28.2506 116.242 28.3996C116.347 28.5486 116.455 28.6975 116.565 28.8463H113.694ZM113.077 22.4038H119.543V17.7693H113.077V22.4038ZM113.077 16.8463H126.923V14.6923C126.923 14.5128 126.865 14.3654 126.75 14.2501C126.635 14.1347 126.487 14.0771 126.308 14.0771H113.692C113.513 14.0771 113.365 14.1347 113.25 14.2501C113.135 14.3654 113.077 14.5128 113.077 14.6923V16.8463ZM124.027 30.6156C122.813 30.6156 121.694 30.3044 120.668 29.6821C119.642 29.0599 118.822 28.2284 118.208 27.1876C118.823 26.1522 119.643 25.3237 120.669 24.7021C121.694 24.0802 122.813 23.7693 124.025 23.7693C125.238 23.7693 126.357 24.0799 127.384 24.7011C128.41 25.3222 129.231 26.1491 129.846 27.1818C129.224 28.2273 128.402 29.061 127.378 29.6828C126.354 30.3046 125.237 30.6156 124.027 30.6156ZM124.027 29.6923C124.963 29.6923 125.848 29.4646 126.679 29.0093C127.511 28.5538 128.206 27.9475 128.765 27.1903C128.206 26.4333 127.511 25.8277 126.679 25.3736C125.848 24.9194 124.963 24.6923 124.027 24.6923C123.09 24.6923 122.206 24.9194 121.374 25.3736C120.543 25.8277 119.847 26.4333 119.288 27.1903C119.847 27.9475 120.543 28.5538 121.374 29.0093C122.206 29.4646 123.09 29.6923 124.027 29.6923ZM124.028 28.1538C123.762 28.1538 123.536 28.0605 123.349 27.8738C123.163 27.6871 123.07 27.4597 123.07 27.1916C123.07 26.9236 123.164 26.6964 123.351 26.5101C123.539 26.3239 123.765 26.2308 124.029 26.2308C124.293 26.2308 124.52 26.3245 124.709 26.5118C124.899 26.699 124.993 26.9245 124.993 27.1883C124.993 27.4596 124.899 27.6884 124.71 27.8746C124.521 28.0607 124.294 28.1538 124.028 28.1538Z" fill="#0B1C19"/>
<path d="M140 11C140 9.89543 140.895 9 142 9H162C163.105 9 164 9.89543 164 11V31C164 32.1046 163.105 33 162 33H142C140.895 33 140 32.1046 140 31V11Z" fill="white"/>
<path d="M144.685 27.8347C144.258 27.8347 143.895 27.6849 143.596 27.3852C143.296 27.0854 143.146 26.7224 143.146 26.2962V13.6655C143.146 13.2391 143.296 12.8761 143.596 12.5765C143.895 12.2768 144.258 12.127 144.685 12.127H157.331C157.757 12.127 158.12 12.2768 158.42 12.5765C158.719 12.8761 158.869 13.2391 158.869 13.6655V19.5875C158.712 19.5375 158.557 19.4956 158.404 19.462C158.251 19.4283 158.098 19.3929 157.946 19.3557V13.6655C157.946 13.5116 157.882 13.3705 157.754 13.2422C157.626 13.114 157.484 13.05 157.331 13.05H144.685C144.531 13.05 144.39 13.114 144.261 13.2422C144.133 13.3705 144.069 13.5116 144.069 13.6655V26.2962C144.069 26.45 144.133 26.591 144.261 26.7192C144.39 26.8474 144.531 26.9115 144.685 26.9115H150.441C150.466 27.0801 150.497 27.2393 150.532 27.389C150.567 27.5388 150.616 27.6874 150.68 27.8347H144.685ZM144.069 25.8655V26.9115V13.05V19.3557V19.2807V25.8655ZM146.585 24.1655H150.603C150.64 24.0135 150.686 23.8614 150.74 23.7092C150.794 23.5569 150.856 23.4012 150.925 23.2422H146.585V24.1655ZM146.585 20.4422H153.239C153.537 20.2442 153.825 20.0753 154.103 19.9355C154.382 19.7958 154.683 19.6805 155.008 19.5895V19.5192H146.585V20.4422ZM146.585 16.7192H155.431V15.7962H146.585V16.7192ZM156.963 29.873C155.878 29.873 154.959 29.4955 154.203 28.7405C153.447 27.9853 153.069 27.0657 153.069 25.9817C153.069 24.8977 153.447 23.9779 154.202 23.2222C154.957 22.4664 155.876 22.0885 156.96 22.0885C158.044 22.0885 158.964 22.466 159.72 23.221C160.476 23.9761 160.854 24.8957 160.854 25.9797C160.854 27.0637 160.476 27.9836 159.721 28.7395C158.966 29.4951 158.047 29.873 156.963 29.873ZM156.592 28.8347H157.346V26.35H159.831V25.6115H157.346V23.127H156.592V25.6115H154.108V26.35H156.592V28.8347Z" fill="#0B1C19"/>
<path d="M172 11C172 9.89543 172.895 9 174 9H194C195.105 9 196 9.89543 196 11V31C196 32.1046 195.105 33 194 33H174C172.895 33 172 32.1046 172 31V11Z" fill="white"/>
<g clip-path="url(#clip2_8197_383109)">
<path d="M179.661 28.8463C179.235 28.8463 178.872 28.6964 178.572 28.3968C178.273 28.0969 178.123 27.7339 178.123 27.3078V15.0463H177.138V14.1263H181.031V13.3845H186.984V14.123H190.877V15.0463H189.892V27.3123C189.892 27.7416 189.744 28.1046 189.447 28.4013C189.151 28.6979 188.786 28.8463 188.354 28.8463H179.661ZM188.969 15.0463H179.046V27.3078C179.046 27.4873 179.104 27.6347 179.219 27.75C179.335 27.8654 179.482 27.923 179.661 27.923H188.354C188.508 27.923 188.649 27.8589 188.777 27.7308C188.905 27.6026 188.969 27.4616 188.969 27.3078V15.0463ZM181.884 25.9413H182.808V17.0183H181.884V25.9413ZM185.208 25.9413H186.131V17.0183H185.208V25.9413Z" fill="#0B1C19"/>
</g>
</g>
<defs>
<filter id="filter0_d_8197_383109" x="0" y="0" width="216" height="41" filterUnits="userSpaceOnUse" color-interpolation-filters="sRGB">
<feFlood flood-opacity="0" result="BackgroundImageFix"/>
<feColorMatrix in="SourceAlpha" type="matrix" values="0 0 0 0 0 0 0 0 0 0 0 0 0 0 0 0 0 0 127 0" result="hardAlpha"/>
<feOffset/>
<feGaussianBlur stdDeviation="2"/>
<feComposite in2="hardAlpha" operator="out"/>
<feColorMatrix type="matrix" values="0 0 0 0 0 0 0 0 0 0 0 0 0 0 0 0 0 0 0.1 0"/>
<feBlend mode="normal" in2="BackgroundImageFix" result="effect1_dropShadow_8197_383109"/>
<feBlend mode="normal" in="SourceGraphic" in2="effect1_dropShadow_8197_383109" result="shape"/>
</filter>
<clipPath id="clip0_8197_383109">
<rect width="24" height="24" fill="white" transform="translate(12 9)"/>
</clipPath>
<clipPath id="clip1_8197_383109">
<rect width="24" height="24" fill="white" transform="translate(44 9)"/>
</clipPath>
<clipPath id="clip2_8197_383109">
<rect width="24" height="24" fill="white" transform="translate(172 9)"/>
</clipPath>
</defs>
</svg>
