<svg width="256" height="60" viewBox="0 0 256 60" fill="none" xmlns="http://www.w3.org/2000/svg">
<path d="M1.184 12V0.799999H2.528L8.496 9.776V0.799999H9.84V12H8.496L2.528 3.024V12H1.184ZM15.7513 12.192C15.0046 12.192 14.3326 12.0213 13.7353 11.68C13.1379 11.3387 12.6633 10.8587 12.3113 10.24C11.9699 9.61067 11.7993 8.87467 11.7993 8.032C11.7993 7.18933 11.9753 6.45867 12.3273 5.84C12.6793 5.21067 13.1539 4.72533 13.7513 4.384C14.3593 4.04267 15.0366 3.872 15.7833 3.872C16.5299 3.872 17.2019 4.04267 17.7993 4.384C18.3966 4.72533 18.8659 5.21067 19.2073 5.84C19.5593 6.45867 19.7353 7.18933 19.7353 8.032C19.7353 8.87467 19.5593 9.61067 19.2073 10.24C18.8553 10.8587 18.3753 11.3387 17.7673 11.68C17.1699 12.0213 16.4979 12.192 15.7513 12.192ZM15.7513 11.04C16.2099 11.04 16.6366 10.928 17.0313 10.704C17.4259 10.48 17.7459 10.144 17.9913 9.696C18.2366 9.248 18.3593 8.69333 18.3593 8.032C18.3593 7.37067 18.2366 6.816 17.9913 6.368C17.7566 5.92 17.4419 5.584 17.0473 5.36C16.6526 5.136 16.2313 5.024 15.7833 5.024C15.3246 5.024 14.8979 5.136 14.5033 5.36C14.1086 5.584 13.7886 5.92 13.5433 6.368C13.2979 6.816 13.1753 7.37067 13.1753 8.032C13.1753 8.69333 13.2979 9.248 13.5433 9.696C13.7886 10.144 14.1033 10.48 14.4873 10.704C14.8819 10.928 15.3033 11.04 15.7513 11.04ZM21.604 12V4.064H22.82L22.916 5.216C23.172 4.78933 23.5133 4.45867 23.94 4.224C24.3667 3.98933 24.8467 3.872 25.38 3.872C26.0093 3.872 26.548 4 26.996 4.256C27.4547 4.512 27.8067 4.90133 28.052 5.424C28.3293 4.944 28.708 4.56533 29.188 4.288C29.6787 4.01067 30.2067 3.872 30.772 3.872C31.7213 3.872 32.4787 4.16 33.044 4.736C33.6093 5.30133 33.892 6.176 33.892 7.36V12H32.564V7.504C32.564 6.68267 32.3987 6.064 32.068 5.648C31.7373 5.232 31.2627 5.024 30.644 5.024C30.004 5.024 29.4707 5.27467 29.044 5.776C28.628 6.26667 28.42 6.97067 28.42 7.888V12H27.076V7.504C27.076 6.68267 26.9107 6.064 26.58 5.648C26.2493 5.232 25.7747 5.024 25.156 5.024C24.5267 5.024 23.9987 5.27467 23.572 5.776C23.156 6.26667 22.948 6.97067 22.948 7.888V12H21.604ZM40.1565 12.192C39.5058 12.192 38.9245 12.0587 38.4125 11.792C37.9112 11.5253 37.5272 11.152 37.2605 10.672L37.1325 12H35.9165V0.48H37.2605V5.376C37.5165 4.992 37.8792 4.64533 38.3485 4.336C38.8285 4.02667 39.4365 3.872 40.1725 3.872C40.9618 3.872 41.6498 4.05333 42.2365 4.416C42.8232 4.77867 43.2765 5.27467 43.5965 5.904C43.9272 6.53333 44.0925 7.248 44.0925 8.048C44.0925 8.848 43.9272 9.56267 43.5965 10.192C43.2765 10.8107 42.8178 11.3013 42.2205 11.664C41.6338 12.016 40.9458 12.192 40.1565 12.192ZM40.0125 11.024C40.5458 11.024 41.0152 10.9013 41.4205 10.656C41.8258 10.4 42.1458 10.048 42.3805 9.6C42.6152 9.152 42.7325 8.62933 42.7325 8.032C42.7325 7.43467 42.6152 6.912 42.3805 6.464C42.1458 6.016 41.8258 5.66933 41.4205 5.424C41.0152 5.168 40.5458 5.04 40.0125 5.04C39.4792 5.04 39.0098 5.168 38.6045 5.424C38.1992 5.66933 37.8792 6.016 37.6445 6.464C37.4098 6.912 37.2925 7.43467 37.2925 8.032C37.2925 8.62933 37.4098 9.152 37.6445 9.6C37.8792 10.048 38.1992 10.4 38.6045 10.656C39.0098 10.9013 39.4792 11.024 40.0125 11.024ZM45.9634 12V4.064H47.1794L47.2914 5.584C47.5367 5.06133 47.91 4.64533 48.4114 4.336C48.9127 4.02667 49.5314 3.872 50.2674 3.872V5.28H49.8994C49.43 5.28 48.998 5.36533 48.6034 5.536C48.2087 5.696 47.894 5.97333 47.6594 6.368C47.4247 6.76267 47.3074 7.30667 47.3074 8V12H45.9634ZM55.047 12.192C54.2897 12.192 53.6177 12.0213 53.031 11.68C52.4443 11.328 51.9803 10.8427 51.639 10.224C51.3083 9.60533 51.143 8.87467 51.143 8.032C51.143 7.2 51.3083 6.47467 51.639 5.856C51.9697 5.22667 52.4283 4.74133 53.015 4.4C53.6123 4.048 54.3003 3.872 55.079 3.872C55.847 3.872 56.5083 4.048 57.063 4.4C57.6283 4.74133 58.0603 5.19467 58.359 5.76C58.6577 6.32533 58.807 6.93333 58.807 7.584C58.807 7.70133 58.8017 7.81867 58.791 7.936C58.791 8.05333 58.791 8.18667 58.791 8.336H52.471C52.503 8.944 52.6417 9.45067 52.887 9.856C53.143 10.2507 53.4577 10.5493 53.831 10.752C54.215 10.9547 54.6203 11.056 55.047 11.056C55.6017 11.056 56.0657 10.928 56.439 10.672C56.8123 10.416 57.0843 10.0693 57.255 9.632H58.583C58.3697 10.368 57.959 10.9813 57.351 11.472C56.7537 11.952 55.9857 12.192 55.047 12.192ZM55.047 5.008C54.407 5.008 53.8363 5.20533 53.335 5.6C52.8443 5.984 52.5617 6.54933 52.487 7.296H57.479C57.447 6.58133 57.2017 6.02133 56.743 5.616C56.2843 5.21067 55.719 5.008 55.047 5.008Z" fill="#333333"/>
<path d="M67.36 6.24L67.632 3.952L65.824 5.344L65.072 4.064L67.2 3.2L65.088 2.384L65.776 1.136L67.648 2.528L67.344 0.223999H68.768L68.464 2.528L70.32 1.136L70.992 2.368L68.88 3.232L71.008 4.08L70.288 5.328L68.464 3.952L68.752 6.24H67.36Z" fill="#E72D51"/>
<rect x="0.5" y="20.5" width="255" height="39" rx="3.5" fill="white"/>
<rect x="0.5" y="20.5" width="255" height="39" rx="3.5" stroke="#E2E2E2"/>
<path d="M16.994 45V35.2H18.478V45H16.994ZM20.4107 45V38.056H21.7267L21.8387 39.274C22.0533 38.8447 22.366 38.5087 22.7767 38.266C23.1967 38.014 23.6773 37.888 24.2187 37.888C25.0587 37.888 25.7167 38.1493 26.1927 38.672C26.678 39.1947 26.9207 39.974 26.9207 41.01V45H25.4507V41.164C25.4507 39.82 24.9 39.148 23.7987 39.148C23.248 39.148 22.7907 39.344 22.4267 39.736C22.072 40.128 21.8947 40.688 21.8947 41.416V45H20.4107ZM31.5105 42.872C31.1465 42.872 30.8105 42.83 30.5025 42.746L29.9005 43.334C30.0031 43.3993 30.1291 43.4553 30.2785 43.502C30.4278 43.5487 30.6378 43.5907 30.9085 43.628C31.1791 43.6653 31.5478 43.7027 32.0145 43.74C32.9385 43.824 33.6058 44.048 34.0165 44.412C34.4271 44.7667 34.6325 45.2427 34.6325 45.84C34.6325 46.2507 34.5205 46.638 34.2965 47.002C34.0818 47.3753 33.7411 47.674 33.2745 47.898C32.8171 48.1313 32.2291 48.248 31.5105 48.248C30.5398 48.248 29.7511 48.0613 29.1445 47.688C28.5471 47.324 28.2485 46.7687 28.2485 46.022C28.2485 45.7327 28.3231 45.4433 28.4725 45.154C28.6311 44.874 28.8785 44.608 29.2145 44.356C29.0185 44.272 28.8458 44.1833 28.6965 44.09C28.5565 43.9873 28.4305 43.8847 28.3185 43.782V43.446L29.5225 42.214C28.9811 41.7473 28.7105 41.136 28.7105 40.38C28.7105 39.9227 28.8178 39.5073 29.0325 39.134C29.2565 38.7513 29.5785 38.448 29.9985 38.224C30.4185 38 30.9225 37.888 31.5105 37.888C31.9025 37.888 32.2665 37.944 32.6025 38.056H35.1925V39.036L33.9605 39.106C34.1845 39.4887 34.2965 39.9133 34.2965 40.38C34.2965 40.8467 34.1845 41.2667 33.9605 41.64C33.7458 42.0133 33.4285 42.312 33.0085 42.536C32.5978 42.76 32.0985 42.872 31.5105 42.872ZM31.5105 41.71C31.9398 41.71 32.2851 41.598 32.5465 41.374C32.8171 41.1407 32.9525 40.814 32.9525 40.394C32.9525 39.9647 32.8171 39.638 32.5465 39.414C32.2851 39.19 31.9398 39.078 31.5105 39.078C31.0718 39.078 30.7171 39.19 30.4465 39.414C30.1851 39.638 30.0545 39.9647 30.0545 40.394C30.0545 40.814 30.1851 41.1407 30.4465 41.374C30.7171 41.598 31.0718 41.71 31.5105 41.71ZM29.6485 45.882C29.6485 46.2833 29.8258 46.582 30.1805 46.778C30.5351 46.9833 30.9785 47.086 31.5105 47.086C32.0238 47.086 32.4391 46.974 32.7565 46.75C33.0738 46.5353 33.2325 46.246 33.2325 45.882C33.2325 45.6113 33.1251 45.378 32.9105 45.182C32.6958 44.9953 32.2898 44.8787 31.6925 44.832C31.2445 44.804 30.8478 44.762 30.5025 44.706C30.1758 44.8833 29.9518 45.0747 29.8305 45.28C29.7091 45.4853 29.6485 45.686 29.6485 45.882ZM36.5161 45V38.056H37.8461L37.9721 39.372C38.2148 38.9147 38.5508 38.5553 38.9801 38.294C39.4188 38.0233 39.9461 37.888 40.5621 37.888V39.442H40.1561C39.7455 39.442 39.3768 39.512 39.0501 39.652C38.7328 39.7827 38.4761 40.0113 38.2801 40.338C38.0935 40.6553 38.0001 41.0987 38.0001 41.668V45H36.5161ZM44.8911 45.168C44.2097 45.168 43.6031 45.0187 43.0711 44.72C42.5484 44.412 42.1377 43.9873 41.8391 43.446C41.5404 42.9047 41.3911 42.2747 41.3911 41.556C41.3911 40.828 41.5357 40.1887 41.8251 39.638C42.1237 39.0873 42.5344 38.658 43.0571 38.35C43.5891 38.042 44.2051 37.888 44.9051 37.888C45.5864 37.888 46.1791 38.042 46.6831 38.35C47.1871 38.6487 47.5791 39.05 47.8591 39.554C48.1391 40.058 48.2791 40.6133 48.2791 41.22C48.2791 41.3133 48.2744 41.416 48.2651 41.528C48.2651 41.6307 48.2604 41.7473 48.2511 41.878H42.8471C42.8937 42.55 43.1131 43.0633 43.5051 43.418C43.9064 43.7633 44.3684 43.936 44.8911 43.936C45.3111 43.936 45.6611 43.8427 45.9411 43.656C46.2304 43.46 46.4451 43.1987 46.5851 42.872H48.0691C47.8824 43.5253 47.5091 44.0713 46.9491 44.51C46.3984 44.9487 45.7124 45.168 44.8911 45.168ZM44.8911 39.106C44.3964 39.106 43.9577 39.2553 43.5751 39.554C43.1924 39.8433 42.9591 40.282 42.8751 40.87H46.7951C46.7671 40.3287 46.5757 39.8993 46.2211 39.582C45.8664 39.2647 45.4231 39.106 44.8911 39.106ZM52.5909 45.168C51.7135 45.168 50.9902 44.9533 50.4209 44.524C49.8515 44.0947 49.5249 43.5253 49.4409 42.816H50.9389C51.0135 43.1333 51.1909 43.4087 51.4709 43.642C51.7509 43.866 52.1195 43.978 52.5769 43.978C53.0249 43.978 53.3515 43.8847 53.5569 43.698C53.7622 43.5113 53.8649 43.2967 53.8649 43.054C53.8649 42.6993 53.7202 42.4613 53.4309 42.34C53.1509 42.2093 52.7589 42.0927 52.2549 41.99C51.8629 41.906 51.4709 41.794 51.0789 41.654C50.6962 41.514 50.3742 41.318 50.1129 41.066C49.8609 40.8047 49.7349 40.4547 49.7349 40.016C49.7349 39.4093 49.9682 38.9053 50.4349 38.504C50.9015 38.0933 51.5549 37.888 52.3949 37.888C53.1695 37.888 53.7949 38.0747 54.2709 38.448C54.7562 38.8213 55.0409 39.3487 55.1249 40.03H53.6969C53.6502 39.7313 53.5102 39.498 53.2769 39.33C53.0529 39.162 52.7495 39.078 52.3669 39.078C51.9935 39.078 51.7042 39.1573 51.4989 39.316C51.2935 39.4653 51.1909 39.6613 51.1909 39.904C51.1909 40.1467 51.3309 40.338 51.6109 40.478C51.9002 40.618 52.2782 40.744 52.7449 40.856C53.2115 40.9587 53.6409 41.08 54.0329 41.22C54.4342 41.3507 54.7562 41.5467 54.9989 41.808C55.2415 42.0693 55.3629 42.452 55.3629 42.956C55.3722 43.5907 55.1249 44.118 54.6209 44.538C54.1262 44.958 53.4495 45.168 52.5909 45.168ZM60.2309 45.168C59.5496 45.168 58.9429 45.0187 58.4109 44.72C57.8883 44.412 57.4776 43.9873 57.1789 43.446C56.8803 42.9047 56.7309 42.2747 56.7309 41.556C56.7309 40.828 56.8756 40.1887 57.1649 39.638C57.4636 39.0873 57.8743 38.658 58.3969 38.35C58.9289 38.042 59.5449 37.888 60.2449 37.888C60.9263 37.888 61.5189 38.042 62.0229 38.35C62.5269 38.6487 62.9189 39.05 63.1989 39.554C63.4789 40.058 63.6189 40.6133 63.6189 41.22C63.6189 41.3133 63.6143 41.416 63.6049 41.528C63.6049 41.6307 63.6003 41.7473 63.5909 41.878H58.1869C58.2336 42.55 58.4529 43.0633 58.8449 43.418C59.2463 43.7633 59.7083 43.936 60.2309 43.936C60.6509 43.936 61.0009 43.8427 61.2809 43.656C61.5703 43.46 61.7849 43.1987 61.9249 42.872H63.4089C63.2223 43.5253 62.8489 44.0713 62.2889 44.51C61.7383 44.9487 61.0523 45.168 60.2309 45.168ZM60.2309 39.106C59.7363 39.106 59.2976 39.2553 58.9149 39.554C58.5323 39.8433 58.2989 40.282 58.2149 40.87H62.1349C62.1069 40.3287 61.9156 39.8993 61.5609 39.582C61.2063 39.2647 60.7629 39.106 60.2309 39.106ZM71.458 45.168C70.5807 45.168 69.8574 44.9533 69.288 44.524C68.7187 44.0947 68.392 43.5253 68.308 42.816H69.806C69.8807 43.1333 70.058 43.4087 70.338 43.642C70.618 43.866 70.9867 43.978 71.444 43.978C71.892 43.978 72.2187 43.8847 72.424 43.698C72.6294 43.5113 72.732 43.2967 72.732 43.054C72.732 42.6993 72.5874 42.4613 72.298 42.34C72.018 42.2093 71.626 42.0927 71.122 41.99C70.73 41.906 70.338 41.794 69.946 41.654C69.5634 41.514 69.2414 41.318 68.98 41.066C68.728 40.8047 68.602 40.4547 68.602 40.016C68.602 39.4093 68.8354 38.9053 69.302 38.504C69.7687 38.0933 70.422 37.888 71.262 37.888C72.0367 37.888 72.662 38.0747 73.138 38.448C73.6234 38.8213 73.908 39.3487 73.992 40.03H72.564C72.5174 39.7313 72.3774 39.498 72.144 39.33C71.92 39.162 71.6167 39.078 71.234 39.078C70.8607 39.078 70.5714 39.1573 70.366 39.316C70.1607 39.4653 70.058 39.6613 70.058 39.904C70.058 40.1467 70.198 40.338 70.478 40.478C70.7674 40.618 71.1454 40.744 71.612 40.856C72.0787 40.9587 72.508 41.08 72.9 41.22C73.3014 41.3507 73.6234 41.5467 73.866 41.808C74.1087 42.0693 74.23 42.452 74.23 42.956C74.2394 43.5907 73.992 44.118 73.488 44.538C72.9934 44.958 72.3167 45.168 71.458 45.168ZM78.4121 45.168C77.5721 45.168 76.9094 44.9067 76.4241 44.384C75.9481 43.8613 75.7101 43.082 75.7101 42.046V38.056H77.1941V41.892C77.1941 43.236 77.7448 43.908 78.8461 43.908C79.3968 43.908 79.8494 43.712 80.2041 43.32C80.5588 42.928 80.7361 42.368 80.7361 41.64V38.056H82.2201V45H80.9041L80.7921 43.782C80.5774 44.2113 80.2601 44.552 79.8401 44.804C79.4294 45.0467 78.9534 45.168 78.4121 45.168ZM87.6353 45V38.056H88.9513L89.0633 39.274C89.2779 38.8447 89.5906 38.5087 90.0013 38.266C90.4213 38.014 90.9019 37.888 91.4433 37.888C92.2833 37.888 92.9413 38.1493 93.4173 38.672C93.9026 39.1947 94.1453 39.974 94.1453 41.01V45H92.6753V41.164C92.6753 39.82 92.1246 39.148 91.0233 39.148C90.4726 39.148 90.0153 39.344 89.6513 39.736C89.2966 40.128 89.1193 40.688 89.1193 41.416V45H87.6353ZM99.1411 45.168C98.4784 45.168 97.8811 45.0187 97.3491 44.72C96.8264 44.412 96.4111 43.9873 96.1031 43.446C95.7951 42.8953 95.6411 42.256 95.6411 41.528C95.6411 40.8 95.7951 40.1653 96.1031 39.624C96.4204 39.0733 96.8451 38.6487 97.3771 38.35C97.9091 38.042 98.5017 37.888 99.1551 37.888C99.8177 37.888 100.41 38.042 100.933 38.35C101.465 38.6487 101.885 39.0733 102.193 39.624C102.51 40.1653 102.669 40.8 102.669 41.528C102.669 42.256 102.51 42.8953 102.193 43.446C101.885 43.9873 101.465 44.412 100.933 44.72C100.401 45.0187 99.8037 45.168 99.1411 45.168ZM99.1411 43.894C99.4957 43.894 99.8224 43.8053 100.121 43.628C100.429 43.4507 100.676 43.1893 100.863 42.844C101.05 42.4893 101.143 42.0507 101.143 41.528C101.143 41.0053 101.05 40.5713 100.863 40.226C100.686 39.8713 100.443 39.6053 100.135 39.428C99.8364 39.2507 99.5097 39.162 99.1551 39.162C98.8004 39.162 98.4691 39.2507 98.1611 39.428C97.8624 39.6053 97.6197 39.8713 97.4331 40.226C97.2464 40.5713 97.1531 41.0053 97.1531 41.528C97.1531 42.0507 97.2464 42.4893 97.4331 42.844C97.6197 43.1893 97.8624 43.4507 98.1611 43.628C98.4597 43.8053 98.7864 43.894 99.1411 43.894ZM104.274 45V38.056H105.59L105.716 39.036C105.94 38.6813 106.234 38.4013 106.598 38.196C106.971 37.9907 107.401 37.888 107.886 37.888C108.987 37.888 109.753 38.322 110.182 39.19C110.434 38.7887 110.77 38.4713 111.19 38.238C111.619 38.0047 112.081 37.888 112.576 37.888C113.444 37.888 114.125 38.1493 114.62 38.672C115.115 39.1947 115.362 39.974 115.362 41.01V45H113.878V41.164C113.878 39.82 113.365 39.148 112.338 39.148C111.815 39.148 111.386 39.344 111.05 39.736C110.723 40.128 110.56 40.688 110.56 41.416V45H109.076V41.164C109.076 39.82 108.558 39.148 107.522 39.148C107.009 39.148 106.584 39.344 106.248 39.736C105.921 40.128 105.758 40.688 105.758 41.416V45H104.274ZM121.004 45.168C120.463 45.168 119.982 45.0607 119.562 44.846C119.151 44.6313 118.825 44.328 118.582 43.936L118.428 45H117.098V34.92H118.582V39.134C118.806 38.8073 119.114 38.518 119.506 38.266C119.898 38.014 120.402 37.888 121.018 37.888C121.69 37.888 122.283 38.0467 122.796 38.364C123.309 38.6813 123.711 39.1153 124 39.666C124.299 40.2167 124.448 40.842 124.448 41.542C124.448 42.242 124.299 42.8673 124 43.418C123.711 43.9593 123.309 44.3887 122.796 44.706C122.283 45.014 121.685 45.168 121.004 45.168ZM120.752 43.88C121.387 43.88 121.909 43.6653 122.32 43.236C122.731 42.7973 122.936 42.228 122.936 41.528C122.936 41.0707 122.843 40.6647 122.656 40.31C122.469 39.9553 122.213 39.68 121.886 39.484C121.559 39.2787 121.181 39.176 120.752 39.176C120.117 39.176 119.595 39.3953 119.184 39.834C118.783 40.2727 118.582 40.8373 118.582 41.528C118.582 42.228 118.783 42.7973 119.184 43.236C119.595 43.6653 120.117 43.88 120.752 43.88ZM126.053 45V38.056H127.383L127.509 39.372C127.752 38.9147 128.088 38.5553 128.517 38.294C128.956 38.0233 129.483 37.888 130.099 37.888V39.442H129.693C129.283 39.442 128.914 39.512 128.587 39.652C128.27 39.7827 128.013 40.0113 127.817 40.338C127.631 40.6553 127.537 41.0987 127.537 41.668V45H126.053ZM134.428 45.168C133.747 45.168 133.14 45.0187 132.608 44.72C132.086 44.412 131.675 43.9873 131.376 43.446C131.078 42.9047 130.928 42.2747 130.928 41.556C130.928 40.828 131.073 40.1887 131.362 39.638C131.661 39.0873 132.072 38.658 132.594 38.35C133.126 38.042 133.742 37.888 134.442 37.888C135.124 37.888 135.716 38.042 136.22 38.35C136.724 38.6487 137.116 39.05 137.396 39.554C137.676 40.058 137.816 40.6133 137.816 41.22C137.816 41.3133 137.812 41.416 137.802 41.528C137.802 41.6307 137.798 41.7473 137.788 41.878H132.384C132.431 42.55 132.65 43.0633 133.042 43.418C133.444 43.7633 133.906 43.936 134.428 43.936C134.848 43.936 135.198 43.8427 135.478 43.656C135.768 43.46 135.982 43.1987 136.122 42.872H137.606C137.42 43.5253 137.046 44.0713 136.486 44.51C135.936 44.9487 135.25 45.168 134.428 45.168ZM134.428 39.106C133.934 39.106 133.495 39.2553 133.112 39.554C132.73 39.8433 132.496 40.282 132.412 40.87H136.332C136.304 40.3287 136.113 39.8993 135.758 39.582C135.404 39.2647 134.96 39.106 134.428 39.106ZM146.173 45.168C145.492 45.168 144.881 45.014 144.339 44.706C143.807 44.398 143.387 43.9733 143.079 43.432C142.781 42.8813 142.631 42.2467 142.631 41.528C142.631 40.8093 142.781 40.1793 143.079 39.638C143.387 39.0873 143.807 38.658 144.339 38.35C144.881 38.042 145.492 37.888 146.173 37.888C147.032 37.888 147.751 38.112 148.329 38.56C148.917 39.008 149.295 39.6147 149.463 40.38H147.909C147.816 39.9973 147.611 39.6987 147.293 39.484C146.976 39.2693 146.603 39.162 146.173 39.162C145.809 39.162 145.473 39.2553 145.165 39.442C144.857 39.6193 144.61 39.8853 144.423 40.24C144.237 40.5853 144.143 41.0147 144.143 41.528C144.143 42.0413 144.237 42.4753 144.423 42.83C144.61 43.1753 144.857 43.4413 145.165 43.628C145.473 43.8147 145.809 43.908 146.173 43.908C146.603 43.908 146.976 43.8007 147.293 43.586C147.611 43.3713 147.816 43.068 147.909 42.676H149.463C149.305 43.4227 148.931 44.0247 148.343 44.482C147.755 44.9393 147.032 45.168 146.173 45.168ZM154.321 45.168C153.658 45.168 153.061 45.0187 152.529 44.72C152.006 44.412 151.591 43.9873 151.283 43.446C150.975 42.8953 150.821 42.256 150.821 41.528C150.821 40.8 150.975 40.1653 151.283 39.624C151.6 39.0733 152.025 38.6487 152.557 38.35C153.089 38.042 153.681 37.888 154.335 37.888C154.997 37.888 155.59 38.042 156.113 38.35C156.645 38.6487 157.065 39.0733 157.373 39.624C157.69 40.1653 157.849 40.8 157.849 41.528C157.849 42.256 157.69 42.8953 157.373 43.446C157.065 43.9873 156.645 44.412 156.113 44.72C155.581 45.0187 154.983 45.168 154.321 45.168ZM154.321 43.894C154.675 43.894 155.002 43.8053 155.301 43.628C155.609 43.4507 155.856 43.1893 156.043 42.844C156.229 42.4893 156.323 42.0507 156.323 41.528C156.323 41.0053 156.229 40.5713 156.043 40.226C155.865 39.8713 155.623 39.6053 155.315 39.428C155.016 39.2507 154.689 39.162 154.335 39.162C153.98 39.162 153.649 39.2507 153.341 39.428C153.042 39.6053 152.799 39.8713 152.613 40.226C152.426 40.5713 152.333 41.0053 152.333 41.528C152.333 42.0507 152.426 42.4893 152.613 42.844C152.799 43.1893 153.042 43.4507 153.341 43.628C153.639 43.8053 153.966 43.894 154.321 43.894ZM159.454 45V38.056H160.77L160.896 39.036C161.12 38.6813 161.414 38.4013 161.778 38.196C162.151 37.9907 162.58 37.888 163.066 37.888C164.167 37.888 164.932 38.322 165.362 39.19C165.614 38.7887 165.95 38.4713 166.37 38.238C166.799 38.0047 167.261 37.888 167.756 37.888C168.624 37.888 169.305 38.1493 169.8 38.672C170.294 39.1947 170.542 39.974 170.542 41.01V45H169.058V41.164C169.058 39.82 168.544 39.148 167.518 39.148C166.995 39.148 166.566 39.344 166.23 39.736C165.903 40.128 165.74 40.688 165.74 41.416V45H164.256V41.164C164.256 39.82 163.738 39.148 162.702 39.148C162.188 39.148 161.764 39.344 161.428 39.736C161.101 40.128 160.938 40.688 160.938 41.416V45H159.454ZM172.278 48.08V38.056H173.608L173.762 39.134C173.986 38.8073 174.294 38.518 174.686 38.266C175.078 38.014 175.582 37.888 176.198 37.888C176.87 37.888 177.463 38.0467 177.976 38.364C178.489 38.6813 178.891 39.1153 179.18 39.666C179.479 40.2167 179.628 40.842 179.628 41.542C179.628 42.242 179.479 42.8673 179.18 43.418C178.891 43.9593 178.489 44.3887 177.976 44.706C177.463 45.014 176.865 45.168 176.184 45.168C175.643 45.168 175.162 45.0607 174.742 44.846C174.331 44.6313 174.005 44.328 173.762 43.936V48.08H172.278ZM175.932 43.88C176.567 43.88 177.089 43.6653 177.5 43.236C177.911 42.7973 178.116 42.228 178.116 41.528C178.116 41.0707 178.023 40.6647 177.836 40.31C177.649 39.9553 177.393 39.68 177.066 39.484C176.739 39.2787 176.361 39.176 175.932 39.176C175.297 39.176 174.775 39.3953 174.364 39.834C173.963 40.2727 173.762 40.8373 173.762 41.528C173.762 42.228 173.963 42.7973 174.364 43.236C174.775 43.6653 175.297 43.88 175.932 43.88ZM181.233 45V34.92H182.717V45H181.233ZM187.844 45.168C187.163 45.168 186.556 45.0187 186.024 44.72C185.502 44.412 185.091 43.9873 184.792 43.446C184.494 42.9047 184.344 42.2747 184.344 41.556C184.344 40.828 184.489 40.1887 184.778 39.638C185.077 39.0873 185.488 38.658 186.01 38.35C186.542 38.042 187.158 37.888 187.858 37.888C188.54 37.888 189.132 38.042 189.636 38.35C190.14 38.6487 190.532 39.05 190.812 39.554C191.092 40.058 191.232 40.6133 191.232 41.22C191.232 41.3133 191.228 41.416 191.218 41.528C191.218 41.6307 191.214 41.7473 191.204 41.878H185.8C185.847 42.55 186.066 43.0633 186.458 43.418C186.86 43.7633 187.322 43.936 187.844 43.936C188.264 43.936 188.614 43.8427 188.894 43.656C189.184 43.46 189.398 43.1987 189.538 42.872H191.022C190.836 43.5253 190.462 44.0713 189.902 44.51C189.352 44.9487 188.666 45.168 187.844 45.168ZM187.844 39.106C187.35 39.106 186.911 39.2553 186.528 39.554C186.146 39.8433 185.912 40.282 185.828 40.87H189.748C189.72 40.3287 189.529 39.8993 189.174 39.582C188.82 39.2647 188.376 39.106 187.844 39.106ZM195.506 45C194.825 45 194.284 44.8367 193.882 44.51C193.481 44.174 193.28 43.5813 193.28 42.732V39.302H192.09V38.056H193.28L193.462 36.292H194.764V38.056H196.724V39.302H194.764V42.732C194.764 43.1147 194.844 43.3807 195.002 43.53C195.17 43.67 195.455 43.74 195.856 43.74H196.654V45H195.506ZM201.325 45.168C200.662 45.168 200.065 45.0187 199.533 44.72C199.01 44.412 198.595 43.9873 198.287 43.446C197.979 42.8953 197.825 42.256 197.825 41.528C197.825 40.8 197.979 40.1653 198.287 39.624C198.604 39.0733 199.029 38.6487 199.561 38.35C200.093 38.042 200.685 37.888 201.339 37.888C202.001 37.888 202.594 38.042 203.117 38.35C203.649 38.6487 204.069 39.0733 204.377 39.624C204.694 40.1653 204.853 40.8 204.853 41.528C204.853 42.256 204.694 42.8953 204.377 43.446C204.069 43.9873 203.649 44.412 203.117 44.72C202.585 45.0187 201.987 45.168 201.325 45.168ZM201.325 43.894C201.679 43.894 202.006 43.8053 202.305 43.628C202.613 43.4507 202.86 43.1893 203.047 42.844C203.233 42.4893 203.327 42.0507 203.327 41.528C203.327 41.0053 203.233 40.5713 203.047 40.226C202.869 39.8713 202.627 39.6053 202.319 39.428C202.02 39.2507 201.693 39.162 201.339 39.162C200.984 39.162 200.653 39.2507 200.345 39.428C200.046 39.6053 199.803 39.8713 199.617 40.226C199.43 40.5713 199.337 41.0053 199.337 41.528C199.337 42.0507 199.43 42.4893 199.617 42.844C199.803 43.1893 200.046 43.4507 200.345 43.628C200.643 43.8053 200.97 43.894 201.325 43.894ZM207.046 45.084C206.766 45.084 206.532 44.9953 206.346 44.818C206.168 44.6313 206.08 44.412 206.08 44.16C206.08 43.8987 206.168 43.6793 206.346 43.502C206.532 43.3153 206.766 43.222 207.046 43.222C207.326 43.222 207.554 43.3153 207.732 43.502C207.909 43.6793 207.998 43.8987 207.998 44.16C207.998 44.412 207.909 44.6313 207.732 44.818C207.554 44.9953 207.326 45.084 207.046 45.084ZM210.081 45.084C209.801 45.084 209.567 44.9953 209.381 44.818C209.203 44.6313 209.115 44.412 209.115 44.16C209.115 43.8987 209.203 43.6793 209.381 43.502C209.567 43.3153 209.801 43.222 210.081 43.222C210.361 43.222 210.589 43.3153 210.767 43.502C210.944 43.6793 211.033 43.8987 211.033 44.16C211.033 44.412 210.944 44.6313 210.767 44.818C210.589 44.9953 210.361 45.084 210.081 45.084ZM213.116 45.084C212.836 45.084 212.603 44.9953 212.416 44.818C212.239 44.6313 212.15 44.412 212.15 44.16C212.15 43.8987 212.239 43.6793 212.416 43.502C212.603 43.3153 212.836 43.222 213.116 43.222C213.396 43.222 213.625 43.3153 213.802 43.502C213.979 43.6793 214.068 43.8987 214.068 44.16C214.068 44.412 213.979 44.6313 213.802 44.818C213.625 44.9953 213.396 45.084 213.116 45.084ZM216.151 45.084C215.871 45.084 215.638 44.9953 215.451 44.818C215.274 44.6313 215.185 44.412 215.185 44.16C215.185 43.8987 215.274 43.6793 215.451 43.502C215.638 43.3153 215.871 43.222 216.151 43.222C216.431 43.222 216.66 43.3153 216.837 43.502C217.014 43.6793 217.103 43.8987 217.103 44.16C217.103 44.412 217.014 44.6313 216.837 44.818C216.66 44.9953 216.431 45.084 216.151 45.084Z" fill="#616161"/>
</svg>
