<svg width="101" height="50" viewBox="0 0 101 50" fill="none" xmlns="http://www.w3.org/2000/svg">
<rect width="32" height="16" rx="4" fill="#DEC9DF"/>
<rect x="1.04568" y="1" width="14" height="14" rx="3" fill="white"/>
<path d="M49.184 14V2.8H50.528V12.928H55.744V14H49.184ZM60.1503 14.192C59.4889 14.192 58.9396 14.08 58.5023 13.856C58.0649 13.632 57.7396 13.3333 57.5263 12.96C57.3129 12.5867 57.2063 12.1813 57.2063 11.744C57.2063 10.9333 57.5156 10.3093 58.1343 9.872C58.7529 9.43467 59.5956 9.216 60.6623 9.216H62.8063V9.12C62.8063 8.42667 62.6249 7.904 62.2623 7.552C61.8996 7.18933 61.4143 7.008 60.8063 7.008C60.2836 7.008 59.8303 7.14133 59.4463 7.408C59.0729 7.664 58.8383 8.04267 58.7423 8.544H57.3663C57.4196 7.968 57.6116 7.48267 57.9423 7.088C58.2836 6.69333 58.7049 6.39467 59.2063 6.192C59.7076 5.97867 60.2409 5.872 60.8063 5.872C61.9156 5.872 62.7476 6.17067 63.3023 6.768C63.8676 7.35467 64.1503 8.13867 64.1503 9.12V14H62.9503L62.8703 12.576C62.6463 13.024 62.3156 13.408 61.8783 13.728C61.4516 14.0373 60.8756 14.192 60.1503 14.192ZM60.3583 13.056C60.8703 13.056 61.3076 12.9227 61.6703 12.656C62.0436 12.3893 62.3263 12.0427 62.5183 11.616C62.7103 11.1893 62.8063 10.7413 62.8063 10.272V10.256H60.7743C59.9849 10.256 59.4249 10.3947 59.0943 10.672C58.7743 10.9387 58.6143 11.2747 58.6143 11.68C58.6143 12.096 58.7636 12.432 59.0623 12.688C59.3716 12.9333 59.8036 13.056 60.3583 13.056ZM70.4065 14.192C69.7558 14.192 69.1745 14.0587 68.6625 13.792C68.1612 13.5253 67.7772 13.152 67.5105 12.672L67.3825 14H66.1665V2.48H67.5105V7.376C67.7665 6.992 68.1292 6.64533 68.5985 6.336C69.0785 6.02667 69.6865 5.872 70.4225 5.872C71.2118 5.872 71.8998 6.05333 72.4865 6.416C73.0732 6.77867 73.5265 7.27467 73.8465 7.904C74.1772 8.53333 74.3425 9.248 74.3425 10.048C74.3425 10.848 74.1772 11.5627 73.8465 12.192C73.5265 12.8107 73.0678 13.3013 72.4705 13.664C71.8838 14.016 71.1958 14.192 70.4065 14.192ZM70.2625 13.024C70.7958 13.024 71.2652 12.9013 71.6705 12.656C72.0758 12.4 72.3958 12.048 72.6305 11.6C72.8652 11.152 72.9825 10.6293 72.9825 10.032C72.9825 9.43467 72.8652 8.912 72.6305 8.464C72.3958 8.016 72.0758 7.66933 71.6705 7.424C71.2652 7.168 70.7958 7.04 70.2625 7.04C69.7292 7.04 69.2598 7.168 68.8545 7.424C68.4492 7.66933 68.1292 8.016 67.8945 8.464C67.6598 8.912 67.5425 9.43467 67.5425 10.032C67.5425 10.6293 67.6598 11.152 67.8945 11.6C68.1292 12.048 68.4492 12.4 68.8545 12.656C69.2598 12.9013 69.7292 13.024 70.2625 13.024ZM79.7814 14.192C79.024 14.192 78.352 14.0213 77.7654 13.68C77.1787 13.328 76.7147 12.8427 76.3734 12.224C76.0427 11.6053 75.8774 10.8747 75.8774 10.032C75.8774 9.2 76.0427 8.47467 76.3734 7.856C76.704 7.22667 77.1627 6.74133 77.7494 6.4C78.3467 6.048 79.0347 5.872 79.8134 5.872C80.5814 5.872 81.2427 6.048 81.7974 6.4C82.3627 6.74133 82.7947 7.19467 83.0934 7.76C83.392 8.32533 83.5414 8.93333 83.5414 9.584C83.5414 9.70133 83.536 9.81867 83.5254 9.936C83.5254 10.0533 83.5254 10.1867 83.5254 10.336H77.2054C77.2374 10.944 77.376 11.4507 77.6214 11.856C77.8774 12.2507 78.192 12.5493 78.5654 12.752C78.9494 12.9547 79.3547 13.056 79.7814 13.056C80.336 13.056 80.8 12.928 81.1734 12.672C81.5467 12.416 81.8187 12.0693 81.9894 11.632H83.3174C83.104 12.368 82.6934 12.9813 82.0854 13.472C81.488 13.952 80.72 14.192 79.7814 14.192ZM79.7814 7.008C79.1414 7.008 78.5707 7.20533 78.0694 7.6C77.5787 7.984 77.296 8.54933 77.2214 9.296H82.2134C82.1814 8.58133 81.936 8.02133 81.4774 7.616C81.0187 7.21067 80.4534 7.008 79.7814 7.008ZM85.3228 14V2.48H86.6668V14H85.3228ZM95.328 8.24L95.52 5.792L93.536 7.184L92.976 6.208L95.2 5.232L92.992 4.272L93.52 3.328L95.536 4.72L95.312 2.272H96.4L96.16 4.72L98.16 3.328L98.672 4.256L96.464 5.248L98.688 6.224L98.16 7.168L96.16 5.792L96.384 8.24H95.328Z" fill="#333333"/>
<rect x="1.13629" y="33" width="31.8183" height="16" rx="4" fill="#7A2682"/>
<rect x="17.8629" y="34" width="14" height="14" rx="3" fill="white"/>
<path d="M50.184 47V35.8H51.528V45.928H56.744V47H50.184ZM61.1503 47.192C60.4889 47.192 59.9396 47.08 59.5023 46.856C59.0649 46.632 58.7396 46.3333 58.5263 45.96C58.3129 45.5867 58.2063 45.1813 58.2063 44.744C58.2063 43.9333 58.5156 43.3093 59.1343 42.872C59.7529 42.4347 60.5956 42.216 61.6623 42.216H63.8063V42.12C63.8063 41.4267 63.6249 40.904 63.2623 40.552C62.8996 40.1893 62.4143 40.008 61.8063 40.008C61.2836 40.008 60.8303 40.1413 60.4463 40.408C60.0729 40.664 59.8383 41.0427 59.7423 41.544H58.3663C58.4196 40.968 58.6116 40.4827 58.9423 40.088C59.2836 39.6933 59.7049 39.3947 60.2063 39.192C60.7076 38.9787 61.2409 38.872 61.8063 38.872C62.9156 38.872 63.7476 39.1707 64.3023 39.768C64.8676 40.3547 65.1503 41.1387 65.1503 42.12V47H63.9503L63.8703 45.576C63.6463 46.024 63.3156 46.408 62.8783 46.728C62.4516 47.0373 61.8756 47.192 61.1503 47.192ZM61.3583 46.056C61.8703 46.056 62.3076 45.9227 62.6703 45.656C63.0436 45.3893 63.3263 45.0427 63.5183 44.616C63.7103 44.1893 63.8063 43.7413 63.8063 43.272V43.256H61.7743C60.9849 43.256 60.4249 43.3947 60.0943 43.672C59.7743 43.9387 59.6143 44.2747 59.6143 44.68C59.6143 45.096 59.7636 45.432 60.0623 45.688C60.3716 45.9333 60.8036 46.056 61.3583 46.056ZM71.4065 47.192C70.7558 47.192 70.1745 47.0587 69.6625 46.792C69.1612 46.5253 68.7772 46.152 68.5105 45.672L68.3825 47H67.1665V35.48H68.5105V40.376C68.7665 39.992 69.1292 39.6453 69.5985 39.336C70.0785 39.0267 70.6865 38.872 71.4225 38.872C72.2118 38.872 72.8998 39.0533 73.4865 39.416C74.0732 39.7787 74.5265 40.2747 74.8465 40.904C75.1772 41.5333 75.3425 42.248 75.3425 43.048C75.3425 43.848 75.1772 44.5627 74.8465 45.192C74.5265 45.8107 74.0678 46.3013 73.4705 46.664C72.8838 47.016 72.1958 47.192 71.4065 47.192ZM71.2625 46.024C71.7958 46.024 72.2652 45.9013 72.6705 45.656C73.0758 45.4 73.3958 45.048 73.6305 44.6C73.8652 44.152 73.9825 43.6293 73.9825 43.032C73.9825 42.4347 73.8652 41.912 73.6305 41.464C73.3958 41.016 73.0758 40.6693 72.6705 40.424C72.2652 40.168 71.7958 40.04 71.2625 40.04C70.7292 40.04 70.2598 40.168 69.8545 40.424C69.4492 40.6693 69.1292 41.016 68.8945 41.464C68.6598 41.912 68.5425 42.4347 68.5425 43.032C68.5425 43.6293 68.6598 44.152 68.8945 44.6C69.1292 45.048 69.4492 45.4 69.8545 45.656C70.2598 45.9013 70.7292 46.024 71.2625 46.024ZM80.7814 47.192C80.024 47.192 79.352 47.0213 78.7654 46.68C78.1787 46.328 77.7147 45.8427 77.3734 45.224C77.0427 44.6053 76.8774 43.8747 76.8774 43.032C76.8774 42.2 77.0427 41.4747 77.3734 40.856C77.704 40.2267 78.1627 39.7413 78.7494 39.4C79.3467 39.048 80.0347 38.872 80.8134 38.872C81.5814 38.872 82.2427 39.048 82.7974 39.4C83.3627 39.7413 83.7947 40.1947 84.0934 40.76C84.392 41.3253 84.5414 41.9333 84.5414 42.584C84.5414 42.7013 84.536 42.8187 84.5254 42.936C84.5254 43.0533 84.5254 43.1867 84.5254 43.336H78.2054C78.2374 43.944 78.376 44.4507 78.6214 44.856C78.8774 45.2507 79.192 45.5493 79.5654 45.752C79.9494 45.9547 80.3547 46.056 80.7814 46.056C81.336 46.056 81.8 45.928 82.1734 45.672C82.5467 45.416 82.8187 45.0693 82.9894 44.632H84.3174C84.104 45.368 83.6934 45.9813 83.0854 46.472C82.488 46.952 81.72 47.192 80.7814 47.192ZM80.7814 40.008C80.1414 40.008 79.5707 40.2053 79.0694 40.6C78.5787 40.984 78.296 41.5493 78.2214 42.296H83.2134C83.1814 41.5813 82.936 41.0213 82.4774 40.616C82.0187 40.2107 81.4534 40.008 80.7814 40.008ZM86.3228 47V35.48H87.6668V47H86.3228ZM96.328 41.24L96.52 38.792L94.536 40.184L93.976 39.208L96.2 38.232L93.992 37.272L94.52 36.328L96.536 37.72L96.312 35.272H97.4L97.16 37.72L99.16 36.328L99.672 37.256L97.464 38.248L99.688 39.224L99.16 40.168L97.16 38.792L97.384 41.24H96.328Z" fill="#333333"/>
</svg>
