<svg width="256" height="52" viewBox="0 0 256 52" fill="none" xmlns="http://www.w3.org/2000/svg">
<path d="M1.184 12V0.799999H2.528V10.928H7.744V12H1.184ZM12.1503 12.192C11.4889 12.192 10.9396 12.08 10.5023 11.856C10.0649 11.632 9.73958 11.3333 9.52625 10.96C9.31292 10.5867 9.20625 10.1813 9.20625 9.744C9.20625 8.93333 9.51558 8.30933 10.1343 7.872C10.7529 7.43467 11.5956 7.216 12.6623 7.216H14.8063V7.12C14.8063 6.42667 14.6249 5.904 14.2623 5.552C13.8996 5.18933 13.4143 5.008 12.8063 5.008C12.2836 5.008 11.8303 5.14133 11.4463 5.408C11.0729 5.664 10.8383 6.04267 10.7423 6.544H9.36625C9.41958 5.968 9.61158 5.48267 9.94225 5.088C10.2836 4.69333 10.7049 4.39467 11.2063 4.192C11.7076 3.97867 12.2409 3.872 12.8063 3.872C13.9156 3.872 14.7476 4.17067 15.3023 4.768C15.8676 5.35467 16.1503 6.13867 16.1503 7.12V12H14.9503L14.8703 10.576C14.6463 11.024 14.3156 11.408 13.8783 11.728C13.4516 12.0373 12.8756 12.192 12.1503 12.192ZM12.3583 11.056C12.8703 11.056 13.3076 10.9227 13.6703 10.656C14.0436 10.3893 14.3263 10.0427 14.5183 9.616C14.7103 9.18933 14.8063 8.74133 14.8063 8.272V8.256H12.7743C11.9849 8.256 11.4249 8.39467 11.0943 8.672C10.7743 8.93867 10.6143 9.27467 10.6143 9.68C10.6143 10.096 10.7636 10.432 11.0623 10.688C11.3716 10.9333 11.8036 11.056 12.3583 11.056ZM22.4065 12.192C21.7558 12.192 21.1745 12.0587 20.6625 11.792C20.1612 11.5253 19.7772 11.152 19.5105 10.672L19.3825 12H18.1665V0.48H19.5105V5.376C19.7665 4.992 20.1292 4.64533 20.5985 4.336C21.0785 4.02667 21.6865 3.872 22.4225 3.872C23.2118 3.872 23.8998 4.05333 24.4865 4.416C25.0732 4.77867 25.5265 5.27467 25.8465 5.904C26.1772 6.53333 26.3425 7.248 26.3425 8.048C26.3425 8.848 26.1772 9.56267 25.8465 10.192C25.5265 10.8107 25.0678 11.3013 24.4705 11.664C23.8838 12.016 23.1958 12.192 22.4065 12.192ZM22.2625 11.024C22.7958 11.024 23.2652 10.9013 23.6705 10.656C24.0758 10.4 24.3958 10.048 24.6305 9.6C24.8652 9.152 24.9825 8.62933 24.9825 8.032C24.9825 7.43467 24.8652 6.912 24.6305 6.464C24.3958 6.016 24.0758 5.66933 23.6705 5.424C23.2652 5.168 22.7958 5.04 22.2625 5.04C21.7292 5.04 21.2598 5.168 20.8545 5.424C20.4492 5.66933 20.1292 6.016 19.8945 6.464C19.6598 6.912 19.5425 7.43467 19.5425 8.032C19.5425 8.62933 19.6598 9.152 19.8945 9.6C20.1292 10.048 20.4492 10.4 20.8545 10.656C21.2598 10.9013 21.7292 11.024 22.2625 11.024ZM31.7814 12.192C31.024 12.192 30.352 12.0213 29.7654 11.68C29.1787 11.328 28.7147 10.8427 28.3734 10.224C28.0427 9.60533 27.8774 8.87467 27.8774 8.032C27.8774 7.2 28.0427 6.47467 28.3734 5.856C28.704 5.22667 29.1627 4.74133 29.7494 4.4C30.3467 4.048 31.0347 3.872 31.8134 3.872C32.5814 3.872 33.2427 4.048 33.7974 4.4C34.3627 4.74133 34.7947 5.19467 35.0934 5.76C35.392 6.32533 35.5414 6.93333 35.5414 7.584C35.5414 7.70133 35.536 7.81867 35.5254 7.936C35.5254 8.05333 35.5254 8.18667 35.5254 8.336H29.2054C29.2374 8.944 29.376 9.45067 29.6214 9.856C29.8774 10.2507 30.192 10.5493 30.5654 10.752C30.9494 10.9547 31.3547 11.056 31.7814 11.056C32.336 11.056 32.8 10.928 33.1734 10.672C33.5467 10.416 33.8187 10.0693 33.9894 9.632H35.3174C35.104 10.368 34.6934 10.9813 34.0854 11.472C33.488 11.952 32.72 12.192 31.7814 12.192ZM31.7814 5.008C31.1414 5.008 30.5707 5.20533 30.0694 5.6C29.5787 5.984 29.296 6.54933 29.2214 7.296H34.2134C34.1814 6.58133 33.936 6.02133 33.4774 5.616C33.0187 5.21067 32.4534 5.008 31.7814 5.008ZM37.3228 12V0.48H38.6668V12H37.3228Z" fill="#333333"/>
<path d="M47.36 6.24L47.632 3.952L45.824 5.344L45.072 4.064L47.2 3.2L45.088 2.384L45.776 1.136L47.648 2.528L47.344 0.223999H48.768L48.464 2.528L50.32 1.136L50.992 2.368L48.88 3.232L51.008 4.08L50.288 5.328L48.464 3.952L48.752 6.24H47.36Z" fill="#E72D51"/>
<rect x="0.5" y="20.5" width="255" height="31" rx="3.5" fill="white"/>
<rect x="0.5" y="20.5" width="255" height="31" rx="3.5" stroke="#E2E2E2"/>
<path d="M19.9 39.3999C20.4667 38.9666 21.1 38.6249 21.8 38.3749C22.5 38.1249 23.2333 37.9999 24 37.9999C24.7667 37.9999 25.5 38.1249 26.2 38.3749C26.9 38.6249 27.5333 38.9666 28.1 39.3999C28.4889 38.9444 28.7917 38.4277 29.0083 37.8499C29.225 37.2721 29.3333 36.6555 29.3333 35.9999C29.3333 34.5221 28.8139 33.2638 27.775 32.2249C26.7361 31.186 25.4778 30.6666 24 30.6666C22.5222 30.6666 21.2639 31.186 20.225 32.2249C19.1861 33.2638 18.6667 34.5221 18.6667 35.9999C18.6667 36.6555 18.775 37.2721 18.9917 37.8499C19.2083 38.4277 19.5111 38.9444 19.9 39.3999ZM24 36.6666C23.3444 36.6666 22.7917 36.4416 22.3417 35.9916C21.8917 35.5416 21.6667 34.9888 21.6667 34.3333C21.6667 33.6777 21.8917 33.1249 22.3417 32.6749C22.7917 32.2249 23.3444 31.9999 24 31.9999C24.6556 31.9999 25.2083 32.2249 25.6583 32.6749C26.1083 33.1249 26.3333 33.6777 26.3333 34.3333C26.3333 34.9888 26.1083 35.5416 25.6583 35.9916C25.2083 36.4416 24.6556 36.6666 24 36.6666ZM24 42.6666C23.0778 42.6666 22.2111 42.4916 21.4 42.1416C20.5889 41.7916 19.8833 41.3166 19.2833 40.7166C18.6833 40.1166 18.2083 39.411 17.8583 38.5999C17.5083 37.7888 17.3333 36.9221 17.3333 35.9999C17.3333 35.0777 17.5083 34.211 17.8583 33.3999C18.2083 32.5888 18.6833 31.8833 19.2833 31.2833C19.8833 30.6833 20.5889 30.2083 21.4 29.8583C22.2111 29.5083 23.0778 29.3333 24 29.3333C24.9222 29.3333 25.7889 29.5083 26.6 29.8583C27.4111 30.2083 28.1167 30.6833 28.7167 31.2833C29.3167 31.8833 29.7917 32.5888 30.1417 33.3999C30.4917 34.211 30.6667 35.0777 30.6667 35.9999C30.6667 36.9221 30.4917 37.7888 30.1417 38.5999C29.7917 39.411 29.3167 40.1166 28.7167 40.7166C28.1167 41.3166 27.4111 41.7916 26.6 42.1416C25.7889 42.4916 24.9222 42.6666 24 42.6666ZM24 41.3333C24.5889 41.3333 25.1444 41.2471 25.6667 41.0749C26.1889 40.9027 26.6667 40.6555 27.1 40.3333C26.6667 40.011 26.1889 39.7638 25.6667 39.5916C25.1444 39.4194 24.5889 39.3333 24 39.3333C23.4111 39.3333 22.8556 39.4194 22.3333 39.5916C21.8111 39.7638 21.3333 40.011 20.9 40.3333C21.3333 40.6555 21.8111 40.9027 22.3333 41.0749C22.8556 41.2471 23.4111 41.3333 24 41.3333ZM24 35.3333C24.2889 35.3333 24.5278 35.2388 24.7167 35.0499C24.9056 34.861 25 34.6221 25 34.3333C25 34.0444 24.9056 33.8055 24.7167 33.6166C24.5278 33.4277 24.2889 33.3333 24 33.3333C23.7111 33.3333 23.4722 33.4277 23.2833 33.6166C23.0944 33.8055 23 34.0444 23 34.3333C23 34.6221 23.0944 34.861 23.2833 35.0499C23.4722 35.2388 23.7111 35.3333 24 35.3333Z" fill="#333333"/>
<path d="M40.888 40V31.6H43.648C44.304 31.6 44.844 31.708 45.268 31.924C45.692 32.14 46.004 32.432 46.204 32.8C46.412 33.168 46.516 33.584 46.516 34.048C46.516 34.504 46.416 34.916 46.216 35.284C46.016 35.652 45.704 35.948 45.28 36.172C44.856 36.388 44.312 36.496 43.648 36.496H41.896V40H40.888ZM41.896 35.644H43.624C44.296 35.644 44.772 35.504 45.052 35.224C45.34 34.936 45.484 34.544 45.484 34.048C45.484 33.544 45.34 33.152 45.052 32.872C44.772 32.584 44.296 32.44 43.624 32.44H41.896V35.644ZM47.7772 40V31.36H48.7852V40H47.7772ZM52.4174 40.144C51.9214 40.144 51.5094 40.06 51.1814 39.892C50.8534 39.724 50.6094 39.5 50.4494 39.22C50.2894 38.94 50.2094 38.636 50.2094 38.308C50.2094 37.7 50.4414 37.232 50.9054 36.904C51.3694 36.576 52.0014 36.412 52.8014 36.412H54.4094V36.34C54.4094 35.82 54.2734 35.428 54.0014 35.164C53.7294 34.892 53.3654 34.756 52.9094 34.756C52.5174 34.756 52.1774 34.856 51.8894 35.056C51.6094 35.248 51.4334 35.532 51.3614 35.908H50.3294C50.3694 35.476 50.5134 35.112 50.7614 34.816C51.0174 34.52 51.3334 34.296 51.7094 34.144C52.0854 33.984 52.4854 33.904 52.9094 33.904C53.7414 33.904 54.3654 34.128 54.7814 34.576C55.2054 35.016 55.4174 35.604 55.4174 36.34V40H54.5174L54.4574 38.932C54.2894 39.268 54.0414 39.556 53.7134 39.796C53.3934 40.028 52.9614 40.144 52.4174 40.144ZM52.5734 39.292C52.9574 39.292 53.2854 39.192 53.5574 38.992C53.8374 38.792 54.0494 38.532 54.1934 38.212C54.3374 37.892 54.4094 37.556 54.4094 37.204V37.192H52.8854C52.2934 37.192 51.8734 37.296 51.6254 37.504C51.3854 37.704 51.2654 37.956 51.2654 38.26C51.2654 38.572 51.3774 38.824 51.6014 39.016C51.8334 39.2 52.1574 39.292 52.5734 39.292ZM59.6656 40.144C59.0976 40.144 58.5856 40.016 58.1296 39.76C57.6816 39.496 57.3256 39.132 57.0616 38.668C56.8056 38.196 56.6776 37.648 56.6776 37.024C56.6776 36.4 56.8056 35.856 57.0616 35.392C57.3256 34.92 57.6816 34.556 58.1296 34.3C58.5856 34.036 59.0976 33.904 59.6656 33.904C60.3696 33.904 60.9616 34.088 61.4416 34.456C61.9296 34.824 62.2376 35.316 62.3656 35.932H61.3336C61.2536 35.564 61.0576 35.28 60.7456 35.08C60.4336 34.872 60.0696 34.768 59.6536 34.768C59.3176 34.768 59.0016 34.852 58.7056 35.02C58.4096 35.188 58.1696 35.44 57.9856 35.776C57.8016 36.112 57.7096 36.528 57.7096 37.024C57.7096 37.52 57.8016 37.936 57.9856 38.272C58.1696 38.608 58.4096 38.864 58.7056 39.04C59.0016 39.208 59.3176 39.292 59.6536 39.292C60.0696 39.292 60.4336 39.192 60.7456 38.992C61.0576 38.784 61.2536 38.492 61.3336 38.116H62.3656C62.2456 38.716 61.9416 39.204 61.4536 39.58C60.9656 39.956 60.3696 40.144 59.6656 40.144ZM66.4493 40.144C65.8813 40.144 65.3773 40.016 64.9373 39.76C64.4973 39.496 64.1493 39.132 63.8933 38.668C63.6453 38.204 63.5213 37.656 63.5213 37.024C63.5213 36.4 63.6453 35.856 63.8933 35.392C64.1413 34.92 64.4853 34.556 64.9253 34.3C65.3733 34.036 65.8893 33.904 66.4733 33.904C67.0493 33.904 67.5453 34.036 67.9613 34.3C68.3853 34.556 68.7093 34.896 68.9333 35.32C69.1573 35.744 69.2693 36.2 69.2693 36.688C69.2693 36.776 69.2653 36.864 69.2573 36.952C69.2573 37.04 69.2573 37.14 69.2573 37.252H64.5173C64.5413 37.708 64.6453 38.088 64.8293 38.392C65.0213 38.688 65.2573 38.912 65.5373 39.064C65.8253 39.216 66.1293 39.292 66.4493 39.292C66.8653 39.292 67.2133 39.196 67.4933 39.004C67.7733 38.812 67.9773 38.552 68.1053 38.224H69.1013C68.9413 38.776 68.6333 39.236 68.1773 39.604C67.7293 39.964 67.1533 40.144 66.4493 40.144ZM66.4493 34.756C65.9693 34.756 65.5413 34.904 65.1653 35.2C64.7973 35.488 64.5853 35.912 64.5293 36.472H68.2733C68.2493 35.936 68.0653 35.516 67.7213 35.212C67.3773 34.908 66.9533 34.756 66.4493 34.756ZM70.6053 40V31.36H71.6133V35.068C71.8133 34.7 72.0973 34.416 72.4653 34.216C72.8333 34.008 73.2333 33.904 73.6653 33.904C74.3533 33.904 74.9053 34.12 75.3213 34.552C75.7373 34.976 75.9453 35.632 75.9453 36.52V40H74.9493V36.628C74.9493 35.388 74.4493 34.768 73.4493 34.768C72.9293 34.768 72.4933 34.956 72.1413 35.332C71.7893 35.7 71.6133 36.228 71.6133 36.916V40H70.6053ZM80.1845 40.144C79.6245 40.144 79.1205 40.016 78.6725 39.76C78.2245 39.504 77.8685 39.144 77.6045 38.68C77.3485 38.208 77.2205 37.656 77.2205 37.024C77.2205 36.392 77.3525 35.844 77.6165 35.38C77.8805 34.908 78.2365 34.544 78.6845 34.288C79.1405 34.032 79.6485 33.904 80.2085 33.904C80.7685 33.904 81.2725 34.032 81.7205 34.288C82.1685 34.544 82.5205 34.908 82.7765 35.38C83.0405 35.844 83.1725 36.392 83.1725 37.024C83.1725 37.656 83.0405 38.208 82.7765 38.68C82.5125 39.144 82.1525 39.504 81.6965 39.76C81.2485 40.016 80.7445 40.144 80.1845 40.144ZM80.1845 39.28C80.5285 39.28 80.8485 39.196 81.1445 39.028C81.4405 38.86 81.6805 38.608 81.8645 38.272C82.0485 37.936 82.1405 37.52 82.1405 37.024C82.1405 36.528 82.0485 36.112 81.8645 35.776C81.6885 35.44 81.4525 35.188 81.1565 35.02C80.8605 34.852 80.5445 34.768 80.2085 34.768C79.8645 34.768 79.5445 34.852 79.2485 35.02C78.9525 35.188 78.7125 35.44 78.5285 35.776C78.3445 36.112 78.2525 36.528 78.2525 37.024C78.2525 37.52 78.3445 37.936 78.5285 38.272C78.7125 38.608 78.9485 38.86 79.2365 39.028C79.5325 39.196 79.8485 39.28 80.1845 39.28ZM84.5741 40V31.36H85.5821V40H84.5741ZM89.9342 40.144C89.3423 40.144 88.8223 40.008 88.3743 39.736C87.9343 39.464 87.5903 39.092 87.3423 38.62C87.1023 38.148 86.9823 37.612 86.9823 37.012C86.9823 36.412 87.1063 35.88 87.3543 35.416C87.6023 34.944 87.9463 34.576 88.3863 34.312C88.8263 34.04 89.3463 33.904 89.9463 33.904C90.4343 33.904 90.8663 34.004 91.2423 34.204C91.6183 34.404 91.9103 34.684 92.1183 35.044V31.36H93.1263V40H92.2143L92.1183 39.016C91.9263 39.304 91.6503 39.564 91.2903 39.796C90.9303 40.028 90.4783 40.144 89.9342 40.144ZM90.0423 39.268C90.4423 39.268 90.7943 39.176 91.0983 38.992C91.4103 38.8 91.6503 38.536 91.8183 38.2C91.9943 37.864 92.0823 37.472 92.0823 37.024C92.0823 36.576 91.9943 36.184 91.8183 35.848C91.6503 35.512 91.4103 35.252 91.0983 35.068C90.7943 34.876 90.4423 34.78 90.0423 34.78C89.6503 34.78 89.2983 34.876 88.9863 35.068C88.6823 35.252 88.4423 35.512 88.2663 35.848C88.0983 36.184 88.0143 36.576 88.0143 37.024C88.0143 37.472 88.0983 37.864 88.2663 38.2C88.4423 38.536 88.6823 38.8 88.9863 38.992C89.2983 39.176 89.6503 39.268 90.0423 39.268ZM97.4454 40.144C96.8774 40.144 96.3734 40.016 95.9334 39.76C95.4934 39.496 95.1454 39.132 94.8894 38.668C94.6414 38.204 94.5174 37.656 94.5174 37.024C94.5174 36.4 94.6414 35.856 94.8894 35.392C95.1374 34.92 95.4814 34.556 95.9214 34.3C96.3694 34.036 96.8854 33.904 97.4694 33.904C98.0454 33.904 98.5414 34.036 98.9574 34.3C99.3814 34.556 99.7054 34.896 99.9294 35.32C100.153 35.744 100.265 36.2 100.265 36.688C100.265 36.776 100.261 36.864 100.253 36.952C100.253 37.04 100.253 37.14 100.253 37.252H95.5134C95.5374 37.708 95.6414 38.088 95.8254 38.392C96.0174 38.688 96.2534 38.912 96.5334 39.064C96.8214 39.216 97.1254 39.292 97.4454 39.292C97.8614 39.292 98.2094 39.196 98.4894 39.004C98.7694 38.812 98.9734 38.552 99.1014 38.224H100.097C99.9374 38.776 99.6294 39.236 99.1734 39.604C98.7254 39.964 98.1494 40.144 97.4454 40.144ZM97.4454 34.756C96.9654 34.756 96.5374 34.904 96.1614 35.2C95.7934 35.488 95.5814 35.912 95.5254 36.472H99.2694C99.2454 35.936 99.0614 35.516 98.7174 35.212C98.3734 34.908 97.9494 34.756 97.4454 34.756ZM101.601 40V34.048H102.513L102.597 35.188C102.781 34.796 103.061 34.484 103.437 34.252C103.813 34.02 104.277 33.904 104.829 33.904V34.96H104.553C104.201 34.96 103.877 35.024 103.581 35.152C103.285 35.272 103.049 35.48 102.873 35.776C102.697 36.072 102.609 36.48 102.609 37V40H101.601ZM105.828 40.06C105.628 40.06 105.46 39.996 105.324 39.868C105.196 39.732 105.132 39.568 105.132 39.376C105.132 39.184 105.196 39.024 105.324 38.896C105.46 38.76 105.628 38.692 105.828 38.692C106.02 38.692 106.18 38.76 106.308 38.896C106.444 39.024 106.512 39.184 106.512 39.376C106.512 39.568 106.444 39.732 106.308 39.868C106.18 39.996 106.02 40.06 105.828 40.06ZM108.172 40.06C107.972 40.06 107.804 39.996 107.668 39.868C107.54 39.732 107.476 39.568 107.476 39.376C107.476 39.184 107.54 39.024 107.668 38.896C107.804 38.76 107.972 38.692 108.172 38.692C108.364 38.692 108.524 38.76 108.652 38.896C108.788 39.024 108.856 39.184 108.856 39.376C108.856 39.568 108.788 39.732 108.652 39.868C108.524 39.996 108.364 40.06 108.172 40.06ZM110.516 40.06C110.316 40.06 110.148 39.996 110.012 39.868C109.884 39.732 109.82 39.568 109.82 39.376C109.82 39.184 109.884 39.024 110.012 38.896C110.148 38.76 110.316 38.692 110.516 38.692C110.708 38.692 110.868 38.76 110.996 38.896C111.132 39.024 111.2 39.184 111.2 39.376C111.2 39.568 111.132 39.732 110.996 39.868C110.868 39.996 110.708 40.06 110.516 40.06Z" fill="#616161"/>
</svg>
