<svg width="256" height="76" viewBox="0 0 256 76" fill="none" xmlns="http://www.w3.org/2000/svg">
<path d="M1.184 12V0.799999H2.528V10.928H7.744V12H1.184ZM12.1503 12.192C11.4889 12.192 10.9396 12.08 10.5023 11.856C10.0649 11.632 9.73958 11.3333 9.52625 10.96C9.31292 10.5867 9.20625 10.1813 9.20625 9.744C9.20625 8.93333 9.51558 8.30933 10.1343 7.872C10.7529 7.43467 11.5956 7.216 12.6623 7.216H14.8063V7.12C14.8063 6.42667 14.6249 5.904 14.2623 5.552C13.8996 5.18933 13.4143 5.008 12.8063 5.008C12.2836 5.008 11.8303 5.14133 11.4463 5.408C11.0729 5.664 10.8383 6.04267 10.7423 6.544H9.36625C9.41958 5.968 9.61158 5.48267 9.94225 5.088C10.2836 4.69333 10.7049 4.39467 11.2063 4.192C11.7076 3.97867 12.2409 3.872 12.8063 3.872C13.9156 3.872 14.7476 4.17067 15.3023 4.768C15.8676 5.35467 16.1503 6.13867 16.1503 7.12V12H14.9503L14.8703 10.576C14.6463 11.024 14.3156 11.408 13.8783 11.728C13.4516 12.0373 12.8756 12.192 12.1503 12.192ZM12.3583 11.056C12.8703 11.056 13.3076 10.9227 13.6703 10.656C14.0436 10.3893 14.3263 10.0427 14.5183 9.616C14.7103 9.18933 14.8063 8.74133 14.8063 8.272V8.256H12.7743C11.9849 8.256 11.4249 8.39467 11.0943 8.672C10.7743 8.93867 10.6143 9.27467 10.6143 9.68C10.6143 10.096 10.7636 10.432 11.0623 10.688C11.3716 10.9333 11.8036 11.056 12.3583 11.056ZM22.4065 12.192C21.7558 12.192 21.1745 12.0587 20.6625 11.792C20.1612 11.5253 19.7772 11.152 19.5105 10.672L19.3825 12H18.1665V0.48H19.5105V5.376C19.7665 4.992 20.1292 4.64533 20.5985 4.336C21.0785 4.02667 21.6865 3.872 22.4225 3.872C23.2118 3.872 23.8998 4.05333 24.4865 4.416C25.0732 4.77867 25.5265 5.27467 25.8465 5.904C26.1772 6.53333 26.3425 7.248 26.3425 8.048C26.3425 8.848 26.1772 9.56267 25.8465 10.192C25.5265 10.8107 25.0678 11.3013 24.4705 11.664C23.8838 12.016 23.1958 12.192 22.4065 12.192ZM22.2625 11.024C22.7958 11.024 23.2652 10.9013 23.6705 10.656C24.0758 10.4 24.3958 10.048 24.6305 9.6C24.8652 9.152 24.9825 8.62933 24.9825 8.032C24.9825 7.43467 24.8652 6.912 24.6305 6.464C24.3958 6.016 24.0758 5.66933 23.6705 5.424C23.2652 5.168 22.7958 5.04 22.2625 5.04C21.7292 5.04 21.2598 5.168 20.8545 5.424C20.4492 5.66933 20.1292 6.016 19.8945 6.464C19.6598 6.912 19.5425 7.43467 19.5425 8.032C19.5425 8.62933 19.6598 9.152 19.8945 9.6C20.1292 10.048 20.4492 10.4 20.8545 10.656C21.2598 10.9013 21.7292 11.024 22.2625 11.024ZM31.7814 12.192C31.024 12.192 30.352 12.0213 29.7654 11.68C29.1787 11.328 28.7147 10.8427 28.3734 10.224C28.0427 9.60533 27.8774 8.87467 27.8774 8.032C27.8774 7.2 28.0427 6.47467 28.3734 5.856C28.704 5.22667 29.1627 4.74133 29.7494 4.4C30.3467 4.048 31.0347 3.872 31.8134 3.872C32.5814 3.872 33.2427 4.048 33.7974 4.4C34.3627 4.74133 34.7947 5.19467 35.0934 5.76C35.392 6.32533 35.5414 6.93333 35.5414 7.584C35.5414 7.70133 35.536 7.81867 35.5254 7.936C35.5254 8.05333 35.5254 8.18667 35.5254 8.336H29.2054C29.2374 8.944 29.376 9.45067 29.6214 9.856C29.8774 10.2507 30.192 10.5493 30.5654 10.752C30.9494 10.9547 31.3547 11.056 31.7814 11.056C32.336 11.056 32.8 10.928 33.1734 10.672C33.5467 10.416 33.8187 10.0693 33.9894 9.632H35.3174C35.104 10.368 34.6934 10.9813 34.0854 11.472C33.488 11.952 32.72 12.192 31.7814 12.192ZM31.7814 5.008C31.1414 5.008 30.5707 5.20533 30.0694 5.6C29.5787 5.984 29.296 6.54933 29.2214 7.296H34.2134C34.1814 6.58133 33.936 6.02133 33.4774 5.616C33.0187 5.21067 32.4534 5.008 31.7814 5.008ZM37.3228 12V0.48H38.6668V12H37.3228Z" fill="#333333"/>
<path d="M47.36 6.24L47.632 3.952L45.824 5.344L45.072 4.064L47.2 3.2L45.088 2.384L45.776 1.136L47.648 2.528L47.344 0.223999H48.768L48.464 2.528L50.32 1.136L50.992 2.368L48.88 3.232L51.008 4.08L50.288 5.328L48.464 3.952L48.752 6.24H47.36Z" fill="#E72D51"/>
<rect x="0.5" y="20.5" width="255" height="55" rx="3.5" fill="white"/>
<rect x="0.5" y="20.5" width="255" height="55" rx="3.5" stroke="#E2E2E2"/>
<path d="M21.85 53.1C22.7 52.45 23.65 51.9375 24.7 51.5625C25.75 51.1875 26.85 51 28 51C29.15 51 30.25 51.1875 31.3 51.5625C32.35 51.9375 33.3 52.45 34.15 53.1C34.7333 52.4167 35.1875 51.6417 35.5125 50.775C35.8375 49.9083 36 48.9833 36 48C36 45.7833 35.2208 43.8958 33.6625 42.3375C32.1042 40.7792 30.2167 40 28 40C25.7833 40 23.8958 40.7792 22.3375 42.3375C20.7792 43.8958 20 45.7833 20 48C20 48.9833 20.1625 49.9083 20.4875 50.775C20.8125 51.6417 21.2667 52.4167 21.85 53.1ZM28 49C27.0167 49 26.1875 48.6625 25.5125 47.9875C24.8375 47.3125 24.5 46.4833 24.5 45.5C24.5 44.5167 24.8375 43.6875 25.5125 43.0125C26.1875 42.3375 27.0167 42 28 42C28.9833 42 29.8125 42.3375 30.4875 43.0125C31.1625 43.6875 31.5 44.5167 31.5 45.5C31.5 46.4833 31.1625 47.3125 30.4875 47.9875C29.8125 48.6625 28.9833 49 28 49ZM28 58C26.6167 58 25.3167 57.7375 24.1 57.2125C22.8833 56.6875 21.825 55.975 20.925 55.075C20.025 54.175 19.3125 53.1167 18.7875 51.9C18.2625 50.6833 18 49.3833 18 48C18 46.6167 18.2625 45.3167 18.7875 44.1C19.3125 42.8833 20.025 41.825 20.925 40.925C21.825 40.025 22.8833 39.3125 24.1 38.7875C25.3167 38.2625 26.6167 38 28 38C29.3833 38 30.6833 38.2625 31.9 38.7875C33.1167 39.3125 34.175 40.025 35.075 40.925C35.975 41.825 36.6875 42.8833 37.2125 44.1C37.7375 45.3167 38 46.6167 38 48C38 49.3833 37.7375 50.6833 37.2125 51.9C36.6875 53.1167 35.975 54.175 35.075 55.075C34.175 55.975 33.1167 56.6875 31.9 57.2125C30.6833 57.7375 29.3833 58 28 58ZM28 56C28.8833 56 29.7167 55.8708 30.5 55.6125C31.2833 55.3542 32 54.9833 32.65 54.5C32 54.0167 31.2833 53.6458 30.5 53.3875C29.7167 53.1292 28.8833 53 28 53C27.1167 53 26.2833 53.1292 25.5 53.3875C24.7167 53.6458 24 54.0167 23.35 54.5C24 54.9833 24.7167 55.3542 25.5 55.6125C26.2833 55.8708 27.1167 56 28 56ZM28 47C28.4333 47 28.7917 46.8583 29.075 46.575C29.3583 46.2917 29.5 45.9333 29.5 45.5C29.5 45.0667 29.3583 44.7083 29.075 44.425C28.7917 44.1417 28.4333 44 28 44C27.5667 44 27.2083 44.1417 26.925 44.425C26.6417 44.7083 26.5 45.0667 26.5 45.5C26.5 45.9333 26.6417 46.2917 26.925 46.575C27.2083 46.8583 27.5667 47 28 47Z" fill="#333333"/>
<path d="M49.184 53.5V42.3H52.864C53.7387 42.3 54.4587 42.444 55.024 42.732C55.5893 43.02 56.0053 43.4093 56.272 43.9C56.5493 44.3907 56.688 44.9453 56.688 45.564C56.688 46.172 56.5547 46.7213 56.288 47.212C56.0213 47.7027 55.6053 48.0973 55.04 48.396C54.4747 48.684 53.7493 48.828 52.864 48.828H50.528V53.5H49.184ZM50.528 47.692H52.832C53.728 47.692 54.3627 47.5053 54.736 47.132C55.12 46.748 55.312 46.2253 55.312 45.564C55.312 44.892 55.12 44.3693 54.736 43.996C54.3627 43.612 53.728 43.42 52.832 43.42H50.528V47.692ZM58.3696 53.5V41.98H59.7136V53.5H58.3696ZM64.5565 53.692C63.8952 53.692 63.3458 53.58 62.9085 53.356C62.4712 53.132 62.1458 52.8333 61.9325 52.46C61.7192 52.0867 61.6125 51.6813 61.6125 51.244C61.6125 50.4333 61.9218 49.8093 62.5405 49.372C63.1592 48.9347 64.0018 48.716 65.0685 48.716H67.2125V48.62C67.2125 47.9267 67.0312 47.404 66.6685 47.052C66.3058 46.6893 65.8205 46.508 65.2125 46.508C64.6898 46.508 64.2365 46.6413 63.8525 46.908C63.4792 47.164 63.2445 47.5427 63.1485 48.044H61.7725C61.8258 47.468 62.0178 46.9827 62.3485 46.588C62.6898 46.1933 63.1112 45.8947 63.6125 45.692C64.1138 45.4787 64.6472 45.372 65.2125 45.372C66.3218 45.372 67.1538 45.6707 67.7085 46.268C68.2738 46.8547 68.5565 47.6387 68.5565 48.62V53.5H67.3565L67.2765 52.076C67.0525 52.524 66.7218 52.908 66.2845 53.228C65.8578 53.5373 65.2818 53.692 64.5565 53.692ZM64.7645 52.556C65.2765 52.556 65.7138 52.4227 66.0765 52.156C66.4498 51.8893 66.7325 51.5427 66.9245 51.116C67.1165 50.6893 67.2125 50.2413 67.2125 49.772V49.756H65.1805C64.3912 49.756 63.8312 49.8947 63.5005 50.172C63.1805 50.4387 63.0205 50.7747 63.0205 51.18C63.0205 51.596 63.1698 51.932 63.4685 52.188C63.7778 52.4333 64.2098 52.556 64.7645 52.556ZM74.2208 53.692C73.4634 53.692 72.7808 53.5213 72.1728 53.18C71.5754 52.828 71.1008 52.3427 70.7488 51.724C70.4074 51.0947 70.2368 50.364 70.2368 49.532C70.2368 48.7 70.4074 47.9747 70.7488 47.356C71.1008 46.7267 71.5754 46.2413 72.1728 45.9C72.7808 45.548 73.4634 45.372 74.2208 45.372C75.1594 45.372 75.9488 45.6173 76.5888 46.108C77.2394 46.5987 77.6501 47.2547 77.8208 48.076H76.4448C76.3381 47.5853 76.0768 47.2067 75.6608 46.94C75.2448 46.6627 74.7594 46.524 74.2048 46.524C73.7568 46.524 73.3354 46.636 72.9408 46.86C72.5461 47.084 72.2261 47.42 71.9808 47.868C71.7354 48.316 71.6128 48.8707 71.6128 49.532C71.6128 50.1933 71.7354 50.748 71.9808 51.196C72.2261 51.644 72.5461 51.9853 72.9408 52.22C73.3354 52.444 73.7568 52.556 74.2048 52.556C74.7594 52.556 75.2448 52.4227 75.6608 52.156C76.0768 51.8787 76.3381 51.4893 76.4448 50.988H77.8208C77.6608 51.788 77.2554 52.4387 76.6048 52.94C75.9541 53.4413 75.1594 53.692 74.2208 53.692ZM83.2658 53.692C82.5084 53.692 81.8364 53.5213 81.2498 53.18C80.6631 52.828 80.1991 52.3427 79.8578 51.724C79.5271 51.1053 79.3618 50.3747 79.3618 49.532C79.3618 48.7 79.5271 47.9747 79.8578 47.356C80.1884 46.7267 80.6471 46.2413 81.2338 45.9C81.8311 45.548 82.5191 45.372 83.2977 45.372C84.0658 45.372 84.7271 45.548 85.2818 45.9C85.8471 46.2413 86.2791 46.6947 86.5778 47.26C86.8764 47.8253 87.0258 48.4333 87.0258 49.084C87.0258 49.2013 87.0204 49.3187 87.0098 49.436C87.0098 49.5533 87.0098 49.6867 87.0098 49.836H80.6898C80.7218 50.444 80.8604 50.9507 81.1058 51.356C81.3618 51.7507 81.6764 52.0493 82.0498 52.252C82.4338 52.4547 82.8391 52.556 83.2658 52.556C83.8204 52.556 84.2844 52.428 84.6578 52.172C85.0311 51.916 85.3031 51.5693 85.4738 51.132H86.8018C86.5884 51.868 86.1778 52.4813 85.5698 52.972C84.9724 53.452 84.2044 53.692 83.2658 53.692ZM83.2658 46.508C82.6258 46.508 82.0551 46.7053 81.5538 47.1C81.0631 47.484 80.7804 48.0493 80.7057 48.796H85.6978C85.6658 48.0813 85.4204 47.5213 84.9618 47.116C84.5031 46.7107 83.9378 46.508 83.2658 46.508ZM88.8071 53.5V41.98H90.1511V46.924C90.4178 46.4333 90.7965 46.0547 91.2871 45.788C91.7778 45.5107 92.3111 45.372 92.8871 45.372C93.8045 45.372 94.5405 45.66 95.0951 46.236C95.6498 46.8013 95.9271 47.676 95.9271 48.86V53.5H94.5991V49.004C94.5991 47.3507 93.9325 46.524 92.5991 46.524C91.9058 46.524 91.3245 46.7747 90.8551 47.276C90.3858 47.7667 90.1511 48.4707 90.1511 49.388V53.5H88.8071ZM101.579 53.692C100.833 53.692 100.161 53.5213 99.5634 53.18C98.966 52.8387 98.4914 52.3587 98.1394 51.74C97.798 51.1107 97.6274 50.3747 97.6274 49.532C97.6274 48.6893 97.8034 47.9587 98.1554 47.34C98.5074 46.7107 98.982 46.2253 99.5794 45.884C100.187 45.5427 100.865 45.372 101.611 45.372C102.358 45.372 103.03 45.5427 103.627 45.884C104.225 46.2253 104.694 46.7107 105.035 47.34C105.387 47.9587 105.563 48.6893 105.563 49.532C105.563 50.3747 105.387 51.1107 105.035 51.74C104.683 52.3587 104.203 52.8387 103.595 53.18C102.998 53.5213 102.326 53.692 101.579 53.692ZM101.579 52.54C102.038 52.54 102.465 52.428 102.859 52.204C103.254 51.98 103.574 51.644 103.819 51.196C104.065 50.748 104.187 50.1933 104.187 49.532C104.187 48.8707 104.065 48.316 103.819 47.868C103.585 47.42 103.27 47.084 102.875 46.86C102.481 46.636 102.059 46.524 101.611 46.524C101.153 46.524 100.726 46.636 100.331 46.86C99.9367 47.084 99.6167 47.42 99.3714 47.868C99.126 48.316 99.0034 48.8707 99.0034 49.532C99.0034 50.1933 99.126 50.748 99.3714 51.196C99.6167 51.644 99.9314 51.98 100.315 52.204C100.71 52.428 101.131 52.54 101.579 52.54ZM107.432 53.5V41.98H108.776V53.5H107.432ZM114.579 53.692C113.79 53.692 113.096 53.5107 112.499 53.148C111.912 52.7853 111.454 52.2893 111.123 51.66C110.803 51.0307 110.643 50.316 110.643 49.516C110.643 48.716 110.808 48.0067 111.139 47.388C111.47 46.7587 111.928 46.268 112.515 45.916C113.102 45.5533 113.795 45.372 114.595 45.372C115.246 45.372 115.822 45.5053 116.323 45.772C116.824 46.0387 117.214 46.412 117.491 46.892V41.98H118.835V53.5H117.619L117.491 52.188C117.235 52.572 116.867 52.9187 116.387 53.228C115.907 53.5373 115.304 53.692 114.579 53.692ZM114.723 52.524C115.256 52.524 115.726 52.4013 116.131 52.156C116.547 51.9 116.867 51.548 117.091 51.1C117.326 50.652 117.443 50.1293 117.443 49.532C117.443 48.9347 117.326 48.412 117.091 47.964C116.867 47.516 116.547 47.1693 116.131 46.924C115.726 46.668 115.256 46.54 114.723 46.54C114.2 46.54 113.731 46.668 113.315 46.924C112.91 47.1693 112.59 47.516 112.355 47.964C112.131 48.412 112.019 48.9347 112.019 49.532C112.019 50.1293 112.131 50.652 112.355 51.1C112.59 51.548 112.91 51.9 113.315 52.156C113.731 52.4013 114.2 52.524 114.723 52.524ZM124.594 53.692C123.837 53.692 123.165 53.5213 122.578 53.18C121.991 52.828 121.527 52.3427 121.186 51.724C120.855 51.1053 120.69 50.3747 120.69 49.532C120.69 48.7 120.855 47.9747 121.186 47.356C121.517 46.7267 121.975 46.2413 122.562 45.9C123.159 45.548 123.847 45.372 124.626 45.372C125.394 45.372 126.055 45.548 126.61 45.9C127.175 46.2413 127.607 46.6947 127.906 47.26C128.205 47.8253 128.354 48.4333 128.354 49.084C128.354 49.2013 128.349 49.3187 128.338 49.436C128.338 49.5533 128.338 49.6867 128.338 49.836H122.018C122.05 50.444 122.189 50.9507 122.434 51.356C122.69 51.7507 123.005 52.0493 123.378 52.252C123.762 52.4547 124.167 52.556 124.594 52.556C125.149 52.556 125.613 52.428 125.986 52.172C126.359 51.916 126.631 51.5693 126.802 51.132H128.13C127.917 51.868 127.506 52.4813 126.898 52.972C126.301 53.452 125.533 53.692 124.594 53.692ZM124.594 46.508C123.954 46.508 123.383 46.7053 122.882 47.1C122.391 47.484 122.109 48.0493 122.034 48.796H127.026C126.994 48.0813 126.749 47.5213 126.29 47.116C125.831 46.7107 125.266 46.508 124.594 46.508ZM130.135 53.5V45.564H131.351L131.463 47.084C131.709 46.5613 132.082 46.1453 132.583 45.836C133.085 45.5267 133.703 45.372 134.439 45.372V46.78H134.071C133.602 46.78 133.17 46.8653 132.775 47.036C132.381 47.196 132.066 47.4733 131.831 47.868C131.597 48.2627 131.479 48.8067 131.479 49.5V53.5H130.135ZM135.771 53.58C135.504 53.58 135.28 53.4947 135.099 53.324C134.928 53.1427 134.843 52.924 134.843 52.668C134.843 52.412 134.928 52.1987 135.099 52.028C135.28 51.8467 135.504 51.756 135.771 51.756C136.027 51.756 136.24 51.8467 136.411 52.028C136.592 52.1987 136.683 52.412 136.683 52.668C136.683 52.924 136.592 53.1427 136.411 53.324C136.24 53.4947 136.027 53.58 135.771 53.58ZM138.896 53.58C138.629 53.58 138.405 53.4947 138.224 53.324C138.053 53.1427 137.968 52.924 137.968 52.668C137.968 52.412 138.053 52.1987 138.224 52.028C138.405 51.8467 138.629 51.756 138.896 51.756C139.152 51.756 139.365 51.8467 139.536 52.028C139.717 52.1987 139.808 52.412 139.808 52.668C139.808 52.924 139.717 53.1427 139.536 53.324C139.365 53.4947 139.152 53.58 138.896 53.58ZM142.021 53.58C141.754 53.58 141.53 53.4947 141.349 53.324C141.178 53.1427 141.093 52.924 141.093 52.668C141.093 52.412 141.178 52.1987 141.349 52.028C141.53 51.8467 141.754 51.756 142.021 51.756C142.277 51.756 142.49 51.8467 142.661 52.028C142.842 52.1987 142.933 52.412 142.933 52.668C142.933 52.924 142.842 53.1427 142.661 53.324C142.49 53.4947 142.277 53.58 142.021 53.58Z" fill="#616161"/>
</svg>
