<svg width="309" height="360" viewBox="0 0 309 360" fill="none" xmlns="http://www.w3.org/2000/svg">
<path d="M9.184 12V0.799999H10.528V10.928H15.744V12H9.184ZM20.1503 12.192C19.4889 12.192 18.9396 12.08 18.5023 11.856C18.0649 11.632 17.7396 11.3333 17.5263 10.96C17.3129 10.5867 17.2063 10.1813 17.2063 9.744C17.2063 8.93333 17.5156 8.30933 18.1343 7.872C18.7529 7.43467 19.5956 7.216 20.6623 7.216H22.8063V7.12C22.8063 6.42667 22.6249 5.904 22.2623 5.552C21.8996 5.18933 21.4143 5.008 20.8063 5.008C20.2836 5.008 19.8303 5.14133 19.4463 5.408C19.0729 5.664 18.8383 6.04267 18.7423 6.544H17.3663C17.4196 5.968 17.6116 5.48267 17.9423 5.088C18.2836 4.69333 18.7049 4.39467 19.2063 4.192C19.7076 3.97867 20.2409 3.872 20.8063 3.872C21.9156 3.872 22.7476 4.17067 23.3023 4.768C23.8676 5.35467 24.1503 6.13867 24.1503 7.12V12H22.9503L22.8703 10.576C22.6463 11.024 22.3156 11.408 21.8783 11.728C21.4516 12.0373 20.8756 12.192 20.1503 12.192ZM20.3583 11.056C20.8703 11.056 21.3076 10.9227 21.6703 10.656C22.0436 10.3893 22.3263 10.0427 22.5183 9.616C22.7103 9.18933 22.8063 8.74133 22.8063 8.272V8.256H20.7743C19.9849 8.256 19.4249 8.39467 19.0943 8.672C18.7743 8.93867 18.6143 9.27467 18.6143 9.68C18.6143 10.096 18.7636 10.432 19.0623 10.688C19.3716 10.9333 19.8036 11.056 20.3583 11.056ZM30.4065 12.192C29.7558 12.192 29.1745 12.0587 28.6625 11.792C28.1612 11.5253 27.7772 11.152 27.5105 10.672L27.3825 12H26.1665V0.48H27.5105V5.376C27.7665 4.992 28.1292 4.64533 28.5985 4.336C29.0785 4.02667 29.6865 3.872 30.4225 3.872C31.2118 3.872 31.8998 4.05333 32.4865 4.416C33.0732 4.77867 33.5265 5.27467 33.8465 5.904C34.1772 6.53333 34.3425 7.248 34.3425 8.048C34.3425 8.848 34.1772 9.56267 33.8465 10.192C33.5265 10.8107 33.0678 11.3013 32.4705 11.664C31.8838 12.016 31.1958 12.192 30.4065 12.192ZM30.2625 11.024C30.7958 11.024 31.2652 10.9013 31.6705 10.656C32.0758 10.4 32.3958 10.048 32.6305 9.6C32.8652 9.152 32.9825 8.62933 32.9825 8.032C32.9825 7.43467 32.8652 6.912 32.6305 6.464C32.3958 6.016 32.0758 5.66933 31.6705 5.424C31.2652 5.168 30.7958 5.04 30.2625 5.04C29.7292 5.04 29.2598 5.168 28.8545 5.424C28.4492 5.66933 28.1292 6.016 27.8945 6.464C27.6598 6.912 27.5425 7.43467 27.5425 8.032C27.5425 8.62933 27.6598 9.152 27.8945 9.6C28.1292 10.048 28.4492 10.4 28.8545 10.656C29.2598 10.9013 29.7292 11.024 30.2625 11.024ZM39.7814 12.192C39.024 12.192 38.352 12.0213 37.7654 11.68C37.1787 11.328 36.7147 10.8427 36.3734 10.224C36.0427 9.60533 35.8774 8.87467 35.8774 8.032C35.8774 7.2 36.0427 6.47467 36.3734 5.856C36.704 5.22667 37.1627 4.74133 37.7494 4.4C38.3467 4.048 39.0347 3.872 39.8134 3.872C40.5814 3.872 41.2427 4.048 41.7974 4.4C42.3627 4.74133 42.7947 5.19467 43.0934 5.76C43.392 6.32533 43.5414 6.93333 43.5414 7.584C43.5414 7.70133 43.536 7.81867 43.5254 7.936C43.5254 8.05333 43.5254 8.18667 43.5254 8.336H37.2054C37.2374 8.944 37.376 9.45067 37.6214 9.856C37.8774 10.2507 38.192 10.5493 38.5654 10.752C38.9494 10.9547 39.3547 11.056 39.7814 11.056C40.336 11.056 40.8 10.928 41.1734 10.672C41.5467 10.416 41.8187 10.0693 41.9894 9.632H43.3174C43.104 10.368 42.6934 10.9813 42.0854 11.472C41.488 11.952 40.72 12.192 39.7814 12.192ZM39.7814 5.008C39.1414 5.008 38.5707 5.20533 38.0694 5.6C37.5787 5.984 37.296 6.54933 37.2214 7.296H42.2134C42.1814 6.58133 41.936 6.02133 41.4774 5.616C41.0187 5.21067 40.4534 5.008 39.7814 5.008ZM45.3228 12V0.48H46.6668V12H45.3228ZM55.328 6.24L55.52 3.792L53.536 5.184L52.976 4.208L55.2 3.232L52.992 2.272L53.52 1.328L55.536 2.72L55.312 0.271999H56.4L56.16 2.72L58.16 1.328L58.672 2.256L56.464 3.248L58.688 4.224L58.16 5.168L56.16 3.792L56.384 6.24H55.328Z" fill="#333333"/>
<rect x="8.5" y="20.5" width="292" height="39" rx="3.5" fill="white"/>
<rect x="8.5" y="20.5" width="292" height="39" rx="3.5" stroke="#E2E2E2"/>
<path d="M24.994 45V35.2H28.424C29.1893 35.2 29.824 35.3307 30.328 35.592C30.832 35.844 31.2053 36.194 31.448 36.642C31.7 37.0807 31.826 37.58 31.826 38.14C31.826 38.672 31.7047 39.162 31.462 39.61C31.2287 40.0487 30.86 40.3987 30.356 40.66C29.852 40.9213 29.208 41.052 28.424 41.052H26.478V45H24.994ZM26.478 39.834H28.354C29.054 39.834 29.5533 39.6847 29.852 39.386C30.16 39.078 30.314 38.6627 30.314 38.14C30.314 37.5987 30.16 37.1787 29.852 36.88C29.5533 36.572 29.054 36.418 28.354 36.418H26.478V39.834ZM33.2368 45V34.92H34.7208V45H33.2368ZM38.9521 45.168C38.3641 45.168 37.8788 45.07 37.4961 44.874C37.1134 44.678 36.8288 44.4213 36.6421 44.104C36.4554 43.7773 36.3621 43.4227 36.3621 43.04C36.3621 42.368 36.6234 41.836 37.1461 41.444C37.6688 41.052 38.4154 40.856 39.3861 40.856H41.2061V40.73C41.2061 40.1887 41.0568 39.7827 40.7581 39.512C40.4688 39.2413 40.0908 39.106 39.6241 39.106C39.2134 39.106 38.8541 39.2087 38.5461 39.414C38.2474 39.61 38.0654 39.904 38.0001 40.296H36.5161C36.5628 39.792 36.7308 39.3627 37.0201 39.008C37.3188 38.644 37.6921 38.3687 38.1401 38.182C38.5974 37.986 39.0968 37.888 39.6381 37.888C40.6088 37.888 41.3601 38.1447 41.8921 38.658C42.4241 39.162 42.6901 39.8527 42.6901 40.73V45H41.4021L41.2761 43.81C41.0801 44.1927 40.7954 44.5147 40.4221 44.776C40.0488 45.0373 39.5588 45.168 38.9521 45.168ZM39.2461 43.964C39.6474 43.964 39.9834 43.8707 40.2541 43.684C40.5341 43.488 40.7488 43.2313 40.8981 42.914C41.0568 42.5967 41.1548 42.2467 41.1921 41.864H39.5401C38.9521 41.864 38.5321 41.9667 38.2801 42.172C38.0374 42.3773 37.9161 42.634 37.9161 42.942C37.9161 43.2593 38.0328 43.5113 38.2661 43.698C38.5088 43.8753 38.8354 43.964 39.2461 43.964ZM47.7104 45.168C47.0291 45.168 46.4178 45.014 45.8764 44.706C45.3444 44.398 44.9244 43.9733 44.6164 43.432C44.3178 42.8813 44.1684 42.2467 44.1684 41.528C44.1684 40.8093 44.3178 40.1793 44.6164 39.638C44.9244 39.0873 45.3444 38.658 45.8764 38.35C46.4178 38.042 47.0291 37.888 47.7104 37.888C48.5691 37.888 49.2878 38.112 49.8664 38.56C50.4544 39.008 50.8324 39.6147 51.0004 40.38H49.4464C49.3531 39.9973 49.1478 39.6987 48.8304 39.484C48.5131 39.2693 48.1398 39.162 47.7104 39.162C47.3464 39.162 47.0104 39.2553 46.7024 39.442C46.3944 39.6193 46.1471 39.8853 45.9604 40.24C45.7738 40.5853 45.6804 41.0147 45.6804 41.528C45.6804 42.0413 45.7738 42.4753 45.9604 42.83C46.1471 43.1753 46.3944 43.4413 46.7024 43.628C47.0104 43.8147 47.3464 43.908 47.7104 43.908C48.1398 43.908 48.5131 43.8007 48.8304 43.586C49.1478 43.3713 49.3531 43.068 49.4464 42.676H51.0004C50.8418 43.4227 50.4684 44.0247 49.8804 44.482C49.2924 44.9393 48.5691 45.168 47.7104 45.168ZM55.8579 45.168C55.1765 45.168 54.5699 45.0187 54.0379 44.72C53.5152 44.412 53.1045 43.9873 52.8059 43.446C52.5072 42.9047 52.3579 42.2747 52.3579 41.556C52.3579 40.828 52.5025 40.1887 52.7919 39.638C53.0905 39.0873 53.5012 38.658 54.0239 38.35C54.5559 38.042 55.1719 37.888 55.8719 37.888C56.5532 37.888 57.1459 38.042 57.6499 38.35C58.1539 38.6487 58.5459 39.05 58.8259 39.554C59.1059 40.058 59.2459 40.6133 59.2459 41.22C59.2459 41.3133 59.2412 41.416 59.2319 41.528C59.2319 41.6307 59.2272 41.7473 59.2179 41.878H53.8139C53.8605 42.55 54.0799 43.0633 54.4719 43.418C54.8732 43.7633 55.3352 43.936 55.8579 43.936C56.2779 43.936 56.6279 43.8427 56.9079 43.656C57.1972 43.46 57.4119 43.1987 57.5519 42.872H59.0359C58.8492 43.5253 58.4759 44.0713 57.9159 44.51C57.3652 44.9487 56.6792 45.168 55.8579 45.168ZM55.8579 39.106C55.3632 39.106 54.9245 39.2553 54.5419 39.554C54.1592 39.8433 53.9259 40.282 53.8419 40.87H57.7619C57.7339 40.3287 57.5425 39.8993 57.1879 39.582C56.8332 39.2647 56.3899 39.106 55.8579 39.106ZM60.7857 45V34.92H62.2697V39.176C62.503 38.7747 62.825 38.462 63.2357 38.238C63.6557 38.0047 64.1177 37.888 64.6217 37.888C65.4523 37.888 66.1057 38.1493 66.5817 38.672C67.0577 39.1947 67.2957 39.974 67.2957 41.01V45H65.8257V41.164C65.8257 39.82 65.289 39.148 64.2157 39.148C63.6557 39.148 63.189 39.344 62.8157 39.736C62.4517 40.128 62.2697 40.688 62.2697 41.416V45H60.7857ZM72.2915 45.168C71.6288 45.168 71.0315 45.0187 70.4995 44.72C69.9768 44.412 69.5615 43.9873 69.2535 43.446C68.9455 42.8953 68.7915 42.256 68.7915 41.528C68.7915 40.8 68.9455 40.1653 69.2535 39.624C69.5708 39.0733 69.9955 38.6487 70.5275 38.35C71.0595 38.042 71.6521 37.888 72.3055 37.888C72.9681 37.888 73.5608 38.042 74.0835 38.35C74.6155 38.6487 75.0355 39.0733 75.3435 39.624C75.6608 40.1653 75.8195 40.8 75.8195 41.528C75.8195 42.256 75.6608 42.8953 75.3435 43.446C75.0355 43.9873 74.6155 44.412 74.0835 44.72C73.5515 45.0187 72.9541 45.168 72.2915 45.168ZM72.2915 43.894C72.6461 43.894 72.9728 43.8053 73.2715 43.628C73.5795 43.4507 73.8268 43.1893 74.0135 42.844C74.2001 42.4893 74.2935 42.0507 74.2935 41.528C74.2935 41.0053 74.2001 40.5713 74.0135 40.226C73.8361 39.8713 73.5935 39.6053 73.2855 39.428C72.9868 39.2507 72.6601 39.162 72.3055 39.162C71.9508 39.162 71.6195 39.2507 71.3115 39.428C71.0128 39.6053 70.7701 39.8713 70.5835 40.226C70.3968 40.5713 70.3035 41.0053 70.3035 41.528C70.3035 42.0507 70.3968 42.4893 70.5835 42.844C70.7701 43.1893 71.0128 43.4507 71.3115 43.628C71.6101 43.8053 71.9368 43.894 72.2915 43.894ZM77.4243 45V34.92H78.9083V45H77.4243ZM83.9516 45.168C83.2796 45.168 82.6869 45.0093 82.1736 44.692C81.6603 44.3747 81.2589 43.9407 80.9696 43.39C80.6803 42.8393 80.5356 42.214 80.5356 41.514C80.5356 40.814 80.6803 40.1933 80.9696 39.652C81.2589 39.1013 81.6603 38.672 82.1736 38.364C82.6963 38.0467 83.2936 37.888 83.9656 37.888C84.5163 37.888 84.9969 37.9953 85.4076 38.21C85.8276 38.4247 86.1543 38.728 86.3876 39.12V34.92H87.8716V45H86.5416L86.3876 43.922C86.1636 44.2487 85.8556 44.538 85.4636 44.79C85.0716 45.042 84.5676 45.168 83.9516 45.168ZM84.2176 43.88C84.8523 43.88 85.3703 43.6607 85.7716 43.222C86.1823 42.7833 86.3876 42.2187 86.3876 41.528C86.3876 40.828 86.1823 40.2633 85.7716 39.834C85.3703 39.3953 84.8523 39.176 84.2176 39.176C83.5829 39.176 83.0603 39.3953 82.6496 39.834C82.2389 40.2633 82.0336 40.828 82.0336 41.528C82.0336 41.9853 82.1269 42.3913 82.3136 42.746C82.5003 43.1007 82.7569 43.3807 83.0836 43.586C83.4196 43.782 83.7976 43.88 84.2176 43.88ZM92.9907 45.168C92.3094 45.168 91.7027 45.0187 91.1707 44.72C90.648 44.412 90.2374 43.9873 89.9387 43.446C89.64 42.9047 89.4907 42.2747 89.4907 41.556C89.4907 40.828 89.6354 40.1887 89.9247 39.638C90.2234 39.0873 90.634 38.658 91.1567 38.35C91.6887 38.042 92.3047 37.888 93.0047 37.888C93.686 37.888 94.2787 38.042 94.7827 38.35C95.2867 38.6487 95.6787 39.05 95.9587 39.554C96.2387 40.058 96.3787 40.6133 96.3787 41.22C96.3787 41.3133 96.374 41.416 96.3647 41.528C96.3647 41.6307 96.36 41.7473 96.3507 41.878H90.9467C90.9934 42.55 91.2127 43.0633 91.6047 43.418C92.006 43.7633 92.468 43.936 92.9907 43.936C93.4107 43.936 93.7607 43.8427 94.0407 43.656C94.33 43.46 94.5447 43.1987 94.6847 42.872H96.1687C95.982 43.5253 95.6087 44.0713 95.0487 44.51C94.498 44.9487 93.812 45.168 92.9907 45.168ZM92.9907 39.106C92.496 39.106 92.0574 39.2553 91.6747 39.554C91.292 39.8433 91.0587 40.282 90.9747 40.87H94.8947C94.8667 40.3287 94.6754 39.8993 94.3207 39.582C93.966 39.2647 93.5227 39.106 92.9907 39.106ZM97.9185 45V38.056H99.2485L99.3745 39.372C99.6171 38.9147 99.9531 38.5553 100.382 38.294C100.821 38.0233 101.348 37.888 101.964 37.888V39.442H101.558C101.148 39.442 100.779 39.512 100.452 39.652C100.135 39.7827 99.8785 40.0113 99.6825 40.338C99.4958 40.6553 99.4025 41.0987 99.4025 41.668V45H97.9185ZM103.264 45.084C102.984 45.084 102.751 44.9953 102.564 44.818C102.387 44.6313 102.298 44.412 102.298 44.16C102.298 43.8987 102.387 43.6793 102.564 43.502C102.751 43.3153 102.984 43.222 103.264 43.222C103.544 43.222 103.773 43.3153 103.95 43.502C104.128 43.6793 104.216 43.8987 104.216 44.16C104.216 44.412 104.128 44.6313 103.95 44.818C103.773 44.9953 103.544 45.084 103.264 45.084ZM106.299 45.084C106.019 45.084 105.786 44.9953 105.599 44.818C105.422 44.6313 105.333 44.412 105.333 44.16C105.333 43.8987 105.422 43.6793 105.599 43.502C105.786 43.3153 106.019 43.222 106.299 43.222C106.579 43.222 106.808 43.3153 106.985 43.502C107.163 43.6793 107.251 43.8987 107.251 44.16C107.251 44.412 107.163 44.6313 106.985 44.818C106.808 44.9953 106.579 45.084 106.299 45.084ZM109.335 45.084C109.055 45.084 108.821 44.9953 108.635 44.818C108.457 44.6313 108.369 44.412 108.369 44.16C108.369 43.8987 108.457 43.6793 108.635 43.502C108.821 43.3153 109.055 43.222 109.335 43.222C109.615 43.222 109.843 43.3153 110.021 43.502C110.198 43.6793 110.287 43.8987 110.287 44.16C110.287 44.412 110.198 44.6313 110.021 44.818C109.843 44.9953 109.615 45.084 109.335 45.084Z" fill="#616161"/>
<path d="M276.475 42.475L272.85 38.85C272.8 38.8 272.763 38.7458 272.738 38.6875C272.713 38.6292 272.7 38.5667 272.7 38.5C272.7 38.3667 272.746 38.25 272.838 38.15C272.929 38.05 273.05 38 273.2 38H280.8C280.95 38 281.071 38.05 281.163 38.15C281.254 38.25 281.3 38.3667 281.3 38.5C281.3 38.5333 281.25 38.65 281.15 38.85L277.525 42.475C277.442 42.5583 277.358 42.6167 277.275 42.65C277.192 42.6833 277.1 42.7 277 42.7C276.9 42.7 276.808 42.6833 276.725 42.65C276.642 42.6167 276.558 42.5583 276.475 42.475Z" fill="#333333"/>
<g filter="url(#filter0_d_8024_375869)">
<rect width="293" height="280" transform="translate(8 68)" fill="#FAFAFA"/>
<rect x="12.5" y="72.5" width="284" height="39" rx="3.5" fill="white"/>
<rect x="12.5" y="72.5" width="284" height="39" rx="3.5" stroke="#E2E2E2"/>
<g clip-path="url(#clip0_8024_375869)">
<path d="M34.3333 94.6652C33.1222 94.6652 32.0972 94.2458 31.2583 93.4069C30.4194 92.568 30 91.543 30 90.3319C30 89.1208 30.4194 88.0958 31.2583 87.2569C32.0972 86.418 33.1222 85.9985 34.3333 85.9985C35.5444 85.9985 36.5694 86.418 37.4083 87.2569C38.2472 88.0958 38.6667 89.1208 38.6667 90.3319C38.6667 90.8208 38.5889 91.2819 38.4333 91.7152C38.2778 92.1485 38.0667 92.5319 37.8 92.8652L41.5333 96.5985C41.6556 96.7208 41.7167 96.8763 41.7167 97.0652C41.7167 97.2541 41.6556 97.4096 41.5333 97.5319C41.4111 97.6541 41.2556 97.7152 41.0667 97.7152C40.8778 97.7152 40.7222 97.6541 40.6 97.5319L36.8667 93.7985C36.5333 94.0652 36.15 94.2763 35.7167 94.4319C35.2833 94.5874 34.8222 94.6652 34.3333 94.6652ZM34.3333 93.3319C35.1667 93.3319 35.875 93.0402 36.4583 92.4569C37.0417 91.8735 37.3333 91.1652 37.3333 90.3319C37.3333 89.4985 37.0417 88.7902 36.4583 88.2069C35.875 87.6235 35.1667 87.3319 34.3333 87.3319C33.5 87.3319 32.7917 87.6235 32.2083 88.2069C31.625 88.7902 31.3333 89.4985 31.3333 90.3319C31.3333 91.1652 31.625 91.8735 32.2083 92.4569C32.7917 93.0402 33.5 93.3319 34.3333 93.3319Z" fill="#333333"/>
</g>
<path d="M52.994 97V87.2H56.424C57.1893 87.2 57.824 87.3307 58.328 87.592C58.832 87.844 59.2053 88.194 59.448 88.642C59.7 89.0807 59.826 89.58 59.826 90.14C59.826 90.672 59.7047 91.162 59.462 91.61C59.2287 92.0487 58.86 92.3987 58.356 92.66C57.852 92.9213 57.208 93.052 56.424 93.052H54.478V97H52.994ZM54.478 91.834H56.354C57.054 91.834 57.5533 91.6847 57.852 91.386C58.16 91.078 58.314 90.6627 58.314 90.14C58.314 89.5987 58.16 89.1787 57.852 88.88C57.5533 88.572 57.054 88.418 56.354 88.418H54.478V91.834ZM61.2368 97V86.92H62.7208V97H61.2368ZM66.9521 97.168C66.3641 97.168 65.8788 97.07 65.4961 96.874C65.1134 96.678 64.8288 96.4213 64.6421 96.104C64.4554 95.7773 64.3621 95.4227 64.3621 95.04C64.3621 94.368 64.6234 93.836 65.1461 93.444C65.6688 93.052 66.4154 92.856 67.3861 92.856H69.2061V92.73C69.2061 92.1887 69.0568 91.7827 68.7581 91.512C68.4688 91.2413 68.0908 91.106 67.6241 91.106C67.2134 91.106 66.8541 91.2087 66.5461 91.414C66.2474 91.61 66.0654 91.904 66.0001 92.296H64.5161C64.5628 91.792 64.7308 91.3627 65.0201 91.008C65.3188 90.644 65.6921 90.3687 66.1401 90.182C66.5974 89.986 67.0968 89.888 67.6381 89.888C68.6088 89.888 69.3601 90.1447 69.8921 90.658C70.4241 91.162 70.6901 91.8527 70.6901 92.73V97H69.4021L69.2761 95.81C69.0801 96.1927 68.7954 96.5147 68.4221 96.776C68.0488 97.0373 67.5588 97.168 66.9521 97.168ZM67.2461 95.964C67.6474 95.964 67.9834 95.8707 68.2541 95.684C68.5341 95.488 68.7488 95.2313 68.8981 94.914C69.0568 94.5967 69.1548 94.2467 69.1921 93.864H67.5401C66.9521 93.864 66.5321 93.9667 66.2801 94.172C66.0374 94.3773 65.9161 94.634 65.9161 94.942C65.9161 95.2593 66.0328 95.5113 66.2661 95.698C66.5088 95.8753 66.8354 95.964 67.2461 95.964ZM75.7104 97.168C75.0291 97.168 74.4178 97.014 73.8764 96.706C73.3444 96.398 72.9244 95.9733 72.6164 95.432C72.3178 94.8813 72.1684 94.2467 72.1684 93.528C72.1684 92.8093 72.3178 92.1793 72.6164 91.638C72.9244 91.0873 73.3444 90.658 73.8764 90.35C74.4178 90.042 75.0291 89.888 75.7104 89.888C76.5691 89.888 77.2878 90.112 77.8664 90.56C78.4544 91.008 78.8324 91.6147 79.0004 92.38H77.4464C77.3531 91.9973 77.1478 91.6987 76.8304 91.484C76.5131 91.2693 76.1398 91.162 75.7104 91.162C75.3464 91.162 75.0104 91.2553 74.7024 91.442C74.3944 91.6193 74.1471 91.8853 73.9604 92.24C73.7738 92.5853 73.6804 93.0147 73.6804 93.528C73.6804 94.0413 73.7738 94.4753 73.9604 94.83C74.1471 95.1753 74.3944 95.4413 74.7024 95.628C75.0104 95.8147 75.3464 95.908 75.7104 95.908C76.1398 95.908 76.5131 95.8007 76.8304 95.586C77.1478 95.3713 77.3531 95.068 77.4464 94.676H79.0004C78.8418 95.4227 78.4684 96.0247 77.8804 96.482C77.2924 96.9393 76.5691 97.168 75.7104 97.168ZM83.8579 97.168C83.1765 97.168 82.5699 97.0187 82.0379 96.72C81.5152 96.412 81.1045 95.9873 80.8059 95.446C80.5072 94.9047 80.3579 94.2747 80.3579 93.556C80.3579 92.828 80.5025 92.1887 80.7919 91.638C81.0905 91.0873 81.5012 90.658 82.0239 90.35C82.5559 90.042 83.1719 89.888 83.8719 89.888C84.5532 89.888 85.1459 90.042 85.6499 90.35C86.1539 90.6487 86.5459 91.05 86.8259 91.554C87.1059 92.058 87.2459 92.6133 87.2459 93.22C87.2459 93.3133 87.2412 93.416 87.2319 93.528C87.2319 93.6307 87.2272 93.7473 87.2179 93.878H81.8139C81.8605 94.55 82.0799 95.0633 82.4719 95.418C82.8732 95.7633 83.3352 95.936 83.8579 95.936C84.2779 95.936 84.6279 95.8427 84.9079 95.656C85.1972 95.46 85.4119 95.1987 85.5519 94.872H87.0359C86.8492 95.5253 86.4759 96.0713 85.9159 96.51C85.3652 96.9487 84.6792 97.168 83.8579 97.168ZM83.8579 91.106C83.3632 91.106 82.9245 91.2553 82.5419 91.554C82.1592 91.8433 81.9259 92.282 81.8419 92.87H85.7619C85.7339 92.3287 85.5425 91.8993 85.1879 91.582C84.8332 91.2647 84.3899 91.106 83.8579 91.106ZM88.7857 97V86.92H90.2697V91.176C90.503 90.7747 90.825 90.462 91.2357 90.238C91.6557 90.0047 92.1177 89.888 92.6217 89.888C93.4523 89.888 94.1057 90.1493 94.5817 90.672C95.0577 91.1947 95.2957 91.974 95.2957 93.01V97H93.8257V93.164C93.8257 91.82 93.289 91.148 92.2157 91.148C91.6557 91.148 91.189 91.344 90.8157 91.736C90.4517 92.128 90.2697 92.688 90.2697 93.416V97H88.7857ZM100.291 97.168C99.6288 97.168 99.0315 97.0187 98.4995 96.72C97.9768 96.412 97.5615 95.9873 97.2535 95.446C96.9455 94.8953 96.7915 94.256 96.7915 93.528C96.7915 92.8 96.9455 92.1653 97.2535 91.624C97.5708 91.0733 97.9955 90.6487 98.5275 90.35C99.0595 90.042 99.6521 89.888 100.305 89.888C100.968 89.888 101.561 90.042 102.083 90.35C102.615 90.6487 103.035 91.0733 103.343 91.624C103.661 92.1653 103.819 92.8 103.819 93.528C103.819 94.256 103.661 94.8953 103.343 95.446C103.035 95.9873 102.615 96.412 102.083 96.72C101.551 97.0187 100.954 97.168 100.291 97.168ZM100.291 95.894C100.646 95.894 100.973 95.8053 101.271 95.628C101.579 95.4507 101.827 95.1893 102.013 94.844C102.2 94.4893 102.293 94.0507 102.293 93.528C102.293 93.0053 102.2 92.5713 102.013 92.226C101.836 91.8713 101.593 91.6053 101.285 91.428C100.987 91.2507 100.66 91.162 100.305 91.162C99.9508 91.162 99.6195 91.2507 99.3115 91.428C99.0128 91.6053 98.7701 91.8713 98.5835 92.226C98.3968 92.5713 98.3035 93.0053 98.3035 93.528C98.3035 94.0507 98.3968 94.4893 98.5835 94.844C98.7701 95.1893 99.0128 95.4507 99.3115 95.628C99.6101 95.8053 99.9368 95.894 100.291 95.894ZM105.424 97V86.92H106.908V97H105.424ZM111.952 97.168C111.28 97.168 110.687 97.0093 110.174 96.692C109.66 96.3747 109.259 95.9407 108.97 95.39C108.68 94.8393 108.536 94.214 108.536 93.514C108.536 92.814 108.68 92.1933 108.97 91.652C109.259 91.1013 109.66 90.672 110.174 90.364C110.696 90.0467 111.294 89.888 111.966 89.888C112.516 89.888 112.997 89.9953 113.408 90.21C113.828 90.4247 114.154 90.728 114.388 91.12V86.92H115.872V97H114.542L114.388 95.922C114.164 96.2487 113.856 96.538 113.464 96.79C113.072 97.042 112.568 97.168 111.952 97.168ZM112.218 95.88C112.852 95.88 113.37 95.6607 113.772 95.222C114.182 94.7833 114.388 94.2187 114.388 93.528C114.388 92.828 114.182 92.2633 113.772 91.834C113.37 91.3953 112.852 91.176 112.218 91.176C111.583 91.176 111.06 91.3953 110.65 91.834C110.239 92.2633 110.034 92.828 110.034 93.528C110.034 93.9853 110.127 94.3913 110.314 94.746C110.5 95.1007 110.757 95.3807 111.084 95.586C111.42 95.782 111.798 95.88 112.218 95.88ZM120.991 97.168C120.309 97.168 119.703 97.0187 119.171 96.72C118.648 96.412 118.237 95.9873 117.939 95.446C117.64 94.9047 117.491 94.2747 117.491 93.556C117.491 92.828 117.635 92.1887 117.925 91.638C118.223 91.0873 118.634 90.658 119.157 90.35C119.689 90.042 120.305 89.888 121.005 89.888C121.686 89.888 122.279 90.042 122.783 90.35C123.287 90.6487 123.679 91.05 123.959 91.554C124.239 92.058 124.379 92.6133 124.379 93.22C124.379 93.3133 124.374 93.416 124.365 93.528C124.365 93.6307 124.36 93.7473 124.351 93.878H118.947C118.993 94.55 119.213 95.0633 119.605 95.418C120.006 95.7633 120.468 95.936 120.991 95.936C121.411 95.936 121.761 95.8427 122.041 95.656C122.33 95.46 122.545 95.1987 122.685 94.872H124.169C123.982 95.5253 123.609 96.0713 123.049 96.51C122.498 96.9487 121.812 97.168 120.991 97.168ZM120.991 91.106C120.496 91.106 120.057 91.2553 119.675 91.554C119.292 91.8433 119.059 92.282 118.975 92.87H122.895C122.867 92.3287 122.675 91.8993 122.321 91.582C121.966 91.2647 121.523 91.106 120.991 91.106ZM125.918 97V90.056H127.248L127.374 91.372C127.617 90.9147 127.953 90.5553 128.382 90.294C128.821 90.0233 129.348 89.888 129.964 89.888V91.442H129.558C129.148 91.442 128.779 91.512 128.452 91.652C128.135 91.7827 127.878 92.0113 127.682 92.338C127.496 92.6553 127.402 93.0987 127.402 93.668V97H125.918ZM131.264 97.084C130.984 97.084 130.751 96.9953 130.564 96.818C130.387 96.6313 130.298 96.412 130.298 96.16C130.298 95.8987 130.387 95.6793 130.564 95.502C130.751 95.3153 130.984 95.222 131.264 95.222C131.544 95.222 131.773 95.3153 131.95 95.502C132.128 95.6793 132.216 95.8987 132.216 96.16C132.216 96.412 132.128 96.6313 131.95 96.818C131.773 96.9953 131.544 97.084 131.264 97.084ZM134.299 97.084C134.019 97.084 133.786 96.9953 133.599 96.818C133.422 96.6313 133.333 96.412 133.333 96.16C133.333 95.8987 133.422 95.6793 133.599 95.502C133.786 95.3153 134.019 95.222 134.299 95.222C134.579 95.222 134.808 95.3153 134.985 95.502C135.163 95.6793 135.251 95.8987 135.251 96.16C135.251 96.412 135.163 96.6313 134.985 96.818C134.808 96.9953 134.579 97.084 134.299 97.084ZM137.335 97.084C137.055 97.084 136.821 96.9953 136.635 96.818C136.457 96.6313 136.369 96.412 136.369 96.16C136.369 95.8987 136.457 95.6793 136.635 95.502C136.821 95.3153 137.055 95.222 137.335 95.222C137.615 95.222 137.843 95.3153 138.021 95.502C138.198 95.6793 138.287 95.8987 138.287 96.16C138.287 96.412 138.198 96.6313 138.021 96.818C137.843 96.9953 137.615 97.084 137.335 97.084Z" fill="#616161"/>
<path d="M20.994 133V123.2H22.478V131.824H26.93V133H20.994ZM30.8232 133.168C30.2352 133.168 29.7499 133.07 29.3672 132.874C28.9845 132.678 28.6999 132.421 28.5132 132.104C28.3265 131.777 28.2332 131.423 28.2332 131.04C28.2332 130.368 28.4945 129.836 29.0172 129.444C29.5399 129.052 30.2865 128.856 31.2572 128.856H33.0772V128.73C33.0772 128.189 32.9279 127.783 32.6292 127.512C32.3399 127.241 31.9619 127.106 31.4952 127.106C31.0845 127.106 30.7252 127.209 30.4172 127.414C30.1185 127.61 29.9365 127.904 29.8712 128.296H28.3872C28.4339 127.792 28.6019 127.363 28.8912 127.008C29.1899 126.644 29.5632 126.369 30.0112 126.182C30.4685 125.986 30.9679 125.888 31.5092 125.888C32.4799 125.888 33.2312 126.145 33.7632 126.658C34.2952 127.162 34.5612 127.853 34.5612 128.73V133H33.2732L33.1472 131.81C32.9512 132.193 32.6665 132.515 32.2932 132.776C31.9199 133.037 31.4299 133.168 30.8232 133.168ZM31.1172 131.964C31.5185 131.964 31.8545 131.871 32.1252 131.684C32.4052 131.488 32.6199 131.231 32.7692 130.914C32.9279 130.597 33.0259 130.247 33.0632 129.864H31.4112C30.8232 129.864 30.4032 129.967 30.1512 130.172C29.9085 130.377 29.7872 130.634 29.7872 130.942C29.7872 131.259 29.9039 131.511 30.1372 131.698C30.3799 131.875 30.7065 131.964 31.1172 131.964ZM40.1975 133.168C39.6562 133.168 39.1755 133.061 38.7555 132.846C38.3448 132.631 38.0182 132.328 37.7755 131.936L37.6215 133H36.2915V122.92H37.7755V127.134C37.9995 126.807 38.3075 126.518 38.6995 126.266C39.0915 126.014 39.5955 125.888 40.2115 125.888C40.8835 125.888 41.4762 126.047 41.9895 126.364C42.5028 126.681 42.9042 127.115 43.1935 127.666C43.4922 128.217 43.6415 128.842 43.6415 129.542C43.6415 130.242 43.4922 130.867 43.1935 131.418C42.9042 131.959 42.5028 132.389 41.9895 132.706C41.4762 133.014 40.8788 133.168 40.1975 133.168ZM39.9455 131.88C40.5802 131.88 41.1028 131.665 41.5135 131.236C41.9242 130.797 42.1295 130.228 42.1295 129.528C42.1295 129.071 42.0362 128.665 41.8495 128.31C41.6628 127.955 41.4062 127.68 41.0795 127.484C40.7528 127.279 40.3748 127.176 39.9455 127.176C39.3108 127.176 38.7882 127.395 38.3775 127.834C37.9762 128.273 37.7755 128.837 37.7755 129.528C37.7755 130.228 37.9762 130.797 38.3775 131.236C38.7882 131.665 39.3108 131.88 39.9455 131.88ZM48.4946 133.168C47.8133 133.168 47.2066 133.019 46.6746 132.72C46.1519 132.412 45.7413 131.987 45.4426 131.446C45.1439 130.905 44.9946 130.275 44.9946 129.556C44.9946 128.828 45.1393 128.189 45.4286 127.638C45.7273 127.087 46.1379 126.658 46.6606 126.35C47.1926 126.042 47.8086 125.888 48.5086 125.888C49.1899 125.888 49.7826 126.042 50.2866 126.35C50.7906 126.649 51.1826 127.05 51.4626 127.554C51.7426 128.058 51.8826 128.613 51.8826 129.22C51.8826 129.313 51.8779 129.416 51.8686 129.528C51.8686 129.631 51.8639 129.747 51.8546 129.878H46.4506C46.4973 130.55 46.7166 131.063 47.1086 131.418C47.5099 131.763 47.9719 131.936 48.4946 131.936C48.9146 131.936 49.2646 131.843 49.5446 131.656C49.8339 131.46 50.0486 131.199 50.1886 130.872H51.6726C51.4859 131.525 51.1126 132.071 50.5526 132.51C50.0019 132.949 49.3159 133.168 48.4946 133.168ZM48.4946 127.106C47.9999 127.106 47.5613 127.255 47.1786 127.554C46.7959 127.843 46.5626 128.282 46.4786 128.87H50.3986C50.3706 128.329 50.1793 127.899 49.8246 127.582C49.4699 127.265 49.0266 127.106 48.4946 127.106ZM53.4224 133V122.92H54.9064V133H53.4224Z" fill="#333333"/>
<rect x="12" y="144" width="275" height="24" rx="4" fill="#FFE3CE"/>
<path d="M20.994 161V151.2H22.478V159.824H26.93V161H20.994ZM30.8232 161.168C30.2352 161.168 29.7499 161.07 29.3672 160.874C28.9845 160.678 28.6999 160.421 28.5132 160.104C28.3265 159.777 28.2332 159.423 28.2332 159.04C28.2332 158.368 28.4945 157.836 29.0172 157.444C29.5399 157.052 30.2865 156.856 31.2572 156.856H33.0772V156.73C33.0772 156.189 32.9279 155.783 32.6292 155.512C32.3399 155.241 31.9619 155.106 31.4952 155.106C31.0845 155.106 30.7252 155.209 30.4172 155.414C30.1185 155.61 29.9365 155.904 29.8712 156.296H28.3872C28.4339 155.792 28.6019 155.363 28.8912 155.008C29.1899 154.644 29.5632 154.369 30.0112 154.182C30.4685 153.986 30.9679 153.888 31.5092 153.888C32.4799 153.888 33.2312 154.145 33.7632 154.658C34.2952 155.162 34.5612 155.853 34.5612 156.73V161H33.2732L33.1472 159.81C32.9512 160.193 32.6665 160.515 32.2932 160.776C31.9199 161.037 31.4299 161.168 30.8232 161.168ZM31.1172 159.964C31.5185 159.964 31.8545 159.871 32.1252 159.684C32.4052 159.488 32.6199 159.231 32.7692 158.914C32.9279 158.597 33.0259 158.247 33.0632 157.864H31.4112C30.8232 157.864 30.4032 157.967 30.1512 158.172C29.9085 158.377 29.7872 158.634 29.7872 158.942C29.7872 159.259 29.9039 159.511 30.1372 159.698C30.3799 159.875 30.7065 159.964 31.1172 159.964ZM40.1975 161.168C39.6562 161.168 39.1755 161.061 38.7555 160.846C38.3448 160.631 38.0182 160.328 37.7755 159.936L37.6215 161H36.2915V150.92H37.7755V155.134C37.9995 154.807 38.3075 154.518 38.6995 154.266C39.0915 154.014 39.5955 153.888 40.2115 153.888C40.8835 153.888 41.4762 154.047 41.9895 154.364C42.5028 154.681 42.9042 155.115 43.1935 155.666C43.4922 156.217 43.6415 156.842 43.6415 157.542C43.6415 158.242 43.4922 158.867 43.1935 159.418C42.9042 159.959 42.5028 160.389 41.9895 160.706C41.4762 161.014 40.8788 161.168 40.1975 161.168ZM39.9455 159.88C40.5802 159.88 41.1028 159.665 41.5135 159.236C41.9242 158.797 42.1295 158.228 42.1295 157.528C42.1295 157.071 42.0362 156.665 41.8495 156.31C41.6628 155.955 41.4062 155.68 41.0795 155.484C40.7528 155.279 40.3748 155.176 39.9455 155.176C39.3108 155.176 38.7882 155.395 38.3775 155.834C37.9762 156.273 37.7755 156.837 37.7755 157.528C37.7755 158.228 37.9762 158.797 38.3775 159.236C38.7882 159.665 39.3108 159.88 39.9455 159.88ZM48.4946 161.168C47.8133 161.168 47.2066 161.019 46.6746 160.72C46.1519 160.412 45.7413 159.987 45.4426 159.446C45.1439 158.905 44.9946 158.275 44.9946 157.556C44.9946 156.828 45.1393 156.189 45.4286 155.638C45.7273 155.087 46.1379 154.658 46.6606 154.35C47.1926 154.042 47.8086 153.888 48.5086 153.888C49.1899 153.888 49.7826 154.042 50.2866 154.35C50.7906 154.649 51.1826 155.05 51.4626 155.554C51.7426 156.058 51.8826 156.613 51.8826 157.22C51.8826 157.313 51.8779 157.416 51.8686 157.528C51.8686 157.631 51.8639 157.747 51.8546 157.878H46.4506C46.4973 158.55 46.7166 159.063 47.1086 159.418C47.5099 159.763 47.9719 159.936 48.4946 159.936C48.9146 159.936 49.2646 159.843 49.5446 159.656C49.8339 159.46 50.0486 159.199 50.1886 158.872H51.6726C51.4859 159.525 51.1126 160.071 50.5526 160.51C50.0019 160.949 49.3159 161.168 48.4946 161.168ZM48.4946 155.106C47.9999 155.106 47.5613 155.255 47.1786 155.554C46.7959 155.843 46.5626 156.282 46.4786 156.87H50.3986C50.3706 156.329 50.1793 155.899 49.8246 155.582C49.4699 155.265 49.0266 155.106 48.4946 155.106ZM53.4224 161V150.92H54.9064V161H53.4224Z" fill="#7A2682"/>
<path d="M20.994 189V179.2H22.478V187.824H26.93V189H20.994ZM30.8232 189.168C30.2352 189.168 29.7499 189.07 29.3672 188.874C28.9845 188.678 28.6999 188.421 28.5132 188.104C28.3265 187.777 28.2332 187.423 28.2332 187.04C28.2332 186.368 28.4945 185.836 29.0172 185.444C29.5399 185.052 30.2865 184.856 31.2572 184.856H33.0772V184.73C33.0772 184.189 32.9279 183.783 32.6292 183.512C32.3399 183.241 31.9619 183.106 31.4952 183.106C31.0845 183.106 30.7252 183.209 30.4172 183.414C30.1185 183.61 29.9365 183.904 29.8712 184.296H28.3872C28.4339 183.792 28.6019 183.363 28.8912 183.008C29.1899 182.644 29.5632 182.369 30.0112 182.182C30.4685 181.986 30.9679 181.888 31.5092 181.888C32.4799 181.888 33.2312 182.145 33.7632 182.658C34.2952 183.162 34.5612 183.853 34.5612 184.73V189H33.2732L33.1472 187.81C32.9512 188.193 32.6665 188.515 32.2932 188.776C31.9199 189.037 31.4299 189.168 30.8232 189.168ZM31.1172 187.964C31.5185 187.964 31.8545 187.871 32.1252 187.684C32.4052 187.488 32.6199 187.231 32.7692 186.914C32.9279 186.597 33.0259 186.247 33.0632 185.864H31.4112C30.8232 185.864 30.4032 185.967 30.1512 186.172C29.9085 186.377 29.7872 186.634 29.7872 186.942C29.7872 187.259 29.9039 187.511 30.1372 187.698C30.3799 187.875 30.7065 187.964 31.1172 187.964ZM40.1975 189.168C39.6562 189.168 39.1755 189.061 38.7555 188.846C38.3448 188.631 38.0182 188.328 37.7755 187.936L37.6215 189H36.2915V178.92H37.7755V183.134C37.9995 182.807 38.3075 182.518 38.6995 182.266C39.0915 182.014 39.5955 181.888 40.2115 181.888C40.8835 181.888 41.4762 182.047 41.9895 182.364C42.5028 182.681 42.9042 183.115 43.1935 183.666C43.4922 184.217 43.6415 184.842 43.6415 185.542C43.6415 186.242 43.4922 186.867 43.1935 187.418C42.9042 187.959 42.5028 188.389 41.9895 188.706C41.4762 189.014 40.8788 189.168 40.1975 189.168ZM39.9455 187.88C40.5802 187.88 41.1028 187.665 41.5135 187.236C41.9242 186.797 42.1295 186.228 42.1295 185.528C42.1295 185.071 42.0362 184.665 41.8495 184.31C41.6628 183.955 41.4062 183.68 41.0795 183.484C40.7528 183.279 40.3748 183.176 39.9455 183.176C39.3108 183.176 38.7882 183.395 38.3775 183.834C37.9762 184.273 37.7755 184.837 37.7755 185.528C37.7755 186.228 37.9762 186.797 38.3775 187.236C38.7882 187.665 39.3108 187.88 39.9455 187.88ZM48.4946 189.168C47.8133 189.168 47.2066 189.019 46.6746 188.72C46.1519 188.412 45.7413 187.987 45.4426 187.446C45.1439 186.905 44.9946 186.275 44.9946 185.556C44.9946 184.828 45.1393 184.189 45.4286 183.638C45.7273 183.087 46.1379 182.658 46.6606 182.35C47.1926 182.042 47.8086 181.888 48.5086 181.888C49.1899 181.888 49.7826 182.042 50.2866 182.35C50.7906 182.649 51.1826 183.05 51.4626 183.554C51.7426 184.058 51.8826 184.613 51.8826 185.22C51.8826 185.313 51.8779 185.416 51.8686 185.528C51.8686 185.631 51.8639 185.747 51.8546 185.878H46.4506C46.4973 186.55 46.7166 187.063 47.1086 187.418C47.5099 187.763 47.9719 187.936 48.4946 187.936C48.9146 187.936 49.2646 187.843 49.5446 187.656C49.8339 187.46 50.0486 187.199 50.1886 186.872H51.6726C51.4859 187.525 51.1126 188.071 50.5526 188.51C50.0019 188.949 49.3159 189.168 48.4946 189.168ZM48.4946 183.106C47.9999 183.106 47.5613 183.255 47.1786 183.554C46.7959 183.843 46.5626 184.282 46.4786 184.87H50.3986C50.3706 184.329 50.1793 183.899 49.8246 183.582C49.4699 183.265 49.0266 183.106 48.4946 183.106ZM53.4224 189V178.92H54.9064V189H53.4224Z" fill="#333333"/>
<path d="M20.994 217V207.2H22.478V215.824H26.93V217H20.994ZM30.8232 217.168C30.2352 217.168 29.7499 217.07 29.3672 216.874C28.9845 216.678 28.6999 216.421 28.5132 216.104C28.3265 215.777 28.2332 215.423 28.2332 215.04C28.2332 214.368 28.4945 213.836 29.0172 213.444C29.5399 213.052 30.2865 212.856 31.2572 212.856H33.0772V212.73C33.0772 212.189 32.9279 211.783 32.6292 211.512C32.3399 211.241 31.9619 211.106 31.4952 211.106C31.0845 211.106 30.7252 211.209 30.4172 211.414C30.1185 211.61 29.9365 211.904 29.8712 212.296H28.3872C28.4339 211.792 28.6019 211.363 28.8912 211.008C29.1899 210.644 29.5632 210.369 30.0112 210.182C30.4685 209.986 30.9679 209.888 31.5092 209.888C32.4799 209.888 33.2312 210.145 33.7632 210.658C34.2952 211.162 34.5612 211.853 34.5612 212.73V217H33.2732L33.1472 215.81C32.9512 216.193 32.6665 216.515 32.2932 216.776C31.9199 217.037 31.4299 217.168 30.8232 217.168ZM31.1172 215.964C31.5185 215.964 31.8545 215.871 32.1252 215.684C32.4052 215.488 32.6199 215.231 32.7692 214.914C32.9279 214.597 33.0259 214.247 33.0632 213.864H31.4112C30.8232 213.864 30.4032 213.967 30.1512 214.172C29.9085 214.377 29.7872 214.634 29.7872 214.942C29.7872 215.259 29.9039 215.511 30.1372 215.698C30.3799 215.875 30.7065 215.964 31.1172 215.964ZM40.1975 217.168C39.6562 217.168 39.1755 217.061 38.7555 216.846C38.3448 216.631 38.0182 216.328 37.7755 215.936L37.6215 217H36.2915V206.92H37.7755V211.134C37.9995 210.807 38.3075 210.518 38.6995 210.266C39.0915 210.014 39.5955 209.888 40.2115 209.888C40.8835 209.888 41.4762 210.047 41.9895 210.364C42.5028 210.681 42.9042 211.115 43.1935 211.666C43.4922 212.217 43.6415 212.842 43.6415 213.542C43.6415 214.242 43.4922 214.867 43.1935 215.418C42.9042 215.959 42.5028 216.389 41.9895 216.706C41.4762 217.014 40.8788 217.168 40.1975 217.168ZM39.9455 215.88C40.5802 215.88 41.1028 215.665 41.5135 215.236C41.9242 214.797 42.1295 214.228 42.1295 213.528C42.1295 213.071 42.0362 212.665 41.8495 212.31C41.6628 211.955 41.4062 211.68 41.0795 211.484C40.7528 211.279 40.3748 211.176 39.9455 211.176C39.3108 211.176 38.7882 211.395 38.3775 211.834C37.9762 212.273 37.7755 212.837 37.7755 213.528C37.7755 214.228 37.9762 214.797 38.3775 215.236C38.7882 215.665 39.3108 215.88 39.9455 215.88ZM48.4946 217.168C47.8133 217.168 47.2066 217.019 46.6746 216.72C46.1519 216.412 45.7413 215.987 45.4426 215.446C45.1439 214.905 44.9946 214.275 44.9946 213.556C44.9946 212.828 45.1393 212.189 45.4286 211.638C45.7273 211.087 46.1379 210.658 46.6606 210.35C47.1926 210.042 47.8086 209.888 48.5086 209.888C49.1899 209.888 49.7826 210.042 50.2866 210.35C50.7906 210.649 51.1826 211.05 51.4626 211.554C51.7426 212.058 51.8826 212.613 51.8826 213.22C51.8826 213.313 51.8779 213.416 51.8686 213.528C51.8686 213.631 51.8639 213.747 51.8546 213.878H46.4506C46.4973 214.55 46.7166 215.063 47.1086 215.418C47.5099 215.763 47.9719 215.936 48.4946 215.936C48.9146 215.936 49.2646 215.843 49.5446 215.656C49.8339 215.46 50.0486 215.199 50.1886 214.872H51.6726C51.4859 215.525 51.1126 216.071 50.5526 216.51C50.0019 216.949 49.3159 217.168 48.4946 217.168ZM48.4946 211.106C47.9999 211.106 47.5613 211.255 47.1786 211.554C46.7959 211.843 46.5626 212.282 46.4786 212.87H50.3986C50.3706 212.329 50.1793 211.899 49.8246 211.582C49.4699 211.265 49.0266 211.106 48.4946 211.106ZM53.4224 217V206.92H54.9064V217H53.4224Z" fill="#333333"/>
<path d="M20.994 245V235.2H22.478V243.824H26.93V245H20.994ZM30.8232 245.168C30.2352 245.168 29.7499 245.07 29.3672 244.874C28.9845 244.678 28.6999 244.421 28.5132 244.104C28.3265 243.777 28.2332 243.423 28.2332 243.04C28.2332 242.368 28.4945 241.836 29.0172 241.444C29.5399 241.052 30.2865 240.856 31.2572 240.856H33.0772V240.73C33.0772 240.189 32.9279 239.783 32.6292 239.512C32.3399 239.241 31.9619 239.106 31.4952 239.106C31.0845 239.106 30.7252 239.209 30.4172 239.414C30.1185 239.61 29.9365 239.904 29.8712 240.296H28.3872C28.4339 239.792 28.6019 239.363 28.8912 239.008C29.1899 238.644 29.5632 238.369 30.0112 238.182C30.4685 237.986 30.9679 237.888 31.5092 237.888C32.4799 237.888 33.2312 238.145 33.7632 238.658C34.2952 239.162 34.5612 239.853 34.5612 240.73V245H33.2732L33.1472 243.81C32.9512 244.193 32.6665 244.515 32.2932 244.776C31.9199 245.037 31.4299 245.168 30.8232 245.168ZM31.1172 243.964C31.5185 243.964 31.8545 243.871 32.1252 243.684C32.4052 243.488 32.6199 243.231 32.7692 242.914C32.9279 242.597 33.0259 242.247 33.0632 241.864H31.4112C30.8232 241.864 30.4032 241.967 30.1512 242.172C29.9085 242.377 29.7872 242.634 29.7872 242.942C29.7872 243.259 29.9039 243.511 30.1372 243.698C30.3799 243.875 30.7065 243.964 31.1172 243.964ZM40.1975 245.168C39.6562 245.168 39.1755 245.061 38.7555 244.846C38.3448 244.631 38.0182 244.328 37.7755 243.936L37.6215 245H36.2915V234.92H37.7755V239.134C37.9995 238.807 38.3075 238.518 38.6995 238.266C39.0915 238.014 39.5955 237.888 40.2115 237.888C40.8835 237.888 41.4762 238.047 41.9895 238.364C42.5028 238.681 42.9042 239.115 43.1935 239.666C43.4922 240.217 43.6415 240.842 43.6415 241.542C43.6415 242.242 43.4922 242.867 43.1935 243.418C42.9042 243.959 42.5028 244.389 41.9895 244.706C41.4762 245.014 40.8788 245.168 40.1975 245.168ZM39.9455 243.88C40.5802 243.88 41.1028 243.665 41.5135 243.236C41.9242 242.797 42.1295 242.228 42.1295 241.528C42.1295 241.071 42.0362 240.665 41.8495 240.31C41.6628 239.955 41.4062 239.68 41.0795 239.484C40.7528 239.279 40.3748 239.176 39.9455 239.176C39.3108 239.176 38.7882 239.395 38.3775 239.834C37.9762 240.273 37.7755 240.837 37.7755 241.528C37.7755 242.228 37.9762 242.797 38.3775 243.236C38.7882 243.665 39.3108 243.88 39.9455 243.88ZM48.4946 245.168C47.8133 245.168 47.2066 245.019 46.6746 244.72C46.1519 244.412 45.7413 243.987 45.4426 243.446C45.1439 242.905 44.9946 242.275 44.9946 241.556C44.9946 240.828 45.1393 240.189 45.4286 239.638C45.7273 239.087 46.1379 238.658 46.6606 238.35C47.1926 238.042 47.8086 237.888 48.5086 237.888C49.1899 237.888 49.7826 238.042 50.2866 238.35C50.7906 238.649 51.1826 239.05 51.4626 239.554C51.7426 240.058 51.8826 240.613 51.8826 241.22C51.8826 241.313 51.8779 241.416 51.8686 241.528C51.8686 241.631 51.8639 241.747 51.8546 241.878H46.4506C46.4973 242.55 46.7166 243.063 47.1086 243.418C47.5099 243.763 47.9719 243.936 48.4946 243.936C48.9146 243.936 49.2646 243.843 49.5446 243.656C49.8339 243.46 50.0486 243.199 50.1886 242.872H51.6726C51.4859 243.525 51.1126 244.071 50.5526 244.51C50.0019 244.949 49.3159 245.168 48.4946 245.168ZM48.4946 239.106C47.9999 239.106 47.5613 239.255 47.1786 239.554C46.7959 239.843 46.5626 240.282 46.4786 240.87H50.3986C50.3706 240.329 50.1793 239.899 49.8246 239.582C49.4699 239.265 49.0266 239.106 48.4946 239.106ZM53.4224 245V234.92H54.9064V245H53.4224Z" fill="#333333"/>
<path d="M20.994 273V263.2H22.478V271.824H26.93V273H20.994ZM30.8232 273.168C30.2352 273.168 29.7499 273.07 29.3672 272.874C28.9845 272.678 28.6999 272.421 28.5132 272.104C28.3265 271.777 28.2332 271.423 28.2332 271.04C28.2332 270.368 28.4945 269.836 29.0172 269.444C29.5399 269.052 30.2865 268.856 31.2572 268.856H33.0772V268.73C33.0772 268.189 32.9279 267.783 32.6292 267.512C32.3399 267.241 31.9619 267.106 31.4952 267.106C31.0845 267.106 30.7252 267.209 30.4172 267.414C30.1185 267.61 29.9365 267.904 29.8712 268.296H28.3872C28.4339 267.792 28.6019 267.363 28.8912 267.008C29.1899 266.644 29.5632 266.369 30.0112 266.182C30.4685 265.986 30.9679 265.888 31.5092 265.888C32.4799 265.888 33.2312 266.145 33.7632 266.658C34.2952 267.162 34.5612 267.853 34.5612 268.73V273H33.2732L33.1472 271.81C32.9512 272.193 32.6665 272.515 32.2932 272.776C31.9199 273.037 31.4299 273.168 30.8232 273.168ZM31.1172 271.964C31.5185 271.964 31.8545 271.871 32.1252 271.684C32.4052 271.488 32.6199 271.231 32.7692 270.914C32.9279 270.597 33.0259 270.247 33.0632 269.864H31.4112C30.8232 269.864 30.4032 269.967 30.1512 270.172C29.9085 270.377 29.7872 270.634 29.7872 270.942C29.7872 271.259 29.9039 271.511 30.1372 271.698C30.3799 271.875 30.7065 271.964 31.1172 271.964ZM40.1975 273.168C39.6562 273.168 39.1755 273.061 38.7555 272.846C38.3448 272.631 38.0182 272.328 37.7755 271.936L37.6215 273H36.2915V262.92H37.7755V267.134C37.9995 266.807 38.3075 266.518 38.6995 266.266C39.0915 266.014 39.5955 265.888 40.2115 265.888C40.8835 265.888 41.4762 266.047 41.9895 266.364C42.5028 266.681 42.9042 267.115 43.1935 267.666C43.4922 268.217 43.6415 268.842 43.6415 269.542C43.6415 270.242 43.4922 270.867 43.1935 271.418C42.9042 271.959 42.5028 272.389 41.9895 272.706C41.4762 273.014 40.8788 273.168 40.1975 273.168ZM39.9455 271.88C40.5802 271.88 41.1028 271.665 41.5135 271.236C41.9242 270.797 42.1295 270.228 42.1295 269.528C42.1295 269.071 42.0362 268.665 41.8495 268.31C41.6628 267.955 41.4062 267.68 41.0795 267.484C40.7528 267.279 40.3748 267.176 39.9455 267.176C39.3108 267.176 38.7882 267.395 38.3775 267.834C37.9762 268.273 37.7755 268.837 37.7755 269.528C37.7755 270.228 37.9762 270.797 38.3775 271.236C38.7882 271.665 39.3108 271.88 39.9455 271.88ZM48.4946 273.168C47.8133 273.168 47.2066 273.019 46.6746 272.72C46.1519 272.412 45.7413 271.987 45.4426 271.446C45.1439 270.905 44.9946 270.275 44.9946 269.556C44.9946 268.828 45.1393 268.189 45.4286 267.638C45.7273 267.087 46.1379 266.658 46.6606 266.35C47.1926 266.042 47.8086 265.888 48.5086 265.888C49.1899 265.888 49.7826 266.042 50.2866 266.35C50.7906 266.649 51.1826 267.05 51.4626 267.554C51.7426 268.058 51.8826 268.613 51.8826 269.22C51.8826 269.313 51.8779 269.416 51.8686 269.528C51.8686 269.631 51.8639 269.747 51.8546 269.878H46.4506C46.4973 270.55 46.7166 271.063 47.1086 271.418C47.5099 271.763 47.9719 271.936 48.4946 271.936C48.9146 271.936 49.2646 271.843 49.5446 271.656C49.8339 271.46 50.0486 271.199 50.1886 270.872H51.6726C51.4859 271.525 51.1126 272.071 50.5526 272.51C50.0019 272.949 49.3159 273.168 48.4946 273.168ZM48.4946 267.106C47.9999 267.106 47.5613 267.255 47.1786 267.554C46.7959 267.843 46.5626 268.282 46.4786 268.87H50.3986C50.3706 268.329 50.1793 267.899 49.8246 267.582C49.4699 267.265 49.0266 267.106 48.4946 267.106ZM53.4224 273V262.92H54.9064V273H53.4224Z" fill="#333333"/>
<path d="M20.994 301V291.2H22.478V299.824H26.93V301H20.994ZM30.8232 301.168C30.2352 301.168 29.7499 301.07 29.3672 300.874C28.9845 300.678 28.6999 300.421 28.5132 300.104C28.3265 299.777 28.2332 299.423 28.2332 299.04C28.2332 298.368 28.4945 297.836 29.0172 297.444C29.5399 297.052 30.2865 296.856 31.2572 296.856H33.0772V296.73C33.0772 296.189 32.9279 295.783 32.6292 295.512C32.3399 295.241 31.9619 295.106 31.4952 295.106C31.0845 295.106 30.7252 295.209 30.4172 295.414C30.1185 295.61 29.9365 295.904 29.8712 296.296H28.3872C28.4339 295.792 28.6019 295.363 28.8912 295.008C29.1899 294.644 29.5632 294.369 30.0112 294.182C30.4685 293.986 30.9679 293.888 31.5092 293.888C32.4799 293.888 33.2312 294.145 33.7632 294.658C34.2952 295.162 34.5612 295.853 34.5612 296.73V301H33.2732L33.1472 299.81C32.9512 300.193 32.6665 300.515 32.2932 300.776C31.9199 301.037 31.4299 301.168 30.8232 301.168ZM31.1172 299.964C31.5185 299.964 31.8545 299.871 32.1252 299.684C32.4052 299.488 32.6199 299.231 32.7692 298.914C32.9279 298.597 33.0259 298.247 33.0632 297.864H31.4112C30.8232 297.864 30.4032 297.967 30.1512 298.172C29.9085 298.377 29.7872 298.634 29.7872 298.942C29.7872 299.259 29.9039 299.511 30.1372 299.698C30.3799 299.875 30.7065 299.964 31.1172 299.964ZM40.1975 301.168C39.6562 301.168 39.1755 301.061 38.7555 300.846C38.3448 300.631 38.0182 300.328 37.7755 299.936L37.6215 301H36.2915V290.92H37.7755V295.134C37.9995 294.807 38.3075 294.518 38.6995 294.266C39.0915 294.014 39.5955 293.888 40.2115 293.888C40.8835 293.888 41.4762 294.047 41.9895 294.364C42.5028 294.681 42.9042 295.115 43.1935 295.666C43.4922 296.217 43.6415 296.842 43.6415 297.542C43.6415 298.242 43.4922 298.867 43.1935 299.418C42.9042 299.959 42.5028 300.389 41.9895 300.706C41.4762 301.014 40.8788 301.168 40.1975 301.168ZM39.9455 299.88C40.5802 299.88 41.1028 299.665 41.5135 299.236C41.9242 298.797 42.1295 298.228 42.1295 297.528C42.1295 297.071 42.0362 296.665 41.8495 296.31C41.6628 295.955 41.4062 295.68 41.0795 295.484C40.7528 295.279 40.3748 295.176 39.9455 295.176C39.3108 295.176 38.7882 295.395 38.3775 295.834C37.9762 296.273 37.7755 296.837 37.7755 297.528C37.7755 298.228 37.9762 298.797 38.3775 299.236C38.7882 299.665 39.3108 299.88 39.9455 299.88ZM48.4946 301.168C47.8133 301.168 47.2066 301.019 46.6746 300.72C46.1519 300.412 45.7413 299.987 45.4426 299.446C45.1439 298.905 44.9946 298.275 44.9946 297.556C44.9946 296.828 45.1393 296.189 45.4286 295.638C45.7273 295.087 46.1379 294.658 46.6606 294.35C47.1926 294.042 47.8086 293.888 48.5086 293.888C49.1899 293.888 49.7826 294.042 50.2866 294.35C50.7906 294.649 51.1826 295.05 51.4626 295.554C51.7426 296.058 51.8826 296.613 51.8826 297.22C51.8826 297.313 51.8779 297.416 51.8686 297.528C51.8686 297.631 51.8639 297.747 51.8546 297.878H46.4506C46.4973 298.55 46.7166 299.063 47.1086 299.418C47.5099 299.763 47.9719 299.936 48.4946 299.936C48.9146 299.936 49.2646 299.843 49.5446 299.656C49.8339 299.46 50.0486 299.199 50.1886 298.872H51.6726C51.4859 299.525 51.1126 300.071 50.5526 300.51C50.0019 300.949 49.3159 301.168 48.4946 301.168ZM48.4946 295.106C47.9999 295.106 47.5613 295.255 47.1786 295.554C46.7959 295.843 46.5626 296.282 46.4786 296.87H50.3986C50.3706 296.329 50.1793 295.899 49.8246 295.582C49.4699 295.265 49.0266 295.106 48.4946 295.106ZM53.4224 301V290.92H54.9064V301H53.4224Z" fill="#333333"/>
<rect x="291" y="116" width="6" height="192" rx="3" fill="white"/>
<rect x="291" y="144" width="6" height="16" rx="3" fill="#F5F0F7"/>
<path d="M10 322C10 319.791 11.7909 318 14 318H295C297.209 318 299 319.791 299 322V342C299 344.209 297.209 346 295 346H14C11.7909 346 10 344.209 10 342V322Z" fill="#7A2682"/>
<path d="M93.7969 336.144C93.0129 336.144 92.3249 335.964 91.7329 335.604C91.1409 335.236 90.6809 334.728 90.3529 334.08C90.0249 333.424 89.8609 332.668 89.8609 331.812C89.8609 330.956 90.0249 330.2 90.3529 329.544C90.6889 328.888 91.1609 328.376 91.7689 328.008C92.3849 327.64 93.1089 327.456 93.9409 327.456C94.8849 327.456 95.6689 327.684 96.2929 328.14C96.9249 328.596 97.3329 329.224 97.5169 330.024H96.3529C96.2409 329.52 95.9729 329.12 95.5489 328.824C95.1329 328.528 94.5969 328.38 93.9409 328.38C93.3249 328.38 92.7889 328.52 92.3329 328.8C91.8769 329.072 91.5209 329.464 91.2649 329.976C91.0169 330.488 90.8929 331.1 90.8929 331.812C90.8929 332.524 91.0169 333.136 91.2649 333.648C91.5129 334.16 91.8569 334.556 92.2969 334.836C92.7369 335.108 93.2489 335.244 93.8329 335.244C94.7289 335.244 95.4049 334.984 95.8609 334.464C96.3169 333.936 96.5769 333.216 96.6409 332.304H94.2169V331.512H97.6729V336H96.7489L96.6649 334.62C96.3609 335.108 95.9889 335.484 95.5489 335.748C95.1089 336.012 94.5249 336.144 93.7969 336.144ZM101.379 336.144C100.675 336.144 100.115 335.932 99.6989 335.508C99.2829 335.076 99.0749 334.416 99.0749 333.528V330.048H100.083V333.42C100.083 334.66 100.591 335.28 101.607 335.28C102.127 335.28 102.555 335.096 102.891 334.728C103.235 334.352 103.407 333.82 103.407 333.132V330.048H104.415V336H103.503L103.431 334.932C103.247 335.308 102.971 335.604 102.603 335.82C102.243 336.036 101.835 336.144 101.379 336.144ZM108.054 336.144C107.558 336.144 107.146 336.06 106.818 335.892C106.49 335.724 106.246 335.5 106.086 335.22C105.926 334.94 105.846 334.636 105.846 334.308C105.846 333.7 106.078 333.232 106.542 332.904C107.006 332.576 107.638 332.412 108.438 332.412H110.046V332.34C110.046 331.82 109.91 331.428 109.638 331.164C109.366 330.892 109.002 330.756 108.546 330.756C108.154 330.756 107.814 330.856 107.526 331.056C107.246 331.248 107.07 331.532 106.998 331.908H105.966C106.006 331.476 106.15 331.112 106.398 330.816C106.654 330.52 106.97 330.296 107.346 330.144C107.722 329.984 108.122 329.904 108.546 329.904C109.378 329.904 110.002 330.128 110.418 330.576C110.842 331.016 111.054 331.604 111.054 332.34V336H110.154L110.094 334.932C109.926 335.268 109.678 335.556 109.35 335.796C109.03 336.028 108.598 336.144 108.054 336.144ZM108.21 335.292C108.594 335.292 108.922 335.192 109.194 334.992C109.474 334.792 109.686 334.532 109.83 334.212C109.974 333.892 110.046 333.556 110.046 333.204V333.192H108.522C107.93 333.192 107.51 333.296 107.262 333.504C107.022 333.704 106.902 333.956 106.902 334.26C106.902 334.572 107.014 334.824 107.238 335.016C107.47 335.2 107.794 335.292 108.21 335.292ZM112.566 336V330.048H113.478L113.562 331.188C113.746 330.796 114.026 330.484 114.402 330.252C114.778 330.02 115.242 329.904 115.794 329.904V330.96H115.518C115.166 330.96 114.842 331.024 114.546 331.152C114.25 331.272 114.014 331.48 113.838 331.776C113.662 332.072 113.574 332.48 113.574 333V336H112.566ZM119.403 336.144C118.811 336.144 118.291 336.008 117.843 335.736C117.403 335.464 117.059 335.092 116.811 334.62C116.571 334.148 116.451 333.612 116.451 333.012C116.451 332.412 116.575 331.88 116.823 331.416C117.071 330.944 117.415 330.576 117.855 330.312C118.295 330.04 118.815 329.904 119.415 329.904C119.903 329.904 120.335 330.004 120.711 330.204C121.087 330.404 121.379 330.684 121.587 331.044V327.36H122.595V336H121.683L121.587 335.016C121.395 335.304 121.119 335.564 120.759 335.796C120.399 336.028 119.947 336.144 119.403 336.144ZM119.511 335.268C119.911 335.268 120.263 335.176 120.567 334.992C120.879 334.8 121.119 334.536 121.287 334.2C121.463 333.864 121.551 333.472 121.551 333.024C121.551 332.576 121.463 332.184 121.287 331.848C121.119 331.512 120.879 331.252 120.567 331.068C120.263 330.876 119.911 330.78 119.511 330.78C119.119 330.78 118.767 330.876 118.455 331.068C118.151 331.252 117.911 331.512 117.735 331.848C117.567 332.184 117.483 332.576 117.483 333.024C117.483 333.472 117.567 333.864 117.735 334.2C117.911 334.536 118.151 334.8 118.455 334.992C118.767 335.176 119.119 335.268 119.511 335.268ZM126.218 336.144C125.722 336.144 125.31 336.06 124.982 335.892C124.654 335.724 124.41 335.5 124.25 335.22C124.09 334.94 124.01 334.636 124.01 334.308C124.01 333.7 124.242 333.232 124.706 332.904C125.17 332.576 125.802 332.412 126.602 332.412H128.21V332.34C128.21 331.82 128.074 331.428 127.802 331.164C127.53 330.892 127.166 330.756 126.71 330.756C126.318 330.756 125.978 330.856 125.69 331.056C125.41 331.248 125.234 331.532 125.162 331.908H124.13C124.17 331.476 124.314 331.112 124.562 330.816C124.818 330.52 125.134 330.296 125.51 330.144C125.886 329.984 126.286 329.904 126.71 329.904C127.542 329.904 128.166 330.128 128.582 330.576C129.006 331.016 129.218 331.604 129.218 332.34V336H128.318L128.258 334.932C128.09 335.268 127.842 335.556 127.514 335.796C127.194 336.028 126.762 336.144 126.218 336.144ZM126.374 335.292C126.758 335.292 127.086 335.192 127.358 334.992C127.638 334.792 127.85 334.532 127.994 334.212C128.138 333.892 128.21 333.556 128.21 333.204V333.192H126.686C126.094 333.192 125.674 333.296 125.426 333.504C125.186 333.704 125.066 333.956 125.066 334.26C125.066 334.572 125.178 334.824 125.402 335.016C125.634 335.2 125.958 335.292 126.374 335.292ZM130.73 336V330.048H131.642L131.726 331.188C131.91 330.796 132.19 330.484 132.566 330.252C132.942 330.02 133.406 329.904 133.958 329.904V330.96H133.682C133.33 330.96 133.006 331.024 132.71 331.152C132.414 331.272 132.178 331.48 132.002 331.776C131.826 332.072 131.738 332.48 131.738 333V336H130.73ZM138.266 336V330.048H139.178L139.238 331.116C139.43 330.74 139.706 330.444 140.066 330.228C140.426 330.012 140.834 329.904 141.29 329.904C141.994 329.904 142.554 330.12 142.97 330.552C143.394 330.976 143.605 331.632 143.605 332.52V336H142.598V332.628C142.598 331.388 142.086 330.768 141.062 330.768C140.55 330.768 140.122 330.956 139.778 331.332C139.442 331.7 139.274 332.228 139.274 332.916V336H138.266ZM147.305 336.144C146.601 336.144 146.041 335.932 145.625 335.508C145.209 335.076 145.001 334.416 145.001 333.528V330.048H146.009V333.42C146.009 334.66 146.517 335.28 147.533 335.28C148.053 335.28 148.481 335.096 148.817 334.728C149.161 334.352 149.333 333.82 149.333 333.132V330.048H150.341V336H149.429L149.357 334.932C149.173 335.308 148.897 335.604 148.529 335.82C148.169 336.036 147.761 336.144 147.305 336.144ZM154.676 336.144C154.108 336.144 153.604 336.016 153.164 335.76C152.724 335.496 152.376 335.132 152.12 334.668C151.872 334.204 151.748 333.656 151.748 333.024C151.748 332.4 151.872 331.856 152.12 331.392C152.368 330.92 152.712 330.556 153.152 330.3C153.6 330.036 154.116 329.904 154.7 329.904C155.276 329.904 155.772 330.036 156.188 330.3C156.612 330.556 156.936 330.896 157.16 331.32C157.384 331.744 157.496 332.2 157.496 332.688C157.496 332.776 157.492 332.864 157.484 332.952C157.484 333.04 157.484 333.14 157.484 333.252H152.744C152.768 333.708 152.872 334.088 153.056 334.392C153.248 334.688 153.484 334.912 153.764 335.064C154.052 335.216 154.356 335.292 154.676 335.292C155.092 335.292 155.44 335.196 155.72 335.004C156 334.812 156.204 334.552 156.332 334.224H157.328C157.168 334.776 156.86 335.236 156.404 335.604C155.956 335.964 155.38 336.144 154.676 336.144ZM154.676 330.756C154.196 330.756 153.768 330.904 153.392 331.2C153.024 331.488 152.812 331.912 152.756 332.472H156.5C156.476 331.936 156.292 331.516 155.948 331.212C155.604 330.908 155.18 330.756 154.676 330.756ZM160.314 336L158.058 330.048H159.114L160.902 335.028L162.702 330.048H163.734L161.478 336H160.314ZM166.531 336.144C166.035 336.144 165.623 336.06 165.295 335.892C164.967 335.724 164.723 335.5 164.563 335.22C164.403 334.94 164.323 334.636 164.323 334.308C164.323 333.7 164.555 333.232 165.019 332.904C165.483 332.576 166.115 332.412 166.915 332.412H168.523V332.34C168.523 331.82 168.387 331.428 168.115 331.164C167.843 330.892 167.479 330.756 167.023 330.756C166.631 330.756 166.291 330.856 166.003 331.056C165.723 331.248 165.547 331.532 165.475 331.908H164.443C164.483 331.476 164.627 331.112 164.875 330.816C165.131 330.52 165.447 330.296 165.823 330.144C166.199 329.984 166.599 329.904 167.023 329.904C167.855 329.904 168.479 330.128 168.895 330.576C169.319 331.016 169.531 331.604 169.531 332.34V336H168.631L168.571 334.932C168.403 335.268 168.155 335.556 167.827 335.796C167.507 336.028 167.075 336.144 166.531 336.144ZM166.687 335.292C167.071 335.292 167.399 335.192 167.671 334.992C167.951 334.792 168.163 334.532 168.307 334.212C168.451 333.892 168.523 333.556 168.523 333.204V333.192H166.999C166.407 333.192 165.987 333.296 165.739 333.504C165.499 333.704 165.379 333.956 165.379 334.26C165.379 334.572 165.491 334.824 165.715 335.016C165.947 335.2 166.271 335.292 166.687 335.292ZM176.895 336.144C176.327 336.144 175.823 336.016 175.383 335.76C174.943 335.496 174.595 335.132 174.339 334.668C174.091 334.204 173.967 333.656 173.967 333.024C173.967 332.4 174.091 331.856 174.339 331.392C174.587 330.92 174.931 330.556 175.371 330.3C175.819 330.036 176.335 329.904 176.919 329.904C177.495 329.904 177.991 330.036 178.407 330.3C178.831 330.556 179.155 330.896 179.379 331.32C179.603 331.744 179.715 332.2 179.715 332.688C179.715 332.776 179.711 332.864 179.703 332.952C179.703 333.04 179.703 333.14 179.703 333.252H174.963C174.987 333.708 175.091 334.088 175.275 334.392C175.467 334.688 175.703 334.912 175.983 335.064C176.271 335.216 176.575 335.292 176.895 335.292C177.311 335.292 177.659 335.196 177.939 335.004C178.219 334.812 178.423 334.552 178.551 334.224H179.547C179.387 334.776 179.079 335.236 178.623 335.604C178.175 335.964 177.599 336.144 176.895 336.144ZM176.895 330.756C176.415 330.756 175.987 330.904 175.611 331.2C175.243 331.488 175.031 331.912 174.975 332.472H178.719C178.695 331.936 178.511 331.516 178.167 331.212C177.823 330.908 177.399 330.756 176.895 330.756ZM183.203 336C182.659 336 182.231 335.868 181.919 335.604C181.607 335.34 181.451 334.864 181.451 334.176V330.9H180.419V330.048H181.451L181.583 328.62H182.459V330.048H184.211V330.9H182.459V334.176C182.459 334.552 182.535 334.808 182.687 334.944C182.839 335.072 183.107 335.136 183.491 335.136H184.115V336H183.203ZM186.104 328.728C185.904 328.728 185.736 328.664 185.6 328.536C185.472 328.4 185.408 328.232 185.408 328.032C185.408 327.84 185.472 327.68 185.6 327.552C185.736 327.424 185.904 327.36 186.104 327.36C186.296 327.36 186.46 327.424 186.596 327.552C186.732 327.68 186.8 327.84 186.8 328.032C186.8 328.232 186.732 328.4 186.596 328.536C186.46 328.664 186.296 328.728 186.104 328.728ZM185.6 336V330.048H186.608V336H185.6ZM193.247 338.64V335.016C193.055 335.304 192.779 335.564 192.419 335.796C192.059 336.028 191.607 336.144 191.063 336.144C190.471 336.144 189.951 336.008 189.503 335.736C189.063 335.464 188.719 335.092 188.471 334.62C188.231 334.148 188.111 333.612 188.111 333.012C188.111 332.412 188.235 331.88 188.483 331.416C188.731 330.944 189.075 330.576 189.515 330.312C189.955 330.04 190.475 329.904 191.075 329.904C191.563 329.904 191.995 330.004 192.371 330.204C192.747 330.404 193.039 330.684 193.247 331.044L193.343 330.048H194.255V338.64H193.247ZM191.171 335.268C191.571 335.268 191.923 335.176 192.227 334.992C192.539 334.8 192.779 334.536 192.947 334.2C193.123 333.864 193.211 333.472 193.211 333.024C193.211 332.576 193.123 332.184 192.947 331.848C192.779 331.512 192.539 331.252 192.227 331.068C191.923 330.876 191.571 330.78 191.171 330.78C190.779 330.78 190.427 330.876 190.115 331.068C189.811 331.252 189.571 331.512 189.395 331.848C189.227 332.184 189.143 332.576 189.143 333.024C189.143 333.472 189.227 333.864 189.395 334.2C189.571 334.536 189.811 334.8 190.115 334.992C190.427 335.176 190.779 335.268 191.171 335.268ZM198.07 336.144C197.366 336.144 196.806 335.932 196.39 335.508C195.974 335.076 195.766 334.416 195.766 333.528V330.048H196.774V333.42C196.774 334.66 197.282 335.28 198.298 335.28C198.818 335.28 199.246 335.096 199.582 334.728C199.926 334.352 200.098 333.82 200.098 333.132V330.048H201.106V336H200.194L200.122 334.932C199.938 335.308 199.662 335.604 199.294 335.82C198.934 336.036 198.526 336.144 198.07 336.144ZM205.442 336.144C204.874 336.144 204.37 336.016 203.93 335.76C203.49 335.496 203.142 335.132 202.886 334.668C202.638 334.204 202.514 333.656 202.514 333.024C202.514 332.4 202.638 331.856 202.886 331.392C203.134 330.92 203.478 330.556 203.918 330.3C204.366 330.036 204.882 329.904 205.465 329.904C206.042 329.904 206.538 330.036 206.954 330.3C207.378 330.556 207.702 330.896 207.926 331.32C208.15 331.744 208.262 332.2 208.262 332.688C208.262 332.776 208.258 332.864 208.25 332.952C208.25 333.04 208.25 333.14 208.25 333.252H203.51C203.534 333.708 203.638 334.088 203.822 334.392C204.014 334.688 204.25 334.912 204.53 335.064C204.818 335.216 205.122 335.292 205.442 335.292C205.858 335.292 206.206 335.196 206.486 335.004C206.766 334.812 206.97 334.552 207.098 334.224H208.094C207.934 334.776 207.626 335.236 207.17 335.604C206.722 335.964 206.146 336.144 205.442 336.144ZM205.442 330.756C204.962 330.756 204.534 330.904 204.158 331.2C203.79 331.488 203.578 331.912 203.521 332.472H207.266C207.242 331.936 207.058 331.516 206.714 331.212C206.37 330.908 205.946 330.756 205.442 330.756ZM211.75 336C211.206 336 210.778 335.868 210.466 335.604C210.154 335.34 209.998 334.864 209.998 334.176V330.9H208.966V330.048H209.998L210.13 328.62H211.006V330.048H212.758V330.9H211.006V334.176C211.006 334.552 211.082 334.808 211.234 334.944C211.386 335.072 211.654 335.136 212.038 335.136H212.662V336H211.75ZM216.019 336.144C215.523 336.144 215.111 336.06 214.783 335.892C214.455 335.724 214.211 335.5 214.051 335.22C213.891 334.94 213.811 334.636 213.811 334.308C213.811 333.7 214.043 333.232 214.507 332.904C214.971 332.576 215.603 332.412 216.403 332.412H218.011V332.34C218.011 331.82 217.875 331.428 217.603 331.164C217.331 330.892 216.967 330.756 216.511 330.756C216.119 330.756 215.779 330.856 215.491 331.056C215.211 331.248 215.035 331.532 214.963 331.908H213.931C213.971 331.476 214.115 331.112 214.363 330.816C214.619 330.52 214.935 330.296 215.311 330.144C215.687 329.984 216.087 329.904 216.511 329.904C217.343 329.904 217.967 330.128 218.383 330.576C218.807 331.016 219.019 331.604 219.019 332.34V336H218.119L218.059 334.932C217.891 335.268 217.643 335.556 217.315 335.796C216.995 336.028 216.563 336.144 216.019 336.144ZM216.175 335.292C216.559 335.292 216.887 335.192 217.159 334.992C217.439 334.792 217.651 334.532 217.795 334.212C217.939 333.892 218.011 333.556 218.011 333.204V333.192H216.487C215.895 333.192 215.475 333.296 215.227 333.504C214.987 333.704 214.867 333.956 214.867 334.26C214.867 334.572 214.979 334.824 215.203 335.016C215.435 335.2 215.759 335.292 216.175 335.292Z" fill="white"/>
</g>
<defs>
<filter id="filter0_d_8024_375869" x="0" y="64" width="309" height="296" filterUnits="userSpaceOnUse" color-interpolation-filters="sRGB">
<feFlood flood-opacity="0" result="BackgroundImageFix"/>
<feColorMatrix in="SourceAlpha" type="matrix" values="0 0 0 0 0 0 0 0 0 0 0 0 0 0 0 0 0 0 127 0" result="hardAlpha"/>
<feOffset dy="4"/>
<feGaussianBlur stdDeviation="4"/>
<feComposite in2="hardAlpha" operator="out"/>
<feColorMatrix type="matrix" values="0 0 0 0 0 0 0 0 0 0 0 0 0 0 0 0 0 0 0.1 0"/>
<feBlend mode="normal" in2="BackgroundImageFix" result="effect1_dropShadow_8024_375869"/>
<feBlend mode="normal" in="SourceGraphic" in2="effect1_dropShadow_8024_375869" result="shape"/>
</filter>
<clipPath id="clip0_8024_375869">
<rect width="16" height="16" fill="white" transform="translate(28 84)"/>
</clipPath>
</defs>
</svg>
