<svg width="309" height="324" viewBox="0 0 309 324" fill="none" xmlns="http://www.w3.org/2000/svg">
<path d="M9.184 12V0.799999H10.528V10.928H15.744V12H9.184ZM20.1503 12.192C19.4889 12.192 18.9396 12.08 18.5023 11.856C18.0649 11.632 17.7396 11.3333 17.5263 10.96C17.3129 10.5867 17.2063 10.1813 17.2063 9.744C17.2063 8.93333 17.5156 8.30933 18.1343 7.872C18.7529 7.43467 19.5956 7.216 20.6623 7.216H22.8063V7.12C22.8063 6.42667 22.6249 5.904 22.2623 5.552C21.8996 5.18933 21.4143 5.008 20.8063 5.008C20.2836 5.008 19.8303 5.14133 19.4463 5.408C19.0729 5.664 18.8383 6.04267 18.7423 6.544H17.3663C17.4196 5.968 17.6116 5.48267 17.9423 5.088C18.2836 4.69333 18.7049 4.39467 19.2063 4.192C19.7076 3.97867 20.2409 3.872 20.8063 3.872C21.9156 3.872 22.7476 4.17067 23.3023 4.768C23.8676 5.35467 24.1503 6.13867 24.1503 7.12V12H22.9503L22.8703 10.576C22.6463 11.024 22.3156 11.408 21.8783 11.728C21.4516 12.0373 20.8756 12.192 20.1503 12.192ZM20.3583 11.056C20.8703 11.056 21.3076 10.9227 21.6703 10.656C22.0436 10.3893 22.3263 10.0427 22.5183 9.616C22.7103 9.18933 22.8063 8.74133 22.8063 8.272V8.256H20.7743C19.9849 8.256 19.4249 8.39467 19.0943 8.672C18.7743 8.93867 18.6143 9.27467 18.6143 9.68C18.6143 10.096 18.7636 10.432 19.0623 10.688C19.3716 10.9333 19.8036 11.056 20.3583 11.056ZM30.4065 12.192C29.7558 12.192 29.1745 12.0587 28.6625 11.792C28.1612 11.5253 27.7772 11.152 27.5105 10.672L27.3825 12H26.1665V0.48H27.5105V5.376C27.7665 4.992 28.1292 4.64533 28.5985 4.336C29.0785 4.02667 29.6865 3.872 30.4225 3.872C31.2118 3.872 31.8998 4.05333 32.4865 4.416C33.0732 4.77867 33.5265 5.27467 33.8465 5.904C34.1772 6.53333 34.3425 7.248 34.3425 8.048C34.3425 8.848 34.1772 9.56267 33.8465 10.192C33.5265 10.8107 33.0678 11.3013 32.4705 11.664C31.8838 12.016 31.1958 12.192 30.4065 12.192ZM30.2625 11.024C30.7958 11.024 31.2652 10.9013 31.6705 10.656C32.0758 10.4 32.3958 10.048 32.6305 9.6C32.8652 9.152 32.9825 8.62933 32.9825 8.032C32.9825 7.43467 32.8652 6.912 32.6305 6.464C32.3958 6.016 32.0758 5.66933 31.6705 5.424C31.2652 5.168 30.7958 5.04 30.2625 5.04C29.7292 5.04 29.2598 5.168 28.8545 5.424C28.4492 5.66933 28.1292 6.016 27.8945 6.464C27.6598 6.912 27.5425 7.43467 27.5425 8.032C27.5425 8.62933 27.6598 9.152 27.8945 9.6C28.1292 10.048 28.4492 10.4 28.8545 10.656C29.2598 10.9013 29.7292 11.024 30.2625 11.024ZM39.7814 12.192C39.024 12.192 38.352 12.0213 37.7654 11.68C37.1787 11.328 36.7147 10.8427 36.3734 10.224C36.0427 9.60533 35.8774 8.87467 35.8774 8.032C35.8774 7.2 36.0427 6.47467 36.3734 5.856C36.704 5.22667 37.1627 4.74133 37.7494 4.4C38.3467 4.048 39.0347 3.872 39.8134 3.872C40.5814 3.872 41.2427 4.048 41.7974 4.4C42.3627 4.74133 42.7947 5.19467 43.0934 5.76C43.392 6.32533 43.5414 6.93333 43.5414 7.584C43.5414 7.70133 43.536 7.81867 43.5254 7.936C43.5254 8.05333 43.5254 8.18667 43.5254 8.336H37.2054C37.2374 8.944 37.376 9.45067 37.6214 9.856C37.8774 10.2507 38.192 10.5493 38.5654 10.752C38.9494 10.9547 39.3547 11.056 39.7814 11.056C40.336 11.056 40.8 10.928 41.1734 10.672C41.5467 10.416 41.8187 10.0693 41.9894 9.632H43.3174C43.104 10.368 42.6934 10.9813 42.0854 11.472C41.488 11.952 40.72 12.192 39.7814 12.192ZM39.7814 5.008C39.1414 5.008 38.5707 5.20533 38.0694 5.6C37.5787 5.984 37.296 6.54933 37.2214 7.296H42.2134C42.1814 6.58133 41.936 6.02133 41.4774 5.616C41.0187 5.21067 40.4534 5.008 39.7814 5.008ZM45.3228 12V0.48H46.6668V12H45.3228ZM55.328 6.24L55.52 3.792L53.536 5.184L52.976 4.208L55.2 3.232L52.992 2.272L53.52 1.328L55.536 2.72L55.312 0.271999H56.4L56.16 2.72L58.16 1.328L58.672 2.256L56.464 3.248L58.688 4.224L58.16 5.168L56.16 3.792L56.384 6.24H55.328Z" fill="#333333"/>
<rect x="8.5" y="20.5" width="292" height="39" rx="3.5" fill="white"/>
<rect x="8.5" y="20.5" width="292" height="39" rx="3.5" stroke="#E2E2E2"/>
<rect x="16" y="28" width="91" height="24" rx="4" fill="#EBEBEB"/>
<rect x="20" y="32" width="16" height="16" rx="8" fill="#EBEBEB"/>
<g clip-path="url(#clip0_8024_375869)">
<path d="M28 40.9333L29.9333 42.8666C30.0556 42.9888 30.2111 43.0499 30.4 43.0499C30.5889 43.0499 30.7445 42.9888 30.8667 42.8666C30.9889 42.7444 31.05 42.5888 31.05 42.3999C31.05 42.211 30.9889 42.0555 30.8667 41.9333L28.9333 39.9999L30.8667 38.0666C30.9889 37.9444 31.05 37.7888 31.05 37.5999C31.05 37.411 30.9889 37.2555 30.8667 37.1333C30.7445 37.011 30.5889 36.9499 30.4 36.9499C30.2111 36.9499 30.0556 37.011 29.9333 37.1333L28 39.0666L26.0667 37.1333C25.9445 37.011 25.7889 36.9499 25.6 36.9499C25.4111 36.9499 25.2556 37.011 25.1333 37.1333C25.0111 37.2555 24.95 37.411 24.95 37.5999C24.95 37.7888 25.0111 37.9444 25.1333 38.0666L27.0667 39.9999L25.1333 41.9333C25.0111 42.0555 24.95 42.211 24.95 42.3999C24.95 42.5888 25.0111 42.7444 25.1333 42.8666C25.2556 42.9888 25.4111 43.0499 25.6 43.0499C25.7889 43.0499 25.9445 42.9888 26.0667 42.8666L28 40.9333ZM28 46.6666C27.0778 46.6666 26.2111 46.4916 25.4 46.1416C24.5889 45.7916 23.8833 45.3166 23.2833 44.7166C22.6833 44.1166 22.2083 43.411 21.8583 42.5999C21.5083 41.7888 21.3333 40.9221 21.3333 39.9999C21.3333 39.0777 21.5083 38.211 21.8583 37.3999C22.2083 36.5888 22.6833 35.8833 23.2833 35.2833C23.8833 34.6833 24.5889 34.2083 25.4 33.8583C26.2111 33.5083 27.0778 33.3333 28 33.3333C28.9222 33.3333 29.7889 33.5083 30.6 33.8583C31.4111 34.2083 32.1167 34.6833 32.7167 35.2833C33.3167 35.8833 33.7917 36.5888 34.1417 37.3999C34.4917 38.211 34.6667 39.0777 34.6667 39.9999C34.6667 40.9221 34.4917 41.7888 34.1417 42.5999C33.7917 43.411 33.3167 44.1166 32.7167 44.7166C32.1167 45.3166 31.4111 45.7916 30.6 46.1416C29.7889 46.4916 28.9222 46.6666 28 46.6666ZM28 45.3333C29.4889 45.3333 30.75 44.8166 31.7833 43.7833C32.8167 42.7499 33.3333 41.4888 33.3333 39.9999C33.3333 38.511 32.8167 37.2499 31.7833 36.2166C30.75 35.1833 29.4889 34.6666 28 34.6666C26.5111 34.6666 25.25 35.1833 24.2167 36.2166C23.1833 37.2499 22.6667 38.511 22.6667 39.9999C22.6667 41.4888 23.1833 42.7499 24.2167 43.7833C25.25 44.8166 26.5111 45.3333 28 45.3333Z" fill="#7A2682"/>
</g>
<path d="M44.572 44.144C43.748 44.144 43.036 43.964 42.436 43.604C41.844 43.236 41.384 42.728 41.056 42.08C40.728 41.424 40.564 40.664 40.564 39.8C40.564 38.944 40.728 38.192 41.056 37.544C41.384 36.888 41.844 36.376 42.436 36.008C43.036 35.64 43.748 35.456 44.572 35.456C45.532 35.456 46.312 35.688 46.912 36.152C47.52 36.608 47.908 37.248 48.076 38.072H46.96C46.832 37.552 46.568 37.136 46.168 36.824C45.776 36.504 45.244 36.344 44.572 36.344C43.972 36.344 43.448 36.484 43 36.764C42.552 37.036 42.204 37.432 41.956 37.952C41.716 38.464 41.596 39.08 41.596 39.8C41.596 40.52 41.716 41.14 41.956 41.66C42.204 42.172 42.552 42.568 43 42.848C43.448 43.12 43.972 43.256 44.572 43.256C45.244 43.256 45.776 43.104 46.168 42.8C46.568 42.488 46.832 42.076 46.96 41.564H48.076C47.908 42.372 47.52 43.004 46.912 43.46C46.312 43.916 45.532 44.144 44.572 44.144ZM52.1767 44.144C51.6167 44.144 51.1127 44.016 50.6647 43.76C50.2167 43.504 49.8607 43.144 49.5967 42.68C49.3407 42.208 49.2127 41.656 49.2127 41.024C49.2127 40.392 49.3447 39.844 49.6087 39.38C49.8727 38.908 50.2287 38.544 50.6767 38.288C51.1327 38.032 51.6407 37.904 52.2007 37.904C52.7607 37.904 53.2647 38.032 53.7127 38.288C54.1607 38.544 54.5127 38.908 54.7687 39.38C55.0327 39.844 55.1647 40.392 55.1647 41.024C55.1647 41.656 55.0327 42.208 54.7687 42.68C54.5047 43.144 54.1447 43.504 53.6887 43.76C53.2407 44.016 52.7367 44.144 52.1767 44.144ZM52.1767 43.28C52.5207 43.28 52.8407 43.196 53.1367 43.028C53.4327 42.86 53.6727 42.608 53.8567 42.272C54.0407 41.936 54.1327 41.52 54.1327 41.024C54.1327 40.528 54.0407 40.112 53.8567 39.776C53.6807 39.44 53.4447 39.188 53.1487 39.02C52.8527 38.852 52.5367 38.768 52.2007 38.768C51.8567 38.768 51.5367 38.852 51.2407 39.02C50.9447 39.188 50.7047 39.44 50.5207 39.776C50.3367 40.112 50.2447 40.528 50.2447 41.024C50.2447 41.52 50.3367 41.936 50.5207 42.272C50.7047 42.608 50.9407 42.86 51.2287 43.028C51.5247 43.196 51.8407 43.28 52.1767 43.28ZM56.5663 44V38.048H57.4783L57.5383 39.116C57.7303 38.74 58.0063 38.444 58.3663 38.228C58.7263 38.012 59.1343 37.904 59.5903 37.904C60.2943 37.904 60.8543 38.12 61.2703 38.552C61.6943 38.976 61.9063 39.632 61.9063 40.52V44H60.8983V40.628C60.8983 39.388 60.3863 38.768 59.3623 38.768C58.8503 38.768 58.4223 38.956 58.0783 39.332C57.7423 39.7 57.5743 40.228 57.5743 40.916V44H56.5663ZM65.7855 44C65.2415 44 64.8135 43.868 64.5015 43.604C64.1895 43.34 64.0335 42.864 64.0335 42.176V38.9H63.0015V38.048H64.0335L64.1655 36.62H65.0415V38.048H66.7935V38.9H65.0415V42.176C65.0415 42.552 65.1175 42.808 65.2695 42.944C65.4215 43.072 65.6895 43.136 66.0735 43.136H66.6975V44H65.7855ZM70.586 44.144C70.018 44.144 69.514 44.016 69.074 43.76C68.634 43.496 68.286 43.132 68.03 42.668C67.782 42.204 67.658 41.656 67.658 41.024C67.658 40.4 67.782 39.856 68.03 39.392C68.278 38.92 68.622 38.556 69.062 38.3C69.51 38.036 70.026 37.904 70.61 37.904C71.186 37.904 71.682 38.036 72.098 38.3C72.522 38.556 72.846 38.896 73.07 39.32C73.294 39.744 73.406 40.2 73.406 40.688C73.406 40.776 73.402 40.864 73.394 40.952C73.394 41.04 73.394 41.14 73.394 41.252H68.654C68.678 41.708 68.782 42.088 68.966 42.392C69.158 42.688 69.394 42.912 69.674 43.064C69.962 43.216 70.266 43.292 70.586 43.292C71.002 43.292 71.35 43.196 71.63 43.004C71.91 42.812 72.114 42.552 72.242 42.224H73.238C73.078 42.776 72.77 43.236 72.314 43.604C71.866 43.964 71.29 44.144 70.586 44.144ZM70.586 38.756C70.106 38.756 69.678 38.904 69.302 39.2C68.934 39.488 68.722 39.912 68.666 40.472H72.41C72.386 39.936 72.202 39.516 71.858 39.212C71.514 38.908 71.09 38.756 70.586 38.756ZM74.7421 44V38.048H75.6541L75.7141 39.116C75.9061 38.74 76.1821 38.444 76.5421 38.228C76.9021 38.012 77.3101 37.904 77.7661 37.904C78.4701 37.904 79.0301 38.12 79.4461 38.552C79.8701 38.976 80.0821 39.632 80.0821 40.52V44H79.0741V40.628C79.0741 39.388 78.5621 38.768 77.5381 38.768C77.0261 38.768 76.5981 38.956 76.2541 39.332C75.9181 39.7 75.7501 40.228 75.7501 40.916V44H74.7421ZM82.2213 36.728C82.0213 36.728 81.8533 36.664 81.7173 36.536C81.5893 36.4 81.5253 36.232 81.5253 36.032C81.5253 35.84 81.5893 35.68 81.7173 35.552C81.8533 35.424 82.0213 35.36 82.2213 35.36C82.4133 35.36 82.5773 35.424 82.7133 35.552C82.8493 35.68 82.9173 35.84 82.9173 36.032C82.9173 36.232 82.8493 36.4 82.7133 36.536C82.5773 36.664 82.4133 36.728 82.2213 36.728ZM81.7173 44V38.048H82.7253V44H81.7173ZM87.1803 44.144C86.5883 44.144 86.0683 44.008 85.6203 43.736C85.1803 43.464 84.8363 43.092 84.5883 42.62C84.3483 42.148 84.2283 41.612 84.2283 41.012C84.2283 40.412 84.3523 39.88 84.6003 39.416C84.8483 38.944 85.1923 38.576 85.6323 38.312C86.0723 38.04 86.5923 37.904 87.1923 37.904C87.6803 37.904 88.1123 38.004 88.4883 38.204C88.8643 38.404 89.1563 38.684 89.3643 39.044V35.36H90.3723V44H89.4603L89.3643 43.016C89.1723 43.304 88.8963 43.564 88.5363 43.796C88.1763 44.028 87.7243 44.144 87.1803 44.144ZM87.2883 43.268C87.6883 43.268 88.0403 43.176 88.3443 42.992C88.6563 42.8 88.8963 42.536 89.0643 42.2C89.2403 41.864 89.3283 41.472 89.3283 41.024C89.3283 40.576 89.2403 40.184 89.0643 39.848C88.8963 39.512 88.6563 39.252 88.3443 39.068C88.0403 38.876 87.6883 38.78 87.2883 38.78C86.8963 38.78 86.5443 38.876 86.2323 39.068C85.9283 39.252 85.6883 39.512 85.5123 39.848C85.3443 40.184 85.2603 40.576 85.2603 41.024C85.2603 41.472 85.3443 41.864 85.5123 42.2C85.6883 42.536 85.9283 42.8 86.2323 42.992C86.5443 43.176 86.8963 43.268 87.2883 43.268ZM94.7275 44.144C94.1675 44.144 93.6635 44.016 93.2155 43.76C92.7675 43.504 92.4115 43.144 92.1475 42.68C91.8915 42.208 91.7635 41.656 91.7635 41.024C91.7635 40.392 91.8955 39.844 92.1595 39.38C92.4235 38.908 92.7795 38.544 93.2275 38.288C93.6835 38.032 94.1915 37.904 94.7515 37.904C95.3115 37.904 95.8155 38.032 96.2635 38.288C96.7115 38.544 97.0635 38.908 97.3195 39.38C97.5835 39.844 97.7155 40.392 97.7155 41.024C97.7155 41.656 97.5835 42.208 97.3195 42.68C97.0555 43.144 96.6955 43.504 96.2395 43.76C95.7915 44.016 95.2875 44.144 94.7275 44.144ZM94.7275 43.28C95.0715 43.28 95.3915 43.196 95.6875 43.028C95.9835 42.86 96.2235 42.608 96.4075 42.272C96.5915 41.936 96.6835 41.52 96.6835 41.024C96.6835 40.528 96.5915 40.112 96.4075 39.776C96.2315 39.44 95.9955 39.188 95.6995 39.02C95.4035 38.852 95.0875 38.768 94.7515 38.768C94.4075 38.768 94.0875 38.852 93.7915 39.02C93.4955 39.188 93.2555 39.44 93.0715 39.776C92.8875 40.112 92.7955 40.528 92.7955 41.024C92.7955 41.52 92.8875 41.936 93.0715 42.272C93.2555 42.608 93.4915 42.86 93.7795 43.028C94.0755 43.196 94.3915 43.28 94.7275 43.28Z" fill="#7A2682"/>
<rect x="111" y="28" width="91" height="24" rx="4" fill="#EBEBEB"/>
<rect x="115" y="32" width="16" height="16" rx="8" fill="#EBEBEB"/>
<g clip-path="url(#clip1_8024_375869)">
<path d="M123 40.9333L124.933 42.8666C125.056 42.9888 125.211 43.0499 125.4 43.0499C125.589 43.0499 125.744 42.9888 125.867 42.8666C125.989 42.7444 126.05 42.5888 126.05 42.3999C126.05 42.211 125.989 42.0555 125.867 41.9333L123.933 39.9999L125.867 38.0666C125.989 37.9444 126.05 37.7888 126.05 37.5999C126.05 37.411 125.989 37.2555 125.867 37.1333C125.744 37.011 125.589 36.9499 125.4 36.9499C125.211 36.9499 125.056 37.011 124.933 37.1333L123 39.0666L121.067 37.1333C120.944 37.011 120.789 36.9499 120.6 36.9499C120.411 36.9499 120.256 37.011 120.133 37.1333C120.011 37.2555 119.95 37.411 119.95 37.5999C119.95 37.7888 120.011 37.9444 120.133 38.0666L122.067 39.9999L120.133 41.9333C120.011 42.0555 119.95 42.211 119.95 42.3999C119.95 42.5888 120.011 42.7444 120.133 42.8666C120.256 42.9888 120.411 43.0499 120.6 43.0499C120.789 43.0499 120.944 42.9888 121.067 42.8666L123 40.9333ZM123 46.6666C122.078 46.6666 121.211 46.4916 120.4 46.1416C119.589 45.7916 118.883 45.3166 118.283 44.7166C117.683 44.1166 117.208 43.411 116.858 42.5999C116.508 41.7888 116.333 40.9221 116.333 39.9999C116.333 39.0777 116.508 38.211 116.858 37.3999C117.208 36.5888 117.683 35.8833 118.283 35.2833C118.883 34.6833 119.589 34.2083 120.4 33.8583C121.211 33.5083 122.078 33.3333 123 33.3333C123.922 33.3333 124.789 33.5083 125.6 33.8583C126.411 34.2083 127.117 34.6833 127.717 35.2833C128.317 35.8833 128.792 36.5888 129.142 37.3999C129.492 38.211 129.667 39.0777 129.667 39.9999C129.667 40.9221 129.492 41.7888 129.142 42.5999C128.792 43.411 128.317 44.1166 127.717 44.7166C127.117 45.3166 126.411 45.7916 125.6 46.1416C124.789 46.4916 123.922 46.6666 123 46.6666ZM123 45.3333C124.489 45.3333 125.75 44.8166 126.783 43.7833C127.817 42.7499 128.333 41.4888 128.333 39.9999C128.333 38.511 127.817 37.2499 126.783 36.2166C125.75 35.1833 124.489 34.6666 123 34.6666C121.511 34.6666 120.25 35.1833 119.217 36.2166C118.183 37.2499 117.667 38.511 117.667 39.9999C117.667 41.4888 118.183 42.7499 119.217 43.7833C120.25 44.8166 121.511 45.3333 123 45.3333Z" fill="#7A2682"/>
</g>
<path d="M139.572 44.144C138.748 44.144 138.036 43.964 137.436 43.604C136.844 43.236 136.384 42.728 136.056 42.08C135.728 41.424 135.564 40.664 135.564 39.8C135.564 38.944 135.728 38.192 136.056 37.544C136.384 36.888 136.844 36.376 137.436 36.008C138.036 35.64 138.748 35.456 139.572 35.456C140.532 35.456 141.312 35.688 141.912 36.152C142.52 36.608 142.908 37.248 143.076 38.072H141.96C141.832 37.552 141.568 37.136 141.168 36.824C140.776 36.504 140.244 36.344 139.572 36.344C138.972 36.344 138.448 36.484 138 36.764C137.552 37.036 137.204 37.432 136.956 37.952C136.716 38.464 136.596 39.08 136.596 39.8C136.596 40.52 136.716 41.14 136.956 41.66C137.204 42.172 137.552 42.568 138 42.848C138.448 43.12 138.972 43.256 139.572 43.256C140.244 43.256 140.776 43.104 141.168 42.8C141.568 42.488 141.832 42.076 141.96 41.564H143.076C142.908 42.372 142.52 43.004 141.912 43.46C141.312 43.916 140.532 44.144 139.572 44.144ZM147.177 44.144C146.617 44.144 146.113 44.016 145.665 43.76C145.217 43.504 144.861 43.144 144.597 42.68C144.341 42.208 144.213 41.656 144.213 41.024C144.213 40.392 144.345 39.844 144.609 39.38C144.873 38.908 145.229 38.544 145.677 38.288C146.133 38.032 146.641 37.904 147.201 37.904C147.761 37.904 148.265 38.032 148.713 38.288C149.161 38.544 149.513 38.908 149.769 39.38C150.033 39.844 150.165 40.392 150.165 41.024C150.165 41.656 150.033 42.208 149.769 42.68C149.505 43.144 149.145 43.504 148.689 43.76C148.241 44.016 147.737 44.144 147.177 44.144ZM147.177 43.28C147.521 43.28 147.841 43.196 148.137 43.028C148.433 42.86 148.673 42.608 148.857 42.272C149.041 41.936 149.133 41.52 149.133 41.024C149.133 40.528 149.041 40.112 148.857 39.776C148.681 39.44 148.445 39.188 148.149 39.02C147.853 38.852 147.537 38.768 147.201 38.768C146.857 38.768 146.537 38.852 146.241 39.02C145.945 39.188 145.705 39.44 145.521 39.776C145.337 40.112 145.245 40.528 145.245 41.024C145.245 41.52 145.337 41.936 145.521 42.272C145.705 42.608 145.941 42.86 146.229 43.028C146.525 43.196 146.841 43.28 147.177 43.28ZM151.566 44V38.048H152.478L152.538 39.116C152.73 38.74 153.006 38.444 153.366 38.228C153.726 38.012 154.134 37.904 154.59 37.904C155.294 37.904 155.854 38.12 156.27 38.552C156.694 38.976 156.906 39.632 156.906 40.52V44H155.898V40.628C155.898 39.388 155.386 38.768 154.362 38.768C153.85 38.768 153.422 38.956 153.078 39.332C152.742 39.7 152.574 40.228 152.574 40.916V44H151.566ZM160.785 44C160.241 44 159.813 43.868 159.501 43.604C159.189 43.34 159.033 42.864 159.033 42.176V38.9H158.001V38.048H159.033L159.165 36.62H160.041V38.048H161.793V38.9H160.041V42.176C160.041 42.552 160.117 42.808 160.269 42.944C160.421 43.072 160.689 43.136 161.073 43.136H161.697V44H160.785ZM165.586 44.144C165.018 44.144 164.514 44.016 164.074 43.76C163.634 43.496 163.286 43.132 163.03 42.668C162.782 42.204 162.658 41.656 162.658 41.024C162.658 40.4 162.782 39.856 163.03 39.392C163.278 38.92 163.622 38.556 164.062 38.3C164.51 38.036 165.026 37.904 165.61 37.904C166.186 37.904 166.682 38.036 167.098 38.3C167.522 38.556 167.846 38.896 168.07 39.32C168.294 39.744 168.406 40.2 168.406 40.688C168.406 40.776 168.402 40.864 168.394 40.952C168.394 41.04 168.394 41.14 168.394 41.252H163.654C163.678 41.708 163.782 42.088 163.966 42.392C164.158 42.688 164.394 42.912 164.674 43.064C164.962 43.216 165.266 43.292 165.586 43.292C166.002 43.292 166.35 43.196 166.63 43.004C166.91 42.812 167.114 42.552 167.242 42.224H168.238C168.078 42.776 167.77 43.236 167.314 43.604C166.866 43.964 166.29 44.144 165.586 44.144ZM165.586 38.756C165.106 38.756 164.678 38.904 164.302 39.2C163.934 39.488 163.722 39.912 163.666 40.472H167.41C167.386 39.936 167.202 39.516 166.858 39.212C166.514 38.908 166.09 38.756 165.586 38.756ZM169.742 44V38.048H170.654L170.714 39.116C170.906 38.74 171.182 38.444 171.542 38.228C171.902 38.012 172.31 37.904 172.766 37.904C173.47 37.904 174.03 38.12 174.446 38.552C174.87 38.976 175.082 39.632 175.082 40.52V44H174.074V40.628C174.074 39.388 173.562 38.768 172.538 38.768C172.026 38.768 171.598 38.956 171.254 39.332C170.918 39.7 170.75 40.228 170.75 40.916V44H169.742ZM177.221 36.728C177.021 36.728 176.853 36.664 176.717 36.536C176.589 36.4 176.525 36.232 176.525 36.032C176.525 35.84 176.589 35.68 176.717 35.552C176.853 35.424 177.021 35.36 177.221 35.36C177.413 35.36 177.577 35.424 177.713 35.552C177.849 35.68 177.917 35.84 177.917 36.032C177.917 36.232 177.849 36.4 177.713 36.536C177.577 36.664 177.413 36.728 177.221 36.728ZM176.717 44V38.048H177.725V44H176.717ZM182.18 44.144C181.588 44.144 181.068 44.008 180.62 43.736C180.18 43.464 179.836 43.092 179.588 42.62C179.348 42.148 179.228 41.612 179.228 41.012C179.228 40.412 179.352 39.88 179.6 39.416C179.848 38.944 180.192 38.576 180.632 38.312C181.072 38.04 181.592 37.904 182.192 37.904C182.68 37.904 183.112 38.004 183.488 38.204C183.864 38.404 184.156 38.684 184.364 39.044V35.36H185.372V44H184.46L184.364 43.016C184.172 43.304 183.896 43.564 183.536 43.796C183.176 44.028 182.724 44.144 182.18 44.144ZM182.288 43.268C182.688 43.268 183.04 43.176 183.344 42.992C183.656 42.8 183.896 42.536 184.064 42.2C184.24 41.864 184.328 41.472 184.328 41.024C184.328 40.576 184.24 40.184 184.064 39.848C183.896 39.512 183.656 39.252 183.344 39.068C183.04 38.876 182.688 38.78 182.288 38.78C181.896 38.78 181.544 38.876 181.232 39.068C180.928 39.252 180.688 39.512 180.512 39.848C180.344 40.184 180.26 40.576 180.26 41.024C180.26 41.472 180.344 41.864 180.512 42.2C180.688 42.536 180.928 42.8 181.232 42.992C181.544 43.176 181.896 43.268 182.288 43.268ZM189.728 44.144C189.168 44.144 188.664 44.016 188.216 43.76C187.768 43.504 187.412 43.144 187.148 42.68C186.892 42.208 186.764 41.656 186.764 41.024C186.764 40.392 186.896 39.844 187.16 39.38C187.424 38.908 187.78 38.544 188.228 38.288C188.684 38.032 189.192 37.904 189.752 37.904C190.312 37.904 190.816 38.032 191.264 38.288C191.712 38.544 192.064 38.908 192.32 39.38C192.584 39.844 192.716 40.392 192.716 41.024C192.716 41.656 192.584 42.208 192.32 42.68C192.056 43.144 191.696 43.504 191.24 43.76C190.792 44.016 190.288 44.144 189.728 44.144ZM189.728 43.28C190.072 43.28 190.392 43.196 190.688 43.028C190.984 42.86 191.224 42.608 191.408 42.272C191.592 41.936 191.684 41.52 191.684 41.024C191.684 40.528 191.592 40.112 191.408 39.776C191.232 39.44 190.996 39.188 190.7 39.02C190.404 38.852 190.088 38.768 189.752 38.768C189.408 38.768 189.088 38.852 188.792 39.02C188.496 39.188 188.256 39.44 188.072 39.776C187.888 40.112 187.796 40.528 187.796 41.024C187.796 41.52 187.888 41.936 188.072 42.272C188.256 42.608 188.492 42.86 188.78 43.028C189.076 43.196 189.392 43.28 189.728 43.28Z" fill="#7A2682"/>
<path d="M207.008 41.42V40.284H210.064V37.372H211.264V40.284H214.32V41.42H211.264V44.348H210.064V41.42H207.008ZM220.32 45.692C219.552 45.692 218.885 45.5533 218.32 45.276C217.755 44.9987 217.301 44.62 216.96 44.14C216.629 43.6493 216.427 43.0947 216.352 42.476H217.664C217.792 43.0947 218.091 43.596 218.56 43.98C219.029 44.3533 219.621 44.54 220.336 44.54C220.869 44.54 221.328 44.4173 221.712 44.172C222.096 43.916 222.389 43.5747 222.592 43.148C222.805 42.7213 222.912 42.2467 222.912 41.724C222.912 40.892 222.677 40.22 222.208 39.708C221.739 39.196 221.131 38.94 220.384 38.94C219.765 38.94 219.237 39.0787 218.8 39.356C218.363 39.6333 218.043 39.996 217.84 40.444H216.56L217.52 34.3H223.392V35.468H218.56L217.904 38.876C218.16 38.5667 218.512 38.3107 218.96 38.108C219.419 37.9053 219.941 37.804 220.528 37.804C221.264 37.804 221.904 37.9747 222.448 38.316C223.003 38.6573 223.435 39.1213 223.744 39.708C224.053 40.2947 224.208 40.9613 224.208 41.708C224.208 42.4227 224.053 43.084 223.744 43.692C223.445 44.3 223.003 44.7853 222.416 45.148C221.84 45.5107 221.141 45.692 220.32 45.692Z" fill="#7A2682"/>
<g filter="url(#filter0_d_8024_375869)">
<rect width="293" height="244" transform="translate(8 68)" fill="#FAFAFA"/>
<rect x="12.5" y="72.5" width="284" height="39" rx="3.5" fill="white"/>
<rect x="12.5" y="72.5" width="284" height="39" rx="3.5" stroke="#E2E2E2"/>
<g clip-path="url(#clip2_8024_375869)">
<path d="M34.3333 94.6652C33.1222 94.6652 32.0972 94.2458 31.2583 93.4069C30.4194 92.568 30 91.543 30 90.3319C30 89.1208 30.4194 88.0958 31.2583 87.2569C32.0972 86.418 33.1222 85.9985 34.3333 85.9985C35.5444 85.9985 36.5694 86.418 37.4083 87.2569C38.2472 88.0958 38.6667 89.1208 38.6667 90.3319C38.6667 90.8208 38.5889 91.2819 38.4333 91.7152C38.2778 92.1485 38.0667 92.5319 37.8 92.8652L41.5333 96.5985C41.6556 96.7208 41.7167 96.8763 41.7167 97.0652C41.7167 97.2541 41.6556 97.4096 41.5333 97.5319C41.4111 97.6541 41.2556 97.7152 41.0667 97.7152C40.8778 97.7152 40.7222 97.6541 40.6 97.5319L36.8667 93.7985C36.5333 94.0652 36.15 94.2763 35.7167 94.4319C35.2833 94.5874 34.8222 94.6652 34.3333 94.6652ZM34.3333 93.3319C35.1667 93.3319 35.875 93.0402 36.4583 92.4569C37.0417 91.8735 37.3333 91.1652 37.3333 90.3319C37.3333 89.4985 37.0417 88.7902 36.4583 88.2069C35.875 87.6235 35.1667 87.3319 34.3333 87.3319C33.5 87.3319 32.7917 87.6235 32.2083 88.2069C31.625 88.7902 31.3333 89.4985 31.3333 90.3319C31.3333 91.1652 31.625 91.8735 32.2083 92.4569C32.7917 93.0402 33.5 93.3319 34.3333 93.3319Z" fill="#333333"/>
</g>
<path d="M52.994 97V87.2H56.424C57.1893 87.2 57.824 87.3307 58.328 87.592C58.832 87.844 59.2053 88.194 59.448 88.642C59.7 89.0807 59.826 89.58 59.826 90.14C59.826 90.672 59.7047 91.162 59.462 91.61C59.2287 92.0487 58.86 92.3987 58.356 92.66C57.852 92.9213 57.208 93.052 56.424 93.052H54.478V97H52.994ZM54.478 91.834H56.354C57.054 91.834 57.5533 91.6847 57.852 91.386C58.16 91.078 58.314 90.6627 58.314 90.14C58.314 89.5987 58.16 89.1787 57.852 88.88C57.5533 88.572 57.054 88.418 56.354 88.418H54.478V91.834ZM61.2368 97V86.92H62.7208V97H61.2368ZM66.9521 97.168C66.3641 97.168 65.8788 97.07 65.4961 96.874C65.1134 96.678 64.8288 96.4213 64.6421 96.104C64.4554 95.7773 64.3621 95.4227 64.3621 95.04C64.3621 94.368 64.6234 93.836 65.1461 93.444C65.6688 93.052 66.4154 92.856 67.3861 92.856H69.2061V92.73C69.2061 92.1887 69.0568 91.7827 68.7581 91.512C68.4688 91.2413 68.0908 91.106 67.6241 91.106C67.2134 91.106 66.8541 91.2087 66.5461 91.414C66.2474 91.61 66.0654 91.904 66.0001 92.296H64.5161C64.5628 91.792 64.7308 91.3627 65.0201 91.008C65.3188 90.644 65.6921 90.3687 66.1401 90.182C66.5974 89.986 67.0968 89.888 67.6381 89.888C68.6088 89.888 69.3601 90.1447 69.8921 90.658C70.4241 91.162 70.6901 91.8527 70.6901 92.73V97H69.4021L69.2761 95.81C69.0801 96.1927 68.7954 96.5147 68.4221 96.776C68.0488 97.0373 67.5588 97.168 66.9521 97.168ZM67.2461 95.964C67.6474 95.964 67.9834 95.8707 68.2541 95.684C68.5341 95.488 68.7488 95.2313 68.8981 94.914C69.0568 94.5967 69.1548 94.2467 69.1921 93.864H67.5401C66.9521 93.864 66.5321 93.9667 66.2801 94.172C66.0374 94.3773 65.9161 94.634 65.9161 94.942C65.9161 95.2593 66.0328 95.5113 66.2661 95.698C66.5088 95.8753 66.8354 95.964 67.2461 95.964ZM75.7104 97.168C75.0291 97.168 74.4178 97.014 73.8764 96.706C73.3444 96.398 72.9244 95.9733 72.6164 95.432C72.3178 94.8813 72.1684 94.2467 72.1684 93.528C72.1684 92.8093 72.3178 92.1793 72.6164 91.638C72.9244 91.0873 73.3444 90.658 73.8764 90.35C74.4178 90.042 75.0291 89.888 75.7104 89.888C76.5691 89.888 77.2878 90.112 77.8664 90.56C78.4544 91.008 78.8324 91.6147 79.0004 92.38H77.4464C77.3531 91.9973 77.1478 91.6987 76.8304 91.484C76.5131 91.2693 76.1398 91.162 75.7104 91.162C75.3464 91.162 75.0104 91.2553 74.7024 91.442C74.3944 91.6193 74.1471 91.8853 73.9604 92.24C73.7738 92.5853 73.6804 93.0147 73.6804 93.528C73.6804 94.0413 73.7738 94.4753 73.9604 94.83C74.1471 95.1753 74.3944 95.4413 74.7024 95.628C75.0104 95.8147 75.3464 95.908 75.7104 95.908C76.1398 95.908 76.5131 95.8007 76.8304 95.586C77.1478 95.3713 77.3531 95.068 77.4464 94.676H79.0004C78.8418 95.4227 78.4684 96.0247 77.8804 96.482C77.2924 96.9393 76.5691 97.168 75.7104 97.168ZM83.8579 97.168C83.1765 97.168 82.5699 97.0187 82.0379 96.72C81.5152 96.412 81.1045 95.9873 80.8059 95.446C80.5072 94.9047 80.3579 94.2747 80.3579 93.556C80.3579 92.828 80.5025 92.1887 80.7919 91.638C81.0905 91.0873 81.5012 90.658 82.0239 90.35C82.5559 90.042 83.1719 89.888 83.8719 89.888C84.5532 89.888 85.1459 90.042 85.6499 90.35C86.1539 90.6487 86.5459 91.05 86.8259 91.554C87.1059 92.058 87.2459 92.6133 87.2459 93.22C87.2459 93.3133 87.2412 93.416 87.2319 93.528C87.2319 93.6307 87.2272 93.7473 87.2179 93.878H81.8139C81.8605 94.55 82.0799 95.0633 82.4719 95.418C82.8732 95.7633 83.3352 95.936 83.8579 95.936C84.2779 95.936 84.6279 95.8427 84.9079 95.656C85.1972 95.46 85.4119 95.1987 85.5519 94.872H87.0359C86.8492 95.5253 86.4759 96.0713 85.9159 96.51C85.3652 96.9487 84.6792 97.168 83.8579 97.168ZM83.8579 91.106C83.3632 91.106 82.9245 91.2553 82.5419 91.554C82.1592 91.8433 81.9259 92.282 81.8419 92.87H85.7619C85.7339 92.3287 85.5425 91.8993 85.1879 91.582C84.8332 91.2647 84.3899 91.106 83.8579 91.106ZM88.7857 97V86.92H90.2697V91.176C90.503 90.7747 90.825 90.462 91.2357 90.238C91.6557 90.0047 92.1177 89.888 92.6217 89.888C93.4523 89.888 94.1057 90.1493 94.5817 90.672C95.0577 91.1947 95.2957 91.974 95.2957 93.01V97H93.8257V93.164C93.8257 91.82 93.289 91.148 92.2157 91.148C91.6557 91.148 91.189 91.344 90.8157 91.736C90.4517 92.128 90.2697 92.688 90.2697 93.416V97H88.7857ZM100.291 97.168C99.6288 97.168 99.0315 97.0187 98.4995 96.72C97.9768 96.412 97.5615 95.9873 97.2535 95.446C96.9455 94.8953 96.7915 94.256 96.7915 93.528C96.7915 92.8 96.9455 92.1653 97.2535 91.624C97.5708 91.0733 97.9955 90.6487 98.5275 90.35C99.0595 90.042 99.6521 89.888 100.305 89.888C100.968 89.888 101.561 90.042 102.083 90.35C102.615 90.6487 103.035 91.0733 103.343 91.624C103.661 92.1653 103.819 92.8 103.819 93.528C103.819 94.256 103.661 94.8953 103.343 95.446C103.035 95.9873 102.615 96.412 102.083 96.72C101.551 97.0187 100.954 97.168 100.291 97.168ZM100.291 95.894C100.646 95.894 100.973 95.8053 101.271 95.628C101.579 95.4507 101.827 95.1893 102.013 94.844C102.2 94.4893 102.293 94.0507 102.293 93.528C102.293 93.0053 102.2 92.5713 102.013 92.226C101.836 91.8713 101.593 91.6053 101.285 91.428C100.987 91.2507 100.66 91.162 100.305 91.162C99.9508 91.162 99.6195 91.2507 99.3115 91.428C99.0128 91.6053 98.7701 91.8713 98.5835 92.226C98.3968 92.5713 98.3035 93.0053 98.3035 93.528C98.3035 94.0507 98.3968 94.4893 98.5835 94.844C98.7701 95.1893 99.0128 95.4507 99.3115 95.628C99.6101 95.8053 99.9368 95.894 100.291 95.894ZM105.424 97V86.92H106.908V97H105.424ZM111.952 97.168C111.28 97.168 110.687 97.0093 110.174 96.692C109.66 96.3747 109.259 95.9407 108.97 95.39C108.68 94.8393 108.536 94.214 108.536 93.514C108.536 92.814 108.68 92.1933 108.97 91.652C109.259 91.1013 109.66 90.672 110.174 90.364C110.696 90.0467 111.294 89.888 111.966 89.888C112.516 89.888 112.997 89.9953 113.408 90.21C113.828 90.4247 114.154 90.728 114.388 91.12V86.92H115.872V97H114.542L114.388 95.922C114.164 96.2487 113.856 96.538 113.464 96.79C113.072 97.042 112.568 97.168 111.952 97.168ZM112.218 95.88C112.852 95.88 113.37 95.6607 113.772 95.222C114.182 94.7833 114.388 94.2187 114.388 93.528C114.388 92.828 114.182 92.2633 113.772 91.834C113.37 91.3953 112.852 91.176 112.218 91.176C111.583 91.176 111.06 91.3953 110.65 91.834C110.239 92.2633 110.034 92.828 110.034 93.528C110.034 93.9853 110.127 94.3913 110.314 94.746C110.5 95.1007 110.757 95.3807 111.084 95.586C111.42 95.782 111.798 95.88 112.218 95.88ZM120.991 97.168C120.309 97.168 119.703 97.0187 119.171 96.72C118.648 96.412 118.237 95.9873 117.939 95.446C117.64 94.9047 117.491 94.2747 117.491 93.556C117.491 92.828 117.635 92.1887 117.925 91.638C118.223 91.0873 118.634 90.658 119.157 90.35C119.689 90.042 120.305 89.888 121.005 89.888C121.686 89.888 122.279 90.042 122.783 90.35C123.287 90.6487 123.679 91.05 123.959 91.554C124.239 92.058 124.379 92.6133 124.379 93.22C124.379 93.3133 124.374 93.416 124.365 93.528C124.365 93.6307 124.36 93.7473 124.351 93.878H118.947C118.993 94.55 119.213 95.0633 119.605 95.418C120.006 95.7633 120.468 95.936 120.991 95.936C121.411 95.936 121.761 95.8427 122.041 95.656C122.33 95.46 122.545 95.1987 122.685 94.872H124.169C123.982 95.5253 123.609 96.0713 123.049 96.51C122.498 96.9487 121.812 97.168 120.991 97.168ZM120.991 91.106C120.496 91.106 120.057 91.2553 119.675 91.554C119.292 91.8433 119.059 92.282 118.975 92.87H122.895C122.867 92.3287 122.675 91.8993 122.321 91.582C121.966 91.2647 121.523 91.106 120.991 91.106ZM125.918 97V90.056H127.248L127.374 91.372C127.617 90.9147 127.953 90.5553 128.382 90.294C128.821 90.0233 129.348 89.888 129.964 89.888V91.442H129.558C129.148 91.442 128.779 91.512 128.452 91.652C128.135 91.7827 127.878 92.0113 127.682 92.338C127.496 92.6553 127.402 93.0987 127.402 93.668V97H125.918ZM131.264 97.084C130.984 97.084 130.751 96.9953 130.564 96.818C130.387 96.6313 130.298 96.412 130.298 96.16C130.298 95.8987 130.387 95.6793 130.564 95.502C130.751 95.3153 130.984 95.222 131.264 95.222C131.544 95.222 131.773 95.3153 131.95 95.502C132.128 95.6793 132.216 95.8987 132.216 96.16C132.216 96.412 132.128 96.6313 131.95 96.818C131.773 96.9953 131.544 97.084 131.264 97.084ZM134.299 97.084C134.019 97.084 133.786 96.9953 133.599 96.818C133.422 96.6313 133.333 96.412 133.333 96.16C133.333 95.8987 133.422 95.6793 133.599 95.502C133.786 95.3153 134.019 95.222 134.299 95.222C134.579 95.222 134.808 95.3153 134.985 95.502C135.163 95.6793 135.251 95.8987 135.251 96.16C135.251 96.412 135.163 96.6313 134.985 96.818C134.808 96.9953 134.579 97.084 134.299 97.084ZM137.335 97.084C137.055 97.084 136.821 96.9953 136.635 96.818C136.457 96.6313 136.369 96.412 136.369 96.16C136.369 95.8987 136.457 95.6793 136.635 95.502C136.821 95.3153 137.055 95.222 137.335 95.222C137.615 95.222 137.843 95.3153 138.021 95.502C138.198 95.6793 138.287 95.8987 138.287 96.16C138.287 96.412 138.198 96.6313 138.021 96.818C137.843 96.9953 137.615 97.084 137.335 97.084Z" fill="#616161"/>
<path d="M14 120.5H26C26.8284 120.5 27.5 121.172 27.5 122V134C27.5 134.828 26.8284 135.5 26 135.5H14C13.1716 135.5 12.5 134.828 12.5 134V122C12.5 121.172 13.1716 120.5 14 120.5Z" fill="white" stroke="#A89AAA"/>
<path d="M36.994 133V123.2H38.478V131.824H42.93V133H36.994ZM46.8232 133.168C46.2352 133.168 45.7499 133.07 45.3672 132.874C44.9845 132.678 44.6999 132.421 44.5132 132.104C44.3265 131.777 44.2332 131.423 44.2332 131.04C44.2332 130.368 44.4945 129.836 45.0172 129.444C45.5399 129.052 46.2865 128.856 47.2572 128.856H49.0772V128.73C49.0772 128.189 48.9279 127.783 48.6292 127.512C48.3399 127.241 47.9619 127.106 47.4952 127.106C47.0845 127.106 46.7252 127.209 46.4172 127.414C46.1185 127.61 45.9365 127.904 45.8712 128.296H44.3872C44.4339 127.792 44.6019 127.363 44.8912 127.008C45.1899 126.644 45.5632 126.369 46.0112 126.182C46.4685 125.986 46.9679 125.888 47.5092 125.888C48.4799 125.888 49.2312 126.145 49.7632 126.658C50.2952 127.162 50.5612 127.853 50.5612 128.73V133H49.2732L49.1472 131.81C48.9512 132.193 48.6665 132.515 48.2932 132.776C47.9199 133.037 47.4299 133.168 46.8232 133.168ZM47.1172 131.964C47.5185 131.964 47.8545 131.871 48.1252 131.684C48.4052 131.488 48.6199 131.231 48.7692 130.914C48.9279 130.597 49.0259 130.247 49.0632 129.864H47.4112C46.8232 129.864 46.4032 129.967 46.1512 130.172C45.9085 130.377 45.7872 130.634 45.7872 130.942C45.7872 131.259 45.9039 131.511 46.1372 131.698C46.3799 131.875 46.7065 131.964 47.1172 131.964ZM56.1975 133.168C55.6562 133.168 55.1755 133.061 54.7555 132.846C54.3448 132.631 54.0182 132.328 53.7755 131.936L53.6215 133H52.2915V122.92H53.7755V127.134C53.9995 126.807 54.3075 126.518 54.6995 126.266C55.0915 126.014 55.5955 125.888 56.2115 125.888C56.8835 125.888 57.4762 126.047 57.9895 126.364C58.5028 126.681 58.9042 127.115 59.1935 127.666C59.4922 128.217 59.6415 128.842 59.6415 129.542C59.6415 130.242 59.4922 130.867 59.1935 131.418C58.9042 131.959 58.5028 132.389 57.9895 132.706C57.4762 133.014 56.8788 133.168 56.1975 133.168ZM55.9455 131.88C56.5802 131.88 57.1028 131.665 57.5135 131.236C57.9242 130.797 58.1295 130.228 58.1295 129.528C58.1295 129.071 58.0362 128.665 57.8495 128.31C57.6628 127.955 57.4062 127.68 57.0795 127.484C56.7528 127.279 56.3748 127.176 55.9455 127.176C55.3108 127.176 54.7882 127.395 54.3775 127.834C53.9762 128.273 53.7755 128.837 53.7755 129.528C53.7755 130.228 53.9762 130.797 54.3775 131.236C54.7882 131.665 55.3108 131.88 55.9455 131.88ZM64.4946 133.168C63.8133 133.168 63.2066 133.019 62.6746 132.72C62.1519 132.412 61.7413 131.987 61.4426 131.446C61.1439 130.905 60.9946 130.275 60.9946 129.556C60.9946 128.828 61.1393 128.189 61.4286 127.638C61.7273 127.087 62.1379 126.658 62.6606 126.35C63.1926 126.042 63.8086 125.888 64.5086 125.888C65.1899 125.888 65.7826 126.042 66.2866 126.35C66.7906 126.649 67.1826 127.05 67.4626 127.554C67.7426 128.058 67.8826 128.613 67.8826 129.22C67.8826 129.313 67.8779 129.416 67.8686 129.528C67.8686 129.631 67.8639 129.747 67.8546 129.878H62.4506C62.4973 130.55 62.7166 131.063 63.1086 131.418C63.5099 131.763 63.9719 131.936 64.4946 131.936C64.9146 131.936 65.2646 131.843 65.5446 131.656C65.8339 131.46 66.0486 131.199 66.1886 130.872H67.6726C67.4859 131.525 67.1126 132.071 66.5526 132.51C66.0019 132.949 65.3159 133.168 64.4946 133.168ZM64.4946 127.106C63.9999 127.106 63.5613 127.255 63.1786 127.554C62.7959 127.843 62.5626 128.282 62.4786 128.87H66.3986C66.3706 128.329 66.1793 127.899 65.8246 127.582C65.4699 127.265 65.0266 127.106 64.4946 127.106ZM69.4224 133V122.92H70.9064V133H69.4224Z" fill="#333333"/>
<path d="M14 148.5H26C26.8284 148.5 27.5 149.172 27.5 150V162C27.5 162.828 26.8284 163.5 26 163.5H14C13.1716 163.5 12.5 162.828 12.5 162V150C12.5 149.172 13.1716 148.5 14 148.5Z" fill="white" stroke="#A89AAA"/>
<path d="M12 150C12 148.895 12.8954 148 14 148H26C27.1046 148 28 148.895 28 150V162C28 163.105 27.1046 164 26 164H14C12.8954 164 12 163.105 12 162V150Z" fill="#7A2682"/>
<path d="M25 153.144L19.9321 158.535L19.9313 158.531C19.6516 158.832 19.2728 159 18.878 159C18.4831 159 18.1044 158.832 17.8246 158.531L15 155.558L16.0448 154.409L18.8761 157.385L23.9552 152L25 153.144Z" fill="white"/>
<path d="M36.994 161V151.2H38.478V159.824H42.93V161H36.994ZM46.8232 161.168C46.2352 161.168 45.7499 161.07 45.3672 160.874C44.9845 160.678 44.6999 160.421 44.5132 160.104C44.3265 159.777 44.2332 159.423 44.2332 159.04C44.2332 158.368 44.4945 157.836 45.0172 157.444C45.5399 157.052 46.2865 156.856 47.2572 156.856H49.0772V156.73C49.0772 156.189 48.9279 155.783 48.6292 155.512C48.3399 155.241 47.9619 155.106 47.4952 155.106C47.0845 155.106 46.7252 155.209 46.4172 155.414C46.1185 155.61 45.9365 155.904 45.8712 156.296H44.3872C44.4339 155.792 44.6019 155.363 44.8912 155.008C45.1899 154.644 45.5632 154.369 46.0112 154.182C46.4685 153.986 46.9679 153.888 47.5092 153.888C48.4799 153.888 49.2312 154.145 49.7632 154.658C50.2952 155.162 50.5612 155.853 50.5612 156.73V161H49.2732L49.1472 159.81C48.9512 160.193 48.6665 160.515 48.2932 160.776C47.9199 161.037 47.4299 161.168 46.8232 161.168ZM47.1172 159.964C47.5185 159.964 47.8545 159.871 48.1252 159.684C48.4052 159.488 48.6199 159.231 48.7692 158.914C48.9279 158.597 49.0259 158.247 49.0632 157.864H47.4112C46.8232 157.864 46.4032 157.967 46.1512 158.172C45.9085 158.377 45.7872 158.634 45.7872 158.942C45.7872 159.259 45.9039 159.511 46.1372 159.698C46.3799 159.875 46.7065 159.964 47.1172 159.964ZM56.1975 161.168C55.6562 161.168 55.1755 161.061 54.7555 160.846C54.3448 160.631 54.0182 160.328 53.7755 159.936L53.6215 161H52.2915V150.92H53.7755V155.134C53.9995 154.807 54.3075 154.518 54.6995 154.266C55.0915 154.014 55.5955 153.888 56.2115 153.888C56.8835 153.888 57.4762 154.047 57.9895 154.364C58.5028 154.681 58.9042 155.115 59.1935 155.666C59.4922 156.217 59.6415 156.842 59.6415 157.542C59.6415 158.242 59.4922 158.867 59.1935 159.418C58.9042 159.959 58.5028 160.389 57.9895 160.706C57.4762 161.014 56.8788 161.168 56.1975 161.168ZM55.9455 159.88C56.5802 159.88 57.1028 159.665 57.5135 159.236C57.9242 158.797 58.1295 158.228 58.1295 157.528C58.1295 157.071 58.0362 156.665 57.8495 156.31C57.6628 155.955 57.4062 155.68 57.0795 155.484C56.7528 155.279 56.3748 155.176 55.9455 155.176C55.3108 155.176 54.7882 155.395 54.3775 155.834C53.9762 156.273 53.7755 156.837 53.7755 157.528C53.7755 158.228 53.9762 158.797 54.3775 159.236C54.7882 159.665 55.3108 159.88 55.9455 159.88ZM64.4946 161.168C63.8133 161.168 63.2066 161.019 62.6746 160.72C62.1519 160.412 61.7413 159.987 61.4426 159.446C61.1439 158.905 60.9946 158.275 60.9946 157.556C60.9946 156.828 61.1393 156.189 61.4286 155.638C61.7273 155.087 62.1379 154.658 62.6606 154.35C63.1926 154.042 63.8086 153.888 64.5086 153.888C65.1899 153.888 65.7826 154.042 66.2866 154.35C66.7906 154.649 67.1826 155.05 67.4626 155.554C67.7426 156.058 67.8826 156.613 67.8826 157.22C67.8826 157.313 67.8779 157.416 67.8686 157.528C67.8686 157.631 67.8639 157.747 67.8546 157.878H62.4506C62.4973 158.55 62.7166 159.063 63.1086 159.418C63.5099 159.763 63.9719 159.936 64.4946 159.936C64.9146 159.936 65.2646 159.843 65.5446 159.656C65.8339 159.46 66.0486 159.199 66.1886 158.872H67.6726C67.4859 159.525 67.1126 160.071 66.5526 160.51C66.0019 160.949 65.3159 161.168 64.4946 161.168ZM64.4946 155.106C63.9999 155.106 63.5613 155.255 63.1786 155.554C62.7959 155.843 62.5626 156.282 62.4786 156.87H66.3986C66.3706 156.329 66.1793 155.899 65.8246 155.582C65.4699 155.265 65.0266 155.106 64.4946 155.106ZM69.4224 161V150.92H70.9064V161H69.4224Z" fill="#333333"/>
<path d="M14 176.5H26C26.8284 176.5 27.5 177.172 27.5 178V190C27.5 190.828 26.8284 191.5 26 191.5H14C13.1716 191.5 12.5 190.828 12.5 190V178C12.5 177.172 13.1716 176.5 14 176.5Z" fill="white" stroke="#A89AAA"/>
<path d="M36.994 189V179.2H38.478V187.824H42.93V189H36.994ZM46.8232 189.168C46.2352 189.168 45.7499 189.07 45.3672 188.874C44.9845 188.678 44.6999 188.421 44.5132 188.104C44.3265 187.777 44.2332 187.423 44.2332 187.04C44.2332 186.368 44.4945 185.836 45.0172 185.444C45.5399 185.052 46.2865 184.856 47.2572 184.856H49.0772V184.73C49.0772 184.189 48.9279 183.783 48.6292 183.512C48.3399 183.241 47.9619 183.106 47.4952 183.106C47.0845 183.106 46.7252 183.209 46.4172 183.414C46.1185 183.61 45.9365 183.904 45.8712 184.296H44.3872C44.4339 183.792 44.6019 183.363 44.8912 183.008C45.1899 182.644 45.5632 182.369 46.0112 182.182C46.4685 181.986 46.9679 181.888 47.5092 181.888C48.4799 181.888 49.2312 182.145 49.7632 182.658C50.2952 183.162 50.5612 183.853 50.5612 184.73V189H49.2732L49.1472 187.81C48.9512 188.193 48.6665 188.515 48.2932 188.776C47.9199 189.037 47.4299 189.168 46.8232 189.168ZM47.1172 187.964C47.5185 187.964 47.8545 187.871 48.1252 187.684C48.4052 187.488 48.6199 187.231 48.7692 186.914C48.9279 186.597 49.0259 186.247 49.0632 185.864H47.4112C46.8232 185.864 46.4032 185.967 46.1512 186.172C45.9085 186.377 45.7872 186.634 45.7872 186.942C45.7872 187.259 45.9039 187.511 46.1372 187.698C46.3799 187.875 46.7065 187.964 47.1172 187.964ZM56.1975 189.168C55.6562 189.168 55.1755 189.061 54.7555 188.846C54.3448 188.631 54.0182 188.328 53.7755 187.936L53.6215 189H52.2915V178.92H53.7755V183.134C53.9995 182.807 54.3075 182.518 54.6995 182.266C55.0915 182.014 55.5955 181.888 56.2115 181.888C56.8835 181.888 57.4762 182.047 57.9895 182.364C58.5028 182.681 58.9042 183.115 59.1935 183.666C59.4922 184.217 59.6415 184.842 59.6415 185.542C59.6415 186.242 59.4922 186.867 59.1935 187.418C58.9042 187.959 58.5028 188.389 57.9895 188.706C57.4762 189.014 56.8788 189.168 56.1975 189.168ZM55.9455 187.88C56.5802 187.88 57.1028 187.665 57.5135 187.236C57.9242 186.797 58.1295 186.228 58.1295 185.528C58.1295 185.071 58.0362 184.665 57.8495 184.31C57.6628 183.955 57.4062 183.68 57.0795 183.484C56.7528 183.279 56.3748 183.176 55.9455 183.176C55.3108 183.176 54.7882 183.395 54.3775 183.834C53.9762 184.273 53.7755 184.837 53.7755 185.528C53.7755 186.228 53.9762 186.797 54.3775 187.236C54.7882 187.665 55.3108 187.88 55.9455 187.88ZM64.4946 189.168C63.8133 189.168 63.2066 189.019 62.6746 188.72C62.1519 188.412 61.7413 187.987 61.4426 187.446C61.1439 186.905 60.9946 186.275 60.9946 185.556C60.9946 184.828 61.1393 184.189 61.4286 183.638C61.7273 183.087 62.1379 182.658 62.6606 182.35C63.1926 182.042 63.8086 181.888 64.5086 181.888C65.1899 181.888 65.7826 182.042 66.2866 182.35C66.7906 182.649 67.1826 183.05 67.4626 183.554C67.7426 184.058 67.8826 184.613 67.8826 185.22C67.8826 185.313 67.8779 185.416 67.8686 185.528C67.8686 185.631 67.8639 185.747 67.8546 185.878H62.4506C62.4973 186.55 62.7166 187.063 63.1086 187.418C63.5099 187.763 63.9719 187.936 64.4946 187.936C64.9146 187.936 65.2646 187.843 65.5446 187.656C65.8339 187.46 66.0486 187.199 66.1886 186.872H67.6726C67.4859 187.525 67.1126 188.071 66.5526 188.51C66.0019 188.949 65.3159 189.168 64.4946 189.168ZM64.4946 183.106C63.9999 183.106 63.5613 183.255 63.1786 183.554C62.7959 183.843 62.5626 184.282 62.4786 184.87H66.3986C66.3706 184.329 66.1793 183.899 65.8246 183.582C65.4699 183.265 65.0266 183.106 64.4946 183.106ZM69.4224 189V178.92H70.9064V189H69.4224Z" fill="#333333"/>
<path d="M14 204.5H26C26.8284 204.5 27.5 205.172 27.5 206V218C27.5 218.828 26.8284 219.5 26 219.5H14C13.1716 219.5 12.5 218.828 12.5 218V206C12.5 205.172 13.1716 204.5 14 204.5Z" fill="white" stroke="#A89AAA"/>
<path d="M12 206C12 204.895 12.8954 204 14 204H26C27.1046 204 28 204.895 28 206V218C28 219.105 27.1046 220 26 220H14C12.8954 220 12 219.105 12 218V206Z" fill="#7A2682"/>
<path d="M25 209.144L19.9321 214.535L19.9313 214.531C19.6516 214.832 19.2728 215 18.878 215C18.4831 215 18.1044 214.832 17.8246 214.531L15 211.558L16.0448 210.409L18.8761 213.385L23.9552 208L25 209.144Z" fill="white"/>
<path d="M36.994 217V207.2H38.478V215.824H42.93V217H36.994ZM46.8232 217.168C46.2352 217.168 45.7499 217.07 45.3672 216.874C44.9845 216.678 44.6999 216.421 44.5132 216.104C44.3265 215.777 44.2332 215.423 44.2332 215.04C44.2332 214.368 44.4945 213.836 45.0172 213.444C45.5399 213.052 46.2865 212.856 47.2572 212.856H49.0772V212.73C49.0772 212.189 48.9279 211.783 48.6292 211.512C48.3399 211.241 47.9619 211.106 47.4952 211.106C47.0845 211.106 46.7252 211.209 46.4172 211.414C46.1185 211.61 45.9365 211.904 45.8712 212.296H44.3872C44.4339 211.792 44.6019 211.363 44.8912 211.008C45.1899 210.644 45.5632 210.369 46.0112 210.182C46.4685 209.986 46.9679 209.888 47.5092 209.888C48.4799 209.888 49.2312 210.145 49.7632 210.658C50.2952 211.162 50.5612 211.853 50.5612 212.73V217H49.2732L49.1472 215.81C48.9512 216.193 48.6665 216.515 48.2932 216.776C47.9199 217.037 47.4299 217.168 46.8232 217.168ZM47.1172 215.964C47.5185 215.964 47.8545 215.871 48.1252 215.684C48.4052 215.488 48.6199 215.231 48.7692 214.914C48.9279 214.597 49.0259 214.247 49.0632 213.864H47.4112C46.8232 213.864 46.4032 213.967 46.1512 214.172C45.9085 214.377 45.7872 214.634 45.7872 214.942C45.7872 215.259 45.9039 215.511 46.1372 215.698C46.3799 215.875 46.7065 215.964 47.1172 215.964ZM56.1975 217.168C55.6562 217.168 55.1755 217.061 54.7555 216.846C54.3448 216.631 54.0182 216.328 53.7755 215.936L53.6215 217H52.2915V206.92H53.7755V211.134C53.9995 210.807 54.3075 210.518 54.6995 210.266C55.0915 210.014 55.5955 209.888 56.2115 209.888C56.8835 209.888 57.4762 210.047 57.9895 210.364C58.5028 210.681 58.9042 211.115 59.1935 211.666C59.4922 212.217 59.6415 212.842 59.6415 213.542C59.6415 214.242 59.4922 214.867 59.1935 215.418C58.9042 215.959 58.5028 216.389 57.9895 216.706C57.4762 217.014 56.8788 217.168 56.1975 217.168ZM55.9455 215.88C56.5802 215.88 57.1028 215.665 57.5135 215.236C57.9242 214.797 58.1295 214.228 58.1295 213.528C58.1295 213.071 58.0362 212.665 57.8495 212.31C57.6628 211.955 57.4062 211.68 57.0795 211.484C56.7528 211.279 56.3748 211.176 55.9455 211.176C55.3108 211.176 54.7882 211.395 54.3775 211.834C53.9762 212.273 53.7755 212.837 53.7755 213.528C53.7755 214.228 53.9762 214.797 54.3775 215.236C54.7882 215.665 55.3108 215.88 55.9455 215.88ZM64.4946 217.168C63.8133 217.168 63.2066 217.019 62.6746 216.72C62.1519 216.412 61.7413 215.987 61.4426 215.446C61.1439 214.905 60.9946 214.275 60.9946 213.556C60.9946 212.828 61.1393 212.189 61.4286 211.638C61.7273 211.087 62.1379 210.658 62.6606 210.35C63.1926 210.042 63.8086 209.888 64.5086 209.888C65.1899 209.888 65.7826 210.042 66.2866 210.35C66.7906 210.649 67.1826 211.05 67.4626 211.554C67.7426 212.058 67.8826 212.613 67.8826 213.22C67.8826 213.313 67.8779 213.416 67.8686 213.528C67.8686 213.631 67.8639 213.747 67.8546 213.878H62.4506C62.4973 214.55 62.7166 215.063 63.1086 215.418C63.5099 215.763 63.9719 215.936 64.4946 215.936C64.9146 215.936 65.2646 215.843 65.5446 215.656C65.8339 215.46 66.0486 215.199 66.1886 214.872H67.6726C67.4859 215.525 67.1126 216.071 66.5526 216.51C66.0019 216.949 65.3159 217.168 64.4946 217.168ZM64.4946 211.106C63.9999 211.106 63.5613 211.255 63.1786 211.554C62.7959 211.843 62.5626 212.282 62.4786 212.87H66.3986C66.3706 212.329 66.1793 211.899 65.8246 211.582C65.4699 211.265 65.0266 211.106 64.4946 211.106ZM69.4224 217V206.92H70.9064V217H69.4224Z" fill="#333333"/>
<path d="M14 232.5H26C26.8284 232.5 27.5 233.172 27.5 234V246C27.5 246.828 26.8284 247.5 26 247.5H14C13.1716 247.5 12.5 246.828 12.5 246V234C12.5 233.172 13.1716 232.5 14 232.5Z" fill="white" stroke="#A89AAA"/>
<path d="M36.994 245V235.2H38.478V243.824H42.93V245H36.994ZM46.8232 245.168C46.2352 245.168 45.7499 245.07 45.3672 244.874C44.9845 244.678 44.6999 244.421 44.5132 244.104C44.3265 243.777 44.2332 243.423 44.2332 243.04C44.2332 242.368 44.4945 241.836 45.0172 241.444C45.5399 241.052 46.2865 240.856 47.2572 240.856H49.0772V240.73C49.0772 240.189 48.9279 239.783 48.6292 239.512C48.3399 239.241 47.9619 239.106 47.4952 239.106C47.0845 239.106 46.7252 239.209 46.4172 239.414C46.1185 239.61 45.9365 239.904 45.8712 240.296H44.3872C44.4339 239.792 44.6019 239.363 44.8912 239.008C45.1899 238.644 45.5632 238.369 46.0112 238.182C46.4685 237.986 46.9679 237.888 47.5092 237.888C48.4799 237.888 49.2312 238.145 49.7632 238.658C50.2952 239.162 50.5612 239.853 50.5612 240.73V245H49.2732L49.1472 243.81C48.9512 244.193 48.6665 244.515 48.2932 244.776C47.9199 245.037 47.4299 245.168 46.8232 245.168ZM47.1172 243.964C47.5185 243.964 47.8545 243.871 48.1252 243.684C48.4052 243.488 48.6199 243.231 48.7692 242.914C48.9279 242.597 49.0259 242.247 49.0632 241.864H47.4112C46.8232 241.864 46.4032 241.967 46.1512 242.172C45.9085 242.377 45.7872 242.634 45.7872 242.942C45.7872 243.259 45.9039 243.511 46.1372 243.698C46.3799 243.875 46.7065 243.964 47.1172 243.964ZM56.1975 245.168C55.6562 245.168 55.1755 245.061 54.7555 244.846C54.3448 244.631 54.0182 244.328 53.7755 243.936L53.6215 245H52.2915V234.92H53.7755V239.134C53.9995 238.807 54.3075 238.518 54.6995 238.266C55.0915 238.014 55.5955 237.888 56.2115 237.888C56.8835 237.888 57.4762 238.047 57.9895 238.364C58.5028 238.681 58.9042 239.115 59.1935 239.666C59.4922 240.217 59.6415 240.842 59.6415 241.542C59.6415 242.242 59.4922 242.867 59.1935 243.418C58.9042 243.959 58.5028 244.389 57.9895 244.706C57.4762 245.014 56.8788 245.168 56.1975 245.168ZM55.9455 243.88C56.5802 243.88 57.1028 243.665 57.5135 243.236C57.9242 242.797 58.1295 242.228 58.1295 241.528C58.1295 241.071 58.0362 240.665 57.8495 240.31C57.6628 239.955 57.4062 239.68 57.0795 239.484C56.7528 239.279 56.3748 239.176 55.9455 239.176C55.3108 239.176 54.7882 239.395 54.3775 239.834C53.9762 240.273 53.7755 240.837 53.7755 241.528C53.7755 242.228 53.9762 242.797 54.3775 243.236C54.7882 243.665 55.3108 243.88 55.9455 243.88ZM64.4946 245.168C63.8133 245.168 63.2066 245.019 62.6746 244.72C62.1519 244.412 61.7413 243.987 61.4426 243.446C61.1439 242.905 60.9946 242.275 60.9946 241.556C60.9946 240.828 61.1393 240.189 61.4286 239.638C61.7273 239.087 62.1379 238.658 62.6606 238.35C63.1926 238.042 63.8086 237.888 64.5086 237.888C65.1899 237.888 65.7826 238.042 66.2866 238.35C66.7906 238.649 67.1826 239.05 67.4626 239.554C67.7426 240.058 67.8826 240.613 67.8826 241.22C67.8826 241.313 67.8779 241.416 67.8686 241.528C67.8686 241.631 67.8639 241.747 67.8546 241.878H62.4506C62.4973 242.55 62.7166 243.063 63.1086 243.418C63.5099 243.763 63.9719 243.936 64.4946 243.936C64.9146 243.936 65.2646 243.843 65.5446 243.656C65.8339 243.46 66.0486 243.199 66.1886 242.872H67.6726C67.4859 243.525 67.1126 244.071 66.5526 244.51C66.0019 244.949 65.3159 245.168 64.4946 245.168ZM64.4946 239.106C63.9999 239.106 63.5613 239.255 63.1786 239.554C62.7959 239.843 62.5626 240.282 62.4786 240.87H66.3986C66.3706 240.329 66.1793 239.899 65.8246 239.582C65.4699 239.265 65.0266 239.106 64.4946 239.106ZM69.4224 245V234.92H70.9064V245H69.4224Z" fill="#333333"/>
<path d="M14 260.5H26C26.8284 260.5 27.5 261.172 27.5 262V274C27.5 274.828 26.8284 275.5 26 275.5H14C13.1716 275.5 12.5 274.828 12.5 274V262C12.5 261.172 13.1716 260.5 14 260.5Z" fill="white" stroke="#A89AAA"/>
<path d="M36.994 273V263.2H38.478V271.824H42.93V273H36.994ZM46.8232 273.168C46.2352 273.168 45.7499 273.07 45.3672 272.874C44.9845 272.678 44.6999 272.421 44.5132 272.104C44.3265 271.777 44.2332 271.423 44.2332 271.04C44.2332 270.368 44.4945 269.836 45.0172 269.444C45.5399 269.052 46.2865 268.856 47.2572 268.856H49.0772V268.73C49.0772 268.189 48.9279 267.783 48.6292 267.512C48.3399 267.241 47.9619 267.106 47.4952 267.106C47.0845 267.106 46.7252 267.209 46.4172 267.414C46.1185 267.61 45.9365 267.904 45.8712 268.296H44.3872C44.4339 267.792 44.6019 267.363 44.8912 267.008C45.1899 266.644 45.5632 266.369 46.0112 266.182C46.4685 265.986 46.9679 265.888 47.5092 265.888C48.4799 265.888 49.2312 266.145 49.7632 266.658C50.2952 267.162 50.5612 267.853 50.5612 268.73V273H49.2732L49.1472 271.81C48.9512 272.193 48.6665 272.515 48.2932 272.776C47.9199 273.037 47.4299 273.168 46.8232 273.168ZM47.1172 271.964C47.5185 271.964 47.8545 271.871 48.1252 271.684C48.4052 271.488 48.6199 271.231 48.7692 270.914C48.9279 270.597 49.0259 270.247 49.0632 269.864H47.4112C46.8232 269.864 46.4032 269.967 46.1512 270.172C45.9085 270.377 45.7872 270.634 45.7872 270.942C45.7872 271.259 45.9039 271.511 46.1372 271.698C46.3799 271.875 46.7065 271.964 47.1172 271.964ZM56.1975 273.168C55.6562 273.168 55.1755 273.061 54.7555 272.846C54.3448 272.631 54.0182 272.328 53.7755 271.936L53.6215 273H52.2915V262.92H53.7755V267.134C53.9995 266.807 54.3075 266.518 54.6995 266.266C55.0915 266.014 55.5955 265.888 56.2115 265.888C56.8835 265.888 57.4762 266.047 57.9895 266.364C58.5028 266.681 58.9042 267.115 59.1935 267.666C59.4922 268.217 59.6415 268.842 59.6415 269.542C59.6415 270.242 59.4922 270.867 59.1935 271.418C58.9042 271.959 58.5028 272.389 57.9895 272.706C57.4762 273.014 56.8788 273.168 56.1975 273.168ZM55.9455 271.88C56.5802 271.88 57.1028 271.665 57.5135 271.236C57.9242 270.797 58.1295 270.228 58.1295 269.528C58.1295 269.071 58.0362 268.665 57.8495 268.31C57.6628 267.955 57.4062 267.68 57.0795 267.484C56.7528 267.279 56.3748 267.176 55.9455 267.176C55.3108 267.176 54.7882 267.395 54.3775 267.834C53.9762 268.273 53.7755 268.837 53.7755 269.528C53.7755 270.228 53.9762 270.797 54.3775 271.236C54.7882 271.665 55.3108 271.88 55.9455 271.88ZM64.4946 273.168C63.8133 273.168 63.2066 273.019 62.6746 272.72C62.1519 272.412 61.7413 271.987 61.4426 271.446C61.1439 270.905 60.9946 270.275 60.9946 269.556C60.9946 268.828 61.1393 268.189 61.4286 267.638C61.7273 267.087 62.1379 266.658 62.6606 266.35C63.1926 266.042 63.8086 265.888 64.5086 265.888C65.1899 265.888 65.7826 266.042 66.2866 266.35C66.7906 266.649 67.1826 267.05 67.4626 267.554C67.7426 268.058 67.8826 268.613 67.8826 269.22C67.8826 269.313 67.8779 269.416 67.8686 269.528C67.8686 269.631 67.8639 269.747 67.8546 269.878H62.4506C62.4973 270.55 62.7166 271.063 63.1086 271.418C63.5099 271.763 63.9719 271.936 64.4946 271.936C64.9146 271.936 65.2646 271.843 65.5446 271.656C65.8339 271.46 66.0486 271.199 66.1886 270.872H67.6726C67.4859 271.525 67.1126 272.071 66.5526 272.51C66.0019 272.949 65.3159 273.168 64.4946 273.168ZM64.4946 267.106C63.9999 267.106 63.5613 267.255 63.1786 267.554C62.7959 267.843 62.5626 268.282 62.4786 268.87H66.3986C66.3706 268.329 66.1793 267.899 65.8246 267.582C65.4699 267.265 65.0266 267.106 64.4946 267.106ZM69.4224 273V262.92H70.9064V273H69.4224Z" fill="#333333"/>
<path d="M14 288.5H26C26.8284 288.5 27.5 289.172 27.5 290V302C27.5 302.828 26.8284 303.5 26 303.5H14C13.1716 303.5 12.5 302.828 12.5 302V290C12.5 289.172 13.1716 288.5 14 288.5Z" fill="white" stroke="#A89AAA"/>
<path d="M36.994 301V291.2H38.478V299.824H42.93V301H36.994ZM46.8232 301.168C46.2352 301.168 45.7499 301.07 45.3672 300.874C44.9845 300.678 44.6999 300.421 44.5132 300.104C44.3265 299.777 44.2332 299.423 44.2332 299.04C44.2332 298.368 44.4945 297.836 45.0172 297.444C45.5399 297.052 46.2865 296.856 47.2572 296.856H49.0772V296.73C49.0772 296.189 48.9279 295.783 48.6292 295.512C48.3399 295.241 47.9619 295.106 47.4952 295.106C47.0845 295.106 46.7252 295.209 46.4172 295.414C46.1185 295.61 45.9365 295.904 45.8712 296.296H44.3872C44.4339 295.792 44.6019 295.363 44.8912 295.008C45.1899 294.644 45.5632 294.369 46.0112 294.182C46.4685 293.986 46.9679 293.888 47.5092 293.888C48.4799 293.888 49.2312 294.145 49.7632 294.658C50.2952 295.162 50.5612 295.853 50.5612 296.73V301H49.2732L49.1472 299.81C48.9512 300.193 48.6665 300.515 48.2932 300.776C47.9199 301.037 47.4299 301.168 46.8232 301.168ZM47.1172 299.964C47.5185 299.964 47.8545 299.871 48.1252 299.684C48.4052 299.488 48.6199 299.231 48.7692 298.914C48.9279 298.597 49.0259 298.247 49.0632 297.864H47.4112C46.8232 297.864 46.4032 297.967 46.1512 298.172C45.9085 298.377 45.7872 298.634 45.7872 298.942C45.7872 299.259 45.9039 299.511 46.1372 299.698C46.3799 299.875 46.7065 299.964 47.1172 299.964ZM56.1975 301.168C55.6562 301.168 55.1755 301.061 54.7555 300.846C54.3448 300.631 54.0182 300.328 53.7755 299.936L53.6215 301H52.2915V290.92H53.7755V295.134C53.9995 294.807 54.3075 294.518 54.6995 294.266C55.0915 294.014 55.5955 293.888 56.2115 293.888C56.8835 293.888 57.4762 294.047 57.9895 294.364C58.5028 294.681 58.9042 295.115 59.1935 295.666C59.4922 296.217 59.6415 296.842 59.6415 297.542C59.6415 298.242 59.4922 298.867 59.1935 299.418C58.9042 299.959 58.5028 300.389 57.9895 300.706C57.4762 301.014 56.8788 301.168 56.1975 301.168ZM55.9455 299.88C56.5802 299.88 57.1028 299.665 57.5135 299.236C57.9242 298.797 58.1295 298.228 58.1295 297.528C58.1295 297.071 58.0362 296.665 57.8495 296.31C57.6628 295.955 57.4062 295.68 57.0795 295.484C56.7528 295.279 56.3748 295.176 55.9455 295.176C55.3108 295.176 54.7882 295.395 54.3775 295.834C53.9762 296.273 53.7755 296.837 53.7755 297.528C53.7755 298.228 53.9762 298.797 54.3775 299.236C54.7882 299.665 55.3108 299.88 55.9455 299.88ZM64.4946 301.168C63.8133 301.168 63.2066 301.019 62.6746 300.72C62.1519 300.412 61.7413 299.987 61.4426 299.446C61.1439 298.905 60.9946 298.275 60.9946 297.556C60.9946 296.828 61.1393 296.189 61.4286 295.638C61.7273 295.087 62.1379 294.658 62.6606 294.35C63.1926 294.042 63.8086 293.888 64.5086 293.888C65.1899 293.888 65.7826 294.042 66.2866 294.35C66.7906 294.649 67.1826 295.05 67.4626 295.554C67.7426 296.058 67.8826 296.613 67.8826 297.22C67.8826 297.313 67.8779 297.416 67.8686 297.528C67.8686 297.631 67.8639 297.747 67.8546 297.878H62.4506C62.4973 298.55 62.7166 299.063 63.1086 299.418C63.5099 299.763 63.9719 299.936 64.4946 299.936C64.9146 299.936 65.2646 299.843 65.5446 299.656C65.8339 299.46 66.0486 299.199 66.1886 298.872H67.6726C67.4859 299.525 67.1126 300.071 66.5526 300.51C66.0019 300.949 65.3159 301.168 64.4946 301.168ZM64.4946 295.106C63.9999 295.106 63.5613 295.255 63.1786 295.554C62.7959 295.843 62.5626 296.282 62.4786 296.87H66.3986C66.3706 296.329 66.1793 295.899 65.8246 295.582C65.4699 295.265 65.0266 295.106 64.4946 295.106ZM69.4224 301V290.92H70.9064V301H69.4224Z" fill="#333333"/>
<rect x="291" y="116" width="6" height="192" rx="3" fill="white"/>
<rect x="291" y="144" width="6" height="16" rx="3" fill="#F5F0F7"/>
</g>
<defs>
<filter id="filter0_d_8024_375869" x="0" y="64" width="309" height="260" filterUnits="userSpaceOnUse" color-interpolation-filters="sRGB">
<feFlood flood-opacity="0" result="BackgroundImageFix"/>
<feColorMatrix in="SourceAlpha" type="matrix" values="0 0 0 0 0 0 0 0 0 0 0 0 0 0 0 0 0 0 127 0" result="hardAlpha"/>
<feOffset dy="4"/>
<feGaussianBlur stdDeviation="4"/>
<feComposite in2="hardAlpha" operator="out"/>
<feColorMatrix type="matrix" values="0 0 0 0 0 0 0 0 0 0 0 0 0 0 0 0 0 0 0.1 0"/>
<feBlend mode="normal" in2="BackgroundImageFix" result="effect1_dropShadow_8024_375869"/>
<feBlend mode="normal" in="SourceGraphic" in2="effect1_dropShadow_8024_375869" result="shape"/>
</filter>
<clipPath id="clip0_8024_375869">
<rect width="16" height="16" fill="white" transform="translate(20 32)"/>
</clipPath>
<clipPath id="clip1_8024_375869">
<rect width="16" height="16" fill="white" transform="translate(115 32)"/>
</clipPath>
<clipPath id="clip2_8024_375869">
<rect width="16" height="16" fill="white" transform="translate(28 84)"/>
</clipPath>
</defs>
</svg>
