<svg width="276" height="60" viewBox="0 0 276 60" fill="none" xmlns="http://www.w3.org/2000/svg">
<path d="M1.184 12V0.799999H2.528V10.928H7.744V12H1.184ZM12.1503 12.192C11.4889 12.192 10.9396 12.08 10.5023 11.856C10.0649 11.632 9.73958 11.3333 9.52625 10.96C9.31292 10.5867 9.20625 10.1813 9.20625 9.744C9.20625 8.93333 9.51558 8.30933 10.1343 7.872C10.7529 7.43467 11.5956 7.216 12.6623 7.216H14.8063V7.12C14.8063 6.42667 14.6249 5.904 14.2623 5.552C13.8996 5.18933 13.4143 5.008 12.8063 5.008C12.2836 5.008 11.8303 5.14133 11.4463 5.408C11.0729 5.664 10.8383 6.04267 10.7423 6.544H9.36625C9.41958 5.968 9.61158 5.48267 9.94225 5.088C10.2836 4.69333 10.7049 4.39467 11.2063 4.192C11.7076 3.97867 12.2409 3.872 12.8063 3.872C13.9156 3.872 14.7476 4.17067 15.3023 4.768C15.8676 5.35467 16.1503 6.13867 16.1503 7.12V12H14.9503L14.8703 10.576C14.6463 11.024 14.3156 11.408 13.8783 11.728C13.4516 12.0373 12.8756 12.192 12.1503 12.192ZM12.3583 11.056C12.8703 11.056 13.3076 10.9227 13.6703 10.656C14.0436 10.3893 14.3263 10.0427 14.5183 9.616C14.7103 9.18933 14.8063 8.74133 14.8063 8.272V8.256H12.7743C11.9849 8.256 11.4249 8.39467 11.0943 8.672C10.7743 8.93867 10.6143 9.27467 10.6143 9.68C10.6143 10.096 10.7636 10.432 11.0623 10.688C11.3716 10.9333 11.8036 11.056 12.3583 11.056ZM22.4065 12.192C21.7558 12.192 21.1745 12.0587 20.6625 11.792C20.1612 11.5253 19.7772 11.152 19.5105 10.672L19.3825 12H18.1665V0.48H19.5105V5.376C19.7665 4.992 20.1292 4.64533 20.5985 4.336C21.0785 4.02667 21.6865 3.872 22.4225 3.872C23.2118 3.872 23.8998 4.05333 24.4865 4.416C25.0732 4.77867 25.5265 5.27467 25.8465 5.904C26.1772 6.53333 26.3425 7.248 26.3425 8.048C26.3425 8.848 26.1772 9.56267 25.8465 10.192C25.5265 10.8107 25.0678 11.3013 24.4705 11.664C23.8838 12.016 23.1958 12.192 22.4065 12.192ZM22.2625 11.024C22.7958 11.024 23.2652 10.9013 23.6705 10.656C24.0758 10.4 24.3958 10.048 24.6305 9.6C24.8652 9.152 24.9825 8.62933 24.9825 8.032C24.9825 7.43467 24.8652 6.912 24.6305 6.464C24.3958 6.016 24.0758 5.66933 23.6705 5.424C23.2652 5.168 22.7958 5.04 22.2625 5.04C21.7292 5.04 21.2598 5.168 20.8545 5.424C20.4492 5.66933 20.1292 6.016 19.8945 6.464C19.6598 6.912 19.5425 7.43467 19.5425 8.032C19.5425 8.62933 19.6598 9.152 19.8945 9.6C20.1292 10.048 20.4492 10.4 20.8545 10.656C21.2598 10.9013 21.7292 11.024 22.2625 11.024ZM31.7814 12.192C31.024 12.192 30.352 12.0213 29.7654 11.68C29.1787 11.328 28.7147 10.8427 28.3734 10.224C28.0427 9.60533 27.8774 8.87467 27.8774 8.032C27.8774 7.2 28.0427 6.47467 28.3734 5.856C28.704 5.22667 29.1627 4.74133 29.7494 4.4C30.3467 4.048 31.0347 3.872 31.8134 3.872C32.5814 3.872 33.2427 4.048 33.7974 4.4C34.3627 4.74133 34.7947 5.19467 35.0934 5.76C35.392 6.32533 35.5414 6.93333 35.5414 7.584C35.5414 7.70133 35.536 7.81867 35.5254 7.936C35.5254 8.05333 35.5254 8.18667 35.5254 8.336H29.2054C29.2374 8.944 29.376 9.45067 29.6214 9.856C29.8774 10.2507 30.192 10.5493 30.5654 10.752C30.9494 10.9547 31.3547 11.056 31.7814 11.056C32.336 11.056 32.8 10.928 33.1734 10.672C33.5467 10.416 33.8187 10.0693 33.9894 9.632H35.3174C35.104 10.368 34.6934 10.9813 34.0854 11.472C33.488 11.952 32.72 12.192 31.7814 12.192ZM31.7814 5.008C31.1414 5.008 30.5707 5.20533 30.0694 5.6C29.5787 5.984 29.296 6.54933 29.2214 7.296H34.2134C34.1814 6.58133 33.936 6.02133 33.4774 5.616C33.0187 5.21067 32.4534 5.008 31.7814 5.008ZM37.3228 12V0.48H38.6668V12H37.3228Z" fill="#333333"/>
<path d="M53.36 6.24L53.632 3.952L51.824 5.344L51.072 4.064L53.2 3.2L51.088 2.384L51.776 1.136L53.648 2.528L53.344 0.223999H54.768L54.464 2.528L56.32 1.136L56.992 2.368L54.88 3.232L57.008 4.08L56.288 5.328L54.464 3.952L54.752 6.24H53.36Z" fill="#E72D51"/>
<rect x="0.5" y="20.5" width="275" height="39" rx="3.5" fill="white"/>
<rect x="0.5" y="20.5" width="275" height="39" rx="3.5" stroke="#E2E2E2"/>
<path d="M21.362 45.168C20.3913 45.168 19.5513 44.958 18.842 44.538C18.142 44.1087 17.6007 43.516 17.218 42.76C16.8353 41.9947 16.644 41.1127 16.644 40.114C16.644 39.106 16.8353 38.224 17.218 37.468C17.6007 36.7027 18.142 36.1053 18.842 35.676C19.5513 35.2467 20.3913 35.032 21.362 35.032C22.51 35.032 23.448 35.312 24.176 35.872C24.904 36.432 25.366 37.216 25.562 38.224H23.91C23.7793 37.6547 23.4993 37.202 23.07 36.866C22.6407 36.53 22.0667 36.362 21.348 36.362C20.368 36.362 19.5933 36.698 19.024 37.37C18.4547 38.0327 18.17 38.9473 18.17 40.114C18.17 41.2713 18.4547 42.1813 19.024 42.844C19.5933 43.5067 20.368 43.838 21.348 43.838C22.0667 43.838 22.6407 43.6793 23.07 43.362C23.4993 43.0447 23.7793 42.6107 23.91 42.06H25.562C25.366 43.0307 24.904 43.7913 24.176 44.342C23.448 44.8927 22.51 45.168 21.362 45.168ZM29.4892 45.168C28.9012 45.168 28.4159 45.07 28.0332 44.874C27.6506 44.678 27.3659 44.4213 27.1792 44.104C26.9926 43.7773 26.8992 43.4227 26.8992 43.04C26.8992 42.368 27.1606 41.836 27.6832 41.444C28.2059 41.052 28.9526 40.856 29.9232 40.856H31.7432V40.73C31.7432 40.1887 31.5939 39.7827 31.2952 39.512C31.0059 39.2413 30.6279 39.106 30.1612 39.106C29.7506 39.106 29.3912 39.2087 29.0832 39.414C28.7846 39.61 28.6026 39.904 28.5372 40.296H27.0532C27.0999 39.792 27.2679 39.3627 27.5572 39.008C27.8559 38.644 28.2292 38.3687 28.6772 38.182C29.1346 37.986 29.6339 37.888 30.1752 37.888C31.1459 37.888 31.8972 38.1447 32.4292 38.658C32.9612 39.162 33.2272 39.8527 33.2272 40.73V45H31.9392L31.8132 43.81C31.6172 44.1927 31.3326 44.5147 30.9592 44.776C30.5859 45.0373 30.0959 45.168 29.4892 45.168ZM29.7832 43.964C30.1846 43.964 30.5206 43.8707 30.7912 43.684C31.0712 43.488 31.2859 43.2313 31.4352 42.914C31.5939 42.5967 31.6919 42.2467 31.7292 41.864H30.0772C29.4892 41.864 29.0692 41.9667 28.8172 42.172C28.5746 42.3773 28.4532 42.634 28.4532 42.942C28.4532 43.2593 28.5699 43.5113 28.8032 43.698C29.0459 43.8753 29.3726 43.964 29.7832 43.964ZM34.9575 45V38.056H36.2875L36.4135 39.372C36.6562 38.9147 36.9922 38.5553 37.4215 38.294C37.8602 38.0233 38.3875 37.888 39.0035 37.888V39.442H38.5975C38.1869 39.442 37.8182 39.512 37.4915 39.652C37.1742 39.7827 36.9175 40.0113 36.7215 40.338C36.5349 40.6553 36.4415 41.0987 36.4415 41.668V45H34.9575ZM42.9538 42.872C42.5898 42.872 42.2538 42.83 41.9458 42.746L41.3438 43.334C41.4465 43.3993 41.5725 43.4553 41.7218 43.502C41.8712 43.5487 42.0812 43.5907 42.3518 43.628C42.6225 43.6653 42.9912 43.7027 43.4578 43.74C44.3818 43.824 45.0492 44.048 45.4598 44.412C45.8705 44.7667 46.0758 45.2427 46.0758 45.84C46.0758 46.2507 45.9638 46.638 45.7398 47.002C45.5252 47.3753 45.1845 47.674 44.7178 47.898C44.2605 48.1313 43.6725 48.248 42.9538 48.248C41.9832 48.248 41.1945 48.0613 40.5878 47.688C39.9905 47.324 39.6918 46.7687 39.6918 46.022C39.6918 45.7327 39.7665 45.4433 39.9158 45.154C40.0745 44.874 40.3218 44.608 40.6578 44.356C40.4618 44.272 40.2892 44.1833 40.1398 44.09C39.9998 43.9873 39.8738 43.8847 39.7618 43.782V43.446L40.9658 42.214C40.4245 41.7473 40.1538 41.136 40.1538 40.38C40.1538 39.9227 40.2612 39.5073 40.4758 39.134C40.6998 38.7513 41.0218 38.448 41.4418 38.224C41.8618 38 42.3658 37.888 42.9538 37.888C43.3458 37.888 43.7098 37.944 44.0458 38.056H46.6358V39.036L45.4038 39.106C45.6278 39.4887 45.7398 39.9133 45.7398 40.38C45.7398 40.8467 45.6278 41.2667 45.4038 41.64C45.1892 42.0133 44.8718 42.312 44.4518 42.536C44.0412 42.76 43.5418 42.872 42.9538 42.872ZM42.9538 41.71C43.3832 41.71 43.7285 41.598 43.9898 41.374C44.2605 41.1407 44.3958 40.814 44.3958 40.394C44.3958 39.9647 44.2605 39.638 43.9898 39.414C43.7285 39.19 43.3832 39.078 42.9538 39.078C42.5152 39.078 42.1605 39.19 41.8898 39.414C41.6285 39.638 41.4978 39.9647 41.4978 40.394C41.4978 40.814 41.6285 41.1407 41.8898 41.374C42.1605 41.598 42.5152 41.71 42.9538 41.71ZM41.0918 45.882C41.0918 46.2833 41.2692 46.582 41.6238 46.778C41.9785 46.9833 42.4218 47.086 42.9538 47.086C43.4672 47.086 43.8825 46.974 44.1998 46.75C44.5172 46.5353 44.6758 46.246 44.6758 45.882C44.6758 45.6113 44.5685 45.378 44.3538 45.182C44.1392 44.9953 43.7332 44.8787 43.1358 44.832C42.6878 44.804 42.2912 44.762 41.9458 44.706C41.6192 44.8833 41.3952 45.0747 41.2738 45.28C41.1525 45.4853 41.0918 45.686 41.0918 45.882ZM50.3115 45.168C49.7235 45.168 49.2382 45.07 48.8555 44.874C48.4728 44.678 48.1882 44.4213 48.0015 44.104C47.8148 43.7773 47.7215 43.4227 47.7215 43.04C47.7215 42.368 47.9828 41.836 48.5055 41.444C49.0282 41.052 49.7748 40.856 50.7455 40.856H52.5655V40.73C52.5655 40.1887 52.4162 39.7827 52.1175 39.512C51.8282 39.2413 51.4502 39.106 50.9835 39.106C50.5728 39.106 50.2135 39.2087 49.9055 39.414C49.6068 39.61 49.4248 39.904 49.3595 40.296H47.8755C47.9222 39.792 48.0902 39.3627 48.3795 39.008C48.6782 38.644 49.0515 38.3687 49.4995 38.182C49.9568 37.986 50.4562 37.888 50.9975 37.888C51.9682 37.888 52.7195 38.1447 53.2515 38.658C53.7835 39.162 54.0495 39.8527 54.0495 40.73V45H52.7615L52.6355 43.81C52.4395 44.1927 52.1548 44.5147 51.7815 44.776C51.4082 45.0373 50.9182 45.168 50.3115 45.168ZM50.6055 43.964C51.0068 43.964 51.3428 43.8707 51.6135 43.684C51.8935 43.488 52.1082 43.2313 52.2575 42.914C52.4162 42.5967 52.5142 42.2467 52.5515 41.864H50.8995C50.3115 41.864 49.8915 41.9667 49.6395 42.172C49.3968 42.3773 49.2755 42.634 49.2755 42.942C49.2755 43.2593 49.3922 43.5113 49.6255 43.698C49.8682 43.8753 50.1948 43.964 50.6055 43.964ZM55.7798 45V38.056H57.0958L57.2078 39.274C57.4225 38.8447 57.7351 38.5087 58.1458 38.266C58.5658 38.014 59.0465 37.888 59.5878 37.888C60.4278 37.888 61.0858 38.1493 61.5618 38.672C62.0471 39.1947 62.2898 39.974 62.2898 41.01V45H60.8198V41.164C60.8198 39.82 60.2691 39.148 59.1678 39.148C58.6171 39.148 58.1598 39.344 57.7958 39.736C57.4411 40.128 57.2638 40.688 57.2638 41.416V45H55.7798ZM67.2016 45.168C66.5296 45.168 65.9369 45.0093 65.4236 44.692C64.9103 44.3747 64.5089 43.9407 64.2196 43.39C63.9303 42.8393 63.7856 42.214 63.7856 41.514C63.7856 40.814 63.9303 40.1933 64.2196 39.652C64.5089 39.1013 64.9103 38.672 65.4236 38.364C65.9463 38.0467 66.5436 37.888 67.2156 37.888C67.7663 37.888 68.2469 37.9953 68.6576 38.21C69.0776 38.4247 69.4043 38.728 69.6376 39.12V34.92H71.1216V45H69.7916L69.6376 43.922C69.4136 44.2487 69.1056 44.538 68.7136 44.79C68.3216 45.042 67.8176 45.168 67.2016 45.168ZM67.4676 43.88C68.1023 43.88 68.6203 43.6607 69.0216 43.222C69.4323 42.7833 69.6376 42.2187 69.6376 41.528C69.6376 40.828 69.4323 40.2633 69.0216 39.834C68.6203 39.3953 68.1023 39.176 67.4676 39.176C66.8329 39.176 66.3103 39.3953 65.8996 39.834C65.4889 40.2633 65.2836 40.828 65.2836 41.528C65.2836 41.9853 65.3769 42.3913 65.5636 42.746C65.7503 43.1007 66.0069 43.3807 66.3336 43.586C66.6696 43.782 67.0476 43.88 67.4676 43.88ZM76.2407 45.168C75.578 45.168 74.9807 45.0187 74.4487 44.72C73.926 44.412 73.5107 43.9873 73.2027 43.446C72.8947 42.8953 72.7407 42.256 72.7407 41.528C72.7407 40.8 72.8947 40.1653 73.2027 39.624C73.52 39.0733 73.9447 38.6487 74.4767 38.35C75.0087 38.042 75.6014 37.888 76.2547 37.888C76.9174 37.888 77.51 38.042 78.0327 38.35C78.5647 38.6487 78.9847 39.0733 79.2927 39.624C79.61 40.1653 79.7687 40.8 79.7687 41.528C79.7687 42.256 79.61 42.8953 79.2927 43.446C78.9847 43.9873 78.5647 44.412 78.0327 44.72C77.5007 45.0187 76.9034 45.168 76.2407 45.168ZM76.2407 43.894C76.5954 43.894 76.922 43.8053 77.2207 43.628C77.5287 43.4507 77.776 43.1893 77.9627 42.844C78.1494 42.4893 78.2427 42.0507 78.2427 41.528C78.2427 41.0053 78.1494 40.5713 77.9627 40.226C77.7854 39.8713 77.5427 39.6053 77.2347 39.428C76.936 39.2507 76.6094 39.162 76.2547 39.162C75.9 39.162 75.5687 39.2507 75.2607 39.428C74.962 39.6053 74.7194 39.8713 74.5327 40.226C74.346 40.5713 74.2527 41.0053 74.2527 41.528C74.2527 42.0507 74.346 42.4893 74.5327 42.844C74.7194 43.1893 74.962 43.4507 75.2607 43.628C75.5594 43.8053 75.886 43.894 76.2407 43.894ZM81.9615 45.084C81.6815 45.084 81.4482 44.9953 81.2615 44.818C81.0842 44.6313 80.9955 44.412 80.9955 44.16C80.9955 43.8987 81.0842 43.6793 81.2615 43.502C81.4482 43.3153 81.6815 43.222 81.9615 43.222C82.2415 43.222 82.4702 43.3153 82.6475 43.502C82.8249 43.6793 82.9135 43.8987 82.9135 44.16C82.9135 44.412 82.8249 44.6313 82.6475 44.818C82.4702 44.9953 82.2415 45.084 81.9615 45.084ZM84.9967 45.084C84.7167 45.084 84.4834 44.9953 84.2967 44.818C84.1194 44.6313 84.0307 44.412 84.0307 44.16C84.0307 43.8987 84.1194 43.6793 84.2967 43.502C84.4834 43.3153 84.7167 43.222 84.9967 43.222C85.2767 43.222 85.5054 43.3153 85.6827 43.502C85.86 43.6793 85.9487 43.8987 85.9487 44.16C85.9487 44.412 85.86 44.6313 85.6827 44.818C85.5054 44.9953 85.2767 45.084 84.9967 45.084ZM88.0319 45.084C87.7519 45.084 87.5185 44.9953 87.3319 44.818C87.1545 44.6313 87.0659 44.412 87.0659 44.16C87.0659 43.8987 87.1545 43.6793 87.3319 43.502C87.5185 43.3153 87.7519 43.222 88.0319 43.222C88.3119 43.222 88.5405 43.3153 88.7179 43.502C88.8952 43.6793 88.9839 43.8987 88.9839 44.16C88.9839 44.412 88.8952 44.6313 88.7179 44.818C88.5405 44.9953 88.3119 45.084 88.0319 45.084Z" fill="#616161"/>
<path d="M252 35.0042C252.662 35.0042 253.324 35.1379 253.938 35.3958C254.552 35.6537 255.108 36.0263 255.579 36.5039H254.005C253.871 36.5039 253.746 36.5612 253.65 36.6472C253.554 36.7427 253.506 36.8669 253.506 37.0006C253.506 37.1343 253.564 37.2585 253.65 37.354C253.746 37.4495 253.871 37.4973 254.005 37.4973H256.087C256.336 37.4973 256.567 37.4018 256.749 37.2298C256.922 37.0579 257.018 36.8191 257.018 36.5707V34.4979C257.018 34.3641 256.96 34.24 256.874 34.1444C256.778 34.0489 256.653 34.0012 256.519 34.0012C256.384 34.0012 256.26 34.0585 256.164 34.1444C256.068 34.24 256.02 34.3641 256.02 34.4979V35.5391C255.185 34.794 254.168 34.2973 253.065 34.0967C251.971 33.8961 250.83 34.0107 249.793 34.4119C248.757 34.8227 247.846 35.5104 247.184 36.3988C246.512 37.2872 246.109 38.3475 246.004 39.4555C245.994 39.5224 246.004 39.5988 246.023 39.6657C246.042 39.7325 246.081 39.7899 246.128 39.8472C246.176 39.8949 246.234 39.9427 246.301 39.9714C246.368 40 246.435 40.0191 246.503 40.0191C246.627 40.0191 246.742 39.9809 246.838 39.8949C246.934 39.8185 246.992 39.7039 247.002 39.5797C247.117 38.3379 247.692 37.1821 248.613 36.3319C249.534 35.4722 250.743 35.0042 252 35.0042Z" fill="#333333"/>
<path d="M257.497 40C257.373 40 257.257 40.0382 257.162 40.1242C257.066 40.2006 257.008 40.3152 256.998 40.4394C256.912 41.3946 256.557 42.3021 255.972 43.0567C255.387 43.8114 254.6 44.3845 253.688 44.7093C252.787 45.0341 251.808 45.0914 250.877 44.8717C249.947 44.6615 249.093 44.1839 248.421 43.4961H249.985C250.12 43.4961 250.244 43.4388 250.34 43.3529C250.436 43.2573 250.484 43.1332 250.484 42.9994C250.484 42.8657 250.427 42.7415 250.34 42.646C250.244 42.5505 250.12 42.5027 249.985 42.5027H247.913C247.788 42.5027 247.673 42.5314 247.558 42.5696C247.443 42.6173 247.337 42.6842 247.251 42.7702C247.165 42.8561 247.097 42.9612 247.049 43.0758C247.001 43.1905 246.982 43.3051 246.982 43.4293V45.5021C246.982 45.6359 247.04 45.76 247.126 45.8556C247.222 45.9511 247.347 45.9988 247.481 45.9988C247.616 45.9988 247.74 45.9415 247.836 45.8556C247.932 45.76 247.98 45.6359 247.98 45.5021V44.4609C248.805 45.206 249.832 45.7027 250.925 45.9033C252.029 46.1039 253.161 45.9893 254.197 45.5881C255.233 45.1869 256.145 44.4991 256.816 43.6108C257.488 42.7224 257.891 41.6621 257.996 40.554C258.006 40.4872 257.996 40.4107 257.977 40.3439C257.958 40.277 257.919 40.2197 257.871 40.1624C257.823 40.1146 257.766 40.0669 257.699 40.0382C257.632 40.0096 257.564 40 257.497 40Z" fill="#333333"/>
</svg>
