<svg width="309" height="338" viewBox="0 0 309 338" fill="none" xmlns="http://www.w3.org/2000/svg">
<path d="M9.184 12V0.799999H10.528V10.928H15.744V12H9.184ZM20.1503 12.192C19.4889 12.192 18.9396 12.08 18.5023 11.856C18.0649 11.632 17.7396 11.3333 17.5263 10.96C17.3129 10.5867 17.2063 10.1813 17.2063 9.744C17.2063 8.93333 17.5156 8.30933 18.1343 7.872C18.7529 7.43467 19.5956 7.216 20.6623 7.216H22.8063V7.12C22.8063 6.42667 22.6249 5.904 22.2623 5.552C21.8996 5.18933 21.4143 5.008 20.8063 5.008C20.2836 5.008 19.8303 5.14133 19.4463 5.408C19.0729 5.664 18.8383 6.04267 18.7423 6.544H17.3663C17.4196 5.968 17.6116 5.48267 17.9423 5.088C18.2836 4.69333 18.7049 4.39467 19.2063 4.192C19.7076 3.97867 20.2409 3.872 20.8063 3.872C21.9156 3.872 22.7476 4.17067 23.3023 4.768C23.8676 5.35467 24.1503 6.13867 24.1503 7.12V12H22.9503L22.8703 10.576C22.6463 11.024 22.3156 11.408 21.8783 11.728C21.4516 12.0373 20.8756 12.192 20.1503 12.192ZM20.3583 11.056C20.8703 11.056 21.3076 10.9227 21.6703 10.656C22.0436 10.3893 22.3263 10.0427 22.5183 9.616C22.7103 9.18933 22.8063 8.74133 22.8063 8.272V8.256H20.7743C19.9849 8.256 19.4249 8.39467 19.0943 8.672C18.7743 8.93867 18.6143 9.27467 18.6143 9.68C18.6143 10.096 18.7636 10.432 19.0623 10.688C19.3716 10.9333 19.8036 11.056 20.3583 11.056ZM30.4065 12.192C29.7558 12.192 29.1745 12.0587 28.6625 11.792C28.1612 11.5253 27.7772 11.152 27.5105 10.672L27.3825 12H26.1665V0.48H27.5105V5.376C27.7665 4.992 28.1292 4.64533 28.5985 4.336C29.0785 4.02667 29.6865 3.872 30.4225 3.872C31.2118 3.872 31.8998 4.05333 32.4865 4.416C33.0732 4.77867 33.5265 5.27467 33.8465 5.904C34.1772 6.53333 34.3425 7.248 34.3425 8.048C34.3425 8.848 34.1772 9.56267 33.8465 10.192C33.5265 10.8107 33.0678 11.3013 32.4705 11.664C31.8838 12.016 31.1958 12.192 30.4065 12.192ZM30.2625 11.024C30.7958 11.024 31.2652 10.9013 31.6705 10.656C32.0758 10.4 32.3958 10.048 32.6305 9.6C32.8652 9.152 32.9825 8.62933 32.9825 8.032C32.9825 7.43467 32.8652 6.912 32.6305 6.464C32.3958 6.016 32.0758 5.66933 31.6705 5.424C31.2652 5.168 30.7958 5.04 30.2625 5.04C29.7292 5.04 29.2598 5.168 28.8545 5.424C28.4492 5.66933 28.1292 6.016 27.8945 6.464C27.6598 6.912 27.5425 7.43467 27.5425 8.032C27.5425 8.62933 27.6598 9.152 27.8945 9.6C28.1292 10.048 28.4492 10.4 28.8545 10.656C29.2598 10.9013 29.7292 11.024 30.2625 11.024ZM39.7814 12.192C39.024 12.192 38.352 12.0213 37.7654 11.68C37.1787 11.328 36.7147 10.8427 36.3734 10.224C36.0427 9.60533 35.8774 8.87467 35.8774 8.032C35.8774 7.2 36.0427 6.47467 36.3734 5.856C36.704 5.22667 37.1627 4.74133 37.7494 4.4C38.3467 4.048 39.0347 3.872 39.8134 3.872C40.5814 3.872 41.2427 4.048 41.7974 4.4C42.3627 4.74133 42.7947 5.19467 43.0934 5.76C43.392 6.32533 43.5414 6.93333 43.5414 7.584C43.5414 7.70133 43.536 7.81867 43.5254 7.936C43.5254 8.05333 43.5254 8.18667 43.5254 8.336H37.2054C37.2374 8.944 37.376 9.45067 37.6214 9.856C37.8774 10.2507 38.192 10.5493 38.5654 10.752C38.9494 10.9547 39.3547 11.056 39.7814 11.056C40.336 11.056 40.8 10.928 41.1734 10.672C41.5467 10.416 41.8187 10.0693 41.9894 9.632H43.3174C43.104 10.368 42.6934 10.9813 42.0854 11.472C41.488 11.952 40.72 12.192 39.7814 12.192ZM39.7814 5.008C39.1414 5.008 38.5707 5.20533 38.0694 5.6C37.5787 5.984 37.296 6.54933 37.2214 7.296H42.2134C42.1814 6.58133 41.936 6.02133 41.4774 5.616C41.0187 5.21067 40.4534 5.008 39.7814 5.008ZM45.3228 12V0.48H46.6668V12H45.3228ZM55.328 6.24L55.52 3.792L53.536 5.184L52.976 4.208L55.2 3.232L52.992 2.272L53.52 1.328L55.536 2.72L55.312 0.271999H56.4L56.16 2.72L58.16 1.328L58.672 2.256L56.464 3.248L58.688 4.224L58.16 5.168L56.16 3.792L56.384 6.24H55.328Z" fill="#333333"/>
<rect x="8.5" y="20.5" width="292" height="39" rx="3.5" fill="white"/>
<rect x="8.5" y="20.5" width="292" height="39" rx="3.5" stroke="#E2E2E2"/>
<rect x="24" y="28" width="101" height="24" rx="4" fill="#EBEBEB"/>
<rect x="28" y="32" width="16" height="16" rx="8" fill="#EBEBEB"/>
<g clip-path="url(#clip0_8024_375869)">
<path d="M36 40.9333L37.9333 42.8666C38.0556 42.9888 38.2111 43.0499 38.4 43.0499C38.5889 43.0499 38.7445 42.9888 38.8667 42.8666C38.9889 42.7444 39.05 42.5888 39.05 42.3999C39.05 42.211 38.9889 42.0555 38.8667 41.9333L36.9333 39.9999L38.8667 38.0666C38.9889 37.9444 39.05 37.7888 39.05 37.5999C39.05 37.411 38.9889 37.2555 38.8667 37.1333C38.7445 37.011 38.5889 36.9499 38.4 36.9499C38.2111 36.9499 38.0556 37.011 37.9333 37.1333L36 39.0666L34.0667 37.1333C33.9445 37.011 33.7889 36.9499 33.6 36.9499C33.4111 36.9499 33.2556 37.011 33.1333 37.1333C33.0111 37.2555 32.95 37.411 32.95 37.5999C32.95 37.7888 33.0111 37.9444 33.1333 38.0666L35.0667 39.9999L33.1333 41.9333C33.0111 42.0555 32.95 42.211 32.95 42.3999C32.95 42.5888 33.0111 42.7444 33.1333 42.8666C33.2556 42.9888 33.4111 43.0499 33.6 43.0499C33.7889 43.0499 33.9445 42.9888 34.0667 42.8666L36 40.9333ZM36 46.6666C35.0778 46.6666 34.2111 46.4916 33.4 46.1416C32.5889 45.7916 31.8833 45.3166 31.2833 44.7166C30.6833 44.1166 30.2083 43.411 29.8583 42.5999C29.5083 41.7888 29.3333 40.9221 29.3333 39.9999C29.3333 39.0777 29.5083 38.211 29.8583 37.3999C30.2083 36.5888 30.6833 35.8833 31.2833 35.2833C31.8833 34.6833 32.5889 34.2083 33.4 33.8583C34.2111 33.5083 35.0778 33.3333 36 33.3333C36.9222 33.3333 37.7889 33.5083 38.6 33.8583C39.4111 34.2083 40.1167 34.6833 40.7167 35.2833C41.3167 35.8833 41.7917 36.5888 42.1417 37.3999C42.4917 38.211 42.6667 39.0777 42.6667 39.9999C42.6667 40.9221 42.4917 41.7888 42.1417 42.5999C41.7917 43.411 41.3167 44.1166 40.7167 44.7166C40.1167 45.3166 39.4111 45.7916 38.6 46.1416C37.7889 46.4916 36.9222 46.6666 36 46.6666ZM36 45.3333C37.4889 45.3333 38.75 44.8166 39.7833 43.7833C40.8167 42.7499 41.3333 41.4888 41.3333 39.9999C41.3333 38.511 40.8167 37.2499 39.7833 36.2166C38.75 35.1833 37.4889 34.6666 36 34.6666C34.5111 34.6666 33.25 35.1833 32.2167 36.2166C31.1833 37.2499 30.6667 38.511 30.6667 39.9999C30.6667 41.4888 31.1833 42.7499 32.2167 43.7833C33.25 44.8166 34.5111 45.3333 36 45.3333Z" fill="#7A2682"/>
</g>
<path d="M52.164 44.144C51.42 44.144 50.776 43.964 50.232 43.604C49.696 43.236 49.284 42.728 48.996 42.08C48.708 41.424 48.564 40.664 48.564 39.8C48.564 38.936 48.708 38.18 48.996 37.532C49.284 36.876 49.696 36.368 50.232 36.008C50.776 35.64 51.42 35.456 52.164 35.456C52.908 35.456 53.548 35.64 54.084 36.008C54.62 36.368 55.032 36.876 55.32 37.532C55.608 38.18 55.752 38.936 55.752 39.8C55.752 40.664 55.608 41.424 55.32 42.08C55.032 42.728 54.62 43.236 54.084 43.604C53.548 43.964 52.908 44.144 52.164 44.144ZM52.164 43.256C52.652 43.256 53.088 43.12 53.472 42.848C53.864 42.568 54.168 42.172 54.384 41.66C54.608 41.14 54.72 40.52 54.72 39.8C54.72 39.08 54.608 38.464 54.384 37.952C54.168 37.44 53.864 37.048 53.472 36.776C53.088 36.496 52.652 36.356 52.164 36.356C51.668 36.356 51.228 36.496 50.844 36.776C50.46 37.048 50.156 37.44 49.932 37.952C49.708 38.464 49.596 39.08 49.596 39.8C49.596 40.52 49.708 41.14 49.932 41.66C50.156 42.172 50.46 42.568 50.844 42.848C51.228 43.12 51.668 43.256 52.164 43.256ZM56.9591 44V43.292C57.5271 42.844 58.0631 42.392 58.5671 41.936C59.0791 41.472 59.5311 41.016 59.9231 40.568C60.3231 40.12 60.6351 39.68 60.8591 39.248C61.0911 38.816 61.2071 38.4 61.2071 38C61.2071 37.704 61.1551 37.428 61.0511 37.172C60.9551 36.916 60.7951 36.712 60.5711 36.56C60.3471 36.4 60.0431 36.32 59.6591 36.32C59.2911 36.32 58.9831 36.404 58.7351 36.572C58.4871 36.732 58.2991 36.948 58.1711 37.22C58.0511 37.492 57.9911 37.784 57.9911 38.096H57.0191C57.0191 37.544 57.1351 37.072 57.3671 36.68C57.5991 36.28 57.9151 35.976 58.3151 35.768C58.7151 35.56 59.1671 35.456 59.6711 35.456C60.4151 35.456 61.0231 35.668 61.4951 36.092C61.9751 36.508 62.2151 37.132 62.2151 37.964C62.2151 38.46 62.0911 38.952 61.8431 39.44C61.5951 39.92 61.2791 40.388 60.8951 40.844C60.5111 41.292 60.0991 41.712 59.6591 42.104C59.2271 42.496 58.8231 42.848 58.4471 43.16H62.5031V44H56.9591ZM63.4063 45.14L66.4183 34.832H67.4143L64.4023 45.14H63.4063ZM71.6874 44.144C70.9434 44.144 70.2994 43.964 69.7554 43.604C69.2194 43.236 68.8074 42.728 68.5194 42.08C68.2314 41.424 68.0874 40.664 68.0874 39.8C68.0874 38.936 68.2314 38.18 68.5194 37.532C68.8074 36.876 69.2194 36.368 69.7554 36.008C70.2994 35.64 70.9434 35.456 71.6874 35.456C72.4314 35.456 73.0714 35.64 73.6074 36.008C74.1434 36.368 74.5554 36.876 74.8434 37.532C75.1314 38.18 75.2754 38.936 75.2754 39.8C75.2754 40.664 75.1314 41.424 74.8434 42.08C74.5554 42.728 74.1434 43.236 73.6074 43.604C73.0714 43.964 72.4314 44.144 71.6874 44.144ZM71.6874 43.256C72.1754 43.256 72.6114 43.12 72.9954 42.848C73.3874 42.568 73.6914 42.172 73.9074 41.66C74.1314 41.14 74.2434 40.52 74.2434 39.8C74.2434 39.08 74.1314 38.464 73.9074 37.952C73.6914 37.44 73.3874 37.048 72.9954 36.776C72.6114 36.496 72.1754 36.356 71.6874 36.356C71.1914 36.356 70.7514 36.496 70.3674 36.776C69.9834 37.048 69.6794 37.44 69.4554 37.952C69.2314 38.464 69.1194 39.08 69.1194 39.8C69.1194 40.52 69.2314 41.14 69.4554 41.66C69.6794 42.172 69.9834 42.568 70.3674 42.848C70.7514 43.12 71.1914 43.256 71.6874 43.256ZM79.5038 44.144C78.9758 44.144 78.5238 44.04 78.1478 43.832C77.7718 43.624 77.4718 43.348 77.2478 43.004C77.0318 42.652 76.8998 42.264 76.8518 41.84H77.7878C77.8678 42.296 78.0598 42.648 78.3638 42.896C78.6678 43.144 79.0518 43.268 79.5158 43.268C80.1558 43.268 80.6878 42.972 81.1118 42.38C81.5358 41.78 81.7638 40.848 81.7958 39.584C81.6038 39.96 81.2958 40.288 80.8718 40.568C80.4558 40.84 79.9518 40.976 79.3598 40.976C78.8878 40.976 78.4398 40.864 78.0158 40.64C77.5918 40.416 77.2478 40.104 76.9838 39.704C76.7198 39.296 76.5878 38.82 76.5878 38.276C76.5878 37.804 76.7038 37.352 76.9358 36.92C77.1758 36.488 77.5118 36.136 77.9438 35.864C78.3758 35.592 78.8918 35.456 79.4918 35.456C80.0998 35.456 80.6118 35.572 81.0278 35.804C81.4438 36.028 81.7758 36.332 82.0238 36.716C82.2798 37.1 82.4638 37.532 82.5758 38.012C82.6958 38.484 82.7558 38.968 82.7558 39.464C82.7558 40.392 82.6278 41.208 82.3718 41.912C82.1158 42.608 81.7438 43.156 81.2558 43.556C80.7758 43.948 80.1918 44.144 79.5038 44.144ZM79.5638 40.1C79.9398 40.1 80.2758 40.016 80.5718 39.848C80.8678 39.672 81.1038 39.44 81.2798 39.152C81.4558 38.864 81.5438 38.552 81.5438 38.216C81.5438 37.856 81.4558 37.536 81.2798 37.256C81.1038 36.968 80.8678 36.744 80.5718 36.584C80.2758 36.424 79.9398 36.344 79.5638 36.344C79.1878 36.344 78.8518 36.424 78.5558 36.584C78.2598 36.744 78.0278 36.968 77.8598 37.256C77.6918 37.536 77.6077 37.86 77.6077 38.228C77.6077 38.796 77.7918 39.252 78.1598 39.596C78.5358 39.932 79.0038 40.1 79.5638 40.1ZM83.1407 45.14L86.1527 34.832H87.1487L84.1367 45.14H83.1407ZM88.2482 44V43.292C88.8162 42.844 89.3522 42.392 89.8562 41.936C90.3682 41.472 90.8202 41.016 91.2122 40.568C91.6122 40.12 91.9242 39.68 92.1482 39.248C92.3802 38.816 92.4962 38.4 92.4962 38C92.4962 37.704 92.4442 37.428 92.3402 37.172C92.2442 36.916 92.0842 36.712 91.8602 36.56C91.6362 36.4 91.3322 36.32 90.9482 36.32C90.5802 36.32 90.2722 36.404 90.0242 36.572C89.7762 36.732 89.5882 36.948 89.4602 37.22C89.3402 37.492 89.2802 37.784 89.2802 38.096H88.3082C88.3082 37.544 88.4242 37.072 88.6562 36.68C88.8882 36.28 89.2042 35.976 89.6042 35.768C90.0042 35.56 90.4562 35.456 90.9602 35.456C91.7042 35.456 92.3122 35.668 92.7842 36.092C93.2642 36.508 93.5042 37.132 93.5042 37.964C93.5042 38.46 93.3802 38.952 93.1322 39.44C92.8842 39.92 92.5682 40.388 92.1842 40.844C91.8002 41.292 91.3882 41.712 90.9482 42.104C90.5162 42.496 90.1122 42.848 89.7362 43.16H93.7922V44H88.2482ZM98.4062 44.144C97.6622 44.144 97.0182 43.964 96.4742 43.604C95.9382 43.236 95.5262 42.728 95.2382 42.08C94.9502 41.424 94.8062 40.664 94.8062 39.8C94.8062 38.936 94.9502 38.18 95.2382 37.532C95.5262 36.876 95.9382 36.368 96.4742 36.008C97.0182 35.64 97.6622 35.456 98.4062 35.456C99.1502 35.456 99.7902 35.64 100.326 36.008C100.862 36.368 101.274 36.876 101.562 37.532C101.85 38.18 101.994 38.936 101.994 39.8C101.994 40.664 101.85 41.424 101.562 42.08C101.274 42.728 100.862 43.236 100.326 43.604C99.7902 43.964 99.1502 44.144 98.4062 44.144ZM98.4062 43.256C98.8942 43.256 99.3302 43.12 99.7142 42.848C100.106 42.568 100.41 42.172 100.626 41.66C100.85 41.14 100.962 40.52 100.962 39.8C100.962 39.08 100.85 38.464 100.626 37.952C100.41 37.44 100.106 37.048 99.7142 36.776C99.3302 36.496 98.8942 36.356 98.4062 36.356C97.9102 36.356 97.4702 36.496 97.0862 36.776C96.7022 37.048 96.3982 37.44 96.1742 37.952C95.9502 38.464 95.8382 39.08 95.8382 39.8C95.8382 40.52 95.9502 41.14 96.1742 41.66C96.3982 42.172 96.7022 42.568 97.0862 42.848C97.4702 43.12 97.9102 43.256 98.4062 43.256ZM103.201 44V43.292C103.769 42.844 104.305 42.392 104.809 41.936C105.321 41.472 105.773 41.016 106.165 40.568C106.565 40.12 106.877 39.68 107.101 39.248C107.333 38.816 107.449 38.4 107.449 38C107.449 37.704 107.397 37.428 107.293 37.172C107.197 36.916 107.037 36.712 106.813 36.56C106.589 36.4 106.285 36.32 105.901 36.32C105.533 36.32 105.225 36.404 104.977 36.572C104.729 36.732 104.541 36.948 104.413 37.22C104.293 37.492 104.233 37.784 104.233 38.096H103.261C103.261 37.544 103.377 37.072 103.609 36.68C103.841 36.28 104.157 35.976 104.557 35.768C104.957 35.56 105.409 35.456 105.913 35.456C106.657 35.456 107.265 35.668 107.737 36.092C108.217 36.508 108.457 37.132 108.457 37.964C108.457 38.46 108.333 38.952 108.085 39.44C107.837 39.92 107.521 40.388 107.137 40.844C106.753 41.292 106.341 41.712 105.901 42.104C105.469 42.496 105.065 42.848 104.689 43.16H108.745V44H103.201ZM113.805 44V42.2H109.545V41.42L113.625 35.6H114.801V41.312H116.049V42.2H114.801V44H113.805ZM110.661 41.312H113.853V36.716L110.661 41.312Z" fill="#7A2682"/>
<rect x="129" y="28" width="101" height="24" rx="4" fill="#EBEBEB"/>
<rect x="133" y="32" width="16" height="16" rx="8" fill="#EBEBEB"/>
<g clip-path="url(#clip1_8024_375869)">
<path d="M141 40.9333L142.933 42.8666C143.056 42.9888 143.211 43.0499 143.4 43.0499C143.589 43.0499 143.744 42.9888 143.867 42.8666C143.989 42.7444 144.05 42.5888 144.05 42.3999C144.05 42.211 143.989 42.0555 143.867 41.9333L141.933 39.9999L143.867 38.0666C143.989 37.9444 144.05 37.7888 144.05 37.5999C144.05 37.411 143.989 37.2555 143.867 37.1333C143.744 37.011 143.589 36.9499 143.4 36.9499C143.211 36.9499 143.056 37.011 142.933 37.1333L141 39.0666L139.067 37.1333C138.944 37.011 138.789 36.9499 138.6 36.9499C138.411 36.9499 138.256 37.011 138.133 37.1333C138.011 37.2555 137.95 37.411 137.95 37.5999C137.95 37.7888 138.011 37.9444 138.133 38.0666L140.067 39.9999L138.133 41.9333C138.011 42.0555 137.95 42.211 137.95 42.3999C137.95 42.5888 138.011 42.7444 138.133 42.8666C138.256 42.9888 138.411 43.0499 138.6 43.0499C138.789 43.0499 138.944 42.9888 139.067 42.8666L141 40.9333ZM141 46.6666C140.078 46.6666 139.211 46.4916 138.4 46.1416C137.589 45.7916 136.883 45.3166 136.283 44.7166C135.683 44.1166 135.208 43.411 134.858 42.5999C134.508 41.7888 134.333 40.9221 134.333 39.9999C134.333 39.0777 134.508 38.211 134.858 37.3999C135.208 36.5888 135.683 35.8833 136.283 35.2833C136.883 34.6833 137.589 34.2083 138.4 33.8583C139.211 33.5083 140.078 33.3333 141 33.3333C141.922 33.3333 142.789 33.5083 143.6 33.8583C144.411 34.2083 145.117 34.6833 145.717 35.2833C146.317 35.8833 146.792 36.5888 147.142 37.3999C147.492 38.211 147.667 39.0777 147.667 39.9999C147.667 40.9221 147.492 41.7888 147.142 42.5999C146.792 43.411 146.317 44.1166 145.717 44.7166C145.117 45.3166 144.411 45.7916 143.6 46.1416C142.789 46.4916 141.922 46.6666 141 46.6666ZM141 45.3333C142.489 45.3333 143.75 44.8166 144.783 43.7833C145.817 42.7499 146.333 41.4888 146.333 39.9999C146.333 38.511 145.817 37.2499 144.783 36.2166C143.75 35.1833 142.489 34.6666 141 34.6666C139.511 34.6666 138.25 35.1833 137.217 36.2166C136.183 37.2499 135.667 38.511 135.667 39.9999C135.667 41.4888 136.183 42.7499 137.217 43.7833C138.25 44.8166 139.511 45.3333 141 45.3333Z" fill="#7A2682"/>
</g>
<path d="M157.164 44.144C156.42 44.144 155.776 43.964 155.232 43.604C154.696 43.236 154.284 42.728 153.996 42.08C153.708 41.424 153.564 40.664 153.564 39.8C153.564 38.936 153.708 38.18 153.996 37.532C154.284 36.876 154.696 36.368 155.232 36.008C155.776 35.64 156.42 35.456 157.164 35.456C157.908 35.456 158.548 35.64 159.084 36.008C159.62 36.368 160.032 36.876 160.32 37.532C160.608 38.18 160.752 38.936 160.752 39.8C160.752 40.664 160.608 41.424 160.32 42.08C160.032 42.728 159.62 43.236 159.084 43.604C158.548 43.964 157.908 44.144 157.164 44.144ZM157.164 43.256C157.652 43.256 158.088 43.12 158.472 42.848C158.864 42.568 159.168 42.172 159.384 41.66C159.608 41.14 159.72 40.52 159.72 39.8C159.72 39.08 159.608 38.464 159.384 37.952C159.168 37.44 158.864 37.048 158.472 36.776C158.088 36.496 157.652 36.356 157.164 36.356C156.668 36.356 156.228 36.496 155.844 36.776C155.46 37.048 155.156 37.44 154.932 37.952C154.708 38.464 154.596 39.08 154.596 39.8C154.596 40.52 154.708 41.14 154.932 41.66C155.156 42.172 155.46 42.568 155.844 42.848C156.228 43.12 156.668 43.256 157.164 43.256ZM165.064 44.144C164.488 44.144 163.988 44.04 163.564 43.832C163.14 43.624 162.8 43.34 162.544 42.98C162.296 42.612 162.144 42.196 162.088 41.732H163.072C163.168 42.196 163.392 42.572 163.744 42.86C164.096 43.14 164.54 43.28 165.076 43.28C165.476 43.28 165.82 43.188 166.108 43.004C166.396 42.812 166.616 42.556 166.768 42.236C166.928 41.916 167.008 41.56 167.008 41.168C167.008 40.544 166.832 40.04 166.48 39.656C166.128 39.272 165.672 39.08 165.112 39.08C164.648 39.08 164.252 39.184 163.924 39.392C163.596 39.6 163.356 39.872 163.204 40.208H162.244L162.964 35.6H167.368V36.476H163.744L163.252 39.032C163.444 38.8 163.708 38.608 164.044 38.456C164.388 38.304 164.78 38.228 165.22 38.228C165.772 38.228 166.252 38.356 166.66 38.612C167.076 38.868 167.4 39.216 167.632 39.656C167.864 40.096 167.98 40.596 167.98 41.156C167.98 41.692 167.864 42.188 167.632 42.644C167.408 43.1 167.076 43.464 166.636 43.736C166.204 44.008 165.68 44.144 165.064 44.144ZM168.641 45.14L171.653 34.832H172.649L169.637 45.14H168.641ZM176.922 44.144C176.178 44.144 175.534 43.964 174.99 43.604C174.454 43.236 174.042 42.728 173.754 42.08C173.466 41.424 173.322 40.664 173.322 39.8C173.322 38.936 173.466 38.18 173.754 37.532C174.042 36.876 174.454 36.368 174.99 36.008C175.534 35.64 176.178 35.456 176.922 35.456C177.666 35.456 178.306 35.64 178.842 36.008C179.378 36.368 179.79 36.876 180.078 37.532C180.366 38.18 180.51 38.936 180.51 39.8C180.51 40.664 180.366 41.424 180.078 42.08C179.79 42.728 179.378 43.236 178.842 43.604C178.306 43.964 177.666 44.144 176.922 44.144ZM176.922 43.256C177.41 43.256 177.846 43.12 178.23 42.848C178.622 42.568 178.926 42.172 179.142 41.66C179.366 41.14 179.478 40.52 179.478 39.8C179.478 39.08 179.366 38.464 179.142 37.952C178.926 37.44 178.622 37.048 178.23 36.776C177.846 36.496 177.41 36.356 176.922 36.356C176.426 36.356 175.986 36.496 175.602 36.776C175.218 37.048 174.914 37.44 174.69 37.952C174.466 38.464 174.354 39.08 174.354 39.8C174.354 40.52 174.466 41.14 174.69 41.66C174.914 42.172 175.218 42.568 175.602 42.848C175.986 43.12 176.426 43.256 176.922 43.256ZM184.738 44.144C184.21 44.144 183.758 44.04 183.382 43.832C183.006 43.624 182.706 43.348 182.482 43.004C182.266 42.652 182.134 42.264 182.086 41.84H183.022C183.102 42.296 183.294 42.648 183.598 42.896C183.902 43.144 184.286 43.268 184.75 43.268C185.39 43.268 185.922 42.972 186.346 42.38C186.77 41.78 186.998 40.848 187.03 39.584C186.838 39.96 186.53 40.288 186.106 40.568C185.69 40.84 185.186 40.976 184.594 40.976C184.122 40.976 183.674 40.864 183.25 40.64C182.826 40.416 182.482 40.104 182.218 39.704C181.954 39.296 181.822 38.82 181.822 38.276C181.822 37.804 181.938 37.352 182.17 36.92C182.41 36.488 182.746 36.136 183.178 35.864C183.61 35.592 184.126 35.456 184.726 35.456C185.334 35.456 185.846 35.572 186.262 35.804C186.678 36.028 187.01 36.332 187.258 36.716C187.514 37.1 187.698 37.532 187.81 38.012C187.93 38.484 187.99 38.968 187.99 39.464C187.99 40.392 187.862 41.208 187.606 41.912C187.35 42.608 186.978 43.156 186.49 43.556C186.01 43.948 185.426 44.144 184.738 44.144ZM184.798 40.1C185.174 40.1 185.51 40.016 185.806 39.848C186.102 39.672 186.338 39.44 186.514 39.152C186.69 38.864 186.778 38.552 186.778 38.216C186.778 37.856 186.69 37.536 186.514 37.256C186.338 36.968 186.102 36.744 185.806 36.584C185.51 36.424 185.174 36.344 184.798 36.344C184.422 36.344 184.086 36.424 183.79 36.584C183.494 36.744 183.262 36.968 183.094 37.256C182.926 37.536 182.842 37.86 182.842 38.228C182.842 38.796 183.026 39.252 183.394 39.596C183.77 39.932 184.238 40.1 184.798 40.1ZM188.375 45.14L191.387 34.832H192.383L189.371 45.14H188.375ZM193.483 44V43.292C194.051 42.844 194.587 42.392 195.091 41.936C195.603 41.472 196.055 41.016 196.447 40.568C196.847 40.12 197.159 39.68 197.383 39.248C197.615 38.816 197.731 38.4 197.731 38C197.731 37.704 197.679 37.428 197.575 37.172C197.479 36.916 197.319 36.712 197.095 36.56C196.871 36.4 196.567 36.32 196.183 36.32C195.815 36.32 195.507 36.404 195.259 36.572C195.011 36.732 194.823 36.948 194.695 37.22C194.575 37.492 194.515 37.784 194.515 38.096H193.543C193.543 37.544 193.659 37.072 193.891 36.68C194.123 36.28 194.439 35.976 194.839 35.768C195.239 35.56 195.691 35.456 196.195 35.456C196.939 35.456 197.547 35.668 198.019 36.092C198.499 36.508 198.739 37.132 198.739 37.964C198.739 38.46 198.615 38.952 198.367 39.44C198.119 39.92 197.803 40.388 197.419 40.844C197.035 41.292 196.623 41.712 196.183 42.104C195.751 42.496 195.347 42.848 194.971 43.16H199.027V44H193.483ZM203.641 44.144C202.897 44.144 202.253 43.964 201.709 43.604C201.173 43.236 200.761 42.728 200.473 42.08C200.185 41.424 200.041 40.664 200.041 39.8C200.041 38.936 200.185 38.18 200.473 37.532C200.761 36.876 201.173 36.368 201.709 36.008C202.253 35.64 202.897 35.456 203.641 35.456C204.385 35.456 205.025 35.64 205.561 36.008C206.097 36.368 206.509 36.876 206.797 37.532C207.085 38.18 207.229 38.936 207.229 39.8C207.229 40.664 207.085 41.424 206.797 42.08C206.509 42.728 206.097 43.236 205.561 43.604C205.025 43.964 204.385 44.144 203.641 44.144ZM203.641 43.256C204.129 43.256 204.565 43.12 204.949 42.848C205.341 42.568 205.645 42.172 205.861 41.66C206.085 41.14 206.197 40.52 206.197 39.8C206.197 39.08 206.085 38.464 205.861 37.952C205.645 37.44 205.341 37.048 204.949 36.776C204.565 36.496 204.129 36.356 203.641 36.356C203.145 36.356 202.705 36.496 202.321 36.776C201.937 37.048 201.633 37.44 201.409 37.952C201.185 38.464 201.073 39.08 201.073 39.8C201.073 40.52 201.185 41.14 201.409 41.66C201.633 42.172 201.937 42.568 202.321 42.848C202.705 43.12 203.145 43.256 203.641 43.256ZM208.436 44V43.292C209.004 42.844 209.54 42.392 210.044 41.936C210.556 41.472 211.008 41.016 211.4 40.568C211.8 40.12 212.112 39.68 212.336 39.248C212.568 38.816 212.684 38.4 212.684 38C212.684 37.704 212.632 37.428 212.528 37.172C212.432 36.916 212.272 36.712 212.048 36.56C211.824 36.4 211.52 36.32 211.136 36.32C210.768 36.32 210.46 36.404 210.212 36.572C209.964 36.732 209.776 36.948 209.648 37.22C209.528 37.492 209.468 37.784 209.468 38.096H208.496C208.496 37.544 208.612 37.072 208.844 36.68C209.076 36.28 209.392 35.976 209.792 35.768C210.192 35.56 210.644 35.456 211.148 35.456C211.892 35.456 212.5 35.668 212.972 36.092C213.452 36.508 213.692 37.132 213.692 37.964C213.692 38.46 213.568 38.952 213.32 39.44C213.072 39.92 212.756 40.388 212.372 40.844C211.988 41.292 211.576 41.712 211.136 42.104C210.704 42.496 210.3 42.848 209.924 43.16H213.98V44H208.436ZM219.04 44V42.2H214.78V41.42L218.86 35.6H220.036V41.312H221.284V42.2H220.036V44H219.04ZM215.896 41.312H219.088V36.716L215.896 41.312Z" fill="#7A2682"/>
<path d="M235.008 41.42V40.284H238.064V37.372H239.264V40.284H242.32V41.42H239.264V44.348H238.064V41.42H235.008ZM248.32 45.692C247.552 45.692 246.885 45.5533 246.32 45.276C245.755 44.9987 245.301 44.62 244.96 44.14C244.629 43.6493 244.427 43.0947 244.352 42.476H245.664C245.792 43.0947 246.091 43.596 246.56 43.98C247.029 44.3533 247.621 44.54 248.336 44.54C248.869 44.54 249.328 44.4173 249.712 44.172C250.096 43.916 250.389 43.5747 250.592 43.148C250.805 42.7213 250.912 42.2467 250.912 41.724C250.912 40.892 250.677 40.22 250.208 39.708C249.739 39.196 249.131 38.94 248.384 38.94C247.765 38.94 247.237 39.0787 246.8 39.356C246.363 39.6333 246.043 39.996 245.84 40.444H244.56L245.52 34.3H251.392V35.468H246.56L245.904 38.876C246.16 38.5667 246.512 38.3107 246.96 38.108C247.419 37.9053 247.941 37.804 248.528 37.804C249.264 37.804 249.904 37.9747 250.448 38.316C251.003 38.6573 251.435 39.1213 251.744 39.708C252.053 40.2947 252.208 40.9613 252.208 41.708C252.208 42.4227 252.053 43.084 251.744 43.692C251.445 44.3 251.003 44.7853 250.416 45.148C249.84 45.5107 249.141 45.692 248.32 45.692Z" fill="#7A2682"/>
<g clip-path="url(#clip2_8024_375869)">
<path d="M272.333 46.6666C271.967 46.6666 271.653 46.536 271.392 46.2749C271.131 46.0138 271 45.6999 271 45.3333V35.9999C271 35.6333 271.131 35.3194 271.392 35.0583C271.653 34.7971 271.967 34.6666 272.333 34.6666H273V33.9999C273 33.811 273.064 33.6527 273.192 33.5249C273.319 33.3971 273.478 33.3333 273.667 33.3333C273.856 33.3333 274.014 33.3971 274.142 33.5249C274.269 33.6527 274.333 33.811 274.333 33.9999V34.6666H279.667V33.9999C279.667 33.811 279.731 33.6527 279.858 33.5249C279.986 33.3971 280.144 33.3333 280.333 33.3333C280.522 33.3333 280.681 33.3971 280.808 33.5249C280.936 33.6527 281 33.811 281 33.9999V34.6666H281.667C282.033 34.6666 282.347 34.7971 282.608 35.0583C282.869 35.3194 283 35.6333 283 35.9999V45.3333C283 45.6999 282.869 46.0138 282.608 46.2749C282.347 46.536 282.033 46.6666 281.667 46.6666H272.333ZM272.333 45.3333H281.667V38.6666H272.333V45.3333ZM272.333 37.3333H281.667V35.9999H272.333V37.3333ZM277 41.3333C276.811 41.3333 276.653 41.2694 276.525 41.1416C276.397 41.0138 276.333 40.8555 276.333 40.6666C276.333 40.4777 276.397 40.3194 276.525 40.1916C276.653 40.0638 276.811 39.9999 277 39.9999C277.189 39.9999 277.347 40.0638 277.475 40.1916C277.603 40.3194 277.667 40.4777 277.667 40.6666C277.667 40.8555 277.603 41.0138 277.475 41.1416C277.347 41.2694 277.189 41.3333 277 41.3333ZM274.333 41.3333C274.144 41.3333 273.986 41.2694 273.858 41.1416C273.731 41.0138 273.667 40.8555 273.667 40.6666C273.667 40.4777 273.731 40.3194 273.858 40.1916C273.986 40.0638 274.144 39.9999 274.333 39.9999C274.522 39.9999 274.681 40.0638 274.808 40.1916C274.936 40.3194 275 40.4777 275 40.6666C275 40.8555 274.936 41.0138 274.808 41.1416C274.681 41.2694 274.522 41.3333 274.333 41.3333ZM279.667 41.3333C279.478 41.3333 279.319 41.2694 279.192 41.1416C279.064 41.0138 279 40.8555 279 40.6666C279 40.4777 279.064 40.3194 279.192 40.1916C279.319 40.0638 279.478 39.9999 279.667 39.9999C279.856 39.9999 280.014 40.0638 280.142 40.1916C280.269 40.3194 280.333 40.4777 280.333 40.6666C280.333 40.8555 280.269 41.0138 280.142 41.1416C280.014 41.2694 279.856 41.3333 279.667 41.3333ZM277 43.9999C276.811 43.9999 276.653 43.936 276.525 43.8083C276.397 43.6805 276.333 43.5221 276.333 43.3333C276.333 43.1444 276.397 42.986 276.525 42.8583C276.653 42.7305 276.811 42.6666 277 42.6666C277.189 42.6666 277.347 42.7305 277.475 42.8583C277.603 42.986 277.667 43.1444 277.667 43.3333C277.667 43.5221 277.603 43.6805 277.475 43.8083C277.347 43.936 277.189 43.9999 277 43.9999ZM274.333 43.9999C274.144 43.9999 273.986 43.936 273.858 43.8083C273.731 43.6805 273.667 43.5221 273.667 43.3333C273.667 43.1444 273.731 42.986 273.858 42.8583C273.986 42.7305 274.144 42.6666 274.333 42.6666C274.522 42.6666 274.681 42.7305 274.808 42.8583C274.936 42.986 275 43.1444 275 43.3333C275 43.5221 274.936 43.6805 274.808 43.8083C274.681 43.936 274.522 43.9999 274.333 43.9999ZM279.667 43.9999C279.478 43.9999 279.319 43.936 279.192 43.8083C279.064 43.6805 279 43.5221 279 43.3333C279 43.1444 279.064 42.986 279.192 42.8583C279.319 42.7305 279.478 42.6666 279.667 42.6666C279.856 42.6666 280.014 42.7305 280.142 42.8583C280.269 42.986 280.333 43.1444 280.333 43.3333C280.333 43.5221 280.269 43.6805 280.142 43.8083C280.014 43.936 279.856 43.9999 279.667 43.9999Z" fill="#333333"/>
</g>
<g filter="url(#filter0_d_8024_375869)">
<rect x="8" y="68" width="293" height="258" rx="8" fill="#FAFAFA"/>
<g clip-path="url(#clip3_8024_375869)">
<rect x="24" y="84" width="24" height="24" rx="8" fill="white"/>
<g clip-path="url(#clip4_8024_375869)">
<path d="M33.5 96.0065L40.85 103.356C41.1 103.606 41.2208 103.898 41.2125 104.231C41.2042 104.565 41.075 104.856 40.825 105.106C40.575 105.356 40.2833 105.481 39.95 105.481C39.6167 105.481 39.325 105.356 39.075 105.106L31.375 97.4315C31.175 97.2315 31.025 97.0065 30.925 96.7565C30.825 96.5065 30.775 96.2565 30.775 96.0065C30.775 95.7565 30.825 95.5065 30.925 95.2565C31.025 95.0065 31.175 94.7815 31.375 94.5815L39.075 86.8815C39.325 86.6315 39.6208 86.5106 39.9625 86.519C40.3042 86.5273 40.6 86.6565 40.85 86.9065C41.1 87.1565 41.225 87.4481 41.225 87.7815C41.225 88.1148 41.1 88.4065 40.85 88.6565L33.5 96.0065Z" fill="#333333"/>
</g>
<path d="M80.4546 101.168C79.7359 101.168 79.1059 101.042 78.5646 100.79C78.0232 100.538 77.5986 100.179 77.2906 99.712C76.9919 99.2453 76.8379 98.69 76.8286 98.046H78.3966C78.4059 98.5687 78.5879 99.012 78.9426 99.376C79.2972 99.74 79.7966 99.922 80.4406 99.922C81.0099 99.922 81.4532 99.7867 81.7706 99.516C82.0972 99.236 82.2606 98.8813 82.2606 98.452C82.2606 98.1067 82.1812 97.8267 82.0226 97.612C81.8732 97.3973 81.6632 97.22 81.3926 97.08C81.1312 96.94 80.8279 96.814 80.4826 96.702C80.1372 96.59 79.7732 96.4687 79.3906 96.338C78.6346 96.086 78.0652 95.7593 77.6826 95.358C77.3092 94.9567 77.1226 94.4293 77.1226 93.776C77.1132 93.2253 77.2392 92.7447 77.5006 92.334C77.7712 91.9233 78.1446 91.606 78.6206 91.382C79.1059 91.1487 79.6706 91.032 80.3146 91.032C80.9492 91.032 81.5046 91.1487 81.9806 91.382C82.4659 91.6153 82.8439 91.942 83.1146 92.362C83.3852 92.7727 83.5252 93.2533 83.5346 93.804H81.9666C81.9666 93.552 81.9012 93.314 81.7706 93.09C81.6399 92.8567 81.4486 92.6653 81.1966 92.516C80.9446 92.3667 80.6366 92.292 80.2726 92.292C79.8059 92.2827 79.4186 92.3993 79.1106 92.642C78.8119 92.8847 78.6626 93.2207 78.6626 93.65C78.6626 94.0327 78.7746 94.3267 78.9986 94.532C79.2226 94.7373 79.5306 94.91 79.9226 95.05C80.3146 95.1807 80.7626 95.3347 81.2666 95.512C81.7519 95.6707 82.1859 95.862 82.5686 96.086C82.9512 96.31 83.2546 96.604 83.4786 96.968C83.7119 97.332 83.8286 97.794 83.8286 98.354C83.8286 98.8487 83.7026 99.3107 83.4506 99.74C83.1986 100.16 82.8206 100.505 82.3166 100.776C81.8126 101.037 81.1919 101.168 80.4546 101.168ZM88.643 101.168C87.9617 101.168 87.355 101.019 86.823 100.72C86.3004 100.412 85.8897 99.9873 85.591 99.446C85.2924 98.9047 85.143 98.2747 85.143 97.556C85.143 96.828 85.2877 96.1887 85.577 95.638C85.8757 95.0873 86.2864 94.658 86.809 94.35C87.341 94.042 87.957 93.888 88.657 93.888C89.3384 93.888 89.931 94.042 90.435 94.35C90.939 94.6487 91.331 95.05 91.611 95.554C91.891 96.058 92.031 96.6133 92.031 97.22C92.031 97.3133 92.0264 97.416 92.017 97.528C92.017 97.6307 92.0124 97.7473 92.003 97.878H86.599C86.6457 98.55 86.865 99.0633 87.257 99.418C87.6584 99.7633 88.1204 99.936 88.643 99.936C89.063 99.936 89.413 99.8427 89.693 99.656C89.9824 99.46 90.197 99.1987 90.337 98.872H91.821C91.6344 99.5253 91.261 100.071 90.701 100.51C90.1504 100.949 89.4644 101.168 88.643 101.168ZM88.643 95.106C88.1484 95.106 87.7097 95.2553 87.327 95.554C86.9444 95.8433 86.711 96.282 86.627 96.87H90.547C90.519 96.3287 90.3277 95.8993 89.973 95.582C89.6184 95.2647 89.175 95.106 88.643 95.106ZM93.5708 104.08V94.056H94.9008L95.0548 95.134C95.2788 94.8073 95.5868 94.518 95.9788 94.266C96.3708 94.014 96.8748 93.888 97.4908 93.888C98.1628 93.888 98.7555 94.0467 99.2688 94.364C99.7821 94.6813 100.183 95.1153 100.473 95.666C100.771 96.2167 100.921 96.842 100.921 97.542C100.921 98.242 100.771 98.8673 100.473 99.418C100.183 99.9593 99.7821 100.389 99.2688 100.706C98.7555 101.014 98.1581 101.168 97.4768 101.168C96.9355 101.168 96.4548 101.061 96.0348 100.846C95.6241 100.631 95.2975 100.328 95.0548 99.936V104.08H93.5708ZM97.2248 99.88C97.8595 99.88 98.3821 99.6653 98.7928 99.236C99.2035 98.7973 99.4088 98.228 99.4088 97.528C99.4088 97.0707 99.3155 96.6647 99.1288 96.31C98.9421 95.9553 98.6855 95.68 98.3588 95.484C98.0321 95.2787 97.6541 95.176 97.2248 95.176C96.5901 95.176 96.0675 95.3953 95.6568 95.834C95.2555 96.2727 95.0548 96.8373 95.0548 97.528C95.0548 98.228 95.2555 98.7973 95.6568 99.236C96.0675 99.6653 96.5901 99.88 97.2248 99.88ZM105.164 101C104.483 101 103.942 100.837 103.54 100.51C103.139 100.174 102.938 99.5813 102.938 98.732V95.302H101.748V94.056H102.938L103.12 92.292H104.422V94.056H106.382V95.302H104.422V98.732C104.422 99.1147 104.502 99.3807 104.66 99.53C104.828 99.67 105.113 99.74 105.514 99.74H106.312V101H105.164ZM108.753 92.74C108.473 92.74 108.239 92.656 108.053 92.488C107.875 92.3107 107.787 92.0913 107.787 91.83C107.787 91.5687 107.875 91.354 108.053 91.186C108.239 91.0087 108.473 90.92 108.753 90.92C109.033 90.92 109.261 91.0087 109.439 91.186C109.625 91.354 109.719 91.5687 109.719 91.83C109.719 92.0913 109.625 92.3107 109.439 92.488C109.261 92.656 109.033 92.74 108.753 92.74ZM108.011 101V94.056H109.495V101H108.011ZM114.702 101.168C114.02 101.168 113.414 101.019 112.882 100.72C112.359 100.412 111.948 99.9873 111.65 99.446C111.351 98.9047 111.202 98.2747 111.202 97.556C111.202 96.828 111.346 96.1887 111.636 95.638C111.934 95.0873 112.345 94.658 112.868 94.35C113.4 94.042 114.016 93.888 114.716 93.888C115.397 93.888 115.99 94.042 116.494 94.35C116.998 94.6487 117.39 95.05 117.67 95.554C117.95 96.058 118.09 96.6133 118.09 97.22C118.09 97.3133 118.085 97.416 118.076 97.528C118.076 97.6307 118.071 97.7473 118.062 97.878H112.658C112.704 98.55 112.924 99.0633 113.316 99.418C113.717 99.7633 114.179 99.936 114.702 99.936C115.122 99.936 115.472 99.8427 115.752 99.656C116.041 99.46 116.256 99.1987 116.396 98.872H117.88C117.693 99.5253 117.32 100.071 116.76 100.51C116.209 100.949 115.523 101.168 114.702 101.168ZM114.702 95.106C114.207 95.106 113.768 95.2553 113.386 95.554C113.003 95.8433 112.77 96.282 112.686 96.87H116.606C116.578 96.3287 116.386 95.8993 116.032 95.582C115.677 95.2647 115.234 95.106 114.702 95.106ZM119.629 101V94.056H120.945L121.071 95.036C121.295 94.6813 121.589 94.4013 121.953 94.196C122.327 93.9907 122.756 93.888 123.241 93.888C124.343 93.888 125.108 94.322 125.537 95.19C125.789 94.7887 126.125 94.4713 126.545 94.238C126.975 94.0047 127.437 93.888 127.931 93.888C128.799 93.888 129.481 94.1493 129.975 94.672C130.47 95.1947 130.717 95.974 130.717 97.01V101H129.233V97.164C129.233 95.82 128.72 95.148 127.693 95.148C127.171 95.148 126.741 95.344 126.405 95.736C126.079 96.128 125.915 96.688 125.915 97.416V101H124.431V97.164C124.431 95.82 123.913 95.148 122.877 95.148C122.364 95.148 121.939 95.344 121.603 95.736C121.277 96.128 121.113 96.688 121.113 97.416V101H119.629ZM136.36 101.168C135.818 101.168 135.338 101.061 134.918 100.846C134.507 100.631 134.18 100.328 133.938 99.936L133.784 101H132.454V90.92H133.938V95.134C134.162 94.8073 134.47 94.518 134.862 94.266C135.254 94.014 135.758 93.888 136.374 93.888C137.046 93.888 137.638 94.0467 138.152 94.364C138.665 94.6813 139.066 95.1153 139.356 95.666C139.654 96.2167 139.804 96.842 139.804 97.542C139.804 98.242 139.654 98.8673 139.356 99.418C139.066 99.9593 138.665 100.389 138.152 100.706C137.638 101.014 137.041 101.168 136.36 101.168ZM136.108 99.88C136.742 99.88 137.265 99.6653 137.676 99.236C138.086 98.7973 138.292 98.228 138.292 97.528C138.292 97.0707 138.198 96.6647 138.012 96.31C137.825 95.9553 137.568 95.68 137.242 95.484C136.915 95.2787 136.537 95.176 136.108 95.176C135.473 95.176 134.95 95.3953 134.54 95.834C134.138 96.2727 133.938 96.8373 133.938 97.528C133.938 98.228 134.138 98.7973 134.54 99.236C134.95 99.6653 135.473 99.88 136.108 99.88ZM141.409 101V94.056H142.739L142.865 95.372C143.107 94.9147 143.443 94.5553 143.873 94.294C144.311 94.0233 144.839 93.888 145.455 93.888V95.442H145.049C144.638 95.442 144.269 95.512 143.943 95.652C143.625 95.7827 143.369 96.0113 143.173 96.338C142.986 96.6553 142.893 97.0987 142.893 97.668V101H141.409ZM149.784 101.168C149.102 101.168 148.496 101.019 147.964 100.72C147.441 100.412 147.03 99.9873 146.732 99.446C146.433 98.9047 146.284 98.2747 146.284 97.556C146.284 96.828 146.428 96.1887 146.718 95.638C147.016 95.0873 147.427 94.658 147.95 94.35C148.482 94.042 149.098 93.888 149.798 93.888C150.479 93.888 151.072 94.042 151.576 94.35C152.08 94.6487 152.472 95.05 152.752 95.554C153.032 96.058 153.172 96.6133 153.172 97.22C153.172 97.3133 153.167 97.416 153.158 97.528C153.158 97.6307 153.153 97.7473 153.144 97.878H147.74C147.786 98.55 148.006 99.0633 148.398 99.418C148.799 99.7633 149.261 99.936 149.784 99.936C150.204 99.936 150.554 99.8427 150.834 99.656C151.123 99.46 151.338 99.1987 151.478 98.872H152.962C152.775 99.5253 152.402 100.071 151.842 100.51C151.291 100.949 150.605 101.168 149.784 101.168ZM149.784 95.106C149.289 95.106 148.85 95.2553 148.468 95.554C148.085 95.8433 147.852 96.282 147.768 96.87H151.688C151.66 96.3287 151.468 95.8993 151.114 95.582C150.759 95.2647 150.316 95.106 149.784 95.106Z" fill="#333333"/>
<g clip-path="url(#clip5_8024_375869)">
<path d="M164 97.65L168.9 92.75C169.067 92.5833 169.264 92.5028 169.492 92.5083C169.719 92.5139 169.917 92.6 170.083 92.7667C170.25 92.9333 170.333 93.1305 170.333 93.3583C170.333 93.5861 170.25 93.7833 170.083 93.95L164.95 99.0667C164.817 99.2 164.667 99.3 164.5 99.3667C164.333 99.4333 164.167 99.4667 164 99.4667C163.833 99.4667 163.667 99.4333 163.5 99.3667C163.333 99.3 163.183 99.2 163.05 99.0667L157.917 93.9333C157.75 93.7667 157.669 93.5722 157.675 93.35C157.681 93.1278 157.767 92.9333 157.933 92.7667C158.1 92.6 158.297 92.5167 158.525 92.5167C158.753 92.5167 158.95 92.6 159.117 92.7667L164 97.65Z" fill="#616161"/>
</g>
<path d="M181.208 101V99.936C181.843 99.432 182.449 98.9233 183.028 98.41C183.607 97.8967 184.12 97.3927 184.568 96.898C185.025 96.394 185.385 95.904 185.646 95.428C185.907 94.9427 186.038 94.476 186.038 94.028C186.038 93.7293 185.987 93.4493 185.884 93.188C185.781 92.9173 185.613 92.7027 185.38 92.544C185.147 92.376 184.834 92.292 184.442 92.292C183.854 92.292 183.411 92.4787 183.112 92.852C182.823 93.2253 182.683 93.6733 182.692 94.196H181.25C181.259 93.5053 181.404 92.9267 181.684 92.46C181.973 91.9933 182.356 91.6387 182.832 91.396C183.317 91.1533 183.863 91.032 184.47 91.032C185.394 91.032 186.131 91.2933 186.682 91.816C187.242 92.3293 187.522 93.048 187.522 93.972C187.522 94.5227 187.387 95.0687 187.116 95.61C186.855 96.1513 186.509 96.674 186.08 97.178C185.66 97.6727 185.207 98.1393 184.722 98.578C184.237 99.0167 183.775 99.4133 183.336 99.768H187.816V101H181.208ZM193.227 101.168C192.34 101.168 191.575 100.958 190.931 100.538C190.296 100.109 189.806 99.516 189.461 98.76C189.125 97.9947 188.957 97.108 188.957 96.1C188.957 95.092 189.125 94.21 189.461 93.454C189.806 92.6887 190.296 92.096 190.931 91.676C191.575 91.2467 192.34 91.032 193.227 91.032C194.113 91.032 194.874 91.2467 195.508 91.676C196.143 92.096 196.629 92.6887 196.965 93.454C197.31 94.21 197.483 95.092 197.483 96.1C197.483 97.108 197.31 97.9947 196.965 98.76C196.629 99.516 196.143 100.109 195.508 100.538C194.874 100.958 194.113 101.168 193.227 101.168ZM193.227 99.838C193.759 99.838 194.23 99.6887 194.641 99.39C195.061 99.0913 195.387 98.662 195.621 98.102C195.854 97.542 195.971 96.8747 195.971 96.1C195.971 95.3253 195.854 94.658 195.621 94.098C195.387 93.538 195.061 93.1087 194.641 92.81C194.23 92.5113 193.759 92.362 193.227 92.362C192.685 92.362 192.209 92.5113 191.799 92.81C191.388 93.1087 191.066 93.538 190.833 94.098C190.599 94.658 190.483 95.3253 190.483 96.1C190.483 96.8747 190.599 97.542 190.833 98.102C191.066 98.662 191.388 99.0913 191.799 99.39C192.209 99.6887 192.685 99.838 193.227 99.838ZM198.831 101V99.936C199.466 99.432 200.073 98.9233 200.651 98.41C201.23 97.8967 201.743 97.3927 202.191 96.898C202.649 96.394 203.008 95.904 203.269 95.428C203.531 94.9427 203.661 94.476 203.661 94.028C203.661 93.7293 203.61 93.4493 203.507 93.188C203.405 92.9173 203.237 92.7027 203.003 92.544C202.77 92.376 202.457 92.292 202.065 92.292C201.477 92.292 201.034 92.4787 200.735 92.852C200.446 93.2253 200.306 93.6733 200.315 94.196H198.873C198.883 93.5053 199.027 92.9267 199.307 92.46C199.597 91.9933 199.979 91.6387 200.455 91.396C200.941 91.1533 201.487 91.032 202.093 91.032C203.017 91.032 203.755 91.2933 204.305 91.816C204.865 92.3293 205.145 93.048 205.145 93.972C205.145 94.5227 205.01 95.0687 204.739 95.61C204.478 96.1513 204.133 96.674 203.703 97.178C203.283 97.6727 202.831 98.1393 202.345 98.578C201.86 99.0167 201.398 99.4133 200.959 99.768H205.439V101H198.831ZM211.327 101V99.04H206.413V97.864L211.089 91.2H212.797V97.752H214.169V99.04H212.797V101H211.327ZM208.023 97.752H211.411V92.838L208.023 97.752Z" fill="#333333"/>
<g clip-path="url(#clip6_8024_375869)">
<path d="M225 97.65L229.9 92.75C230.067 92.5833 230.264 92.5028 230.492 92.5083C230.719 92.5139 230.917 92.6 231.083 92.7667C231.25 92.9333 231.333 93.1305 231.333 93.3583C231.333 93.5861 231.25 93.7833 231.083 93.95L225.95 99.0667C225.817 99.2 225.667 99.3 225.5 99.3667C225.333 99.4333 225.167 99.4667 225 99.4667C224.833 99.4667 224.667 99.4333 224.5 99.3667C224.333 99.3 224.183 99.2 224.05 99.0667L218.917 93.9333C218.75 93.7667 218.669 93.5722 218.675 93.35C218.681 93.1278 218.767 92.9333 218.933 92.7667C219.1 92.6 219.297 92.5167 219.525 92.5167C219.753 92.5167 219.95 92.6 220.117 92.7667L225 97.65Z" fill="#616161"/>
</g>
<rect x="261" y="84" width="24" height="24" rx="8" fill="white"/>
<g clip-path="url(#clip7_8024_375869)">
<path d="M274.65 96.0001L269.75 91.1001C269.583 90.9334 269.503 90.7362 269.508 90.5084C269.514 90.2806 269.6 90.0834 269.767 89.9167C269.933 89.7501 270.131 89.6667 270.358 89.6667C270.586 89.6667 270.783 89.7501 270.95 89.9167L276.067 95.0501C276.2 95.1834 276.3 95.3334 276.367 95.5001C276.433 95.6667 276.467 95.8334 276.467 96.0001C276.467 96.1667 276.433 96.3334 276.367 96.5001C276.3 96.6667 276.2 96.8167 276.067 96.9501L270.933 102.083C270.767 102.25 270.572 102.331 270.35 102.325C270.128 102.32 269.933 102.233 269.767 102.067C269.6 101.9 269.517 101.703 269.517 101.475C269.517 101.247 269.6 101.05 269.767 100.883L274.65 96.0001Z" fill="#333333"/>
</g>
</g>
<path d="M28.8431 130V121.6H29.8511V129.196H33.7631V130H28.8431ZM37.8205 130.144C37.2445 130.144 36.7205 130.032 36.2485 129.808C35.7845 129.576 35.4125 129.22 35.1325 128.74C34.8525 128.26 34.7125 127.648 34.7125 126.904V121.6H35.7205V126.916C35.7205 127.732 35.9165 128.324 36.3085 128.692C36.7005 129.06 37.2125 129.244 37.8445 129.244C38.4765 129.244 38.9845 129.06 39.3685 128.692C39.7525 128.324 39.9445 127.732 39.9445 126.916V121.6H40.9525V126.904C40.9525 127.648 40.8125 128.26 40.5325 128.74C40.2525 129.22 39.8765 129.576 39.4045 129.808C38.9325 130.032 38.4045 130.144 37.8205 130.144ZM42.6595 130V121.6H43.6675L48.1435 128.332V121.6H49.1515V130H48.1435L43.6675 123.268V130H42.6595Z" fill="#616161"/>
<path d="M65.7669 130V121.6H66.9429L69.9669 127.456L72.9669 121.6H74.1549V130H73.1469V123.4L70.3389 128.8H69.5829L66.7749 123.412V130H65.7669ZM75.3991 130L78.4951 121.6H79.5631L82.6471 130H81.5791L80.8111 127.84H77.2351L76.4551 130H75.3991ZM77.5351 127.024H80.5111L79.0231 122.872L77.5351 127.024ZM83.8958 130V121.6H86.6078C87.2638 121.6 87.7998 121.708 88.2158 121.924C88.6318 122.14 88.9398 122.436 89.1398 122.812C89.3398 123.188 89.4398 123.604 89.4398 124.06C89.4398 124.588 89.2958 125.064 89.0078 125.488C88.7278 125.912 88.2878 126.212 87.6878 126.388L89.5238 130H88.3358L86.6318 126.532H86.5598H84.9038V130H83.8958ZM84.9038 125.74H86.5358C87.1838 125.74 87.6558 125.584 87.9518 125.272C88.2478 124.96 88.3958 124.56 88.3958 124.072C88.3958 123.576 88.2478 123.184 87.9518 122.896C87.6638 122.6 87.1878 122.452 86.5238 122.452H84.9038V125.74Z" fill="#616161"/>
<path d="M107.027 130V121.6H108.203L111.227 127.456L114.227 121.6H115.415V130H114.407V123.4L111.599 128.8H110.843L108.035 123.412V130H107.027ZM117.187 130V121.6H118.195V130H117.187ZM119.976 130V121.6H125.172V122.428H120.984V125.356H124.812V126.172H120.984V129.172H125.172V130H119.976Z" fill="#616161"/>
<path d="M146.942 130.144C146.182 130.144 145.586 129.932 145.154 129.508C144.722 129.084 144.506 128.496 144.506 127.744H145.526C145.526 128.168 145.63 128.524 145.838 128.812C146.046 129.1 146.41 129.244 146.93 129.244C147.434 129.244 147.782 129.104 147.974 128.824C148.174 128.544 148.274 128.196 148.274 127.78V121.6H149.282V127.78C149.282 128.524 149.074 129.104 148.658 129.52C148.25 129.936 147.678 130.144 146.942 130.144ZM154.094 130.144C153.518 130.144 152.994 130.032 152.522 129.808C152.058 129.576 151.686 129.22 151.406 128.74C151.126 128.26 150.986 127.648 150.986 126.904V121.6H151.994V126.916C151.994 127.732 152.19 128.324 152.582 128.692C152.974 129.06 153.486 129.244 154.118 129.244C154.75 129.244 155.258 129.06 155.642 128.692C156.026 128.324 156.218 127.732 156.218 126.916V121.6H157.226V126.904C157.226 127.648 157.086 128.26 156.806 128.74C156.526 129.22 156.15 129.576 155.678 129.808C155.206 130.032 154.678 130.144 154.094 130.144ZM158.933 130V121.6H164.129V122.428H159.941V125.356H163.769V126.172H159.941V129.172H164.129V130H158.933Z" fill="#616161"/>
<path d="M187.631 130L184.475 121.6H185.567L188.219 128.932L190.895 121.6H191.963L188.807 130H187.631ZM193.115 130V121.6H194.123V130H193.115ZM195.904 130V121.6H201.1V122.428H196.912V125.356H200.74V126.172H196.912V129.172H201.1V130H195.904Z" fill="#616161"/>
<path d="M224.002 130.144C223.386 130.144 222.85 130.032 222.394 129.808C221.938 129.584 221.586 129.272 221.338 128.872C221.09 128.472 220.966 128.008 220.966 127.48H222.021C222.021 127.808 222.098 128.112 222.25 128.392C222.402 128.664 222.622 128.884 222.91 129.052C223.206 129.212 223.57 129.292 224.002 129.292C224.57 129.292 225.01 129.156 225.322 128.884C225.634 128.612 225.79 128.272 225.79 127.864C225.79 127.528 225.718 127.26 225.574 127.06C225.43 126.852 225.234 126.684 224.986 126.556C224.746 126.428 224.466 126.316 224.146 126.22C223.834 126.124 223.506 126.016 223.162 125.896C222.514 125.672 222.034 125.396 221.722 125.068C221.41 124.732 221.254 124.296 221.254 123.76C221.246 123.312 221.35 122.916 221.566 122.572C221.782 122.22 222.086 121.948 222.478 121.756C222.878 121.556 223.35 121.456 223.894 121.456C224.43 121.456 224.894 121.556 225.286 121.756C225.686 121.956 225.994 122.232 226.21 122.584C226.434 122.936 226.55 123.336 226.558 123.784H225.502C225.502 123.552 225.442 123.324 225.322 123.1C225.202 122.868 225.018 122.68 224.77 122.536C224.53 122.392 224.226 122.32 223.858 122.32C223.402 122.312 223.026 122.428 222.73 122.668C222.442 122.908 222.298 123.24 222.298 123.664C222.298 124.024 222.398 124.3 222.598 124.492C222.806 124.684 223.094 124.844 223.462 124.972C223.83 125.092 224.254 125.232 224.734 125.392C225.134 125.536 225.494 125.704 225.814 125.896C226.134 126.088 226.382 126.336 226.558 126.64C226.742 126.944 226.834 127.332 226.834 127.804C226.834 128.204 226.73 128.584 226.522 128.944C226.314 129.296 225.998 129.584 225.574 129.808C225.158 130.032 224.634 130.144 224.002 130.144ZM227.735 130L230.831 121.6H231.899L234.983 130H233.915L233.147 127.84H229.571L228.791 130H227.735ZM229.871 127.024H232.847L231.359 122.872L229.871 127.024ZM236.232 130V121.6H239.184C239.776 121.6 240.264 121.696 240.648 121.888C241.04 122.072 241.332 122.328 241.524 122.656C241.716 122.976 241.812 123.336 241.812 123.736C241.812 124.28 241.664 124.708 241.368 125.02C241.08 125.332 240.732 125.548 240.324 125.668C240.636 125.724 240.92 125.848 241.176 126.04C241.432 126.232 241.632 126.472 241.776 126.76C241.928 127.048 242.004 127.364 242.004 127.708C242.004 128.132 241.9 128.52 241.692 128.872C241.484 129.216 241.176 129.492 240.768 129.7C240.36 129.9 239.864 130 239.28 130H236.232ZM237.24 125.272H239.112C239.648 125.272 240.06 125.148 240.348 124.9C240.636 124.644 240.78 124.292 240.78 123.844C240.78 123.42 240.636 123.08 240.348 122.824C240.068 122.568 239.644 122.44 239.076 122.44H237.24V125.272ZM237.24 129.16H239.172C239.748 129.16 240.192 129.028 240.504 128.764C240.816 128.492 240.972 128.116 240.972 127.636C240.972 127.164 240.808 126.788 240.48 126.508C240.152 126.22 239.708 126.076 239.148 126.076H237.24V129.16Z" fill="#616161"/>
<path d="M256.925 130V121.6H259.505C260.985 121.6 262.073 121.976 262.769 122.728C263.473 123.48 263.825 124.512 263.825 125.824C263.825 127.112 263.473 128.132 262.769 128.884C262.073 129.628 260.985 130 259.505 130H256.925ZM257.933 129.16H259.481C260.297 129.16 260.945 129.028 261.425 128.764C261.913 128.492 262.261 128.108 262.469 127.612C262.677 127.108 262.781 126.512 262.781 125.824C262.781 125.12 262.677 124.516 262.469 124.012C262.261 123.508 261.913 123.12 261.425 122.848C260.945 122.576 260.297 122.44 259.481 122.44H257.933V129.16ZM269.097 130.144C268.273 130.144 267.549 129.964 266.925 129.604C266.309 129.236 265.825 128.724 265.473 128.068C265.129 127.412 264.957 126.656 264.957 125.8C264.957 124.944 265.129 124.192 265.473 123.544C265.825 122.888 266.309 122.376 266.925 122.008C267.549 121.64 268.273 121.456 269.097 121.456C269.929 121.456 270.653 121.64 271.269 122.008C271.893 122.376 272.377 122.888 272.721 123.544C273.065 124.192 273.237 124.944 273.237 125.8C273.237 126.656 273.065 127.412 272.721 128.068C272.377 128.724 271.893 129.236 271.269 129.604C270.653 129.964 269.929 130.144 269.097 130.144ZM269.097 129.256C269.713 129.256 270.253 129.12 270.717 128.848C271.189 128.568 271.553 128.172 271.809 127.66C272.073 127.14 272.205 126.52 272.205 125.8C272.205 125.08 272.073 124.464 271.809 123.952C271.553 123.44 271.189 123.048 270.717 122.776C270.253 122.496 269.713 122.356 269.097 122.356C268.481 122.356 267.937 122.496 267.465 122.776C267.001 123.048 266.637 123.44 266.373 123.952C266.117 124.464 265.989 125.08 265.989 125.8C265.989 126.52 266.117 127.14 266.373 127.66C266.637 128.172 267.001 128.568 267.465 128.848C267.937 129.12 268.481 129.256 269.097 129.256ZM274.691 130V121.6H275.867L278.891 127.456L281.891 121.6H283.079V130H282.071V123.4L279.263 128.8H278.507L275.699 123.412V130H274.691Z" fill="#616161"/>
<path d="M38.7325 163.5V155.38L37.1505 155.744V154.652L39.3205 153.7H40.2725V163.5H38.7325Z" fill="#510D58"/>
<rect x="62.5" y="144" width="30" height="30" rx="4" fill="#EBEBEB"/>
<path d="M74.2921 163.5V162.436C74.9268 161.932 75.5335 161.423 76.1121 160.91C76.6908 160.397 77.2041 159.893 77.6521 159.398C78.1095 158.894 78.4688 158.404 78.7301 157.928C78.9915 157.443 79.1221 156.976 79.1221 156.528C79.1221 156.229 79.0708 155.949 78.9681 155.688C78.8655 155.417 78.6975 155.203 78.4641 155.044C78.2308 154.876 77.9181 154.792 77.5261 154.792C76.9381 154.792 76.4948 154.979 76.1961 155.352C75.9068 155.725 75.7668 156.173 75.7761 156.696H74.3341C74.3435 156.005 74.4881 155.427 74.7681 154.96C75.0575 154.493 75.4401 154.139 75.9161 153.896C76.4015 153.653 76.9475 153.532 77.5541 153.532C78.4781 153.532 79.2155 153.793 79.7661 154.316C80.3261 154.829 80.6061 155.548 80.6061 156.472C80.6061 157.023 80.4708 157.569 80.2001 158.11C79.9388 158.651 79.5935 159.174 79.1641 159.678C78.7441 160.173 78.2915 160.639 77.8061 161.078C77.3208 161.517 76.8588 161.913 76.4201 162.268H80.9001V163.5H74.2921Z" fill="#510D58"/>
<path d="M115.987 163.668C115.353 163.668 114.774 163.556 114.251 163.332C113.738 163.099 113.327 162.749 113.019 162.282C112.711 161.815 112.548 161.232 112.529 160.532H113.999C114.018 161.055 114.195 161.498 114.531 161.862C114.877 162.217 115.362 162.394 115.987 162.394C116.585 162.394 117.042 162.231 117.359 161.904C117.677 161.568 117.835 161.153 117.835 160.658C117.835 160.061 117.621 159.617 117.191 159.328C116.771 159.039 116.253 158.894 115.637 158.894H114.909V157.662H115.651C116.202 157.662 116.645 157.531 116.981 157.27C117.327 157.009 117.499 156.64 117.499 156.164C117.499 155.763 117.364 155.436 117.093 155.184C116.832 154.932 116.459 154.806 115.973 154.806C115.469 154.806 115.073 154.955 114.783 155.254C114.494 155.543 114.335 155.907 114.307 156.346H112.837C112.856 155.777 112.996 155.282 113.257 154.862C113.528 154.442 113.897 154.115 114.363 153.882C114.83 153.649 115.367 153.532 115.973 153.532C116.627 153.532 117.173 153.649 117.611 153.882C118.059 154.106 118.395 154.414 118.619 154.806C118.853 155.189 118.969 155.609 118.969 156.066C118.969 156.589 118.825 157.046 118.535 157.438C118.246 157.83 117.859 158.091 117.373 158.222C117.933 158.343 118.395 158.619 118.759 159.048C119.123 159.468 119.305 160.014 119.305 160.686C119.305 161.227 119.179 161.727 118.927 162.184C118.675 162.632 118.302 162.991 117.807 163.262C117.313 163.533 116.706 163.668 115.987 163.668Z" fill="#510D58"/>
<path d="M155.599 163.5V161.54H150.685V160.364L155.361 153.7H157.069V160.252H158.441V161.54H157.069V163.5H155.599ZM152.295 160.252H155.683V155.338L152.295 160.252Z" fill="#510D58"/>
<rect x="178" y="144" width="30" height="30" rx="4" fill="#EBEBEB"/>
<path d="M193.097 163.668C192.406 163.668 191.809 163.547 191.305 163.304C190.801 163.052 190.399 162.711 190.101 162.282C189.811 161.843 189.634 161.349 189.569 160.798H191.025C191.118 161.265 191.351 161.652 191.725 161.96C192.098 162.259 192.56 162.408 193.111 162.408C193.521 162.408 193.876 162.31 194.175 162.114C194.473 161.909 194.707 161.638 194.875 161.302C195.043 160.966 195.127 160.588 195.127 160.168C195.127 159.505 194.94 158.978 194.567 158.586C194.193 158.185 193.722 157.984 193.153 157.984C192.667 157.984 192.252 158.101 191.907 158.334C191.561 158.558 191.309 158.843 191.151 159.188H189.737L190.577 153.7H195.869V155.002H191.697L191.193 157.62C191.407 157.377 191.701 157.177 192.075 157.018C192.457 156.85 192.887 156.766 193.363 156.766C194.025 156.766 194.595 156.92 195.071 157.228C195.547 157.527 195.911 157.933 196.163 158.446C196.424 158.959 196.555 159.529 196.555 160.154C196.555 160.807 196.415 161.4 196.135 161.932C195.855 162.464 195.453 162.889 194.931 163.206C194.417 163.514 193.806 163.668 193.097 163.668Z" fill="#510D58"/>
<rect x="216.5" y="144" width="30" height="30" rx="4" fill="#EBEBEB"/>
<path d="M231.669 163.668C230.95 163.668 230.344 163.533 229.849 163.262C229.354 162.991 228.953 162.632 228.645 162.184C228.346 161.736 228.132 161.232 228.001 160.672C227.87 160.112 227.805 159.538 227.805 158.95C227.805 157.867 227.954 156.92 228.253 156.108C228.561 155.296 229 154.666 229.569 154.218C230.138 153.761 230.829 153.532 231.641 153.532C232.285 153.532 232.836 153.658 233.293 153.91C233.75 154.162 234.105 154.498 234.357 154.918C234.618 155.338 234.777 155.795 234.833 156.29H233.447C233.363 155.805 233.162 155.431 232.845 155.17C232.528 154.909 232.122 154.778 231.627 154.778C230.946 154.778 230.381 155.1 229.933 155.744C229.494 156.379 229.261 157.359 229.233 158.684C229.457 158.273 229.802 157.923 230.269 157.634C230.745 157.345 231.291 157.2 231.907 157.2C232.458 157.2 232.971 157.331 233.447 157.592C233.932 157.853 234.324 158.222 234.623 158.698C234.931 159.165 235.085 159.72 235.085 160.364C235.085 160.933 234.945 161.47 234.665 161.974C234.385 162.478 233.988 162.889 233.475 163.206C232.971 163.514 232.369 163.668 231.669 163.668ZM231.585 162.38C231.977 162.38 232.327 162.296 232.635 162.128C232.943 161.96 233.186 161.731 233.363 161.442C233.54 161.143 233.629 160.807 233.629 160.434C233.629 159.837 233.433 159.361 233.041 159.006C232.658 158.651 232.168 158.474 231.571 158.474C231.179 158.474 230.824 158.563 230.507 158.74C230.199 158.917 229.956 159.155 229.779 159.454C229.602 159.743 229.513 160.065 229.513 160.42C229.513 160.803 229.602 161.143 229.779 161.442C229.966 161.731 230.213 161.96 230.521 162.128C230.838 162.296 231.193 162.38 231.585 162.38Z" fill="#510D58"/>
<path d="M267.941 163.5L271.735 154.974H266.639V153.7H273.261V154.778L269.495 163.5H267.941Z" fill="#510D58"/>
<path d="M38.9992 197.668C38.3458 197.668 37.7532 197.551 37.2212 197.318C36.6985 197.075 36.2785 196.739 35.9612 196.31C35.6532 195.881 35.4992 195.377 35.4992 194.798C35.4992 194.21 35.6625 193.683 35.9892 193.216C36.3252 192.749 36.7685 192.432 37.3192 192.264C36.8245 192.068 36.4418 191.783 36.1712 191.41C35.9005 191.027 35.7652 190.607 35.7652 190.15C35.7652 189.674 35.8912 189.24 36.1432 188.848C36.3952 188.447 36.7592 188.129 37.2352 187.896C37.7205 187.653 38.3085 187.532 38.9992 187.532C39.6898 187.532 40.2732 187.653 40.7492 187.896C41.2345 188.129 41.6032 188.447 41.8552 188.848C42.1072 189.24 42.2332 189.674 42.2332 190.15C42.2332 190.598 42.0932 191.018 41.8132 191.41C41.5425 191.793 41.1598 192.077 40.6652 192.264C41.2158 192.441 41.6545 192.763 41.9812 193.23C42.3172 193.687 42.4852 194.21 42.4852 194.798C42.4852 195.377 42.3312 195.881 42.0232 196.31C41.7152 196.739 41.2952 197.075 40.7632 197.318C40.2405 197.551 39.6525 197.668 38.9992 197.668ZM38.9992 191.788C39.5405 191.788 39.9652 191.648 40.2732 191.368C40.5905 191.088 40.7492 190.729 40.7492 190.29C40.7492 189.795 40.5952 189.417 40.2872 189.156C39.9792 188.895 39.5498 188.764 38.9992 188.764C38.4485 188.764 38.0192 188.895 37.7112 189.156C37.4032 189.417 37.2492 189.795 37.2492 190.29C37.2492 190.729 37.4032 191.088 37.7112 191.368C38.0192 191.648 38.4485 191.788 38.9992 191.788ZM38.9992 196.408C39.6712 196.408 40.1752 196.249 40.5112 195.932C40.8472 195.605 41.0152 195.19 41.0152 194.686C41.0152 194.126 40.8332 193.697 40.4692 193.398C40.1145 193.09 39.6245 192.936 38.9992 192.936C38.3738 192.936 37.8792 193.09 37.5152 193.398C37.1512 193.697 36.9692 194.126 36.9692 194.686C36.9692 195.19 37.1372 195.605 37.4732 195.932C37.8185 196.249 38.3272 196.408 38.9992 196.408Z" fill="#510D58"/>
<path d="M77.3611 197.668C76.7171 197.668 76.1665 197.542 75.7091 197.29C75.2518 197.038 74.8925 196.702 74.6311 196.282C74.3791 195.862 74.2251 195.405 74.1691 194.91H75.5551C75.6391 195.395 75.8398 195.769 76.1571 196.03C76.4745 196.291 76.8805 196.422 77.3751 196.422C78.0565 196.422 78.6165 196.105 79.0551 195.47C79.5031 194.826 79.7411 193.841 79.7691 192.516C79.5451 192.927 79.1951 193.277 78.7191 193.566C78.2525 193.855 77.7111 194 77.0951 194C76.5445 194 76.0265 193.869 75.5411 193.608C75.0558 193.347 74.6638 192.983 74.3651 192.516C74.0665 192.04 73.9171 191.48 73.9171 190.836C73.9171 190.267 74.0571 189.73 74.3371 189.226C74.6171 188.722 75.0091 188.316 75.5131 188.008C76.0265 187.691 76.6331 187.532 77.3331 187.532C78.0518 187.532 78.6585 187.667 79.1531 187.938C79.6478 188.209 80.0445 188.568 80.3431 189.016C80.6418 189.464 80.8565 189.968 80.9871 190.528C81.1271 191.088 81.1971 191.662 81.1971 192.25C81.1971 193.333 81.0431 194.28 80.7351 195.092C80.4365 195.904 80.0025 196.539 79.4331 196.996C78.8638 197.444 78.1731 197.668 77.3611 197.668ZM77.4311 192.726C77.8231 192.726 78.1731 192.637 78.4811 192.46C78.7891 192.283 79.0318 192.049 79.2091 191.76C79.3958 191.461 79.4891 191.135 79.4891 190.78C79.4891 190.397 79.3958 190.061 79.2091 189.772C79.0318 189.473 78.7845 189.24 78.4671 189.072C78.1591 188.904 77.8091 188.82 77.4171 188.82C77.0251 188.82 76.6751 188.904 76.3671 189.072C76.0591 189.24 75.8118 189.473 75.6251 189.772C75.4478 190.061 75.3591 190.393 75.3591 190.766C75.3591 191.363 75.5551 191.839 75.9471 192.194C76.3391 192.549 76.8338 192.726 77.4311 192.726Z" fill="#510D58"/>
<path d="M110.817 197.5V189.38L109.235 189.744V188.652L111.405 187.7H112.357V197.5H110.817ZM118.268 197.668C117.382 197.668 116.616 197.458 115.972 197.038C115.338 196.609 114.848 196.016 114.502 195.26C114.166 194.495 113.998 193.608 113.998 192.6C113.998 191.592 114.166 190.71 114.502 189.954C114.848 189.189 115.338 188.596 115.972 188.176C116.616 187.747 117.382 187.532 118.268 187.532C119.155 187.532 119.916 187.747 120.55 188.176C121.185 188.596 121.67 189.189 122.006 189.954C122.352 190.71 122.524 191.592 122.524 192.6C122.524 193.608 122.352 194.495 122.006 195.26C121.67 196.016 121.185 196.609 120.55 197.038C119.916 197.458 119.155 197.668 118.268 197.668ZM118.268 196.338C118.8 196.338 119.272 196.189 119.682 195.89C120.102 195.591 120.429 195.162 120.662 194.602C120.896 194.042 121.012 193.375 121.012 192.6C121.012 191.825 120.896 191.158 120.662 190.598C120.429 190.038 120.102 189.609 119.682 189.31C119.272 189.011 118.8 188.862 118.268 188.862C117.727 188.862 117.251 189.011 116.84 189.31C116.43 189.609 116.108 190.038 115.874 190.598C115.641 191.158 115.524 191.825 115.524 192.6C115.524 193.375 115.641 194.042 115.874 194.602C116.108 195.162 116.43 195.591 116.84 195.89C117.251 196.189 117.727 196.338 118.268 196.338Z" fill="#510D58"/>
<path d="M151.963 197.5V189.38L150.381 189.744V188.652L152.551 187.7H153.503V197.5H151.963ZM156.502 197.5V189.38L154.92 189.744V188.652L157.09 187.7H158.042V197.5H156.502Z" fill="#510D58"/>
<path d="M188.727 197.5V189.38L187.145 189.744V188.652L189.315 187.7H190.267V197.5H188.727ZM192.062 197.5V196.436C192.696 195.932 193.303 195.423 193.882 194.91C194.46 194.397 194.974 193.893 195.422 193.398C195.879 192.894 196.238 192.404 196.5 191.928C196.761 191.443 196.892 190.976 196.892 190.528C196.892 190.229 196.84 189.949 196.738 189.688C196.635 189.417 196.467 189.203 196.234 189.044C196 188.876 195.688 188.792 195.296 188.792C194.708 188.792 194.264 188.979 193.966 189.352C193.676 189.725 193.536 190.173 193.546 190.696H192.104C192.113 190.005 192.258 189.427 192.538 188.96C192.827 188.493 193.21 188.139 193.686 187.896C194.171 187.653 194.717 187.532 195.324 187.532C196.248 187.532 196.985 187.793 197.536 188.316C198.096 188.829 198.376 189.548 198.376 190.472C198.376 191.023 198.24 191.569 197.97 192.11C197.708 192.651 197.363 193.174 196.934 193.678C196.514 194.173 196.061 194.639 195.576 195.078C195.09 195.517 194.628 195.913 194.19 196.268H198.67V197.5H192.062Z" fill="#510D58"/>
<path d="M227.09 197.5V189.38L225.508 189.744V188.652L227.678 187.7H228.63V197.5H227.09ZM233.757 197.668C233.122 197.668 232.544 197.556 232.021 197.332C231.508 197.099 231.097 196.749 230.789 196.282C230.481 195.815 230.318 195.232 230.299 194.532H231.769C231.788 195.055 231.965 195.498 232.301 195.862C232.646 196.217 233.132 196.394 233.757 196.394C234.354 196.394 234.812 196.231 235.129 195.904C235.446 195.568 235.605 195.153 235.605 194.658C235.605 194.061 235.39 193.617 234.961 193.328C234.541 193.039 234.023 192.894 233.407 192.894H232.679V191.662H233.421C233.972 191.662 234.415 191.531 234.751 191.27C235.096 191.009 235.269 190.64 235.269 190.164C235.269 189.763 235.134 189.436 234.863 189.184C234.602 188.932 234.228 188.806 233.743 188.806C233.239 188.806 232.842 188.955 232.553 189.254C232.264 189.543 232.105 189.907 232.077 190.346H230.607C230.626 189.777 230.766 189.282 231.027 188.862C231.298 188.442 231.666 188.115 232.133 187.882C232.6 187.649 233.136 187.532 233.743 187.532C234.396 187.532 234.942 187.649 235.381 187.882C235.829 188.106 236.165 188.414 236.389 188.806C236.622 189.189 236.739 189.609 236.739 190.066C236.739 190.589 236.594 191.046 236.305 191.438C236.016 191.83 235.628 192.091 235.143 192.222C235.703 192.343 236.165 192.619 236.529 193.048C236.893 193.468 237.075 194.014 237.075 194.686C237.075 195.227 236.949 195.727 236.697 196.184C236.445 196.632 236.072 196.991 235.577 197.262C235.082 197.533 234.476 197.668 233.757 197.668Z" fill="#510D58"/>
<path d="M265.371 197.5V189.38L263.789 189.744V188.652L265.959 187.7H266.911V197.5H265.371ZM273.368 197.5V195.54H268.454V194.364L273.13 187.7H274.838V194.252H276.21V195.54H274.838V197.5H273.368ZM270.064 194.252H273.452V189.338L270.064 194.252Z" fill="#510D58"/>
<rect x="24" y="212" width="30" height="30" rx="4" fill="#EBEBEB"/>
<path d="M34.419 231.5V223.38L32.837 223.744V222.652L35.007 221.7H35.959V231.5H34.419ZM41.3661 231.668C40.6754 231.668 40.0781 231.547 39.5741 231.304C39.0701 231.052 38.6687 230.711 38.3701 230.282C38.0807 229.843 37.9034 229.349 37.8381 228.798H39.2941C39.3874 229.265 39.6207 229.652 39.9941 229.96C40.3674 230.259 40.8294 230.408 41.3801 230.408C41.7907 230.408 42.1454 230.31 42.4441 230.114C42.7427 229.909 42.9761 229.638 43.1441 229.302C43.3121 228.966 43.3961 228.588 43.3961 228.168C43.3961 227.505 43.2094 226.978 42.8361 226.586C42.4627 226.185 41.9914 225.984 41.4221 225.984C40.9367 225.984 40.5214 226.101 40.1761 226.334C39.8307 226.558 39.5787 226.843 39.4201 227.188H38.0061L38.8461 221.7H44.1381V223.002H39.9661L39.4621 225.62C39.6767 225.377 39.9707 225.177 40.3441 225.018C40.7267 224.85 41.1561 224.766 41.6321 224.766C42.2947 224.766 42.8641 224.92 43.3401 225.228C43.8161 225.527 44.1801 225.933 44.4321 226.446C44.6934 226.959 44.8241 227.529 44.8241 228.154C44.8241 228.807 44.6841 229.4 44.4041 229.932C44.1241 230.464 43.7227 230.889 43.2001 231.206C42.6867 231.514 42.0754 231.668 41.3661 231.668Z" fill="#510D58"/>
<path d="M72.8096 231.5V223.38L71.2276 223.744V222.652L73.3976 221.7H74.3496V231.5H72.8096ZM79.9387 231.668C79.22 231.668 78.6133 231.533 78.1187 231.262C77.624 230.991 77.2227 230.632 76.9147 230.184C76.616 229.736 76.4013 229.232 76.2707 228.672C76.14 228.112 76.0747 227.538 76.0747 226.95C76.0747 225.867 76.224 224.92 76.5227 224.108C76.8307 223.296 77.2693 222.666 77.8387 222.218C78.408 221.761 79.0987 221.532 79.9107 221.532C80.5547 221.532 81.1053 221.658 81.5627 221.91C82.02 222.162 82.3747 222.498 82.6267 222.918C82.888 223.338 83.0467 223.795 83.1027 224.29H81.7167C81.6327 223.805 81.432 223.431 81.1147 223.17C80.7973 222.909 80.3913 222.778 79.8967 222.778C79.2153 222.778 78.6507 223.1 78.2027 223.744C77.764 224.379 77.5307 225.359 77.5027 226.684C77.7267 226.273 78.072 225.923 78.5387 225.634C79.0147 225.345 79.5607 225.2 80.1767 225.2C80.7273 225.2 81.2407 225.331 81.7167 225.592C82.202 225.853 82.594 226.222 82.8927 226.698C83.2007 227.165 83.3547 227.72 83.3547 228.364C83.3547 228.933 83.2147 229.47 82.9347 229.974C82.6547 230.478 82.258 230.889 81.7447 231.206C81.2407 231.514 80.6387 231.668 79.9387 231.668ZM79.8547 230.38C80.2467 230.38 80.5967 230.296 80.9047 230.128C81.2127 229.96 81.4553 229.731 81.6327 229.442C81.81 229.143 81.8987 228.807 81.8987 228.434C81.8987 227.837 81.7027 227.361 81.3107 227.006C80.928 226.651 80.438 226.474 79.8407 226.474C79.4487 226.474 79.094 226.563 78.7767 226.74C78.4687 226.917 78.226 227.155 78.0487 227.454C77.8713 227.743 77.7827 228.065 77.7827 228.42C77.7827 228.803 77.8713 229.143 78.0487 229.442C78.2353 229.731 78.4827 229.96 78.7907 230.128C79.108 230.296 79.4627 230.38 79.8547 230.38Z" fill="#510D58"/>
<path d="M111.993 231.5V223.38L110.411 223.744V222.652L112.581 221.7H113.533V231.5H111.993ZM116.21 231.5L120.004 222.974H114.908V221.7H121.53V222.778L117.764 231.5H116.21Z" fill="#510D58"/>
<rect x="139.5" y="212" width="30" height="30" rx="4" fill="#EBEBEB"/>
<path d="M149.892 231.5V223.38L148.31 223.744V222.652L150.48 221.7H151.432V231.5H149.892ZM156.769 231.668C156.115 231.668 155.523 231.551 154.991 231.318C154.468 231.075 154.048 230.739 153.731 230.31C153.423 229.881 153.269 229.377 153.269 228.798C153.269 228.21 153.432 227.683 153.759 227.216C154.095 226.749 154.538 226.432 155.089 226.264C154.594 226.068 154.211 225.783 153.941 225.41C153.67 225.027 153.535 224.607 153.535 224.15C153.535 223.674 153.661 223.24 153.913 222.848C154.165 222.447 154.529 222.129 155.005 221.896C155.49 221.653 156.078 221.532 156.769 221.532C157.459 221.532 158.043 221.653 158.519 221.896C159.004 222.129 159.373 222.447 159.625 222.848C159.877 223.24 160.003 223.674 160.003 224.15C160.003 224.598 159.863 225.018 159.583 225.41C159.312 225.793 158.929 226.077 158.435 226.264C158.985 226.441 159.424 226.763 159.751 227.23C160.087 227.687 160.255 228.21 160.255 228.798C160.255 229.377 160.101 229.881 159.793 230.31C159.485 230.739 159.065 231.075 158.533 231.318C158.01 231.551 157.422 231.668 156.769 231.668ZM156.769 225.788C157.31 225.788 157.735 225.648 158.043 225.368C158.36 225.088 158.519 224.729 158.519 224.29C158.519 223.795 158.365 223.417 158.057 223.156C157.749 222.895 157.319 222.764 156.769 222.764C156.218 222.764 155.789 222.895 155.481 223.156C155.173 223.417 155.019 223.795 155.019 224.29C155.019 224.729 155.173 225.088 155.481 225.368C155.789 225.648 156.218 225.788 156.769 225.788ZM156.769 230.408C157.441 230.408 157.945 230.249 158.281 229.932C158.617 229.605 158.785 229.19 158.785 228.686C158.785 228.126 158.603 227.697 158.239 227.398C157.884 227.09 157.394 226.936 156.769 226.936C156.143 226.936 155.649 227.09 155.285 227.398C154.921 227.697 154.739 228.126 154.739 228.686C154.739 229.19 154.907 229.605 155.243 229.932C155.588 230.249 156.097 230.408 156.769 230.408Z" fill="#510D58"/>
<rect x="178" y="212" width="30" height="30" rx="4" fill="#F9A0B1"/>
<path d="M192.732 231.5V223.38L191.15 223.744V222.652L193.32 221.7H194.272V231.5H192.732Z" fill="#510D58"/>
<path d="M223.432 231.5V230.436C224.066 229.932 224.673 229.423 225.252 228.91C225.83 228.397 226.344 227.893 226.792 227.398C227.249 226.894 227.608 226.404 227.87 225.928C228.131 225.443 228.262 224.976 228.262 224.528C228.262 224.229 228.21 223.949 228.108 223.688C228.005 223.417 227.837 223.203 227.604 223.044C227.37 222.876 227.058 222.792 226.666 222.792C226.078 222.792 225.634 222.979 225.336 223.352C225.046 223.725 224.906 224.173 224.916 224.696H223.474C223.483 224.005 223.628 223.427 223.908 222.96C224.197 222.493 224.58 222.139 225.056 221.896C225.541 221.653 226.087 221.532 226.694 221.532C227.618 221.532 228.355 221.793 228.906 222.316C229.466 222.829 229.746 223.548 229.746 224.472C229.746 225.023 229.61 225.569 229.34 226.11C229.078 226.651 228.733 227.174 228.304 227.678C227.884 228.173 227.431 228.639 226.946 229.078C226.46 229.517 225.998 229.913 225.56 230.268H230.04V231.5H223.432ZM235.45 231.668C234.563 231.668 233.798 231.458 233.154 231.038C232.519 230.609 232.029 230.016 231.684 229.26C231.348 228.495 231.18 227.608 231.18 226.6C231.18 225.592 231.348 224.71 231.684 223.954C232.029 223.189 232.519 222.596 233.154 222.176C233.798 221.747 234.563 221.532 235.45 221.532C236.337 221.532 237.097 221.747 237.732 222.176C238.367 222.596 238.852 223.189 239.188 223.954C239.533 224.71 239.706 225.592 239.706 226.6C239.706 227.608 239.533 228.495 239.188 229.26C238.852 230.016 238.367 230.609 237.732 231.038C237.097 231.458 236.337 231.668 235.45 231.668ZM235.45 230.338C235.982 230.338 236.453 230.189 236.864 229.89C237.284 229.591 237.611 229.162 237.844 228.602C238.077 228.042 238.194 227.375 238.194 226.6C238.194 225.825 238.077 225.158 237.844 224.598C237.611 224.038 237.284 223.609 236.864 223.31C236.453 223.011 235.982 222.862 235.45 222.862C234.909 222.862 234.433 223.011 234.022 223.31C233.611 223.609 233.289 224.038 233.056 224.598C232.823 225.158 232.706 225.825 232.706 226.6C232.706 227.375 232.823 228.042 233.056 228.602C233.289 229.162 233.611 229.591 234.022 229.89C234.433 230.189 234.909 230.338 235.45 230.338Z" fill="#510D58"/>
<path d="M264.523 231.5V230.436C265.157 229.932 265.764 229.423 266.343 228.91C266.921 228.397 267.435 227.893 267.883 227.398C268.34 226.894 268.699 226.404 268.961 225.928C269.222 225.443 269.353 224.976 269.353 224.528C269.353 224.229 269.301 223.949 269.199 223.688C269.096 223.417 268.928 223.203 268.695 223.044C268.461 222.876 268.149 222.792 267.757 222.792C267.169 222.792 266.725 222.979 266.427 223.352C266.137 223.725 265.997 224.173 266.007 224.696H264.565C264.574 224.005 264.719 223.427 264.999 222.96C265.288 222.493 265.671 222.139 266.147 221.896C266.632 221.653 267.178 221.532 267.785 221.532C268.709 221.532 269.446 221.793 269.997 222.316C270.557 222.829 270.837 223.548 270.837 224.472C270.837 225.023 270.701 225.569 270.431 226.11C270.169 226.651 269.824 227.174 269.395 227.678C268.975 228.173 268.522 228.639 268.037 229.078C267.551 229.517 267.089 229.913 266.651 230.268H271.131V231.5H264.523ZM273.738 231.5V223.38L272.156 223.744V222.652L274.326 221.7H275.278V231.5H273.738Z" fill="#510D58"/>
<path d="M31.7863 265.5V264.436C32.4209 263.932 33.0276 263.423 33.6063 262.91C34.1849 262.397 34.6983 261.893 35.1463 261.398C35.6036 260.894 35.9629 260.404 36.2243 259.928C36.4856 259.443 36.6163 258.976 36.6163 258.528C36.6163 258.229 36.5649 257.949 36.4623 257.688C36.3596 257.417 36.1916 257.203 35.9583 257.044C35.7249 256.876 35.4123 256.792 35.0203 256.792C34.4323 256.792 33.9889 256.979 33.6903 257.352C33.4009 257.725 33.2609 258.173 33.2703 258.696H31.8283C31.8376 258.005 31.9823 257.427 32.2623 256.96C32.5516 256.493 32.9343 256.139 33.4103 255.896C33.8956 255.653 34.4416 255.532 35.0483 255.532C35.9723 255.532 36.7096 255.793 37.2603 256.316C37.8203 256.829 38.1003 257.548 38.1003 258.472C38.1003 259.023 37.9649 259.569 37.6943 260.11C37.4329 260.651 37.0876 261.174 36.6583 261.678C36.2383 262.173 35.7856 262.639 35.3003 263.078C34.8149 263.517 34.3529 263.913 33.9143 264.268H38.3943V265.5H31.7863ZM39.798 265.5V264.436C40.4327 263.932 41.0393 263.423 41.618 262.91C42.1967 262.397 42.71 261.893 43.158 261.398C43.6153 260.894 43.9747 260.404 44.236 259.928C44.4973 259.443 44.628 258.976 44.628 258.528C44.628 258.229 44.5767 257.949 44.474 257.688C44.3713 257.417 44.2033 257.203 43.97 257.044C43.7367 256.876 43.424 256.792 43.032 256.792C42.444 256.792 42.0007 256.979 41.702 257.352C41.4127 257.725 41.2727 258.173 41.282 258.696H39.84C39.8493 258.005 39.994 257.427 40.274 256.96C40.5633 256.493 40.946 256.139 41.422 255.896C41.9073 255.653 42.4533 255.532 43.06 255.532C43.984 255.532 44.7213 255.793 45.272 256.316C45.832 256.829 46.112 257.548 46.112 258.472C46.112 259.023 45.9767 259.569 45.706 260.11C45.4447 260.651 45.0993 261.174 44.67 261.678C44.25 262.173 43.7973 262.639 43.312 263.078C42.8267 263.517 42.3647 263.913 41.926 264.268H46.406V265.5H39.798Z" fill="#510D58"/>
<path d="M70.1496 265.5V264.436C70.7842 263.932 71.3909 263.423 71.9696 262.91C72.5482 262.397 73.0616 261.893 73.5096 261.398C73.9669 260.894 74.3262 260.404 74.5876 259.928C74.8489 259.443 74.9796 258.976 74.9796 258.528C74.9796 258.229 74.9282 257.949 74.8256 257.688C74.7229 257.417 74.5549 257.203 74.3216 257.044C74.0882 256.876 73.7756 256.792 73.3836 256.792C72.7956 256.792 72.3522 256.979 72.0536 257.352C71.7642 257.725 71.6242 258.173 71.6336 258.696H70.1916C70.2009 258.005 70.3456 257.427 70.6256 256.96C70.9149 256.493 71.2976 256.139 71.7736 255.896C72.2589 255.653 72.8049 255.532 73.4116 255.532C74.3356 255.532 75.0729 255.793 75.6236 256.316C76.1836 256.829 76.4636 257.548 76.4636 258.472C76.4636 259.023 76.3282 259.569 76.0576 260.11C75.7962 260.651 75.4509 261.174 75.0216 261.678C74.6016 262.173 74.1489 262.639 73.6636 263.078C73.1782 263.517 72.7162 263.913 72.2776 264.268H76.7576V265.5H70.1496ZM81.4933 265.668C80.8586 265.668 80.2799 265.556 79.7573 265.332C79.2439 265.099 78.8333 264.749 78.5253 264.282C78.2173 263.815 78.0539 263.232 78.0353 262.532H79.5053C79.5239 263.055 79.7013 263.498 80.0373 263.862C80.3826 264.217 80.8679 264.394 81.4933 264.394C82.0906 264.394 82.5479 264.231 82.8653 263.904C83.1826 263.568 83.3413 263.153 83.3413 262.658C83.3413 262.061 83.1266 261.617 82.6973 261.328C82.2773 261.039 81.7593 260.894 81.1433 260.894H80.4153V259.662H81.1573C81.7079 259.662 82.1513 259.531 82.4873 259.27C82.8326 259.009 83.0053 258.64 83.0053 258.164C83.0053 257.763 82.8699 257.436 82.5993 257.184C82.3379 256.932 81.9646 256.806 81.4793 256.806C80.9753 256.806 80.5786 256.955 80.2893 257.254C79.9999 257.543 79.8413 257.907 79.8133 258.346H78.3433C78.3619 257.777 78.5019 257.282 78.7633 256.862C79.0339 256.442 79.4026 256.115 79.8693 255.882C80.3359 255.649 80.8726 255.532 81.4793 255.532C82.1326 255.532 82.6786 255.649 83.1173 255.882C83.5653 256.106 83.9013 256.414 84.1253 256.806C84.3586 257.189 84.4753 257.609 84.4753 258.066C84.4753 258.589 84.3306 259.046 84.0413 259.438C83.7519 259.83 83.3646 260.091 82.8793 260.222C83.4393 260.343 83.9013 260.619 84.2653 261.048C84.6293 261.468 84.8113 262.014 84.8113 262.686C84.8113 263.227 84.6853 263.727 84.4333 264.184C84.1813 264.632 83.8079 264.991 83.3133 265.262C82.8186 265.533 82.2119 265.668 81.4933 265.668Z" fill="#510D58"/>
<path d="M108.52 265.5V264.436C109.154 263.932 109.761 263.423 110.34 262.91C110.918 262.397 111.432 261.893 111.88 261.398C112.337 260.894 112.696 260.404 112.958 259.928C113.219 259.443 113.35 258.976 113.35 258.528C113.35 258.229 113.298 257.949 113.196 257.688C113.093 257.417 112.925 257.203 112.692 257.044C112.458 256.876 112.146 256.792 111.754 256.792C111.166 256.792 110.722 256.979 110.424 257.352C110.134 257.725 109.994 258.173 110.004 258.696H108.562C108.571 258.005 108.716 257.427 108.996 256.96C109.285 256.493 109.668 256.139 110.144 255.896C110.629 255.653 111.175 255.532 111.782 255.532C112.706 255.532 113.443 255.793 113.994 256.316C114.554 256.829 114.834 257.548 114.834 258.472C114.834 259.023 114.698 259.569 114.428 260.11C114.166 260.651 113.821 261.174 113.392 261.678C112.972 262.173 112.519 262.639 112.034 263.078C111.548 263.517 111.086 263.913 110.648 264.268H115.128V265.5H108.52ZM121.016 265.5V263.54H116.102V262.364L120.778 255.7H122.486V262.252H123.858V263.54H122.486V265.5H121.016ZM117.712 262.252H121.1V257.338L117.712 262.252Z" fill="#510D58"/>
<path d="M146.979 265.5V264.436C147.613 263.932 148.22 263.423 148.799 262.91C149.377 262.397 149.891 261.893 150.339 261.398C150.796 260.894 151.155 260.404 151.417 259.928C151.678 259.443 151.809 258.976 151.809 258.528C151.809 258.229 151.757 257.949 151.655 257.688C151.552 257.417 151.384 257.203 151.151 257.044C150.917 256.876 150.605 256.792 150.213 256.792C149.625 256.792 149.181 256.979 148.883 257.352C148.593 257.725 148.453 258.173 148.463 258.696H147.021C147.03 258.005 147.175 257.427 147.455 256.96C147.744 256.493 148.127 256.139 148.603 255.896C149.088 255.653 149.634 255.532 150.241 255.532C151.165 255.532 151.902 255.793 152.453 256.316C153.013 256.829 153.293 257.548 153.293 258.472C153.293 259.023 153.157 259.569 152.887 260.11C152.625 260.651 152.28 261.174 151.851 261.678C151.431 262.173 150.978 262.639 150.493 263.078C150.007 263.517 149.545 263.913 149.107 264.268H153.587V265.5H146.979ZM158.602 265.668C157.912 265.668 157.314 265.547 156.81 265.304C156.306 265.052 155.905 264.711 155.606 264.282C155.317 263.843 155.14 263.349 155.074 262.798H156.53C156.624 263.265 156.857 263.652 157.23 263.96C157.604 264.259 158.066 264.408 158.616 264.408C159.027 264.408 159.382 264.31 159.68 264.114C159.979 263.909 160.212 263.638 160.38 263.302C160.548 262.966 160.632 262.588 160.632 262.168C160.632 261.505 160.446 260.978 160.072 260.586C159.699 260.185 159.228 259.984 158.658 259.984C158.173 259.984 157.758 260.101 157.412 260.334C157.067 260.558 156.815 260.843 156.656 261.188H155.242L156.082 255.7H161.374V257.002H157.202L156.698 259.62C156.913 259.377 157.207 259.177 157.58 259.018C157.963 258.85 158.392 258.766 158.868 258.766C159.531 258.766 160.1 258.92 160.576 259.228C161.052 259.527 161.416 259.933 161.668 260.446C161.93 260.959 162.06 261.529 162.06 262.154C162.06 262.807 161.92 263.4 161.64 263.932C161.36 264.464 160.959 264.889 160.436 265.206C159.923 265.514 159.312 265.668 158.602 265.668Z" fill="#510D58"/>
<path d="M185.369 265.5V264.436C186.004 263.932 186.611 263.423 187.189 262.91C187.768 262.397 188.281 261.893 188.729 261.398C189.187 260.894 189.546 260.404 189.807 259.928C190.069 259.443 190.199 258.976 190.199 258.528C190.199 258.229 190.148 257.949 190.045 257.688C189.943 257.417 189.775 257.203 189.541 257.044C189.308 256.876 188.995 256.792 188.603 256.792C188.015 256.792 187.572 256.979 187.273 257.352C186.984 257.725 186.844 258.173 186.853 258.696H185.411C185.421 258.005 185.565 257.427 185.845 256.96C186.135 256.493 186.517 256.139 186.993 255.896C187.479 255.653 188.025 255.532 188.631 255.532C189.555 255.532 190.293 255.793 190.843 256.316C191.403 256.829 191.683 257.548 191.683 258.472C191.683 259.023 191.548 259.569 191.277 260.11C191.016 260.651 190.671 261.174 190.241 261.678C189.821 262.173 189.369 262.639 188.883 263.078C188.398 263.517 187.936 263.913 187.497 264.268H191.977V265.5H185.369ZM197.175 265.668C196.456 265.668 195.85 265.533 195.355 265.262C194.86 264.991 194.459 264.632 194.151 264.184C193.852 263.736 193.638 263.232 193.507 262.672C193.376 262.112 193.311 261.538 193.311 260.95C193.311 259.867 193.46 258.92 193.759 258.108C194.067 257.296 194.506 256.666 195.075 256.218C195.644 255.761 196.335 255.532 197.147 255.532C197.791 255.532 198.342 255.658 198.799 255.91C199.256 256.162 199.611 256.498 199.863 256.918C200.124 257.338 200.283 257.795 200.339 258.29H198.953C198.869 257.805 198.668 257.431 198.351 257.17C198.034 256.909 197.628 256.778 197.133 256.778C196.452 256.778 195.887 257.1 195.439 257.744C195 258.379 194.767 259.359 194.739 260.684C194.963 260.273 195.308 259.923 195.775 259.634C196.251 259.345 196.797 259.2 197.413 259.2C197.964 259.2 198.477 259.331 198.953 259.592C199.438 259.853 199.83 260.222 200.129 260.698C200.437 261.165 200.591 261.72 200.591 262.364C200.591 262.933 200.451 263.47 200.171 263.974C199.891 264.478 199.494 264.889 198.981 265.206C198.477 265.514 197.875 265.668 197.175 265.668ZM197.091 264.38C197.483 264.38 197.833 264.296 198.141 264.128C198.449 263.96 198.692 263.731 198.869 263.442C199.046 263.143 199.135 262.807 199.135 262.434C199.135 261.837 198.939 261.361 198.547 261.006C198.164 260.651 197.674 260.474 197.077 260.474C196.685 260.474 196.33 260.563 196.013 260.74C195.705 260.917 195.462 261.155 195.285 261.454C195.108 261.743 195.019 262.065 195.019 262.42C195.019 262.803 195.108 263.143 195.285 263.442C195.472 263.731 195.719 263.96 196.027 264.128C196.344 264.296 196.699 264.38 197.091 264.38Z" fill="#510D58"/>
<path d="M224.642 265.5V264.436C225.276 263.932 225.883 263.423 226.462 262.91C227.04 262.397 227.554 261.893 228.002 261.398C228.459 260.894 228.818 260.404 229.08 259.928C229.341 259.443 229.472 258.976 229.472 258.528C229.472 258.229 229.42 257.949 229.318 257.688C229.215 257.417 229.047 257.203 228.814 257.044C228.58 256.876 228.268 256.792 227.876 256.792C227.288 256.792 226.844 256.979 226.546 257.352C226.256 257.725 226.116 258.173 226.126 258.696H224.684C224.693 258.005 224.838 257.427 225.118 256.96C225.407 256.493 225.79 256.139 226.266 255.896C226.751 255.653 227.297 255.532 227.904 255.532C228.828 255.532 229.565 255.793 230.116 256.316C230.676 256.829 230.956 257.548 230.956 258.472C230.956 259.023 230.82 259.569 230.55 260.11C230.288 260.651 229.943 261.174 229.514 261.678C229.094 262.173 228.641 262.639 228.156 263.078C227.67 263.517 227.208 263.913 226.77 264.268H231.25V265.5H224.642ZM233.358 265.5L237.152 256.974H232.056V255.7H238.678V256.778L234.912 265.5H233.358Z" fill="#510D58"/>
<path d="M262.54 265.5V264.436C263.175 263.932 263.782 263.423 264.36 262.91C264.939 262.397 265.452 261.893 265.9 261.398C266.358 260.894 266.717 260.404 266.978 259.928C267.24 259.443 267.37 258.976 267.37 258.528C267.37 258.229 267.319 257.949 267.216 257.688C267.114 257.417 266.946 257.203 266.712 257.044C266.479 256.876 266.166 256.792 265.774 256.792C265.186 256.792 264.743 256.979 264.444 257.352C264.155 257.725 264.015 258.173 264.024 258.696H262.582C262.592 258.005 262.736 257.427 263.016 256.96C263.306 256.493 263.688 256.139 264.164 255.896C264.65 255.653 265.196 255.532 265.802 255.532C266.726 255.532 267.464 255.793 268.014 256.316C268.574 256.829 268.854 257.548 268.854 258.472C268.854 259.023 268.719 259.569 268.448 260.11C268.187 260.651 267.842 261.174 267.412 261.678C266.992 262.173 266.54 262.639 266.054 263.078C265.569 263.517 265.107 263.913 264.668 264.268H269.148V265.5H262.54ZM273.916 265.668C273.263 265.668 272.67 265.551 272.138 265.318C271.616 265.075 271.196 264.739 270.878 264.31C270.57 263.881 270.416 263.377 270.416 262.798C270.416 262.21 270.58 261.683 270.906 261.216C271.242 260.749 271.686 260.432 272.236 260.264C271.742 260.068 271.359 259.783 271.088 259.41C270.818 259.027 270.682 258.607 270.682 258.15C270.682 257.674 270.808 257.24 271.06 256.848C271.312 256.447 271.676 256.129 272.152 255.896C272.638 255.653 273.226 255.532 273.916 255.532C274.607 255.532 275.19 255.653 275.666 255.896C276.152 256.129 276.52 256.447 276.772 256.848C277.024 257.24 277.15 257.674 277.15 258.15C277.15 258.598 277.01 259.018 276.73 259.41C276.46 259.793 276.077 260.077 275.582 260.264C276.133 260.441 276.572 260.763 276.898 261.23C277.234 261.687 277.402 262.21 277.402 262.798C277.402 263.377 277.248 263.881 276.94 264.31C276.632 264.739 276.212 265.075 275.68 265.318C275.158 265.551 274.57 265.668 273.916 265.668ZM273.916 259.788C274.458 259.788 274.882 259.648 275.19 259.368C275.508 259.088 275.666 258.729 275.666 258.29C275.666 257.795 275.512 257.417 275.204 257.156C274.896 256.895 274.467 256.764 273.916 256.764C273.366 256.764 272.936 256.895 272.628 257.156C272.32 257.417 272.166 257.795 272.166 258.29C272.166 258.729 272.32 259.088 272.628 259.368C272.936 259.648 273.366 259.788 273.916 259.788ZM273.916 264.408C274.588 264.408 275.092 264.249 275.428 263.932C275.764 263.605 275.932 263.19 275.932 262.686C275.932 262.126 275.75 261.697 275.386 261.398C275.032 261.09 274.542 260.936 273.916 260.936C273.291 260.936 272.796 261.09 272.432 261.398C272.068 261.697 271.886 262.126 271.886 262.686C271.886 263.19 272.054 263.605 272.39 263.932C272.736 264.249 273.244 264.408 273.916 264.408Z" fill="#510D58"/>
<path d="M31.424 299.5V298.436C32.0586 297.932 32.6653 297.423 33.244 296.91C33.8226 296.397 34.336 295.893 34.784 295.398C35.2413 294.894 35.6006 294.404 35.862 293.928C36.1233 293.443 36.254 292.976 36.254 292.528C36.254 292.229 36.2026 291.949 36.1 291.688C35.9973 291.417 35.8293 291.203 35.596 291.044C35.3626 290.876 35.05 290.792 34.658 290.792C34.07 290.792 33.6266 290.979 33.328 291.352C33.0386 291.725 32.8986 292.173 32.908 292.696H31.466C31.4753 292.005 31.62 291.427 31.9 290.96C32.1893 290.493 32.572 290.139 33.048 289.896C33.5333 289.653 34.0793 289.532 34.686 289.532C35.61 289.532 36.3473 289.793 36.898 290.316C37.458 290.829 37.738 291.548 37.738 292.472C37.738 293.023 37.6026 293.569 37.332 294.11C37.0706 294.651 36.7253 295.174 36.296 295.678C35.876 296.173 35.4233 296.639 34.938 297.078C34.4526 297.517 33.9906 297.913 33.552 298.268H38.032V299.5H31.424ZM42.8123 299.668C42.1683 299.668 41.6177 299.542 41.1603 299.29C40.703 299.038 40.3437 298.702 40.0823 298.282C39.8303 297.862 39.6763 297.405 39.6203 296.91H41.0063C41.0903 297.395 41.291 297.769 41.6083 298.03C41.9257 298.291 42.3317 298.422 42.8263 298.422C43.5077 298.422 44.0677 298.105 44.5063 297.47C44.9543 296.826 45.1923 295.841 45.2203 294.516C44.9963 294.927 44.6463 295.277 44.1703 295.566C43.7037 295.855 43.1623 296 42.5463 296C41.9957 296 41.4777 295.869 40.9923 295.608C40.507 295.347 40.115 294.983 39.8163 294.516C39.5177 294.04 39.3683 293.48 39.3683 292.836C39.3683 292.267 39.5083 291.73 39.7883 291.226C40.0683 290.722 40.4603 290.316 40.9643 290.008C41.4777 289.691 42.0843 289.532 42.7843 289.532C43.503 289.532 44.1097 289.667 44.6043 289.938C45.099 290.209 45.4957 290.568 45.7943 291.016C46.093 291.464 46.3077 291.968 46.4383 292.528C46.5783 293.088 46.6483 293.662 46.6483 294.25C46.6483 295.333 46.4943 296.28 46.1863 297.092C45.8877 297.904 45.4537 298.539 44.8843 298.996C44.315 299.444 43.6243 299.668 42.8123 299.668ZM42.8823 294.726C43.2743 294.726 43.6243 294.637 43.9323 294.46C44.2403 294.283 44.483 294.049 44.6603 293.76C44.847 293.461 44.9403 293.135 44.9403 292.78C44.9403 292.397 44.847 292.061 44.6603 291.772C44.483 291.473 44.2357 291.24 43.9183 291.072C43.6103 290.904 43.2603 290.82 42.8683 290.82C42.4763 290.82 42.1263 290.904 41.8183 291.072C41.5103 291.24 41.263 291.473 41.0763 291.772C40.899 292.061 40.8103 292.393 40.8103 292.766C40.8103 293.363 41.0063 293.839 41.3983 294.194C41.7903 294.549 42.285 294.726 42.8823 294.726Z" fill="#333333"/>
<path d="M72.5724 299.668C71.9377 299.668 71.359 299.556 70.8364 299.332C70.323 299.099 69.9124 298.749 69.6044 298.282C69.2964 297.815 69.133 297.232 69.1144 296.532H70.5844C70.603 297.055 70.7804 297.498 71.1164 297.862C71.4617 298.217 71.947 298.394 72.5724 298.394C73.1697 298.394 73.627 298.231 73.9444 297.904C74.2617 297.568 74.4204 297.153 74.4204 296.658C74.4204 296.061 74.2057 295.617 73.7764 295.328C73.3564 295.039 72.8384 294.894 72.2224 294.894H71.4944V293.662H72.2364C72.787 293.662 73.2304 293.531 73.5664 293.27C73.9117 293.009 74.0844 292.64 74.0844 292.164C74.0844 291.763 73.949 291.436 73.6784 291.184C73.417 290.932 73.0437 290.806 72.5584 290.806C72.0544 290.806 71.6577 290.955 71.3684 291.254C71.079 291.543 70.9204 291.907 70.8924 292.346H69.4224C69.441 291.777 69.581 291.282 69.8424 290.862C70.113 290.442 70.4817 290.115 70.9484 289.882C71.415 289.649 71.9517 289.532 72.5584 289.532C73.2117 289.532 73.7577 289.649 74.1964 289.882C74.6444 290.106 74.9804 290.414 75.2044 290.806C75.4377 291.189 75.5544 291.609 75.5544 292.066C75.5544 292.589 75.4097 293.046 75.1204 293.438C74.831 293.83 74.4437 294.091 73.9584 294.222C74.5184 294.343 74.9804 294.619 75.3444 295.048C75.7084 295.468 75.8904 296.014 75.8904 296.686C75.8904 297.227 75.7644 297.727 75.5124 298.184C75.2604 298.632 74.887 298.991 74.3924 299.262C73.8977 299.533 73.291 299.668 72.5724 299.668ZM81.6415 299.668C80.7549 299.668 79.9895 299.458 79.3455 299.038C78.7109 298.609 78.2209 298.016 77.8755 297.26C77.5395 296.495 77.3715 295.608 77.3715 294.6C77.3715 293.592 77.5395 292.71 77.8755 291.954C78.2209 291.189 78.7109 290.596 79.3455 290.176C79.9895 289.747 80.7549 289.532 81.6415 289.532C82.5282 289.532 83.2889 289.747 83.9235 290.176C84.5582 290.596 85.0435 291.189 85.3795 291.954C85.7249 292.71 85.8975 293.592 85.8975 294.6C85.8975 295.608 85.7249 296.495 85.3795 297.26C85.0435 298.016 84.5582 298.609 83.9235 299.038C83.2889 299.458 82.5282 299.668 81.6415 299.668ZM81.6415 298.338C82.1735 298.338 82.6449 298.189 83.0555 297.89C83.4755 297.591 83.8022 297.162 84.0355 296.602C84.2689 296.042 84.3855 295.375 84.3855 294.6C84.3855 293.825 84.2689 293.158 84.0355 292.598C83.8022 292.038 83.4755 291.609 83.0555 291.31C82.6449 291.011 82.1735 290.862 81.6415 290.862C81.1002 290.862 80.6242 291.011 80.2135 291.31C79.8029 291.609 79.4809 292.038 79.2475 292.598C79.0142 293.158 78.8975 293.825 78.8975 294.6C78.8975 295.375 79.0142 296.042 79.2475 296.602C79.4809 297.162 79.8029 297.591 80.2135 297.89C80.6242 298.189 81.1002 298.338 81.6415 298.338Z" fill="#333333"/>
<rect width="30" height="30" transform="translate(101 280)" fill="#EBEBEB"/>
<path d="M115.732 299.5V291.38L114.15 291.744V290.652L116.32 289.7H117.272V299.5H115.732Z" fill="#DEC9DF"/>
<rect width="30" height="30" transform="translate(139.5 280)" fill="#EBEBEB"/>
<path d="M151.292 299.5V298.436C151.927 297.932 152.533 297.423 153.112 296.91C153.691 296.397 154.204 295.893 154.652 295.398C155.109 294.894 155.469 294.404 155.73 293.928C155.991 293.443 156.122 292.976 156.122 292.528C156.122 292.229 156.071 291.949 155.968 291.688C155.865 291.417 155.697 291.203 155.464 291.044C155.231 290.876 154.918 290.792 154.526 290.792C153.938 290.792 153.495 290.979 153.196 291.352C152.907 291.725 152.767 292.173 152.776 292.696H151.334C151.343 292.005 151.488 291.427 151.768 290.96C152.057 290.493 152.44 290.139 152.916 289.896C153.401 289.653 153.947 289.532 154.554 289.532C155.478 289.532 156.215 289.793 156.766 290.316C157.326 290.829 157.606 291.548 157.606 292.472C157.606 293.023 157.471 293.569 157.2 294.11C156.939 294.651 156.593 295.174 156.164 295.678C155.744 296.173 155.291 296.639 154.806 297.078C154.321 297.517 153.859 297.913 153.42 298.268H157.9V299.5H151.292Z" fill="#DEC9DF"/>
<rect width="30" height="30" transform="translate(178 280)" fill="#EBEBEB"/>
<path d="M192.987 299.668C192.353 299.668 191.774 299.556 191.251 299.332C190.738 299.099 190.327 298.749 190.019 298.282C189.711 297.815 189.548 297.232 189.529 296.532H190.999C191.018 297.055 191.195 297.498 191.531 297.862C191.877 298.217 192.362 298.394 192.987 298.394C193.585 298.394 194.042 298.231 194.359 297.904C194.677 297.568 194.835 297.153 194.835 296.658C194.835 296.061 194.621 295.617 194.191 295.328C193.771 295.039 193.253 294.894 192.637 294.894H191.909V293.662H192.651C193.202 293.662 193.645 293.531 193.981 293.27C194.327 293.009 194.499 292.64 194.499 292.164C194.499 291.763 194.364 291.436 194.093 291.184C193.832 290.932 193.459 290.806 192.973 290.806C192.469 290.806 192.073 290.955 191.783 291.254C191.494 291.543 191.335 291.907 191.307 292.346H189.837C189.856 291.777 189.996 291.282 190.257 290.862C190.528 290.442 190.897 290.115 191.363 289.882C191.83 289.649 192.367 289.532 192.973 289.532C193.627 289.532 194.173 289.649 194.611 289.882C195.059 290.106 195.395 290.414 195.619 290.806C195.853 291.189 195.969 291.609 195.969 292.066C195.969 292.589 195.825 293.046 195.535 293.438C195.246 293.83 194.859 294.091 194.373 294.222C194.933 294.343 195.395 294.619 195.759 295.048C196.123 295.468 196.305 296.014 196.305 296.686C196.305 297.227 196.179 297.727 195.927 298.184C195.675 298.632 195.302 298.991 194.807 299.262C194.313 299.533 193.706 299.668 192.987 299.668Z" fill="#DEC9DF"/>
<rect width="30" height="30" transform="translate(216.5 280)" fill="#EBEBEB"/>
<path d="M232.599 299.5V297.54H227.685V296.364L232.361 289.7H234.069V296.252H235.441V297.54H234.069V299.5H232.599ZM229.295 296.252H232.683V291.338L229.295 296.252Z" fill="#DEC9DF"/>
<rect width="30" height="30" transform="translate(255 280)" fill="#EBEBEB"/>
<path d="M270.097 299.668C269.406 299.668 268.809 299.547 268.305 299.304C267.801 299.052 267.399 298.711 267.101 298.282C266.811 297.843 266.634 297.349 266.569 296.798H268.025C268.118 297.265 268.351 297.652 268.725 297.96C269.098 298.259 269.56 298.408 270.111 298.408C270.521 298.408 270.876 298.31 271.175 298.114C271.473 297.909 271.707 297.638 271.875 297.302C272.043 296.966 272.127 296.588 272.127 296.168C272.127 295.505 271.94 294.978 271.567 294.586C271.193 294.185 270.722 293.984 270.153 293.984C269.667 293.984 269.252 294.101 268.907 294.334C268.561 294.558 268.309 294.843 268.151 295.188H266.737L267.577 289.7H272.869V291.002H268.697L268.193 293.62C268.407 293.377 268.701 293.177 269.075 293.018C269.457 292.85 269.887 292.766 270.363 292.766C271.025 292.766 271.595 292.92 272.071 293.228C272.547 293.527 272.911 293.933 273.163 294.446C273.424 294.959 273.555 295.529 273.555 296.154C273.555 296.807 273.415 297.4 273.135 297.932C272.855 298.464 272.453 298.889 271.931 299.206C271.417 299.514 270.806 299.668 270.097 299.668Z" fill="#DEC9DF"/>
</g>
<defs>
<filter id="filter0_d_8024_375869" x="0" y="64" width="309" height="274" filterUnits="userSpaceOnUse" color-interpolation-filters="sRGB">
<feFlood flood-opacity="0" result="BackgroundImageFix"/>
<feColorMatrix in="SourceAlpha" type="matrix" values="0 0 0 0 0 0 0 0 0 0 0 0 0 0 0 0 0 0 127 0" result="hardAlpha"/>
<feOffset dy="4"/>
<feGaussianBlur stdDeviation="4"/>
<feComposite in2="hardAlpha" operator="out"/>
<feColorMatrix type="matrix" values="0 0 0 0 0 0 0 0 0 0 0 0 0 0 0 0 0 0 0.1 0"/>
<feBlend mode="normal" in2="BackgroundImageFix" result="effect1_dropShadow_8024_375869"/>
<feBlend mode="normal" in="SourceGraphic" in2="effect1_dropShadow_8024_375869" result="shape"/>
</filter>
<clipPath id="clip0_8024_375869">
<rect width="16" height="16" fill="white" transform="translate(28 32)"/>
</clipPath>
<clipPath id="clip1_8024_375869">
<rect width="16" height="16" fill="white" transform="translate(133 32)"/>
</clipPath>
<clipPath id="clip2_8024_375869">
<rect width="16" height="16" fill="white" transform="translate(269 32)"/>
</clipPath>
<clipPath id="clip3_8024_375869">
<rect width="261" height="24" fill="white" transform="translate(24 84)"/>
</clipPath>
<clipPath id="clip4_8024_375869">
<rect width="16" height="16" fill="white" transform="translate(28 88)"/>
</clipPath>
<clipPath id="clip5_8024_375869">
<rect width="16" height="16" fill="white" transform="translate(172 88) rotate(90)"/>
</clipPath>
<clipPath id="clip6_8024_375869">
<rect width="16" height="16" fill="white" transform="translate(233 88) rotate(90)"/>
</clipPath>
<clipPath id="clip7_8024_375869">
<rect width="16" height="16" fill="white" transform="translate(265 88)"/>
</clipPath>
</defs>
</svg>
