<svg xmlns="http://www.w3.org/2000/svg" viewBox="0 0 2000 470.93"><defs><style>.cls-1,.cls-2,.cls-8{fill:#fff;}.cls-1,.cls-2,.cls-3,.cls-4,.cls-5,.cls-6,.cls-8{stroke:#1d1d1b;stroke-miterlimit:10;}.cls-1{stroke-width:18px;}.cls-2,.cls-3{stroke-width:1.41px;}.cls-3,.cls-4,.cls-5,.cls-6{fill:none;}.cls-4{stroke-width:1.54px;}.cls-5{stroke-width:1.66px;}.cls-7{fill:#1d1d1b;}.cls-8{stroke-width:36.14px;}</style></defs><g id="Capa_2" data-name="Capa 2"><g id="Capa_1-2" data-name="Capa 1"><polygon class="cls-1" points="308.7 137.09 354.88 110.93 400.62 137.84 400.19 190.91 354.01 217.07 308.27 190.16 308.7 137.09"/><circle class="cls-1" cx="158.36" cy="283.28" r="30.89"/><circle class="cls-1" cx="369.13" cy="276" r="7.28"/><circle class="cls-2" cx="559.84" cy="215.78" r="20.5"/><circle class="cls-3" cx="559.84" cy="215.78" r="28.17"/><circle class="cls-3" cx="559.84" cy="215.78" r="35.21"/><circle class="cls-3" cx="559.84" cy="215.78" r="42.25"/><circle class="cls-3" cx="559.84" cy="215.78" r="49.29"/><circle class="cls-3" cx="559.84" cy="215.78" r="56.33"/><circle class="cls-3" cx="559.84" cy="215.78" r="63.38"/><circle class="cls-3" cx="559.84" cy="215.78" r="70.42"/><circle class="cls-3" cx="559.84" cy="215.78" r="77.46"/><circle class="cls-4" cx="559.84" cy="215.78" r="84.5"/><circle class="cls-5" cx="559.84" cy="215.78" r="91.54"/><circle class="cls-3" cx="1157.16" cy="92.38" r="20.5"/><circle class="cls-3" cx="1157.16" cy="92.38" r="28.17"/><circle class="cls-3" cx="1157.16" cy="92.38" r="35.21"/><circle class="cls-3" cx="1157.16" cy="92.38" r="42.25"/><circle class="cls-3" cx="1157.16" cy="92.38" r="49.29"/><circle class="cls-3" cx="1157.16" cy="92.38" r="56.33"/><circle class="cls-3" cx="1157.16" cy="92.38" r="63.38"/><circle class="cls-3" cx="1157.16" cy="92.38" r="70.42"/><circle class="cls-3" cx="1157.16" cy="92.38" r="77.46"/><circle class="cls-4" cx="1157.16" cy="92.38" r="84.5"/><circle class="cls-5" cx="1157.16" cy="92.38" r="91.54"/><circle class="cls-6" cx="1640.2" cy="338.73" r="29.49"/><circle class="cls-6" cx="1640.2" cy="338.73" r="40.52"/><circle class="cls-6" cx="1640.2" cy="338.73" r="50.65"/><circle class="cls-6" cx="1640.2" cy="338.73" r="60.78"/><circle class="cls-6" cx="1640.2" cy="338.73" r="70.91"/><circle class="cls-6" cx="1640.2" cy="338.73" r="81.04"/><circle class="cls-6" cx="1640.2" cy="338.73" r="91.18"/><circle class="cls-6" cx="1640.2" cy="338.73" r="101.31"/><circle class="cls-6" cx="1640.2" cy="338.73" r="111.44"/><circle class="cls-6" cx="1640.2" cy="338.73" r="121.57"/><circle class="cls-6" cx="1640.2" cy="338.73" r="131.7"/><line class="cls-6" x1="787.72" y1="72.13" x2="676.91" y2="199.79"/><line class="cls-6" x1="797.72" y1="72.13" x2="686.92" y2="199.79"/><line class="cls-6" x1="807.73" y1="72.13" x2="696.92" y2="199.79"/><line class="cls-6" x1="827.73" y1="72.13" x2="716.92" y2="199.79"/><line class="cls-6" x1="817.73" y1="72.13" x2="706.92" y2="199.79"/><line class="cls-6" x1="837.73" y1="72.13" x2="726.92" y2="199.79"/><line class="cls-6" x1="847.73" y1="72.13" x2="736.92" y2="199.79"/><line class="cls-6" x1="857.73" y1="72.13" x2="746.92" y2="199.79"/><line class="cls-6" x1="867.73" y1="72.13" x2="756.92" y2="199.79"/><line class="cls-6" x1="877.73" y1="72.13" x2="766.92" y2="199.79"/><line class="cls-6" x1="887.73" y1="72.13" x2="776.92" y2="199.79"/><line class="cls-6" x1="907.74" y1="72.13" x2="796.93" y2="199.79"/><line class="cls-6" x1="897.73" y1="72.13" x2="786.93" y2="199.79"/><line class="cls-6" x1="917.74" y1="72.13" x2="806.93" y2="199.79"/><line class="cls-6" x1="927.74" y1="72.13" x2="816.93" y2="199.79"/><line class="cls-6" x1="280.92" y1="253.24" x2="170.11" y2="380.9"/><line class="cls-6" x1="290.92" y1="253.24" x2="180.11" y2="380.9"/><line class="cls-6" x1="300.92" y1="253.24" x2="190.11" y2="380.9"/><line class="cls-6" x1="320.92" y1="253.24" x2="210.11" y2="380.9"/><line class="cls-6" x1="310.92" y1="253.24" x2="200.11" y2="380.9"/><line class="cls-6" x1="330.92" y1="253.24" x2="220.11" y2="380.9"/><line class="cls-6" x1="340.92" y1="253.24" x2="230.11" y2="380.9"/><line class="cls-6" x1="350.92" y1="253.24" x2="240.12" y2="380.9"/><line class="cls-6" x1="360.92" y1="253.24" x2="250.12" y2="380.9"/><line class="cls-6" x1="370.93" y1="253.24" x2="260.12" y2="380.9"/><line class="cls-6" x1="380.93" y1="253.24" x2="270.12" y2="380.9"/><line class="cls-6" x1="400.93" y1="253.24" x2="290.12" y2="380.9"/><line class="cls-6" x1="390.93" y1="253.24" x2="280.12" y2="380.9"/><line class="cls-6" x1="410.93" y1="253.24" x2="300.12" y2="380.9"/><line class="cls-6" x1="420.93" y1="253.24" x2="310.12" y2="380.9"/><polygon class="cls-7" points="740.61 252.15 720.45 252.15 710.37 269.61 720.45 287.07 740.61 287.07 750.7 269.61 740.61 252.15"/><circle class="cls-8" cx="1227.82" cy="283.29" r="62.03"/><path class="cls-7" d="M938.62,187.61a109.55,109.55,0,0,0-108.89,97.65l23.47-27a6,6,0,1,1,9.06,7.86l-33,38a109.42,109.42,0,0,0,2.29,16.5l54.1-62.33a6,6,0,0,1,9.07,7.86L835.55,334.3a109.72,109.72,0,0,0,5.54,12.76l77.12-88.84a6,6,0,1,1,9.06,7.86L847.51,358a110.66,110.66,0,0,0,7.74,10.23l95.46-110a6,6,0,1,1,9.06,7.86l-96.2,110.84a110.88,110.88,0,0,0,9.61,8.07l110-126.77a6,6,0,1,1,9.06,7.86l-109,125.59a109.54,109.54,0,1,0,55.36-204.06Z"/><path class="cls-7" d="M1465.75,127.57v27.78a52.49,52.49,0,1,0-42.38,21.53c1.27,0,2.52-.06,3.77-.15V127.57Z"/><path class="cls-7" d="M1428,128.4v48.27a52.42,52.42,0,0,0,37-20.23v-28Z"/><path class="cls-7" d="M1464.93,156.44V267.8h-37V176.67l-.83.06v91.9h38.61V155.35C1465.48,155.72,1465.21,156.08,1464.93,156.44Z"/><path class="cls-7" d="M1329.11,143.21h-39.25V104h39.25Zm-38.42-.83h37.59V104.79h-37.59Z"/><circle class="cls-7" cx="1562.69" cy="137.13" r="5.25"/><circle class="cls-7" cx="1538.44" cy="137.13" r="5.25"/><circle class="cls-7" cx="1586.94" cy="137.13" r="5.25"/><circle class="cls-7" cx="1611.19" cy="137.13" r="5.25"/><circle class="cls-7" cx="1635.45" cy="137.13" r="5.25"/><circle class="cls-7" cx="1683.95" cy="137.13" r="5.25"/><circle class="cls-7" cx="1659.7" cy="137.13" r="5.25"/><circle class="cls-7" cx="1708.2" cy="137.13" r="5.25"/><circle class="cls-7" cx="1732.45" cy="137.13" r="5.25"/><circle class="cls-7" cx="1756.7" cy="137.13" r="5.25"/><circle class="cls-7" cx="1574.69" cy="148.13" r="5.25"/><circle class="cls-7" cx="1550.44" cy="148.13" r="5.25"/><circle class="cls-7" cx="1598.95" cy="148.13" r="5.25"/><circle class="cls-7" cx="1623.2" cy="148.13" r="5.25"/><circle class="cls-7" cx="1647.45" cy="148.13" r="5.25"/><circle class="cls-7" cx="1695.95" cy="148.13" r="5.25"/><circle class="cls-7" cx="1671.7" cy="148.13" r="5.25"/><circle class="cls-7" cx="1720.2" cy="148.13" r="5.25"/><circle class="cls-7" cx="1744.45" cy="148.13" r="5.25"/><circle class="cls-7" cx="1768.7" cy="148.13" r="5.25"/><circle class="cls-7" cx="1574.69" cy="148.13" r="5.25"/><circle class="cls-7" cx="1550.44" cy="148.13" r="5.25"/><circle class="cls-7" cx="1598.95" cy="148.13" r="5.25"/><circle class="cls-7" cx="1623.2" cy="148.13" r="5.25"/><circle class="cls-7" cx="1647.45" cy="148.13" r="5.25"/><circle class="cls-7" cx="1695.95" cy="148.13" r="5.25"/><circle class="cls-7" cx="1671.7" cy="148.13" r="5.25"/><circle class="cls-7" cx="1720.2" cy="148.13" r="5.25"/><circle class="cls-7" cx="1744.45" cy="148.13" r="5.25"/><circle class="cls-7" cx="1768.7" cy="148.13" r="5.25"/><circle class="cls-7" cx="1563.69" cy="158.13" r="5.25"/><circle class="cls-7" cx="1539.44" cy="158.13" r="5.25"/><circle class="cls-7" cx="1587.94" cy="158.13" r="5.25"/><circle class="cls-7" cx="1612.19" cy="158.13" r="5.25"/><circle class="cls-7" cx="1636.45" cy="158.13" r="5.25"/><circle class="cls-7" cx="1684.95" cy="158.13" r="5.25"/><circle class="cls-7" cx="1660.7" cy="158.13" r="5.25"/><circle class="cls-7" cx="1709.2" cy="158.13" r="5.25"/><circle class="cls-7" cx="1733.45" cy="158.13" r="5.25"/><circle class="cls-7" cx="1757.7" cy="158.13" r="5.25"/><circle class="cls-7" cx="13.28" cy="275.79" r="13.28"/><circle class="cls-7" cx="1986.98" cy="112.87" r="13.02"/></g></g></svg>